<svg preserveAspectRatio="none" width="100%" height="100%" overflow="visible" style="display: block;" viewBox="0 0 27.0318 18.6444" fill="none" xmlns="http://www.w3.org/2000/svg">
<path id="back-button" d="M0.370781 8.42707C-0.123594 8.92145 -0.123594 9.72299 0.370781 10.2174L8.42707 18.2737C8.92145 18.768 9.72299 18.768 10.2174 18.2737C10.7117 17.7793 10.7117 16.9777 10.2174 16.4834L3.05621 9.32222L10.2174 2.16107C10.7117 1.66669 10.7117 0.865155 10.2174 0.370781C9.72299 -0.123593 8.92145 -0.123593 8.42707 0.370781L0.370781 8.42707ZM25.7659 10.5881C26.4651 10.5881 27.0318 10.0214 27.0318 9.32222C27.0318 8.62307 26.4651 8.05629 25.7659 8.05629V9.32222V10.5881ZM1.26592 9.32222V10.5881H25.7659V9.32222V8.05629H1.26592V9.32222Z" fill="var(--stroke-0, #2F0000)"/>
</svg>
