<svg width="146" height="42" viewBox="0 0 146 42" fill="none" xmlns="http://www.w3.org/2000/svg">
<rect width="146" height="42" fill="white" fill-opacity="0.2"/>
<path d="M19.2656 29.0469C19.2656 32.7135 19.9844 34.5469 21.4219 34.5469C22.8073 34.5469 23.5 32.7135 23.5 29.0469C23.5 25.5052 22.8073 23.7344 21.4219 23.7344C19.9844 23.7344 19.2656 25.5052 19.2656 29.0469ZM21.4219 23.0312C22.4531 23.0312 23.3177 23.526 24.0156 24.5156C24.7135 25.4948 25.0625 27.0052 25.0625 29.0469C25.0625 31.151 24.7135 32.7083 24.0156 33.7188C23.3177 34.7188 22.4531 35.2188 21.4219 35.2188C20.3698 35.2188 19.4896 34.7188 18.7812 33.7188C18.0729 32.7188 17.7188 31.1615 17.7188 29.0469C17.7188 26.9948 18.0729 25.4792 18.7812 24.5C19.4896 23.5208 20.3698 23.0312 21.4219 23.0312ZM31.0938 34.1094L33.5625 34.4531V35H27.0938V34.4531L29.5938 34.1094C29.6146 32.8802 29.625 31.9427 29.625 31.2969V24.4219L27.2812 24.6406V24.0469L30.8906 23.0938L31.125 23.2656L31.0625 25.7969V31.2969C31.0625 31.9427 31.0729 32.8802 31.0938 34.1094ZM37.1875 35.2188C36.8646 35.2188 36.5833 35.1042 36.3438 34.875C36.1146 34.6458 36 34.375 36 34.0625C36 33.7292 36.1146 33.4427 36.3438 33.2031C36.5833 32.9635 36.8646 32.8438 37.1875 32.8438C37.5208 32.8438 37.8021 32.9635 38.0312 33.2031C38.2708 33.4427 38.3906 33.7292 38.3906 34.0625C38.3906 34.375 38.2708 34.6458 38.0312 34.875C37.8021 35.1042 37.5208 35.2188 37.1875 35.2188Z" fill="#2F0000"/>
</svg>
