<svg width="41" height="34" viewBox="0 0 41 34" fill="none" xmlns="http://www.w3.org/2000/svg">
<path d="M4.26933 4.47395V6.6433H6.38938V4.47395H4.26933ZM6.29077 4.19785L6.46826 3.93161C6.48141 3.91189 6.49784 3.88888 6.51757 3.86259C6.54386 3.82972 6.56358 3.80343 6.57673 3.7837C6.58988 3.76398 6.60302 3.74426 6.61617 3.72454C6.63589 3.70482 6.65233 3.69167 6.66548 3.6851C6.6852 3.67195 6.70163 3.66538 6.71478 3.66538C6.78052 3.66538 6.93171 3.77384 7.16837 3.99078C7.4116 4.20771 7.53322 4.35234 7.53322 4.42465C7.44118 4.51668 7.30642 4.58571 7.12893 4.63172V5.59807C7.14865 6.40664 7.17166 7.02787 7.19795 7.46174C7.15194 7.5209 7.05333 7.58664 6.90213 7.65895C6.75751 7.72469 6.62603 7.75756 6.50771 7.75756C6.40252 7.75756 6.34993 7.69182 6.34993 7.56034L6.38938 7.22508V6.94898H4.26933V7.23494C4.28248 7.45845 4.29891 7.62608 4.31864 7.73783C4.29891 7.80357 4.22003 7.8726 4.08198 7.94491C3.9505 8.01065 3.81574 8.04351 3.67769 8.04351C3.61853 8.04351 3.57251 8.02379 3.53964 7.98435C3.50677 7.93833 3.49034 7.88903 3.49034 7.83644C3.51663 7.52747 3.53964 7.11004 3.55936 6.58414V5.86431C3.55936 5.05573 3.51335 4.36548 3.42131 3.79356L4.3285 4.19785H6.29077ZM4.56515 2.39335H8.41081L8.58831 2.15669C8.60145 2.14355 8.6146 2.12382 8.62775 2.09753C8.64747 2.07123 8.66062 2.05151 8.66719 2.03836C8.68034 2.02522 8.69349 2.00878 8.70664 1.98906C8.72636 1.96934 8.7395 1.95619 8.74608 1.94962C8.75923 1.93647 8.77237 1.92661 8.78552 1.92004C8.79867 1.91346 8.81182 1.91018 8.82496 1.91018C8.8907 1.91018 9.04847 2.01207 9.29828 2.21586C9.55465 2.41964 9.68284 2.55769 9.68284 2.63001C9.60396 2.72204 9.46919 2.78778 9.27855 2.82722V8.70418C9.27855 9.04602 9.19967 9.30239 9.0419 9.47331C8.8907 9.64423 8.56201 9.75598 8.05583 9.80858C8.02296 9.53248 7.9375 9.33855 7.79945 9.2268C7.60881 9.0756 7.29327 8.9737 6.85283 8.92111V8.75348C7.61539 8.81922 8.08541 8.85209 8.2629 8.85209C8.43382 8.85209 8.51928 8.76992 8.51928 8.60557V2.67931H2.24789V7.07717C2.26104 7.91204 2.28734 8.70418 2.32678 9.45359C2.28076 9.53905 2.18873 9.61794 2.05068 9.69025C1.91263 9.76913 1.76472 9.80858 1.60695 9.80858C1.54779 9.80858 1.49191 9.78557 1.43932 9.73955C1.3933 9.70011 1.37029 9.65409 1.37029 9.6015C1.42946 8.73376 1.46561 7.85945 1.47876 6.97856V4.02036C1.47876 3.21178 1.43275 2.52154 1.34071 1.94962L2.31692 2.39335H4.17073C4.4534 1.69653 4.61774 1.04572 4.66376 0.440936L6.02453 0.845223C5.97852 0.983273 5.86019 1.04901 5.66955 1.04244C5.23568 1.64065 4.86755 2.09096 4.56515 2.39335ZM15.688 3.56677V7.12647C15.7011 7.94819 15.7274 8.73705 15.7669 9.49303C15.7209 9.57192 15.6288 9.64423 15.4908 9.70997C15.3527 9.78228 15.195 9.81844 15.0175 9.81844C14.9517 9.81844 14.8926 9.79543 14.84 9.74941C14.7874 9.70997 14.7611 9.66395 14.7611 9.61136C14.8268 8.61872 14.8663 7.74441 14.8794 6.98842V1.71296H12.6805C12.2072 1.71954 11.7043 1.76555 11.1718 1.85101L10.9056 1.34812C11.2737 1.38756 11.7207 1.41386 12.2466 1.427H18.3208L18.5772 1.04244C18.7678 0.786059 18.8828 0.657871 18.9223 0.657871C18.988 0.657871 19.1721 0.789346 19.4745 1.0523C19.7835 1.30868 19.9379 1.47302 19.9379 1.54533C19.9182 1.65709 19.8328 1.71296 19.6816 1.71296H15.688V3.3597C16.9633 3.61607 17.831 4.04337 18.2912 4.64158C18.541 4.9637 18.6068 5.23322 18.4884 5.45016C18.3767 5.63422 18.1893 5.67367 17.9264 5.56849C17.7292 5.24637 17.4202 4.90125 16.9995 4.53312C16.5787 4.16498 16.1416 3.84287 15.688 3.56677ZM21.6931 0.726895L21.772 0.64801C22.5872 0.740043 23.1098 0.99642 23.3399 1.41714C23.4713 1.66037 23.4648 1.87073 23.3202 2.04823C23.1821 2.21914 22.9948 2.23887 22.7581 2.10739C22.6858 1.87731 22.5444 1.63408 22.3341 1.3777C22.1303 1.12132 21.9167 0.904387 21.6931 0.726895ZM21.0029 3.01457L21.0818 2.92583C21.8706 3.01786 22.3702 3.26438 22.5806 3.66538C22.7055 3.90203 22.6924 4.09925 22.5412 4.25702C22.4031 4.41479 22.2223 4.42465 21.9988 4.2866C21.9331 4.06966 21.8049 3.84615 21.6143 3.61607C21.4236 3.37942 21.2198 3.17892 21.0029 3.01457ZM21.2396 6.9687H21.6734C21.7194 6.9687 21.7523 6.96541 21.772 6.95884C21.7917 6.95227 21.8148 6.93583 21.8411 6.90954C21.8673 6.88324 21.8969 6.83723 21.9298 6.77149C22.081 6.4428 22.6825 5.00314 23.7343 2.45251L23.9118 2.51168C23.2676 4.49696 22.8567 5.815 22.6792 6.46581C22.5806 6.87338 22.5346 7.17578 22.5412 7.37299C22.5412 7.47817 22.5937 7.71483 22.6989 8.08296C22.8041 8.45109 22.8501 8.79293 22.837 9.10847C22.8238 9.33198 22.7614 9.50947 22.6496 9.64094C22.5379 9.77242 22.39 9.83816 22.2059 9.83816C22.1204 9.83816 22.0416 9.79543 21.9692 9.70997C21.9035 9.62451 21.8608 9.50289 21.8411 9.34512C21.9134 8.83237 21.9364 8.38535 21.9101 8.00407C21.8904 7.62279 21.8279 7.39928 21.7227 7.33355C21.6175 7.25466 21.4565 7.20536 21.2396 7.18564V6.9687ZM25.3909 6.53483V7.5702H28.0927V6.53483H25.3909ZM28.0927 6.24887V5.24308H25.3909V6.24887H28.0927ZM25.3909 7.85616V8.42808C25.4106 8.99343 25.427 9.34841 25.4402 9.49303C25.4139 9.56535 25.3284 9.63766 25.1838 9.70997C25.0458 9.78228 24.9011 9.81844 24.75 9.81844C24.6908 9.81844 24.6415 9.79543 24.602 9.74941C24.5626 9.70997 24.5429 9.66395 24.5429 9.61136C24.5889 9.01972 24.6185 8.37549 24.6316 7.67867V6.594C24.6316 5.74598 24.5889 5.05573 24.5034 4.52325L25.4303 4.9374H28.004L28.1519 4.72047C28.165 4.70732 28.1815 4.6876 28.2012 4.6613C28.2209 4.62843 28.2373 4.60543 28.2505 4.59228C28.2636 4.57913 28.2768 4.5627 28.2899 4.54298C28.3097 4.52325 28.3261 4.51011 28.3392 4.50353C28.359 4.49696 28.3754 4.49367 28.3885 4.49367C28.4543 4.49367 28.612 4.58899 28.8619 4.77963C29.1117 4.97027 29.2366 5.10175 29.2366 5.17406C29.1577 5.26609 29.0262 5.33183 28.8421 5.37127V8.78307C28.8421 9.11175 28.7731 9.35498 28.6351 9.51275C28.497 9.6771 28.2012 9.78228 27.7476 9.8283C27.7147 9.5522 27.649 9.36813 27.5504 9.2761C27.3926 9.13148 27.1264 9.03287 26.7517 8.98028V8.82251C27.3827 8.8751 27.764 8.90139 27.8955 8.90139C27.9744 8.90139 28.027 8.88496 28.0533 8.85209C28.0796 8.81922 28.0927 8.76334 28.0927 8.68446V7.85616H25.3909ZM27.9547 1.34812H25.5092V3.7344H26.3868C26.3868 2.95869 26.3507 2.34405 26.2784 1.89045L27.0771 2.2553H27.9547V1.34812ZM27.9547 2.54126H26.9489V3.7344H27.9547V2.54126ZM27.8462 1.0523L28.0138 0.776199C28.027 0.763051 28.05 0.726895 28.0829 0.667731C28.1223 0.601994 28.1519 0.559264 28.1716 0.539543C28.1913 0.519821 28.2143 0.509961 28.2406 0.509961C28.3064 0.509961 28.4641 0.615141 28.7139 0.825502C28.9703 1.03586 29.0985 1.1772 29.0985 1.24951C29.0459 1.33497 28.9013 1.39742 28.6646 1.43686V3.7344H29.0393L29.2168 3.53719C29.2366 3.51747 29.2596 3.49446 29.2859 3.46816C29.3122 3.43529 29.3319 3.41229 29.345 3.39914C29.3647 3.37942 29.3845 3.36298 29.4042 3.34983C29.4239 3.33669 29.4436 3.33011 29.4634 3.33011C29.5225 3.33011 29.6507 3.43201 29.8479 3.63579C30.0517 3.83958 30.1536 3.97763 30.1536 4.04994C30.101 4.10253 29.9794 4.1354 29.7888 4.14855C29.5718 4.4115 29.3187 4.67445 29.0295 4.9374L28.9013 4.87824L29.0788 4.03022H24.395C24.4147 4.62843 24.2734 5.00643 23.971 5.1642C23.7803 5.2628 23.6193 5.24637 23.4878 5.11489C23.3497 4.97027 23.3596 4.78621 23.5174 4.5627C23.8921 4.35234 24.0991 3.91518 24.1386 3.25123L24.2865 3.26109C24.3194 3.41229 24.3489 3.57006 24.3752 3.7344H24.819V2.71875C24.819 1.87073 24.7762 1.18049 24.6908 0.64801L25.6177 1.0523H27.8462ZM33.9401 1.72282L34.1472 1.39742C34.1603 1.3777 34.1768 1.3514 34.1965 1.31854C34.2228 1.28567 34.2425 1.25937 34.2556 1.23965C34.2754 1.21993 34.2918 1.20021 34.3049 1.18049C34.3247 1.15419 34.3411 1.13447 34.3542 1.12132C34.3674 1.10817 34.3805 1.09831 34.3937 1.09174C34.4134 1.07859 34.4298 1.07202 34.443 1.07202C34.5087 1.07202 34.6665 1.18377 34.9163 1.40728C35.1727 1.63079 35.3009 1.7787 35.3009 1.85101C35.2811 1.95619 35.199 2.00878 35.0544 2.00878H33.2597C32.8324 2.01536 32.3295 2.06466 31.751 2.15669L31.4947 1.64394C31.8628 1.68338 32.3098 1.70968 32.8357 1.72282H33.9401ZM34.443 3.94147L34.6698 3.61607C34.6829 3.59635 34.6994 3.57006 34.7191 3.53719C34.7454 3.50432 34.7651 3.47802 34.7783 3.4583C34.798 3.43858 34.8144 3.41886 34.8276 3.39914C34.8473 3.37284 34.8637 3.35312 34.8769 3.33997C34.89 3.32683 34.9032 3.31697 34.9163 3.31039C34.936 3.29724 34.9525 3.29067 34.9656 3.29067C35.0313 3.29067 35.1891 3.40571 35.4389 3.63579C35.6887 3.8593 35.8136 4.00721 35.8136 4.07952C35.7808 4.19128 35.6986 4.24716 35.5671 4.24716H32.8554C33.5457 4.46409 33.8941 4.61529 33.9007 4.70075C33.9007 4.72704 33.8711 4.75005 33.8119 4.76977L33.6344 4.82894C33.4241 5.25623 33.148 5.72954 32.8061 6.24887C32.4709 6.7682 32.1422 7.21522 31.8201 7.58992C32.2736 7.55048 33.1611 7.43544 34.4824 7.2448C34.3575 6.67288 34.1603 6.10754 33.8908 5.54876L34.0288 5.49946C34.7848 6.09768 35.2154 6.73533 35.3206 7.41243C35.3798 7.82001 35.314 8.10597 35.1234 8.27031C34.9525 8.41493 34.7684 8.37878 34.5712 8.16184C34.5778 8.02379 34.5679 7.81015 34.5416 7.5209C33.3452 7.96134 32.461 8.27031 31.8891 8.4478C31.8365 8.54641 31.7543 8.61543 31.6426 8.65488L31.1988 7.54062C31.35 7.50118 31.4486 7.46174 31.4947 7.42229C31.7313 7.10675 31.9844 6.62029 32.2539 5.96291C32.5234 5.30553 32.7174 4.73362 32.8357 4.24716H32.2835C31.968 4.25373 31.6393 4.29975 31.2974 4.38521L31.0509 3.86259C31.4191 3.90203 31.8661 3.92833 32.392 3.94147H34.443ZM37.4998 2.9061H38.9197L39.117 2.66945C39.2681 2.5051 39.3602 2.42293 39.3931 2.42293C39.4588 2.42293 39.6034 2.52482 39.8269 2.72861C40.057 2.9324 40.172 3.07045 40.172 3.14276C40.0997 3.22822 39.9617 3.2841 39.7579 3.31039C39.725 5.21679 39.656 6.63015 39.5508 7.55048C39.4522 8.47081 39.2912 9.05916 39.0676 9.31554C38.7981 9.62451 38.4366 9.77899 37.983 9.77899C37.983 9.49632 37.9304 9.30239 37.8252 9.19721C37.7134 9.08546 37.4472 8.98685 37.0265 8.90139L37.0363 8.7239C37.5688 8.78307 37.9402 8.81265 38.1506 8.81265C38.2952 8.81265 38.407 8.76992 38.4859 8.68446C38.6436 8.52669 38.762 8.01393 38.8409 7.14619C38.9197 6.27188 38.9789 4.95384 39.0183 3.19206H37.4899C37.4768 3.70482 37.4472 4.1617 37.4012 4.5627C37.3618 4.9637 37.2993 5.38442 37.2138 5.82486C37.1284 6.25873 37.0068 6.65316 36.849 7.00814C36.6978 7.35655 36.5072 7.70496 36.2771 8.05338C36.0536 8.40179 35.7742 8.72719 35.4389 9.02958C35.1037 9.33198 34.7191 9.61136 34.2852 9.86774L34.157 9.70997C34.6698 9.30897 35.0971 8.87181 35.4389 8.3985C35.7808 7.91861 36.0404 7.396 36.2179 6.83065C36.402 6.25873 36.5302 5.69339 36.6025 5.13462C36.6814 4.57584 36.7274 3.92833 36.7405 3.19206H36.2278C35.978 3.19864 35.6822 3.24794 35.3403 3.33997L35.0741 2.81736C35.4488 2.86995 35.8235 2.89953 36.1982 2.9061H36.7405C36.7405 2.86666 36.7405 2.8075 36.7405 2.72861C36.7471 2.64315 36.7504 2.58399 36.7504 2.55112C36.7635 1.80171 36.7175 1.10489 36.6123 0.460657C37.4012 0.532969 37.7923 0.615141 37.7858 0.707174C37.7858 0.733469 37.7595 0.766338 37.7069 0.805781L37.5195 0.914248C37.5195 1.13776 37.5162 1.47302 37.5097 1.92004C37.5097 2.36048 37.5064 2.68917 37.4998 2.9061Z" fill="#A97979"/>
<path d="M19.7958 33.251L8.36063 21.0625H31.231L19.7958 33.251Z" fill="#7F4444"/>
</svg>
