<svg width="154" height="39" viewBox="0 0 154 39" fill="none" xmlns="http://www.w3.org/2000/svg">
<rect width="161" height="39" fill="white" fill-opacity="0.2"/>
<path d="M89.2656 27.0469C89.2656 30.7135 89.9844 32.5469 91.4219 32.5469C92.8073 32.5469 93.5 30.7135 93.5 27.0469C93.5 23.5052 92.8073 21.7344 91.4219 21.7344C89.9844 21.7344 89.2656 23.5052 89.2656 27.0469ZM91.4219 21.0312C92.4531 21.0312 93.3177 21.526 94.0156 22.5156C94.7135 23.4948 95.0625 25.0052 95.0625 27.0469C95.0625 29.151 94.7135 30.7083 94.0156 31.7188C93.3177 32.7188 92.4531 33.2188 91.4219 33.2188C90.3698 33.2188 89.4896 32.7188 88.7812 31.7188C88.0729 30.7188 87.7188 29.1615 87.7188 27.0469C87.7188 24.9948 88.0729 23.4792 88.7812 22.5C89.4896 21.5208 90.3698 21.0312 91.4219 21.0312ZM97.7656 31.6406H103.844V33H96.6406V31.9062C96.8281 31.6979 97.2448 31.2292 97.8906 30.5C98.5365 29.7708 99.0052 29.2396 99.2969 28.9062C100.182 27.8958 100.823 27.0365 101.219 26.3281C101.615 25.6094 101.812 24.9062 101.812 24.2188C101.812 23.4688 101.62 22.8646 101.234 22.4062C100.849 21.9479 100.328 21.7188 99.6719 21.7188C99.3906 21.7188 99.0729 21.7552 98.7188 21.8281L98.375 23.1094C98.1875 23.849 97.8646 24.2188 97.4062 24.2188C97.0312 24.2188 96.75 24.0365 96.5625 23.6719C96.6771 22.8281 97.0625 22.1771 97.7188 21.7188C98.375 21.2604 99.1615 21.0312 100.078 21.0312C101.161 21.0312 101.974 21.3125 102.516 21.875C103.068 22.4271 103.344 23.1823 103.344 24.1406C103.344 24.8698 103.104 25.5885 102.625 26.2969C102.146 26.9948 101.214 28.0677 99.8281 29.5156C98.7448 30.6302 98.0573 31.3385 97.7656 31.6406ZM107.188 33.2188C106.865 33.2188 106.583 33.1042 106.344 32.875C106.115 32.6458 106 32.375 106 32.0625C106 31.7292 106.115 31.4427 106.344 31.2031C106.583 30.9635 106.865 30.8438 107.188 30.8438C107.521 30.8438 107.802 30.9635 108.031 31.2031C108.271 31.4427 108.391 31.7292 108.391 32.0625C108.391 32.375 108.271 32.6458 108.031 32.875C107.802 33.1042 107.521 33.2188 107.188 33.2188Z" fill="#2F0000"/>
</svg>
