<svg width="61" height="34" viewBox="0 0 61 34" fill="none" xmlns="http://www.w3.org/2000/svg">
<path d="M7.86975 1.41714L8.10641 1.17063C8.27076 1.00628 8.36936 0.924109 8.40223 0.924109C8.46139 0.924109 8.60602 1.03586 8.8361 1.25937C9.07276 1.47631 9.19108 1.62093 9.19108 1.69324C9.13192 1.76555 8.99058 1.81157 8.76708 1.83129C8.43839 2.40321 8.03739 2.96198 7.56407 3.50761C8.60273 3.81657 9.27983 4.24058 9.59537 4.77963C9.77286 5.08203 9.79259 5.31868 9.65454 5.4896C9.54278 5.62765 9.37844 5.65066 9.1615 5.55863C8.99058 5.2891 8.73749 4.98671 8.40223 4.65144C8.06697 4.30961 7.72184 4.00064 7.36686 3.72454C6.51884 4.61857 5.58865 5.32197 4.57629 5.83472L4.45796 5.70654C5.13506 5.20693 5.77929 4.59557 6.39065 3.87245C7.00202 3.14933 7.48519 2.43279 7.84017 1.72282H6.50898C6.02252 1.7294 5.51634 1.77541 4.99044 1.86087L4.73406 1.33826C5.10219 1.3777 5.54921 1.40399 6.07511 1.41714H7.86975ZM3.60994 5.01629L3.77758 4.75005C3.79072 4.73033 3.80716 4.70403 3.82688 4.67116C3.85317 4.6383 3.8729 4.61529 3.88604 4.60214C3.89919 4.58242 3.91562 4.5627 3.93535 4.54298C3.95507 4.52325 3.9715 4.51011 3.98465 4.50353C4.00437 4.49039 4.02081 4.48381 4.03395 4.48381C4.09969 4.48381 4.23445 4.57584 4.43824 4.75991C4.6486 4.94398 4.75378 5.07217 4.75378 5.14448C4.72749 5.24966 4.64203 5.30225 4.4974 5.30225H3.42259V6.84051C3.56721 6.81422 3.78086 6.7682 4.06353 6.70246C4.35278 6.63673 4.5237 6.59728 4.57629 6.58414L4.60587 6.74191C4.34949 6.85366 3.95507 7.03773 3.42259 7.2941V8.05338C3.43574 8.66474 3.45546 9.14791 3.48176 9.50289C3.44231 9.56863 3.36014 9.63108 3.23524 9.69025C3.11034 9.75598 2.96571 9.78885 2.80137 9.78885C2.74878 9.78885 2.70605 9.76585 2.67318 9.71983C2.64031 9.68039 2.62388 9.63437 2.62388 9.58178C2.65017 9.28596 2.67318 8.8751 2.6929 8.3492V7.62937C2.55485 7.68196 2.34449 7.7707 2.06182 7.8956C1.78572 8.01393 1.57865 8.09939 1.4406 8.15198C1.40115 8.27688 1.32884 8.35906 1.22366 8.3985L0.720767 7.40257C1.0889 7.33683 1.74628 7.20207 2.6929 6.99828V5.30225H1.73642L1.38143 5.67695L0.612299 5.06559C0.783218 4.97356 0.924554 4.90453 1.03631 4.85852C1.18751 4.47724 1.42087 3.75412 1.73642 2.68917H1.39129C1.22037 2.69574 1.0396 2.74176 0.848955 2.82722L0.582717 2.31446C0.819373 2.35391 1.10205 2.3802 1.43074 2.39335H1.8153C2.04538 1.55191 2.16042 0.910961 2.16042 0.470518C2.8441 0.680879 3.18922 0.825502 3.1958 0.904387C3.1958 0.930683 3.16293 0.956978 3.09719 0.983273L2.90984 1.04244C2.79151 1.55519 2.66989 2.0055 2.54499 2.39335H3.56064L3.75785 2.11725C3.771 2.09753 3.79072 2.07123 3.81702 2.03836C3.84331 1.99892 3.86303 1.97263 3.87618 1.95948C3.8959 1.93976 3.91562 1.92004 3.93535 1.90032C3.95507 1.87402 3.9715 1.85759 3.98465 1.85101C4.00437 1.83786 4.02081 1.83129 4.03395 1.83129C4.09969 1.83129 4.25089 1.9299 4.48754 2.12711C4.73077 2.32432 4.85239 2.45909 4.85239 2.5314C4.82609 2.63658 4.74063 2.68917 4.59601 2.68917H2.46611C2.03881 4.08281 1.79887 4.85852 1.74628 5.01629H2.7422C2.7422 4.24716 2.70605 3.63579 2.63374 3.1822C3.31084 3.37942 3.65267 3.52404 3.65925 3.61607C3.66582 3.64894 3.63953 3.6851 3.58036 3.72454L3.42259 3.84287V5.01629H3.60994ZM7.99794 6.0911L8.21488 5.77556C8.22803 5.75584 8.24446 5.73283 8.26418 5.70654C8.29048 5.67367 8.3102 5.64737 8.32335 5.62765C8.34307 5.60793 8.3595 5.58821 8.37265 5.56849C8.39237 5.54876 8.4088 5.53233 8.42195 5.51918C8.4351 5.50603 8.44825 5.49617 8.46139 5.4896C8.48112 5.47645 8.49755 5.46988 8.5107 5.46988C8.57644 5.46988 8.73092 5.57835 8.97415 5.79528C9.22395 6.00564 9.34886 6.14698 9.34886 6.21929C9.31599 6.33104 9.23053 6.38692 9.09248 6.38692H7.41616V9.03944H8.48112L8.68819 8.7239C8.70134 8.70418 8.71777 8.68117 8.73749 8.65488C8.76379 8.62201 8.78351 8.59571 8.79666 8.57599C8.81638 8.55627 8.83281 8.53655 8.84596 8.51683C8.86568 8.49711 8.88212 8.48067 8.89526 8.46752C8.90841 8.45438 8.92156 8.44452 8.93471 8.43794C8.95443 8.42479 8.97086 8.41822 8.98401 8.41822C9.04975 8.41822 9.20423 8.52669 9.44746 8.74362C9.69727 8.95398 9.82217 9.09532 9.82217 9.16763C9.80902 9.27939 9.72685 9.33526 9.57565 9.33526H5.98637C5.49991 9.34184 4.99372 9.38785 4.46782 9.47331L4.21144 8.96056C4.57958 9 5.02659 9.0263 5.5525 9.03944H6.63717V6.38692H6.05539C5.7267 6.3935 5.38158 6.43951 5.02002 6.52497L4.7735 6.01222C5.14164 6.05166 5.58865 6.07795 6.11455 6.0911H7.99794ZM13.5002 5.10503V6.54469H14.22V5.10503H13.5002ZM12.1394 6.54469H12.8888V5.10503H12.1887V5.17406C12.1887 5.7657 12.1723 6.22258 12.1394 6.54469ZM11.8929 2.97513L12.3268 3.16248H12.9973C13.1748 2.78778 13.349 2.35062 13.5199 1.85101H12.5733C12.2906 2.37691 12.0638 2.75162 11.8929 2.97513ZM12.8888 3.4583H12.1887V4.80921H12.8888V3.4583ZM14.22 4.80921V3.4583H13.5002V4.80921H14.22ZM13.5002 1.55519L13.6777 1.31854C13.6908 1.30539 13.7073 1.28238 13.727 1.24951C13.7533 1.21664 13.773 1.19363 13.7862 1.18049C13.8059 1.16076 13.8256 1.14104 13.8453 1.12132C13.865 1.1016 13.8815 1.08845 13.8946 1.08188C13.9143 1.06873 13.9308 1.06216 13.9439 1.06216C14.0031 1.06216 14.1346 1.17391 14.3384 1.39742C14.5421 1.61436 14.644 1.75898 14.644 1.83129C14.5914 1.88388 14.4633 1.91675 14.2595 1.9299C13.865 2.4821 13.5298 2.89296 13.2537 3.16248H14.1214L14.2693 2.94555C14.2825 2.92583 14.3022 2.89953 14.3285 2.86666C14.3548 2.82722 14.3745 2.80092 14.3877 2.78778C14.4074 2.76805 14.4271 2.75162 14.4468 2.73847C14.4665 2.71875 14.4863 2.70889 14.506 2.70889C14.5717 2.70889 14.7229 2.80421 14.9596 2.99485C15.2028 3.18549 15.3244 3.31697 15.3244 3.38928C15.2455 3.47474 15.1042 3.54047 14.9004 3.58649V8.83237C14.9004 9.13476 14.8347 9.35827 14.7032 9.50289C14.5783 9.65409 14.3088 9.74941 13.8946 9.78885C13.8618 9.5522 13.7927 9.39114 13.6876 9.30568C13.5429 9.18078 13.2866 9.09203 12.9184 9.03944V8.88167C13.5232 8.92769 13.8881 8.9507 14.013 8.9507C14.151 8.9507 14.22 8.87839 14.22 8.73376V6.84051H12.1197C11.9882 8.0961 11.6037 9.07889 10.966 9.78885L10.828 9.68039C11.1304 9.08217 11.3243 8.42479 11.4097 7.70825C11.4952 6.99171 11.5379 6.14698 11.5379 5.17406V3.409C11.3867 3.59306 11.1928 3.78042 10.9561 3.97106L10.8181 3.87245C11.0745 3.51747 11.3309 3.07045 11.5872 2.5314C11.7319 2.23558 11.86 1.87731 11.9718 1.45659C12.0835 1.03586 12.146 0.684166 12.1591 0.401493C12.856 0.631576 13.2077 0.789346 13.2142 0.874805C13.2142 0.901101 13.1847 0.927396 13.1255 0.953691L12.948 1.02272C12.8494 1.28567 12.7738 1.46316 12.7212 1.55519H13.5002ZM16.1823 2.97513V5.58821H17.1289V2.97513H16.1823ZM18.8151 5.58821V2.97513H17.8389V5.58821H18.8151ZM18.7855 2.67931L18.9433 2.44265C19.0485 2.28488 19.1208 2.206 19.1602 2.206C19.226 2.206 19.3574 2.29474 19.5547 2.47223C19.7584 2.64973 19.8603 2.77463 19.8603 2.84694C19.7946 2.93897 19.673 2.99814 19.4955 3.02443V4.10911C19.5086 5.01629 19.5316 5.71968 19.5645 6.21929C19.5251 6.27845 19.4429 6.33762 19.318 6.39678C19.1997 6.44937 19.0682 6.47567 18.9236 6.47567C18.825 6.47567 18.7757 6.40993 18.7757 6.27845C18.7822 6.25873 18.7888 6.22915 18.7954 6.18971C18.802 6.14369 18.8085 6.11082 18.8151 6.0911V5.89389H17.8389V8.38864C18.0756 8.36234 18.4503 8.3229 18.963 8.27031C18.8447 7.88246 18.6606 7.44201 18.4108 6.94898L18.5489 6.89968C19.3311 7.54391 19.7814 8.21115 19.8998 8.90139C19.9655 9.30239 19.9063 9.57521 19.7223 9.71983C19.5711 9.83816 19.4067 9.802 19.2292 9.61136C19.2227 9.32869 19.1537 8.9507 19.0222 8.47738C18.2662 8.70747 17.198 9 15.8175 9.35498C15.7714 9.47331 15.6893 9.54234 15.5709 9.56206L15.1864 8.58585C15.5939 8.56613 16.2415 8.52011 17.1289 8.4478V5.89389H16.1823V6.08124C16.1889 6.13383 16.1922 6.18313 16.1922 6.22915C16.1987 6.27517 16.202 6.31132 16.202 6.33762C16.202 6.36391 16.2053 6.38692 16.2119 6.40664C16.1922 6.46581 16.1297 6.52497 16.0245 6.58414C15.9194 6.63673 15.7912 6.66302 15.64 6.66302C15.5874 6.66302 15.5414 6.6433 15.5019 6.60386C15.469 6.56441 15.4526 6.5184 15.4526 6.46581C15.4855 6.13054 15.5085 5.68681 15.5216 5.13462V4.36548C15.5216 3.51747 15.4789 2.82722 15.3934 2.29474L16.2908 2.67931H17.1289V2.66945C17.1289 1.82143 17.0862 1.13118 17.0007 0.598707C17.7304 0.79592 18.092 0.94383 18.0854 1.04244C18.0854 1.06873 18.0591 1.1016 18.0065 1.14104L17.8389 1.26923V2.67931H18.7855ZM28.0348 4.68103L28.3504 4.21757C28.3767 4.1847 28.4095 4.13869 28.449 4.07952C28.4884 4.02036 28.518 3.97434 28.5377 3.94147C28.564 3.90861 28.5903 3.87574 28.6166 3.84287C28.6495 3.80343 28.6758 3.77713 28.6955 3.76398C28.7152 3.74426 28.7317 3.7344 28.7448 3.7344C28.8105 3.7344 29.0242 3.90203 29.3857 4.23729C29.7539 4.57256 29.9379 4.77635 29.9379 4.84866C29.9116 4.96041 29.8098 5.01629 29.6323 5.01629H22.7495C22.2631 5.02286 21.7569 5.06888 21.231 5.15434L20.945 4.60214C21.3131 4.64158 21.7602 4.66788 22.2861 4.68103H28.0348ZM37.649 3.02443V6.0418H38.9802V3.02443H37.649ZM35.6571 3.02443V6.0418H36.9094V3.02443H35.6571ZM34.9472 3.88231H33.4878V4.81907C33.9677 5.00971 34.3259 5.22994 34.5626 5.47974C34.7993 5.72297 34.9274 5.95634 34.9472 6.17985V3.88231ZM33.8724 3.57663L34.3161 2.96527C34.5396 3.15591 34.75 3.34655 34.9472 3.53719C34.9472 3.0836 34.9209 2.67931 34.8683 2.32432L35.7064 2.71875H36.9094V2.70889C36.9094 1.86087 36.8667 1.17063 36.7812 0.638149C37.5701 0.841937 37.9645 0.993134 37.9645 1.09174C37.9645 1.12461 37.9284 1.16405 37.8561 1.21007L37.649 1.35798V2.71875H38.8914L39.0591 2.51168C39.184 2.36048 39.2661 2.28488 39.3056 2.28488C39.3713 2.28488 39.5225 2.3802 39.7592 2.57084C40.0024 2.75491 40.124 2.8831 40.124 2.95541C40.0386 3.05401 39.9071 3.12304 39.7296 3.16248V4.36548C39.7427 5.19378 39.769 5.97277 39.8085 6.70246C39.7559 6.76163 39.6507 6.82408 39.4929 6.88982C39.3417 6.95555 39.207 6.98842 39.0886 6.98842C38.99 6.98842 38.9407 6.92268 38.9407 6.79121L38.9802 6.55455V6.33762H37.649V7.38285C37.6687 8.26374 37.6917 8.94084 37.718 9.41415C37.6786 9.49961 37.5931 9.57849 37.4616 9.6508C37.3302 9.72312 37.1954 9.75927 37.0573 9.75927C36.9916 9.75927 36.9357 9.73626 36.8897 9.69025C36.8437 9.6508 36.8207 9.60479 36.8207 9.5522C36.8667 8.92769 36.8963 8.23415 36.9094 7.4716V6.33762H35.6571V6.51511C35.6637 6.56113 35.667 6.60714 35.667 6.65316C35.6736 6.69918 35.6769 6.73533 35.6769 6.76163C35.6769 6.78792 35.6801 6.81093 35.6867 6.83065C35.6736 6.89639 35.6013 6.96541 35.4698 7.03773C35.3383 7.10346 35.2003 7.13633 35.0556 7.13633C34.9505 7.13633 34.8979 7.06731 34.8979 6.92926C34.9176 6.83723 34.934 6.7189 34.9472 6.57427V6.29818C34.934 6.46909 34.8617 6.58414 34.7302 6.6433C34.5988 6.69589 34.4541 6.65973 34.2964 6.53483C34.2175 6.10754 33.9479 5.60464 33.4878 5.02615V7.13633C33.5009 7.95806 33.5272 8.74691 33.5667 9.50289C33.4155 9.70668 33.1821 9.80858 32.8666 9.80858C32.8074 9.80858 32.7515 9.78557 32.6989 9.73955C32.6529 9.70011 32.6299 9.65409 32.6299 9.6015C32.6825 8.6746 32.7154 7.82329 32.7285 7.04759V5.66709C32.2815 6.57427 31.726 7.34998 31.0621 7.99421L30.924 7.86602C31.6603 6.82079 32.196 5.49289 32.5313 3.88231H32.0777C31.8345 3.88888 31.5715 3.9349 31.2889 4.02036L31.0226 3.49774C31.3447 3.53719 31.7293 3.56348 32.1763 3.57663H32.7285V1.91018C32.1106 2.06795 31.565 2.18299 31.0916 2.2553L31.0423 2.10739C31.5748 1.92332 32.1336 1.67681 32.7187 1.36784C33.3037 1.05887 33.7639 0.772912 34.0991 0.509961C34.6579 0.94383 34.934 1.20349 34.9274 1.28895C34.9274 1.3284 34.8749 1.34483 34.7697 1.33826L34.5133 1.31854C34.1189 1.48288 33.777 1.60778 33.4878 1.69324V3.57663H33.8724ZM44.2063 2.84694L44.4035 2.54126C44.4233 2.52154 44.443 2.49524 44.4627 2.46237C44.489 2.42293 44.5087 2.39335 44.5219 2.37363C44.5416 2.34733 44.5613 2.32104 44.581 2.29474C44.6008 2.26845 44.6172 2.25201 44.6303 2.24544C44.6501 2.23229 44.6665 2.22572 44.6796 2.22572C44.7454 2.22572 44.8966 2.33747 45.1332 2.56098C45.3699 2.77792 45.4882 2.92254 45.4882 2.99485C45.4619 3.10003 45.3765 3.15262 45.2318 3.15262H43.7133V4.13869C44.5087 4.43451 44.9952 4.82236 45.1727 5.30225C45.2779 5.59149 45.2483 5.81172 45.0839 5.96291C44.9262 6.09439 44.7454 6.07795 44.5416 5.91361C44.4561 5.4403 44.18 4.91768 43.7133 4.34576V7.13633C43.7264 7.77399 43.756 8.56284 43.802 9.50289C43.7626 9.57521 43.6706 9.64752 43.5259 9.71983C43.3813 9.79214 43.2433 9.8283 43.1118 9.8283C43.0395 9.8283 42.977 9.80529 42.9244 9.75927C42.8719 9.71983 42.8456 9.67381 42.8456 9.62122C42.9113 8.62858 42.9507 7.75427 42.9639 6.99828V5.17406C42.5169 6.12068 41.9219 6.95227 41.1791 7.66881L41.0608 7.55048C41.8694 6.42636 42.4577 4.96041 42.8258 3.15262H42.3328C42.0501 3.15919 41.7543 3.20521 41.4453 3.29067L41.189 2.76805C41.5177 2.8075 41.9154 2.83379 42.3821 2.84694H42.9639V2.5314C42.9639 1.72282 42.9179 1.03258 42.8258 0.460657C43.5884 0.657871 43.973 0.805781 43.9795 0.904387C43.9795 0.930683 43.95 0.963552 43.8908 1.00299L43.7133 1.12132V2.84694H44.2063ZM47.8745 4.53312C47.0462 6.01222 45.9221 7.21851 44.5022 8.15198L44.3838 8.01393C45.0872 7.40914 45.7183 6.67617 46.2771 5.815C46.8358 4.94726 47.2697 4.05652 47.5787 3.14276H46.918C46.5367 3.14933 46.1325 3.19535 45.7052 3.28081L45.4488 2.76805C45.8169 2.8075 46.2639 2.83379 46.7898 2.84694H47.8745V2.5314C47.8745 1.68338 47.8318 0.993134 47.7463 0.460657C48.5154 0.657871 48.9 0.805781 48.9 0.904387C48.9066 0.930683 48.8803 0.960265 48.8211 0.993134L48.6436 1.1016V2.84694H48.9592L49.1465 2.5314C49.1597 2.51168 49.1794 2.4821 49.2057 2.44265C49.232 2.40321 49.2517 2.37363 49.2649 2.35391C49.2846 2.32761 49.3043 2.30132 49.324 2.27502C49.3437 2.24873 49.3602 2.23229 49.3733 2.22572C49.393 2.21257 49.4095 2.206 49.4226 2.206C49.4818 2.206 49.6231 2.31775 49.8466 2.54126C50.0701 2.76477 50.1819 2.91268 50.1819 2.98499C50.1556 3.09017 50.0734 3.14276 49.9354 3.14276H48.6436V8.73376C48.6436 9.06902 48.5648 9.31883 48.407 9.48317C48.2492 9.64752 47.9238 9.7527 47.4308 9.79871C47.3913 9.54234 47.3092 9.36813 47.1843 9.2761C47.0002 9.14462 46.6814 9.0493 46.2278 8.99014V8.84223C46.9969 8.89482 47.4604 8.92111 47.6181 8.92111C47.7167 8.92111 47.7825 8.90468 47.8153 8.87181C47.8548 8.83237 47.8745 8.76992 47.8745 8.68446V4.53312ZM55.9208 1.52561L56.0194 1.45659C56.8543 1.64722 57.3835 1.97263 57.607 2.43279C57.7319 2.70232 57.7187 2.91596 57.5675 3.07374C57.4361 3.22493 57.2619 3.22822 57.0449 3.0836C56.9792 2.83379 56.8379 2.56427 56.6209 2.27502C56.404 1.98577 56.1706 1.73597 55.9208 1.52561ZM55.7039 3.91189L55.7926 3.82315C56.6538 3.97434 57.206 4.27345 57.4492 4.72047C57.5938 4.98342 57.5971 5.20035 57.4591 5.37127C57.3276 5.53562 57.1501 5.54876 56.9266 5.41072C56.8477 5.16091 56.6899 4.89467 56.4533 4.612C56.2166 4.32933 55.9668 4.09596 55.7039 3.91189ZM54.1459 3.60621C54.3957 2.72533 54.5337 1.94633 54.56 1.26923L55.201 1.51575C55.5625 1.58806 55.7072 1.66695 55.6349 1.75241C55.6151 1.77213 55.5856 1.79185 55.5461 1.81157L55.3686 1.88059C54.9347 2.70889 54.5798 3.3071 54.3037 3.67524L54.1459 3.60621ZM51.375 1.43686L51.4934 1.3777C52.1573 1.84444 52.5222 2.34733 52.5879 2.88638C52.6208 3.20192 52.5485 3.41886 52.371 3.53719C52.2198 3.63579 52.0653 3.59964 51.9075 3.42872C51.9075 2.85023 51.73 2.18627 51.375 1.43686ZM54.422 4.36548L54.6291 4.0598C54.7737 3.86259 54.869 3.76398 54.915 3.76398C54.9808 3.76398 55.132 3.86588 55.3686 4.06966C55.6053 4.27345 55.7236 4.4115 55.7236 4.48381C55.7039 4.59557 55.6151 4.65144 55.4574 4.65144H53.8304V5.29239C54.6849 5.5159 55.2207 5.86759 55.4376 6.34748C55.5691 6.62358 55.5593 6.8438 55.4081 7.00814C55.27 7.16591 55.0958 7.1692 54.8854 7.018C54.8263 6.7682 54.6948 6.50196 54.491 6.21929C54.2872 5.93004 54.067 5.68024 53.8304 5.46988V7.08703C53.8435 7.73783 53.8731 8.52997 53.9191 9.46345C53.8797 9.54234 53.7909 9.61794 53.6529 9.69025C53.5148 9.76913 53.38 9.80858 53.2486 9.80858C53.1828 9.80858 53.1237 9.78557 53.0711 9.73955C53.0251 9.70011 53.0021 9.65409 53.0021 9.6015C53.0678 8.62201 53.1039 7.85288 53.1105 7.2941V6.03194C52.6898 6.86681 52.1047 7.61293 51.3553 8.27031L51.2271 8.14212C51.9108 7.25466 52.4334 6.0911 52.795 4.65144H52.2921C52.016 4.65802 51.7267 4.70403 51.4243 4.78949L51.168 4.2866C51.5295 4.32604 51.9667 4.35234 52.4794 4.36548H53.1105V2.55112C53.1105 1.74254 53.0645 1.0523 52.9725 0.480379C53.7153 0.677592 54.0867 0.825502 54.0867 0.924109C54.0867 0.950404 54.0604 0.983273 54.0078 1.02272L53.8304 1.13118V4.36548H54.422ZM58.9776 6.49539L59.1551 6.45595L59.3129 6.06152C59.4378 5.79857 59.52 5.66709 59.5594 5.66709C59.6251 5.66709 59.7829 5.75913 60.0327 5.94319C60.2891 6.12068 60.4173 6.2423 60.4173 6.30804C60.4173 6.41322 60.3515 6.48224 60.2201 6.51511L58.9776 6.79121V7.69839C58.9908 8.44123 59.0105 9.0263 59.0368 9.45359C59.0039 9.53905 58.9152 9.61794 58.7705 9.69025C58.6325 9.76913 58.4912 9.80858 58.3465 9.80858C58.2808 9.80858 58.2282 9.78557 58.1888 9.73955C58.1493 9.70011 58.1296 9.65409 58.1296 9.6015C58.169 9.04273 58.1953 8.47738 58.2085 7.90547V6.95884L55.4771 7.56034L55.3489 7.30396L58.2085 6.66302V2.55112C58.2085 1.7031 58.1658 1.01285 58.0803 0.480379C58.8363 0.677592 59.2143 0.825502 59.2143 0.924109C59.2143 0.950404 59.188 0.983273 59.1354 1.02272L58.9776 1.13118V6.49539Z" fill="#A97979"/>
<path d="M29.7958 33.251L18.3606 21.0625H41.231L29.7958 33.251Z" fill="#7F4444"/>
</svg>
