<svg width="160" height="48" viewBox="0 0 160 48" fill="none" xmlns="http://www.w3.org/2000/svg">
<rect x="-99" width="259" height="48" fill="white" fill-opacity="0.2"/>
<path d="M133.266 35.0469C133.266 38.7135 133.984 40.5469 135.422 40.5469C136.807 40.5469 137.5 38.7135 137.5 35.0469C137.5 31.5052 136.807 29.7344 135.422 29.7344C133.984 29.7344 133.266 31.5052 133.266 35.0469ZM135.422 29.0312C136.453 29.0312 137.318 29.526 138.016 30.5156C138.714 31.4948 139.062 33.0052 139.062 35.0469C139.062 37.151 138.714 38.7083 138.016 39.7188C137.318 40.7188 136.453 41.2188 135.422 41.2188C134.37 41.2188 133.49 40.7188 132.781 39.7188C132.073 38.7188 131.719 37.1615 131.719 35.0469C131.719 32.9948 132.073 31.4792 132.781 30.5C133.49 29.5208 134.37 29.0312 135.422 29.0312ZM142.969 29.8125L142.672 30.8438C142.578 31.2188 142.458 31.4896 142.312 31.6562C142.167 31.8125 141.958 31.8906 141.688 31.8906C141.281 31.8906 141.01 31.6875 140.875 31.2812C141.021 30.5521 141.391 29.9948 141.984 29.6094C142.589 29.224 143.312 29.0312 144.156 29.0312C145.167 29.0312 145.969 29.2917 146.562 29.8125C147.167 30.3333 147.469 31.026 147.469 31.8906C147.469 32.5677 147.25 33.1615 146.812 33.6719C146.385 34.1823 145.776 34.5625 144.984 34.8125C145.932 34.9896 146.641 35.349 147.109 35.8906C147.589 36.4219 147.828 37.0885 147.828 37.8906C147.828 38.8594 147.464 39.6562 146.734 40.2812C146.016 40.9062 145.073 41.2188 143.906 41.2188C142.99 41.2188 142.234 41.0208 141.641 40.625C141.057 40.2292 140.693 39.6198 140.547 38.7969C140.724 38.4219 141.005 38.2344 141.391 38.2344C141.651 38.2344 141.849 38.3229 141.984 38.5C142.13 38.6771 142.255 38.974 142.359 39.3906L142.641 40.4219C142.964 40.5052 143.302 40.5469 143.656 40.5469C144.479 40.5469 145.125 40.3021 145.594 39.8125C146.062 39.3125 146.297 38.6615 146.297 37.8594C146.297 37.026 146.062 36.375 145.594 35.9062C145.135 35.4375 144.464 35.2031 143.578 35.2031H142.734V34.4219H143.422C144.214 34.4219 144.839 34.2083 145.297 33.7812C145.755 33.3438 145.984 32.7396 145.984 31.9688C145.984 31.25 145.792 30.6979 145.406 30.3125C145.031 29.9167 144.5 29.7188 143.812 29.7188C143.5 29.7188 143.219 29.75 142.969 29.8125ZM151.188 41.2188C150.865 41.2188 150.583 41.1042 150.344 40.875C150.115 40.6458 150 40.375 150 40.0625C150 39.7292 150.115 39.4427 150.344 39.2031C150.583 38.9635 150.865 38.8438 151.188 38.8438C151.521 38.8438 151.802 38.9635 152.031 39.2031C152.271 39.4427 152.391 39.7292 152.391 40.0625C152.391 40.375 152.271 40.6458 152.031 40.875C151.802 41.1042 151.521 41.2188 151.188 41.2188Z" fill="#2F0000"/>
</svg>
