<svg width="81" height="34" viewBox="0 0 81 34" fill="none" xmlns="http://www.w3.org/2000/svg">
<path d="M8.23612 2.21586L8.46292 1.87073C8.62726 1.64065 8.72916 1.52561 8.7686 1.52561C8.83434 1.52561 8.99868 1.64394 9.26163 1.88059C9.52458 2.11725 9.65606 2.27173 9.65606 2.34405C9.63634 2.44923 9.55088 2.50182 9.39968 2.50182H5.17931C4.75859 3.20521 4.25898 3.7837 3.68049 4.23729L3.56216 4.12883C3.80539 3.78042 4.00589 3.44187 4.16366 3.11318C4.12422 3.12633 4.08478 3.1329 4.04534 3.1329H2.85219V4.99657C2.99682 4.95055 3.21047 4.87824 3.49314 4.77963C3.78238 4.68103 3.98946 4.612 4.11436 4.57256L4.16366 4.71061C4.01904 4.80264 3.58188 5.06559 2.85219 5.49946V8.73376C2.85219 9.08217 2.78646 9.33526 2.65498 9.49303C2.52351 9.65738 2.24083 9.76256 1.80696 9.80858C1.77409 9.5259 1.71164 9.33855 1.61961 9.24652C1.48156 9.10847 1.24162 9.01315 0.899781 8.96056V8.81265C1.45198 8.85209 1.78067 8.87181 1.88585 8.87181C2.03705 8.87181 2.11264 8.80607 2.11264 8.6746V5.92347C1.8234 6.08781 1.50457 6.26202 1.15616 6.44609C1.12986 6.57099 1.05755 6.65645 0.939224 6.70246L0.603961 5.67695C0.906355 5.61122 1.40925 5.46331 2.11264 5.23322V3.1329H1.65905C1.41582 3.13947 1.15945 3.18549 0.889921 3.27095L0.623683 2.75819C0.906355 2.79764 1.2449 2.82393 1.63933 2.83708H2.11264V2.52154C2.11264 1.71296 2.06663 1.02272 1.97459 0.450797C2.73058 0.654584 3.10857 0.802494 3.10857 0.894527C3.102 0.920822 3.07242 0.953691 3.01983 0.993134L2.85219 1.1016V2.83708H3.09871L3.53258 2.21586C3.82183 2.47881 4.06506 2.71546 4.26227 2.92583C4.30171 2.83379 4.36088 2.68917 4.43976 2.49196C4.57124 2.18956 4.68299 1.84773 4.77503 1.46645C4.86706 1.07859 4.91965 0.74333 4.9328 0.460657C5.72165 0.723608 6.11608 0.897814 6.11608 0.983273C6.11608 1.00957 6.0865 1.03258 6.02733 1.0523L5.83998 1.12132C5.7348 1.41714 5.56388 1.78199 5.32722 2.21586H8.23612ZM8.27556 4.0598L8.45306 3.82315C8.47278 3.80343 8.49579 3.77713 8.52208 3.74426C8.54838 3.70482 8.5681 3.67524 8.58125 3.65552C8.60097 3.63579 8.62069 3.61936 8.64041 3.60621C8.66013 3.58649 8.67985 3.57663 8.69957 3.57663C8.75874 3.57663 8.8935 3.67852 9.10386 3.88231C9.3208 4.0861 9.42926 4.22415 9.42926 4.29646C9.37667 4.3622 9.25835 4.41479 9.07428 4.45423C9.06113 5.46659 9.02826 6.16999 8.97567 6.56441C8.92308 6.95884 8.82119 7.22837 8.66999 7.37299C8.4662 7.54391 8.2164 7.62937 7.92058 7.62937C7.92058 7.39271 7.87785 7.22837 7.79239 7.13633C7.70693 7.0443 7.57217 6.97199 7.3881 6.9194V6.76163C7.55902 6.78135 7.74966 6.79121 7.96002 6.79121C8.07178 6.79121 8.14738 6.7682 8.18682 6.72218C8.29857 6.59071 8.36431 5.79857 8.38403 4.34576L7.18103 4.76977V5.815C7.20075 6.69589 7.22376 7.37956 7.25005 7.86602C7.21719 7.93833 7.13173 8.00736 6.99368 8.0731C6.8622 8.13883 6.73073 8.1717 6.59925 8.1717C6.54009 8.1717 6.49078 8.15198 6.45134 8.11254C6.41847 8.0731 6.40204 8.02708 6.40204 7.97449C6.44148 7.36313 6.46777 6.72876 6.48092 6.07138V5.02615L5.40611 5.40085V8.55627C5.40611 8.68117 5.44226 8.76663 5.51458 8.81265C5.59346 8.85209 5.75781 8.87181 6.00761 8.87181H7.35852C8.06849 8.87181 8.48264 8.86524 8.60097 8.85209C8.72587 8.84552 8.82119 8.7995 8.88693 8.71404C8.99868 8.51683 9.11372 8.14212 9.23205 7.58992H9.35038L9.38982 8.74362C9.6199 8.82251 9.73494 8.93426 9.73494 9.07889C9.73494 9.2761 9.58046 9.40429 9.27149 9.46345C8.9691 9.52919 8.31829 9.56206 7.31908 9.56206H5.91886C5.42583 9.56206 5.09385 9.50618 4.92294 9.39443C4.75859 9.28925 4.67642 9.06245 4.67642 8.71404V5.66709L3.65091 6.03194L3.47342 5.78542L4.67642 5.35155V4.45423C4.67642 4.05323 4.65998 3.73769 4.62712 3.50761C5.29764 3.70482 5.6329 3.85273 5.6329 3.95134C5.6329 3.97763 5.60661 4.00721 5.55402 4.04008L5.40611 4.13869V5.09517L6.48092 4.71061V3.7344C6.48092 3.35312 6.4612 3.01457 6.42176 2.71875C7.09228 2.90939 7.42755 3.05073 7.42755 3.14276C7.42755 3.17563 7.40125 3.2085 7.34866 3.24137L7.18103 3.3597V4.45423C7.24019 4.43451 7.40125 4.37863 7.6642 4.2866C7.93373 4.18799 8.13752 4.11239 8.27556 4.0598ZM16.4895 5.4403C16.4369 5.05902 16.3942 4.59557 16.3613 4.04994H14.971V5.4403H16.4895ZM16.3515 3.76398C16.3252 3.34326 16.3054 2.89953 16.2923 2.43279H14.971V3.76398H16.3515ZM18.5701 3.76398V2.43279H17.0318C17.0318 2.89296 17.0417 3.33669 17.0614 3.76398H18.5701ZM17.0713 4.04994C17.091 4.47724 17.1337 4.94069 17.1995 5.4403H18.5701V4.04994H17.0713ZM18.4912 2.14683L18.649 1.90032C18.7739 1.73597 18.8561 1.6538 18.8955 1.6538C18.9612 1.6538 19.1026 1.75569 19.3195 1.95948C19.543 2.15669 19.6548 2.29146 19.6548 2.36377C19.5759 2.4558 19.4576 2.51496 19.2998 2.54126V3.63579C19.3129 4.54298 19.336 5.25294 19.3688 5.7657C19.3294 5.82486 19.2341 5.88731 19.0829 5.95305C18.9317 6.01879 18.7969 6.05166 18.6786 6.05166H18.5701V5.7164H17.2389C17.3309 6.2423 17.4296 6.66631 17.5347 6.98842C17.7911 6.68603 17.9752 6.37377 18.0869 6.05166C18.7049 6.3935 19.0138 6.60714 19.0138 6.6926C19.0138 6.7189 18.981 6.73533 18.9152 6.74191L18.7279 6.76163C18.4846 7.10346 18.1921 7.42229 17.8503 7.71811C18.1001 8.16513 18.4222 8.50368 18.8166 8.73376C18.9087 8.78635 18.9711 8.80936 19.004 8.80279C19.0434 8.78964 19.0829 8.73705 19.1223 8.64502C19.2735 8.3229 19.4083 7.92519 19.5266 7.45187L19.6351 7.46174L19.5167 8.98028C19.7534 9.26295 19.8323 9.46674 19.7534 9.59164C19.6022 9.92033 19.2045 9.89075 18.5602 9.50289C18.0278 9.2005 17.6038 8.75677 17.2882 8.1717C16.335 8.86195 15.2043 9.33855 13.8961 9.6015L13.837 9.46345C15.0531 9.05588 16.1082 8.42479 17.0023 7.5702C16.7853 7.0443 16.6276 6.42636 16.5289 5.7164H14.971V6.18971C14.971 6.20943 14.948 6.23901 14.9019 6.27845C14.8559 6.3179 14.7836 6.35734 14.685 6.39678C14.593 6.42965 14.4911 6.44609 14.3793 6.44609C14.3202 6.44609 14.2676 6.42636 14.2216 6.38692C14.1821 6.34091 14.1624 6.2916 14.1624 6.23901C14.215 5.47645 14.2478 4.77635 14.261 4.13869V2.99485C14.2413 3.00142 14.2084 3.00471 14.1624 3.00471H12.9594V5.03601C13.1172 4.98999 13.3407 4.92426 13.6299 4.8388C13.9257 4.74676 14.1131 4.6876 14.192 4.6613L14.2413 4.78949C14.1427 4.84866 13.9487 4.96041 13.6595 5.12476C13.3768 5.2891 13.1435 5.42386 12.9594 5.52904V8.73376C12.9594 9.08217 12.8904 9.33526 12.7523 9.49303C12.6208 9.65738 12.3382 9.76256 11.9043 9.80858C11.8911 9.54562 11.8353 9.35827 11.7367 9.24652C11.5855 9.10847 11.3422 9.01315 11.007 8.96056V8.81265C11.5592 8.85209 11.8911 8.87181 12.0029 8.87181C12.1475 8.87181 12.2198 8.80607 12.2198 8.6746V5.92347C11.6282 6.22586 11.3225 6.38363 11.3028 6.39678C11.2699 6.52826 11.1943 6.61043 11.076 6.6433L10.6914 5.63751C10.7769 5.61779 11.2864 5.48631 12.2198 5.24308V3.00471H11.7465C11.4901 3.01128 11.2206 3.0573 10.9379 3.14276L10.6816 2.63001C10.9708 2.66945 11.3225 2.69574 11.7367 2.70889H12.2198V2.52154C12.2198 1.71296 12.1738 1.02272 12.0818 0.450797C12.8378 0.654584 13.2158 0.802494 13.2158 0.894527C13.2092 0.920822 13.1796 0.953691 13.127 0.993134L12.9594 1.1016V2.70889H13.196L13.6398 2.08767C13.8633 2.29146 14.0704 2.49196 14.261 2.68917C14.261 2.37363 14.238 2.0548 14.192 1.73268L15.0992 2.14683H16.2824C16.2759 1.81157 16.2726 1.28895 16.2726 0.578985C16.9497 0.625002 17.2882 0.694026 17.2882 0.786059C17.2882 0.812355 17.2619 0.845223 17.2093 0.884666L17.0417 1.00299C17.0351 1.25937 17.0318 1.64065 17.0318 2.14683H18.4912ZM23.9146 2.84694L24.1118 2.54126C24.1315 2.52154 24.1512 2.49524 24.171 2.46237C24.1973 2.42293 24.217 2.39335 24.2301 2.37363C24.2499 2.34733 24.2696 2.32104 24.2893 2.29474C24.309 2.26845 24.3255 2.25201 24.3386 2.24544C24.3583 2.23229 24.3748 2.22572 24.3879 2.22572C24.4536 2.22572 24.6048 2.33747 24.8415 2.56098C25.0782 2.77792 25.1965 2.92254 25.1965 2.99485C25.1702 3.10003 25.0847 3.15262 24.9401 3.15262H23.4216V4.13869C24.217 4.43451 24.7034 4.82236 24.8809 5.30225C24.9861 5.59149 24.9565 5.81172 24.7922 5.96291C24.6344 6.09439 24.4536 6.07795 24.2499 5.91361C24.1644 5.4403 23.8883 4.91768 23.4216 4.34576V7.13633C23.4347 7.77399 23.4643 8.56284 23.5103 9.50289C23.4709 9.57521 23.3788 9.64752 23.2342 9.71983C23.0896 9.79214 22.9515 9.8283 22.8201 9.8283C22.7477 9.8283 22.6853 9.80529 22.6327 9.75927C22.5801 9.71983 22.5538 9.67381 22.5538 9.62122C22.6196 8.62858 22.659 7.75427 22.6721 6.99828V5.17406C22.2251 6.12068 21.6302 6.95227 20.8874 7.66881L20.769 7.55048C21.5776 6.42636 22.166 4.96041 22.5341 3.15262H22.0411C21.7584 3.15919 21.4626 3.20521 21.1536 3.29067L20.8972 2.76805C21.2259 2.8075 21.6236 2.83379 22.0904 2.84694H22.6721V2.5314C22.6721 1.72282 22.6261 1.03258 22.5341 0.460657C23.2967 0.657871 23.6812 0.805781 23.6878 0.904387C23.6878 0.930683 23.6582 0.963552 23.5991 1.00299L23.4216 1.12132V2.84694H23.9146ZM27.5828 4.53312C26.7545 6.01222 25.6303 7.21851 24.2104 8.15198L24.0921 8.01393C24.7955 7.40914 25.4266 6.67617 25.9853 5.815C26.5441 4.94726 26.978 4.05652 27.2869 3.14276H26.6263C26.245 3.14933 25.8407 3.19535 25.4134 3.28081L25.157 2.76805C25.5252 2.8075 25.9722 2.83379 26.4981 2.84694H27.5828V2.5314C27.5828 1.68338 27.54 0.993134 27.4546 0.460657C28.2237 0.657871 28.6083 0.805781 28.6083 0.904387C28.6148 0.930683 28.5886 0.960265 28.5294 0.993134L28.3519 1.1016V2.84694H28.6674L28.8548 2.5314C28.8679 2.51168 28.8877 2.4821 28.914 2.44265C28.9402 2.40321 28.96 2.37363 28.9731 2.35391C28.9928 2.32761 29.0126 2.30132 29.0323 2.27502C29.052 2.24873 29.0684 2.23229 29.0816 2.22572C29.1013 2.21257 29.1177 2.206 29.1309 2.206C29.1901 2.206 29.3314 2.31775 29.5549 2.54126C29.7784 2.76477 29.8902 2.91268 29.8902 2.98499C29.8639 3.09017 29.7817 3.14276 29.6436 3.14276H28.3519V8.73376C28.3519 9.06902 28.273 9.31883 28.1152 9.48317C27.9575 9.64752 27.6321 9.7527 27.139 9.79871C27.0996 9.54234 27.0174 9.36813 26.8925 9.2761C26.7084 9.14462 26.3896 9.0493 25.936 8.99014V8.84223C26.7052 8.89482 27.1686 8.92111 27.3264 8.92111C27.425 8.92111 27.4907 8.90468 27.5236 8.87181C27.563 8.83237 27.5828 8.76992 27.5828 8.68446V4.53312ZM35.6291 1.52561L35.7277 1.45659C36.5625 1.64722 37.0917 1.97263 37.3152 2.43279C37.4401 2.70232 37.427 2.91596 37.2758 3.07374C37.1443 3.22493 36.9701 3.22822 36.7532 3.0836C36.6875 2.83379 36.5461 2.56427 36.3292 2.27502C36.1122 1.98577 35.8789 1.73597 35.6291 1.52561ZM35.4121 3.91189L35.5009 3.82315C36.362 3.97434 36.9142 4.27345 37.1575 4.72047C37.3021 4.98342 37.3054 5.20035 37.1673 5.37127C37.0359 5.53562 36.8584 5.54876 36.6349 5.41072C36.556 5.16091 36.3982 4.89467 36.1615 4.612C35.9249 4.32933 35.6751 4.09596 35.4121 3.91189ZM33.8542 3.60621C34.104 2.72533 34.242 1.94633 34.2683 1.26923L34.9092 1.51575C35.2708 1.58806 35.4154 1.66695 35.3431 1.75241C35.3234 1.77213 35.2938 1.79185 35.2544 1.81157L35.0769 1.88059C34.643 2.70889 34.288 3.3071 34.0119 3.67524L33.8542 3.60621ZM31.0833 1.43686L31.2016 1.3777C31.8656 1.84444 32.2304 2.34733 32.2962 2.88638C32.329 3.20192 32.2567 3.41886 32.0792 3.53719C31.928 3.63579 31.7735 3.59964 31.6158 3.42872C31.6158 2.85023 31.4383 2.18627 31.0833 1.43686ZM34.1303 4.36548L34.3373 4.0598C34.4819 3.86259 34.5773 3.76398 34.6233 3.76398C34.689 3.76398 34.8402 3.86588 35.0769 4.06966C35.3135 4.27345 35.4319 4.4115 35.4319 4.48381C35.4121 4.59557 35.3234 4.65144 35.1656 4.65144H33.5386V5.29239C34.3932 5.5159 34.929 5.86759 35.1459 6.34748C35.2774 6.62358 35.2675 6.8438 35.1163 7.00814C34.9783 7.16591 34.8041 7.1692 34.5937 7.018C34.5345 6.7682 34.4031 6.50196 34.1993 6.21929C33.9955 5.93004 33.7753 5.68024 33.5386 5.46988V7.08703C33.5518 7.73783 33.5813 8.52997 33.6274 9.46345C33.5879 9.54234 33.4992 9.61794 33.3611 9.69025C33.2231 9.76913 33.0883 9.80858 32.9568 9.80858C32.8911 9.80858 32.8319 9.78557 32.7793 9.73955C32.7333 9.70011 32.7103 9.65409 32.7103 9.6015C32.7761 8.62201 32.8122 7.85288 32.8188 7.2941V6.03194C32.3981 6.86681 31.813 7.61293 31.0636 8.27031L30.9354 8.14212C31.6191 7.25466 32.1417 6.0911 32.5032 4.65144H32.0003C31.7242 4.65802 31.435 4.70403 31.1326 4.78949L30.8762 4.2866C31.2378 4.32604 31.6749 4.35234 32.1877 4.36548H32.8188V2.55112C32.8188 1.74254 32.7728 1.0523 32.6807 0.480379C33.4236 0.677592 33.795 0.825502 33.795 0.924109C33.795 0.950404 33.7687 0.983273 33.7161 1.02272L33.5386 1.13118V4.36548H34.1303ZM38.6859 6.49539L38.8634 6.45595L39.0211 6.06152C39.146 5.79857 39.2282 5.66709 39.2677 5.66709C39.3334 5.66709 39.4912 5.75913 39.741 5.94319C39.9974 6.12068 40.1255 6.2423 40.1255 6.30804C40.1255 6.41322 40.0598 6.48224 39.9283 6.51511L38.6859 6.79121V7.69839C38.699 8.44123 38.7188 9.0263 38.745 9.45359C38.7122 9.53905 38.6234 9.61794 38.4788 9.69025C38.3408 9.76913 38.1994 9.80858 38.0548 9.80858C37.9891 9.80858 37.9365 9.78557 37.897 9.73955C37.8576 9.70011 37.8379 9.65409 37.8379 9.6015C37.8773 9.04273 37.9036 8.47738 37.9167 7.90547V6.95884L35.1853 7.56034L35.0572 7.30396L37.9167 6.66302V2.55112C37.9167 1.7031 37.874 1.01285 37.7886 0.480379C38.5445 0.677592 38.9225 0.825502 38.9225 0.924109C38.9225 0.950404 38.8962 0.983273 38.8437 1.02272L38.6859 1.13118V6.49539ZM48.7438 1.99892L48.9508 1.75241C48.964 1.73926 48.9969 1.7031 49.0494 1.64394C49.102 1.58477 49.1415 1.54533 49.1678 1.52561C49.1941 1.50589 49.2204 1.49603 49.2467 1.49603C49.3058 1.49603 49.457 1.62093 49.7003 1.87073C49.9435 2.12054 50.0651 2.28159 50.0651 2.35391C50.0125 2.4065 49.8909 2.43937 49.7003 2.45251C49.3124 2.85351 48.8752 3.21178 48.3888 3.52733L48.2902 3.4583C48.4808 3.03101 48.6353 2.64315 48.7536 2.29474H42.571C42.5907 2.99814 42.4066 3.51089 42.0188 3.83301C41.8742 3.95791 41.7197 4.02036 41.5553 4.02036C41.391 4.01379 41.2792 3.94147 41.2201 3.80343C41.1675 3.67852 41.1642 3.5602 41.2102 3.44844C41.2562 3.33669 41.3384 3.24137 41.4567 3.16248C41.6802 3.01128 41.8709 2.77134 42.0286 2.44265C42.193 2.10739 42.2719 1.75241 42.2653 1.3777H42.4231C42.4625 1.51575 42.5052 1.72282 42.5513 1.99892H45.1446C45.1446 1.36127 45.1118 0.841937 45.046 0.440936C45.8086 0.631576 46.1899 0.776199 46.1899 0.874805C46.1899 0.901101 46.1603 0.933969 46.1011 0.973412L45.9335 1.08188V1.99892H48.7438ZM48.093 3.95134H44.4248C43.9515 3.95791 43.4486 4.00393 42.9161 4.08938L42.6597 3.57663C43.0279 3.61607 43.4749 3.64237 44.0008 3.65552H46.9787L47.1956 3.36956C47.2088 3.34983 47.2252 3.32683 47.2449 3.30053C47.2712 3.26766 47.291 3.24137 47.3041 3.22165C47.3238 3.20192 47.3403 3.1822 47.3534 3.16248C47.3731 3.14276 47.3896 3.12633 47.4027 3.11318C47.4159 3.10003 47.429 3.09017 47.4422 3.0836C47.4619 3.07045 47.4783 3.06387 47.4915 3.06387C47.5572 3.06387 47.7183 3.16906 47.9746 3.37942C48.231 3.5832 48.3592 3.72125 48.3592 3.79356C48.3395 3.89875 48.2507 3.95134 48.093 3.95134ZM48.517 5.33183L48.7536 5.02615C48.7668 5.00643 48.7832 4.98013 48.8029 4.94726C48.8292 4.91439 48.8489 4.8881 48.8621 4.86838C48.8818 4.84866 48.8983 4.82894 48.9114 4.80921C48.9311 4.78292 48.9476 4.7632 48.9607 4.75005C48.9738 4.7369 48.987 4.72704 49.0001 4.72047C49.0199 4.70732 49.0363 4.70075 49.0494 4.70075C49.1152 4.70075 49.2795 4.8125 49.5425 5.03601C49.812 5.25294 49.9468 5.39757 49.9468 5.46988C49.927 5.57506 49.8482 5.62765 49.7101 5.62765H46.8308V8.61543C46.8308 8.70089 46.8538 8.76006 46.8998 8.79293C46.9524 8.81922 47.0609 8.83237 47.2252 8.83237H48.2014C48.6945 8.83237 48.987 8.82908 49.079 8.82251C49.1974 8.81593 49.273 8.76663 49.3058 8.6746C49.3913 8.50368 49.503 8.08296 49.6411 7.41243H49.7693L49.789 8.7239C49.9928 8.79621 50.0947 8.91454 50.0947 9.07889C50.0947 9.26953 49.9665 9.39771 49.7101 9.46345C49.4537 9.53576 48.9311 9.57192 48.1423 9.57192H47.0872C46.6665 9.57192 46.3871 9.51933 46.249 9.41415C46.111 9.30897 46.0419 9.10518 46.0419 8.80279V5.62765H44.8094C44.7633 6.04837 44.7075 6.40336 44.6417 6.6926C44.5826 6.98185 44.4741 7.2941 44.3163 7.62937C44.1586 7.96463 43.9548 8.25388 43.705 8.49711C43.4552 8.73376 43.1166 8.96713 42.6893 9.19721C42.262 9.43387 41.7525 9.63766 41.1609 9.80858L41.0524 9.66067C41.5192 9.4503 41.9235 9.22022 42.2653 8.97042C42.6071 8.72061 42.88 8.47738 43.0837 8.24073C43.2875 7.9975 43.4519 7.7214 43.5768 7.41243C43.7017 7.10346 43.7871 6.8175 43.8332 6.55455C43.8857 6.2916 43.9252 5.98263 43.9515 5.62765H42.8865C42.4001 5.63422 41.8939 5.68024 41.368 5.7657L41.1017 5.25294C41.4699 5.29239 41.9202 5.31868 42.4527 5.33183H48.517ZM57.2535 0.855084L57.3324 0.746617C58.141 0.772912 58.6636 0.979986 58.9003 1.36784C59.0383 1.59135 59.0383 1.7787 58.9003 1.9299C58.7885 2.06137 58.634 2.07781 58.4368 1.9792C58.3316 1.78199 58.164 1.5782 57.9339 1.36784C57.7104 1.15748 57.4836 0.98656 57.2535 0.855084ZM53.7924 8.46752C53.7924 8.21115 53.7333 8.03037 53.6149 7.92519C53.5032 7.82001 53.306 7.74112 53.0233 7.68853L53.0332 7.5209C53.0923 7.52747 53.1876 7.53733 53.3191 7.55048C53.4572 7.56363 53.5755 7.57349 53.6741 7.58006C53.7793 7.58664 53.8582 7.58992 53.9108 7.58992C54.0357 7.58992 54.131 7.55705 54.1967 7.49132C54.3676 7.3204 54.4728 6.4165 54.5123 4.77963H52.905C52.905 5.25952 52.8885 5.6901 52.8557 6.07138C52.8228 6.44609 52.7538 6.87667 52.6486 7.36313C52.5434 7.84301 52.3659 8.29661 52.1161 8.7239C51.8729 9.1512 51.5672 9.52919 51.1991 9.85788L51.0807 9.75927C51.5146 9.08875 51.7973 8.3492 51.9288 7.54062C52.0668 6.72547 52.1358 5.78871 52.1358 4.73033V3.44844C52.1358 2.92911 52.1063 2.48867 52.0471 2.12711L53.0529 2.55112H55.9421C55.896 1.93318 55.873 1.25608 55.873 0.519821C56.5699 0.565838 56.915 0.634862 56.9084 0.726895C56.9084 0.75319 56.8821 0.786059 56.8295 0.825502L56.652 0.933969C56.6389 1.51246 56.652 2.05151 56.6915 2.55112H58.6537L58.8904 2.21586C58.9101 2.18956 58.9331 2.15998 58.9594 2.12711C58.9857 2.08767 59.0054 2.0548 59.0186 2.0285C59.0383 2.00221 59.058 1.9792 59.0778 1.95948C59.0975 1.93318 59.1172 1.91346 59.1369 1.90032C59.1566 1.88717 59.1731 1.88059 59.1862 1.88059C59.252 1.88059 59.4196 1.99564 59.6891 2.22572C59.9652 2.4558 60.1033 2.607 60.1033 2.67931C60.077 2.78449 59.9915 2.83708 59.8469 2.83708H56.7211C56.8065 4.26359 57.0465 5.43044 57.4409 6.33762C57.6118 6.00893 57.7236 5.78213 57.7761 5.65723C58.0785 4.96698 58.2462 4.30303 58.279 3.66538C59.0679 3.92175 59.459 4.09596 59.4525 4.18799C59.4459 4.21429 59.413 4.23729 59.3538 4.25702L59.1566 4.31618C58.8345 5.33512 58.3809 6.24887 57.7959 7.05745C58.1508 7.65566 58.5814 8.12569 59.0876 8.46752C59.1731 8.53984 59.2388 8.5727 59.2848 8.56613C59.3308 8.55956 59.3769 8.51354 59.4229 8.42808C59.6135 8.05338 59.7713 7.65895 59.8962 7.2448L60.0047 7.27438L59.837 8.83237C60.1 9.2005 60.1821 9.44373 60.0835 9.56206C59.9981 9.68039 59.8699 9.72969 59.699 9.70997C59.5281 9.69682 59.3538 9.64752 59.1764 9.56206C59.0054 9.48317 58.8378 9.38128 58.6735 9.25638C58.1344 8.85538 57.6677 8.33605 57.2732 7.69839C56.4581 8.61215 55.4753 9.29911 54.3249 9.75927L54.246 9.62122C55.3175 9.02301 56.2247 8.19142 56.9676 7.12647C56.4351 6.02865 56.0998 4.59885 55.9618 2.83708H52.905V4.48381H54.4235L54.6109 4.27674C54.6306 4.25702 54.6536 4.23072 54.6799 4.19785C54.7062 4.16498 54.7259 4.14198 54.7391 4.12883C54.7588 4.10911 54.7785 4.09267 54.7982 4.07952C54.8179 4.0598 54.8377 4.04994 54.8574 4.04994C54.9231 4.04994 55.0677 4.14526 55.2913 4.3359C55.5148 4.52654 55.6265 4.65802 55.6265 4.73033C55.5542 4.80921 55.4293 4.85852 55.2518 4.87824C55.2189 5.92347 55.1598 6.6926 55.0743 7.18564C54.9954 7.67867 54.8672 8.00736 54.6898 8.1717C54.486 8.36892 54.1869 8.46752 53.7924 8.46752ZM68.7807 0.707174C69.1882 0.818928 69.3427 0.917535 69.2441 1.00299C69.2244 1.01614 69.1981 1.02929 69.1652 1.04244L68.9976 1.1016C68.5243 1.78527 68.0608 2.32104 67.6072 2.70889L67.479 2.62014C67.5053 2.55441 67.5316 2.49524 67.5579 2.44265C67.8603 1.74583 68.0411 1.06873 68.1003 0.411354L68.7807 0.707174ZM65.1026 0.608567L65.2111 0.539543C65.9474 0.84851 66.3944 1.24951 66.5521 1.74254C66.6508 2.04494 66.6146 2.28159 66.4437 2.45251C66.2793 2.61686 66.0854 2.61028 65.8619 2.43279C65.8553 2.42622 65.8487 2.41964 65.8422 2.41307C65.8159 1.8543 65.5694 1.2528 65.1026 0.608567ZM66.4141 3.10332V5.46988H67.8044V3.10332H66.4141ZM68.7905 2.8075L69.0075 2.49196C69.0272 2.46566 69.0502 2.43608 69.0765 2.40321C69.1028 2.36377 69.1225 2.33419 69.1356 2.31446C69.1554 2.28817 69.1751 2.26516 69.1948 2.24544C69.2145 2.21914 69.231 2.19942 69.2441 2.18627C69.2638 2.17313 69.2803 2.16655 69.2934 2.16655C69.3591 2.16655 69.5169 2.27831 69.7667 2.50182C70.0231 2.72533 70.1513 2.87324 70.1513 2.94555C70.125 3.05073 70.0428 3.10332 69.9048 3.10332H68.5834V5.46988H68.9976L69.2047 5.14448C69.3559 4.92754 69.4512 4.81907 69.4906 4.81907C69.5564 4.81907 69.7108 4.93083 69.9541 5.15434C70.2039 5.37785 70.3288 5.52576 70.3288 5.59807C70.3025 5.70325 70.2137 5.75584 70.0625 5.75584H68.5834V7.14619C68.5966 7.96792 68.6229 8.75677 68.6623 9.51275C68.4848 9.70997 68.2416 9.80858 67.9326 9.80858C67.8735 9.80858 67.8209 9.78557 67.7749 9.73955C67.7289 9.70011 67.7058 9.65409 67.7058 9.6015C67.7584 8.69432 67.7913 7.86602 67.8044 7.11661V5.75584H66.4042C66.3911 6.16999 66.3451 6.55127 66.2662 6.89968C66.1873 7.24809 66.0558 7.60636 65.8718 7.97449C65.6943 8.34262 65.4313 8.68446 65.0829 9C64.7345 9.31554 64.3105 9.59493 63.8109 9.83816L63.7024 9.71983C64.4058 9.19393 64.8956 8.60886 65.1716 7.96463C65.4477 7.31382 65.5989 6.57756 65.6252 5.75584H65.1519C64.9153 5.76241 64.6326 5.81172 64.3039 5.90375L64.0475 5.38113C64.4025 5.43372 64.7608 5.46331 65.1223 5.46988H65.6351V3.10332H64.649C64.6096 3.12304 64.5603 3.1329 64.5011 3.1329H63.3869V4.92754C63.5446 4.88153 63.7747 4.80921 64.0771 4.71061C64.3861 4.612 64.5866 4.54626 64.6786 4.51339L64.7279 4.65144C64.5636 4.75005 64.1166 5.00971 63.3869 5.43044V8.73376C63.3869 9.08217 63.3211 9.33526 63.1897 9.49303C63.0648 9.65738 62.7854 9.76256 62.3515 9.80858C62.3318 9.53905 62.2726 9.3517 62.174 9.24652C62.0228 9.10847 61.7796 9.01315 61.4443 8.96056V8.81265C61.9965 8.85209 62.3318 8.87181 62.4501 8.87181C62.5882 8.87181 62.6572 8.80607 62.6572 8.6746V5.83472C62.5454 5.89389 62.3811 5.98263 62.1641 6.10096C61.9472 6.21929 61.7894 6.30475 61.6908 6.35734C61.658 6.48224 61.5857 6.56441 61.4739 6.60386L61.1288 5.59807C61.28 5.5652 61.7894 5.42058 62.6572 5.1642V3.1329H62.2233C61.9801 3.13947 61.7237 3.18549 61.4542 3.27095L61.1879 2.75819C61.464 2.79764 61.796 2.82393 62.1839 2.83708H62.6572V2.52154C62.6572 1.71296 62.6112 1.02272 62.5191 0.450797C63.2751 0.654584 63.6531 0.802494 63.6531 0.894527C63.6465 0.920822 63.617 0.953691 63.5644 0.993134L63.3869 1.1016V2.83708H63.5545L63.9785 2.21586C64.202 2.41307 64.4091 2.61028 64.5997 2.8075H68.7905ZM74.0463 7.21522L74.0758 7.04759C75.7193 7.05416 76.8303 7.30725 77.4087 7.80686C77.6717 8.03694 77.7572 8.2473 77.6651 8.43794C77.5928 8.59571 77.4449 8.64502 77.2214 8.58585C76.9256 8.35577 76.4884 8.11254 75.9099 7.85616C75.3314 7.59321 74.7102 7.37956 74.0463 7.21522ZM74.9732 5.87417L75.0126 5.70654C75.979 5.67367 76.61 5.8413 76.9059 6.20943C77.0571 6.40007 77.0735 6.57099 76.9552 6.72218C76.8631 6.83394 76.7349 6.86023 76.5706 6.80107C76.2222 6.42636 75.6897 6.1174 74.9732 5.87417ZM76.9354 2.88638H74.8253C74.8055 2.91268 74.7759 2.95541 74.7365 3.01457C74.7036 3.06716 74.6773 3.1066 74.6576 3.1329C74.96 3.5602 75.3643 3.93161 75.8705 4.24716C76.3044 3.81329 76.6593 3.3597 76.9354 2.88638ZM73.1884 4.49367C73.5039 4.09267 73.7932 3.60292 74.0561 3.02443C74.3191 2.44594 74.4637 1.91018 74.49 1.41714C75.1868 1.69982 75.5286 1.87731 75.5155 1.94962C75.5155 1.97591 75.4892 1.99235 75.4366 1.99892L75.2788 2.01864C75.2131 2.20271 75.1178 2.39664 74.9929 2.60042H76.9749L77.182 2.37363C77.3266 2.229 77.4219 2.15669 77.4679 2.15669C77.5271 2.15669 77.6618 2.2553 77.8722 2.45251C78.0826 2.64973 78.1877 2.78449 78.1877 2.8568C78.1286 2.93569 77.9938 2.97842 77.7835 2.98499C77.4022 3.57663 76.942 4.09267 76.403 4.53312C77.0998 4.87495 77.8689 5.11818 78.7104 5.2628L78.7005 5.37127C78.3915 5.43044 78.1943 5.65394 78.1089 6.0418C77.2345 5.7657 76.495 5.39757 75.8902 4.9374C75.0619 5.49617 74.1251 5.92347 73.0799 6.21929L73.001 6.07138C73.9411 5.6901 74.7661 5.19707 75.4761 4.59228C75.1014 4.23729 74.7792 3.81986 74.5097 3.33997C74.1416 3.84615 73.7307 4.27674 73.2771 4.63172L73.1884 4.49367ZM72.794 1.43686V8.78307H78.8681V1.43686H72.794ZM72.794 9.08875V9.50289C72.794 9.56206 72.7249 9.6278 72.5869 9.70011C72.4554 9.77899 72.3141 9.81844 72.1629 9.81844C72.1037 9.81844 72.0478 9.79543 71.9952 9.74941C71.9492 9.70997 71.9262 9.66395 71.9262 9.61136C71.9854 8.74362 72.0215 7.86931 72.0347 6.98842V2.75819C72.0347 1.91018 71.992 1.21993 71.9065 0.687453L72.863 1.14104H78.7695L78.947 0.904387C78.9602 0.89124 78.9766 0.868232 78.9963 0.835363C79.0226 0.802494 79.0423 0.779486 79.0555 0.766338C79.0752 0.746617 79.0949 0.726895 79.1146 0.707174C79.1344 0.687453 79.1508 0.674305 79.1639 0.667731C79.1837 0.654584 79.2001 0.64801 79.2133 0.64801C79.279 0.64801 79.4368 0.75319 79.6866 0.963552C79.9364 1.16734 80.0613 1.30539 80.0613 1.3777C79.989 1.47631 79.8476 1.54533 79.6373 1.58477V7.04759C79.6504 7.88246 79.6767 8.6746 79.7161 9.42401C79.6636 9.48975 79.5584 9.56206 79.4006 9.64094C79.2428 9.71983 79.1015 9.75927 78.9766 9.75927C78.878 9.75927 78.8287 9.69025 78.8287 9.5522L78.8681 9.31554V9.08875H72.794Z" fill="#A97979"/>
<path d="M39.796 33.251L28.3609 21.0625H51.2312L39.796 33.251Z" fill="#7F4444"/>
</svg>
