<svg width="161" height="43" viewBox="0 0 161 43" fill="none" xmlns="http://www.w3.org/2000/svg">
<rect width="161" height="43" fill="white" fill-opacity="0.2"/>
<path d="M132.266 30.0469C132.266 33.7135 132.984 35.5469 134.422 35.5469C135.807 35.5469 136.5 33.7135 136.5 30.0469C136.5 26.5052 135.807 24.7344 134.422 24.7344C132.984 24.7344 132.266 26.5052 132.266 30.0469ZM134.422 24.0312C135.453 24.0312 136.318 24.526 137.016 25.5156C137.714 26.4948 138.062 28.0052 138.062 30.0469C138.062 32.151 137.714 33.7083 137.016 34.7188C136.318 35.7188 135.453 36.2188 134.422 36.2188C133.37 36.2188 132.49 35.7188 131.781 34.7188C131.073 33.7188 130.719 32.1615 130.719 30.0469C130.719 27.9948 131.073 26.4792 131.781 25.5C132.49 24.5208 133.37 24.0312 134.422 24.0312ZM140.141 31.3281H144.016V25.75L140.141 31.3281ZM147.281 31.3281V32.3594H145.422V36H144.016V32.3594H139.266V31.5L144.438 24.0938H145.422V31.3281H147.281ZM150.188 36.2188C149.865 36.2188 149.583 36.1042 149.344 35.875C149.115 35.6458 149 35.375 149 35.0625C149 34.7292 149.115 34.4427 149.344 34.2031C149.583 33.9635 149.865 33.8438 150.188 33.8438C150.521 33.8438 150.802 33.9635 151.031 34.2031C151.271 34.4427 151.391 34.7292 151.391 35.0625C151.391 35.375 151.271 35.6458 151.031 35.875C150.802 36.1042 150.521 36.2188 150.188 36.2188Z" fill="#2F0000"/>
</svg>
