<svg width="186" height="40" viewBox="0 0 186 40" fill="none" xmlns="http://www.w3.org/2000/svg">
<rect width="275" height="40" fill="black" fill-opacity="0.01"/>
<path d="M11.2656 25.0469C11.2656 28.7135 11.9844 30.5469 13.4219 30.5469C14.8073 30.5469 15.5 28.7135 15.5 25.0469C15.5 21.5052 14.8073 19.7344 13.4219 19.7344C11.9844 19.7344 11.2656 21.5052 11.2656 25.0469ZM13.4219 19.0312C14.4531 19.0312 15.3177 19.526 16.0156 20.5156C16.7135 21.4948 17.0625 23.0052 17.0625 25.0469C17.0625 27.151 16.7135 28.7083 16.0156 29.7188C15.3177 30.7188 14.4531 31.2188 13.4219 31.2188C12.3698 31.2188 11.4896 30.7188 10.7812 29.7188C10.0729 28.7188 9.71875 27.1615 9.71875 25.0469C9.71875 22.9948 10.0729 21.4792 10.7812 20.5C11.4896 19.5208 12.3698 19.0312 13.4219 19.0312ZM20.4375 20.6406L20.2188 23.9531C20.7812 23.7865 21.3698 23.7031 21.9844 23.7031C23.1406 23.7031 24.0677 24.0312 24.7656 24.6875C25.4635 25.3333 25.8125 26.2344 25.8125 27.3906C25.8125 28.5365 25.4375 29.4635 24.6875 30.1719C23.9479 30.8698 22.9583 31.2188 21.7188 31.2188C19.9062 31.2188 18.8177 30.4115 18.4531 28.7969C18.5885 28.4219 18.8646 28.2344 19.2812 28.2344C19.5417 28.2344 19.7396 28.3177 19.875 28.4844C20.0104 28.6406 20.1302 28.9271 20.2344 29.3438L20.5156 30.3906C20.8698 30.4948 21.2396 30.5469 21.625 30.5469C22.4688 30.5469 23.1198 30.2812 23.5781 29.75C24.0469 29.2083 24.2812 28.4688 24.2812 27.5312C24.2812 26.6146 24.0365 25.9062 23.5469 25.4062C23.0573 24.8958 22.3854 24.6406 21.5312 24.6406C20.9688 24.6406 20.4062 24.7188 19.8438 24.875L19.3906 24.75L19.7656 19.2656H25.5V20.6406H20.4375ZM29.1875 31.2188C28.8646 31.2188 28.5833 31.1042 28.3438 30.875C28.1146 30.6458 28 30.375 28 30.0625C28 29.7292 28.1146 29.4427 28.3438 29.2031C28.5833 28.9635 28.8646 28.8438 29.1875 28.8438C29.5208 28.8438 29.8021 28.9635 30.0312 29.2031C30.2708 29.4427 30.3906 29.7292 30.3906 30.0625C30.3906 30.375 30.2708 30.6458 30.0312 30.875C29.8021 31.1042 29.5208 31.2188 29.1875 31.2188Z" fill="#2F0000"/>
</svg>
