<svg width="320" height="174" viewBox="0 0 320 174" fill="none" xmlns="http://www.w3.org/2000/svg">
<path d="M223.493 58.0498C225.759 58.6762 227.462 59.2122 228.595 59.6582C229.161 59.8806 229.594 60.0848 229.887 60.2705C230.033 60.363 230.155 60.4572 230.241 60.5547C230.321 60.6465 230.39 60.7658 230.385 60.9053H230.386C230.386 60.9076 230.385 60.9098 230.385 60.9121C230.385 60.9147 230.386 60.9173 230.386 60.9199L230.384 60.9189C230.379 61.0717 230.293 61.1935 230.191 61.2842C230.086 61.3771 229.942 61.4595 229.771 61.5361L229.772 61.5371L228.895 61.9756V76.7754C233.602 74.0586 238.294 70.8677 242.968 67.2002C246.196 64.5223 248.569 61.9626 250.099 59.5225L250.229 59.3154L250.416 59.4727C252.368 61.1119 253.753 62.3703 254.564 63.2461C254.966 63.68 255.242 64.0373 255.37 64.3086C255.432 64.4403 255.477 64.5892 255.446 64.7305C255.409 64.8995 255.281 64.9947 255.138 65.0322L255.112 65.0391H254.742V65.0381L253.827 64.9873C250.915 67.3013 247.189 69.7222 242.65 72.248H242.649C238.119 74.732 233.534 76.8543 228.895 78.6152V81.2402H254.309L255.573 79.3984L255.583 79.3828L255.597 79.3691C255.687 79.2791 255.805 79.1145 255.95 78.8613L255.956 78.8516L255.961 78.8428C256.139 78.5937 256.29 78.4033 256.411 78.2793C256.519 78.1343 256.629 77.9897 256.738 77.8447L256.747 77.833L256.757 77.8223C256.91 77.67 257.05 77.5483 257.176 77.4639C257.297 77.3833 257.433 77.3184 257.57 77.3184C257.715 77.3184 257.882 77.3819 258.053 77.4697C258.232 77.5613 258.444 77.695 258.687 77.8682C259.175 78.215 259.807 78.732 260.583 79.415C261.358 80.0984 261.946 80.6671 262.341 81.1191C262.539 81.3449 262.694 81.5465 262.799 81.7227C262.901 81.8927 262.974 82.0653 262.974 82.2256V82.251L262.967 82.2764C262.881 82.6199 262.694 82.8895 262.404 83.0684C262.119 83.2434 261.754 83.3213 261.326 83.3213H238.177C238.447 83.8848 238.889 84.5332 239.483 85.251C240.18 86.0931 241.077 87.0215 242.129 88.0088C244.233 89.9833 246.945 92.1857 249.882 94.4033C255.757 98.8383 262.524 103.323 267.115 106.148C271.693 108.966 283.096 113.997 294.114 118.55C305.128 123.102 315.722 127.162 318.674 128.042L318.838 128.091L318.826 128.262L318.77 128.979L318.756 129.155L318.582 129.175C317.589 129.281 316.771 129.629 316.118 130.213C315.463 130.798 314.96 131.631 314.619 132.728L314.548 132.954L314.331 132.858C307.376 129.805 281.507 120.818 261.23 107.212C254.672 102.812 248.838 98.0107 244.47 93.7119C242.287 91.5627 240.467 89.537 239.107 87.7471C237.807 86.0357 236.916 84.525 236.536 83.3213H228.895V103.264C232.142 102.344 236.523 100.973 242.038 99.1465L242.262 99.0723L242.312 99.3027L242.478 100.076L242.508 100.22L242.385 100.299C237.866 103.202 232.614 106.287 226.633 109.554C226.393 110.042 226.026 110.439 225.536 110.74L225.358 110.85L225.246 110.674L221.6 104.985L221.483 104.803L221.668 104.689C222.181 104.378 222.594 104.106 222.909 103.872C223.227 103.636 223.434 103.447 223.544 103.305L223.546 103.302C223.801 102.984 223.942 102.522 223.942 101.889V83.3213H220.844L220.189 83.3457C218.629 83.4295 216.855 83.6953 214.866 84.1445L214.707 84.1807L214.631 84.0352L213.084 81.0527L212.903 80.7021L213.295 80.7441C215.72 81.0013 218.182 81.1667 220.68 81.2402H223.942V69.8525C223.942 65.1083 223.702 61.2541 223.226 58.2871L223.174 57.9619L223.493 58.0498Z" fill="#280202" stroke="#280202" stroke-width="0.424192"/>
<path d="M159.229 0.362305C161.496 0.933551 163.204 1.43365 164.347 1.86133C164.917 2.07455 165.357 2.27326 165.658 2.45898C165.808 2.55161 165.932 2.64708 166.022 2.74609C166.11 2.84343 166.183 2.96599 166.183 3.10938C166.183 3.26098 166.1 3.3937 166.004 3.5C165.905 3.61058 165.764 3.72289 165.591 3.83789L165.589 3.83984L164.748 4.38379V32.3691H175.694L177.011 30.5254L177.015 30.5186C177.514 29.8724 177.92 29.3826 178.231 29.0527C178.386 28.8885 178.522 28.7591 178.638 28.6689C178.696 28.624 178.753 28.585 178.809 28.5566C178.862 28.5296 178.931 28.5029 179.006 28.5029L179.119 28.5146C179.235 28.5364 179.363 28.5877 179.495 28.6533C179.677 28.7445 179.896 28.8778 180.148 29.0508C180.653 29.3969 181.312 29.9126 182.124 30.5947L182.696 31.0723C183.231 31.5295 183.655 31.9247 183.966 32.2568C184.173 32.4779 184.335 32.6764 184.446 32.8506C184.553 33.0184 184.631 33.1911 184.631 33.3545V33.3809L184.625 33.4062C184.538 33.7526 184.343 34.0224 184.043 34.2002C183.751 34.3737 183.373 34.4501 182.928 34.4502H164.748V48.332H173.757L175.02 46.4912L175.032 46.4746L175.045 46.4609C175.135 46.3709 175.253 46.2063 175.398 45.9531L175.403 45.9443L175.409 45.9355C175.587 45.6854 175.739 45.4941 175.86 45.3701C175.968 45.2258 176.077 45.0818 176.185 44.9375L176.195 44.9248L176.205 44.9141C176.357 44.762 176.497 44.6411 176.624 44.5566C176.745 44.476 176.881 44.4102 177.018 44.4102C177.162 44.4102 177.332 44.4726 177.508 44.5596C177.693 44.6505 177.915 44.7843 178.171 44.957C178.686 45.3032 179.36 45.8193 180.19 46.502C181.021 47.1853 181.651 47.7543 182.075 48.2061C182.286 48.4313 182.451 48.6325 182.564 48.8086C182.673 48.9781 182.753 49.153 182.753 49.3174V49.3438L182.747 49.3691C182.661 49.7125 182.474 49.9824 182.183 50.1611C181.899 50.3362 181.533 50.4131 181.105 50.4131H164.748V66.6143H178.565L179.937 64.6611L179.941 64.6553C180.053 64.5058 180.201 64.3214 180.383 64.1025C180.564 63.8497 180.684 63.6596 180.75 63.5283L180.758 63.5107L181.11 63.042L181.121 63.0312C181.273 62.879 181.413 62.7573 181.54 62.6729C181.66 62.5923 181.796 62.5275 181.933 62.5273C182.08 62.5273 182.252 62.5939 182.428 62.6855C182.613 62.7816 182.835 62.9222 183.092 63.1045C183.606 63.4688 184.278 64.0117 185.106 64.7295C185.955 65.4311 186.599 66.0129 187.032 66.4736C187.248 66.7037 187.416 66.9086 187.532 67.0869C187.643 67.258 187.724 67.4343 187.724 67.5996V67.6191L187.72 67.6387C187.655 67.9845 187.483 68.2594 187.199 68.4414C186.922 68.6187 186.559 68.6953 186.131 68.6953H146.864L145.866 68.7197C143.52 68.7999 141.046 69.0483 138.444 69.4658L138.292 69.4902L138.221 69.3545L136.73 66.4824L136.548 66.1318L136.941 66.1738C138.995 66.3939 141.493 66.5407 144.435 66.6143H159.683V50.4131H153.049L152.027 50.4375C149.628 50.5177 147.144 50.7661 144.575 51.1836L144.418 51.209L144.349 51.0664L142.968 48.1943L142.803 47.8506L143.182 47.8916C145.237 48.1117 147.735 48.2585 150.677 48.332H159.683V34.4502H148.531C145.406 40.0136 141.857 44.4193 137.881 47.6592L137.761 47.7559L137.632 47.6729L136.859 47.1758L136.668 47.0537L136.803 46.8721C139.773 42.8386 142.379 38.0308 144.62 32.4473H144.621C145.315 30.7289 145.956 28.6585 146.543 26.2354L146.544 26.2324C147.169 23.808 147.534 21.8331 147.643 20.3047L147.663 20.0352L147.919 20.1182C150.167 20.8367 151.86 21.4424 152.993 21.9346C153.558 22.1802 153.993 22.4009 154.29 22.5977C154.437 22.6957 154.559 22.7936 154.646 22.8916C154.73 22.986 154.805 23.1063 154.805 23.2471C154.805 23.4064 154.715 23.5335 154.61 23.627C154.504 23.7213 154.357 23.8052 154.182 23.8828L154.173 23.8867L153.268 24.2373C152.378 26.7823 151.187 29.4928 149.694 32.3691H159.683V30.2617C159.683 27.8883 159.624 21.2117 159.504 14.7559C159.445 11.5281 159.369 8.35634 159.28 5.80566C159.19 3.2476 159.085 1.3311 158.968 0.601562L158.917 0.28418L159.229 0.362305Z" fill="#280202" stroke="#280202" stroke-width="0.424192"/>
<mask id="path-3-outside-1_1689_539" maskUnits="userSpaceOnUse" x="68.0479" y="43.1143" width="53" height="54" fill="black">
<rect fill="white" x="68.0479" y="43.1143" width="53" height="54"/>
<path d="M113.676 46.5998C115.407 48.2199 115.867 49.0484 115.057 49.0853C114.91 49.0853 114.707 49.0668 114.45 49.03L112.958 48.8091C104.526 50.3924 95.5598 51.0921 86.0597 50.908L85.894 49.8585C90.3495 49.3798 95.0075 48.6066 99.868 47.5387C104.729 46.4709 108.595 45.3662 111.467 44.2247L113.676 46.5998ZM97.3273 51.3498L97.9901 51.0184C101.599 52.8227 103.642 54.9584 104.121 57.4255C104.416 58.9352 104.084 59.9846 103.127 60.5738C102.28 61.1629 101.378 60.9972 100.42 60.0767C100.31 57.5728 99.2789 54.6638 97.3273 51.3498ZM88.6557 52.6202L89.208 52.2888C92.8902 53.7985 95.0996 55.7133 95.836 58.033C96.2779 59.4691 96.0569 60.537 95.1732 61.2366C94.3631 61.8257 93.461 61.7153 92.4668 60.9052C92.0985 58.3276 90.8282 55.566 88.6557 52.6202ZM78.9898 62.3412C75.7863 63.8141 73.4849 64.7899 72.0857 65.2686C71.7911 65.6737 71.4597 65.9314 71.0915 66.0419L69.0479 60.6842C69.7475 60.5001 70.2078 60.316 70.4287 60.1319C71.8279 58.4749 73.1719 56.0078 74.4607 52.7307C75.7863 49.4167 76.5596 46.5445 76.7805 44.1143C80.7573 45.624 82.7457 46.6182 82.7457 47.0969C82.7457 47.2441 82.58 47.373 82.2486 47.4835L81.3096 47.8149C78.8057 52.6386 75.7863 57.0204 72.2514 60.9604C74.3502 60.8499 76.9278 60.6474 79.984 60.3528C81.3096 57.7016 82.1197 55.5107 82.4143 53.7801C85.8388 55.8053 87.551 57.0573 87.551 57.5359C87.551 57.7201 87.3853 57.8489 87.0539 57.9226L86.1149 58.1435C84.6789 60.6474 82.7641 63.4643 80.3707 66.5942C78.0141 69.7241 75.6758 72.4489 73.356 74.7687C75.7127 74.511 79.7447 73.9586 85.4521 73.1117L85.5626 73.885C85.4521 73.9218 83.8688 74.603 80.8125 75.9286C77.7563 77.2174 75.1972 78.2484 73.1351 79.0217C72.6932 79.8318 72.1777 80.3473 71.5886 80.5682L69.3793 74.9897C70.1893 74.7687 70.7233 74.5478 70.981 74.3269C73.3745 71.8598 76.0441 67.8646 78.9898 62.3412ZM72.5275 93.2719C71.5702 91.394 70.668 89.5713 69.8211 87.8038C73.4297 86.9201 79.1555 85.0605 86.9987 82.2252L87.2748 82.9433C83.0771 85.9259 78.5296 88.8716 73.6322 91.7806C73.4481 92.5539 73.0799 93.051 72.5275 93.2719ZM109.147 77.3095H96.6093C98.3767 80.6235 100.807 83.3851 103.9 85.5945C106.109 83.1642 107.858 80.4025 109.147 77.3095ZM112.075 69.5216L113.29 67.7541C113.363 67.6436 113.455 67.4964 113.566 67.3122C113.713 67.1281 113.824 66.9808 113.897 66.8704C114.008 66.7599 114.1 66.6494 114.173 66.539C114.284 66.3917 114.376 66.2812 114.45 66.2076C114.523 66.1339 114.597 66.0787 114.671 66.0419C114.781 65.9682 114.873 65.9314 114.947 65.9314C115.315 65.9314 116.199 66.5574 117.598 67.8093C118.997 69.0613 119.697 69.8898 119.697 70.2948C119.549 70.884 119.052 71.1786 118.205 71.1786H97.5482C97.3641 72.0991 96.9775 73.5904 96.3883 75.6525H109.202L110.362 74.4373C111.209 73.5904 111.743 73.167 111.964 73.167C112.296 73.167 113.05 73.7377 114.229 74.8792C115.407 76.0207 115.996 76.794 115.996 77.199C115.702 77.5672 114.984 77.8066 113.842 77.917C112.038 81.6729 109.7 84.8396 106.827 87.4172C110.583 89.516 114.984 90.9889 120.028 91.8358L119.918 92.4986C118.077 92.83 116.898 94.1188 116.383 96.365C111.264 94.708 107.104 92.5354 103.9 89.8474C99.3709 92.9405 93.774 95.1682 87.1091 96.5307L86.7225 95.6469C92.7613 93.769 97.7323 91.1362 101.635 87.7486C99.1684 85.171 97.18 81.857 95.6703 77.8066C92.835 85.6497 88.0481 91.8174 81.3096 96.3097L80.8125 95.6469C87.2933 89.5344 91.491 81.3783 93.4057 71.1786H90.3679C88.7109 71.2154 86.9803 71.4732 85.176 71.9518L83.7399 69.0797C85.581 69.3006 87.7903 69.4479 90.3679 69.5216H93.6267C93.9212 67.7909 94.1606 65.913 94.3447 63.8878H91.6935C90.2574 63.9246 88.7477 64.1824 87.1644 64.661L85.7283 61.7889C87.7903 62.0098 90.3127 62.1571 93.2953 62.2308H105.723C105.796 62.1203 105.87 61.9362 105.944 61.6784C106.054 61.4207 106.128 61.2366 106.165 61.1261C107.674 57.2966 108.669 53.4671 109.147 49.6376C113.05 51.1473 115.02 52.1599 115.057 52.6754C115.057 52.8227 114.891 52.9516 114.56 53.0621L113.566 53.4487C111.062 57.2782 108.963 60.2056 107.269 62.2308H109.644L110.804 60.5738C110.878 60.4633 110.97 60.3344 111.08 60.1871C111.228 60.003 111.338 59.8557 111.412 59.7453C111.522 59.6348 111.614 59.5243 111.688 59.4139C111.798 59.3034 111.89 59.2114 111.964 59.1377C112.038 59.0641 112.111 59.0088 112.185 58.972C112.296 58.8984 112.388 58.8615 112.461 58.8615C112.829 58.8615 113.695 59.4507 115.057 60.629C116.42 61.8073 117.101 62.599 117.101 63.004C116.954 63.5932 116.456 63.8878 115.61 63.8878H98.8738C98.6529 65.8394 98.3583 67.7173 97.9901 69.5216H112.075Z"/>
</mask>
<path d="M113.676 46.5998C115.407 48.2199 115.867 49.0484 115.057 49.0853C114.91 49.0853 114.707 49.0668 114.45 49.03L112.958 48.8091C104.526 50.3924 95.5598 51.0921 86.0597 50.908L85.894 49.8585C90.3495 49.3798 95.0075 48.6066 99.868 47.5387C104.729 46.4709 108.595 45.3662 111.467 44.2247L113.676 46.5998ZM97.3273 51.3498L97.9901 51.0184C101.599 52.8227 103.642 54.9584 104.121 57.4255C104.416 58.9352 104.084 59.9846 103.127 60.5738C102.28 61.1629 101.378 60.9972 100.42 60.0767C100.31 57.5728 99.2789 54.6638 97.3273 51.3498ZM88.6557 52.6202L89.208 52.2888C92.8902 53.7985 95.0996 55.7133 95.836 58.033C96.2779 59.4691 96.0569 60.537 95.1732 61.2366C94.3631 61.8257 93.461 61.7153 92.4668 60.9052C92.0985 58.3276 90.8282 55.566 88.6557 52.6202ZM78.9898 62.3412C75.7863 63.8141 73.4849 64.7899 72.0857 65.2686C71.7911 65.6737 71.4597 65.9314 71.0915 66.0419L69.0479 60.6842C69.7475 60.5001 70.2078 60.316 70.4287 60.1319C71.8279 58.4749 73.1719 56.0078 74.4607 52.7307C75.7863 49.4167 76.5596 46.5445 76.7805 44.1143C80.7573 45.624 82.7457 46.6182 82.7457 47.0969C82.7457 47.2441 82.58 47.373 82.2486 47.4835L81.3096 47.8149C78.8057 52.6386 75.7863 57.0204 72.2514 60.9604C74.3502 60.8499 76.9278 60.6474 79.984 60.3528C81.3096 57.7016 82.1197 55.5107 82.4143 53.7801C85.8388 55.8053 87.551 57.0573 87.551 57.5359C87.551 57.7201 87.3853 57.8489 87.0539 57.9226L86.1149 58.1435C84.6789 60.6474 82.7641 63.4643 80.3707 66.5942C78.0141 69.7241 75.6758 72.4489 73.356 74.7687C75.7127 74.511 79.7447 73.9586 85.4521 73.1117L85.5626 73.885C85.4521 73.9218 83.8688 74.603 80.8125 75.9286C77.7563 77.2174 75.1972 78.2484 73.1351 79.0217C72.6932 79.8318 72.1777 80.3473 71.5886 80.5682L69.3793 74.9897C70.1893 74.7687 70.7233 74.5478 70.981 74.3269C73.3745 71.8598 76.0441 67.8646 78.9898 62.3412ZM72.5275 93.2719C71.5702 91.394 70.668 89.5713 69.8211 87.8038C73.4297 86.9201 79.1555 85.0605 86.9987 82.2252L87.2748 82.9433C83.0771 85.9259 78.5296 88.8716 73.6322 91.7806C73.4481 92.5539 73.0799 93.051 72.5275 93.2719ZM109.147 77.3095H96.6093C98.3767 80.6235 100.807 83.3851 103.9 85.5945C106.109 83.1642 107.858 80.4025 109.147 77.3095ZM112.075 69.5216L113.29 67.7541C113.363 67.6436 113.455 67.4964 113.566 67.3122C113.713 67.1281 113.824 66.9808 113.897 66.8704C114.008 66.7599 114.1 66.6494 114.173 66.539C114.284 66.3917 114.376 66.2812 114.45 66.2076C114.523 66.1339 114.597 66.0787 114.671 66.0419C114.781 65.9682 114.873 65.9314 114.947 65.9314C115.315 65.9314 116.199 66.5574 117.598 67.8093C118.997 69.0613 119.697 69.8898 119.697 70.2948C119.549 70.884 119.052 71.1786 118.205 71.1786H97.5482C97.3641 72.0991 96.9775 73.5904 96.3883 75.6525H109.202L110.362 74.4373C111.209 73.5904 111.743 73.167 111.964 73.167C112.296 73.167 113.05 73.7377 114.229 74.8792C115.407 76.0207 115.996 76.794 115.996 77.199C115.702 77.5672 114.984 77.8066 113.842 77.917C112.038 81.6729 109.7 84.8396 106.827 87.4172C110.583 89.516 114.984 90.9889 120.028 91.8358L119.918 92.4986C118.077 92.83 116.898 94.1188 116.383 96.365C111.264 94.708 107.104 92.5354 103.9 89.8474C99.3709 92.9405 93.774 95.1682 87.1091 96.5307L86.7225 95.6469C92.7613 93.769 97.7323 91.1362 101.635 87.7486C99.1684 85.171 97.18 81.857 95.6703 77.8066C92.835 85.6497 88.0481 91.8174 81.3096 96.3097L80.8125 95.6469C87.2933 89.5344 91.491 81.3783 93.4057 71.1786H90.3679C88.7109 71.2154 86.9803 71.4732 85.176 71.9518L83.7399 69.0797C85.581 69.3006 87.7903 69.4479 90.3679 69.5216H93.6267C93.9212 67.7909 94.1606 65.913 94.3447 63.8878H91.6935C90.2574 63.9246 88.7477 64.1824 87.1644 64.661L85.7283 61.7889C87.7903 62.0098 90.3127 62.1571 93.2953 62.2308H105.723C105.796 62.1203 105.87 61.9362 105.944 61.6784C106.054 61.4207 106.128 61.2366 106.165 61.1261C107.674 57.2966 108.669 53.4671 109.147 49.6376C113.05 51.1473 115.02 52.1599 115.057 52.6754C115.057 52.8227 114.891 52.9516 114.56 53.0621L113.566 53.4487C111.062 57.2782 108.963 60.2056 107.269 62.2308H109.644L110.804 60.5738C110.878 60.4633 110.97 60.3344 111.08 60.1871C111.228 60.003 111.338 59.8557 111.412 59.7453C111.522 59.6348 111.614 59.5243 111.688 59.4139C111.798 59.3034 111.89 59.2114 111.964 59.1377C112.038 59.0641 112.111 59.0088 112.185 58.972C112.296 58.8984 112.388 58.8615 112.461 58.8615C112.829 58.8615 113.695 59.4507 115.057 60.629C116.42 61.8073 117.101 62.599 117.101 63.004C116.954 63.5932 116.456 63.8878 115.61 63.8878H98.8738C98.6529 65.8394 98.3583 67.7173 97.9901 69.5216H112.075Z" fill="#280202"/>
<path d="M113.676 46.5998C115.407 48.2199 115.867 49.0484 115.057 49.0853C114.91 49.0853 114.707 49.0668 114.45 49.03L112.958 48.8091C104.526 50.3924 95.5598 51.0921 86.0597 50.908L85.894 49.8585C90.3495 49.3798 95.0075 48.6066 99.868 47.5387C104.729 46.4709 108.595 45.3662 111.467 44.2247L113.676 46.5998ZM97.3273 51.3498L97.9901 51.0184C101.599 52.8227 103.642 54.9584 104.121 57.4255C104.416 58.9352 104.084 59.9846 103.127 60.5738C102.28 61.1629 101.378 60.9972 100.42 60.0767C100.31 57.5728 99.2789 54.6638 97.3273 51.3498ZM88.6557 52.6202L89.208 52.2888C92.8902 53.7985 95.0996 55.7133 95.836 58.033C96.2779 59.4691 96.0569 60.537 95.1732 61.2366C94.3631 61.8257 93.461 61.7153 92.4668 60.9052C92.0985 58.3276 90.8282 55.566 88.6557 52.6202ZM78.9898 62.3412C75.7863 63.8141 73.4849 64.7899 72.0857 65.2686C71.7911 65.6737 71.4597 65.9314 71.0915 66.0419L69.0479 60.6842C69.7475 60.5001 70.2078 60.316 70.4287 60.1319C71.8279 58.4749 73.1719 56.0078 74.4607 52.7307C75.7863 49.4167 76.5596 46.5445 76.7805 44.1143C80.7573 45.624 82.7457 46.6182 82.7457 47.0969C82.7457 47.2441 82.58 47.373 82.2486 47.4835L81.3096 47.8149C78.8057 52.6386 75.7863 57.0204 72.2514 60.9604C74.3502 60.8499 76.9278 60.6474 79.984 60.3528C81.3096 57.7016 82.1197 55.5107 82.4143 53.7801C85.8388 55.8053 87.551 57.0573 87.551 57.5359C87.551 57.7201 87.3853 57.8489 87.0539 57.9226L86.1149 58.1435C84.6789 60.6474 82.7641 63.4643 80.3707 66.5942C78.0141 69.7241 75.6758 72.4489 73.356 74.7687C75.7127 74.511 79.7447 73.9586 85.4521 73.1117L85.5626 73.885C85.4521 73.9218 83.8688 74.603 80.8125 75.9286C77.7563 77.2174 75.1972 78.2484 73.1351 79.0217C72.6932 79.8318 72.1777 80.3473 71.5886 80.5682L69.3793 74.9897C70.1893 74.7687 70.7233 74.5478 70.981 74.3269C73.3745 71.8598 76.0441 67.8646 78.9898 62.3412ZM72.5275 93.2719C71.5702 91.394 70.668 89.5713 69.8211 87.8038C73.4297 86.9201 79.1555 85.0605 86.9987 82.2252L87.2748 82.9433C83.0771 85.9259 78.5296 88.8716 73.6322 91.7806C73.4481 92.5539 73.0799 93.051 72.5275 93.2719ZM109.147 77.3095H96.6093C98.3767 80.6235 100.807 83.3851 103.9 85.5945C106.109 83.1642 107.858 80.4025 109.147 77.3095ZM112.075 69.5216L113.29 67.7541C113.363 67.6436 113.455 67.4964 113.566 67.3122C113.713 67.1281 113.824 66.9808 113.897 66.8704C114.008 66.7599 114.1 66.6494 114.173 66.539C114.284 66.3917 114.376 66.2812 114.45 66.2076C114.523 66.1339 114.597 66.0787 114.671 66.0419C114.781 65.9682 114.873 65.9314 114.947 65.9314C115.315 65.9314 116.199 66.5574 117.598 67.8093C118.997 69.0613 119.697 69.8898 119.697 70.2948C119.549 70.884 119.052 71.1786 118.205 71.1786H97.5482C97.3641 72.0991 96.9775 73.5904 96.3883 75.6525H109.202L110.362 74.4373C111.209 73.5904 111.743 73.167 111.964 73.167C112.296 73.167 113.05 73.7377 114.229 74.8792C115.407 76.0207 115.996 76.794 115.996 77.199C115.702 77.5672 114.984 77.8066 113.842 77.917C112.038 81.6729 109.7 84.8396 106.827 87.4172C110.583 89.516 114.984 90.9889 120.028 91.8358L119.918 92.4986C118.077 92.83 116.898 94.1188 116.383 96.365C111.264 94.708 107.104 92.5354 103.9 89.8474C99.3709 92.9405 93.774 95.1682 87.1091 96.5307L86.7225 95.6469C92.7613 93.769 97.7323 91.1362 101.635 87.7486C99.1684 85.171 97.18 81.857 95.6703 77.8066C92.835 85.6497 88.0481 91.8174 81.3096 96.3097L80.8125 95.6469C87.2933 89.5344 91.491 81.3783 93.4057 71.1786H90.3679C88.7109 71.2154 86.9803 71.4732 85.176 71.9518L83.7399 69.0797C85.581 69.3006 87.7903 69.4479 90.3679 69.5216H93.6267C93.9212 67.7909 94.1606 65.913 94.3447 63.8878H91.6935C90.2574 63.9246 88.7477 64.1824 87.1644 64.661L85.7283 61.7889C87.7903 62.0098 90.3127 62.1571 93.2953 62.2308H105.723C105.796 62.1203 105.87 61.9362 105.944 61.6784C106.054 61.4207 106.128 61.2366 106.165 61.1261C107.674 57.2966 108.669 53.4671 109.147 49.6376C113.05 51.1473 115.02 52.1599 115.057 52.6754C115.057 52.8227 114.891 52.9516 114.56 53.0621L113.566 53.4487C111.062 57.2782 108.963 60.2056 107.269 62.2308H109.644L110.804 60.5738C110.878 60.4633 110.97 60.3344 111.08 60.1871C111.228 60.003 111.338 59.8557 111.412 59.7453C111.522 59.6348 111.614 59.5243 111.688 59.4139C111.798 59.3034 111.89 59.2114 111.964 59.1377C112.038 59.0641 112.111 59.0088 112.185 58.972C112.296 58.8984 112.388 58.8615 112.461 58.8615C112.829 58.8615 113.695 59.4507 115.057 60.629C116.42 61.8073 117.101 62.599 117.101 63.004C116.954 63.5932 116.456 63.8878 115.61 63.8878H98.8738C98.6529 65.8394 98.3583 67.7173 97.9901 69.5216H112.075Z" stroke="#280202" stroke-width="0.848383" mask="url(#path-3-outside-1_1689_539)"/>
<path d="M10.9429 16.4951C11.0861 16.4952 11.2493 16.5541 11.4165 16.6377C11.5905 16.7247 11.7963 16.8524 12.0308 17.0166C12.4997 17.3449 13.1038 17.8333 13.8413 18.4785L14.3628 18.9307C14.8501 19.364 15.2366 19.7408 15.52 20.0596C15.7087 20.2718 15.856 20.4638 15.9575 20.6338C16.056 20.7988 16.1255 20.9671 16.1255 21.126V21.2051L16.0737 21.2646C15.5689 21.8471 14.6841 22.2144 13.4741 22.4092V39.6504L13.9097 40.0859L13.9185 40.0957C16.1757 42.6441 18.847 44.3704 21.9351 45.2793H21.936C25.0758 46.1554 29.3986 46.5967 34.9136 46.5967C41.392 46.5967 47.1332 46.4864 52.1372 46.2656L52.3589 46.2559V47.3086L52.1948 47.3467C51.2966 47.5581 50.6149 47.9816 50.1333 48.6094C49.6497 49.2399 49.355 50.0941 49.2651 51.1895L49.2485 51.3848H33.5884C28.2719 51.3848 24.0765 50.7023 21.0181 49.3223C17.9569 47.941 15.1869 45.5014 12.7046 42.0195L12.5942 41.8789C12.341 41.5785 12.1254 41.4708 11.9507 41.4707C11.7536 41.4707 11.5095 41.6086 11.2271 42.0146L11.2241 42.0186C7.80602 46.696 5.67598 49.6805 4.82764 50.9775C4.91726 51.2376 4.9285 51.4969 4.84814 51.748C4.75773 52.0306 4.55922 52.2794 4.27979 52.499L4.1001 52.6406L3.97314 52.4512L0.437988 47.2041L0.319824 47.0283L0.494629 46.9102C1.41073 46.2872 2.89862 45.2036 4.96045 43.6572L4.96143 43.6553C6.96404 42.1797 8.29885 41.2066 8.9624 40.7354V21.835H6.63916L6.10596 21.8584C4.85151 21.9378 3.53847 22.1839 2.1665 22.5986L1.9917 22.6523L1.91357 22.4863L0.532715 19.5596L0.361816 19.1982L0.756348 19.2588C2.18182 19.4781 3.90437 19.6248 5.92432 19.6982H8.23486L9.27686 18.1885C9.35298 18.0744 9.51962 17.8334 9.7749 17.4688C10.0309 17.1031 10.2245 16.8483 10.3501 16.7227L10.3608 16.7119L10.3735 16.7031C10.5482 16.5722 10.7393 16.4951 10.9429 16.4951ZM31.4683 24.2471C39.3296 27.8919 44.7308 31.8968 47.6343 36.2744L47.9077 36.7002L47.9087 36.7012C49.4242 39.1778 49.8697 41.1865 49.0747 42.6572L49.0737 42.6562C48.7747 43.2328 48.3454 43.5966 47.7808 43.7031C47.2278 43.8074 46.5845 43.6572 45.8657 43.2979C45.7124 43.2212 45.5748 43.144 45.4556 43.0645L45.4067 43.0312L45.3813 42.9766C44.2143 40.4602 42.2025 37.5123 39.3364 34.1318C36.4698 30.7507 33.5486 27.7201 30.5737 25.0391L30.3716 24.8564L30.5981 24.7051L31.2612 24.2627L31.3599 24.1973L31.4683 24.2471ZM44.0825 2.02344C44.2254 2.02348 44.3863 2.08111 44.5503 2.16309C44.7202 2.24802 44.9185 2.37249 45.144 2.53223C45.5948 2.85154 46.1711 3.3265 46.8716 3.95312H46.8726C47.5752 4.56329 48.1087 5.07785 48.4683 5.49414C48.6478 5.70209 48.7886 5.8907 48.8853 6.05859C48.9794 6.22207 49.0444 6.38752 49.0444 6.54395V6.62402L48.9917 6.68457C48.4332 7.31758 47.6523 7.72645 46.6694 7.93066V13.0576L46.7388 15.7441C46.8215 18.3859 46.9454 20.8927 47.1108 23.2646L47.1157 23.3369L47.0757 23.3975C46.9415 23.5986 46.7201 23.7879 46.4331 23.9697C46.1433 24.1533 45.7721 24.3386 45.3237 24.5254L45.3198 24.5264C44.4553 24.8647 43.655 25.0381 42.9224 25.0381C42.5811 25.0381 42.2916 24.9292 42.0942 24.6826C41.9041 24.4449 41.8267 24.1125 41.8267 23.7217V23.6875L41.8374 23.6543C41.8677 23.5634 41.9023 23.396 41.939 23.1396C41.9723 22.8737 42.008 22.667 42.0474 22.5322V21.6689H26.7202C26.6033 24.396 26.3123 26.8629 25.8423 29.0684C25.3583 31.3393 24.4102 33.7523 23.0034 36.3066L23.0024 36.3076C21.5888 38.8374 19.7102 40.9955 17.3677 42.7803L17.2202 42.8926L16.2954 41.9678L16.4067 41.8213C18.7439 38.7172 20.277 35.2672 21.0073 31.4697C21.7405 27.657 22.1079 23.1414 22.1079 17.9219V10.4102C22.1079 7.13758 21.9616 4.55354 21.6694 2.6543L21.6069 2.25293L21.9722 2.43164L27.3403 5.06152H41.5942L42.5249 3.66504L42.5366 3.64746L42.5513 3.63281C42.6385 3.54561 42.7733 3.34818 42.9575 3.0166L42.9624 3.00879L42.9673 3.00195C43.1876 2.67144 43.3636 2.43375 43.4907 2.30664C43.6611 2.13632 43.8592 2.02344 44.0825 2.02344ZM26.7856 19.5879H42.0474V7.08789H26.7856V19.5879ZM5.28271 1.59961C10.3103 3.78075 13.5008 6.4618 14.7837 9.66699L14.9214 10.0205C15.5612 11.7684 15.463 13.1849 14.5229 14.2002L14.52 14.2021C14.0607 14.6815 13.521 14.924 12.9097 14.9033C12.3082 14.8829 11.6646 14.6088 10.9839 14.1172L10.9214 14.0723L10.9028 13.998C10.0665 10.7254 7.89519 6.83116 4.36768 2.31152L4.21924 2.12012L4.42822 1.99707L5.09131 1.61035L5.18408 1.55664L5.28271 1.59961Z" fill="#280202" stroke="#280202" stroke-width="0.424192"/>
<path d="M8.50198 132.163H14.9091V133.261H8.50198V132.163ZM8.4687 128.169H15.6746V129.317H8.4687V128.169ZM11.5474 125.606H12.7789V132.812H11.5474V125.606ZM7.9528 128.169H9.13437V132.196C9.13437 132.84 9.10663 133.538 9.05116 134.293C8.99569 135.047 8.89583 135.818 8.75161 136.606C8.61847 137.383 8.41322 138.143 8.13586 138.886C7.86959 139.629 7.50902 140.306 7.05414 140.916C6.98758 140.85 6.89327 140.772 6.77123 140.683C6.64919 140.606 6.52161 140.528 6.38847 140.45C6.25534 140.373 6.13884 140.312 6.03899 140.267C6.48277 139.679 6.8267 139.041 7.07078 138.354C7.32596 137.666 7.51457 136.967 7.63661 136.257C7.76974 135.535 7.85295 134.825 7.88623 134.126C7.93061 133.428 7.9528 132.779 7.9528 132.179V128.169ZM10.2327 132.729C10.7431 134.448 11.5419 135.935 12.6291 137.189C13.7164 138.442 15.0977 139.33 16.7729 139.851C16.6731 139.94 16.5677 140.045 16.4568 140.167C16.3569 140.301 16.2571 140.434 16.1572 140.567C16.0684 140.7 15.9908 140.828 15.9242 140.95C14.1824 140.306 12.7567 139.302 11.6473 137.937C10.5489 136.573 9.71683 134.931 9.15101 133.011L10.2327 132.729ZM15.3085 128.169H15.4915L15.7079 128.119L16.5732 128.319C16.4401 128.895 16.2792 129.489 16.0906 130.099C15.9131 130.709 15.7356 131.225 15.5581 131.647L14.493 131.414C14.6373 131.037 14.787 130.56 14.9424 129.983C15.0977 129.406 15.2197 128.868 15.3085 128.368V128.169ZM14.6428 132.163H14.8758L15.0921 132.096L15.8909 132.396C15.547 133.894 15.0367 135.197 14.3599 136.307C13.6831 137.416 12.8843 138.354 11.9635 139.119C11.0426 139.873 10.0497 140.473 8.98459 140.916C8.92912 140.805 8.857 140.683 8.76825 140.55C8.69059 140.428 8.60738 140.306 8.51862 140.184C8.42986 140.073 8.33556 139.973 8.23571 139.885C9.22312 139.53 10.144 139.008 10.9982 138.32C11.8636 137.621 12.6125 136.773 13.2449 135.774C13.8884 134.776 14.3543 133.644 14.6428 132.379V132.163ZM3.72578 133.76L4.90735 132.346V140.916H3.72578V133.76ZM1.42922 128.685H6.3219V129.816H1.42922V128.685ZM3.67586 125.639H4.85743V129.317H3.67586V125.639ZM4.77422 132.362C4.89626 132.473 5.07377 132.668 5.30675 132.945C5.55083 133.211 5.80601 133.505 6.07228 133.827C6.34964 134.149 6.59927 134.448 6.82116 134.726C7.05414 135.003 7.22056 135.203 7.32041 135.325L6.57153 136.173C6.44949 135.974 6.27753 135.724 6.05564 135.425C5.84484 135.125 5.61185 134.809 5.35668 134.476C5.1126 134.143 4.87407 133.838 4.64108 133.561C4.41919 133.283 4.24168 133.067 4.10855 132.912L4.77422 132.362ZM6.02235 128.685H6.27198L6.48832 128.635L7.15399 129.084C6.77678 130.049 6.29417 130.987 5.70616 131.896C5.11815 132.795 4.47467 133.622 3.77571 134.376C3.07675 135.119 2.3778 135.746 1.67884 136.257C1.63447 136.146 1.57345 136.018 1.49578 135.874C1.42922 135.73 1.35156 135.597 1.2628 135.474C1.18514 135.341 1.10748 135.236 1.02981 135.158C1.69549 134.715 2.35006 134.165 2.99355 133.511C3.64812 132.845 4.24168 132.118 4.77422 131.331C5.30675 130.543 5.7228 129.744 6.02235 128.934V128.685ZM6.8378 131.664L7.61996 132.229C7.36479 132.584 7.09297 132.945 6.80452 133.311C6.51606 133.677 6.24979 133.988 6.00571 134.243L5.37332 133.777C5.52865 133.588 5.69506 133.372 5.87258 133.128C6.06118 132.873 6.23869 132.618 6.40511 132.362C6.58263 132.096 6.72685 131.863 6.8378 131.664ZM31.0516 127.387H32.2997C32.2997 127.387 32.2942 127.42 32.2831 127.486C32.2831 127.553 32.2831 127.631 32.2831 127.719C32.2831 127.808 32.2776 127.88 32.2665 127.936C32.1888 129.378 32.1 130.537 32.0002 131.414C31.9003 132.29 31.7894 132.962 31.6674 133.428C31.5453 133.894 31.3955 134.221 31.218 134.409C31.0627 134.587 30.8963 134.715 30.7188 134.792C30.5524 134.859 30.3471 134.903 30.103 134.925C29.8922 134.947 29.5982 134.959 29.221 134.959C28.8549 134.947 28.4721 134.931 28.0727 134.909C28.0616 134.731 28.0228 134.537 27.9562 134.326C27.9008 134.115 27.8231 133.927 27.7232 133.76C28.1227 133.794 28.4943 133.816 28.8382 133.827C29.1822 133.838 29.4263 133.844 29.5705 133.844C29.7147 133.844 29.8312 133.832 29.92 133.81C30.0087 133.788 30.0919 133.733 30.1696 133.644C30.3027 133.511 30.4192 133.233 30.5191 132.812C30.63 132.379 30.7299 131.741 30.8186 130.898C30.9074 130.055 30.985 128.951 31.0516 127.586V127.387ZM22.8306 125.573L24.0121 125.939C23.6571 126.649 23.2411 127.342 22.764 128.019C22.2869 128.685 21.771 129.306 21.2163 129.883C20.6727 130.449 20.1235 130.942 19.5688 131.364C19.4911 131.286 19.3857 131.198 19.2526 131.098C19.1305 130.998 19.0029 130.898 18.8698 130.798C18.7367 130.698 18.6202 130.621 18.5203 130.565C19.3968 129.977 20.2123 129.245 20.9667 128.368C21.7322 127.492 22.3535 126.56 22.8306 125.573ZM24.8941 127.736L26.0424 128.102C25.6208 128.956 25.1105 129.761 24.5114 130.515C23.9234 131.259 23.2799 131.941 22.5809 132.562C21.882 133.172 21.1608 133.705 20.4175 134.16C20.362 134.071 20.2733 133.971 20.1512 133.86C20.0403 133.749 19.9238 133.638 19.8018 133.527C19.6908 133.405 19.591 133.317 19.5022 133.261C20.6338 132.651 21.6712 131.869 22.6142 130.915C23.5683 129.96 24.3283 128.901 24.8941 127.736ZM28.2391 127.736L29.4041 128.036C28.7939 129.678 27.984 131.137 26.9744 132.412C25.9648 133.677 24.8165 134.72 23.5295 135.541C23.4629 135.463 23.3686 135.369 23.2466 135.258C23.1357 135.147 23.0192 135.042 22.8971 134.942C22.7751 134.831 22.6641 134.742 22.5643 134.676C23.8734 133.943 25.0106 132.984 25.9759 131.797C26.9411 130.598 27.6955 129.245 28.2391 127.736ZM22.0151 127.387H31.4344V128.518H22.0151V127.387ZM22.8306 136.19H24.0454V139.069C24.0454 139.291 24.112 139.435 24.2451 139.502C24.3782 139.557 24.6667 139.585 25.1105 139.585C25.2214 139.585 25.41 139.585 25.6763 139.585C25.9537 139.585 26.2588 139.585 26.5916 139.585C26.9244 139.585 27.2351 139.585 27.5235 139.585C27.8231 139.585 28.0394 139.585 28.1726 139.585C28.4277 139.585 28.6164 139.546 28.7384 139.469C28.8604 139.38 28.9492 139.202 29.0047 138.936C29.0601 138.67 29.099 138.27 29.1212 137.738C29.221 137.804 29.332 137.871 29.454 137.937C29.5871 137.993 29.7258 138.043 29.87 138.087C30.0143 138.132 30.1419 138.165 30.2528 138.187C30.1973 138.864 30.1086 139.385 29.9865 139.751C29.8645 140.118 29.6703 140.367 29.4041 140.5C29.1378 140.645 28.7661 140.717 28.2891 140.717C28.2003 140.717 28.045 140.717 27.8231 140.717C27.6123 140.717 27.3627 140.717 27.0742 140.717C26.7858 140.717 26.4973 140.717 26.2088 140.717C25.9204 140.717 25.6652 140.717 25.4433 140.717C25.2325 140.717 25.0938 140.717 25.0273 140.717C24.4393 140.717 23.9844 140.667 23.6627 140.567C23.3409 140.478 23.119 140.312 22.997 140.068C22.886 139.835 22.8306 139.502 22.8306 139.069V136.19ZM29.6038 136.49L30.6522 135.907C31.0738 136.262 31.4843 136.656 31.8837 137.089C32.2942 137.521 32.6659 137.965 32.9987 138.42C33.3315 138.864 33.5812 139.274 33.7476 139.652L32.6326 140.267C32.4662 139.901 32.2276 139.496 31.917 139.052C31.6063 138.598 31.2458 138.148 30.8353 137.704C30.4359 137.261 30.0254 136.856 29.6038 136.49ZM20.7171 136.157L21.8154 136.523C21.5935 137.233 21.294 137.937 20.9168 138.636C20.5506 139.335 20.0625 139.918 19.4523 140.384L18.4205 139.685C18.9974 139.274 19.4745 138.747 19.8517 138.104C20.2289 137.46 20.5174 136.811 20.7171 136.157ZM24.4448 135.641L25.2603 134.892C25.6153 135.047 25.9759 135.236 26.342 135.458C26.7081 135.669 27.0465 135.891 27.3571 136.124C27.6789 136.356 27.9396 136.584 28.1393 136.806L27.2739 137.621C27.0853 137.41 26.8357 137.183 26.525 136.939C26.2144 136.695 25.876 136.462 25.5099 136.24C25.1549 136.007 24.7998 135.807 24.4448 135.641ZM36.8263 126.571H41.6857V137.422H36.8263V136.323H40.6872V127.669H36.8263V126.571ZM36.1606 126.571H37.1425V138.919H36.1606V126.571ZM36.7265 131.281H41.2197V132.346H36.7265V131.281ZM43.6661 139.136H49.3909V140.251H43.6661V139.136ZM44.4316 127.353H49.1912V128.435H44.4316V127.353ZM38.4572 127.137H39.3226V136.872H38.4572V127.137ZM42.9172 134.809H49.94V140.783H48.7252V135.924H44.0988V140.816H42.9172V134.809ZM48.8916 127.353H49.1079L49.3243 127.303L50.1397 127.719C49.7736 128.651 49.3021 129.522 48.7252 130.332C48.1483 131.131 47.4992 131.863 46.7781 132.529C46.068 133.183 45.3136 133.766 44.5148 134.276C43.7271 134.776 42.9283 135.192 42.1184 135.524C42.0407 135.369 41.9298 135.197 41.7856 135.009C41.6524 134.82 41.5193 134.67 41.3862 134.559C42.1406 134.271 42.895 133.899 43.6494 133.444C44.4039 132.978 45.1195 132.446 45.7962 131.847C46.473 131.236 47.0776 130.576 47.6102 129.866C48.1538 129.145 48.581 128.385 48.8916 127.586V127.353ZM45.0474 125.523L46.2289 125.856C45.9294 126.566 45.5743 127.253 45.1638 127.919C44.7533 128.585 44.304 129.201 43.8159 129.766C43.3388 130.332 42.8395 130.826 42.3181 131.247C42.2626 131.159 42.1739 131.064 42.0518 130.965C41.9409 130.854 41.8244 130.748 41.7024 130.648C41.5803 130.537 41.4749 130.449 41.3862 130.382C42.1517 129.816 42.8562 129.106 43.4997 128.252C44.1431 127.387 44.659 126.477 45.0474 125.523ZM44.415 128.235C44.77 128.956 45.2748 129.711 45.9294 130.499C46.5839 131.286 47.3606 132.019 48.2592 132.695C49.1579 133.361 50.1675 133.894 51.288 134.293C51.1993 134.382 51.105 134.487 51.0051 134.609C50.9053 134.731 50.8054 134.859 50.7056 134.992C50.6168 135.114 50.5447 135.23 50.4892 135.341C49.6571 134.986 48.875 134.565 48.1427 134.077C47.4216 133.577 46.767 133.034 46.179 132.446C45.591 131.858 45.0751 131.259 44.6313 130.648C44.1875 130.027 43.8214 129.428 43.5329 128.851L44.415 128.235ZM54.217 128.269H59.2761V139.152H54.217V138.021H58.1278V129.384H54.217V128.269ZM53.4847 128.269H54.633V140.467H53.4847V128.269ZM54.1338 132.895H58.7269V133.993H54.1338V132.895ZM56.0309 125.556L57.3789 125.789C57.2125 126.31 57.0294 126.837 56.8297 127.37C56.6411 127.902 56.4636 128.357 56.2972 128.735L55.2821 128.485C55.3819 128.208 55.4762 127.897 55.565 127.553C55.6648 127.209 55.7536 126.86 55.8312 126.505C55.92 126.15 55.9866 125.833 56.0309 125.556ZM61.6559 128.219H66.7649V129.367H61.6559V128.219ZM66.3156 128.219H67.4971C67.4971 128.219 67.4971 128.257 67.4971 128.335C67.4971 128.413 67.4971 128.507 67.4971 128.618C67.4971 128.718 67.4916 128.796 67.4805 128.851C67.4139 130.759 67.3474 132.374 67.2808 133.694C67.2253 135.014 67.1532 136.096 67.0644 136.939C66.9757 137.771 66.8703 138.42 66.7482 138.886C66.6373 139.352 66.4986 139.685 66.3322 139.885C66.1436 140.129 65.9439 140.295 65.7331 140.384C65.5334 140.484 65.2838 140.55 64.9842 140.584C64.7069 140.606 64.3407 140.611 63.8859 140.6C63.4421 140.6 62.9817 140.584 62.5046 140.55C62.4935 140.373 62.4491 140.167 62.3715 139.934C62.3049 139.701 62.2106 139.507 62.0885 139.352C62.6433 139.396 63.1425 139.424 63.5863 139.435C64.0412 139.446 64.3685 139.452 64.5682 139.452C64.7346 139.452 64.8677 139.435 64.9676 139.402C65.0785 139.358 65.1839 139.28 65.2838 139.169C65.4169 139.025 65.5334 138.731 65.6332 138.287C65.7442 137.832 65.8385 137.189 65.9162 136.356C65.9938 135.524 66.0659 134.465 66.1325 133.178C66.1991 131.88 66.2601 130.316 66.3156 128.485V128.219ZM61.9887 125.523L63.1869 125.789C62.9872 126.621 62.7431 127.436 62.4547 128.235C62.1773 129.023 61.8667 129.766 61.5227 130.465C61.1899 131.164 60.8349 131.78 60.4577 132.313C60.38 132.246 60.2746 132.168 60.1415 132.08C60.0194 131.98 59.8918 131.891 59.7587 131.813C59.6256 131.725 59.5091 131.652 59.4092 131.597C59.7975 131.098 60.1526 130.526 60.4743 129.883C60.796 129.228 61.0845 128.529 61.3397 127.786C61.5948 127.043 61.8112 126.288 61.9887 125.523ZM61.2232 132.529L62.205 131.98C62.5157 132.368 62.8374 132.795 63.1703 133.261C63.5142 133.727 63.8304 134.176 64.1188 134.609C64.4184 135.042 64.6569 135.425 64.8344 135.757L63.7694 136.423C63.6029 136.079 63.3755 135.685 63.0871 135.241C62.8097 134.787 62.5046 134.326 62.1718 133.86C61.85 133.383 61.5338 132.939 61.2232 132.529ZM72.7226 125.623H73.9042V140.883H72.7226V125.623ZM70.1099 131.181H76.4005V132.346H70.1099V131.181ZM72.6228 131.797L73.3883 132.113C73.2441 132.69 73.061 133.289 72.8391 133.91C72.6283 134.52 72.3954 135.125 72.1402 135.724C71.885 136.323 71.6187 136.889 71.3414 137.422C71.064 137.943 70.7867 138.392 70.5093 138.77C70.4649 138.648 70.4039 138.514 70.3262 138.37C70.2597 138.226 70.182 138.082 70.0932 137.937C70.0156 137.782 69.9379 137.655 69.8603 137.555C70.2264 137.122 70.587 136.578 70.942 135.924C71.297 135.269 71.6243 134.581 71.9238 133.86C72.2234 133.128 72.4564 132.44 72.6228 131.797ZM73.8044 132.612C73.8931 132.712 74.0263 132.873 74.2038 133.095C74.3924 133.305 74.5921 133.544 74.8029 133.81C75.0248 134.077 75.2411 134.348 75.4519 134.626C75.6627 134.892 75.8513 135.136 76.0177 135.358C76.1952 135.569 76.3228 135.724 76.4005 135.824L75.5684 136.839C75.4685 136.628 75.3132 136.351 75.1024 136.007C74.8916 135.663 74.6642 135.303 74.4201 134.925C74.176 134.548 73.943 134.199 73.7212 133.877C73.4993 133.555 73.3162 133.305 73.172 133.128L73.8044 132.612ZM70.2264 126.837L71.1417 126.604C71.297 126.982 71.4412 127.398 71.5744 127.853C71.7186 128.296 71.8351 128.729 71.9238 129.151C72.0237 129.572 72.0903 129.949 72.1235 130.282L71.125 130.532C71.1028 130.199 71.0474 129.822 70.9586 129.4C70.8699 128.968 70.7589 128.529 70.6258 128.086C70.5037 127.631 70.3706 127.215 70.2264 126.837ZM75.5018 126.538L76.6002 126.837C76.4671 127.248 76.3173 127.686 76.1509 128.152C75.9955 128.618 75.8347 129.062 75.6682 129.483C75.5129 129.905 75.3631 130.277 75.2189 130.598L74.3868 130.332C74.5089 129.999 74.642 129.611 74.7862 129.167C74.9305 128.723 75.0636 128.269 75.1856 127.803C75.3188 127.337 75.4242 126.915 75.5018 126.538ZM78.0314 130.582H83.0905V131.713H78.0314V130.582ZM78.0314 134.892H83.0905V136.04H78.0314V134.892ZM75.5518 139.319H85.1541V140.484H75.5518V139.319ZM77.3491 126.255H83.7395V139.984H82.4747V127.42H78.5473V139.984H77.3491V126.255ZM89.5475 125.589H90.7124V140.883H89.5475V125.589ZM87.0512 131.331H93.0756V132.479H87.0512V131.331ZM89.5309 131.797L90.3629 132.113C90.1632 132.856 89.9136 133.638 89.6141 134.459C89.3145 135.269 88.9817 136.04 88.6156 136.773C88.2494 137.505 87.8722 138.121 87.4839 138.62C87.4174 138.431 87.3175 138.22 87.1844 137.987C87.0512 137.754 86.9292 137.56 86.8182 137.405C87.1844 136.983 87.5394 136.456 87.8833 135.824C88.2273 135.192 88.5434 134.52 88.8319 133.81C89.1315 133.1 89.3644 132.429 89.5309 131.797ZM90.5959 132.695C90.7069 132.806 90.8733 132.995 91.0952 133.261C91.3282 133.527 91.5723 133.816 91.8274 134.126C92.0826 134.437 92.3156 134.726 92.5264 134.992C92.7483 135.258 92.9036 135.452 92.9924 135.574L92.2601 136.623C92.1603 136.423 92.0105 136.173 91.8108 135.874C91.6111 135.563 91.3947 135.247 91.1618 134.925C90.9288 134.592 90.7069 134.282 90.4961 133.993C90.2964 133.705 90.1355 133.477 90.0135 133.311L90.5959 132.695ZM87.1677 126.987L88.0664 126.754C88.2994 127.32 88.4991 127.936 88.6655 128.601C88.8319 129.267 88.9318 129.844 88.965 130.332L87.9998 130.582C87.9887 130.26 87.9443 129.894 87.8667 129.483C87.789 129.062 87.6892 128.635 87.5671 128.202C87.4451 127.769 87.312 127.364 87.1677 126.987ZM92.1935 126.638L93.2919 126.954C93.1588 127.364 93.009 127.797 92.8426 128.252C92.6873 128.696 92.5264 129.123 92.36 129.533C92.2046 129.944 92.0549 130.31 91.9106 130.632L91.0785 130.332C91.2117 130.01 91.3448 129.633 91.4779 129.201C91.6222 128.757 91.7553 128.313 91.8774 127.869C92.0105 127.414 92.1159 127.004 92.1935 126.638ZM94.5234 126.272H102.262V127.42H94.5234V126.272ZM94.5733 129.45H102.229V130.582H94.5733V129.45ZM97.4856 132.945H101.014V134.077H97.4856V132.945ZM93.9076 126.272H95.0559V131.98C95.0559 132.668 95.0282 133.4 94.9727 134.176C94.9283 134.942 94.8285 135.724 94.6732 136.523C94.5289 137.311 94.3071 138.076 94.0075 138.819C93.719 139.563 93.3307 140.24 92.8426 140.85C92.7871 140.772 92.6983 140.689 92.5763 140.6C92.4543 140.522 92.3267 140.445 92.1935 140.367C92.0715 140.29 91.9606 140.228 91.8607 140.184C92.3267 139.596 92.6928 138.964 92.9591 138.287C93.2364 137.599 93.4417 136.895 93.5748 136.173C93.7079 135.441 93.7967 134.72 93.8411 134.01C93.8855 133.289 93.9076 132.612 93.9076 131.98V126.272ZM100.614 132.945H101.746C101.746 132.945 101.746 132.978 101.746 133.045C101.746 133.1 101.746 133.172 101.746 133.261C101.746 133.35 101.746 133.416 101.746 133.461C101.713 134.637 101.674 135.635 101.629 136.456C101.585 137.266 101.535 137.937 101.48 138.47C101.435 138.991 101.374 139.396 101.297 139.685C101.23 139.984 101.147 140.201 101.047 140.334C100.903 140.5 100.753 140.617 100.598 140.683C100.453 140.761 100.265 140.805 100.032 140.816C99.8432 140.85 99.5825 140.861 99.2497 140.85C98.9168 140.85 98.5729 140.844 98.2179 140.833C98.2068 140.667 98.1735 140.478 98.118 140.267C98.0626 140.068 97.9904 139.896 97.9017 139.751C98.2678 139.785 98.5951 139.801 98.8835 139.801C99.172 139.812 99.3828 139.818 99.5159 139.818C99.6491 139.818 99.7545 139.807 99.8321 139.785C99.9098 139.763 99.9764 139.707 100.032 139.618C100.143 139.496 100.232 139.219 100.298 138.786C100.365 138.342 100.42 137.671 100.465 136.773C100.52 135.863 100.57 134.659 100.614 133.161V132.945ZM96.9198 129.899H98.0515V132.579C98.0515 133.189 98.0182 133.86 97.9516 134.592C97.8961 135.314 97.7796 136.046 97.6021 136.789C97.4246 137.533 97.1694 138.259 96.8366 138.969C96.5149 139.679 96.0877 140.334 95.5552 140.933C95.4886 140.855 95.3943 140.772 95.2723 140.683C95.1613 140.606 95.0448 140.528 94.9228 140.45C94.8008 140.384 94.6898 140.328 94.59 140.284C95.1114 139.718 95.5219 139.108 95.8215 138.453C96.1321 137.788 96.3651 137.111 96.5204 136.423C96.6868 135.735 96.7922 135.064 96.8366 134.409C96.8921 133.755 96.9198 133.139 96.9198 132.562V129.899ZM105.124 126.971H118.471V128.069H105.124V126.971ZM105.873 129.434H117.822V130.465H105.873V129.434ZM104.508 131.98H119.053V133.061H104.508V131.98ZM111.115 125.589H112.38V132.828H111.115V125.589ZM111.065 132.346L112.13 132.862C111.698 133.328 111.193 133.788 110.616 134.243C110.039 134.687 109.418 135.103 108.752 135.491C108.098 135.879 107.426 136.234 106.738 136.556C106.051 136.867 105.385 137.128 104.741 137.338C104.686 137.239 104.608 137.128 104.508 137.006C104.409 136.872 104.309 136.745 104.209 136.623C104.109 136.501 104.015 136.395 103.926 136.307C104.569 136.129 105.23 135.902 105.906 135.624C106.583 135.336 107.238 135.02 107.87 134.676C108.514 134.321 109.107 133.949 109.651 133.561C110.206 133.161 110.677 132.756 111.065 132.346ZM112.879 132.512C113.212 133.688 113.673 134.759 114.261 135.724C114.86 136.689 115.597 137.516 116.474 138.204C117.361 138.88 118.393 139.396 119.569 139.751C119.481 139.829 119.381 139.934 119.27 140.068C119.17 140.201 119.07 140.334 118.97 140.467C118.881 140.6 118.804 140.728 118.737 140.85C117.517 140.428 116.452 139.84 115.542 139.086C114.643 138.32 113.878 137.405 113.245 136.34C112.624 135.275 112.125 134.077 111.748 132.745L112.879 132.512ZM117.622 133.627L118.604 134.393C118.216 134.703 117.789 135.02 117.323 135.341C116.868 135.663 116.407 135.974 115.941 136.273C115.487 136.562 115.059 136.817 114.66 137.039L113.878 136.34C114.277 136.107 114.704 135.835 115.159 135.524C115.614 135.214 116.058 134.892 116.491 134.559C116.923 134.226 117.3 133.916 117.622 133.627ZM105.79 139.735C106.422 139.602 107.16 139.435 108.003 139.236C108.846 139.025 109.74 138.803 110.683 138.57C111.637 138.337 112.585 138.104 113.528 137.871L113.661 138.986C112.785 139.219 111.897 139.446 110.999 139.668C110.1 139.901 109.24 140.118 108.419 140.317C107.598 140.528 106.855 140.722 106.189 140.9L105.79 139.735ZM108.136 135.441L109.035 134.543L109.368 134.642V139.668H108.136V135.441ZM126.509 132.995H131.085V134.01H126.509V132.995ZM126.509 135.891H131.119V136.906H126.509V135.891ZM123.097 138.853H134.846V140.018H123.097V138.853ZM122.332 129.983H135.512V140.9H134.247V131.148H123.53V140.9H122.332V129.983ZM125.926 130.698H127.075V139.402H125.926V130.698ZM130.603 130.698H131.751V139.352H130.603V130.698ZM128.09 127.237L129.554 127.586C129.377 128.141 129.199 128.712 129.022 129.3C128.844 129.888 128.672 130.393 128.506 130.815L127.374 130.482C127.463 130.182 127.552 129.844 127.641 129.467C127.74 129.09 127.829 128.707 127.907 128.319C127.996 127.919 128.057 127.559 128.09 127.237ZM121.566 126.688H136.328V127.886H121.566V126.688ZM1.11302 158.429L14.2933 154.368L14.6262 155.467L1.4625 159.561L1.11302 158.429ZM13.9106 154.635H13.7608L14.0603 154.385L14.3266 154.185L15.2253 154.585L15.1587 154.818C15.1365 156.382 15.081 157.68 14.9923 158.712C14.9146 159.733 14.787 160.482 14.6095 160.959C14.4653 161.391 14.2767 161.696 14.0437 161.874C13.8107 162.051 13.55 162.168 13.2615 162.223C12.9953 162.268 12.6735 162.295 12.2963 162.307C11.9302 162.307 11.5974 162.301 11.2978 162.29C11.2867 162.19 11.2645 162.068 11.2312 161.924C11.1979 161.78 11.1591 161.635 11.1147 161.491C11.0704 161.347 11.0204 161.23 10.965 161.142C11.2645 161.164 11.5807 161.18 11.9135 161.192C12.2575 161.192 12.5016 161.192 12.6458 161.192C12.8344 161.192 13.0008 161.147 13.145 161.058C13.2893 160.959 13.4169 160.742 13.5278 160.409C13.672 159.988 13.7663 159.294 13.8107 158.329C13.8662 157.364 13.8995 156.132 13.9106 154.635ZM8.8681 151.623H10.0996V163.338H8.8681V151.623ZM4.17511 152.721H5.38996V163.937C5.38996 164.337 5.43989 164.648 5.53974 164.869C5.63959 165.08 5.8282 165.224 6.10556 165.302C6.39402 165.38 6.81561 165.419 7.37034 165.419C7.52566 165.419 7.79748 165.419 8.18578 165.419C8.57409 165.419 9.01233 165.419 9.50049 165.419C9.98865 165.419 10.4824 165.419 10.9816 165.419C11.4809 165.419 11.9302 165.419 12.3296 165.419C12.7401 165.419 13.0452 165.419 13.2449 165.419C13.7663 165.419 14.1602 165.341 14.4265 165.186C14.6927 165.019 14.8869 164.725 15.0089 164.304C15.131 163.871 15.2253 163.255 15.2918 162.456C15.4472 162.567 15.6358 162.673 15.8577 162.773C16.0906 162.861 16.2959 162.922 16.4734 162.956C16.3846 163.865 16.246 164.586 16.0574 165.119C15.8687 165.64 15.5581 166.012 15.1254 166.234C14.7038 166.456 14.0881 166.567 13.2782 166.567C13.1783 166.567 12.9786 166.567 12.6791 166.567C12.3795 166.567 12.0245 166.567 11.614 166.567C11.2035 166.567 10.7764 166.567 10.3326 166.567C9.88879 166.567 9.46166 166.567 9.05116 166.567C8.64066 166.567 8.29118 166.567 8.00273 166.567C7.71427 166.567 7.52011 166.567 7.42026 166.567C6.59927 166.567 5.95024 166.495 5.47317 166.351C4.99611 166.206 4.65772 165.94 4.45802 165.552C4.26942 165.163 4.17511 164.614 4.17511 163.904V152.721ZM21.2163 151.573L22.4977 151.889C22.298 152.344 22.0817 152.821 21.8487 153.32C21.6268 153.808 21.3938 154.274 21.1497 154.718C20.9168 155.162 20.6893 155.561 20.4674 155.916L19.3857 155.617C19.6076 155.25 19.8295 154.834 20.0514 154.368C20.2844 153.891 20.5007 153.409 20.7004 152.921C20.9112 152.421 21.0832 151.972 21.2163 151.573ZM18.4205 155.117C18.9974 155.095 19.6631 155.073 20.4175 155.051C21.1719 155.017 21.9763 154.984 22.8306 154.951C23.6848 154.907 24.5447 154.868 25.41 154.834L25.3934 155.933C24.5724 155.988 23.7459 156.038 22.9138 156.083C22.0928 156.127 21.3051 156.171 20.5506 156.216C19.8073 156.26 19.1305 156.299 18.5203 156.332L18.4205 155.117ZM19.419 157.514H24.6944V158.579H20.5839V166.883H19.419V157.514ZM24.1286 157.514H25.3601V165.452C25.3601 165.774 25.3213 166.023 25.2436 166.201C25.166 166.389 25.0106 166.539 24.7777 166.65C24.5447 166.739 24.2451 166.794 23.879 166.816C23.5129 166.839 23.0691 166.85 22.5477 166.85C22.5144 166.683 22.4589 166.489 22.3812 166.267C22.3036 166.045 22.2204 165.857 22.1316 165.701C22.5199 165.713 22.8749 165.718 23.1967 165.718C23.5184 165.729 23.7403 165.729 23.8624 165.718C23.9733 165.718 24.0454 165.696 24.0787 165.652C24.112 165.618 24.1286 165.546 24.1286 165.435V157.514ZM19.9848 160.01H24.7777V160.992H19.9848V160.01ZM19.9848 162.506H24.7777V163.488H19.9848V162.506ZM26.9244 151.623H28.1726V157.131C28.1726 157.397 28.2225 157.569 28.3224 157.647C28.4333 157.725 28.6829 157.763 29.0712 157.763C29.1489 157.763 29.3042 157.763 29.5372 157.763C29.7813 157.763 30.0476 157.763 30.336 157.763C30.6245 157.763 30.8963 157.763 31.1515 157.763C31.4066 157.763 31.5897 157.763 31.7006 157.763C31.9225 157.763 32.0889 157.719 32.1999 157.63C32.3108 157.53 32.3885 157.347 32.4329 157.081C32.4773 156.804 32.5105 156.388 32.5327 155.833C32.6326 155.899 32.7435 155.966 32.8656 156.033C32.9987 156.099 33.1374 156.16 33.2816 156.216C33.4258 156.26 33.5534 156.293 33.6644 156.316C33.62 156.992 33.5368 157.519 33.4147 157.896C33.2927 158.274 33.1041 158.534 32.8489 158.679C32.6048 158.823 32.2609 158.895 31.8171 158.895C31.7395 158.895 31.6008 158.895 31.4011 158.895C31.2125 158.895 30.9906 158.895 30.7354 158.895C30.4913 158.895 30.2417 158.895 29.9865 158.895C29.7425 158.895 29.5261 158.895 29.3375 158.895C29.1489 158.895 29.0213 158.895 28.9547 158.895C28.4222 158.895 28.0062 158.845 27.7066 158.745C27.4181 158.645 27.2129 158.468 27.0909 158.213C26.9799 157.958 26.9244 157.602 26.9244 157.148V151.623ZM32.0335 152.837L32.8656 153.769C32.3885 153.98 31.8615 154.196 31.2846 154.418C30.7077 154.629 30.1141 154.829 29.5039 155.017C28.8937 155.206 28.3002 155.384 27.7232 155.55C27.7011 155.428 27.6511 155.284 27.5735 155.117C27.5069 154.94 27.4348 154.79 27.3571 154.668C27.9008 154.502 28.461 154.313 29.0379 154.102C29.6149 153.891 30.164 153.681 30.6855 153.47C31.2069 153.248 31.6563 153.037 32.0335 152.837ZM26.9244 159.361H28.1559V164.986C28.1559 165.252 28.2114 165.43 28.3224 165.518C28.4444 165.596 28.7051 165.635 29.1045 165.635C29.1933 165.635 29.3597 165.635 29.6038 165.635C29.8478 165.635 30.1197 165.635 30.4192 165.635C30.7299 165.635 31.0128 165.635 31.2679 165.635C31.5342 165.635 31.7284 165.635 31.8504 165.635C32.0834 165.635 32.2609 165.585 32.3829 165.485C32.505 165.385 32.5882 165.18 32.6326 164.869C32.677 164.548 32.7102 164.071 32.7324 163.438C32.8877 163.538 33.0708 163.632 33.2816 163.721C33.5035 163.81 33.6977 163.876 33.8641 163.921C33.8197 164.664 33.7365 165.241 33.6144 165.652C33.4924 166.062 33.2982 166.345 33.032 166.5C32.7768 166.667 32.4162 166.75 31.9503 166.75C31.8726 166.75 31.7339 166.75 31.5342 166.75C31.3345 166.75 31.1071 166.75 30.8519 166.75C30.5967 166.75 30.336 166.75 30.0697 166.75C29.8035 166.75 29.5705 166.75 29.3708 166.75C29.1822 166.75 29.0546 166.75 28.988 166.75C28.4555 166.75 28.0339 166.7 27.7232 166.6C27.4237 166.5 27.2129 166.323 27.0909 166.068C26.9799 165.812 26.9244 165.452 26.9244 164.986V159.361ZM32.2332 160.26L33.0486 161.192C32.5937 161.458 32.0668 161.713 31.4677 161.957C30.8685 162.19 30.2473 162.412 29.6038 162.623C28.9603 162.822 28.339 163.006 27.7399 163.172C27.7066 163.05 27.6511 162.9 27.5735 162.723C27.4958 162.545 27.4237 162.395 27.3571 162.273C27.934 162.107 28.5221 161.913 29.1212 161.691C29.7314 161.469 30.3083 161.236 30.8519 160.992C31.3955 160.748 31.856 160.504 32.2332 160.26ZM23.2965 153.154L24.3283 152.754C24.6279 153.131 24.9163 153.547 25.1937 154.002C25.4822 154.446 25.7429 154.884 25.9759 155.317C26.2088 155.75 26.3864 156.138 26.5084 156.482L25.4267 156.965C25.3157 156.621 25.1438 156.227 24.9108 155.783C24.6889 155.339 24.4337 154.89 24.1453 154.435C23.8679 153.98 23.585 153.553 23.2965 153.154ZM35.9443 154.169H50.5225V155.367H35.9443V154.169ZM41.1032 159.444H49.8735V160.609H41.1032V159.444ZM40.4376 165.335H50.5059V166.5H40.4376V165.335ZM44.8477 156.232H46.0958V165.968H44.8477V156.232ZM41.4028 151.589L42.7009 151.905C42.3126 153.17 41.8188 154.424 41.2197 155.666C40.6317 156.909 39.9217 158.074 39.0896 159.161C38.2575 160.237 37.2867 161.169 36.1773 161.957C36.1329 161.846 36.0719 161.724 35.9942 161.591C35.9166 161.447 35.8333 161.308 35.7446 161.175C35.6669 161.031 35.5948 160.909 35.5282 160.809C36.2827 160.287 36.965 159.677 37.5752 158.978C38.1965 158.268 38.7512 157.508 39.2394 156.698C39.7275 155.877 40.1491 155.034 40.5041 154.169C40.8703 153.303 41.1698 152.444 41.4028 151.589ZM38.1077 158.446H39.3559V166.833H38.1077V158.446ZM54.0672 152.654L54.8826 151.889C55.1822 152.133 55.4928 152.405 55.8146 152.704C56.1474 153.004 56.4581 153.303 56.7465 153.603C57.035 153.891 57.2624 154.152 57.4288 154.385L56.5801 155.267C56.4137 155.023 56.1863 154.751 55.8978 154.452C55.6204 154.152 55.3209 153.847 54.9991 153.536C54.6774 153.215 54.3668 152.921 54.0672 152.654ZM54.9492 166.567L54.7162 165.435L55.0324 164.936L58.1611 162.656C58.2055 162.822 58.272 163.011 58.3608 163.222C58.4606 163.422 58.5438 163.582 58.6104 163.704C57.8782 164.248 57.2791 164.692 56.8131 165.036C56.3582 165.369 56.0087 165.629 55.7647 165.818C55.5206 166.018 55.3375 166.167 55.2155 166.267C55.1045 166.378 55.0158 166.478 54.9492 166.567ZM52.7525 156.815H55.7147V158.013H52.7525V156.815ZM60.5575 152.188H64.901V153.353H60.5575V152.188ZM58.4274 158.945H66.1991V160.11H58.4274V158.945ZM65.7997 158.945H66.0326L66.2656 158.895L67.0312 159.228C66.6872 160.315 66.2213 161.28 65.6332 162.124C65.0563 162.967 64.3796 163.699 63.6029 164.32C62.8374 164.942 62.0053 165.463 61.1067 165.885C60.2191 166.306 59.2872 166.645 58.3109 166.9C58.2665 166.744 58.1833 166.556 58.0612 166.334C57.9392 166.123 57.8227 165.951 57.7118 165.818C58.6104 165.607 59.4813 165.313 60.3245 164.936C61.1677 164.559 61.9499 164.098 62.671 163.555C63.3922 163 64.019 162.356 64.5515 161.624C65.0952 160.892 65.5112 160.065 65.7997 159.145V158.945ZM60.1082 159.827C60.552 160.837 61.1511 161.746 61.9055 162.556C62.6599 163.366 63.5586 164.048 64.6015 164.603C65.6443 165.158 66.7982 165.568 68.0629 165.835C67.9742 165.923 67.8799 166.034 67.78 166.167C67.6802 166.301 67.5859 166.434 67.4971 166.567C67.4084 166.7 67.3418 166.828 67.2974 166.95C65.3337 166.473 63.6584 165.657 62.2716 164.503C60.8848 163.349 59.8142 161.913 59.0597 160.193L60.1082 159.827ZM60.208 152.188H61.3896V154.069C61.3896 154.579 61.3119 155.112 61.1566 155.666C61.0013 156.221 60.7128 156.748 60.2912 157.247C59.8696 157.747 59.2594 158.19 58.4606 158.579C58.4052 158.49 58.3275 158.39 58.2276 158.279C58.1278 158.157 58.0224 158.041 57.9115 157.93C57.8116 157.808 57.7228 157.713 57.6452 157.647C58.3774 157.314 58.9266 156.948 59.2927 156.549C59.6588 156.138 59.9029 155.722 60.025 155.3C60.147 154.868 60.208 154.446 60.208 154.036V152.188ZM64.3352 152.188H65.5168V156.049C65.5168 156.293 65.5334 156.46 65.5667 156.549C65.6 156.637 65.6832 156.682 65.8163 156.682C65.8829 156.682 65.9938 156.682 66.1491 156.682C66.3045 156.682 66.4598 156.682 66.6151 156.682C66.7815 156.682 66.898 156.682 66.9646 156.682C67.0866 156.682 67.2198 156.676 67.364 156.665C67.5193 156.643 67.6469 156.621 67.7468 156.598C67.7578 156.754 67.7745 156.937 67.7967 157.148C67.8189 157.358 67.8411 157.536 67.8632 157.68C67.7634 157.713 67.6303 157.736 67.4638 157.747C67.3085 157.758 67.1476 157.763 66.9812 157.763C66.9036 157.763 66.776 157.763 66.5985 157.763C66.421 157.763 66.249 157.763 66.0826 157.763C65.9162 157.763 65.7997 157.763 65.7331 157.763C65.3448 157.763 65.0508 157.708 64.8511 157.597C64.6514 157.486 64.5127 157.303 64.435 157.048C64.3685 156.793 64.3352 156.454 64.3352 156.033V152.188ZM54.9492 166.567C54.9159 166.467 54.8605 166.351 54.7828 166.217C54.7051 166.084 54.6164 165.951 54.5165 165.818C54.4278 165.685 54.3446 165.579 54.2669 165.502C54.3778 165.435 54.4943 165.33 54.6164 165.186C54.7495 165.041 54.8605 164.869 54.9492 164.67C55.0491 164.47 55.099 164.243 55.099 163.987V156.815H56.3138V165.069C56.3138 165.069 56.2417 165.125 56.0975 165.236C55.9644 165.335 55.809 165.463 55.6315 165.618C55.454 165.785 55.2931 165.951 55.1489 166.118C55.0158 166.295 54.9492 166.445 54.9492 166.567ZM71.4579 152.671L72.2733 151.872C72.584 152.116 72.9057 152.388 73.2385 152.688C73.5825 152.987 73.9042 153.287 74.2038 153.586C74.5144 153.875 74.7585 154.135 74.936 154.368L74.0873 155.3C73.9098 155.056 73.6712 154.784 73.3717 154.485C73.0832 154.174 72.7726 153.858 72.4397 153.536C72.1069 153.215 71.7796 152.926 71.4579 152.671ZM72.4397 166.584L72.1901 165.352L72.5562 164.819L75.9012 162.54C75.9234 162.65 75.9567 162.778 76.0011 162.922C76.0566 163.055 76.112 163.189 76.1675 163.322C76.223 163.455 76.2729 163.56 76.3173 163.638C75.5185 164.193 74.8805 164.648 74.4035 165.003C73.9264 165.346 73.5547 165.618 73.2885 165.818C73.0333 166.018 72.8447 166.173 72.7226 166.284C72.6006 166.395 72.5063 166.495 72.4397 166.584ZM69.9435 156.815H73.355V158.046H69.9435V156.815ZM75.3687 157.114H85.1374V158.396H75.3687V157.114ZM79.5957 151.639H80.9104V166.9H79.5957V151.639ZM72.4397 166.584C72.3954 166.473 72.3343 166.339 72.2567 166.184C72.179 166.04 72.0958 165.896 72.0071 165.751C71.9294 165.618 71.8462 165.513 71.7574 165.435C71.9238 165.324 72.1014 165.152 72.29 164.919C72.4897 164.675 72.5895 164.376 72.5895 164.021V156.815H73.8543V165.152C73.8543 165.152 73.8044 165.186 73.7045 165.252C73.6047 165.319 73.4826 165.407 73.3384 165.518C73.2053 165.618 73.0666 165.735 72.9224 165.868C72.7892 166.001 72.6727 166.123 72.5729 166.234C72.4841 166.356 72.4397 166.473 72.4397 166.584ZM90.13 156.515V158.645H99.3495V156.515H90.13ZM90.13 153.387V155.467H99.3495V153.387H90.13ZM88.8818 152.255H100.648V159.76H88.8818V152.255ZM87.2176 165.252H102.095V166.417H87.2176V165.252ZM88.3493 161.691H101.197V162.856H88.3493V161.691ZM94.1074 152.954H95.3056V159.577H95.3721V165.918H94.0241V159.577H94.1074V152.954ZM107.421 166.8C107.399 166.689 107.354 166.567 107.288 166.434C107.232 166.301 107.171 166.162 107.105 166.018C107.049 165.885 106.983 165.774 106.905 165.685C107.049 165.629 107.199 165.524 107.354 165.369C107.51 165.213 107.587 164.975 107.587 164.653V151.672H108.885V165.685C108.885 165.685 108.835 165.707 108.735 165.751C108.636 165.807 108.514 165.873 108.369 165.951C108.225 166.029 108.081 166.112 107.937 166.201C107.792 166.301 107.67 166.4 107.571 166.5C107.471 166.611 107.421 166.711 107.421 166.8ZM107.421 166.8L107.338 165.668L107.987 165.152L112.896 163.954C112.896 164.132 112.907 164.337 112.929 164.57C112.962 164.792 112.99 164.975 113.012 165.119C111.87 165.43 110.949 165.679 110.25 165.868C109.562 166.057 109.029 166.206 108.652 166.317C108.286 166.439 108.014 166.534 107.837 166.6C107.659 166.667 107.521 166.733 107.421 166.8ZM104.392 158.096H119.17V159.344H104.392V158.096ZM112.53 158.679C112.918 159.744 113.44 160.709 114.094 161.574C114.749 162.44 115.536 163.183 116.457 163.804C117.378 164.426 118.41 164.903 119.553 165.236C119.453 165.324 119.347 165.435 119.236 165.568C119.126 165.713 119.02 165.857 118.92 166.001C118.82 166.145 118.737 166.284 118.671 166.417C117.484 166.018 116.418 165.469 115.475 164.77C114.543 164.071 113.734 163.233 113.046 162.257C112.369 161.28 111.809 160.188 111.365 158.978L112.53 158.679ZM116.258 151.955L117.506 152.488C116.962 153.131 116.33 153.747 115.609 154.335C114.898 154.912 114.155 155.45 113.379 155.949C112.602 156.438 111.836 156.87 111.082 157.247C111.004 157.148 110.904 157.037 110.782 156.915C110.66 156.793 110.533 156.671 110.4 156.549C110.267 156.415 110.144 156.31 110.034 156.232C110.821 155.911 111.598 155.528 112.363 155.084C113.14 154.64 113.861 154.152 114.527 153.62C115.204 153.076 115.781 152.521 116.258 151.955ZM123.097 164.62H134.846V165.851H123.097V164.62ZM128.19 151.672H129.488V165.335H128.19V151.672ZM122.482 159.993H123.73V166.9H122.482V159.993ZM134.181 159.993H135.462V166.866H134.181V159.993ZM123.114 153.17H124.362V157.713H133.498V153.17H134.797V158.912H123.114V153.17ZM138.691 161.241H153.469V162.34H138.691V161.241ZM140.438 152.255H150.456V153.27H140.438V152.255ZM139.007 155.6H152.337V156.632H139.007V155.6ZM145.431 160.16H146.695V166.9H145.431V160.16ZM144.848 161.674L145.88 162.14C145.381 162.784 144.765 163.394 144.033 163.971C143.3 164.548 142.518 165.069 141.686 165.535C140.865 165.99 140.044 166.356 139.223 166.633C139.168 166.534 139.085 166.417 138.974 166.284C138.874 166.162 138.774 166.034 138.674 165.901C138.574 165.779 138.474 165.679 138.375 165.602C139.184 165.358 140 165.036 140.821 164.636C141.642 164.237 142.407 163.782 143.117 163.272C143.827 162.761 144.404 162.229 144.848 161.674ZM147.261 161.707C147.716 162.262 148.293 162.789 148.992 163.288C149.702 163.777 150.473 164.215 151.305 164.603C152.148 164.98 152.986 165.274 153.818 165.485C153.729 165.574 153.629 165.679 153.519 165.801C153.408 165.934 153.302 166.062 153.202 166.184C153.114 166.317 153.036 166.439 152.969 166.55C152.126 166.284 151.283 165.934 150.44 165.502C149.597 165.058 148.809 164.553 148.077 163.987C147.344 163.422 146.729 162.822 146.229 162.19L147.261 161.707ZM145.813 156.132H147.062V158.995C147.062 159.317 147.017 159.555 146.928 159.71C146.84 159.866 146.668 159.988 146.412 160.077C146.157 160.154 145.824 160.204 145.414 160.226C145.003 160.237 144.504 160.243 143.916 160.243C143.883 160.077 143.827 159.905 143.75 159.727C143.672 159.538 143.594 159.367 143.517 159.211C143.827 159.222 144.116 159.233 144.382 159.244C144.648 159.244 144.881 159.244 145.081 159.244C145.281 159.233 145.42 159.228 145.497 159.228C145.619 159.217 145.702 159.195 145.747 159.161C145.791 159.117 145.813 159.056 145.813 158.978V156.132ZM151.871 155.6H152.121L152.37 155.55L153.319 155.883C152.886 156.471 152.426 157.053 151.938 157.63C151.461 158.207 150.995 158.695 150.54 159.095L149.425 158.662C149.702 158.418 149.985 158.141 150.273 157.83C150.562 157.519 150.845 157.192 151.122 156.848C151.411 156.493 151.66 156.149 151.871 155.816V155.6ZM144.948 155.816L145.963 156.282C145.597 156.715 145.164 157.131 144.665 157.53C144.166 157.919 143.628 158.29 143.051 158.645C142.474 159 141.886 159.322 141.287 159.611C140.699 159.888 140.116 160.121 139.539 160.31C139.44 160.165 139.312 159.999 139.157 159.81C139.012 159.611 138.874 159.45 138.741 159.328C139.495 159.117 140.266 158.834 141.054 158.479C141.842 158.113 142.574 157.702 143.251 157.247C143.938 156.793 144.504 156.316 144.948 155.816ZM142.735 154.585L143.434 153.836C144.044 153.947 144.682 154.097 145.347 154.285C146.024 154.463 146.668 154.662 147.278 154.884C147.899 155.095 148.426 155.3 148.859 155.5L148.143 156.316C147.744 156.105 147.233 155.888 146.612 155.666C146.002 155.434 145.359 155.223 144.682 155.034C144.016 154.834 143.367 154.685 142.735 154.585ZM149.99 152.255H150.307L150.573 152.172L151.405 152.837C150.972 153.17 150.484 153.498 149.941 153.819C149.408 154.141 148.848 154.435 148.26 154.701C147.672 154.956 147.084 155.184 146.496 155.384C146.418 155.262 146.307 155.128 146.163 154.984C146.03 154.829 145.919 154.707 145.83 154.618C146.329 154.452 146.845 154.252 147.378 154.019C147.91 153.786 148.404 153.536 148.859 153.27C149.325 152.993 149.702 152.732 149.99 152.488V152.255ZM164.569 154.135H169.911V155.284H164.569V154.135ZM164.718 151.573L165.933 151.756C165.789 152.688 165.606 153.592 165.384 154.468C165.173 155.345 164.918 156.16 164.619 156.915C164.33 157.658 163.986 158.313 163.587 158.878C163.52 158.812 163.42 158.734 163.287 158.645C163.165 158.557 163.032 158.473 162.888 158.396C162.755 158.307 162.644 158.235 162.555 158.179C162.943 157.658 163.276 157.048 163.554 156.349C163.831 155.65 164.064 154.895 164.252 154.086C164.441 153.276 164.596 152.438 164.718 151.573ZM169.628 154.152H169.794L170.011 154.102L170.843 154.335C170.732 154.845 170.615 155.378 170.493 155.933C170.371 156.476 170.244 156.998 170.11 157.497C169.977 157.996 169.844 158.435 169.711 158.812L168.712 158.512C168.812 158.168 168.918 157.763 169.029 157.297C169.14 156.82 169.245 156.327 169.345 155.816C169.456 155.306 169.55 154.823 169.628 154.368V154.152ZM165.933 156.865H167.148V157.647C167.148 158.301 167.104 159.017 167.015 159.794C166.937 160.559 166.765 161.352 166.499 162.173C166.244 162.994 165.839 163.81 165.284 164.62C164.741 165.43 164.003 166.195 163.071 166.916C163.004 166.816 162.916 166.717 162.805 166.617C162.694 166.517 162.577 166.417 162.455 166.317C162.344 166.217 162.233 166.134 162.122 166.068C163.021 165.402 163.726 164.703 164.236 163.971C164.746 163.227 165.123 162.484 165.367 161.741C165.612 160.986 165.767 160.26 165.833 159.561C165.9 158.862 165.933 158.218 165.933 157.63V156.865ZM167.065 159.028C167.254 160.038 167.514 160.997 167.847 161.907C168.191 162.806 168.618 163.599 169.129 164.287C169.639 164.964 170.249 165.491 170.959 165.868C170.87 165.946 170.771 166.045 170.66 166.167C170.549 166.29 170.443 166.412 170.343 166.534C170.255 166.667 170.177 166.783 170.11 166.883C169.367 166.439 168.729 165.835 168.197 165.069C167.664 164.304 167.22 163.427 166.865 162.44C166.521 161.441 166.244 160.365 166.033 159.211L167.065 159.028ZM155.715 153.553H162.838V154.751H155.715V153.553ZM159.51 156.199H160.641V166.833H159.51V156.199ZM155.532 162.756C156.142 162.678 156.841 162.589 157.629 162.49C158.428 162.379 159.277 162.257 160.175 162.124C161.074 161.99 161.967 161.857 162.855 161.724L162.905 162.889C161.651 163.089 160.397 163.294 159.143 163.505C157.89 163.716 156.78 163.893 155.815 164.037L155.532 162.756ZM156.447 160.043C156.425 159.966 156.392 159.86 156.348 159.727C156.303 159.583 156.253 159.444 156.198 159.311C156.153 159.167 156.104 159.045 156.048 158.945C156.203 158.901 156.353 158.762 156.497 158.529C156.642 158.285 156.791 157.974 156.947 157.597C157.036 157.419 157.163 157.131 157.33 156.732C157.496 156.321 157.673 155.838 157.862 155.284C158.051 154.729 158.239 154.135 158.428 153.503C158.616 152.871 158.777 152.244 158.91 151.623L160.142 151.889C159.909 152.776 159.637 153.669 159.327 154.568C159.027 155.456 158.705 156.31 158.361 157.131C158.028 157.941 157.69 158.679 157.346 159.344V159.361C157.346 159.361 157.302 159.383 157.213 159.428C157.124 159.472 157.019 159.533 156.897 159.611C156.775 159.688 156.669 159.766 156.581 159.844C156.492 159.921 156.447 159.988 156.447 160.043ZM156.447 160.043V159.011L157.13 158.679H162.738V159.81H157.746C157.424 159.81 157.141 159.832 156.897 159.877C156.664 159.921 156.514 159.977 156.447 160.043ZM174.204 154.269H179.263V165.152H174.204V164.021H178.115V155.384H174.204V154.269ZM173.472 154.269H174.62V166.467H173.472V154.269ZM174.121 158.895H178.714V159.993H174.121V158.895ZM176.018 151.556L177.366 151.789C177.2 152.31 177.017 152.837 176.817 153.37C176.628 153.902 176.451 154.357 176.285 154.735L175.269 154.485C175.369 154.208 175.464 153.897 175.552 153.553C175.652 153.209 175.741 152.86 175.819 152.505C175.907 152.15 175.974 151.833 176.018 151.556ZM181.643 154.219H186.752V155.367H181.643V154.219ZM186.303 154.219H187.484C187.484 154.219 187.484 154.257 187.484 154.335C187.484 154.413 187.484 154.507 187.484 154.618C187.484 154.718 187.479 154.796 187.468 154.851C187.401 156.759 187.335 158.374 187.268 159.694C187.213 161.014 187.141 162.096 187.052 162.939C186.963 163.771 186.858 164.42 186.736 164.886C186.625 165.352 186.486 165.685 186.32 165.885C186.131 166.129 185.931 166.295 185.72 166.384C185.521 166.484 185.271 166.55 184.972 166.584C184.694 166.606 184.328 166.611 183.873 166.6C183.429 166.6 182.969 166.584 182.492 166.55C182.481 166.373 182.436 166.167 182.359 165.934C182.292 165.701 182.198 165.507 182.076 165.352C182.631 165.396 183.13 165.424 183.574 165.435C184.028 165.446 184.356 165.452 184.555 165.452C184.722 165.452 184.855 165.435 184.955 165.402C185.066 165.358 185.171 165.28 185.271 165.169C185.404 165.025 185.521 164.731 185.621 164.287C185.732 163.832 185.826 163.189 185.903 162.356C185.981 161.524 186.053 160.465 186.12 159.178C186.186 157.88 186.247 156.316 186.303 154.485V154.219ZM181.976 151.523L183.174 151.789C182.975 152.621 182.73 153.436 182.442 154.235C182.165 155.023 181.854 155.766 181.51 156.465C181.177 157.164 180.822 157.78 180.445 158.313C180.367 158.246 180.262 158.168 180.129 158.08C180.007 157.98 179.879 157.891 179.746 157.813C179.613 157.725 179.496 157.652 179.397 157.597C179.785 157.098 180.14 156.526 180.462 155.883C180.783 155.228 181.072 154.529 181.327 153.786C181.582 153.043 181.798 152.288 181.976 151.523ZM181.21 158.529L182.192 157.98C182.503 158.368 182.825 158.795 183.158 159.261C183.502 159.727 183.818 160.176 184.106 160.609C184.406 161.042 184.644 161.425 184.822 161.757L183.757 162.423C183.59 162.079 183.363 161.685 183.074 161.241C182.797 160.787 182.492 160.326 182.159 159.86C181.837 159.383 181.521 158.939 181.21 158.529ZM191.379 152.388H192.643V157.264C192.643 157.952 192.621 158.712 192.577 159.544C192.532 160.376 192.444 161.225 192.311 162.09C192.189 162.956 192.005 163.799 191.761 164.62C191.517 165.43 191.196 166.179 190.796 166.866C190.707 166.8 190.596 166.722 190.463 166.633C190.33 166.556 190.191 166.478 190.047 166.4C189.914 166.323 189.792 166.267 189.681 166.234C190.069 165.591 190.375 164.886 190.596 164.121C190.829 163.344 191.001 162.556 191.112 161.757C191.223 160.959 191.295 160.176 191.329 159.411C191.362 158.645 191.379 157.93 191.379 157.264V152.388ZM192.244 152.388H203.91V156.549H192.244V155.467H202.662V153.47H192.244V152.388ZM194.224 157.98H203.694V159.095H194.224V157.98ZM193.143 160.842H204.858V161.94H193.143V160.842ZM200.582 162.872L201.663 162.423C201.974 162.845 202.296 163.305 202.628 163.804C202.972 164.304 203.294 164.792 203.594 165.269C203.893 165.746 204.137 166.151 204.326 166.484L203.178 167.049C203 166.694 202.767 166.278 202.479 165.801C202.19 165.324 201.88 164.831 201.547 164.32C201.214 163.799 200.892 163.316 200.582 162.872ZM193.958 166.633C193.936 166.545 193.897 166.428 193.842 166.284C193.786 166.151 193.731 166.007 193.675 165.851C193.62 165.696 193.564 165.568 193.509 165.469C193.653 165.435 193.803 165.352 193.958 165.219C194.125 165.086 194.302 164.914 194.491 164.703C194.579 164.603 194.713 164.437 194.89 164.204C195.079 163.971 195.289 163.699 195.522 163.388C195.755 163.067 195.983 162.717 196.205 162.34C196.438 161.963 196.654 161.585 196.854 161.208L198.252 161.591C197.919 162.135 197.558 162.673 197.17 163.205C196.782 163.738 196.382 164.243 195.972 164.72C195.572 165.186 195.178 165.602 194.79 165.968V166.001C194.79 166.001 194.746 166.023 194.657 166.068C194.568 166.112 194.468 166.162 194.357 166.217C194.258 166.284 194.163 166.351 194.075 166.417C193.997 166.495 193.958 166.567 193.958 166.633ZM193.958 166.633L193.925 165.718L194.724 165.319L202.728 164.836C202.762 165.003 202.8 165.186 202.845 165.385C202.9 165.574 202.945 165.729 202.978 165.851C201.447 165.951 200.165 166.034 199.134 166.101C198.102 166.179 197.27 166.24 196.637 166.284C196.005 166.339 195.511 166.384 195.156 166.417C194.812 166.461 194.552 166.495 194.374 166.517C194.208 166.55 194.069 166.589 193.958 166.633ZM213.729 151.623L215.027 151.856C214.794 152.821 214.522 153.758 214.211 154.668C213.901 155.567 213.551 156.404 213.163 157.181C212.774 157.946 212.358 158.629 211.915 159.228C211.826 159.15 211.709 159.067 211.565 158.978C211.421 158.889 211.271 158.806 211.116 158.729C210.96 158.64 210.827 158.573 210.716 158.529C211.182 157.974 211.604 157.336 211.981 156.615C212.369 155.883 212.708 155.09 212.996 154.235C213.296 153.381 213.54 152.51 213.729 151.623ZM216.474 155.716H217.107V157.946C217.107 158.235 217.146 158.629 217.223 159.128C217.312 159.627 217.462 160.176 217.673 160.776C217.895 161.375 218.205 161.985 218.605 162.606C219.004 163.227 219.514 163.815 220.136 164.37C220.768 164.914 221.539 165.385 222.449 165.785C222.36 165.873 222.266 165.984 222.166 166.118C222.066 166.262 221.966 166.4 221.866 166.534C221.778 166.678 221.7 166.8 221.633 166.9C220.923 166.578 220.297 166.195 219.753 165.751C219.22 165.308 218.754 164.836 218.355 164.337C217.967 163.827 217.639 163.322 217.373 162.822C217.107 162.323 216.896 161.857 216.741 161.425C216.596 160.981 216.502 160.604 216.458 160.293C216.402 160.604 216.291 160.975 216.125 161.408C215.959 161.841 215.731 162.307 215.443 162.806C215.154 163.294 214.783 163.788 214.328 164.287C213.884 164.786 213.357 165.258 212.747 165.701C212.136 166.156 211.432 166.556 210.633 166.9C210.578 166.8 210.506 166.683 210.417 166.55C210.328 166.428 210.234 166.301 210.134 166.167C210.034 166.045 209.945 165.946 209.868 165.868C210.888 165.469 211.743 164.991 212.43 164.437C213.129 163.882 213.701 163.294 214.145 162.673C214.588 162.051 214.927 161.441 215.16 160.842C215.404 160.232 215.57 159.677 215.659 159.178C215.759 158.668 215.809 158.257 215.809 157.946V155.716H216.474ZM206.939 163.471C207.26 163.161 207.632 162.8 208.054 162.39C208.486 161.968 208.936 161.513 209.402 161.025C209.879 160.537 210.35 160.049 210.816 159.561L211.515 160.626C210.905 161.303 210.267 161.985 209.601 162.673C208.936 163.349 208.32 163.96 207.754 164.503L206.939 163.471ZM207.471 153.603L208.353 152.704C208.708 152.926 209.08 153.187 209.468 153.486C209.868 153.775 210.239 154.063 210.583 154.352C210.927 154.64 211.205 154.907 211.415 155.151L210.483 156.182C210.273 155.938 210.001 155.661 209.668 155.35C209.335 155.04 208.975 154.735 208.586 154.435C208.198 154.124 207.826 153.847 207.471 153.603ZM213.745 154.585H221.234V155.816H213.179L213.745 154.585ZM220.818 154.585H221.001L221.251 154.518L222.166 155.017C222.011 155.55 221.828 156.088 221.617 156.632C221.417 157.175 221.201 157.691 220.968 158.179C220.746 158.656 220.529 159.084 220.319 159.461C220.23 159.416 220.119 159.361 219.986 159.294C219.864 159.228 219.736 159.161 219.603 159.095C219.481 159.028 219.37 158.978 219.27 158.945C219.459 158.601 219.653 158.202 219.853 157.747C220.052 157.281 220.241 156.798 220.419 156.299C220.596 155.789 220.729 155.317 220.818 154.884V154.585Z" fill="#553B3B"/>
</svg>
