<svg width="286" height="153" viewBox="0 0 286 153" fill="none" xmlns="http://www.w3.org/2000/svg">
<g filter="url(#filter0_d_1763_421)">
<path d="M9.62194 105.021H10.9866V111.578H9.62194V105.021ZM4.01366 106.202L5.1453 105.753C5.45595 106.141 5.7555 106.563 6.04396 107.018C6.33241 107.462 6.59313 107.905 6.82612 108.349C7.0591 108.782 7.23662 109.176 7.35866 109.531L6.16045 110.08C6.03841 109.714 5.86644 109.309 5.64455 108.865C5.42266 108.41 5.16749 107.95 4.87903 107.484C4.60167 107.018 4.31321 106.591 4.01366 106.202ZM15.3301 105.603L16.6781 106.053C16.434 106.53 16.1733 107.018 15.8959 107.517C15.6296 108.005 15.3578 108.482 15.0804 108.948C14.8031 109.414 14.5368 109.825 14.2816 110.18L13.1999 109.764C13.444 109.387 13.6992 108.959 13.9654 108.482C14.2317 107.994 14.4869 107.501 14.731 107.001C14.9751 106.491 15.1748 106.025 15.3301 105.603ZM4.24664 110.912H16.4617V120.348H15.147V112.16H4.24664V110.912ZM4.79582 114.573H15.6463V115.771H4.79582V114.573ZM3.91381 118.368H15.8127V119.616H3.91381V118.368ZM24.9823 106.169H33.919V120.165H32.6043V107.351H26.2471V120.298H24.9823V106.169ZM25.7645 117.885H32.8705V119.067H25.7645V117.885ZM25.7978 111.861H32.8539V113.042H25.7978V111.861ZM21.0549 105.687H22.3696V120.331H21.0549V105.687ZM38.4622 107.7H43.5213V118.584H38.4622V117.452H42.373V108.815H38.4622V107.7ZM37.7299 107.7H38.8782V119.899H37.7299V107.7ZM38.379 112.327H42.9721V113.425H38.379V112.327ZM40.2761 104.988L41.6241 105.221C41.4577 105.742 41.2746 106.269 41.0749 106.802C40.8863 107.334 40.7088 107.789 40.5424 108.166L39.5272 107.917C39.6271 107.639 39.7214 107.329 39.8101 106.985C39.91 106.641 39.9988 106.291 40.0764 105.936C40.1652 105.581 40.2317 105.265 40.2761 104.988ZM45.901 107.65H51.0101V108.799H45.901V107.65ZM50.5607 107.65H51.7423C51.7423 107.65 51.7423 107.689 51.7423 107.767C51.7423 107.844 51.7423 107.939 51.7423 108.05C51.7423 108.15 51.7368 108.227 51.7257 108.283C51.6591 110.191 51.5925 111.805 51.526 113.125C51.4705 114.446 51.3984 115.527 51.3096 116.371C51.2209 117.203 51.1155 117.852 50.9934 118.318C50.8825 118.784 50.7438 119.116 50.5774 119.316C50.3888 119.56 50.1891 119.727 49.9783 119.815C49.7786 119.915 49.529 119.982 49.2294 120.015C48.952 120.037 48.5859 120.043 48.131 120.032C47.6873 120.032 47.2268 120.015 46.7498 119.982C46.7387 119.804 46.6943 119.599 46.6166 119.366C46.5501 119.133 46.4558 118.939 46.3337 118.784C46.8885 118.828 47.3877 118.856 47.8315 118.867C48.2864 118.878 48.6137 118.884 48.8134 118.884C48.9798 118.884 49.1129 118.867 49.2128 118.834C49.3237 118.789 49.4291 118.712 49.529 118.601C49.6621 118.456 49.7786 118.162 49.8784 117.719C49.9894 117.264 50.0837 116.62 50.1613 115.788C50.239 114.956 50.3111 113.897 50.3777 112.61C50.4443 111.311 50.5053 109.747 50.5607 107.917V107.65ZM46.2339 104.954L47.4321 105.221C47.2324 106.053 46.9883 106.868 46.6999 107.667C46.4225 108.455 46.1118 109.198 45.7679 109.897C45.4351 110.596 45.08 111.212 44.7028 111.744C44.6252 111.678 44.5198 111.6 44.3866 111.511C44.2646 111.411 44.137 111.323 44.0039 111.245C43.8707 111.156 43.7543 111.084 43.6544 111.029C44.0427 110.529 44.3977 109.958 44.7195 109.314C45.0412 108.66 45.3297 107.961 45.5849 107.218C45.84 106.474 46.0564 105.72 46.2339 104.954ZM45.4684 111.961L46.4502 111.411C46.7609 111.8 47.0826 112.227 47.4154 112.693C47.7594 113.159 48.0756 113.608 48.364 114.041C48.6636 114.473 48.9021 114.856 49.0796 115.189L48.0146 115.855C47.8481 115.511 47.6207 115.117 47.3322 114.673C47.0549 114.218 46.7498 113.758 46.4169 113.292C46.0952 112.815 45.779 112.371 45.4684 111.961ZM65.1057 105.637C65.4274 106.313 65.8213 106.99 66.2872 107.667C66.7643 108.333 67.2747 108.954 67.8183 109.531C68.3619 110.108 68.8945 110.585 69.4159 110.962C69.316 111.029 69.2051 111.123 69.0831 111.245C68.9721 111.356 68.8667 111.472 68.7669 111.594C68.667 111.716 68.5783 111.827 68.5006 111.927C67.9681 111.495 67.4244 110.962 66.8697 110.33C66.315 109.686 65.7935 108.993 65.3054 108.249C64.8172 107.495 64.4012 106.752 64.0572 106.019L65.1057 105.637ZM64.1404 104.988L65.4551 105.221C65.1445 105.975 64.7617 106.757 64.3069 107.567C63.852 108.366 63.3084 109.154 62.676 109.93C62.0547 110.696 61.3335 111.406 60.5125 112.06C60.446 111.961 60.3628 111.855 60.2629 111.744C60.1631 111.622 60.0577 111.511 59.9467 111.411C59.8358 111.3 59.7359 111.212 59.6472 111.145C60.4127 110.568 61.0839 109.93 61.6608 109.231C62.2488 108.521 62.7481 107.8 63.1586 107.068C63.5802 106.336 63.9075 105.642 64.1404 104.988ZM61.9271 111.145H63.1752V118.035C63.1752 118.334 63.2307 118.528 63.3416 118.617C63.4526 118.706 63.7078 118.75 64.1072 118.75C64.1848 118.75 64.3457 118.75 64.5898 118.75C64.8339 118.75 65.1001 118.75 65.3886 118.75C65.677 118.75 65.9489 118.75 66.204 118.75C66.4592 118.75 66.6478 118.75 66.7699 118.75C67.0028 118.75 67.1748 118.695 67.2857 118.584C67.4078 118.473 67.491 118.251 67.5354 117.918C67.5908 117.585 67.6297 117.097 67.6519 116.454C67.7961 116.554 67.9792 116.654 68.201 116.753C68.4229 116.842 68.6226 116.909 68.8001 116.953C68.7558 117.719 68.667 118.318 68.5339 118.75C68.4118 119.172 68.2177 119.466 67.9514 119.632C67.6962 119.799 67.3301 119.882 66.8531 119.882C66.7865 119.882 66.6534 119.882 66.4537 119.882C66.265 119.882 66.0432 119.882 65.788 119.882C65.5439 119.882 65.2943 119.882 65.0391 119.882C64.7839 119.882 64.562 119.882 64.3734 119.882C64.1848 119.882 64.0572 119.882 63.9907 119.882C63.447 119.882 63.0254 119.827 62.7259 119.716C62.4263 119.616 62.2155 119.427 62.0935 119.15C61.9826 118.884 61.9271 118.512 61.9271 118.035V111.145ZM67.0195 111.894L67.8848 112.942C67.3967 113.286 66.8531 113.641 66.254 114.007C65.6659 114.362 65.0724 114.706 64.4733 115.039C63.8742 115.361 63.3195 115.644 62.8091 115.888L62.1268 114.973C62.626 114.729 63.1697 114.435 63.7577 114.091C64.3568 113.736 64.9448 113.37 65.5217 112.992C66.0986 112.604 66.5979 112.238 67.0195 111.894ZM54.2053 106.985H60.0965V108.183H54.2053V106.985ZM57.284 109.531H58.399V120.248H57.284V109.531ZM54.0888 116.221C54.6213 116.132 55.226 116.032 55.9028 115.921C56.5795 115.81 57.2951 115.688 58.0496 115.555C58.8151 115.422 59.575 115.283 60.3295 115.139L60.4127 116.237C59.3476 116.448 58.2825 116.665 57.2175 116.886C56.1524 117.097 55.1983 117.28 54.3551 117.436L54.0888 116.221ZM54.7378 113.475C54.7156 113.397 54.6824 113.297 54.638 113.175C54.6047 113.042 54.5603 112.909 54.5049 112.776C54.4605 112.632 54.4161 112.515 54.3717 112.426C54.5049 112.393 54.6324 112.255 54.7545 112.01C54.8765 111.755 55.0041 111.439 55.1372 111.062C55.2038 110.884 55.3037 110.59 55.4368 110.18C55.5699 109.769 55.7086 109.281 55.8528 108.715C56.0082 108.15 56.1524 107.55 56.2855 106.918C56.4298 106.286 56.5407 105.653 56.6184 105.021L57.7833 105.254C57.628 106.141 57.4283 107.04 57.1842 107.95C56.9512 108.849 56.6905 109.714 56.402 110.546C56.1136 111.378 55.8251 112.132 55.5366 112.809V112.826C55.5366 112.826 55.4978 112.848 55.4201 112.892C55.3425 112.937 55.2482 112.998 55.1372 113.076C55.0263 113.142 54.932 113.214 54.8543 113.292C54.7767 113.358 54.7378 113.419 54.7378 113.475ZM54.7378 113.475V112.443L55.4201 112.11H60.0632V113.242H55.936C55.6587 113.242 55.4035 113.264 55.1705 113.309C54.9486 113.353 54.8044 113.408 54.7378 113.475ZM74.1588 109.015H80.749V109.947H74.1588V109.015ZM74.5083 114.257H79.7504V115.122H74.5083V114.257ZM76.9213 107.867H78.053V109.498H76.9213V107.867ZM81.398 108.582H85.5418V109.614H82.4963V120.348H81.398V108.582ZM75.8396 111.495V112.709H79.1347V111.495H75.8396ZM74.8578 110.729H80.1665V113.458H74.8578V110.729ZM73.776 116.837C74.3641 116.803 75.0408 116.77 75.8063 116.737C76.583 116.703 77.404 116.659 78.2693 116.604C79.1458 116.548 80.0278 116.493 80.9154 116.437L80.8987 117.352C80.0555 117.419 79.2124 117.48 78.3692 117.536C77.526 117.591 76.7216 117.646 75.9561 117.702C75.1906 117.746 74.4916 117.791 73.8593 117.835L73.776 116.837ZM76.938 115.838H78.0363V119.233C78.0363 119.51 77.9975 119.721 77.9199 119.865C77.8533 120.01 77.7146 120.121 77.5038 120.198C77.293 120.265 77.0156 120.304 76.6717 120.315C76.3389 120.337 75.9117 120.348 75.3903 120.348C75.3681 120.215 75.3237 120.065 75.2572 119.899C75.2017 119.732 75.1351 119.577 75.0575 119.433C75.4347 119.444 75.7731 119.449 76.0726 119.449C76.3833 119.46 76.5885 119.46 76.6884 119.449C76.8548 119.449 76.938 119.372 76.938 119.216V115.838ZM79.3178 114.257H79.6007L79.8337 114.191L80.4993 114.723C80.1221 115.078 79.6783 115.411 79.168 115.722C78.6576 116.032 78.1528 116.293 77.6536 116.504C77.587 116.415 77.4983 116.321 77.3873 116.221C77.2764 116.11 77.1821 116.021 77.1044 115.955C77.5149 115.766 77.9254 115.533 78.3359 115.256C78.7575 114.967 79.0848 114.701 79.3178 114.457V114.257ZM78.7353 105.021H80.0167V106.985H78.7353V105.021ZM73.0937 106.435H86.3572V107.501H73.0937V106.435ZM72.3948 106.435H73.5431V111.561C73.5431 112.205 73.5264 112.909 73.4931 113.675C73.4599 114.429 73.3933 115.2 73.2934 115.988C73.1936 116.776 73.0438 117.547 72.8441 118.301C72.6555 119.055 72.4003 119.749 72.0786 120.381C72.0009 120.304 71.9011 120.215 71.779 120.115C71.6681 120.015 71.546 119.921 71.4129 119.832C71.2909 119.754 71.1855 119.699 71.0967 119.666C71.3963 119.067 71.6293 118.423 71.7957 117.735C71.9732 117.047 72.1008 116.348 72.1784 115.638C72.2672 114.917 72.3227 114.213 72.3449 113.525C72.3781 112.826 72.3948 112.171 72.3948 111.561V106.435ZM85.159 108.582H85.3754L85.5584 108.532L86.3905 108.982C86.1353 109.603 85.8413 110.258 85.5085 110.945C85.1868 111.633 84.8706 112.277 84.5599 112.876C85.2256 113.508 85.6694 114.096 85.8913 114.64C86.1243 115.183 86.2463 115.694 86.2574 116.171C86.2574 116.604 86.2019 116.981 86.091 117.303C85.98 117.624 85.797 117.868 85.5418 118.035C85.4198 118.135 85.2811 118.207 85.1257 118.251C84.9704 118.295 84.804 118.334 84.6265 118.368C84.449 118.379 84.2493 118.384 84.0274 118.384C83.8055 118.384 83.5892 118.379 83.3784 118.368C83.3673 118.212 83.334 118.029 83.2785 117.818C83.223 117.608 83.1454 117.425 83.0455 117.269C83.2563 117.291 83.456 117.308 83.6446 117.319C83.8443 117.319 84.0163 117.314 84.1605 117.303C84.2715 117.303 84.3713 117.291 84.4601 117.269C84.5599 117.236 84.6487 117.197 84.7263 117.153C84.8706 117.064 84.9704 116.925 85.0259 116.737C85.0814 116.548 85.1091 116.332 85.1091 116.088C85.098 115.666 84.976 115.206 84.743 114.706C84.5211 114.196 84.0773 113.636 83.4116 113.026C83.6446 112.56 83.8665 112.077 84.0773 111.578C84.2881 111.079 84.4878 110.59 84.6764 110.113C84.865 109.636 85.0259 109.22 85.159 108.865V108.582ZM88.7537 115.938C88.7426 115.86 88.7093 115.749 88.6538 115.605C88.6094 115.461 88.5595 115.317 88.504 115.172C88.4597 115.028 88.4153 114.906 88.3709 114.806C88.5484 114.762 88.737 114.645 88.9367 114.457C89.1475 114.257 89.3805 114.002 89.6357 113.691C89.7799 113.547 89.9851 113.309 90.2514 112.976C90.5177 112.632 90.8172 112.227 91.1501 111.761C91.494 111.284 91.8324 110.773 92.1652 110.23C92.5092 109.675 92.8253 109.12 93.1138 108.566L94.1622 109.198C93.4966 110.319 92.7643 111.411 91.9655 112.476C91.1778 113.541 90.3846 114.473 89.5857 115.272V115.306C89.5857 115.306 89.5414 115.328 89.4526 115.372C89.3749 115.416 89.2806 115.472 89.1697 115.539C89.0588 115.605 88.9589 115.672 88.8701 115.738C88.7925 115.805 88.7537 115.871 88.7537 115.938ZM88.7537 115.938L88.6871 114.906L89.3028 114.49L93.7961 113.675C93.785 113.841 93.785 114.03 93.7961 114.24C93.8072 114.44 93.8183 114.607 93.8294 114.74C92.7865 114.95 91.9489 115.122 91.3165 115.256C90.6841 115.389 90.1959 115.5 89.852 115.588C89.5192 115.666 89.2751 115.733 89.1198 115.788C88.9645 115.833 88.8424 115.882 88.7537 115.938ZM88.6372 111.944C88.615 111.855 88.5817 111.739 88.5373 111.594C88.4929 111.439 88.443 111.284 88.3875 111.128C88.3321 110.973 88.2766 110.84 88.2211 110.729C88.3653 110.696 88.5151 110.59 88.6704 110.413C88.8369 110.224 89.0033 109.991 89.1697 109.714C89.2696 109.57 89.4082 109.342 89.5857 109.032C89.7744 108.721 89.9796 108.349 90.2015 107.917C90.4234 107.484 90.6397 107.018 90.8505 106.519C91.0724 106.019 91.2666 105.526 91.433 105.038L92.6645 105.52C92.376 106.208 92.0543 106.896 91.6993 107.584C91.3553 108.272 90.9948 108.926 90.6175 109.547C90.2403 110.169 89.8576 110.729 89.4693 111.228V111.262C89.4693 111.262 89.4249 111.284 89.3361 111.328C89.2585 111.373 89.1642 111.434 89.0532 111.511C88.9423 111.578 88.8424 111.65 88.7537 111.728C88.676 111.805 88.6372 111.877 88.6372 111.944ZM88.6372 111.944L88.6205 111.012L89.2363 110.629L92.4814 110.346C92.4481 110.502 92.4204 110.679 92.3982 110.879C92.376 111.079 92.3705 111.245 92.3816 111.378C91.6382 111.456 91.0336 111.528 90.5676 111.594C90.1127 111.65 89.7577 111.7 89.5025 111.744C89.2474 111.777 89.0532 111.811 88.9201 111.844C88.798 111.877 88.7037 111.911 88.6372 111.944ZM88.2877 118.135C88.7426 118.001 89.2585 117.852 89.8354 117.685C90.4234 117.508 91.0502 117.319 91.7159 117.119C92.3816 116.909 93.0472 116.698 93.7129 116.487L93.9126 117.486C92.9696 117.818 92.0265 118.151 91.0835 118.484C90.1516 118.806 89.3139 119.1 88.5706 119.366L88.2877 118.135ZM94.1955 109.514H103.349V110.546H94.1955V109.514ZM93.5299 111.861H103.548V112.926H93.5299V111.861ZM95.893 114.057H101.601V115.023H95.893V114.057ZM94.6948 107.401L95.66 107.134C95.8264 107.456 95.9873 107.811 96.1426 108.199C96.2979 108.588 96.4144 108.91 96.4921 109.165L95.4769 109.514C95.4104 109.237 95.2994 108.898 95.1441 108.499C94.9999 108.089 94.8501 107.722 94.6948 107.401ZM97.6737 107.051L98.6722 106.885C98.7831 107.24 98.8885 107.623 98.9884 108.033C99.0882 108.444 99.1548 108.787 99.1881 109.065L98.123 109.314C98.0897 109.026 98.0287 108.665 97.9399 108.233C97.8623 107.8 97.7735 107.406 97.6737 107.051ZM102.333 105.137L103.066 106.069C102.5 106.191 101.856 106.302 101.135 106.402C100.425 106.502 99.6762 106.591 98.8885 106.668C98.1119 106.735 97.3242 106.79 96.5254 106.835C95.7377 106.868 94.9721 106.896 94.2288 106.918C94.2177 106.774 94.1789 106.613 94.1123 106.435C94.0568 106.247 94.0014 106.086 93.9459 105.953C94.667 105.931 95.4159 105.897 96.1925 105.853C96.9692 105.798 97.7347 105.736 98.4891 105.67C99.2435 105.592 99.948 105.515 100.603 105.437C101.268 105.348 101.845 105.248 102.333 105.137ZM96.8416 114.706C97.241 115.494 97.7791 116.199 98.4558 116.82C99.1437 117.441 99.948 117.963 100.869 118.384C101.79 118.806 102.805 119.116 103.914 119.316C103.781 119.438 103.637 119.605 103.482 119.815C103.337 120.026 103.221 120.215 103.132 120.381C101.424 120.004 99.9425 119.366 98.6888 118.467C97.4351 117.558 96.4699 116.409 95.7931 115.023L96.8416 114.706ZM101.684 106.702L102.866 107.084C102.566 107.595 102.245 108.122 101.901 108.665C101.557 109.209 101.241 109.675 100.952 110.063L100.004 109.714C100.203 109.437 100.403 109.126 100.603 108.782C100.813 108.427 101.013 108.066 101.202 107.7C101.39 107.334 101.551 107.001 101.684 106.702ZM101.302 114.057H101.551L101.784 114.007L102.483 114.324C102.117 115.489 101.596 116.47 100.919 117.269C100.242 118.068 99.4488 118.712 98.539 119.2C97.6404 119.699 96.653 120.087 95.5768 120.365C95.5435 120.276 95.4825 120.17 95.3937 120.048C95.3161 119.937 95.2329 119.821 95.1441 119.699C95.0553 119.577 94.9721 119.483 94.8945 119.416C95.9263 119.194 96.8693 118.872 97.7236 118.451C98.5779 118.018 99.3156 117.458 99.9369 116.77C100.558 116.082 101.013 115.239 101.302 114.24V114.057ZM96.2425 110.18H97.4573C97.4018 110.846 97.3242 111.544 97.2243 112.277C97.1356 113.009 96.9969 113.752 96.8083 114.507C96.6308 115.25 96.3922 115.977 96.0927 116.687C95.7931 117.397 95.4104 118.063 94.9444 118.684C94.4784 119.294 93.9126 119.832 93.2469 120.298C93.1582 120.154 93.0306 119.999 92.8642 119.832C92.7089 119.666 92.5591 119.533 92.4149 119.433C93.0472 119.022 93.5798 118.534 94.0125 117.968C94.4451 117.391 94.7946 116.776 95.0609 116.121C95.3383 115.455 95.5546 114.779 95.7099 114.091C95.8652 113.392 95.9817 112.709 96.0594 112.044C96.1371 111.378 96.1981 110.757 96.2425 110.18ZM117.394 111.528V113.026H119.125V111.528H117.394ZM114.731 111.528V113.026H116.429V111.528H114.731ZM112.119 111.528V113.026H113.766V111.528H112.119ZM110.987 110.679H120.306V113.874H110.987V110.679ZM110.837 114.656H119.058V115.688H110.837V114.656ZM118.592 114.656H118.842L119.058 114.607L119.824 114.973C119.424 115.794 118.903 116.509 118.26 117.119C117.616 117.73 116.884 118.251 116.063 118.684C115.242 119.105 114.36 119.455 113.417 119.732C112.474 120.01 111.514 120.226 110.538 120.381C110.482 120.226 110.399 120.043 110.288 119.832C110.188 119.621 110.083 119.455 109.972 119.333C110.893 119.222 111.797 119.05 112.685 118.817C113.572 118.584 114.399 118.284 115.164 117.918C115.941 117.552 116.623 117.114 117.211 116.604C117.799 116.093 118.26 115.505 118.592 114.84V114.656ZM112.934 108.133V109.115H118.309V108.133H112.934ZM112.934 106.419V107.367H118.309V106.419H112.934ZM111.786 105.603H119.491V109.93H111.786V105.603ZM113.317 115.605C113.805 116.226 114.443 116.787 115.231 117.286C116.018 117.774 116.906 118.185 117.893 118.517C118.892 118.85 119.924 119.1 120.989 119.266C120.911 119.344 120.822 119.444 120.723 119.566C120.623 119.699 120.528 119.832 120.44 119.965C120.351 120.098 120.279 120.22 120.223 120.331C119.125 120.121 118.071 119.815 117.061 119.416C116.063 119.028 115.148 118.551 114.315 117.985C113.494 117.408 112.818 116.759 112.285 116.038L113.317 115.605ZM107.659 105.021H108.857V120.315H107.659V105.021ZM106.161 108.233L107.026 108.349C107.026 108.849 106.993 109.381 106.926 109.947C106.86 110.502 106.76 111.04 106.627 111.561C106.505 112.071 106.338 112.521 106.128 112.909L105.296 112.51C105.484 112.177 105.64 111.766 105.762 111.278C105.895 110.79 105.989 110.28 106.044 109.747C106.111 109.215 106.15 108.71 106.161 108.233ZM108.973 108.033L109.756 107.734C109.922 108.077 110.077 108.444 110.222 108.832C110.377 109.22 110.51 109.597 110.621 109.964C110.732 110.319 110.81 110.629 110.854 110.895L110.022 111.278C109.977 111.001 109.9 110.674 109.789 110.296C109.678 109.919 109.55 109.536 109.406 109.148C109.273 108.749 109.129 108.377 108.973 108.033ZM133.736 105.137H134.851V109.148H133.736V105.137ZM126.364 116.287H127.313V119.865H126.364V116.287ZM130.907 118.85C131.673 118.739 132.599 118.601 133.686 118.434C134.774 118.257 135.883 118.074 137.015 117.885L137.098 118.967C136.066 119.166 135.029 119.355 133.986 119.533C132.954 119.721 132.028 119.893 131.207 120.048L130.907 118.85ZM135.6 115.788L136.566 115.539C136.799 116.004 137.015 116.515 137.215 117.07C137.425 117.624 137.603 118.162 137.747 118.684C137.902 119.194 138.008 119.649 138.063 120.048L137.015 120.348C136.97 119.96 136.876 119.505 136.732 118.983C136.599 118.451 136.432 117.907 136.233 117.352C136.044 116.798 135.833 116.276 135.6 115.788ZM132.372 109.414V113.525H136.316V109.414H132.372ZM131.357 108.333H137.398V114.64H131.357V108.333ZM124.95 108.665V110.263H128.81V108.665H124.95ZM123.868 107.767H129.959V111.162H123.868V107.767ZM122.986 105.753H130.824V106.835H122.986V105.753ZM124.9 116.021H128.877V116.92H124.9V116.021ZM123.169 112.11H130.025V113.059H124.167V120.298H123.169V112.11ZM129.559 112.11H130.591V119.116C130.591 119.383 130.558 119.594 130.491 119.749C130.436 119.904 130.314 120.032 130.125 120.132C129.937 120.209 129.692 120.254 129.393 120.265C129.093 120.287 128.716 120.298 128.261 120.298C128.25 120.165 128.217 120.004 128.161 119.815C128.106 119.638 128.039 119.477 127.962 119.333C128.295 119.344 128.583 119.349 128.827 119.349C129.082 119.349 129.254 119.344 129.343 119.333C129.487 119.333 129.559 119.261 129.559 119.116V112.11ZM127.363 112.543H128.178V114.324C128.178 114.457 128.195 114.534 128.228 114.557C128.261 114.579 128.339 114.59 128.461 114.59C128.494 114.59 128.566 114.59 128.677 114.59C128.788 114.59 128.899 114.59 129.01 114.59C129.132 114.59 129.215 114.59 129.26 114.59C129.371 114.59 129.443 114.584 129.476 114.573C129.509 114.562 129.537 114.54 129.559 114.507C129.637 114.562 129.748 114.618 129.892 114.673C130.036 114.718 130.17 114.756 130.292 114.79C130.247 114.989 130.153 115.139 130.009 115.239C129.876 115.328 129.681 115.372 129.426 115.372C129.371 115.372 129.265 115.372 129.11 115.372C128.966 115.372 128.822 115.372 128.677 115.372C128.533 115.372 128.433 115.372 128.378 115.372C127.978 115.372 127.707 115.306 127.562 115.172C127.429 115.039 127.363 114.762 127.363 114.34V112.543ZM133.803 108.732H134.785V114.057H134.851V118.867H133.736V114.057H133.803V108.732ZM125.532 112.56H126.331V113.142C126.331 113.442 126.298 113.763 126.231 114.107C126.164 114.44 126.026 114.767 125.815 115.089C125.615 115.4 125.299 115.688 124.866 115.955C124.789 115.866 124.678 115.766 124.534 115.655C124.4 115.544 124.284 115.455 124.184 115.389C124.595 115.178 124.894 114.939 125.083 114.673C125.271 114.407 125.393 114.141 125.449 113.874C125.504 113.597 125.532 113.342 125.532 113.109V112.56ZM147.216 105.42H148.481V117.785C148.481 118.096 148.509 118.334 148.564 118.501C148.62 118.656 148.725 118.767 148.88 118.834C149.047 118.889 149.285 118.917 149.596 118.917C149.707 118.917 149.907 118.917 150.195 118.917C150.495 118.917 150.822 118.917 151.177 118.917C151.543 118.917 151.882 118.917 152.192 118.917C152.503 118.917 152.725 118.917 152.858 118.917C153.168 118.917 153.396 118.834 153.54 118.667C153.695 118.49 153.806 118.179 153.873 117.735C153.951 117.291 154.006 116.67 154.039 115.871C154.195 115.982 154.383 116.093 154.605 116.204C154.838 116.304 155.043 116.371 155.221 116.404C155.165 117.314 155.066 118.04 154.921 118.584C154.788 119.116 154.566 119.499 154.256 119.732C153.956 119.965 153.512 120.082 152.924 120.082C152.836 120.082 152.675 120.082 152.442 120.082C152.22 120.082 151.954 120.082 151.643 120.082C151.343 120.082 151.044 120.082 150.744 120.082C150.445 120.082 150.179 120.082 149.946 120.082C149.724 120.082 149.574 120.082 149.496 120.082C148.919 120.082 148.464 120.015 148.132 119.882C147.799 119.749 147.56 119.51 147.416 119.166C147.283 118.834 147.216 118.362 147.216 117.752V105.42ZM153.474 108.183L154.372 109.248C153.818 109.714 153.191 110.174 152.492 110.629C151.793 111.073 151.061 111.506 150.295 111.927C149.541 112.349 148.797 112.748 148.065 113.125C148.021 112.981 147.943 112.82 147.832 112.643C147.732 112.454 147.638 112.288 147.549 112.144C148.259 111.766 148.98 111.356 149.713 110.912C150.445 110.468 151.138 110.013 151.793 109.547C152.447 109.07 153.008 108.616 153.474 108.183ZM144.337 105.271L145.552 105.687C145.13 106.652 144.637 107.6 144.071 108.532C143.505 109.464 142.895 110.341 142.24 111.162C141.597 111.972 140.926 112.687 140.227 113.309C140.193 113.198 140.127 113.064 140.027 112.909C139.938 112.754 139.844 112.598 139.744 112.443C139.644 112.277 139.555 112.144 139.478 112.044C140.121 111.511 140.743 110.89 141.342 110.18C141.952 109.459 142.512 108.682 143.023 107.85C143.533 107.007 143.971 106.147 144.337 105.271ZM142.423 109.631L143.655 108.399L143.672 108.432V120.298H142.423V109.631ZM158.882 120.781L158.516 119.899C159.193 119.621 159.709 119.266 160.064 118.834C160.43 118.401 160.613 117.868 160.613 117.236L160.313 115.838L161.212 117.103C161.09 117.247 160.951 117.347 160.796 117.402C160.641 117.447 160.485 117.469 160.33 117.469C159.986 117.469 159.692 117.369 159.448 117.169C159.204 116.97 159.082 116.676 159.082 116.287C159.082 115.888 159.204 115.588 159.448 115.389C159.703 115.189 160.003 115.089 160.347 115.089C160.813 115.089 161.162 115.267 161.395 115.622C161.639 115.966 161.761 116.426 161.761 117.003C161.761 117.902 161.5 118.678 160.979 119.333C160.458 119.987 159.759 120.47 158.882 120.781ZM9.93813 134.599H17.9595V135.797H9.93813V134.599ZM14.9307 131.038H16.2287V144.617C16.2287 145.061 16.1677 145.388 16.0457 145.599C15.9347 145.81 15.735 145.965 15.4466 146.065C15.1803 146.176 14.7975 146.243 14.2983 146.265C13.799 146.298 13.1944 146.315 12.4843 146.315C12.451 146.137 12.39 145.921 12.3013 145.666C12.2125 145.422 12.1238 145.211 12.035 145.033C12.5786 145.044 13.089 145.05 13.566 145.05C14.0431 145.05 14.3593 145.044 14.5146 145.033C14.67 145.033 14.7753 145.006 14.8308 144.95C14.8974 144.895 14.9307 144.789 14.9307 144.634V131.038ZM14.7975 135.148L15.796 135.764C15.4854 136.496 15.1082 137.239 14.6644 137.994C14.2317 138.737 13.7491 139.464 13.2166 140.174C12.6951 140.873 12.1459 141.522 11.569 142.121C11.0032 142.72 10.4318 143.242 9.85493 143.685C9.75507 143.519 9.62194 143.336 9.45552 143.136C9.2891 142.936 9.12823 142.776 8.97291 142.654C9.53873 142.276 10.1046 141.805 10.6704 141.239C11.2362 140.673 11.7743 140.052 12.2846 139.375C12.8061 138.698 13.2776 138.005 13.6992 137.295C14.1319 136.574 14.498 135.858 14.7975 135.148ZM2.99851 134.582H9.32239V135.797H2.99851V134.582ZM5.77769 131.021H7.02582V146.315H5.77769V131.021ZM5.72776 135.331L6.59313 135.631C6.42672 136.319 6.21592 137.023 5.96075 137.744C5.71667 138.454 5.4393 139.153 5.12866 139.841C4.8291 140.529 4.50736 141.172 4.16343 141.771C3.8306 142.36 3.48667 142.864 3.13164 143.286C3.05398 143.097 2.94303 142.892 2.79881 142.67C2.66567 142.437 2.54363 142.243 2.43269 142.088C2.76552 141.71 3.09836 141.267 3.43119 140.756C3.76403 140.235 4.07468 139.669 4.36313 139.059C4.65159 138.449 4.91231 137.827 5.1453 137.195C5.37828 136.563 5.57244 135.941 5.72776 135.331ZM6.92597 136.13C7.02582 136.23 7.1756 136.391 7.3753 136.613C7.575 136.823 7.79134 137.062 8.02433 137.328C8.25731 137.594 8.48475 137.866 8.70664 138.144C8.93963 138.41 9.15042 138.654 9.33903 138.876C9.52764 139.087 9.66632 139.247 9.75507 139.358L8.95627 140.424C8.82313 140.202 8.63453 139.924 8.39045 139.591C8.15746 139.247 7.90229 138.892 7.62493 138.526C7.35866 138.16 7.09794 137.822 6.84276 137.511C6.59868 137.189 6.40453 136.94 6.2603 136.762L6.92597 136.13ZM22.6025 131.071H23.7675V146.315H22.6025V131.071ZM19.9232 136.613H26.4967V137.777H19.9232V136.613ZM22.4361 137.228L23.185 137.544C23.0408 138.121 22.8577 138.72 22.6358 139.342C22.425 139.952 22.192 140.557 21.9369 141.156C21.6817 141.755 21.4154 142.321 21.1381 142.853C20.8607 143.375 20.5833 143.824 20.306 144.201C20.2616 144.079 20.2006 143.946 20.1229 143.802C20.0563 143.658 19.9787 143.513 19.8899 143.369C19.8123 143.214 19.7346 143.086 19.6569 142.986C20.012 142.554 20.367 142.01 20.722 141.355C21.0881 140.701 21.421 140.013 21.7205 139.292C22.0201 138.56 22.2586 137.872 22.4361 137.228ZM23.7508 137.994C23.8396 138.094 23.9672 138.255 24.1336 138.476C24.3111 138.698 24.5052 138.948 24.716 139.225C24.9379 139.503 25.1543 139.78 25.3651 140.057C25.5759 140.335 25.7645 140.59 25.9309 140.823C26.0973 141.045 26.2138 141.211 26.2804 141.322L25.4483 142.304C25.3484 142.082 25.1987 141.799 24.999 141.455C24.7993 141.1 24.5774 140.734 24.3333 140.357C24.1003 139.969 23.8729 139.608 23.651 139.275C23.4402 138.942 23.2682 138.687 23.1351 138.51L23.7508 137.994ZM20.0397 132.319L20.955 132.069C21.1214 132.458 21.2656 132.874 21.3877 133.317C21.5208 133.761 21.6373 134.194 21.7372 134.616C21.837 135.037 21.9036 135.42 21.9369 135.764L20.9384 136.013C20.9273 135.681 20.8718 135.303 20.7719 134.882C20.6832 134.449 20.5722 134.011 20.4391 133.567C20.3171 133.112 20.1839 132.696 20.0397 132.319ZM25.415 132.019L26.5134 132.302C26.3802 132.713 26.2304 133.151 26.064 133.617C25.9087 134.072 25.7478 134.516 25.5814 134.948C25.4261 135.37 25.2763 135.742 25.1321 136.063L24.3166 135.797C24.4498 135.464 24.5829 135.076 24.716 134.632C24.8603 134.177 24.9934 133.722 25.1154 133.268C25.2486 132.802 25.3484 132.386 25.415 132.019ZM31.872 131.021H33.0702V146.315H31.872V131.021ZM26.4634 141.622L35.0173 140.074L35.217 141.222L26.6798 142.77L26.4634 141.622ZM27.7282 133.068L28.3606 132.202C28.6823 132.391 29.0096 132.607 29.3425 132.851C29.6864 133.084 30.0081 133.323 30.3077 133.567C30.6072 133.811 30.8458 134.039 31.0233 134.249L30.3576 135.198C30.1912 134.987 29.9582 134.754 29.6587 134.499C29.3702 134.244 29.054 133.989 28.7101 133.734C28.3772 133.478 28.05 133.256 27.7282 133.068ZM26.8795 137.262L27.4619 136.38C27.7948 136.546 28.1387 136.74 28.4937 136.962C28.8488 137.173 29.1871 137.395 29.5089 137.628C29.8306 137.85 30.0858 138.06 30.2744 138.26L29.6587 139.259C29.459 139.059 29.2038 138.843 28.8931 138.61C28.5825 138.365 28.2497 138.127 27.8946 137.894C27.5507 137.65 27.2123 137.439 26.8795 137.262ZM40.6256 137.062H48.5637V138.227H40.6256V137.062ZM41.4244 133.401H50.3278V134.599H41.4244V133.401ZM37.1807 140.673H52.0751V141.855H37.1807V140.673ZM48.131 137.062H49.4125C49.4125 137.062 49.4069 137.101 49.3958 137.178C49.3958 137.256 49.3903 137.345 49.3792 137.445C49.3792 137.533 49.3736 137.611 49.3625 137.678C49.1961 139.408 49.0297 140.823 48.8633 141.921C48.6969 143.009 48.5138 143.852 48.3141 144.451C48.1255 145.039 47.8981 145.466 47.6318 145.732C47.421 145.943 47.1991 146.082 46.9661 146.148C46.7442 146.226 46.4669 146.281 46.134 146.315C45.8345 146.326 45.4073 146.326 44.8526 146.315C44.309 146.304 43.7376 146.281 43.1385 146.248C43.1274 146.06 43.083 145.849 43.0054 145.616C42.9277 145.383 42.8279 145.178 42.7058 145C43.3382 145.067 43.9318 145.105 44.4865 145.116C45.0523 145.128 45.4517 145.133 45.6847 145.133C45.8955 145.133 46.0619 145.122 46.184 145.1C46.3171 145.078 46.4391 145.022 46.5501 144.933C46.772 144.734 46.9717 144.351 47.1492 143.785C47.3378 143.219 47.5098 142.409 47.6651 141.355C47.8204 140.301 47.9757 138.948 48.131 137.295V137.062ZM41.3246 130.988L42.6226 131.121C42.4895 131.764 42.3508 132.447 42.2066 133.168C42.0623 133.889 41.9126 134.61 41.7572 135.331C41.6019 136.052 41.4466 136.735 41.2913 137.378C41.1359 138.022 40.9917 138.593 40.8586 139.092L39.5772 138.976C39.7214 138.465 39.8712 137.883 40.0265 137.228C40.1818 136.574 40.3371 135.886 40.4925 135.165C40.6589 134.432 40.8142 133.711 40.9584 133.001C41.1027 132.291 41.2247 131.62 41.3246 130.988ZM60.5292 140.557H67.1693V141.505H60.5292V140.557ZM58.9815 132.319H68.8667V133.284H58.9815V132.319ZM59.3809 134.349H68.4507V135.265H59.3809V134.349ZM58.4822 136.413H69.366V137.378H58.4822V136.413ZM60.5458 142.77H67.2192V143.719H60.5458V142.77ZM59.6804 138.343H67.1526V139.309H60.8454V146.315H59.6804V138.343ZM66.8697 138.343H68.0513V144.933C68.0513 145.244 68.0069 145.488 67.9181 145.666C67.8405 145.843 67.6851 145.976 67.4522 146.065C67.2192 146.165 66.9085 146.22 66.5202 146.231C66.1319 146.254 65.6438 146.265 65.0557 146.265C65.0336 146.109 64.9836 145.926 64.906 145.716C64.8394 145.516 64.7673 145.338 64.6896 145.183C65.1112 145.194 65.4995 145.2 65.8546 145.2C66.2207 145.211 66.4592 145.211 66.5701 145.2C66.7699 145.189 66.8697 145.094 66.8697 144.917V138.343ZM63.2418 131.021H64.4733V136.712H63.2418V131.021ZM55.9527 131.021H57.0843V146.315H55.9527V131.021ZM54.638 134.233L55.5699 134.349C55.5477 134.782 55.5034 135.27 55.4368 135.814C55.3813 136.346 55.3037 136.879 55.2038 137.411C55.104 137.944 54.9875 138.421 54.8543 138.843L53.8725 138.51C54.0056 138.132 54.1221 137.694 54.2219 137.195C54.3218 136.696 54.405 136.185 54.4716 135.664C54.5492 135.143 54.6047 134.665 54.638 134.233ZM57.2341 133.783L58.0662 133.451C58.2548 133.828 58.4379 134.244 58.6154 134.699C58.7929 135.143 58.9205 135.514 58.9981 135.814L58.1161 136.246C58.0385 135.925 57.9164 135.531 57.75 135.065C57.5836 134.599 57.4116 134.172 57.2341 133.783ZM77.7035 133.018H83.861V134.133H77.7035V133.018ZM79.3843 141.788H84.976V142.803H79.3843V141.788ZM79.351 144.534H84.926V145.599H79.351V144.534ZM76.8381 136.23H86.5237V137.361H76.8381V136.23ZM80.4328 131.021H81.6143V136.895H80.4328V131.021ZM78.8351 139.009H85.5251V146.215H84.3103V140.074H80.0167V146.265H78.8351V139.009ZM84.9926 131.92L86.1409 132.286C85.1535 134.283 83.8943 136.036 82.3632 137.544C80.8322 139.053 79.1292 140.285 77.2542 141.239C77.2098 141.15 77.1377 141.045 77.0378 140.923C76.938 140.79 76.8326 140.662 76.7216 140.54C76.6218 140.418 76.5275 140.318 76.4387 140.24C78.3026 139.386 79.9723 138.249 81.4479 136.829C82.9235 135.409 84.105 133.772 84.9926 131.92ZM71.7125 141.971C71.7014 141.894 71.6736 141.788 71.6293 141.655C71.5849 141.522 71.5349 141.383 71.4795 141.239C71.4351 141.095 71.3852 140.978 71.3297 140.889C71.5183 140.856 71.7125 140.74 71.9122 140.54C72.1119 140.34 72.3393 140.091 72.5945 139.791C72.7276 139.636 72.9273 139.386 73.1936 139.042C73.4709 138.698 73.776 138.288 74.1089 137.811C74.4417 137.334 74.7801 136.818 75.124 136.263C75.468 135.708 75.7842 135.154 76.0726 134.599L77.0545 135.181C76.3888 136.313 75.6621 137.422 74.8744 138.51C74.0978 139.586 73.3156 140.529 72.5279 141.339V141.372C72.5279 141.372 72.4835 141.394 72.3948 141.439C72.3171 141.472 72.2228 141.522 72.1119 141.588C72.012 141.644 71.9177 141.705 71.829 141.771C71.7513 141.838 71.7125 141.905 71.7125 141.971ZM71.7125 141.971L71.6459 140.973L72.245 140.557L76.4221 139.808C76.411 139.963 76.4054 140.141 76.4054 140.34C76.4054 140.54 76.411 140.706 76.4221 140.84C75.4569 141.039 74.6802 141.2 74.0922 141.322C73.5042 141.444 73.0494 141.544 72.7276 141.622C72.417 141.699 72.1895 141.766 72.0453 141.821C71.9011 141.877 71.7901 141.927 71.7125 141.971ZM71.5793 137.961C71.5682 137.883 71.5405 137.777 71.4961 137.644C71.4517 137.5 71.4018 137.356 71.3463 137.212C71.302 137.056 71.252 136.929 71.1966 136.829C71.3519 136.796 71.4961 136.69 71.6293 136.513C71.7735 136.324 71.9344 136.086 72.1119 135.797C72.2117 135.664 72.3504 135.437 72.5279 135.115C72.7054 134.793 72.8996 134.416 73.1104 133.983C73.3212 133.539 73.532 133.068 73.7428 132.569C73.9536 132.058 74.1366 131.553 74.2919 131.054L75.4236 131.57C75.1462 132.247 74.8356 132.935 74.4916 133.634C74.1588 134.322 73.8038 134.982 73.4266 135.614C73.0604 136.235 72.6888 136.796 72.3116 137.295V137.328C72.3116 137.328 72.2727 137.35 72.1951 137.395C72.1285 137.439 72.0453 137.495 71.9454 137.561C71.8567 137.628 71.7735 137.694 71.6958 137.761C71.6182 137.827 71.5793 137.894 71.5793 137.961ZM71.5793 137.961L71.5627 137.079L72.1451 136.712L75.174 136.396C75.1407 136.54 75.1129 136.712 75.0907 136.912C75.0797 137.101 75.0797 137.256 75.0907 137.378C74.3918 137.467 73.826 137.544 73.3933 137.611C72.9717 137.667 72.6389 137.716 72.3948 137.761C72.1618 137.794 71.9843 137.827 71.8622 137.861C71.7513 137.894 71.657 137.927 71.5793 137.961ZM71.3131 144.118C71.779 144.018 72.3116 143.902 72.9107 143.769C73.5209 143.635 74.1644 143.491 74.8411 143.336C75.529 143.169 76.2168 143.009 76.9047 142.853L77.0212 143.902C76.056 144.146 75.0907 144.39 74.1255 144.634C73.1714 144.878 72.3116 145.1 71.546 145.3L71.3131 144.118ZM89.1863 132.951H95.011V134.066H89.1863V132.951ZM90.9337 144.218H95.6101V145.266H90.9337V144.218ZM90.9337 141.455H95.6267V142.454H90.9337V141.455ZM88.4208 136.063H97.0246V137.178H88.4208V136.063ZM91.7492 131.154H92.9141V136.762H91.7492V131.154ZM96.1593 131.587L97.2909 131.936C96.3811 134.011 95.1996 135.841 93.7462 137.428C92.3039 139.003 90.6675 140.296 88.8369 141.306C88.7925 141.217 88.7204 141.111 88.6205 140.989C88.5318 140.856 88.4375 140.723 88.3376 140.59C88.2378 140.457 88.1435 140.357 88.0547 140.29C89.8742 139.381 91.4774 138.188 92.8642 136.712C94.251 135.237 95.3494 133.528 96.1593 131.587ZM91.3165 138.793H95.5601V139.824H91.3165V146.248H90.1848V139.525L90.8672 138.793H91.3165ZM95.0775 138.793H96.2757V146.015H95.0775V138.793ZM97.7402 131.969H102.699V133.151H98.9717V146.331H97.7402V131.969ZM102.4 131.969H102.633L102.833 131.92L103.731 132.485C103.387 133.284 102.999 134.133 102.566 135.032C102.145 135.919 101.729 136.751 101.318 137.528C101.917 138.038 102.372 138.532 102.683 139.009C102.993 139.475 103.21 139.919 103.332 140.34C103.465 140.762 103.532 141.172 103.532 141.572C103.532 142.093 103.465 142.543 103.332 142.92C103.21 143.297 102.993 143.58 102.683 143.769C102.394 143.968 102.017 144.096 101.551 144.151C101.329 144.173 101.08 144.185 100.802 144.185C100.525 144.185 100.253 144.179 99.9869 144.168C99.9758 143.99 99.9369 143.785 99.8704 143.552C99.8149 143.319 99.7317 143.114 99.6207 142.936C99.8981 142.959 100.159 142.975 100.403 142.986C100.647 142.986 100.858 142.981 101.035 142.97C101.191 142.97 101.335 142.953 101.468 142.92C101.601 142.886 101.718 142.842 101.817 142.787C102.006 142.676 102.139 142.504 102.217 142.271C102.295 142.038 102.328 141.771 102.317 141.472C102.317 140.939 102.156 140.362 101.834 139.741C101.512 139.109 100.913 138.426 100.037 137.694C100.259 137.262 100.481 136.807 100.702 136.33C100.924 135.841 101.141 135.359 101.351 134.882C101.562 134.405 101.756 133.95 101.934 133.517C102.111 133.084 102.267 132.702 102.4 132.369V131.969ZM106.327 132.103H120.123V133.301H106.327V132.103ZM105.712 138.044H120.639V139.242H105.712V138.044ZM115.647 132.735H116.928V146.348H115.647V132.735ZM109.722 132.718H110.987V137.328C110.987 138.138 110.943 138.953 110.854 139.774C110.765 140.595 110.577 141.4 110.288 142.188C110.011 142.964 109.589 143.713 109.023 144.434C108.458 145.144 107.698 145.799 106.743 146.398C106.666 146.287 106.571 146.176 106.461 146.065C106.35 145.954 106.228 145.843 106.094 145.732C105.972 145.621 105.856 145.533 105.745 145.466C106.644 144.911 107.359 144.312 107.892 143.669C108.424 143.025 108.818 142.354 109.073 141.655C109.34 140.956 109.512 140.24 109.589 139.508C109.678 138.776 109.722 138.049 109.722 137.328V132.718ZM130.774 144.451H136.599V145.599H130.774V144.451ZM130.142 139.575H137.248V146.281H136V140.723H131.34V146.348H130.142V139.575ZM128.994 136.796C129.659 136.751 130.425 136.707 131.29 136.662C132.167 136.618 133.093 136.568 134.069 136.513C135.057 136.446 136.044 136.38 137.031 136.313L137.015 137.445C136.072 137.511 135.129 137.583 134.186 137.661C133.243 137.739 132.339 137.805 131.473 137.861C130.619 137.916 129.842 137.972 129.143 138.027L128.994 136.796ZM134.519 134.1L135.517 133.6C135.894 134.055 136.26 134.555 136.615 135.098C136.97 135.631 137.292 136.158 137.581 136.679C137.869 137.189 138.08 137.65 138.213 138.06L137.131 138.659C136.998 138.249 136.793 137.777 136.516 137.245C136.238 136.712 135.928 136.174 135.584 135.631C135.24 135.087 134.885 134.577 134.519 134.1ZM132.239 131.004L133.62 131.304C133.387 131.969 133.132 132.68 132.854 133.434C132.588 134.188 132.311 134.915 132.022 135.614C131.734 136.313 131.456 136.929 131.19 137.461L130.142 137.162C130.33 136.751 130.525 136.291 130.724 135.78C130.924 135.27 131.113 134.738 131.29 134.183C131.479 133.617 131.656 133.068 131.823 132.535C131.989 131.992 132.128 131.481 132.239 131.004ZM122.72 134.466H128.211V135.631H122.72V134.466ZM125.249 131.004L126.431 131.154C126.264 131.975 126.076 132.863 125.865 133.817C125.654 134.76 125.432 135.708 125.199 136.662C124.977 137.617 124.755 138.532 124.534 139.408C124.312 140.274 124.106 141.05 123.918 141.738L122.869 141.189C123.058 140.557 123.258 139.824 123.468 138.992C123.69 138.149 123.907 137.262 124.117 136.33C124.328 135.398 124.534 134.477 124.733 133.567C124.933 132.646 125.105 131.792 125.249 131.004ZM123.552 140.673L124.234 139.808C124.855 140.152 125.493 140.546 126.148 140.989C126.813 141.433 127.424 141.888 127.978 142.354C128.533 142.82 128.977 143.264 129.31 143.685L128.561 144.684C128.228 144.273 127.784 143.83 127.229 143.352C126.686 142.864 126.092 142.387 125.449 141.921C124.805 141.444 124.173 141.028 123.552 140.673ZM127.729 134.466H127.945L128.161 134.416L128.91 134.582C128.766 136.723 128.467 138.565 128.012 140.107C127.557 141.638 126.963 142.914 126.231 143.935C125.499 144.956 124.617 145.771 123.585 146.381C123.496 146.226 123.374 146.048 123.219 145.849C123.075 145.649 122.936 145.488 122.803 145.366C123.735 144.878 124.539 144.162 125.216 143.219C125.904 142.265 126.458 141.084 126.88 139.675C127.313 138.255 127.596 136.601 127.729 134.715V134.466ZM139.994 144.784H154.921V145.799H139.994V144.784ZM140.094 133.966H154.838V134.998H140.094V133.966ZM141.242 142.337H153.873V143.336H141.242V142.337ZM146.767 132.286H148.015V145.266H146.767V132.286ZM152.558 131.121L153.224 132.086C152.481 132.219 151.637 132.341 150.694 132.452C149.762 132.552 148.781 132.641 147.749 132.718C146.717 132.785 145.68 132.846 144.637 132.901C143.594 132.946 142.584 132.974 141.608 132.985C141.608 132.84 141.575 132.674 141.508 132.485C141.453 132.286 141.397 132.125 141.342 132.003C142.307 131.969 143.305 131.931 144.337 131.886C145.38 131.831 146.401 131.77 147.399 131.703C148.409 131.626 149.352 131.537 150.228 131.437C151.116 131.337 151.893 131.232 152.558 131.121ZM142.989 139.009V140.274H151.976V139.009H142.989ZM142.989 136.912V138.16H151.976V136.912H142.989ZM141.774 136.013H153.241V141.189H141.774V136.013ZM166.038 136.646H172.246V137.811H166.038V136.646ZM157.285 132.768H164.64V133.817H157.285V132.768ZM157.101 139.358H164.707V140.457H157.101V139.358ZM157.052 136.563H164.84V137.628H157.052V136.563ZM169.15 137.112H170.348V146.248H169.15V137.112ZM160.38 131.087H161.595V133.301H160.38V131.087ZM160.38 137.445H161.595V146.298H160.38V137.445ZM165.439 132.386L166.97 132.851C166.959 132.974 166.848 133.051 166.637 133.084V138.227C166.637 138.848 166.604 139.514 166.537 140.224C166.482 140.934 166.365 141.655 166.188 142.387C166.01 143.108 165.744 143.813 165.389 144.501C165.034 145.189 164.568 145.821 163.991 146.398C163.936 146.309 163.853 146.209 163.742 146.098C163.642 145.987 163.531 145.876 163.409 145.766C163.298 145.666 163.192 145.594 163.093 145.549C163.625 145.028 164.047 144.462 164.357 143.852C164.679 143.242 164.912 142.615 165.056 141.971C165.212 141.328 165.311 140.69 165.356 140.057C165.411 139.414 165.439 138.798 165.439 138.21V132.386ZM171.014 131.204L172.029 132.119C171.508 132.352 170.914 132.574 170.248 132.785C169.583 132.985 168.895 133.168 168.185 133.334C167.486 133.489 166.804 133.628 166.138 133.75C166.105 133.617 166.049 133.456 165.972 133.268C165.894 133.068 165.816 132.907 165.739 132.785C166.36 132.652 166.998 132.502 167.652 132.336C168.318 132.169 168.945 131.992 169.533 131.803C170.121 131.603 170.615 131.404 171.014 131.204ZM161.462 140.756C161.595 140.845 161.789 140.995 162.044 141.206C162.31 141.405 162.593 141.627 162.893 141.871C163.192 142.115 163.464 142.343 163.708 142.554C163.952 142.753 164.13 142.898 164.241 142.986L163.492 143.918C163.359 143.763 163.176 143.569 162.943 143.336C162.71 143.103 162.455 142.859 162.177 142.604C161.911 142.337 161.65 142.093 161.395 141.871C161.151 141.638 160.951 141.461 160.796 141.339L161.462 140.756ZM158.283 134.133L159.282 133.9C159.448 134.266 159.598 134.671 159.731 135.115C159.864 135.559 159.953 135.941 159.997 136.263L158.932 136.546C158.91 136.213 158.838 135.825 158.716 135.381C158.594 134.926 158.449 134.51 158.283 134.133ZM162.56 133.867L163.692 134.116C163.536 134.538 163.375 134.965 163.209 135.398C163.043 135.83 162.882 136.202 162.726 136.513L161.711 136.263C161.811 136.041 161.911 135.792 162.011 135.514C162.122 135.237 162.227 134.954 162.327 134.665C162.427 134.366 162.505 134.1 162.56 133.867ZM160.38 139.924L161.279 140.274C161.001 140.873 160.657 141.483 160.247 142.104C159.836 142.715 159.398 143.286 158.932 143.818C158.477 144.34 158.028 144.773 157.584 145.116C157.484 144.972 157.351 144.817 157.185 144.651C157.029 144.473 156.88 144.329 156.735 144.218C157.19 143.929 157.645 143.552 158.1 143.086C158.566 142.62 158.999 142.11 159.398 141.555C159.797 141 160.125 140.457 160.38 139.924ZM176.922 136.113H186.641V137.311H176.922V136.113ZM181.715 140.091H187.323V141.256H181.715V140.091ZM181.066 136.712H182.364V145.15L181.066 144.967V136.712ZM177.105 138.726L178.403 138.876C178.17 140.551 177.782 142.021 177.238 143.286C176.694 144.551 175.957 145.594 175.025 146.415C174.958 146.337 174.858 146.243 174.725 146.132C174.603 146.032 174.476 145.926 174.342 145.815C174.209 145.716 174.093 145.632 173.993 145.566C174.914 144.845 175.618 143.902 176.106 142.737C176.606 141.572 176.939 140.235 177.105 138.726ZM177.904 140.873C178.192 141.727 178.569 142.415 179.035 142.936C179.501 143.458 180.039 143.857 180.65 144.135C181.26 144.412 181.931 144.601 182.663 144.7C183.407 144.8 184.205 144.85 185.06 144.85C185.182 144.85 185.381 144.85 185.659 144.85C185.936 144.85 186.247 144.85 186.591 144.85C186.946 144.85 187.306 144.85 187.672 144.85C188.039 144.85 188.371 144.85 188.671 144.85C188.971 144.85 189.198 144.845 189.353 144.834C189.298 144.933 189.237 145.061 189.17 145.216C189.104 145.372 189.043 145.527 188.987 145.682C188.943 145.838 188.91 145.976 188.887 146.098H188.055H184.993C184.006 146.098 183.09 146.032 182.247 145.899C181.415 145.777 180.661 145.544 179.984 145.2C179.318 144.856 178.725 144.368 178.203 143.735C177.682 143.103 177.244 142.282 176.889 141.272L177.904 140.873ZM181.049 131.021H182.364V133.717H181.049V131.021ZM174.775 132.935H188.688V136.563H187.406V134.133H176.007V136.563H174.775V132.935ZM191.517 132.053H200.087V133.218H191.517V132.053ZM191.234 137.528H200.304V138.693H191.234V137.528ZM197.275 132.352H198.506V146.315H197.275V132.352ZM193.414 132.352H194.595V137.694C194.595 138.737 194.54 139.774 194.429 140.806C194.329 141.827 194.102 142.814 193.747 143.769C193.403 144.723 192.854 145.61 192.099 146.431C192.044 146.342 191.955 146.243 191.833 146.132C191.722 146.032 191.605 145.932 191.483 145.832C191.372 145.732 191.267 145.655 191.167 145.599C191.844 144.845 192.338 144.035 192.648 143.169C192.97 142.304 193.175 141.411 193.264 140.49C193.364 139.558 193.414 138.626 193.414 137.694V132.352ZM204.63 131.287L205.812 131.77C205.402 132.28 204.93 132.779 204.397 133.268C203.865 133.756 203.305 134.211 202.717 134.632C202.14 135.054 201.568 135.42 201.003 135.731C200.903 135.586 200.764 135.431 200.586 135.265C200.42 135.098 200.259 134.959 200.104 134.849C200.636 134.571 201.186 134.244 201.751 133.867C202.317 133.489 202.85 133.079 203.349 132.635C203.859 132.18 204.287 131.731 204.63 131.287ZM205.113 135.88L206.245 136.346C205.823 136.89 205.329 137.422 204.764 137.944C204.198 138.465 203.604 138.953 202.983 139.408C202.373 139.863 201.768 140.252 201.169 140.573C201.069 140.44 200.936 140.29 200.77 140.124C200.603 139.958 200.437 139.813 200.27 139.691C200.847 139.403 201.435 139.053 202.034 138.643C202.633 138.232 203.205 137.789 203.748 137.311C204.292 136.834 204.747 136.357 205.113 135.88ZM205.496 140.374L206.661 140.84C206.195 141.605 205.629 142.332 204.963 143.02C204.298 143.696 203.565 144.318 202.767 144.884C201.979 145.438 201.158 145.915 200.304 146.315C200.204 146.159 200.071 145.987 199.904 145.799C199.738 145.61 199.571 145.449 199.405 145.316C200.237 144.972 201.036 144.551 201.801 144.051C202.578 143.541 203.282 142.975 203.915 142.354C204.558 141.733 205.085 141.073 205.496 140.374Z" fill="#F6EFE5"/>
</g>
<path d="M262.041 41.4763H252.643V48.1021H262.041V41.4763ZM262.041 40.0195V33.7227H252.643V40.0195H262.041ZM275.387 40.0195V33.7227H265.66V40.0195H275.387ZM265.66 41.4763V48.1021H275.387V41.4763H265.66ZM274.964 32.3129L275.81 31.0912C275.873 30.9972 275.951 30.8719 276.045 30.7152C276.17 30.5586 276.264 30.4333 276.327 30.3393C276.389 30.2453 276.468 30.1513 276.562 30.0573C276.656 29.9634 276.734 29.9007 276.797 29.8694C276.891 29.8067 276.969 29.7754 277.032 29.7754C277.345 29.7754 278.081 30.308 279.24 31.3731C280.431 32.4069 281.026 33.0961 281.026 33.4407C280.713 33.848 280.086 34.1613 279.146 34.3806V39.7376C279.209 44.1861 279.319 47.6635 279.475 50.1697C279.287 50.4517 278.802 50.7649 278.019 51.1095C277.235 51.4228 276.562 51.5795 275.998 51.5795H275.387V49.4648H268.244C271.628 53.1302 277.345 55.746 285.396 57.3124L285.349 57.8293C283.845 58.1113 282.874 59.2547 282.436 61.2597C278.614 59.9126 275.356 58.1583 272.661 55.9967C272.568 56.0593 272.348 56.122 272.004 56.1846V61.7296C272.066 65.4576 272.192 130.645 272.38 134.06C272.192 134.373 271.753 134.687 271.064 135C270.375 135.313 269.717 135.47 269.09 135.47C268.746 135.47 268.479 135.36 268.291 135.141C268.135 134.953 268.056 134.734 268.056 134.483C268.182 133.042 268.276 131.241 268.338 129.079V64.2202C268.338 60.1476 268.135 56.8738 267.727 54.3989L271.487 54.9159C269.638 53.2242 268.166 51.4072 267.07 49.4648H262.37C261.055 51.4072 259.41 53.1772 257.436 54.7749C259.567 55.4328 260.632 55.9653 260.632 56.3726C260.632 56.5292 260.491 56.7015 260.209 56.8895L259.457 57.4064V60.2259C259.426 61.4163 259.3 62.5128 259.081 63.5153C258.862 64.4865 258.423 65.5203 257.765 66.6167C257.107 67.6819 256.246 68.653 255.181 69.5302C254.147 70.3761 252.737 71.1906 250.951 71.9738C249.166 72.757 247.082 73.4148 244.702 73.9474L244.326 73.2895C246.644 72.5063 248.586 71.6135 250.153 70.611C251.719 69.6085 252.894 68.5121 253.677 67.3216C254.46 66.1312 255.008 64.972 255.322 63.8442C255.635 62.7164 255.792 61.479 255.792 60.1319V55.9967C252.408 58.3149 248.132 60.2102 242.963 61.6826L242.587 60.8368C249.354 58.1739 254.366 54.3833 257.624 49.4648H252.643V50.6866C252.643 50.9372 252.314 51.2192 251.656 51.5325C250.998 51.8457 250.294 52.0024 249.542 52.0024C249.291 52.0024 249.072 51.9084 248.884 51.7204C248.727 51.5325 248.649 51.3132 248.649 51.0625C248.837 48.7756 248.962 46.4574 249.025 44.1078V40.1605C249.025 36.3072 248.805 33.0178 248.367 30.2923L252.925 32.3129H274.964Z" fill="#FFEFC5"/>
<path d="M228.738 40.2542L229.677 39.0324C229.771 38.9385 229.912 38.7505 230.1 38.4685C230.32 38.1866 230.476 37.9986 230.57 37.9046C230.696 37.7793 230.821 37.7167 230.946 37.7167C231.228 37.7167 231.917 38.2493 233.014 39.3144C234.11 40.3795 234.659 41.0844 234.659 41.429C234.408 41.8363 233.781 42.1026 232.779 42.2279C232.403 54.4457 231.244 61.5257 229.301 63.468C228.017 64.7211 226.278 65.3477 224.085 65.3477C224.085 63.938 223.788 63.0138 223.193 62.5752C222.597 61.98 221.188 61.5101 218.963 61.1655L219.01 60.3196C222.08 60.6329 224.085 60.7895 225.025 60.7895C225.777 60.7895 226.325 60.6016 226.67 60.2256C227.923 59.0665 228.753 52.8793 229.161 41.664H220.185C219.966 44.0449 219.606 46.2535 219.104 48.2898C218.634 50.2947 217.898 52.378 216.896 54.5396C215.925 56.6699 214.562 58.6436 212.807 60.4606C211.084 62.2776 209.017 63.844 206.605 65.1597L206.088 64.5018C208.563 62.5909 210.583 60.3039 212.15 57.6411C213.747 54.9469 214.844 52.378 215.439 49.9345C216.066 47.4596 216.488 44.7028 216.708 41.664H213.606C211.789 41.6953 209.894 41.9146 207.92 42.3218L206.605 39.8783C208.359 40.0663 210.489 40.1916 212.995 40.2542H216.802C216.864 39.0638 216.896 37.3564 216.896 35.1321V32.4066C216.896 31.3415 216.849 30.3703 216.755 29.4932C219.981 30.4017 221.595 31.0752 221.595 31.5138C221.595 31.6704 221.47 31.8271 221.219 31.9837L220.467 32.5006V35.2731C220.467 37.0588 220.404 38.7192 220.279 40.2542H228.738ZM194.246 40.9591L194.669 40.4892C198.679 40.8338 201.31 42.0086 202.563 44.0135C203.315 45.204 203.362 46.2221 202.704 47.068C202.109 47.8199 201.279 47.9452 200.214 47.4439C199.712 46.3475 198.882 45.204 197.723 44.0135C196.595 42.7918 195.436 41.7736 194.246 40.9591ZM198.757 53.6468L199.697 52.2841C199.759 52.1901 199.9 51.9864 200.12 51.6732C200.339 51.3599 200.496 51.1563 200.59 51.0623C200.715 50.9683 200.84 50.9213 200.966 50.9213C201.279 50.9213 202.062 51.4695 203.315 52.566C204.6 53.6311 205.242 54.336 205.242 54.6806C204.741 55.1819 203.973 55.5108 202.939 55.6674V64.8308C204.506 66.5538 206.276 67.6816 208.249 68.2142C210.223 68.7154 213.34 68.966 217.601 68.966C225.934 68.966 231.964 68.9034 235.692 68.7781V69.436C234.095 69.7806 233.202 70.8457 233.014 72.6314H217.648C213.293 72.6314 210.051 72.1771 207.92 71.2686C205.79 70.3601 203.926 68.5275 202.328 65.7706C200.699 67.8382 198.647 70.1095 196.172 72.5844C196.204 73.117 196.016 73.5086 195.609 73.7592L193.118 69.201C194.559 68.6371 196.689 67.572 199.509 66.0056V55.1035H197.441C196.376 55.1349 195.217 55.3542 193.964 55.7614L192.789 53.2709C193.917 53.4588 195.264 53.5842 196.83 53.6468H198.757Z" fill="#FFEFC5"/>
<path d="M200.966 50.5215C201.141 50.5215 201.319 50.5914 201.468 50.666C201.629 50.7467 201.814 50.8621 202.018 51.0049C202.425 51.2899 202.943 51.7096 203.57 52.2578C204.218 52.7948 204.716 53.2514 205.056 53.624C205.225 53.8099 205.364 53.9844 205.463 54.1455C205.556 54.2969 205.642 54.4831 205.642 54.6807V54.8467L205.524 54.9639C205.003 55.4852 204.26 55.8185 203.339 56.001V64.6719C204.833 66.2811 206.502 67.3269 208.347 67.8262C210.269 68.3144 213.345 68.5664 217.601 68.5664V68.9658C213.34 68.9658 210.223 68.7151 208.249 68.2139C206.276 67.6813 204.506 66.5538 202.939 64.8311V55.667C203.973 55.5103 204.741 55.1819 205.242 54.6807C205.242 54.3361 204.6 53.6314 203.315 52.5664C202.141 51.5389 201.379 50.9923 201.03 50.9277L200.966 50.9209C200.841 50.9209 200.715 50.9685 200.59 51.0625L200.508 51.1533C200.414 51.2649 200.285 51.438 200.12 51.6729L198.757 53.6465H196.83C195.264 53.5838 193.917 53.4585 192.789 53.2705L193.964 55.7617C195.217 55.3545 196.376 55.1348 197.441 55.1035H199.509V66.0059C196.689 67.5722 194.559 68.6373 193.118 69.2012L195.608 73.7588C196.016 73.5082 196.204 73.1165 196.173 72.584C198.648 70.1093 200.699 67.838 202.328 65.7705C203.926 68.5272 205.79 70.36 207.92 71.2686C209.917 72.1202 212.892 72.5727 216.844 72.626L217.647 72.6318H233.014L233.058 72.3047C233.317 70.7153 234.195 69.7586 235.692 69.4355V68.7783C231.964 68.9036 225.934 68.9658 217.601 68.9658V68.5664C225.933 68.5664 231.958 68.503 235.679 68.3779L236.093 68.3643V69.7588L235.776 69.8271C235.049 69.9841 234.51 70.2972 234.131 70.75C233.749 71.2059 233.499 71.8364 233.411 72.6729L233.374 73.0312H217.647C213.278 73.0312 209.97 72.5776 207.764 71.6367C205.664 70.7411 203.84 69.002 202.279 66.4688C200.727 68.3952 198.825 70.4884 196.572 72.7471C196.566 72.9969 196.52 73.2339 196.416 73.4502C196.286 73.722 196.08 73.9383 195.818 74.0996L195.46 74.3203L192.549 68.9941L192.973 68.8281C194.353 68.288 196.395 67.2706 199.108 65.7686V55.5039H197.441C196.425 55.5351 195.308 55.745 194.088 56.1416L193.752 56.251L193.603 55.9316L192.102 52.751L192.854 52.876C193.961 53.0604 195.291 53.1849 196.847 53.2471H198.547L199.367 52.0566C199.434 51.9561 199.577 51.7502 199.792 51.4434C200.008 51.1342 200.184 50.9019 200.307 50.7793L200.327 50.7598L200.35 50.7422C200.527 50.6095 200.734 50.5215 200.966 50.5215ZM220.467 35.2734V32.501L221.219 31.9834C221.469 31.8268 221.595 31.6703 221.595 31.5137C221.594 31.0751 219.981 30.4016 216.755 29.4932C216.849 30.3702 216.895 31.3413 216.896 32.4062V35.1318C216.896 37.3559 216.864 39.0635 216.802 40.2539H212.995C210.489 40.1912 208.359 40.0659 206.604 39.8779L207.92 42.3223C209.894 41.915 211.789 41.6954 213.606 41.6641H216.708C216.489 44.7028 216.066 47.4597 215.439 49.9346L215.321 50.3945C214.705 52.6998 213.647 55.1151 212.149 57.6406C210.583 60.3034 208.563 62.591 206.088 64.502L206.604 65.1602C209.017 63.8444 211.085 62.2779 212.808 60.4609C214.562 58.644 215.924 56.6702 216.896 54.54C217.898 52.3785 218.635 50.2949 219.104 48.29C219.606 46.2538 219.966 44.0449 220.186 41.6641H229.16C228.753 52.8793 227.923 59.0665 226.67 60.2256C226.325 60.6015 225.777 60.789 225.025 60.7891V60.3896C225.719 60.3896 226.136 60.2157 226.375 59.9551L226.398 59.9316C226.623 59.7242 226.886 59.2195 227.146 58.3047C227.398 57.4126 227.63 56.201 227.836 54.6631C228.238 51.6649 228.541 47.4671 228.744 42.0645H220.547C220.323 44.3244 219.974 46.4321 219.493 48.3857C219.016 50.4188 218.27 52.525 217.259 54.7051C216.268 56.8788 214.879 58.888 213.097 60.7344L213.098 60.7354C211.343 62.5855 209.241 64.1769 206.796 65.5107L206.499 65.6729L206.29 65.4072L205.773 64.749L205.523 64.4316L205.843 64.1855C208.278 62.3054 210.265 60.0567 211.805 57.4385L211.806 57.4375C213.388 54.7694 214.467 52.2369 215.051 49.8398V49.8359C215.641 47.5043 216.048 44.9143 216.273 42.0645H213.606C211.819 42.0957 209.95 42.3116 208.001 42.7139L207.709 42.7734L207.568 42.5117L206.252 40.0684L205.893 39.3994L206.647 39.4805C208.387 39.6669 210.507 39.792 213.006 39.8545H216.418C216.468 38.7 216.496 37.1265 216.496 35.1318V32.4062C216.496 31.3529 216.45 30.3964 216.357 29.5361L216.294 28.9482L216.863 29.1084C218.481 29.5638 219.71 29.9643 220.539 30.3105C220.951 30.4827 221.284 30.6491 221.52 30.8115C221.637 30.8925 221.747 30.9829 221.83 31.0859C221.912 31.1876 221.995 31.3332 221.995 31.5137C221.995 31.895 221.698 32.156 221.431 32.3232L220.867 32.71V35.2734C220.867 36.9024 220.812 38.4293 220.708 39.8545H228.541L229.36 38.7881L229.376 38.7676L229.395 38.75C229.457 38.6875 229.579 38.5304 229.768 38.2471L229.775 38.2344L229.784 38.2227C230.002 37.9426 230.173 37.7361 230.287 37.6221C230.456 37.4532 230.677 37.3164 230.946 37.3164L231.076 37.3301C231.205 37.3548 231.326 37.4108 231.427 37.4658C231.574 37.5464 231.738 37.6604 231.919 37.7998C232.281 38.0797 232.741 38.4908 233.293 39.0273C233.846 39.5651 234.273 40.0228 234.563 40.3965C234.709 40.583 234.827 40.7578 234.91 40.918C234.99 41.0706 235.059 41.2474 235.059 41.4287V41.542L234.999 41.6387C234.815 41.9371 234.516 42.1504 234.157 42.3027C233.878 42.4215 233.545 42.5096 233.166 42.5742C232.974 48.5327 232.595 53.2656 232.022 56.7656C231.731 58.5479 231.387 60.0209 230.989 61.1777C230.594 62.3266 230.133 63.2016 229.584 63.751L229.581 63.7539C228.206 65.0954 226.358 65.748 224.085 65.748H223.686V65.3477C223.686 63.9576 223.385 63.214 222.955 62.8975L222.931 62.8789L222.91 62.8584C222.678 62.6265 222.247 62.3844 221.562 62.1562C220.887 61.931 220.002 61.731 218.902 61.5605L218.544 61.5049L218.564 61.1436L218.611 60.2979L218.634 59.8789L219.051 59.9219C222.126 60.2356 224.11 60.3896 225.025 60.3896V60.7891L224.623 60.7822C223.568 60.748 221.697 60.5934 219.011 60.3193L218.963 61.165C221.187 61.5096 222.597 61.98 223.192 62.5752C223.788 63.0138 224.085 63.9379 224.085 65.3477C226.141 65.3477 227.798 64.7969 229.056 63.6953L229.302 63.4678C231.244 61.5251 232.403 54.4448 232.779 42.2275C233.782 42.1022 234.408 41.8359 234.658 41.4287C234.658 41.1271 234.238 40.55 233.399 39.6973L233.014 39.3145C231.917 38.2495 231.228 37.7169 230.946 37.7168C230.821 37.7168 230.696 37.7791 230.57 37.9043L230.382 38.1162C230.304 38.2101 230.21 38.3279 230.101 38.4688L229.854 38.8213C229.783 38.915 229.725 38.9853 229.678 39.0322L228.737 40.2539H220.279C220.373 39.1027 220.432 37.881 220.455 36.5889L220.467 35.2734ZM194.703 40.0908C198.751 40.4387 201.546 41.6327 202.901 43.7998C203.301 44.4323 203.535 45.0516 203.562 45.6514C203.591 46.2607 203.405 46.8196 203.021 47.3135L203.018 47.3164C202.667 47.7594 202.225 48.0411 201.695 48.1211C201.176 48.1994 200.619 48.077 200.043 47.8057L199.911 47.7432L199.85 47.6104C199.373 46.5682 198.575 45.462 197.437 44.293L197.429 44.2852C196.318 43.0825 195.182 42.0841 194.02 41.2891L193.643 41.0312L194.505 40.0732L194.703 40.0908ZM194.246 40.959C195.436 41.7735 196.596 42.7919 197.724 44.0137C198.883 45.204 199.713 46.348 200.214 47.4443C201.212 47.9142 202.004 47.8327 202.59 47.2012L202.704 47.0684C203.362 46.2226 203.315 45.2041 202.563 44.0137C201.31 42.0087 198.679 40.8339 194.669 40.4893L194.246 40.959Z" fill="#FFEFC5"/>
<path d="M149.053 53.0825V65.7702H158.028V53.0825H149.053ZM158.028 51.6728V39.6899H149.053V51.6728H158.028ZM152.155 38.2802H157.512L158.404 37.1994C158.498 37.1054 158.608 36.9801 158.733 36.8234C158.859 36.6355 158.953 36.4945 159.015 36.4005C159.109 36.3065 159.203 36.2282 159.297 36.1656C159.391 36.0716 159.485 36.0246 159.579 36.0246C159.892 36.0246 160.613 36.5102 161.741 37.4813C162.9 38.4212 163.48 39.0634 163.48 39.408C163.135 39.8152 162.477 40.1442 161.506 40.3948V58.0636C161.569 61.1651 161.709 64.94 161.929 69.3886C161.709 69.7019 161.224 70.0151 160.472 70.3284C159.752 70.673 159.094 70.8453 158.498 70.8453C158.06 70.8453 157.841 70.532 157.841 69.9055L158.028 68.4017V67.18H149.053V68.4487C149.147 69.8272 149.21 70.5947 149.241 70.7513C149.147 71.1273 148.787 71.4875 148.16 71.8321C147.565 72.1767 146.923 72.349 146.234 72.349C145.92 72.349 145.638 72.2551 145.388 72.0671C145.168 71.8791 145.059 71.6598 145.059 71.4092C145.341 67.3053 145.513 63.123 145.576 58.8625V46.1278C145.576 42.0865 145.372 38.7971 144.965 36.2595L149.241 38.2802H150.463C151.058 35.2414 151.387 32.2496 151.45 29.3048C155.209 30.2133 157.089 30.8712 157.089 31.2784C157.12 31.4038 156.995 31.5291 156.713 31.6544L155.867 32.0303C154.394 34.6305 153.157 36.7138 152.155 38.2802ZM170.528 38.2332H179.88L180.819 37.0584C181.54 36.2126 181.994 35.7896 182.182 35.7896C182.495 35.7896 183.216 36.3065 184.344 37.3404C185.472 38.3742 186.035 39.0634 186.035 39.408C185.691 39.8152 185.017 40.0815 184.015 40.2068C183.858 49.6678 183.529 56.9045 183.028 61.9169C182.527 66.898 181.744 70.0621 180.678 71.4092C179.331 73.0069 177.405 73.8058 174.898 73.8058C174.898 72.3334 174.601 71.3622 174.006 70.8923C173.348 70.2971 171.781 69.7645 169.306 69.2946L169.353 68.4487C172.518 68.7933 174.71 68.9656 175.932 68.9656C176.715 68.9656 177.279 68.7463 177.624 68.3078C179.128 66.8354 180.036 57.2804 180.349 39.6429H169.87C167.771 43.7782 165.422 47.1459 162.822 49.7461L162.164 49.3232C163.636 46.8796 165.077 43.6372 166.487 39.5959C167.803 35.9619 168.523 32.5159 168.649 29.2578C172.345 30.323 174.194 31.0748 174.194 31.5134C174.194 31.6074 174.068 31.717 173.818 31.8423L172.972 32.2183C172.565 33.4714 171.75 35.4764 170.528 38.2332ZM166.205 48.4304L166.628 48.1014C170.732 49.8244 173.316 52.0017 174.382 54.6332C175.039 56.2623 174.977 57.5467 174.194 58.4865C173.473 59.3324 172.58 59.3637 171.515 58.5805C171.421 58.5179 171.343 58.4552 171.28 58.3926C171.092 56.8575 170.497 55.1658 169.494 53.3175C168.523 51.4378 167.427 49.8088 166.205 48.4304Z" fill="#FFEFC5"/>
<path d="M174.193 31.5137C174.193 31.0751 172.345 30.323 168.648 29.2578C168.523 32.5158 167.803 35.9618 166.487 39.5957L166.111 39.46C167.416 35.8578 168.126 32.4522 168.249 29.2422L168.269 28.7324L168.76 28.873C170.612 29.4066 172.014 29.8659 172.958 30.25C173.428 30.441 173.801 30.6202 174.063 30.7891C174.194 30.873 174.314 30.9651 174.405 31.0674C174.492 31.1648 174.594 31.3171 174.594 31.5137C174.594 31.7388 174.45 31.891 174.363 31.9668C174.263 32.0541 174.134 32.1311 173.996 32.2002L173.98 32.208L173.294 32.5127C172.895 33.7013 172.174 35.4767 171.139 37.833H179.688L180.515 36.7988C180.878 36.3719 181.184 36.0415 181.428 35.8145C181.549 35.7015 181.665 35.6054 181.771 35.5352C181.861 35.476 182.01 35.3896 182.183 35.3896L182.312 35.4014C182.439 35.4235 182.563 35.4739 182.672 35.5283C182.827 35.606 183.001 35.7168 183.19 35.8525C183.57 36.1246 184.046 36.5247 184.614 37.0459C185.183 37.5677 185.622 38.0129 185.922 38.3789C186.071 38.5617 186.194 38.7344 186.281 38.8936C186.364 39.0451 186.436 39.2234 186.436 39.4082V39.5547L186.341 39.666C185.945 40.1335 185.268 40.4072 184.408 40.5527C184.249 49.8511 183.923 56.9881 183.426 61.957C183.174 64.4576 182.851 66.5146 182.453 68.1221C182.058 69.7185 181.579 70.9147 180.992 71.6572L180.984 71.667C179.546 73.3729 177.497 74.2061 174.898 74.2061H174.498V73.8057C174.498 72.3505 174.197 71.5528 173.758 71.2061L173.747 71.1982L173.737 71.1885C173.47 70.9468 172.977 70.686 172.209 70.4248C171.45 70.1668 170.459 69.9206 169.231 69.6875L168.888 69.6221L168.978 68.0059L169.396 68.0508C172.562 68.3955 174.735 68.5654 175.933 68.5654V68.9658L175.429 68.958C174.147 68.9203 172.122 68.7508 169.354 68.4492L169.307 69.2949C171.781 69.7648 173.348 70.2974 174.006 70.8926C174.601 71.3626 174.898 72.3336 174.898 73.8057C177.248 73.8057 179.088 73.1035 180.419 71.6992L180.679 71.4092C181.677 70.1462 182.428 67.286 182.931 62.8291L183.028 61.917C183.53 56.9046 183.858 49.6679 184.015 40.207C185.017 40.0817 185.69 39.8153 186.035 39.4082C186.035 39.1067 185.604 38.5411 184.74 37.7119L184.344 37.3408C183.217 36.3075 182.496 35.7906 182.183 35.79C181.995 35.79 181.54 36.2127 180.819 37.0586L179.88 38.2334H170.528C171.75 35.4769 172.564 33.4719 172.972 32.2188L173.817 31.8428C174.036 31.7333 174.16 31.6354 174.188 31.5498L174.193 31.5137ZM151.544 28.916C153.427 29.371 154.852 29.7659 155.812 30.1016C156.288 30.2685 156.667 30.4273 156.934 30.5781C157.065 30.6528 157.188 30.7361 157.283 30.8311C157.365 30.9127 157.468 31.0483 157.484 31.2314C157.52 31.456 157.413 31.6365 157.301 31.749C157.187 31.863 157.033 31.9495 156.875 32.0195L156.148 32.3418C154.886 34.5684 153.794 36.4142 152.877 37.8799H157.323L158.096 36.9443L158.108 36.9297L158.121 36.917C158.199 36.839 158.295 36.7276 158.412 36.582C158.47 36.4959 158.522 36.4202 158.565 36.3545C158.612 36.2842 158.651 36.2256 158.683 36.1787L158.704 36.1455L158.732 36.1182C158.834 36.017 158.939 35.9274 159.049 35.8516C159.183 35.7279 159.36 35.625 159.579 35.625L159.704 35.6348C159.829 35.655 159.951 35.7025 160.061 35.7539C160.215 35.8266 160.389 35.9291 160.578 36.0566C160.957 36.3122 161.433 36.6881 162.002 37.1777C162.584 37.6498 163.033 38.0575 163.342 38.3994C163.497 38.571 163.625 38.7363 163.716 38.8916C163.803 39.0402 163.88 39.2184 163.88 39.4082V39.5547L163.785 39.666C163.402 40.1191 162.751 40.4502 161.906 40.6982V48.9727C163.33 46.5778 164.732 43.4112 166.109 39.4639L166.111 39.46L166.487 39.5957L165.957 41.0742C164.717 44.4355 163.452 47.1852 162.164 49.3232L162.821 49.7461C165.421 47.1459 167.771 43.7778 169.87 39.6426H180.35C180.036 57.2796 179.128 66.8349 177.624 68.3076L177.484 68.4619C177.135 68.7976 176.618 68.9658 175.933 68.9658V68.5654C176.645 68.5654 177.068 68.3678 177.31 68.0605L177.325 68.04L177.344 68.0215C177.471 67.8972 177.625 67.6508 177.787 67.2324C177.946 66.8221 178.101 66.2805 178.249 65.6025C178.546 64.2469 178.809 62.3812 179.035 59.999C179.481 55.3105 179.783 48.6602 179.941 40.043H170.113C168.028 44.1067 165.695 47.4392 163.104 50.0293L162.877 50.2568L162.605 50.083L161.906 49.6328V58.0557L161.968 60.5039C162.044 63.0792 162.164 66.0344 162.328 69.3691L162.335 69.5059L162.257 69.6182C161.969 70.0292 161.393 70.3743 160.644 70.6885L160.645 70.6895C159.888 71.0514 159.17 71.2451 158.498 71.2451C158.171 71.245 157.874 71.1201 157.678 70.8398C157.5 70.5853 157.44 70.2529 157.44 69.9053V69.8809L157.443 69.8555L157.629 68.375V67.5801H149.453V68.4287C149.5 69.1137 149.538 69.6456 149.569 70.0254C149.602 70.4207 149.624 70.6231 149.634 70.6729L149.651 70.7607L149.629 70.8486C149.493 71.3923 149.005 71.8217 148.359 72.1777L148.36 72.1787C147.704 72.5585 146.993 72.749 146.233 72.749C145.834 72.749 145.467 72.6266 145.147 72.3867L145.128 72.3711C144.835 72.12 144.659 71.795 144.659 71.4092V71.3955L144.66 71.3818C144.941 67.2872 145.113 63.114 145.176 58.8623V46.1279C145.176 42.0975 144.973 38.8314 144.57 36.3232L144.449 35.5732L149.329 37.8799H150.13C150.682 34.9735 150.99 32.1124 151.05 29.2959L151.061 28.7988L151.544 28.916ZM158.028 53.082V65.7705H149.053V53.082H158.028ZM149.453 65.3701H157.629V53.4824H149.453V65.3701ZM166.783 47.7324C170.931 49.4739 173.629 51.7095 174.752 54.4834L174.873 54.7988C175.433 56.3631 175.36 57.7115 174.501 58.7422L174.498 58.7461C174.084 59.2319 173.583 59.5233 172.998 59.5439C172.432 59.5638 171.86 59.326 171.293 58.9121C171.183 58.8387 171.083 58.7612 170.997 58.6758L170.899 58.5781L170.883 58.4414C170.703 56.9705 170.129 55.3269 169.143 53.5078L169.139 53.501C168.181 51.6466 167.102 50.0455 165.905 48.6953L165.623 48.377L165.959 48.1143L166.383 47.7861L166.567 47.6416L166.783 47.7324ZM166.205 48.4307C167.427 49.809 168.523 51.4379 169.494 53.3174C170.497 55.1657 171.092 56.8575 171.28 58.3926C171.343 58.4551 171.421 58.5176 171.515 58.5801C172.58 59.3633 173.473 59.3322 174.193 58.4863C174.928 57.6052 175.028 56.4215 174.496 54.9346L174.382 54.6328C173.317 52.0014 170.732 49.8245 166.628 48.1016L166.205 48.4307ZM158.028 39.6895V51.6729H149.053V39.6895H158.028ZM149.453 51.2725H157.629V40.0898H149.453V51.2725ZM145.576 58.8623C145.514 63.1229 145.341 67.3053 145.059 71.4092C145.059 71.6598 145.168 71.8794 145.388 72.0674C145.638 72.2553 145.92 72.3486 146.233 72.3486C146.923 72.3486 147.565 72.1766 148.16 71.832C148.708 71.5305 149.053 71.2171 149.193 70.8916L149.241 70.751C149.21 70.5937 149.147 69.8264 149.053 68.4492V67.1797H158.028V68.4014L157.841 69.9053L157.851 70.126C157.895 70.5714 158.085 70.8101 158.419 70.8418L158.498 70.8457C159.093 70.8457 159.751 70.6727 160.472 70.3281C161.13 70.054 161.584 69.78 161.834 69.5059L161.929 69.3887C161.709 64.9401 161.569 61.1649 161.506 58.0635V40.3945C162.477 40.1439 163.135 39.8154 163.479 39.4082C163.479 39.0636 162.9 38.4211 161.741 37.4814C160.613 36.5103 159.892 36.0244 159.579 36.0244C159.485 36.0244 159.391 36.0721 159.297 36.166C159.203 36.2286 159.109 36.3067 159.016 36.4004L158.733 36.8232C158.608 36.9799 158.498 37.1052 158.404 37.1992L157.512 38.2803H152.154C153.157 36.7139 154.395 34.6305 155.867 32.0303L156.713 31.6543C156.995 31.529 157.12 31.4036 157.089 31.2783C157.088 30.8711 155.208 30.2131 151.449 29.3047C151.387 32.2495 151.058 35.2415 150.463 38.2803H149.241L144.965 36.2598C145.372 38.7973 145.576 42.0868 145.576 46.1279V58.8623Z" fill="#FFEFC5"/>
<path d="M116.971 41.1467V53.9284H129.565V41.1467H116.971ZM100.618 41.1467V53.9284H113.165V41.1467H100.618ZM116.971 39.7369H129.095L129.988 38.6091C130.645 37.8886 131.068 37.5283 131.256 37.5283C131.57 37.5283 132.337 37.9982 133.559 38.9381C134.781 39.8779 135.392 40.5201 135.392 40.8647C135.016 41.366 134.358 41.7106 133.418 41.8985V47.3495C133.481 51.0149 133.606 54.5392 133.794 57.9226C133.575 58.2359 133.073 58.5492 132.29 58.8625C131.507 59.1757 130.802 59.3324 130.176 59.3324C129.643 59.3324 129.377 59.0034 129.377 58.3456L129.565 56.6539V55.3381H116.971V61.0241C117.034 64.94 117.159 68.6367 117.347 72.1141C117.159 72.5213 116.705 72.9129 115.984 73.2889C115.264 73.6961 114.559 73.8998 113.869 73.8998C113.525 73.8998 113.243 73.7901 113.024 73.5708C112.804 73.3829 112.695 73.1636 112.695 72.9129C112.945 68.7464 113.102 64.9557 113.165 61.541V55.3381H100.618V56.4189C100.712 57.5467 100.775 58.1889 100.806 58.3456C100.712 58.6902 100.305 59.0504 99.5841 59.4264C98.8635 59.771 98.1273 59.9433 97.3755 59.9433C97.0935 59.9433 96.8742 59.8493 96.7176 59.6613C96.561 59.4734 96.4826 59.2541 96.4826 59.0034C96.6079 57.2178 96.7176 54.7742 96.8116 51.6728V47.4905C96.8116 43.4493 96.6079 40.1598 96.2007 37.6223L100.947 39.7369H113.165V39.126C113.165 35.0848 112.961 31.7954 112.554 29.2578C116.313 30.229 118.208 30.9495 118.24 31.4194C118.24 31.5447 118.099 31.7014 117.817 31.8893L116.971 32.4532V39.7369Z" fill="#FFEFC5"/>
<path d="M118.24 31.4199C118.207 30.95 116.312 30.2296 112.554 29.2588C112.961 31.7963 113.165 35.0857 113.165 39.127V39.7383H100.947L96.2007 37.623C96.6079 40.1605 96.812 43.4501 96.812 47.4912V51.6738C96.718 54.7752 96.6082 57.2192 96.4829 59.0049L96.4858 59.0967C96.5029 59.3091 96.5803 59.4976 96.7173 59.6621C96.8544 59.8266 97.0398 59.9189 97.2729 59.9395L97.3755 59.9443C98.0333 59.9443 98.6792 59.8126 99.313 59.5488L99.5845 59.4277C100.215 59.0988 100.606 58.7815 100.756 58.4766L100.806 58.3467C100.775 58.19 100.712 57.5477 100.618 56.4199V55.3389H113.165V61.542C113.102 64.9567 112.945 68.7475 112.695 72.9141L112.7 73.0068C112.724 73.2191 112.832 73.4079 113.024 73.5723C113.216 73.764 113.456 73.8716 113.744 73.8955L113.87 73.9004C114.559 73.9004 115.263 73.6972 115.984 73.29C116.615 72.961 117.042 72.6197 117.264 72.2666L117.347 72.1152C117.159 68.638 117.034 64.9412 116.971 61.0254V55.3389H129.565V56.6553L129.376 58.3467L129.389 58.5781C129.447 59.0815 129.71 59.3329 130.175 59.333C130.724 59.333 131.332 59.2136 132 58.9736L132.291 58.8633C132.976 58.5892 133.445 58.3151 133.699 58.041L133.793 57.9238C133.605 54.5405 133.481 51.0159 133.418 47.3506V41.8994C134.358 41.7114 135.016 41.3664 135.392 40.8652C135.392 40.5636 134.924 40.0342 133.989 39.2773L133.559 38.9395C132.337 37.9996 131.57 37.5293 131.256 37.5293C131.068 37.5293 130.646 37.8898 129.988 38.6104L129.095 39.7383H116.971V32.4541L117.817 31.8906C118.064 31.7261 118.202 31.5853 118.233 31.4688L118.24 31.4199ZM113.165 41.1475V53.9297H100.618V41.1475H113.165ZM129.565 41.1475V53.9297H116.971V41.1475H129.565ZM117.371 53.5293H129.165V41.5479H117.371V53.5293ZM101.018 53.5293H112.764V41.5479H101.018V53.5293ZM118.64 31.4199C118.64 31.6298 118.526 31.7941 118.431 31.8994C118.329 32.0128 118.193 32.12 118.039 32.2227L117.371 32.668V39.3379H128.901L129.674 38.3623L129.683 38.3506L129.692 38.3408C130.025 37.976 130.308 37.6912 130.539 37.4951C130.653 37.3975 130.764 37.3133 130.868 37.252C130.96 37.1977 131.099 37.1289 131.256 37.1289C131.419 37.1289 131.587 37.1862 131.736 37.251C131.894 37.3199 132.075 37.4183 132.276 37.541C132.677 37.7868 133.188 38.1487 133.803 38.6221C134.42 39.0966 134.897 39.5066 135.223 39.8496C135.386 40.0207 135.52 40.1854 135.617 40.3408C135.708 40.4889 135.791 40.6699 135.792 40.8652V40.999L135.711 41.1055C135.303 41.6498 134.651 42.0063 133.818 42.2178V47.3438L133.876 50.0625C133.947 52.755 134.052 55.3679 134.193 57.9014L134.201 58.04L134.122 58.1533C133.829 58.5715 133.226 58.9196 132.439 59.2344C131.624 59.5604 130.867 59.7334 130.175 59.7334C129.822 59.7333 129.493 59.6197 129.265 59.3379C129.05 59.0722 128.977 58.7189 128.977 58.3467V58.3242L128.979 58.3027L129.165 56.6357V55.7393H117.371V61.0186C117.433 64.9301 117.559 68.622 117.747 72.0938L117.751 72.1924L117.71 72.2822C117.466 72.8127 116.912 73.2569 116.169 73.6445L116.168 73.6436C115.404 74.0736 114.636 74.3008 113.87 74.3008C113.442 74.3008 113.063 74.1635 112.763 73.875C112.47 73.624 112.294 73.2997 112.294 72.9141V72.9023L112.295 72.8896C112.546 68.7305 112.703 64.9481 112.765 61.542L112.764 55.7393H101.018V56.4082C101.112 57.5385 101.172 58.1417 101.198 58.2686L101.216 58.3604L101.192 58.4521C101.116 58.7292 100.928 58.9682 100.695 59.1748C100.458 59.3842 100.145 59.5859 99.769 59.7822L99.7563 59.7881C98.9854 60.1568 98.1907 60.3447 97.3755 60.3447C96.995 60.3447 96.6553 60.2116 96.4106 59.918C96.1927 59.6564 96.0826 59.3464 96.0825 59.0049V58.9902L96.0835 58.9766C96.2081 57.201 96.3178 54.7674 96.4116 51.6738V47.4912C96.4116 43.4608 96.2087 40.1947 95.8062 37.6865L95.689 36.957L101.033 39.3379H112.764V39.127C112.764 35.0964 112.561 31.8305 112.159 29.3223L112.062 28.7188L112.654 28.8711C114.537 29.3577 115.968 29.785 116.937 30.1533C117.419 30.3365 117.804 30.512 118.077 30.6807C118.213 30.7646 118.337 30.8563 118.433 30.959C118.525 31.0579 118.626 31.2044 118.639 31.3936L118.64 31.4072V31.4199Z" fill="#FFEFC5"/>
<path d="M78.1224 6.34386L79.0153 4.65216C79.0779 4.52685 79.1562 4.37021 79.2502 4.18225C79.3755 3.99428 79.4695 3.83764 79.5322 3.71233C79.5948 3.58702 79.6575 3.46171 79.7201 3.3364C79.8141 3.21109 79.8924 3.1171 79.9551 3.05445C80.0491 2.99179 80.1274 2.96047 80.1901 2.96047C80.5347 2.96047 81.3805 3.36773 82.7276 4.18225C84.106 4.96544 84.7952 5.51367 84.7952 5.82695C84.7952 6.32819 84.4349 6.64147 83.7144 6.76678L70.7917 9.02237C71.5123 11.0587 72.5304 12.8287 73.8462 14.3324C76.2271 12.4528 77.9658 10.5261 79.0623 8.55246C81.8504 10.4008 83.2602 11.5286 83.2915 11.9358C83.2915 12.0612 83.1349 12.1395 82.8216 12.1708H81.9287C80.5503 13.6432 78.655 15.0686 76.2428 16.447C77.7778 17.6062 79.6888 18.5303 81.9757 19.2195C82.8216 19.4702 83.3698 19.3605 83.6204 18.8906C84.247 17.6375 84.8265 16.2121 85.3591 14.6144L85.876 14.7083L85.4531 19.8774C86.205 20.4726 86.6592 20.9269 86.8159 21.2402C86.9725 21.5534 86.9882 21.9137 86.8629 22.321C86.2363 23.7307 84.247 23.856 80.8949 22.6969C77.6368 21.6004 74.9583 20.1437 72.8594 18.3267C68.4422 20.363 63.931 21.7727 59.3258 22.5559L59.0909 21.8511C63.3201 20.504 67.2674 18.6713 70.9327 16.3531C69.2097 14.3481 67.9566 12.1081 67.1734 9.63326L61.2995 10.6201L60.6886 9.30432L66.7975 8.27051C66.1083 5.67031 65.701 2.91347 65.5757 0C68.7398 0.125311 70.3218 0.375932 70.3218 0.751864C70.3218 0.877175 70.2122 1.01815 69.9929 1.17479L69.335 1.6917C69.429 3.91596 69.7423 5.92093 70.2748 7.70661L78.1224 6.34386ZM47.7189 10.7141H48.3768C49.9118 16.4784 49.5829 20.316 47.39 22.227C46.4501 23.0728 45.6043 23.2295 44.8524 22.6969C44.1006 22.1643 43.9596 21.4125 44.4295 20.4413C44.6175 20.0341 44.9307 19.6268 45.3693 19.2195C45.9646 18.5617 46.5128 17.4652 47.014 15.9301C47.5153 14.3637 47.7502 12.6251 47.7189 10.7141ZM54.8146 17.7158C56.1931 14.6457 57.0232 11.9045 57.3052 9.49229C60.2187 10.9334 61.6754 11.8575 61.6754 12.2648C61.6754 12.3901 61.5344 12.4997 61.2525 12.5937L60.4066 12.8287C58.4956 15.5542 56.6003 17.8724 54.7206 19.7834C54.6267 22.7596 54.3447 25.5164 53.8748 28.0539C57.2895 29.7456 59.3102 31.7819 59.9367 34.1628C60.344 35.6352 60.1403 36.716 59.3258 37.4053C58.6053 37.9692 57.7908 37.8595 56.8823 37.0763C56.6943 34.6954 55.5978 32.1265 53.5929 29.3697C52.935 32.5964 51.8855 35.4003 50.4444 37.7812C49.0347 40.1621 47.0454 42.2297 44.4765 43.9841L43.9126 43.1382C47.014 40.0681 49.0503 36.3088 50.0215 31.8602C50.9927 27.4117 51.4939 21.2715 51.5252 13.4396C51.5252 7.29935 51.3059 2.86648 50.8673 0.140975C54.4074 0.485579 56.1774 0.877175 56.1774 1.31576C56.1774 1.44107 56.0364 1.58205 55.7545 1.73869L54.9556 2.25559C54.8616 12.1551 54.8146 17.3085 54.8146 17.7158ZM78.4984 25.7983L79.5792 24.3416C79.6731 24.2476 79.7828 24.1223 79.9081 23.9657C80.0334 23.7777 80.1274 23.6367 80.1901 23.5428C80.284 23.4174 80.378 23.3078 80.472 23.2138C80.566 23.0885 80.66 22.9945 80.7539 22.9319C80.8479 22.8692 80.9263 22.8379 80.9889 22.8379C81.3022 22.8379 82.0384 23.3548 83.1975 24.3886C84.388 25.3911 84.9832 26.0646 84.9832 26.4092C84.8892 26.9105 84.4663 27.1611 83.7144 27.1611H76.7127V39.003C76.7127 39.3476 76.7753 39.5825 76.9006 39.7078C77.0573 39.8018 77.3862 39.8488 77.8875 39.8488H80.472C81.8191 39.8488 82.6179 39.8331 82.8686 39.8018C83.2445 39.7705 83.4951 39.5669 83.6204 39.1909C83.965 38.4077 84.4506 36.3871 85.0772 33.129H85.6881L85.782 39.3789C86.5966 39.6922 87.0038 40.2247 87.0038 40.9766C87.0038 41.7598 86.5339 42.3237 85.5941 42.6683C84.6542 43.0129 82.8686 43.1852 80.237 43.1852H76.9476C75.3813 43.1852 74.3474 42.9502 73.8462 42.4803C73.3763 42.0417 73.1413 41.1802 73.1413 39.8958V27.1611H68.8651C68.4892 31.7663 67.3457 35.3846 65.4347 38.0161C63.555 40.6477 60.4066 42.7153 55.9894 44.219L55.8015 43.5611C59.1848 41.6815 61.5344 39.4885 62.8502 36.9823C64.1973 34.4761 64.9648 31.2024 65.1528 27.1611H63.0851C62.0513 27.1924 60.8609 27.4274 59.5138 27.866L58.245 25.3754C60.344 25.5947 62.4899 25.7357 64.6828 25.7983H78.4984Z" fill="#FF3B00"/>
<path d="M35.7578 25.0544L36.1807 24.7255C39.0942 25.5714 40.8172 26.8558 41.3498 28.5788C41.6631 29.6753 41.4438 30.4898 40.6919 31.0224C40.0027 31.5236 39.2665 31.4453 38.4833 30.7874C38.452 29.8476 38.17 28.8451 37.6374 27.78C37.1049 26.7148 36.4783 25.8063 35.7578 25.0544ZM2.62876 32.5261H3.33363C4.96267 38.1024 4.90002 41.9087 3.14567 43.945C2.36248 44.8535 1.57928 45.1042 0.796092 44.6969C0.0442273 44.2896 -0.175066 43.6004 0.13821 42.6293C0.263521 42.1594 0.529806 41.6894 0.937066 41.2195C1.40698 40.5303 1.82991 39.3712 2.20584 37.7422C2.58177 36.0818 2.72274 34.3431 2.62876 32.5261ZM16.6792 55.364H17.4311C18.0263 57.8702 18.042 60.0475 17.4781 61.8958C16.9142 63.7128 16.084 65.0286 14.9875 65.8431C14.4236 66.313 13.7658 66.5323 13.0139 66.501C12.2934 66.501 11.7921 66.2034 11.5102 65.6081C11.2909 65.1382 11.2909 64.6526 11.5102 64.1514C11.7608 63.6502 12.168 63.2272 12.7319 62.8826C13.7344 62.2874 14.6273 61.2849 15.4105 59.8752C16.225 58.4654 16.6479 56.9617 16.6792 55.364ZM21.2374 56.0219L21.8953 55.8339C24.3702 58.2461 25.5136 60.674 25.3257 63.1176C25.2004 64.5273 24.6991 65.4045 23.8219 65.7491C23.1014 66.0311 22.4435 65.7648 21.8483 64.9502C22.3182 62.0681 22.1146 59.092 21.2374 56.0219ZM27.0644 55.9749L27.6752 55.6459C31.0273 57.6196 32.9696 59.8438 33.5022 62.3187C33.7841 63.7911 33.5178 64.8406 32.7033 65.4672C32.0141 65.9997 31.2466 65.8587 30.4008 65.0442C30.3381 63.6971 29.9778 62.1777 29.3199 60.4861C28.6621 58.7944 27.9102 57.2906 27.0644 55.9749ZM33.5962 55.317L34.1131 55.035C38.405 57.0087 41.0991 59.3896 42.1956 62.1777C42.8535 63.8381 42.8065 65.1069 42.0546 65.9841C41.3028 66.7673 40.4099 66.7516 39.3761 65.9371C39.1255 64.308 38.4363 62.5224 37.3085 60.58C36.212 58.6377 34.9746 56.8834 33.5962 55.317ZM15.7864 32.8081C15.4731 33.0587 15.0189 33.1213 14.4236 32.996C12.7319 35.1576 11.0716 37.0843 9.44253 38.776L9.25457 38.635C9.16058 43.2402 8.86297 47.2658 8.36173 50.7118C10.0534 51.5577 11.4005 52.5758 12.403 53.7663C18.9505 49.0358 22.9291 41.2822 24.3388 30.5055H19.7337C19.7023 30.6308 19.1698 31.8995 18.136 34.3118C20.6422 34.7817 22.0833 35.6902 22.4592 37.0373C22.7098 37.8831 22.4905 38.4784 21.8013 38.823C21.3001 39.1049 20.7518 39.0579 20.1566 38.682C19.718 37.4915 18.8722 36.3794 17.6191 35.3456C17.0552 36.5674 16.2093 38.1024 15.0815 39.9508C17.7444 40.64 19.2951 41.7364 19.7337 43.2402C20.0156 44.18 19.812 44.8692 19.1228 45.3078C18.5276 45.6837 17.8853 45.6054 17.1961 45.0728C16.9768 43.6004 16.0997 42.128 14.5646 40.6556C13.3428 42.3787 12.1054 43.8197 10.8523 44.9789L10.1944 44.5089C12.3247 41.3762 14.1887 37.4759 15.7864 32.8081ZM31.1056 35.1106C31.3876 30.2235 31.2466 26.0099 30.6827 22.4699C34.0661 22.7832 35.7734 23.1591 35.8048 23.5977C35.8048 23.723 35.6795 23.864 35.4288 24.0206L34.724 24.4906C34.6613 28.8451 34.536 32.3851 34.348 35.1106H37.1205L38.0134 33.7479C38.076 33.6539 38.17 33.5286 38.2953 33.3719C38.4206 33.184 38.5146 33.043 38.5773 32.949C38.6713 32.8237 38.7652 32.7141 38.8592 32.6201C38.9532 32.4948 39.0315 32.4165 39.0942 32.3851C39.1882 32.3225 39.2665 32.2911 39.3291 32.2911C39.6111 32.2911 40.269 32.7924 41.3028 33.7949C42.3679 34.766 42.9005 35.4239 42.9005 35.7685C42.8692 36.2384 42.4776 36.4734 41.7257 36.4734H34.818C35.5698 39.8568 36.6976 42.8486 38.2013 45.4488C39.7051 48.0176 41.5377 49.8973 43.6993 51.0877L43.6524 51.6047C42.2113 51.9493 41.2558 53.1084 40.7859 55.082C37.2458 51.73 34.9902 45.9813 34.0191 37.8361C33.4552 41.8461 32.2178 45.1981 30.3068 47.8923C28.3958 50.5865 25.2787 52.8734 20.9555 54.7531L20.4385 53.9542C23.9786 51.9179 26.5161 49.5214 28.0512 46.7645C29.6176 43.9764 30.6044 40.546 31.0116 36.4734H26.6414L26.5944 36.2384C25.498 40.311 23.8846 43.8667 21.7543 46.9055C19.624 49.9443 16.6949 52.4662 12.9669 54.4711C14.126 56.1315 14.4236 57.5726 13.8597 58.7944C13.4525 59.7029 12.7946 59.9848 11.8861 59.6402C11.6355 59.5149 11.3692 59.3426 11.0872 59.1233C10.8366 57.087 9.84979 54.7688 8.12677 52.1686C6.93632 58.4341 4.46143 63.2116 0.702108 66.501L0.0442272 65.7491C2.45646 62.6163 4.00718 58.81 4.69639 54.3302C5.41692 49.819 5.77719 43.6004 5.77719 35.6745C5.77719 29.6596 5.5579 25.2894 5.11931 22.5639C8.65934 23.4724 10.445 24.1616 10.4763 24.6315C10.4763 24.7568 10.351 24.9135 10.1004 25.1014L9.34855 25.7123L9.25457 37.6952C10.5077 34.8757 11.2439 32.0875 11.4632 29.3307L15.9274 32.4321C15.9587 32.3695 15.99 32.2598 16.0213 32.1032C16.084 31.9465 16.131 31.8212 16.1623 31.7272C17.2275 27.8739 17.76 24.6315 17.76 22C21.1121 22.8145 22.7881 23.4254 22.7881 23.8327C22.7881 23.958 22.6472 24.0833 22.3652 24.2086L21.5663 24.5845C21.0651 26.3702 20.6108 27.8583 20.2036 29.0487H24.0569L24.9027 28.1089C24.9967 28.0149 25.122 27.8739 25.2787 27.686C25.4666 27.4667 25.6076 27.31 25.7016 27.2161C25.8269 27.1221 25.9522 27.0751 26.0775 27.0751C26.3595 27.0751 26.9704 27.5293 27.9102 28.4378C28.8814 29.315 29.3669 29.9259 29.3669 30.2705C29.085 30.6151 28.5211 30.8344 27.6752 30.9284C27.4559 32.2442 27.174 33.6382 26.8294 35.1106H31.1056Z" fill="#FF4209"/>
<defs>
<filter id="filter0_d_1763_421" x="0.432617" y="102.954" width="208.228" height="45.4775" filterUnits="userSpaceOnUse" color-interpolation-filters="sRGB">
<feFlood flood-opacity="0" result="BackgroundImageFix"/>
<feColorMatrix in="SourceAlpha" type="matrix" values="0 0 0 0 0 0 0 0 0 0 0 0 0 0 0 0 0 0 127 0" result="hardAlpha"/>
<feOffset/>
<feGaussianBlur stdDeviation="1"/>
<feComposite in2="hardAlpha" operator="out"/>
<feColorMatrix type="matrix" values="0 0 0 0 0 0 0 0 0 0 0 0 0 0 0 0 0 0 0.25 0"/>
<feBlend mode="normal" in2="BackgroundImageFix" result="effect1_dropShadow_1763_421"/>
<feBlend mode="normal" in="SourceGraphic" in2="effect1_dropShadow_1763_421" result="shape"/>
</filter>
</defs>
</svg>
