<svg width="281" height="163" viewBox="0 0 281 163" fill="none" xmlns="http://www.w3.org/2000/svg">
<path d="M14.6219 115.021H15.9866V121.578H14.6219V115.021ZM9.01366 116.202L10.1453 115.753C10.4559 116.141 10.7555 116.563 11.044 117.018C11.3324 117.462 11.5931 117.905 11.8261 118.349C12.0591 118.782 12.2366 119.176 12.3587 119.531L11.1604 120.08C11.0384 119.714 10.8664 119.309 10.6446 118.865C10.4227 118.41 10.1675 117.95 9.87903 117.484C9.60167 117.018 9.31321 116.591 9.01366 116.202ZM20.3301 115.603L21.6781 116.053C21.434 116.53 21.1733 117.018 20.8959 117.517C20.6296 118.005 20.3578 118.482 20.0804 118.948C19.8031 119.414 19.5368 119.825 19.2816 120.18L18.1999 119.764C18.444 119.387 18.6992 118.959 18.9654 118.482C19.2317 117.994 19.4869 117.501 19.731 117.001C19.9751 116.491 20.1748 116.025 20.3301 115.603ZM9.24664 120.912H21.4617V130.348H20.147V122.16H9.24664V120.912ZM9.79582 124.573H20.6463V125.771H9.79582V124.573ZM8.91381 128.368H20.8127V129.616H8.91381V128.368ZM28.4013 115.021H29.5829V116.718H28.4013V115.021ZM25.0563 116.269H32.8946V117.168H25.0563V116.269ZM32.8281 117.55H38.0037V118.616H32.8281V117.55ZM25.5889 121.212H31.3303V122.06H25.5889V121.212ZM27.1033 118.632V119.764H30.8144V118.632H27.1033ZM26.0549 117.867H31.9294V120.513H26.0549V117.867ZM31.0141 121.212H31.2637L31.4801 121.145L32.1457 121.694C31.7463 122.016 31.2748 122.327 30.7312 122.626C30.1987 122.915 29.6828 123.153 29.1835 123.342C29.1169 123.253 29.0226 123.148 28.9006 123.026C28.7897 122.904 28.6953 122.809 28.6177 122.743C29.0504 122.576 29.4886 122.371 29.9324 122.127C30.3873 121.872 30.7478 121.633 31.0141 121.411V121.212ZM28.4013 122.626H29.5663V125.455C29.5663 125.733 29.5274 125.943 29.4498 126.088C29.3721 126.221 29.2279 126.326 29.0171 126.404C28.7952 126.482 28.5123 126.526 28.1684 126.537C27.8244 126.548 27.3862 126.554 26.8537 126.554C26.8315 126.409 26.7815 126.26 26.7039 126.104C26.6373 125.938 26.5707 125.788 26.5042 125.655C26.9036 125.666 27.2531 125.672 27.5526 125.672C27.8522 125.672 28.0519 125.672 28.1517 125.672C28.2627 125.661 28.3292 125.638 28.3514 125.605C28.3847 125.572 28.4013 125.511 28.4013 125.422V122.626ZM25.0231 123.608C25.6554 123.586 26.3877 123.558 27.2198 123.525C28.063 123.492 28.9561 123.458 29.8991 123.425C30.8421 123.381 31.7907 123.336 32.7449 123.292L32.7282 124.174C31.8074 124.218 30.8865 124.268 29.9657 124.324C29.0448 124.368 28.1684 124.412 27.3363 124.457C26.5153 124.49 25.7719 124.523 25.1063 124.557L25.0231 123.608ZM37.3879 117.55H38.5362C38.5251 119.237 38.5251 120.668 38.5362 121.844C38.5473 123.009 38.6028 123.897 38.7026 124.507C38.8025 125.117 38.9744 125.422 39.2185 125.422C39.3405 125.422 39.4182 125.206 39.4515 124.773C39.4959 124.34 39.5236 123.813 39.5347 123.192C39.6456 123.314 39.7732 123.447 39.9175 123.591C40.0728 123.725 40.2059 123.824 40.3169 123.891C40.2836 124.546 40.2281 125.067 40.1504 125.455C40.0728 125.833 39.9563 126.104 39.801 126.271C39.6456 126.426 39.4182 126.504 39.1187 126.504C38.6749 126.504 38.3365 126.321 38.1035 125.955C37.8705 125.577 37.7041 125.017 37.6043 124.274C37.5044 123.519 37.4434 122.582 37.4212 121.461C37.399 120.341 37.3879 119.037 37.3879 117.55ZM32.5119 120.812L33.1443 119.98C33.6324 120.28 34.1317 120.624 34.642 121.012C35.1524 121.389 35.6294 121.772 36.0732 122.16C36.517 122.537 36.872 122.892 37.1383 123.225L36.4726 124.174C36.2174 123.841 35.868 123.475 35.4242 123.076C34.9915 122.676 34.52 122.277 34.0096 121.877C33.4993 121.478 33 121.123 32.5119 120.812ZM29.8325 127.369L30.9975 127.269C31.1084 127.713 31.1972 128.196 31.2637 128.717C31.3414 129.239 31.3858 129.677 31.3969 130.032L30.1487 130.198C30.1487 129.832 30.121 129.383 30.0655 128.85C30.01 128.318 29.9324 127.824 29.8325 127.369ZM33.2441 127.336L34.409 127.136C34.6198 127.569 34.8195 128.051 35.0081 128.584C35.2078 129.105 35.341 129.549 35.4075 129.915L34.1594 130.165C34.0928 129.799 33.9763 129.349 33.8099 128.817C33.6435 128.284 33.4549 127.791 33.2441 127.336ZM36.689 127.286L37.8705 126.886C38.1368 127.197 38.4031 127.536 38.6693 127.902C38.9467 128.257 39.2019 128.612 39.4349 128.967C39.6789 129.322 39.8731 129.638 40.0173 129.915L38.7692 130.348C38.636 130.071 38.453 129.754 38.22 129.399C37.9981 129.044 37.754 128.684 37.4878 128.318C37.2326 127.94 36.9663 127.597 36.689 127.286ZM27.0034 126.936L28.185 127.253C27.952 127.818 27.6525 128.384 27.2863 128.95C26.9313 129.505 26.543 129.971 26.1214 130.348L24.9731 129.865C25.3836 129.533 25.7719 129.1 26.1381 128.567C26.5042 128.035 26.7926 127.491 27.0034 126.936ZM34.6587 115.021H35.7404V118.715C35.7404 119.403 35.696 120.102 35.6072 120.812C35.5296 121.511 35.3632 122.205 35.108 122.892C34.8639 123.58 34.4978 124.246 34.0096 124.889C33.5215 125.533 32.8669 126.132 32.0459 126.687C31.946 126.565 31.8129 126.432 31.6465 126.287C31.4912 126.132 31.3469 126.004 31.2138 125.905C31.9793 125.383 32.5895 124.828 33.0444 124.24C33.5104 123.641 33.8599 123.031 34.0928 122.41C34.3258 121.789 34.4756 121.167 34.5422 120.546C34.6198 119.914 34.6587 119.303 34.6587 118.715V115.021ZM46.3578 125.422H47.5727V128.484C47.5727 128.717 47.6393 128.867 47.7724 128.933C47.9055 128.989 48.194 129.017 48.6378 129.017C48.7487 129.017 48.9429 129.017 49.2202 129.017C49.4976 129.017 49.8027 129.017 50.1355 129.017C50.4795 129.017 50.8012 129.017 51.1007 129.017C51.4003 129.017 51.6166 129.017 51.7498 129.017C52.0049 129.017 52.1936 128.978 52.3156 128.9C52.4487 128.811 52.543 128.634 52.5985 128.368C52.654 128.101 52.6928 127.702 52.715 127.169C52.8038 127.225 52.9092 127.286 53.0312 127.352C53.1643 127.419 53.303 127.475 53.4472 127.519C53.5915 127.563 53.7191 127.597 53.83 127.619C53.7856 128.295 53.6969 128.817 53.5637 129.183C53.4417 129.549 53.2475 129.799 52.9813 129.932C52.715 130.076 52.3433 130.148 51.8663 130.148C51.7775 130.148 51.6222 130.148 51.4003 130.148C51.1784 130.148 50.9232 130.148 50.6348 130.148C50.3463 130.148 50.0523 130.148 49.7528 130.148C49.4643 130.148 49.2091 130.148 48.9872 130.148C48.7653 130.148 48.6211 130.148 48.5546 130.148C47.9665 130.148 47.5117 130.098 47.1899 129.999C46.8682 129.91 46.6463 129.743 46.5243 129.499C46.4133 129.255 46.3578 128.917 46.3578 128.484V125.422ZM47.4728 124.856L48.2883 124.107C48.6655 124.274 49.0483 124.479 49.4366 124.723C49.836 124.956 50.2021 125.2 50.5349 125.455C50.8789 125.71 51.1562 125.955 51.367 126.188L50.485 127.02C50.2964 126.787 50.0357 126.543 49.7028 126.287C49.37 126.021 49.0094 125.766 48.6211 125.522C48.2328 125.267 47.85 125.045 47.4728 124.856ZM53.0645 125.771L54.0963 125.189C54.529 125.533 54.9561 125.921 55.3777 126.354C55.7993 126.776 56.1765 127.208 56.5093 127.652C56.8533 128.085 57.114 128.49 57.2915 128.867L56.1765 129.499C55.999 129.122 55.7494 128.717 55.4276 128.284C55.1059 127.841 54.7398 127.402 54.3293 126.97C53.9188 126.526 53.4972 126.127 53.0645 125.771ZM44.7602 117.634L45.7587 117.184C46.0361 117.506 46.3024 117.867 46.5575 118.266C46.8238 118.665 47.0124 119.015 47.1234 119.314L46.0583 119.797C45.9584 119.509 45.7809 119.159 45.5257 118.749C45.2817 118.338 45.0265 117.966 44.7602 117.634ZM44.2277 125.505L45.3427 125.888C45.1208 126.609 44.8268 127.319 44.4607 128.018C44.0946 128.706 43.5953 129.272 42.9629 129.716L41.9311 129.017C42.5302 128.628 43.0184 128.118 43.3956 127.486C43.7728 126.842 44.0502 126.182 44.2277 125.505ZM42.2806 119.531H56.9753V120.679H42.2806V119.531ZM48.9706 116.369H50.2021V124.24H48.9706V116.369ZM48.2217 119.947L49.2202 120.38C48.8652 120.868 48.4325 121.339 47.9222 121.794C47.4229 122.238 46.8848 122.659 46.3079 123.059C45.7421 123.458 45.1541 123.819 44.5439 124.141C43.9337 124.451 43.3346 124.712 42.7466 124.923C42.68 124.812 42.5968 124.695 42.4969 124.573C42.3971 124.451 42.2972 124.329 42.1974 124.207C42.0975 124.085 41.9977 123.985 41.8978 123.908C42.6855 123.664 43.4788 123.342 44.2776 122.942C45.0764 122.532 45.8198 122.071 46.5076 121.561C47.1955 121.04 47.7668 120.502 48.2217 119.947ZM50.951 119.964C51.3948 120.518 51.9606 121.045 52.6484 121.544C53.3474 122.033 54.0963 122.471 54.8951 122.859C55.705 123.236 56.5149 123.536 57.3248 123.758C57.236 123.835 57.1362 123.935 57.0252 124.057C56.9254 124.179 56.8255 124.307 56.7257 124.44C56.6369 124.562 56.5537 124.679 56.476 124.79C55.6772 124.523 54.8673 124.168 54.0463 123.725C53.2253 123.27 52.4598 122.759 51.7498 122.194C51.0508 121.628 50.4573 121.029 49.9691 120.396L50.951 119.964ZM54.529 115.054L55.644 115.936C54.8451 116.125 53.952 116.291 52.9646 116.435C51.9883 116.58 50.9565 116.702 49.8693 116.802C48.782 116.901 47.6836 116.985 46.5742 117.051C45.4758 117.118 44.4052 117.168 43.3623 117.201C43.3512 117.057 43.3124 116.885 43.2458 116.685C43.1903 116.485 43.1293 116.325 43.0628 116.202C44.0835 116.158 45.1319 116.103 46.2081 116.036C47.2842 115.969 48.3382 115.892 49.37 115.803C50.4018 115.703 51.3615 115.592 52.249 115.47C53.1366 115.337 53.8966 115.198 54.529 115.054ZM53.364 116.968L54.5955 117.384C54.3071 117.817 53.9964 118.255 53.6636 118.699C53.3418 119.131 53.0423 119.498 52.7649 119.797L51.8496 119.414C52.016 119.192 52.1936 118.937 52.3822 118.649C52.5708 118.36 52.7483 118.066 52.9147 117.767C53.0922 117.467 53.242 117.201 53.364 116.968ZM60.6032 117.7H65.6623V128.584H60.6032V127.452H64.514V118.815H60.6032V117.7ZM59.871 117.7H61.0193V129.899H59.871V117.7ZM60.52 122.327H65.1131V123.425H60.52V122.327ZM62.4172 114.988L63.7651 115.221C63.5987 115.742 63.4157 116.269 63.216 116.802C63.0274 117.334 62.8499 117.789 62.6834 118.166L61.6683 117.917C61.7681 117.639 61.8624 117.329 61.9512 116.985C62.051 116.641 62.1398 116.291 62.2175 115.936C62.3062 115.581 62.3728 115.265 62.4172 114.988ZM68.0421 117.65H73.1511V118.799H68.0421V117.65ZM72.7018 117.65H73.8834C73.8834 117.65 73.8834 117.689 73.8834 117.767C73.8834 117.844 73.8834 117.939 73.8834 118.05C73.8834 118.15 73.8778 118.227 73.8667 118.283C73.8001 120.191 73.7336 121.805 73.667 123.125C73.6115 124.446 73.5394 125.527 73.4507 126.371C73.3619 127.203 73.2565 127.852 73.1345 128.318C73.0235 128.784 72.8848 129.116 72.7184 129.316C72.5298 129.56 72.3301 129.727 72.1193 129.815C71.9196 129.915 71.67 129.982 71.3704 130.015C71.0931 130.037 70.727 130.043 70.2721 130.032C69.8283 130.032 69.3679 130.015 68.8908 129.982C68.8797 129.804 68.8353 129.599 68.7577 129.366C68.6911 129.133 68.5968 128.939 68.4748 128.784C69.0295 128.828 69.5288 128.856 69.9725 128.867C70.4274 128.878 70.7547 128.884 70.9544 128.884C71.1208 128.884 71.254 128.867 71.3538 128.834C71.4648 128.789 71.5701 128.712 71.67 128.601C71.8031 128.456 71.9196 128.162 72.0195 127.719C72.1304 127.264 72.2247 126.62 72.3024 125.788C72.38 124.956 72.4522 123.897 72.5187 122.61C72.5853 121.311 72.6463 119.747 72.7018 117.917V117.65ZM68.3749 114.954L69.5731 115.221C69.3734 116.053 69.1294 116.868 68.8409 117.667C68.5635 118.455 68.2529 119.198 67.909 119.897C67.5761 120.596 67.2211 121.212 66.8439 121.744C66.7662 121.678 66.6608 121.6 66.5277 121.511C66.4056 121.411 66.2781 121.323 66.1449 121.245C66.0118 121.156 65.8953 121.084 65.7954 121.029C66.1838 120.529 66.5388 119.958 66.8605 119.314C67.1823 118.66 67.4707 117.961 67.7259 117.218C67.9811 116.474 68.1974 115.72 68.3749 114.954ZM67.6094 121.961L68.5913 121.411C68.9019 121.8 69.2237 122.227 69.5565 122.693C69.9004 123.159 70.2166 123.608 70.5051 124.041C70.8046 124.473 71.0432 124.856 71.2207 125.189L70.1556 125.855C69.9892 125.511 69.7617 125.117 69.4733 124.673C69.1959 124.218 68.8908 123.758 68.558 123.292C68.2362 122.815 67.92 122.371 67.6094 121.961ZM76.8622 123.708H82.6203V129.749H81.4387V124.84H78.0105V130.132H76.8622V123.708ZM81.8714 115.071L82.8866 115.969C82.3318 116.18 81.6995 116.369 80.9894 116.535C80.2904 116.702 79.5638 116.851 78.8093 116.985C78.0549 117.107 77.3227 117.212 76.6126 117.301C76.5904 117.168 76.5405 117.007 76.4628 116.818C76.3852 116.619 76.3075 116.452 76.2299 116.319C76.9066 116.23 77.5945 116.119 78.2934 115.986C79.0035 115.853 79.6692 115.709 80.2904 115.553C80.9228 115.398 81.4498 115.237 81.8714 115.071ZM79.0922 116.469H80.3071V124.307H79.0922V116.469ZM84.2179 115.071H85.466V130.331H84.2179V115.071ZM89.0773 115.071H90.3254V130.265H89.0773V115.071ZM76.2299 119.731H83.0197V120.912H76.2299V119.731ZM82.7534 118.15H91.5403V119.348H82.7534V118.15ZM84.7837 123.092H89.743V124.274H84.7837V123.092ZM84.7837 128.201H89.743V129.399H84.7837V128.201ZM77.4281 128.001H82.121V129.133H77.4281V128.001ZM100.593 121.594H107.001V122.693H100.593V121.594ZM100.56 117.6H107.766V118.749H100.56V117.6ZM103.639 115.038H104.87V122.243H103.639V115.038ZM100.044 117.6H101.226V121.628C101.226 122.271 101.198 122.97 101.143 123.725C101.087 124.479 100.987 125.25 100.843 126.038C100.71 126.814 100.505 127.574 100.227 128.318C99.961 129.061 99.6005 129.738 99.1456 130.348C99.079 130.281 98.9847 130.204 98.8627 130.115C98.7406 130.037 98.6131 129.96 98.4799 129.882C98.3468 129.804 98.2303 129.743 98.1304 129.699C98.5742 129.111 98.9182 128.473 99.1622 127.785C99.4174 127.097 99.606 126.398 99.7281 125.688C99.8612 124.967 99.9444 124.257 99.9777 123.558C100.022 122.859 100.044 122.21 100.044 121.611V117.6ZM102.324 122.16C102.835 123.88 103.633 125.367 104.721 126.62C105.808 127.874 107.189 128.761 108.864 129.283C108.765 129.372 108.659 129.477 108.548 129.599C108.448 129.732 108.349 129.865 108.249 129.999C108.16 130.132 108.082 130.259 108.016 130.381C106.274 129.738 104.848 128.734 103.739 127.369C102.64 126.004 101.808 124.362 101.242 122.443L102.324 122.16ZM107.4 117.6H107.583L107.799 117.55L108.665 117.75C108.532 118.327 108.371 118.921 108.182 119.531C108.005 120.141 107.827 120.657 107.65 121.079L106.584 120.846C106.729 120.468 106.878 119.991 107.034 119.414C107.189 118.837 107.311 118.299 107.4 117.8V117.6ZM106.734 121.594H106.967L107.184 121.528L107.982 121.827C107.638 123.325 107.128 124.629 106.451 125.738C105.775 126.848 104.976 127.785 104.055 128.551C103.134 129.305 102.141 129.904 101.076 130.348C101.021 130.237 100.948 130.115 100.86 129.982C100.782 129.86 100.699 129.738 100.61 129.616C100.521 129.505 100.427 129.405 100.327 129.316C101.315 128.961 102.235 128.44 103.09 127.752C103.955 127.053 104.704 126.204 105.336 125.206C105.98 124.207 106.446 123.076 106.734 121.811V121.594ZM95.8172 123.192L96.9988 121.777V130.348H95.8172V123.192ZM93.5207 118.116H98.4134V119.248H93.5207V118.116ZM95.7673 115.071H96.9489V118.749H95.7673V115.071ZM96.8657 121.794C96.9877 121.905 97.1652 122.099 97.3982 122.377C97.6423 122.643 97.8975 122.937 98.1637 123.259C98.4411 123.58 98.6907 123.88 98.9126 124.157C99.1456 124.435 99.312 124.634 99.4119 124.756L98.663 125.605C98.5409 125.405 98.369 125.156 98.1471 124.856C97.9363 124.557 97.7033 124.24 97.4481 123.908C97.2041 123.575 96.9655 123.27 96.7325 122.992C96.5106 122.715 96.3331 122.499 96.2 122.343L96.8657 121.794ZM98.1138 118.116H98.3634L98.5798 118.066L99.2454 118.516C98.8682 119.481 98.3856 120.418 97.7976 121.328C97.2096 122.227 96.5661 123.053 95.8672 123.808C95.1682 124.551 94.4693 125.178 93.7703 125.688C93.7259 125.577 93.6649 125.45 93.5872 125.306C93.5207 125.161 93.443 125.028 93.3543 124.906C93.2766 124.773 93.1989 124.668 93.1213 124.59C93.7869 124.146 94.4415 123.597 95.085 122.942C95.7396 122.277 96.3331 121.55 96.8657 120.762C97.3982 119.975 97.8143 119.176 98.1138 118.366V118.116ZM98.9293 121.095L99.7114 121.661C99.4562 122.016 99.1844 122.377 98.896 122.743C98.6075 123.109 98.3412 123.419 98.0972 123.675L97.4648 123.209C97.6201 123.02 97.7865 122.804 97.964 122.56C98.1526 122.304 98.3301 122.049 98.4966 121.794C98.6741 121.528 98.8183 121.295 98.9293 121.095ZM110.712 128.784H125.639V129.799H110.712V128.784ZM110.811 117.966H125.556V118.998H110.811V117.966ZM111.96 126.337H124.591V127.336H111.96V126.337ZM117.485 116.286H118.733V129.266H117.485V116.286ZM123.276 115.121L123.942 116.086C123.199 116.219 122.355 116.341 121.412 116.452C120.48 116.552 119.499 116.641 118.467 116.718C117.435 116.785 116.398 116.846 115.355 116.901C114.312 116.946 113.302 116.974 112.326 116.985C112.326 116.84 112.293 116.674 112.226 116.485C112.171 116.286 112.115 116.125 112.06 116.003C113.025 115.969 114.023 115.931 115.055 115.886C116.098 115.831 117.119 115.77 118.117 115.703C119.127 115.626 120.07 115.537 120.946 115.437C121.834 115.337 122.611 115.232 123.276 115.121ZM113.707 123.009V124.274H122.694V123.009H113.707ZM113.707 120.912V122.16H122.694V120.912H113.707ZM112.492 120.013H123.959V125.189H112.492V120.013ZM136.756 120.646H142.963V121.811H136.756V120.646ZM128.002 116.768H135.358V117.817H128.002V116.768ZM127.819 123.358H135.425V124.457H127.819V123.358ZM127.769 120.563H135.558V121.628H127.769V120.563ZM139.868 121.112H141.066V130.248H139.868V121.112ZM131.098 115.087H132.313V117.301H131.098V115.087ZM131.098 121.445H132.313V130.298H131.098V121.445ZM136.157 116.386L137.688 116.851C137.677 116.974 137.566 117.051 137.355 117.084V122.227C137.355 122.848 137.322 123.514 137.255 124.224C137.2 124.934 137.083 125.655 136.906 126.387C136.728 127.108 136.462 127.813 136.107 128.501C135.752 129.189 135.286 129.821 134.709 130.398C134.654 130.309 134.57 130.209 134.459 130.098C134.36 129.987 134.249 129.876 134.127 129.766C134.016 129.666 133.91 129.594 133.81 129.549C134.343 129.028 134.765 128.462 135.075 127.852C135.397 127.242 135.63 126.615 135.774 125.971C135.93 125.328 136.029 124.69 136.074 124.057C136.129 123.414 136.157 122.798 136.157 122.21V116.386ZM141.732 115.204L142.747 116.119C142.226 116.352 141.632 116.574 140.966 116.785C140.301 116.985 139.613 117.168 138.903 117.334C138.204 117.489 137.522 117.628 136.856 117.75C136.823 117.617 136.767 117.456 136.689 117.268C136.612 117.068 136.534 116.907 136.456 116.785C137.078 116.652 137.716 116.502 138.37 116.336C139.036 116.169 139.663 115.992 140.251 115.803C140.839 115.603 141.333 115.404 141.732 115.204ZM132.18 124.756C132.313 124.845 132.507 124.995 132.762 125.206C133.028 125.405 133.311 125.627 133.611 125.871C133.91 126.115 134.182 126.343 134.426 126.554C134.67 126.753 134.848 126.898 134.959 126.986L134.21 127.918C134.077 127.763 133.894 127.569 133.661 127.336C133.428 127.103 133.173 126.859 132.895 126.604C132.629 126.337 132.368 126.093 132.113 125.871C131.869 125.638 131.669 125.461 131.514 125.339L132.18 124.756ZM129.001 118.133L129.999 117.9C130.166 118.266 130.316 118.671 130.449 119.115C130.582 119.559 130.671 119.941 130.715 120.263L129.65 120.546C129.628 120.213 129.556 119.825 129.434 119.381C129.312 118.926 129.167 118.51 129.001 118.133ZM133.278 117.867L134.41 118.116C134.254 118.538 134.093 118.965 133.927 119.398C133.761 119.83 133.6 120.202 133.444 120.513L132.429 120.263C132.529 120.041 132.629 119.792 132.729 119.514C132.84 119.237 132.945 118.954 133.045 118.665C133.145 118.366 133.222 118.1 133.278 117.867ZM131.098 123.924L131.996 124.274C131.719 124.873 131.375 125.483 130.965 126.104C130.554 126.715 130.116 127.286 129.65 127.818C129.195 128.34 128.746 128.773 128.302 129.116C128.202 128.972 128.069 128.817 127.903 128.651C127.747 128.473 127.598 128.329 127.453 128.218C127.908 127.929 128.363 127.552 128.818 127.086C129.284 126.62 129.717 126.11 130.116 125.555C130.515 125 130.843 124.457 131.098 123.924ZM152.266 121.528H159.439V122.643H152.266V121.528ZM152.266 124.856H159.439V125.988H152.266V124.856ZM152.299 128.218H160.154V129.366H152.299V128.218ZM155.362 118.815H156.593V128.867H155.362V118.815ZM156.51 115.154L157.858 115.454C157.592 116.075 157.298 116.713 156.976 117.367C156.665 118.022 156.371 118.571 156.094 119.015L155.062 118.715C155.24 118.405 155.417 118.039 155.595 117.617C155.783 117.195 155.955 116.768 156.11 116.336C156.277 115.892 156.41 115.498 156.51 115.154ZM151.567 118.183H159.838V119.331H152.782V130.315H151.567V118.183ZM152.782 114.988L153.997 115.287C153.72 116.186 153.387 117.068 152.998 117.933C152.61 118.799 152.177 119.603 151.7 120.346C151.234 121.09 150.741 121.75 150.219 122.327C150.153 122.249 150.064 122.149 149.953 122.027C149.842 121.905 149.726 121.783 149.604 121.661C149.481 121.539 149.376 121.445 149.287 121.378C149.787 120.868 150.253 120.274 150.685 119.597C151.129 118.921 151.528 118.188 151.883 117.401C152.238 116.613 152.538 115.809 152.782 114.988ZM144.994 118.965H150.053V120.147H144.994V118.965ZM147.057 115.221H148.256V125.988H147.057V115.221ZM144.694 126.337C145.149 126.171 145.676 125.977 146.275 125.755C146.885 125.522 147.523 125.272 148.189 125.006C148.866 124.74 149.542 124.479 150.219 124.224L150.452 125.405C149.531 125.794 148.599 126.182 147.656 126.57C146.713 126.948 145.87 127.286 145.127 127.585L144.694 126.337ZM164.531 115.454H173.468V116.252H164.531V115.454ZM165.347 116.951L165.912 116.336C166.966 116.491 168.02 116.68 169.074 116.901C170.128 117.123 171.11 117.362 172.02 117.617C172.941 117.872 173.734 118.138 174.4 118.416L173.701 119.065C173.068 118.799 172.308 118.538 171.421 118.283C170.544 118.016 169.585 117.772 168.542 117.55C167.51 117.317 166.445 117.118 165.347 116.951ZM173.268 115.454H173.501L173.684 115.404L174.333 115.836C173.845 116.325 173.229 116.746 172.486 117.101C171.743 117.456 170.927 117.756 170.04 118C169.152 118.244 168.226 118.444 167.26 118.599C166.295 118.743 165.347 118.86 164.415 118.948C164.37 118.815 164.304 118.671 164.215 118.516C164.137 118.36 164.054 118.238 163.965 118.15C164.853 118.083 165.752 117.989 166.661 117.867C167.582 117.734 168.464 117.567 169.307 117.367C170.151 117.157 170.916 116.907 171.604 116.619C172.292 116.33 172.847 115.992 173.268 115.603V115.454ZM162.934 119.065H168.409V119.864H162.934V119.065ZM163.35 120.579L163.965 119.997C164.564 120.163 165.164 120.357 165.763 120.579C166.373 120.801 166.939 121.034 167.46 121.278C167.993 121.511 168.453 121.744 168.841 121.977L168.043 122.61C167.51 122.266 166.822 121.911 165.979 121.544C165.147 121.178 164.27 120.857 163.35 120.579ZM168.142 119.065H168.342L168.525 119.015L169.191 119.381C168.769 119.98 168.209 120.496 167.51 120.929C166.822 121.35 166.057 121.705 165.213 121.994C164.381 122.271 163.544 122.493 162.701 122.659C162.645 122.549 162.562 122.415 162.451 122.26C162.351 122.105 162.251 121.988 162.151 121.911C162.939 121.789 163.727 121.611 164.515 121.378C165.302 121.134 166.018 120.834 166.661 120.479C167.316 120.113 167.81 119.697 168.142 119.231V119.065ZM169.84 119.065H175.598V119.864H169.84V119.065ZM170.156 120.546L170.755 119.964C171.465 120.13 172.175 120.324 172.885 120.546C173.607 120.768 174.278 121.001 174.899 121.245C175.52 121.478 176.058 121.711 176.513 121.944L175.731 122.593C175.321 122.349 174.816 122.105 174.217 121.861C173.629 121.617 172.985 121.384 172.286 121.162C171.598 120.94 170.888 120.735 170.156 120.546ZM175.332 119.065H175.531L175.731 119.015L176.397 119.364C176.031 119.93 175.531 120.424 174.899 120.846C174.278 121.256 173.59 121.6 172.835 121.877C172.081 122.144 171.321 122.354 170.556 122.51C170.489 122.41 170.4 122.288 170.289 122.144C170.178 121.999 170.078 121.883 169.99 121.794C170.7 121.672 171.404 121.495 172.103 121.262C172.802 121.017 173.44 120.729 174.017 120.396C174.594 120.052 175.032 119.664 175.332 119.231V119.065ZM165.663 126.004H173.584V126.737H165.663V126.004ZM165.663 127.536H173.584V128.268H165.663V127.536ZM162.201 129.083H176.979V129.932H162.201V129.083ZM168.991 121.478H170.056V123.192H168.991V121.478ZM162.667 122.726H176.547V124.989H175.348V123.591H163.816V124.989H162.667V122.726ZM164.981 124.34H174.15V129.499H172.902V125.206H166.162V129.499H164.981V124.34ZM181.023 130.781L180.657 129.899C181.334 129.621 181.85 129.266 182.205 128.834C182.571 128.401 182.754 127.868 182.754 127.236L182.454 125.838L183.353 127.103C183.231 127.247 183.092 127.347 182.937 127.402C182.782 127.447 182.626 127.469 182.471 127.469C182.127 127.469 181.833 127.369 181.589 127.169C181.345 126.97 181.223 126.676 181.223 126.287C181.223 125.888 181.345 125.588 181.589 125.389C181.844 125.189 182.144 125.089 182.488 125.089C182.954 125.089 183.303 125.267 183.536 125.622C183.78 125.966 183.902 126.426 183.902 127.003C183.902 127.902 183.642 128.678 183.12 129.333C182.599 129.987 181.9 130.47 181.023 130.781ZM7.81545 142.985H14.0728V144.166H7.81545V142.985ZM11.0772 145.531H12.2422V156.248H11.0772V145.531ZM7.66567 152.221C8.19821 152.132 8.80841 152.032 9.49627 151.921C10.1952 151.799 10.933 151.672 11.7096 151.539C12.4862 151.394 13.2629 151.25 14.0395 151.106L14.106 152.204C13.0077 152.426 11.9149 152.648 10.8276 152.87C9.75144 153.092 8.78622 153.28 7.93194 153.436L7.66567 152.221ZM8.34799 149.475C8.3258 149.397 8.29251 149.292 8.24813 149.159C8.20376 149.015 8.15383 148.876 8.09836 148.743C8.05398 148.598 8.0096 148.476 7.96522 148.377C8.10945 148.343 8.24259 148.205 8.36463 147.961C8.48667 147.705 8.61425 147.395 8.74739 147.029C8.81396 146.851 8.91381 146.557 9.04694 146.147C9.18007 145.736 9.31876 145.253 9.46299 144.699C9.61831 144.133 9.76808 143.534 9.91231 142.901C10.0565 142.269 10.173 141.642 10.2618 141.021L11.4766 141.271C11.3102 142.158 11.105 143.051 10.8609 143.95C10.6168 144.849 10.3505 145.714 10.0621 146.546C9.77363 147.367 9.47963 148.11 9.18007 148.776V148.809C9.18007 148.809 9.1357 148.831 9.04694 148.876C8.96928 148.92 8.87498 148.981 8.76403 149.059C8.65308 149.125 8.55323 149.198 8.46448 149.275C8.38682 149.353 8.34799 149.419 8.34799 149.475ZM8.34799 149.475V148.443L9.0303 148.11H13.923V149.242H9.56284C9.27438 149.242 9.01366 149.264 8.78067 149.309C8.55878 149.353 8.41455 149.408 8.34799 149.475ZM14.8549 141.903H21.0623V143.051H14.8549V141.903ZM20.6796 141.903H20.9292L21.1788 141.853L22.0442 142.286C21.7002 143.062 21.262 143.783 20.7295 144.449C20.208 145.115 19.62 145.725 18.9654 146.28C18.322 146.834 17.6452 147.328 16.9351 147.761C16.2251 148.194 15.504 148.565 14.7717 148.876C14.7162 148.776 14.6441 148.665 14.5554 148.543C14.4666 148.41 14.3723 148.282 14.2725 148.16C14.1726 148.038 14.0728 147.938 13.9729 147.861C14.6497 147.594 15.3209 147.267 15.9866 146.879C16.6633 146.479 17.3013 146.036 17.9004 145.547C18.5106 145.048 19.0542 144.516 19.5313 143.95C20.0083 143.373 20.3911 142.774 20.6796 142.153V141.903ZM13.9896 154.7H22.843V155.865H13.9896V154.7ZM17.917 150.224H19.1651V155.15H17.917V150.224ZM14.9381 149.475H22.1274V150.623H14.9381V149.475ZM17.7173 146.313L18.4163 145.448C18.9155 145.658 19.4481 145.902 20.0139 146.18C20.5797 146.457 21.1178 146.74 21.6281 147.029C22.1496 147.317 22.5767 147.572 22.9096 147.794L22.1607 148.793C21.8389 148.56 21.4229 148.293 20.9125 147.994C20.4133 147.694 19.8807 147.395 19.3149 147.095C18.7602 146.796 18.2277 146.535 17.7173 146.313ZM24.8899 154.75H40.0506V155.865H24.8899V154.75ZM25.2061 141.886H35.6405V142.951H25.2061V141.886ZM26.7704 150.64H38.1701V155.316H36.9552V151.655H34.7086V155.316H33.5437V151.655H31.3137V155.316H30.1487V151.655H27.952V155.316H26.7704V150.64ZM35.2744 144.682H38.6693V145.747H34.9582L35.2744 144.682ZM28.8174 144.383H32.878V145.348H28.4513L28.8174 144.383ZM38.2533 144.682H39.4681C39.4681 144.682 39.4626 144.749 39.4515 144.882C39.4515 145.015 39.4404 145.126 39.4182 145.215C39.3405 146.124 39.2573 146.868 39.1686 147.445C39.0909 148.022 38.9966 148.476 38.8857 148.809C38.7747 149.131 38.6471 149.364 38.5029 149.508C38.3587 149.664 38.1978 149.774 38.0203 149.841C37.8539 149.897 37.6542 149.93 37.4212 149.941C37.2104 149.963 36.9219 149.974 36.5558 149.974C36.1897 149.963 35.7958 149.946 35.3743 149.924C35.3632 149.747 35.3243 149.558 35.2578 149.358C35.1912 149.148 35.108 148.965 35.0081 148.809C35.4297 148.843 35.818 148.865 36.1731 148.876C36.5281 148.876 36.7833 148.876 36.9386 148.876C37.0717 148.876 37.1827 148.87 37.2714 148.859C37.3713 148.848 37.4489 148.809 37.5044 148.743C37.6153 148.632 37.7152 148.438 37.804 148.16C37.8927 147.872 37.9704 147.461 38.0369 146.929C38.1035 146.396 38.1756 145.703 38.2533 144.849V144.682ZM28.6676 142.069L29.8991 142.252C29.5996 144.138 29.0948 145.769 28.3847 147.145C27.6857 148.521 26.7483 149.636 25.5722 150.49C25.5057 150.412 25.4114 150.324 25.2893 150.224C25.1784 150.113 25.0563 150.007 24.9232 149.908C24.7901 149.797 24.6791 149.708 24.5904 149.641C25.7553 148.887 26.665 147.872 27.3196 146.596C27.9742 145.309 28.4235 143.8 28.6676 142.069ZM32.5618 144.383H32.8114L33.0111 144.366L33.6601 144.582C33.4161 145.636 33.061 146.535 32.5951 147.278C32.1291 148.01 31.5744 148.615 30.9309 149.092C30.2874 149.558 29.5663 149.93 28.7675 150.207C28.7231 150.118 28.6565 150.019 28.5678 149.908C28.479 149.797 28.3847 149.691 28.2849 149.591C28.1961 149.48 28.1129 149.397 28.0352 149.342C29.1558 148.987 30.1099 148.438 30.8976 147.694C31.6964 146.94 32.2511 145.897 32.5618 144.566V144.383ZM28.9339 146.729L29.6828 146.063C30.2264 146.285 30.7756 146.563 31.3303 146.895C31.8961 147.217 32.4231 147.556 32.9113 147.911C33.4105 148.255 33.821 148.587 34.1428 148.909L33.3772 149.675C33.0666 149.353 32.6672 149.009 32.179 148.643C31.6909 148.277 31.1639 147.927 30.5981 147.594C30.0433 147.262 29.4886 146.973 28.9339 146.729ZM35.2578 141.886H36.4893C36.3894 142.397 36.2785 142.94 36.1564 143.517C36.0455 144.094 35.929 144.649 35.8069 145.181C35.6849 145.714 35.5684 146.185 35.4575 146.596L34.2925 146.429C34.4146 146.03 34.5311 145.575 34.642 145.065C34.753 144.543 34.8639 144.005 34.9749 143.451C35.0858 142.885 35.1801 142.363 35.2578 141.886ZM41.7813 147.861L54.9616 143.8L55.2945 144.898L42.1308 148.992L41.7813 147.861ZM54.5789 144.066H54.4291L54.7287 143.817L54.9949 143.617L55.8936 144.016L55.827 144.249C55.8048 145.814 55.7494 147.112 55.6606 148.144C55.5829 149.164 55.4553 149.913 55.2778 150.39C55.1336 150.823 54.945 151.128 54.712 151.306C54.479 151.483 54.2183 151.6 53.9299 151.655C53.6636 151.699 53.3418 151.727 52.9646 151.738C52.5985 151.738 52.2657 151.733 51.9661 151.722C51.955 151.622 51.9328 151.5 51.8996 151.355C51.8663 151.211 51.8274 151.067 51.7831 150.923C51.7387 150.779 51.6888 150.662 51.6333 150.573C51.9328 150.595 52.249 150.612 52.5819 150.623C52.9258 150.623 53.1699 150.623 53.3141 150.623C53.5027 150.623 53.6691 150.579 53.8134 150.49C53.9576 150.39 54.0852 150.174 54.1961 149.841C54.3403 149.419 54.4347 148.726 54.479 147.761C54.5345 146.796 54.5678 145.564 54.5789 144.066ZM49.5364 141.054H50.7679V152.77H49.5364V141.054ZM44.8434 142.153H46.0583V153.369C46.0583 153.769 46.1082 154.079 46.2081 154.301C46.3079 154.512 46.4965 154.656 46.7739 154.734C47.0623 154.811 47.4839 154.85 48.0387 154.85C48.194 154.85 48.4658 154.85 48.8541 154.85C49.2424 154.85 49.6806 154.85 50.1688 154.85C50.657 154.85 51.1507 154.85 51.6499 154.85C52.1492 154.85 52.5985 154.85 52.9979 154.85C53.4084 154.85 53.7135 154.85 53.9132 154.85C54.4347 154.85 54.8285 154.773 55.0948 154.617C55.361 154.451 55.5552 154.157 55.6772 153.735C55.7993 153.303 55.8936 152.687 55.9601 151.888C56.1155 151.999 56.3041 152.104 56.526 152.204C56.759 152.293 56.9642 152.354 57.1417 152.387C57.053 153.297 56.9143 154.018 56.7257 154.551C56.5371 155.072 56.2264 155.444 55.7937 155.666C55.3721 155.888 54.7564 155.999 53.9465 155.999C53.8466 155.999 53.6469 155.999 53.3474 155.999C53.0478 155.999 52.6928 155.999 52.2823 155.999C51.8718 155.999 51.4447 155.999 51.0009 155.999C50.5571 155.999 50.13 155.999 49.7195 155.999C49.309 155.999 48.9595 155.999 48.671 155.999C48.3826 155.999 48.1884 155.999 48.0886 155.999C47.2676 155.999 46.6186 155.926 46.1415 155.782C45.6644 155.638 45.326 155.372 45.1263 154.983C44.9377 154.595 44.8434 154.046 44.8434 153.336V142.153ZM60.0374 154.517C61.0137 154.484 62.1453 154.451 63.4323 154.418C64.7304 154.373 66.1061 154.323 67.5595 154.268C69.0129 154.212 70.4607 154.151 71.903 154.085L71.8697 155.233C70.4718 155.3 69.0628 155.366 67.6427 155.433C66.2226 155.499 64.8746 155.555 63.5987 155.599C62.3229 155.655 61.1912 155.705 60.2038 155.749L60.0374 154.517ZM59.9043 149.375H73.7003V150.557H59.9043V149.375ZM62.75 146.18H70.6881V147.345H62.75V146.18ZM64.4641 150.124L65.862 150.523C65.6068 151.045 65.3295 151.6 65.0299 152.188C64.7415 152.764 64.4475 153.325 64.1479 153.868C63.8595 154.412 63.5765 154.895 63.2992 155.316L62.2008 154.933C62.4671 154.501 62.7389 154.001 63.0163 153.436C63.3047 152.87 63.5765 152.298 63.8317 151.722C64.0869 151.134 64.2977 150.601 64.4641 150.124ZM68.4082 151.888L69.4733 151.306C69.9947 151.738 70.5051 152.215 71.0043 152.737C71.5147 153.258 71.9806 153.774 72.4022 154.284C72.8238 154.795 73.1622 155.261 73.4174 155.682L72.3024 156.381C72.0472 155.96 71.7088 155.488 71.2872 154.967C70.8656 154.434 70.4052 153.896 69.906 153.352C69.4178 152.809 68.9186 152.321 68.4082 151.888ZM66.6775 142.252C66.2337 142.918 65.6457 143.606 64.9134 144.316C64.1923 145.015 63.3879 145.681 62.5004 146.313C61.6239 146.945 60.7142 147.5 59.7711 147.977C59.7156 147.866 59.6435 147.75 59.5548 147.628C59.4771 147.506 59.3884 147.384 59.2885 147.262C59.1998 147.14 59.111 147.034 59.0222 146.945C59.9875 146.49 60.9139 145.941 61.8014 145.298C62.7001 144.643 63.51 143.95 64.2311 143.218C64.9634 142.474 65.5403 141.748 65.9619 141.038H67.2599C67.7037 141.659 68.2085 142.258 68.7743 142.835C69.3401 143.401 69.9448 143.933 70.5883 144.432C71.2318 144.932 71.8863 145.381 72.552 145.78C73.2288 146.169 73.9 146.496 74.5657 146.762C74.4214 146.918 74.2772 147.101 74.133 147.311C73.9999 147.511 73.8723 147.7 73.7502 147.877C72.8959 147.467 72.0195 146.962 71.1208 146.363C70.2333 145.753 69.4012 145.093 68.6246 144.383C67.8479 143.672 67.1989 142.962 66.6775 142.252ZM82.7534 142.136H90.2922V143.284H82.7534V142.136ZM82.7368 146.013H90.2422V147.145H82.7368V146.013ZM82.6369 149.858H90.3254V150.973H82.6369V149.858ZM82.1044 142.136H83.286V148.177C83.286 148.809 83.2638 149.486 83.2194 150.207C83.175 150.917 83.0807 151.638 82.9365 152.371C82.8034 153.092 82.5981 153.796 82.3207 154.484C82.0545 155.161 81.6995 155.777 81.2557 156.331C81.1891 156.254 81.0948 156.165 80.9728 156.065C80.8618 155.965 80.7453 155.865 80.6233 155.766C80.5012 155.666 80.3958 155.594 80.3071 155.549C80.8618 154.861 81.2668 154.096 81.5219 153.253C81.7771 152.398 81.938 151.533 82.0046 150.656C82.0711 149.78 82.1044 148.953 82.1044 148.177V142.136ZM89.8595 142.136H91.0577V154.817C91.0577 155.161 91.0133 155.427 90.9246 155.616C90.8469 155.815 90.6916 155.971 90.4586 156.082C90.2367 156.17 89.9371 156.226 89.5599 156.248C89.1827 156.27 88.7112 156.281 88.1454 156.281C88.1232 156.126 88.0733 155.932 87.9956 155.699C87.929 155.466 87.8514 155.272 87.7626 155.116C88.1731 155.128 88.5448 155.133 88.8776 155.133C89.2104 155.133 89.4379 155.133 89.5599 155.133C89.6598 155.122 89.7319 155.094 89.7763 155.05C89.8317 155.006 89.8595 154.922 89.8595 154.8V142.136ZM85.9653 142.585H87.1302V156.015H85.9653V142.585ZM76.0301 149.858C76.6847 149.68 77.478 149.453 78.4099 149.175C79.353 148.887 80.3015 148.587 81.2557 148.277L81.4221 149.425C80.5456 149.713 79.6636 150.002 78.776 150.29C77.8885 150.579 77.0786 150.845 76.3463 151.089L76.0301 149.858ZM76.2631 144.383H81.4221V145.547H76.2631V144.383ZM78.3434 141.038H79.5416V154.767C79.5416 155.111 79.4972 155.377 79.4084 155.566C79.3197 155.766 79.1699 155.915 78.9591 156.015C78.7594 156.115 78.4931 156.182 78.1603 156.215C77.8275 156.248 77.3948 156.259 76.8622 156.248C76.84 156.093 76.7901 155.899 76.7125 155.666C76.6459 155.433 76.5738 155.233 76.4961 155.067C76.8511 155.078 77.1729 155.083 77.4613 155.083C77.7609 155.083 77.9606 155.078 78.0604 155.067C78.1603 155.067 78.2324 155.044 78.2768 155C78.3212 154.967 78.3434 154.889 78.3434 154.767V141.038ZM93.7537 143.184H108.332V144.349H93.7537V143.184ZM97.8309 149.125H105.636V150.191H97.8309V149.125ZM96.9489 146.28H105.436V147.411H98.1804V156.315H96.9489V146.28ZM105.153 146.28H106.385V154.767C106.385 155.133 106.335 155.416 106.235 155.616C106.135 155.827 105.947 155.987 105.669 156.098C105.392 156.187 105.015 156.237 104.538 156.248C104.072 156.27 103.484 156.281 102.774 156.281C102.74 156.115 102.685 155.915 102.607 155.682C102.529 155.449 102.446 155.25 102.357 155.083C102.724 155.094 103.068 155.1 103.389 155.1C103.722 155.111 104.011 155.111 104.255 155.1C104.499 155.1 104.676 155.1 104.787 155.1C104.931 155.1 105.026 155.072 105.07 155.017C105.126 154.972 105.153 154.884 105.153 154.75V146.28ZM99.2122 141.021L100.477 141.32C100.1 142.53 99.6227 143.728 99.0457 144.915C98.4688 146.102 97.7754 147.212 96.9655 148.243C96.1556 149.264 95.2237 150.152 94.1697 150.906C94.1142 150.806 94.0366 150.701 93.9367 150.59C93.8369 150.468 93.737 150.351 93.6372 150.24C93.5373 150.118 93.4486 150.019 93.3709 149.941C94.1142 149.431 94.791 148.837 95.4012 148.16C96.0225 147.483 96.5772 146.757 97.0654 145.98C97.5535 145.192 97.9751 144.383 98.3301 143.55C98.6852 142.707 98.9792 141.864 99.2122 141.021ZM97.8309 151.938H105.636V153.02H97.8309V151.938ZM119.615 146.646H125.822V147.811H119.615V146.646ZM110.861 142.768H118.217V143.817H110.861V142.768ZM110.678 149.358H118.284V150.457H110.678V149.358ZM110.628 146.563H118.417V147.628H110.628V146.563ZM122.727 147.112H123.925V156.248H122.727V147.112ZM113.957 141.087H115.172V143.301H113.957V141.087ZM113.957 147.445H115.172V156.298H113.957V147.445ZM119.016 142.386L120.547 142.851C120.536 142.974 120.425 143.051 120.214 143.084V148.227C120.214 148.848 120.181 149.514 120.114 150.224C120.059 150.934 119.942 151.655 119.765 152.387C119.587 153.108 119.321 153.813 118.966 154.501C118.611 155.189 118.145 155.821 117.568 156.398C117.513 156.309 117.429 156.209 117.318 156.098C117.219 155.987 117.108 155.876 116.986 155.766C116.875 155.666 116.769 155.594 116.669 155.549C117.202 155.028 117.624 154.462 117.934 153.852C118.256 153.242 118.489 152.615 118.633 151.971C118.788 151.328 118.888 150.69 118.933 150.057C118.988 149.414 119.016 148.798 119.016 148.21V142.386ZM124.591 141.204L125.606 142.119C125.085 142.352 124.491 142.574 123.825 142.785C123.16 142.985 122.472 143.168 121.762 143.334C121.063 143.489 120.381 143.628 119.715 143.75C119.682 143.617 119.626 143.456 119.548 143.268C119.471 143.068 119.393 142.907 119.315 142.785C119.937 142.652 120.575 142.502 121.229 142.336C121.895 142.169 122.522 141.992 123.11 141.803C123.698 141.603 124.191 141.404 124.591 141.204ZM115.039 150.756C115.172 150.845 115.366 150.995 115.621 151.206C115.887 151.405 116.17 151.627 116.47 151.871C116.769 152.115 117.041 152.343 117.285 152.554C117.529 152.753 117.707 152.898 117.818 152.986L117.069 153.918C116.936 153.763 116.753 153.569 116.52 153.336C116.287 153.103 116.031 152.859 115.754 152.604C115.488 152.337 115.227 152.093 114.972 151.871C114.728 151.638 114.528 151.461 114.373 151.339L115.039 150.756ZM111.86 144.133L112.858 143.9C113.025 144.266 113.175 144.671 113.308 145.115C113.441 145.559 113.53 145.941 113.574 146.263L112.509 146.546C112.487 146.213 112.415 145.825 112.293 145.381C112.171 144.926 112.026 144.51 111.86 144.133ZM116.137 143.867L117.269 144.116C117.113 144.538 116.952 144.965 116.786 145.398C116.619 145.83 116.459 146.202 116.303 146.513L115.288 146.263C115.388 146.041 115.488 145.792 115.588 145.514C115.699 145.237 115.804 144.954 115.904 144.665C116.004 144.366 116.081 144.1 116.137 143.867ZM113.957 149.924L114.855 150.274C114.578 150.873 114.234 151.483 113.824 152.104C113.413 152.715 112.975 153.286 112.509 153.818C112.054 154.34 111.605 154.773 111.161 155.116C111.061 154.972 110.928 154.817 110.762 154.651C110.606 154.473 110.456 154.329 110.312 154.218C110.767 153.929 111.222 153.552 111.677 153.086C112.143 152.62 112.576 152.11 112.975 151.555C113.374 151 113.702 150.457 113.957 149.924ZM129.167 143.7H134.226V154.584H129.167V153.452H133.078V144.815H129.167V143.7ZM128.435 143.7H129.583V155.899H128.435V143.7ZM129.084 148.327H133.677V149.425H129.084V148.327ZM130.981 140.988L132.329 141.221C132.163 141.742 131.98 142.269 131.78 142.802C131.592 143.334 131.414 143.789 131.248 144.166L130.232 143.917C130.332 143.639 130.427 143.329 130.515 142.985C130.615 142.641 130.704 142.291 130.782 141.936C130.87 141.581 130.937 141.265 130.981 140.988ZM136.606 143.65H141.715V144.799H136.606V143.65ZM141.266 143.65H142.448C142.448 143.65 142.448 143.689 142.448 143.767C142.448 143.844 142.448 143.939 142.448 144.05C142.448 144.15 142.442 144.227 142.431 144.283C142.364 146.191 142.298 147.805 142.231 149.125C142.176 150.446 142.104 151.527 142.015 152.371C141.926 153.203 141.821 153.852 141.699 154.318C141.588 154.784 141.449 155.116 141.283 155.316C141.094 155.56 140.894 155.727 140.684 155.815C140.484 155.915 140.234 155.982 139.935 156.015C139.657 156.037 139.291 156.043 138.836 156.032C138.392 156.032 137.932 156.015 137.455 155.982C137.444 155.804 137.4 155.599 137.322 155.366C137.255 155.133 137.161 154.939 137.039 154.784C137.594 154.828 138.093 154.856 138.537 154.867C138.992 154.878 139.319 154.884 139.519 154.884C139.685 154.884 139.818 154.867 139.918 154.834C140.029 154.789 140.134 154.712 140.234 154.601C140.367 154.456 140.484 154.162 140.584 153.719C140.695 153.264 140.789 152.62 140.867 151.788C140.944 150.956 141.016 149.897 141.083 148.61C141.149 147.311 141.21 145.747 141.266 143.917V143.65ZM136.939 140.954L138.137 141.221C137.938 142.053 137.694 142.868 137.405 143.667C137.128 144.455 136.817 145.198 136.473 145.897C136.14 146.596 135.785 147.212 135.408 147.744C135.33 147.678 135.225 147.6 135.092 147.511C134.97 147.411 134.842 147.323 134.709 147.245C134.576 147.156 134.459 147.084 134.36 147.029C134.748 146.529 135.103 145.958 135.425 145.314C135.746 144.66 136.035 143.961 136.29 143.218C136.545 142.474 136.762 141.72 136.939 140.954ZM136.174 147.961L137.155 147.411C137.466 147.8 137.788 148.227 138.121 148.693C138.465 149.159 138.781 149.608 139.069 150.041C139.369 150.473 139.607 150.856 139.785 151.189L138.72 151.855C138.553 151.511 138.326 151.117 138.037 150.673C137.76 150.218 137.455 149.758 137.122 149.292C136.8 148.815 136.484 148.371 136.174 147.961ZM145.177 151.938C145.166 151.849 145.132 151.733 145.077 151.588C145.021 151.433 144.966 151.278 144.911 151.122C144.866 150.967 144.816 150.834 144.761 150.723C144.949 150.69 145.149 150.579 145.36 150.39C145.571 150.191 145.809 149.941 146.075 149.641C146.22 149.497 146.43 149.253 146.708 148.909C146.996 148.565 147.312 148.16 147.656 147.694C148 147.228 148.35 146.723 148.705 146.18C149.06 145.636 149.387 145.087 149.687 144.532L150.835 145.231C150.125 146.341 149.359 147.422 148.538 148.476C147.717 149.53 146.891 150.457 146.059 151.256V151.289C146.059 151.289 146.014 151.311 145.926 151.355C145.837 151.389 145.732 151.439 145.609 151.505C145.499 151.572 145.399 151.644 145.31 151.722C145.221 151.799 145.177 151.871 145.177 151.938ZM145.177 151.938L145.127 150.889L145.776 150.457L150.752 149.641C150.741 149.808 150.741 150.002 150.752 150.224C150.774 150.435 150.796 150.607 150.818 150.74C149.653 150.95 148.716 151.122 148.006 151.256C147.307 151.389 146.769 151.494 146.392 151.572C146.026 151.649 145.754 151.716 145.576 151.771C145.41 151.827 145.277 151.882 145.177 151.938ZM145.06 147.894C145.038 147.805 144.999 147.683 144.944 147.528C144.899 147.373 144.85 147.217 144.794 147.062C144.739 146.895 144.683 146.757 144.628 146.646C144.783 146.613 144.938 146.507 145.094 146.33C145.249 146.152 145.41 145.93 145.576 145.664C145.676 145.531 145.815 145.314 145.992 145.015C146.17 144.704 146.369 144.338 146.591 143.917C146.813 143.495 147.03 143.046 147.24 142.569C147.462 142.092 147.656 141.609 147.823 141.121L149.104 141.653C148.816 142.319 148.494 142.985 148.139 143.65C147.795 144.305 147.435 144.937 147.057 145.547C146.68 146.147 146.297 146.69 145.909 147.178V147.212C145.909 147.212 145.865 147.234 145.776 147.278C145.698 147.323 145.598 147.384 145.476 147.461C145.365 147.528 145.266 147.6 145.177 147.678C145.099 147.755 145.06 147.827 145.06 147.894ZM145.06 147.894L145.044 146.962L145.676 146.563L149.187 146.263C149.154 146.418 149.126 146.596 149.104 146.796C149.082 146.995 149.071 147.162 149.071 147.295C148.283 147.384 147.64 147.461 147.141 147.528C146.641 147.583 146.253 147.633 145.976 147.678C145.709 147.722 145.51 147.761 145.376 147.794C145.243 147.827 145.138 147.861 145.06 147.894ZM144.711 154.118C145.232 154.029 145.82 153.924 146.475 153.802C147.141 153.669 147.839 153.53 148.572 153.386C149.315 153.23 150.053 153.081 150.785 152.936L150.885 154.085C149.842 154.329 148.794 154.562 147.74 154.784C146.697 155.006 145.759 155.211 144.927 155.399L144.711 154.118ZM150.918 143.251H159.822V144.449H150.918V143.251ZM151.334 147.045H159.539V148.243H151.334V147.045ZM152.449 154.467H158.474V155.599H152.449V154.467ZM154.762 141.004H156.044V147.661H154.762V141.004ZM151.767 149.941H159.123V156.248H157.874V151.073H152.982V156.315H151.767V149.941ZM162.068 144.582H168.076V145.78H162.068V144.582ZM164.664 141.021H165.863V156.315H164.664V141.021ZM164.614 145.331L165.413 145.614C165.258 146.269 165.069 146.945 164.847 147.644C164.625 148.343 164.376 149.031 164.098 149.708C163.832 150.374 163.544 151 163.233 151.588C162.934 152.165 162.623 152.659 162.301 153.07C162.224 152.903 162.118 152.709 161.985 152.487C161.863 152.265 161.752 152.077 161.652 151.921C161.952 151.555 162.246 151.122 162.534 150.623C162.823 150.113 163.1 149.558 163.366 148.959C163.633 148.36 163.871 147.75 164.082 147.128C164.304 146.507 164.481 145.908 164.614 145.331ZM165.796 147.012C165.907 147.123 166.073 147.311 166.295 147.578C166.528 147.844 166.772 148.132 167.027 148.443C167.294 148.754 167.538 149.048 167.76 149.325C167.993 149.591 168.154 149.786 168.242 149.908L167.46 150.923C167.349 150.723 167.194 150.473 166.994 150.174C166.794 149.863 166.578 149.541 166.345 149.209C166.112 148.876 165.89 148.565 165.679 148.277C165.469 147.988 165.297 147.761 165.164 147.594L165.796 147.012ZM169.956 141.021L171.221 141.304C170.988 142.158 170.711 142.99 170.389 143.8C170.067 144.61 169.712 145.37 169.324 146.08C168.936 146.779 168.52 147.395 168.076 147.927C167.998 147.861 167.898 147.777 167.776 147.678C167.654 147.578 167.527 147.478 167.394 147.378C167.26 147.278 167.138 147.201 167.027 147.145C167.471 146.657 167.876 146.086 168.242 145.431C168.608 144.776 168.936 144.077 169.224 143.334C169.524 142.58 169.768 141.809 169.956 141.021ZM169.74 143.75H176.164V144.915H169.191L169.74 143.75ZM175.681 143.75H176.896C176.896 143.75 176.896 143.795 176.896 143.883C176.896 143.961 176.896 144.055 176.896 144.166C176.896 144.266 176.896 144.344 176.896 144.399C176.829 146.363 176.763 148.016 176.696 149.358C176.641 150.69 176.569 151.783 176.48 152.637C176.402 153.48 176.308 154.135 176.197 154.601C176.086 155.067 175.953 155.405 175.798 155.616C175.631 155.849 175.448 156.01 175.248 156.098C175.049 156.187 174.816 156.248 174.55 156.281C174.305 156.315 173.989 156.326 173.601 156.315C173.213 156.315 172.813 156.304 172.403 156.281C172.392 156.104 172.347 155.899 172.27 155.666C172.203 155.433 172.114 155.222 172.003 155.033C172.458 155.078 172.869 155.1 173.235 155.1C173.601 155.111 173.873 155.116 174.05 155.116C174.206 155.128 174.328 155.116 174.416 155.083C174.505 155.05 174.594 154.978 174.683 154.867C174.805 154.712 174.916 154.412 175.016 153.968C175.115 153.513 175.204 152.87 175.282 152.038C175.359 151.195 175.432 150.118 175.498 148.809C175.565 147.5 175.626 145.908 175.681 144.033V143.75ZM171.937 149.358L172.902 149.026C173.135 149.436 173.368 149.885 173.601 150.374C173.834 150.851 174.039 151.311 174.217 151.755C174.394 152.199 174.522 152.592 174.599 152.936L173.551 153.336C173.484 152.981 173.368 152.576 173.202 152.121C173.035 151.666 172.841 151.2 172.619 150.723C172.397 150.235 172.17 149.78 171.937 149.358ZM170.456 146.196L171.671 146.463C171.504 147.084 171.315 147.744 171.105 148.443C170.894 149.142 170.678 149.813 170.456 150.457C170.245 151.1 170.04 151.666 169.84 152.154L168.841 151.888C169.03 151.389 169.23 150.806 169.441 150.141C169.651 149.475 169.845 148.793 170.023 148.094C170.2 147.395 170.345 146.762 170.456 146.196ZM167.593 151.755C168.348 151.688 169.257 151.594 170.323 151.472C171.399 151.35 172.497 151.222 173.618 151.089L173.651 152.071C172.619 152.226 171.598 152.382 170.589 152.537C169.59 152.681 168.686 152.814 167.876 152.936L167.593 151.755ZM181.639 150.939C182.116 150.939 182.543 151.056 182.92 151.289C183.298 151.511 183.603 151.816 183.836 152.204C184.069 152.581 184.185 153.003 184.185 153.469C184.185 153.935 184.069 154.362 183.836 154.75C183.603 155.128 183.298 155.433 182.92 155.666C182.543 155.899 182.116 156.015 181.639 156.015C181.173 156.015 180.746 155.899 180.358 155.666C179.98 155.433 179.675 155.128 179.442 154.75C179.22 154.362 179.109 153.935 179.109 153.469C179.109 153.003 179.22 152.581 179.442 152.204C179.675 151.816 179.986 151.511 180.374 151.289C180.762 151.056 181.184 150.939 181.639 150.939ZM181.639 155.166C182.116 155.166 182.515 155.006 182.837 154.684C183.17 154.351 183.336 153.946 183.336 153.469C183.336 153.169 183.259 152.892 183.103 152.637C182.959 152.382 182.76 152.176 182.504 152.021C182.249 151.866 181.961 151.788 181.639 151.788C181.339 151.788 181.062 151.866 180.807 152.021C180.552 152.176 180.346 152.382 180.191 152.637C180.036 152.892 179.958 153.169 179.958 153.469C179.958 153.78 180.036 154.068 180.191 154.334C180.346 154.59 180.552 154.795 180.807 154.95C181.062 155.094 181.339 155.166 181.639 155.166Z" fill="#4F064F"/>
<path d="M26.8956 34.5449C27.5063 34.878 28.8386 36.8209 30.8925 40.3737C27.8949 43.3714 24.4809 44.8702 20.6505 44.8702C20.6505 44.8702 19.6235 45.009 17.5696 45.2865C13.6837 45.2865 11.7408 44.5371 11.7408 43.0383V42.1223V41.7893V41.2897C11.7408 41.0121 11.7408 40.8733 11.7408 40.8733V38.5418V37.2928C11.7408 37.0152 12.4902 36.8764 13.9891 36.8764H15.821H16.154C16.7647 37.154 17.6806 37.2928 18.9019 37.2928C23.0653 36.6821 25.5633 35.7662 26.396 34.5449H26.8956ZM47.8792 40.3737C48.4899 41.5395 49.045 44.0375 49.5446 47.8678V56.7775C49.5446 57.1106 50.1552 57.2772 51.3765 57.2772L56.7057 56.7775C56.7057 56.5 56.4003 54.1407 55.7897 49.6997V42.1223C55.7897 42.1223 56.095 41.8448 56.7057 41.2897C56.7057 41.2897 56.8722 41.5672 57.2053 42.1223C57.4828 42.1223 57.9269 41.8448 58.5376 41.2897C60.3139 41.0121 61.8128 40.8733 63.034 40.8733C63.2561 41.4839 63.5059 43.8155 63.7835 47.8678C63.7835 49.6997 63.7835 51.032 63.7835 51.8647C63.7835 54.0297 64.2553 55.1122 65.199 55.1122C65.4766 55.1122 66.3648 54.9456 67.8636 54.6126C69.0294 54.6126 69.6122 57.1106 69.6122 62.1067V62.6063C68.6685 63.217 67.0309 63.6611 64.6994 63.9386V64.8546C64.6994 66.2979 64.8659 67.6302 65.199 68.8514C65.199 69.7951 65.199 71.5993 65.199 74.2639C65.199 80.1482 65.199 84.4226 65.199 87.0872C64.8659 87.4202 64.6994 87.5868 64.6994 87.5868C64.0888 87.5868 63.6447 88.1697 63.3671 89.3354C57.0942 90.7787 51.9316 91.5004 47.8792 91.5004V92L46.0473 91.5004C45.7143 91.5004 44.9926 91.6669 43.8823 92C40.8847 91.6669 39.3859 90.5012 39.3859 88.5027C39.3859 87.559 39.3859 86.7819 39.3859 86.1712V84.5059C39.3859 78.7881 39.8022 72.654 40.6349 66.1036C37.6927 66.1036 35.6666 65.5485 34.5563 64.4382C35.0559 59.9417 35.4723 57.6935 35.8053 57.6935H37.554H39.7189C39.7189 57.4159 40.0243 57.2772 40.6349 57.2772V56.7775C40.6349 56.2779 40.6349 55.8616 40.6349 55.5285L41.1345 49.6997C40.8014 47.0907 40.4961 44.7037 40.2185 42.5387H40.6349C40.6349 42.5387 40.8014 42.7052 41.1345 43.0383H41.5508C41.2733 42.4277 41.1345 42.1223 41.1345 42.1223C41.1345 41.2897 43.2162 40.7068 47.3796 40.3737C47.3796 40.3737 47.5462 40.3737 47.8792 40.3737ZM25.147 46.2025C25.7021 46.48 25.9797 47.0352 25.9797 47.8678V49.2834H26.396C28.561 49.2834 29.6435 49.1169 29.6435 48.7838L30.8925 49.2834H31.8085L34.0567 48.3675H34.5563C35.9996 50.4769 36.9988 52.5586 37.554 54.6126C36.3882 55.7783 35.5 56.3612 34.8894 56.3612H34.0567C34.0567 57.2494 32.7244 57.6935 30.0598 57.6935C27.3397 58.0266 25.9797 58.3319 25.9797 58.6094C25.9797 59.5532 25.5633 61.3295 24.7307 63.9386C23.787 64.5492 23.1763 64.8546 22.8988 64.8546C19.0129 64.2439 17.07 63.6333 17.07 63.0227C17.4031 60.6912 17.5696 59.2201 17.5696 58.6094C16.6259 58.6094 16.043 58.6094 15.821 58.6094C14.9328 58.6094 13.878 58.6094 12.6568 58.6094C8.27131 58.3319 6.07858 57.3049 6.07858 55.5285C6.07858 54.9179 6.1896 54.6126 6.41165 54.6126V54.1962V53.2803C6.68921 51.837 6.82799 50.6435 6.82799 49.6997C6.82799 49.4222 7.57741 49.2834 9.07624 49.2834C10.5196 49.561 12.7678 49.8663 15.821 50.1994C17.2643 50.1994 17.9859 49.7275 17.9859 48.7838C17.9859 47.618 18.1525 47.0352 18.4855 47.0352C18.4855 47.3127 18.6243 47.4515 18.9019 47.4515C18.9019 46.8964 19.3737 46.6188 20.3174 46.6188C21.4277 46.3413 22.8988 46.2025 24.7307 46.2025H25.147ZM17.9859 65.3542C22.1493 66.4644 26.174 67.1861 30.0598 67.5191C31.5031 67.7967 32.2248 68.7127 32.2248 70.267C32.2248 71.3772 32.3913 72.4042 32.7244 73.3479C32.7244 73.6255 32.7244 73.7643 32.7244 73.7643V74.6802C32.7244 76.7342 32.8632 79.5375 33.1408 83.0903C33.1408 87.5313 32.1138 89.7518 30.0598 89.7518L25.9797 89.3354C25.6466 89.613 25.3691 89.7518 25.147 89.7518V89.3354L24.7307 89.7518H24.2311C23.6204 89.7518 23.1763 89.4742 22.8988 88.9191C22.2881 88.9191 21.5387 89.0579 20.6505 89.3354C19.8178 88.7803 17.9027 88.3362 14.905 88.0031L13.5727 86.6708C13.8503 83.0625 14.1556 81.1196 14.4887 80.8421C14.1556 80.509 13.9891 80.2314 13.9891 80.0094C14.5997 79.7318 15.0715 79.593 15.4046 79.593C19.1794 79.8706 21.8163 80.1204 23.3151 80.3425L23.8147 80.0094C23.4816 76.7342 23.3151 75.0966 23.3151 75.0966C18.0414 74.2084 15.4046 73.1536 15.4046 71.9324C15.4046 71.0442 15.4046 70.489 15.4046 70.267C15.6822 67.2693 15.932 65.7705 16.154 65.7705L17.9859 65.3542ZM51.7928 66.6032C51.5153 66.2701 51.0712 66.1036 50.4605 66.1036V66.6032C50.4605 66.8808 50.3218 67.9355 50.0442 69.7674H52.2924C53.7358 69.7674 54.4574 70.1837 54.4574 71.0164C55.068 73.4589 55.3734 75.2353 55.3734 76.3456C54.7627 76.9562 52.8198 77.4281 49.5446 77.7611C49.5446 78.6493 49.5446 79.3987 49.5446 80.0094C49.5446 80.5645 50.7659 80.8421 53.2084 80.8421H53.9578L56.7057 80.3425V79.0934C56.7057 78.8159 56.8722 78.6771 57.2053 78.6771L56.7057 78.1775V77.2615C56.7057 76.3733 56.7057 75.3741 56.7057 74.2639C56.7057 73.6532 56.7057 72.7373 56.7057 71.516V70.267V65.7705C55.8175 65.7705 54.1799 66.0481 51.7928 66.6032ZM8.24355 66.6032C8.52111 66.6032 8.79867 66.6032 9.07624 66.6032C10.0199 66.6032 10.7416 66.6032 11.2412 66.6032C13.0731 66.6032 13.9891 66.6032 13.9891 66.6032L14.4887 69.351V71.0164C14.4887 71.0164 14.3221 71.0164 13.9891 71.0164C13.9891 71.3495 14.1556 71.516 14.4887 71.516C14.4887 71.516 14.3221 71.8213 13.9891 72.432C13.9891 72.7095 14.1556 73.4589 14.4887 74.6802L12.6568 87.0872C12.0461 90.0293 11.0192 91.5004 9.57584 91.5004C7.24433 91.2228 5.46795 91.084 4.24668 91.084H3.74707C3.46951 91.084 3.33073 90.9175 3.33073 90.5844C3.33073 87.0317 4.3577 79.3432 6.41165 67.5191L8.24355 66.6032ZM107.664 21.7216C108.885 21.7216 110.384 22.8874 112.16 25.2189C112.438 25.2189 113.326 25.9961 114.825 27.5504C114.825 27.5504 114.936 27.6614 115.158 27.8835C115.158 28.7717 114.159 30.2705 112.16 32.38V32.7963H113.909C114.242 32.7963 115.13 32.6575 116.574 32.38C116.851 32.38 117.295 32.5187 117.906 32.7963C118.239 32.7963 119.432 32.2134 121.486 31.0477C121.764 31.0477 122.93 30.7423 124.984 30.1317C126.482 30.1317 127.537 29.8264 128.148 29.2158H129.064C129.896 29.8264 131.09 31.7693 132.644 35.0445C132.922 35.0445 133.227 35.1833 133.56 35.4609C132.617 37.8479 131.118 39.0414 129.064 39.0414C128.176 39.0414 127.287 39.4855 126.399 40.3737L124.234 39.9574C124.234 39.9574 123.152 40.4015 120.987 41.2897C120.709 41.2897 120.57 41.2897 120.57 41.2897C119.405 41.2897 118.211 41.5672 116.99 42.1223C115.547 41.9003 114.686 41.7893 114.409 41.7893C109.912 42.0113 107.664 42.2611 107.664 42.5387L106.748 42.1223C104.694 42.3999 103.667 42.5387 103.667 42.5387C102.168 42.2611 100.836 42.0113 99.6701 41.7893V43.4546V44.3706C99.6701 44.7037 99.6701 45.009 99.6701 45.2865C99.3925 45.8972 99.2538 46.48 99.2538 47.0352V48.7838C99.2538 49.1169 99.3925 49.2834 99.6701 49.2834L99.2538 50.6157V53.6966C99.2538 54.3073 99.0872 54.7791 98.7541 55.1122C99.0872 55.9449 99.2538 56.5 99.2538 56.7775C98.6431 57.7213 98.3378 59.0813 98.3378 60.8577C98.3378 61.1352 98.4766 61.4128 98.7541 61.6904C98.199 62.301 97.6161 64.3827 97.0055 67.9355C96.6724 68.2686 96.0896 70.2115 95.2569 73.7643C93.7581 76.7064 92.4258 78.7881 91.26 80.0094C89.1505 82.674 87.9293 84.0063 87.5962 84.0063C87.3186 84.0063 87.1799 84.0063 87.1799 84.0063C86.8468 84.0063 86.6803 84.0063 86.6803 84.0063L79.6857 80.0094H79.1861H78.7698C78.7698 77.5668 79.7968 75.4851 81.8507 73.7643C85.4035 68.4351 87.4852 63.8553 88.0958 60.025C88.3734 60.025 88.6787 58.6927 89.0118 56.0281V53.6966C89.6224 53.4191 89.9277 53.1137 89.9277 52.7807C90.5384 45.9527 90.8437 41.817 90.8437 40.3737C90.8437 40.0961 90.3718 37.8479 89.4281 33.629C90.0387 32.5187 90.9269 31.9636 92.0927 31.9636C92.0927 31.6861 93.1474 31.242 95.2569 30.6313C95.2569 30.6313 95.4234 30.6313 95.7565 30.6313C96.8667 31.242 97.4219 31.9636 97.4219 32.7963C97.7549 33.0739 98.0602 33.2126 98.3378 33.2126C102.834 33.4902 105.804 33.629 107.248 33.629C108.469 33.629 109.079 33.3514 109.079 32.7963C105.194 29.5211 103.251 27.7724 103.251 27.5504V27.0508C103.251 25.8295 104.278 24.3585 106.332 22.6376L107.664 21.7216ZM122.402 42.1223L122.819 42.5387V43.0383H123.735V42.5387H126.399C127.898 42.5387 128.647 42.844 128.647 43.4546C128.647 44.0653 128.786 44.3706 129.064 44.3706C128.786 45.5918 128.647 46.3413 128.647 46.6188C130.701 46.3413 132.034 46.2025 132.644 46.2025C134.088 47.3127 134.809 47.8678 134.809 47.8678C134.809 48.2009 134.643 48.3675 134.31 48.3675C134.643 50.699 134.948 52.17 135.226 52.7807C135.226 54.0019 133.588 54.6126 130.313 54.6126C129.203 55.2232 128.647 55.5285 128.647 55.5285L129.064 56.7775C129.064 57.1106 128.925 57.2772 128.647 57.2772L129.064 58.1931V60.4413C129.064 60.9965 129.175 62.0234 129.397 63.5223C128.287 65.0211 127.287 65.7705 126.399 65.7705L123.735 66.1036L122.402 65.7705L115.158 66.1036L109.079 64.8546C108.469 64.8546 108.163 64.1051 108.163 62.6063L109.079 56.0281C106.082 55.4175 104.583 55.1122 104.583 55.1122C104.305 55.1122 104 55.1122 103.667 55.1122C103.056 55.1122 102.751 54.9456 102.751 54.6126C103.362 50.4492 103.834 48.3675 104.167 48.3675L106.748 47.8678L107.248 48.3675L107.664 47.8678H108.163L108.58 48.3675H109.995C109.662 46.3135 109.496 44.9812 109.496 44.3706C109.829 44.3706 109.995 44.2318 109.995 43.9542L110.328 44.3706C110.606 44.3706 110.745 43.7599 110.745 42.5387H111.244C111.522 42.8718 111.661 43.0383 111.661 43.0383C112.549 42.7052 113.604 42.5387 114.825 42.5387C115.658 42.5387 116.379 42.7052 116.99 43.0383C116.99 43.3159 116.99 43.9265 116.99 44.8702C117.323 47.4793 117.628 48.7838 117.906 48.7838C119.96 48.7838 120.987 48.645 120.987 48.3675L120.57 45.2865C121.459 43.1771 122.069 42.1223 122.402 42.1223ZM116.99 56.7775V57.6935C116.99 58.0266 117.295 58.1931 117.906 58.1931H119.321C119.821 58.1931 120.376 57.7213 120.987 56.7775H120.57H116.99ZM105.499 66.6032C111.716 67.8245 115.241 68.4351 116.074 68.4351C118.739 68.4351 120.071 68.2686 120.071 67.9355C120.681 67.9355 122.486 68.102 125.483 68.4351L126.399 67.9355H127.731C128.009 67.6579 128.453 67.5191 129.064 67.5191C130.507 69.351 131.229 71.4328 131.229 73.7643C130.341 74.0973 129.314 76.0403 128.148 79.593C126.371 81.3139 125.483 82.1744 125.483 82.1744H127.232C127.565 82.1744 128.176 82.3409 129.064 82.674C130.23 82.674 131.562 81.8968 133.061 80.3425H134.31C136.752 83.1181 137.973 85.061 137.973 86.1712C135.309 88.2807 133.061 89.613 131.229 90.1681C126.566 90.1681 122.125 89.613 117.906 88.5027C117.018 88.7803 115.852 89.3354 114.409 90.1681C112.299 90.4457 109.746 91.0563 106.748 92H106.332C106.332 92 106.332 91.8335 106.332 91.5004C105.998 91.5004 105.832 91.6669 105.832 92C105.332 92 104.167 91.6947 102.335 91.084C102.002 91.3616 101.696 91.5004 101.419 91.5004V91.084C101.086 91.3616 100.919 91.5004 100.919 91.5004C100.086 91.5004 99.3648 91.0563 98.7541 90.1681C98.7541 89.613 98.9207 89.1966 99.2538 88.9191L98.7541 87.5868V86.1712C98.7541 86.1712 98.9207 86.1712 99.2538 86.1712L98.7541 85.7549V84.0063C98.7541 83.7287 99.4758 83.4234 100.919 83.0903C102.14 83.4234 103.056 83.5899 103.667 83.5899C104.611 83.2568 105.221 83.0903 105.499 83.0903C106.054 83.4234 106.637 83.5899 107.248 83.5899C107.525 83.2568 107.83 83.0903 108.163 83.0903C107.22 82.4797 106.443 81.5637 105.832 80.3425C107.386 77.4003 108.608 75.9292 109.496 75.9292H109.995C110.828 75.9292 112.549 76.984 115.158 79.0934C115.491 79.0934 115.796 79.3987 116.074 80.0094C117.295 78.7881 118.211 78.1775 118.822 78.1775L120.987 75.5129L120.57 75.0966C118.516 75.3741 117.184 75.5129 116.574 75.5129C113.909 75.2353 112.133 75.0966 111.244 75.0966H110.745H110.328C106.498 74.2084 104.444 73.4589 104.167 72.8483C104.167 72.8483 104.167 72.7095 104.167 72.432C103.834 72.432 103.667 72.2654 103.667 71.9324V71.0164C104.278 68.0743 104.888 66.6032 105.499 66.6032ZM159.958 31.5473C162.4 34.767 163.621 38.0144 163.621 41.2897C163.621 42.1223 161.54 43.0105 157.376 43.9542C156.766 43.3436 155.739 40.3737 154.295 35.0445V34.5449C154.295 33.6567 156.072 32.6575 159.625 31.5473H159.958ZM196.512 35.0445H197.012C197.289 35.9327 197.845 38.5973 198.677 43.0383C198.4 43.9265 198.261 44.6759 198.261 45.2865V46.2025H201.925L205.422 47.4515C205.422 47.7291 205.422 48.0344 205.422 48.3675C205.144 51.3096 205.006 53.6966 205.006 55.5285L205.422 56.3612C204.534 56.6388 204.09 56.7775 204.09 56.7775C201.425 56.5 199.316 56.3612 197.761 56.3612C196.929 62.0234 195.624 66.3534 193.848 69.351C190.85 74.3471 188.63 77.4558 187.186 78.6771C186.909 78.6771 185.687 79.5375 183.522 81.2584C183.3 81.5915 183.051 81.758 182.773 81.758C182.162 81.758 180.941 80.8698 179.109 79.0934C176.445 76.984 175.112 75.7905 175.112 75.5129C175.445 74.6802 177.388 72.1544 180.941 67.9355C184.494 62.9394 186.27 58.8037 186.27 55.5285C184.772 54.9179 180.913 54.3073 174.696 53.6966C172.309 52.8084 170.671 52.1978 169.783 51.8647V51.5316H170.2V51.1153L169.284 50.1994C169.284 49.8663 169.45 49.6997 169.783 49.6997L169.284 49.2834C169.894 45.7306 170.366 43.9542 170.699 43.9542C170.699 43.9542 170.699 44.093 170.699 44.3706L172.031 43.9542C172.642 43.9542 175.751 44.3983 181.358 45.2865H183.189C185.576 45.6196 187.075 45.7861 187.686 45.7861V45.2865C187.963 43.4546 188.102 41.9836 188.102 40.8733C188.102 40.5402 187.963 39.3467 187.686 37.2928C188.186 36.4046 190.545 35.794 194.764 35.4609L196.512 35.0445ZM153.796 45.2865C157.904 46.4523 160.429 47.0352 161.373 47.0352L164.454 46.6188C166.23 46.6188 167.285 47.8123 167.618 50.1994C167.285 51.9202 167.119 52.7807 167.119 52.7807C167.119 53.1137 167.119 53.2803 167.119 53.2803C165.342 63.661 163.261 71.516 160.874 76.8452C160.263 77.7334 159.958 78.344 159.958 78.6771C161.179 79.5653 167.424 80.8976 178.693 82.674C179.581 82.674 180.636 82.674 181.857 82.674L183.189 82.1744L185.354 82.674L188.102 82.1744C188.657 82.5074 189.074 82.674 189.351 82.674C194.458 82.0633 197.567 81.4527 198.677 80.8421H200.093L201.925 79.593H202.674C203.007 79.593 204.229 81.7858 206.338 86.1712C206.671 86.5043 206.838 86.6708 206.838 86.6708C203.229 89.613 199.343 91.084 195.18 91.084C195.18 91.3616 194.569 91.5004 193.348 91.5004C193.071 91.5004 192.932 91.5004 192.932 91.5004C191.488 91.8335 189.573 92 187.186 92H178.36C170.311 91.0563 163.011 89.2799 156.46 86.6708C156.46 86.6708 156.294 86.6708 155.961 86.6708C155.683 87.8921 155.267 88.5027 154.712 88.5027H153.379C149.494 86.9484 147.412 86.0324 147.134 85.7549C147.134 85.1443 148.3 82.4797 150.632 77.7611C154.184 68.8792 156.738 61.163 158.292 54.6126C157.071 54.6126 154.684 53.6966 151.131 51.8647L151.547 51.1153C151.547 50.7822 151.409 50.4769 151.131 50.1994C151.742 47.2572 152.186 45.7861 152.463 45.7861C152.741 45.4531 153.046 45.2865 153.379 45.2865H153.796ZM178.36 56.0281L180.025 59.5254C180.025 60.136 180.636 61.6071 181.857 63.9386C181.524 65.1599 180.913 65.7705 180.025 65.7705C179.415 65.9926 177.777 66.7142 175.112 67.9355H174.696C173.863 66.7142 172.67 64.0774 171.116 60.025C171.116 60.025 171.587 59.5532 172.531 58.6094H172.947C172.947 57.9988 173.364 57.5547 174.196 57.2772C176.028 56.9441 177.25 56.5277 177.86 56.0281H178.36ZM233.306 27.5504C233.64 27.5504 233.945 27.5504 234.222 27.5504C234.222 27.5504 234.528 27.5504 235.138 27.5504H235.638C235.916 27.5504 236.221 27.5504 236.554 27.5504C236.554 27.5504 236.831 27.5504 237.387 27.5504H238.219C238.552 27.5504 238.858 27.9667 239.135 28.7994C238.858 29.6876 238.719 30.2983 238.719 30.6313V32.38L240.967 31.9636H241.383C241.717 31.9636 242.022 32.1024 242.299 32.38C242.633 32.1024 243.354 31.9636 244.464 31.9636C245.075 31.9636 245.686 33.851 246.296 37.6259C246.296 37.6259 246.463 37.9312 246.796 38.5418C246.796 38.8749 244.242 39.4855 239.135 40.3737V42.5387L248.045 41.7893V41.2897C248.045 34.1841 248.489 30.6313 249.377 30.6313H250.293L250.793 31.0477C250.793 30.7701 250.932 30.6313 251.209 30.6313C252.375 30.6313 254.012 30.4648 256.122 30.1317C256.733 30.1317 257.038 32.7963 257.038 38.1255C257.038 39.0137 257.038 39.7631 257.038 40.3737H258.287C258.564 40.3737 259.619 40.0684 261.451 39.4578C261.451 39.4578 261.562 39.4578 261.784 39.4578C263.949 38.8471 265.892 38.5418 267.613 38.5418C268.224 39.7631 269.14 41.8725 270.361 44.8702C267.696 46.5911 263.505 47.8956 257.787 48.7838C257.787 51.1708 258.703 55.473 260.535 61.6904L264.116 52.7807L264.532 53.2803L265.864 52.7807L270.777 54.1962V54.6126C270.167 58.776 267.946 64.1051 264.116 70.6001C266.725 73.8753 269.362 76.2623 272.026 77.7611C272.026 78.3718 273.525 79.3987 276.523 80.8421L276.939 81.2584V81.758C276.939 82.6462 276.079 84.4226 274.358 87.0872C273.747 88.3084 273.442 89.0579 273.442 89.3354L272.942 88.9191C272.665 89.1966 272.526 89.3354 272.526 89.3354H272.026C267.641 87.226 263.672 84.7002 260.119 81.758C258.287 80.3147 257.371 79.1212 257.371 78.1775C254.096 81.7858 251.598 83.5899 249.877 83.5899C248.933 83.5899 247.601 81.9523 245.88 78.6771C245.547 78.6771 245.38 78.5105 245.38 78.1775C245.38 77.8999 247.323 76.1235 251.209 72.8483C252.375 71.627 252.958 70.8776 252.958 70.6001C251.181 67.1028 249.683 60.7467 248.461 51.5316V50.1994C235.194 51.0875 227.034 51.5316 223.98 51.5316C220.705 50.6435 219.068 50.0328 219.068 49.6997V49.2834H219.567V48.3675L219.068 48.7838C218.846 46.7854 218.735 45.3143 218.735 44.3706C219.9 43.7599 221.094 43.4546 222.315 43.4546C224.036 43.4546 225.035 43.4546 225.313 43.4546C225.313 43.1771 225.479 43.0383 225.812 43.0383C228.477 43.3159 230.253 43.4546 231.141 43.4546V40.8733C231.141 40.5402 229.06 40.0684 224.896 39.4578C224.619 38.8471 224.313 37.0707 223.98 34.1286C223.98 33.518 225.757 32.9351 229.31 32.38C229.92 32.6575 230.531 32.7963 231.141 32.7963V28.7994C231.141 28.7994 231.752 28.3831 232.973 27.5504H233.306ZM264.532 28.7994C264.865 30.0207 265.476 32.5465 266.364 36.3768C266.031 36.3768 265.587 36.6821 265.032 37.2928C263.2 37.8479 262.006 38.4308 261.451 39.0414C259.952 37.5981 259.203 36.0993 259.203 34.5449C258.87 34.5449 258.703 34.4061 258.703 34.1286H259.203V32.7963V30.6313C259.203 30.2983 259.342 30.1317 259.619 30.1317H260.535C260.535 29.8542 261.867 29.4101 264.532 28.7994ZM228.893 51.5316C229.171 51.7537 229.31 51.8647 229.31 51.8647C231.141 51.8647 232.363 51.7537 232.973 51.5316C233.806 51.7537 234.222 52.0313 234.222 52.3643V55.5285H236.054L243.548 54.1962C243.548 54.8069 244.159 56.1392 245.38 58.1931C245.713 58.1931 245.88 58.8037 245.88 60.025C242.882 61.7459 240.051 62.6063 237.387 62.6063C237.387 62.8839 236.943 63.0227 236.054 63.0227H233.306C232.807 63.0227 232.252 64.355 231.641 67.0195C231.919 67.0195 232.057 67.0195 232.057 67.0195C232.668 67.0195 233.084 66.1591 233.306 64.4382H233.806H236.554C238.275 64.4382 239.135 64.577 239.135 64.8546V67.0195C239.746 67.0195 241.522 66.7142 244.464 66.1036C245.408 67.3249 246.185 68.8237 246.796 70.6001V71.0164C245.242 72.5708 242.549 73.3479 238.719 73.3479V73.7643C239.607 73.4867 240.495 73.3479 241.383 73.3479H242.299C243.132 73.3479 243.715 75.4296 244.048 79.593C244.326 79.593 244.464 79.7318 244.464 80.0094C243.021 80.2314 240.828 80.8143 237.886 81.758V83.0903C237.276 87.2537 236.97 89.7518 236.97 90.5844V91.084C236.693 91.6947 236.249 92 235.638 92C235.638 91.6669 235.471 91.5004 235.138 91.5004C235.138 91.8335 235 92 234.722 92C232.668 91.6669 231.03 91.5004 229.809 91.5004C229.476 91.2228 229.31 91.084 229.31 91.084V90.1681C229.643 85.4496 229.809 82.785 229.809 82.1744C228.977 82.1744 227.783 82.0356 226.229 81.758L224.48 82.1744C219.151 82.1744 216.486 81.5637 216.486 80.3425C216.153 80.3425 215.987 79.9261 215.987 79.0934C216.32 79.0934 216.486 78.9546 216.486 78.6771C216.486 78.6771 216.486 78.5105 216.486 78.1775C216.764 75.2353 217.069 73.7643 217.402 73.7643H217.819C221.371 74.0973 223.869 74.2639 225.313 74.2639H225.812C226.09 74.5414 226.395 74.6802 226.728 74.6802C227.339 74.6802 228.199 74.6802 229.31 74.6802C229.92 74.6802 230.697 74.6802 231.641 74.6802L232.057 74.2639V73.7643C231.169 73.7643 230.559 73.7643 230.226 73.7643C226.395 73.7643 224.313 72.8483 223.98 71.0164L223.148 69.7674C224.313 66.8252 224.896 64.7435 224.896 63.5223C220.788 63.5223 218.735 62.7729 218.735 61.274L219.068 60.8577C218.568 59.3589 218.318 57.86 218.318 56.3612C218.596 56.1392 219.623 55.8616 221.399 55.5285C221.677 55.5285 221.815 55.5285 221.815 55.5285C223.037 55.251 224.202 55.1122 225.313 55.1122C225.313 55.3897 225.479 55.5285 225.812 55.5285H226.728C227.006 55.5285 227.45 54.4738 228.061 52.3643C228.061 52.3643 228.338 52.0868 228.893 51.5316Z" fill="#C235B9"/>
</svg>
