<svg width="379" height="209" viewBox="0 0 379 209" fill="none" xmlns="http://www.w3.org/2000/svg">
<g filter="url(#filter0_d_1821_533)">
<path d="M53.8882 167.364H60.2953V168.462H53.8882V167.364ZM53.8549 163.37H61.0608V164.518H53.8549V163.37ZM56.9337 160.807H58.1651V168.013H56.9337V160.807ZM53.339 163.37H54.5206V167.397C54.5206 168.041 54.4929 168.74 54.4374 169.494C54.3819 170.249 54.2821 171.02 54.1378 171.807C54.0047 172.584 53.7995 173.344 53.5221 174.087C53.2558 174.831 52.8952 175.507 52.4404 176.118C52.3738 176.051 52.2795 175.973 52.1575 175.885C52.0354 175.807 51.9078 175.729 51.7747 175.652C51.6416 175.574 51.5251 175.513 51.4252 175.468C51.869 174.88 52.2129 174.243 52.457 173.555C52.7122 172.867 52.9008 172.168 53.0228 171.458C53.156 170.737 53.2392 170.027 53.2725 169.328C53.3168 168.629 53.339 167.98 53.339 167.381V163.37ZM55.619 167.93C56.1293 169.649 56.9281 171.136 58.0154 172.39C59.1026 173.643 60.4839 174.531 62.1592 175.052C62.0593 175.141 61.9539 175.247 61.843 175.369C61.7431 175.502 61.6433 175.635 61.5434 175.768C61.4547 175.901 61.377 176.029 61.3104 176.151C59.5686 175.507 58.143 174.503 57.0335 173.139C55.9351 171.774 55.1031 170.132 54.5372 168.213L55.619 167.93ZM60.6947 163.37H60.8778L61.0941 163.32L61.9595 163.52C61.8263 164.097 61.6655 164.69 61.4769 165.3C61.2994 165.911 61.1218 166.426 60.9443 166.848L59.8793 166.615C60.0235 166.238 60.1733 165.761 60.3286 165.184C60.4839 164.607 60.6059 164.069 60.6947 163.57V163.37ZM60.029 167.364H60.262L60.4784 167.297L61.2772 167.597C60.9332 169.095 60.4229 170.398 59.7461 171.508C59.0694 172.617 58.2705 173.555 57.3497 174.32C56.4289 175.075 55.4359 175.674 54.3708 176.118C54.3153 176.007 54.2432 175.885 54.1545 175.751C54.0768 175.629 53.9936 175.507 53.9049 175.385C53.8161 175.274 53.7218 175.174 53.6219 175.086C54.6094 174.731 55.5302 174.209 56.3845 173.521C57.2499 172.822 57.9987 171.974 58.6311 170.975C59.2746 169.977 59.7406 168.845 60.029 167.58V167.364ZM49.112 168.962L50.2936 167.547V176.118H49.112V168.962ZM46.8154 163.886H51.7081V165.017H46.8154V163.886ZM49.0621 160.84H50.2437V164.518H49.0621V160.84ZM50.1604 167.564C50.2825 167.675 50.46 167.869 50.693 168.146C50.9371 168.412 51.1922 168.706 51.4585 169.028C51.7359 169.35 51.9855 169.649 52.2074 169.927C52.4404 170.204 52.6068 170.404 52.7066 170.526L51.9578 171.375C51.8357 171.175 51.6638 170.925 51.4419 170.626C51.2311 170.326 50.9981 170.01 50.7429 169.677C50.4988 169.344 50.2603 169.039 50.0273 168.762C49.8054 168.484 49.6279 168.268 49.4948 168.113L50.1604 167.564ZM51.4086 163.886H51.6582L51.8746 163.836L52.5402 164.285C52.163 165.25 51.6804 166.188 51.0924 167.098C50.5044 167.996 49.8609 168.823 49.1619 169.577C48.463 170.321 47.764 170.947 47.0651 171.458C47.0207 171.347 46.9597 171.219 46.882 171.075C46.8154 170.931 46.7378 170.798 46.649 170.676C46.5714 170.543 46.4937 170.437 46.416 170.359C47.0817 169.916 47.7363 169.366 48.3798 168.712C49.0344 168.046 49.6279 167.32 50.1604 166.532C50.693 165.744 51.109 164.945 51.4086 164.135V163.886ZM52.224 166.865L53.0062 167.431C52.751 167.786 52.4792 168.146 52.1907 168.512C51.9023 168.878 51.636 169.189 51.3919 169.444L50.7596 168.978C50.9149 168.79 51.0813 168.573 51.2588 168.329C51.4474 168.074 51.6249 167.819 51.7913 167.564C51.9689 167.297 52.1131 167.064 52.224 166.865ZM67.9672 165.617H78.801V166.548H67.9672V165.617ZM72.7933 160.807H73.9915V166.149H72.7933V160.807ZM70.2138 162.704V163.753H76.6209V162.704H70.2138ZM69.0655 161.806H77.8524V164.635H69.0655V161.806ZM67.2849 166.449V173.605H66.07V167.597H63.8899V166.449H67.2849ZM64.3725 161.706L65.2878 161.057C65.5874 161.334 65.9036 161.639 66.2364 161.972C66.5803 162.294 66.8965 162.621 67.185 162.954C67.4846 163.276 67.7286 163.559 67.9172 163.803L66.9187 164.568C66.7523 164.313 66.5249 164.019 66.2364 163.686C65.948 163.353 65.6429 163.015 65.3211 162.671C64.9994 162.316 64.6832 161.994 64.3725 161.706ZM66.5526 172.773C66.83 172.773 67.0962 172.883 67.3514 173.105C67.6066 173.327 67.9727 173.588 68.4498 173.888C69.0045 174.243 69.648 174.47 70.3802 174.57C71.1236 174.67 71.9834 174.72 72.9597 174.72C73.4811 174.72 74.0248 174.714 74.5906 174.703C75.1564 174.681 75.7167 174.659 76.2714 174.636C76.8372 174.603 77.3753 174.57 77.8857 174.537C78.396 174.492 78.8564 174.448 79.2669 174.403C79.2226 174.503 79.1726 174.631 79.1172 174.786C79.0617 174.941 79.0173 175.097 78.984 175.252C78.9507 175.419 78.9286 175.563 78.9175 175.685C78.6179 175.707 78.2185 175.729 77.7193 175.751C77.22 175.774 76.6819 175.79 76.105 175.801C75.5281 175.824 74.9567 175.84 74.3909 175.851C73.8362 175.862 73.348 175.868 72.9264 175.868C71.8392 175.868 70.9183 175.801 70.1639 175.668C69.4205 175.546 68.7493 175.297 68.1502 174.919C67.8063 174.686 67.4956 174.453 67.2183 174.22C66.9409 173.976 66.7135 173.854 66.536 173.854C66.3585 173.854 66.1532 173.96 65.9202 174.17C65.6872 174.37 65.4432 174.636 65.188 174.969C64.9328 175.302 64.6665 175.668 64.3892 176.068L63.5238 174.969C64.0896 174.326 64.6333 173.799 65.1547 173.388C65.6761 172.978 66.1421 172.773 66.5526 172.773ZM72.7267 168.895H73.9582V170.226C73.9582 170.526 73.8972 170.842 73.7751 171.175C73.6531 171.508 73.4257 171.841 73.0928 172.173C72.76 172.506 72.2829 172.828 71.6616 173.139C71.0403 173.438 70.2249 173.71 69.2153 173.954C69.1376 173.81 69.0267 173.649 68.8825 173.471C68.7493 173.283 68.6162 173.139 68.4831 173.039C69.4594 172.85 70.2304 172.639 70.7963 172.406C71.3732 172.173 71.8003 171.935 72.0777 171.691C72.355 171.436 72.5326 171.18 72.6102 170.925C72.6879 170.67 72.7267 170.432 72.7267 170.21V168.895ZM73.9582 172.19L74.4907 171.375C74.9456 171.497 75.4282 171.658 75.9386 171.857C76.4489 172.046 76.9315 172.24 77.3864 172.44C77.8524 172.628 78.2407 172.811 78.5513 172.989L78.0188 173.937C77.7082 173.76 77.3254 173.566 76.8705 173.355C76.4156 173.133 75.933 172.922 75.4227 172.723C74.9123 172.523 74.4242 172.345 73.9582 172.19ZM69.2819 167.364H77.4696V171.425H76.2215V168.313H70.4967V171.558H69.2819V167.364ZM87.7543 174.387H93.8618V175.385H87.7543V174.387ZM88.6529 165.184H94.1447V166.166H88.6529V165.184ZM86.9887 171.125H94.6772V176.101H93.4457V172.123H88.1703V176.101H86.9887V171.125ZM88.5198 166.149C88.9414 166.604 89.4517 167.048 90.0508 167.48C90.6499 167.902 91.3045 168.301 92.0146 168.679C92.7357 169.056 93.479 169.394 94.2446 169.694C95.0101 169.982 95.759 170.215 96.4912 170.393C96.3581 170.526 96.2138 170.692 96.0585 170.892C95.9143 171.092 95.7978 171.269 95.709 171.425C94.9768 171.214 94.2279 170.947 93.4624 170.626C92.6969 170.304 91.948 169.932 91.2157 169.511C90.4946 169.089 89.8123 168.64 89.1688 168.163C88.5364 167.686 87.9872 167.186 87.5213 166.665L88.5198 166.149ZM93.8784 165.184H94.1114L94.3278 165.134L95.1099 165.617C94.6661 166.371 94.1003 167.064 93.4125 167.697C92.7246 168.318 91.9646 168.878 91.1325 169.378C90.3004 169.866 89.4351 170.293 88.5364 170.659C87.6378 171.025 86.7502 171.325 85.8737 171.558C85.8183 171.402 85.7295 171.225 85.6075 171.025C85.4854 170.814 85.3634 170.648 85.2413 170.526C86.0734 170.348 86.9166 170.099 87.7709 169.777C88.6363 169.444 89.4628 169.056 90.2505 168.612C91.0382 168.168 91.7427 167.675 92.364 167.131C92.9964 166.587 93.5012 166.005 93.8784 165.384V165.184ZM81.3139 175.069C81.6245 174.736 81.9685 174.342 82.3457 173.888C82.7229 173.422 83.1112 172.933 83.5106 172.423C83.91 171.902 84.2817 171.391 84.6256 170.892L85.3911 171.774C85.0805 172.24 84.7421 172.723 84.376 173.222C84.0209 173.721 83.6604 174.215 83.2943 174.703C82.9281 175.18 82.5676 175.624 82.2125 176.034L81.3139 175.069ZM82.096 165.134L82.8116 164.285C83.1223 164.429 83.4551 164.601 83.8101 164.801C84.1763 165.001 84.5202 165.201 84.8419 165.4C85.1748 165.6 85.4466 165.783 85.6574 165.949L84.9085 166.898C84.6977 166.732 84.4314 166.543 84.1097 166.332C83.788 166.121 83.4496 165.911 83.0946 165.7C82.7395 165.489 82.4067 165.3 82.096 165.134ZM80.9644 168.362L81.6966 167.497C82.0184 167.63 82.3623 167.791 82.7284 167.98C83.0946 168.168 83.4385 168.362 83.7602 168.562C84.0931 168.751 84.3593 168.939 84.559 169.128L83.8101 170.077C83.6104 169.899 83.3497 169.71 83.028 169.511C82.7062 169.3 82.3623 169.095 81.9962 168.895C81.6412 168.684 81.2972 168.507 80.9644 168.362ZM88.9358 163.936L90.1673 164.185C89.7013 164.94 89.1244 165.711 88.4366 166.499C87.7598 167.275 86.9665 168.002 86.0568 168.679C85.9569 168.557 85.8183 168.418 85.6407 168.263C85.4632 168.107 85.3079 167.991 85.1748 167.913C86.0401 167.336 86.7946 166.687 87.4381 165.966C88.0815 165.245 88.5808 164.568 88.9358 163.936ZM85.0749 160.79H86.2898V164.485H85.0749V160.79ZM90.8163 160.79H92.0312V164.485H90.8163V160.79ZM81.2972 161.955H95.942V163.07H81.2972V161.955ZM99.6032 163.47H104.662V174.353H99.6032V173.222H103.514V164.585H99.6032V163.47ZM98.871 163.47H100.019V175.668H98.871V163.47ZM99.52 168.096H104.113V169.195H99.52V168.096ZM101.417 160.757L102.765 160.99C102.599 161.512 102.416 162.039 102.216 162.571C102.027 163.104 101.85 163.559 101.683 163.936L100.668 163.686C100.768 163.409 100.862 163.098 100.951 162.754C101.051 162.41 101.14 162.061 101.217 161.706C101.306 161.351 101.373 161.035 101.417 160.757ZM107.042 163.42H112.151V164.568H107.042V163.42ZM111.702 163.42H112.883C112.883 163.42 112.883 163.459 112.883 163.536C112.883 163.614 112.883 163.708 112.883 163.819C112.883 163.919 112.878 163.997 112.867 164.052C112.8 165.96 112.734 167.575 112.667 168.895C112.612 170.215 112.539 171.297 112.451 172.14C112.362 172.972 112.257 173.621 112.134 174.087C112.024 174.553 111.885 174.886 111.718 175.086C111.53 175.33 111.33 175.496 111.119 175.585C110.92 175.685 110.67 175.751 110.37 175.785C110.093 175.807 109.727 175.812 109.272 175.801C108.828 175.801 108.368 175.785 107.891 175.751C107.88 175.574 107.835 175.369 107.758 175.136C107.691 174.903 107.597 174.709 107.475 174.553C108.03 174.598 108.529 174.625 108.973 174.636C109.427 174.647 109.755 174.653 109.954 174.653C110.121 174.653 110.254 174.636 110.354 174.603C110.465 174.559 110.57 174.481 110.67 174.37C110.803 174.226 110.92 173.932 111.019 173.488C111.13 173.033 111.225 172.39 111.302 171.558C111.38 170.726 111.452 169.666 111.519 168.379C111.585 167.081 111.646 165.517 111.702 163.686V163.42ZM107.375 160.724L108.573 160.99C108.373 161.822 108.129 162.638 107.841 163.436C107.564 164.224 107.253 164.968 106.909 165.666C106.576 166.365 106.221 166.981 105.844 167.514C105.766 167.447 105.661 167.369 105.528 167.281C105.406 167.181 105.278 167.092 105.145 167.014C105.012 166.926 104.895 166.854 104.795 166.798C105.184 166.299 105.539 165.727 105.861 165.084C106.182 164.429 106.471 163.73 106.726 162.987C106.981 162.244 107.197 161.489 107.375 160.724ZM106.609 167.73L107.591 167.181C107.902 167.569 108.224 167.996 108.556 168.462C108.9 168.928 109.217 169.378 109.505 169.81C109.805 170.243 110.043 170.626 110.221 170.959L109.156 171.624C108.989 171.28 108.762 170.886 108.473 170.443C108.196 169.988 107.891 169.527 107.558 169.061C107.236 168.584 106.92 168.141 106.609 167.73ZM118.658 167.364V173.255H117.443V168.529H115.33V167.364H118.658ZM118.658 172.739C119.046 173.349 119.601 173.804 120.322 174.104C121.043 174.403 121.892 174.575 122.868 174.62C123.334 174.631 123.9 174.642 124.566 174.653C125.232 174.653 125.931 174.653 126.663 174.653C127.395 174.642 128.105 174.625 128.793 174.603C129.481 174.581 130.074 174.553 130.574 174.52C130.529 174.609 130.479 174.725 130.424 174.869C130.368 175.014 130.318 175.163 130.274 175.319C130.23 175.474 130.196 175.618 130.174 175.751C129.708 175.762 129.153 175.774 128.51 175.785C127.878 175.807 127.217 175.818 126.53 175.818C125.842 175.829 125.176 175.829 124.533 175.818C123.889 175.807 123.34 175.796 122.885 175.785C121.787 175.74 120.849 175.563 120.073 175.252C119.296 174.941 118.647 174.459 118.126 173.804C117.759 174.159 117.382 174.514 116.994 174.869C116.617 175.236 116.223 175.602 115.812 175.968L115.163 174.736C115.529 174.47 115.923 174.165 116.345 173.821C116.778 173.466 117.182 173.105 117.56 172.739H118.658ZM115.496 161.905L116.445 161.206C116.789 161.462 117.133 161.75 117.476 162.072C117.832 162.394 118.153 162.715 118.442 163.037C118.741 163.359 118.974 163.658 119.141 163.936L118.126 164.718C117.97 164.441 117.748 164.135 117.46 163.803C117.171 163.459 116.855 163.126 116.511 162.804C116.178 162.471 115.84 162.172 115.496 161.905ZM119.773 163.869H130.407V164.851H119.773V163.869ZM121.088 168.063H126.679V169.045H121.088V168.063ZM126.58 169.577H129.059V170.509H126.58V169.577ZM124.433 162.105H125.631V167.663H124.433V162.105ZM124.117 164.318L125.015 164.701C124.638 165.234 124.172 165.75 123.617 166.249C123.063 166.748 122.475 167.203 121.853 167.614C121.232 168.013 120.611 168.34 119.989 168.595C119.901 168.451 119.784 168.29 119.64 168.113C119.496 167.935 119.363 167.797 119.241 167.697C119.84 167.486 120.45 167.209 121.071 166.865C121.692 166.51 122.269 166.116 122.802 165.683C123.334 165.239 123.773 164.784 124.117 164.318ZM125.947 164.368C126.28 164.801 126.702 165.228 127.212 165.65C127.733 166.06 128.294 166.426 128.893 166.748C129.492 167.07 130.091 167.325 130.69 167.514C130.557 167.614 130.418 167.758 130.274 167.946C130.13 168.135 130.013 168.296 129.925 168.429C129.325 168.196 128.721 167.885 128.111 167.497C127.511 167.109 126.951 166.676 126.43 166.199C125.908 165.711 125.465 165.212 125.098 164.701L125.947 164.368ZM128.71 169.577H129.875C129.875 169.577 129.869 169.638 129.858 169.76C129.858 169.871 129.852 169.966 129.841 170.043C129.753 171.02 129.647 171.746 129.525 172.223C129.403 172.689 129.253 173.011 129.076 173.189C128.932 173.322 128.776 173.416 128.61 173.471C128.455 173.516 128.266 173.544 128.044 173.555C127.844 173.566 127.561 173.571 127.195 173.571C126.829 173.571 126.435 173.555 126.014 173.521C126.003 173.377 125.969 173.216 125.914 173.039C125.858 172.861 125.792 172.7 125.714 172.556C126.114 172.589 126.485 172.612 126.829 172.623C127.184 172.634 127.428 172.639 127.561 172.639C127.706 172.639 127.817 172.634 127.894 172.623C127.983 172.601 128.061 172.562 128.127 172.506C128.26 172.395 128.371 172.135 128.46 171.724C128.549 171.302 128.632 170.637 128.71 169.727V169.577ZM128.859 161.073L129.675 161.922C129.087 162.044 128.427 162.155 127.695 162.255C126.962 162.355 126.191 162.444 125.381 162.521C124.571 162.588 123.756 162.649 122.935 162.704C122.114 162.749 121.321 162.782 120.555 162.804C120.544 162.682 120.505 162.538 120.439 162.371C120.383 162.194 120.328 162.039 120.272 161.905C121.027 161.883 121.803 161.85 122.602 161.806C123.401 161.75 124.183 161.689 124.949 161.623C125.725 161.545 126.446 161.462 127.112 161.373C127.778 161.273 128.36 161.173 128.859 161.073ZM123.168 168.329H124.333C124.266 168.984 124.155 169.588 124 170.143C123.856 170.698 123.64 171.208 123.351 171.674C123.063 172.129 122.685 172.534 122.219 172.889C121.753 173.233 121.16 173.527 120.439 173.771C120.372 173.638 120.272 173.483 120.139 173.305C120.006 173.116 119.878 172.967 119.756 172.856C120.4 172.645 120.927 172.395 121.337 172.107C121.759 171.818 122.092 171.486 122.336 171.108C122.591 170.72 122.774 170.298 122.885 169.844C123.007 169.378 123.101 168.873 123.168 168.329ZM126.38 168.063H127.495C127.406 168.573 127.301 169.106 127.179 169.661C127.068 170.204 126.962 170.676 126.862 171.075L125.797 170.925C125.897 170.526 125.997 170.065 126.097 169.544C126.208 169.023 126.302 168.529 126.38 168.063ZM133.736 161.806H138.495V171.741H133.736V170.576H137.33V162.954H133.736V161.806ZM133.736 166.132H137.846V167.264H133.736V166.132ZM140.775 161.506H146.383V162.671H140.775V161.506ZM140.775 165.55H146.383V166.682H140.775V165.55ZM140.659 169.627H146.35V170.759H140.659V169.627ZM133.037 161.806H134.218V173.305H133.037V161.806ZM145.917 161.506H147.149V174.453C147.149 174.842 147.093 175.141 146.982 175.352C146.883 175.574 146.699 175.735 146.433 175.835C146.156 175.934 145.784 175.995 145.318 176.018C144.852 176.051 144.259 176.068 143.538 176.068C143.526 175.957 143.493 175.824 143.438 175.668C143.393 175.524 143.338 175.374 143.271 175.219C143.216 175.075 143.155 174.947 143.088 174.836C143.454 174.847 143.798 174.853 144.12 174.853C144.453 174.864 144.741 174.864 144.985 174.853C145.241 174.853 145.413 174.853 145.501 174.853C145.657 174.853 145.762 174.825 145.817 174.77C145.884 174.703 145.917 174.598 145.917 174.453V161.506ZM140.043 161.506H141.258V167.447C141.258 168.146 141.219 168.889 141.141 169.677C141.063 170.454 140.908 171.236 140.675 172.024C140.453 172.8 140.115 173.549 139.66 174.27C139.205 174.991 138.6 175.64 137.846 176.217C137.791 176.129 137.707 176.029 137.596 175.918C137.485 175.807 137.369 175.696 137.247 175.585C137.125 175.485 137.02 175.407 136.931 175.352C137.641 174.819 138.201 174.231 138.612 173.588C139.022 172.933 139.333 172.257 139.544 171.558C139.754 170.859 139.887 170.16 139.943 169.461C140.009 168.762 140.043 168.085 140.043 167.431V161.506ZM151.459 176.55L151.093 175.668C151.77 175.391 152.286 175.036 152.641 174.603C153.007 174.17 153.19 173.638 153.19 173.006L152.89 171.608L153.789 172.872C153.667 173.017 153.528 173.116 153.373 173.172C153.218 173.216 153.062 173.238 152.907 173.238C152.563 173.238 152.269 173.139 152.025 172.939C151.781 172.739 151.659 172.445 151.659 172.057C151.659 171.658 151.781 171.358 152.025 171.158C152.28 170.959 152.58 170.859 152.924 170.859C153.389 170.859 153.739 171.036 153.972 171.391C154.216 171.735 154.338 172.196 154.338 172.773C154.338 173.671 154.077 174.448 153.556 175.102C153.034 175.757 152.335 176.24 151.459 176.55ZM46.4993 193.63L59.6796 189.57L60.0124 190.668L46.8487 194.762L46.4993 193.63ZM59.2968 189.836H59.147L59.4466 189.586L59.7128 189.387L60.6115 189.786L60.5449 190.019C60.5227 191.583 60.4673 192.881 60.3785 193.913C60.3008 194.934 60.1733 195.683 59.9957 196.16C59.8515 196.592 59.6629 196.898 59.4299 197.075C59.1969 197.253 58.9362 197.369 58.6478 197.425C58.3815 197.469 58.0598 197.497 57.6825 197.508C57.3164 197.508 56.9836 197.502 56.684 197.491C56.6729 197.391 56.6507 197.269 56.6175 197.125C56.5842 196.981 56.5453 196.837 56.501 196.692C56.4566 196.548 56.4067 196.432 56.3512 196.343C56.6507 196.365 56.9669 196.382 57.2998 196.393C57.6437 196.393 57.8878 196.393 58.032 196.393C58.2206 196.393 58.387 196.348 58.5313 196.26C58.6755 196.16 58.8031 195.943 58.914 195.611C59.0583 195.189 59.1526 194.496 59.1969 193.53C59.2524 192.565 59.2857 191.334 59.2968 189.836ZM54.2543 186.824H55.4858V198.54H54.2543V186.824ZM49.5613 187.922H50.7762V199.139C50.7762 199.538 50.8261 199.849 50.926 200.071C51.0258 200.281 51.2144 200.426 51.4918 200.503C51.7802 200.581 52.2018 200.62 52.7566 200.62C52.9119 200.62 53.1837 200.62 53.572 200.62C53.9603 200.62 54.3986 200.62 54.8867 200.62C55.3749 200.62 55.8686 200.62 56.3678 200.62C56.8671 200.62 57.3164 200.62 57.7158 200.62C58.1263 200.62 58.4314 200.62 58.6311 200.62C59.1526 200.62 59.5464 200.542 59.8127 200.387C60.079 200.22 60.2731 199.926 60.3951 199.505C60.5172 199.072 60.6115 198.456 60.6781 197.658C60.8334 197.768 61.022 197.874 61.2439 197.974C61.4769 198.062 61.6821 198.123 61.8596 198.157C61.7709 199.067 61.6322 199.788 61.4436 200.32C61.255 200.842 60.9443 201.213 60.5116 201.435C60.09 201.657 59.4743 201.768 58.6644 201.768C58.5646 201.768 58.3649 201.768 58.0653 201.768C57.7657 201.768 57.4107 201.768 57.0002 201.768C56.5897 201.768 56.1626 201.768 55.7188 201.768C55.275 201.768 54.8479 201.768 54.4374 201.768C54.0269 201.768 53.6774 201.768 53.389 201.768C53.1005 201.768 52.9063 201.768 52.8065 201.768C51.9855 201.768 51.3365 201.696 50.8594 201.552C50.3823 201.407 50.044 201.141 49.8443 200.753C49.6556 200.365 49.5613 199.815 49.5613 199.105V187.922ZM64.7553 200.287C65.7316 200.254 66.8633 200.22 68.1502 200.187C69.4483 200.143 70.824 200.093 72.2774 200.037C73.7308 199.982 75.1786 199.921 76.6209 199.854L76.5876 201.003C75.1897 201.069 73.7807 201.136 72.3606 201.202C70.9405 201.269 69.5925 201.324 68.3166 201.369C67.0408 201.424 65.9091 201.474 64.9217 201.518L64.7553 200.287ZM64.6222 195.145H78.4182V196.326H64.6222V195.145ZM67.4679 191.949H75.406V193.114H67.4679V191.949ZM69.182 195.893L70.5799 196.293C70.3248 196.814 70.0474 197.369 69.7478 197.957C69.4594 198.534 69.1654 199.094 68.8658 199.638C68.5774 200.182 68.2945 200.664 68.0171 201.086L66.9187 200.703C67.185 200.27 67.4568 199.771 67.7342 199.205C68.0226 198.639 68.2945 198.068 68.5496 197.491C68.8048 196.903 69.0156 196.371 69.182 195.893ZM73.1261 197.658L74.1912 197.075C74.7126 197.508 75.223 197.985 75.7222 198.506C76.2326 199.028 76.6986 199.544 77.1201 200.054C77.5417 200.564 77.8801 201.03 78.1353 201.452L77.0203 202.151C76.7651 201.729 76.4267 201.258 76.0051 200.736C75.5836 200.204 75.1231 199.666 74.6239 199.122C74.1357 198.578 73.6365 198.09 73.1261 197.658ZM71.3954 188.022C70.9516 188.688 70.3636 189.375 69.6313 190.086C68.9102 190.784 68.1058 191.45 67.2183 192.083C66.3418 192.715 65.4321 193.27 64.489 193.747C64.4336 193.636 64.3614 193.519 64.2727 193.397C64.195 193.275 64.1063 193.153 64.0064 193.031C63.9177 192.909 63.8289 192.804 63.7401 192.715C64.7054 192.26 65.6318 191.711 66.5193 191.067C67.418 190.413 68.2279 189.719 68.949 188.987C69.6813 188.244 70.2582 187.517 70.6798 186.807H71.9778C72.4216 187.428 72.9264 188.027 73.4922 188.604C74.0581 189.17 74.6627 189.703 75.3062 190.202C75.9497 190.701 76.6043 191.151 77.2699 191.55C77.9467 191.938 78.6179 192.266 79.2836 192.532C79.1394 192.687 78.9951 192.87 78.8509 193.081C78.7178 193.281 78.5902 193.469 78.4681 193.647C77.6139 193.236 76.7374 192.732 75.8387 192.132C74.9512 191.522 74.1191 190.862 73.3425 190.152C72.5658 189.442 71.9168 188.732 71.3954 188.022ZM81.3305 189.37H95.9087V190.568H81.3305V189.37ZM86.4895 194.645H95.2597V195.81H86.4895V194.645ZM85.8238 200.537H95.8921V201.701H85.8238V200.537ZM90.2339 191.433H91.482V201.169H90.2339V191.433ZM86.789 186.79L88.0871 187.107C87.6988 188.371 87.2051 189.625 86.606 190.868C86.018 192.11 85.3079 193.275 84.4758 194.362C83.6437 195.439 82.673 196.371 81.5635 197.158C81.5191 197.047 81.4581 196.925 81.3804 196.792C81.3028 196.648 81.2196 196.509 81.1308 196.376C81.0532 196.232 80.981 196.11 80.9145 196.01C81.6689 195.489 82.3512 194.878 82.9614 194.179C83.5827 193.469 84.1374 192.709 84.6256 191.899C85.1138 191.078 85.5353 190.235 85.8904 189.37C86.2565 188.505 86.556 187.645 86.789 186.79ZM83.494 193.647H84.7421V202.034H83.494V193.647ZM107.192 194.03H108.44V200.237C108.44 200.503 108.484 200.681 108.573 200.77C108.673 200.847 108.889 200.886 109.222 200.886C109.3 200.886 109.433 200.886 109.622 200.886C109.821 200.886 110.038 200.886 110.271 200.886C110.515 200.886 110.737 200.886 110.936 200.886C111.147 200.886 111.302 200.886 111.402 200.886C111.624 200.886 111.791 200.819 111.901 200.686C112.012 200.553 112.09 200.287 112.134 199.888C112.179 199.488 112.212 198.889 112.234 198.09C112.323 198.168 112.434 198.24 112.567 198.307C112.711 198.373 112.856 198.434 113 198.49C113.155 198.545 113.288 198.589 113.399 198.623C113.344 199.521 113.261 200.226 113.15 200.736C113.039 201.236 112.85 201.579 112.584 201.768C112.329 201.968 111.968 202.068 111.502 202.068C111.424 202.068 111.269 202.068 111.036 202.068C110.803 202.068 110.548 202.068 110.271 202.068C110.004 202.068 109.76 202.068 109.538 202.068C109.316 202.068 109.167 202.068 109.089 202.068C108.59 202.068 108.201 202.012 107.924 201.901C107.647 201.801 107.453 201.618 107.342 201.352C107.242 201.086 107.192 200.714 107.192 200.237V194.03ZM102.798 194.113H104.113C104.047 195.056 103.925 195.938 103.747 196.759C103.581 197.58 103.309 198.329 102.932 199.006C102.565 199.671 102.044 200.265 101.367 200.786C100.702 201.308 99.8362 201.746 98.7711 202.101C98.7267 201.99 98.6602 201.868 98.5714 201.735C98.4827 201.602 98.3884 201.468 98.2885 201.335C98.1887 201.213 98.0888 201.113 97.989 201.036C98.9875 200.736 99.7863 200.359 100.385 199.904C100.996 199.449 101.462 198.933 101.783 198.356C102.116 197.768 102.349 197.119 102.482 196.409C102.626 195.699 102.732 194.934 102.798 194.113ZM99.7197 188.022L100.851 187.606C101.129 188.027 101.406 188.488 101.683 188.987C101.961 189.475 102.205 189.958 102.416 190.435C102.638 190.912 102.798 191.339 102.898 191.716L101.683 192.182C101.595 191.816 101.445 191.395 101.234 190.918C101.034 190.429 100.801 189.936 100.535 189.436C100.28 188.926 100.008 188.455 99.7197 188.022ZM110.653 187.423L111.951 187.889C111.718 188.366 111.469 188.865 111.203 189.387C110.936 189.908 110.664 190.407 110.387 190.884C110.121 191.361 109.866 191.777 109.622 192.132L108.556 191.716C108.801 191.339 109.05 190.901 109.305 190.402C109.572 189.902 109.821 189.392 110.054 188.871C110.298 188.338 110.498 187.856 110.653 187.423ZM98.3384 193.148H113.2V194.329H98.3384V193.148ZM105.062 186.79H106.326V193.63H105.062V186.79ZM118.375 191.716V193.847H127.595V191.716H118.375ZM118.375 188.588V190.668H127.595V188.588H118.375ZM117.127 187.456H128.893V194.962H117.127V187.456ZM115.463 200.453H130.341V201.618H115.463V200.453ZM116.594 196.892H129.442V198.057H116.594V196.892ZM122.353 188.155H123.551V194.778H123.617V201.119H122.269V194.778H122.353V188.155ZM135.666 202.001C135.644 201.89 135.599 201.768 135.533 201.635C135.477 201.502 135.416 201.363 135.35 201.219C135.294 201.086 135.228 200.975 135.15 200.886C135.294 200.831 135.444 200.725 135.599 200.57C135.755 200.415 135.832 200.176 135.832 199.854V186.874H137.13V200.886C137.13 200.886 137.081 200.908 136.981 200.953C136.881 201.008 136.759 201.075 136.615 201.152C136.47 201.23 136.326 201.313 136.182 201.402C136.038 201.502 135.916 201.602 135.816 201.701C135.716 201.812 135.666 201.912 135.666 202.001ZM135.666 202.001L135.583 200.869L136.232 200.353L141.141 199.155C141.141 199.333 141.152 199.538 141.174 199.771C141.208 199.993 141.235 200.176 141.258 200.32C140.115 200.631 139.194 200.88 138.495 201.069C137.807 201.258 137.275 201.407 136.897 201.518C136.531 201.64 136.26 201.735 136.082 201.801C135.905 201.868 135.766 201.934 135.666 202.001ZM132.637 193.297H147.415V194.546H132.637V193.297ZM140.775 193.88C141.163 194.945 141.685 195.91 142.339 196.776C142.994 197.641 143.782 198.384 144.702 199.006C145.623 199.627 146.655 200.104 147.798 200.437C147.698 200.525 147.593 200.636 147.482 200.77C147.371 200.914 147.265 201.058 147.165 201.202C147.066 201.346 146.982 201.485 146.916 201.618C145.729 201.219 144.664 200.67 143.721 199.971C142.789 199.272 141.979 198.434 141.291 197.458C140.614 196.481 140.054 195.389 139.61 194.179L140.775 193.88ZM144.503 187.157L145.751 187.689C145.207 188.333 144.575 188.948 143.854 189.536C143.144 190.113 142.4 190.651 141.624 191.151C140.847 191.639 140.082 192.071 139.327 192.449C139.25 192.349 139.15 192.238 139.028 192.116C138.906 191.994 138.778 191.872 138.645 191.75C138.512 191.617 138.39 191.511 138.279 191.433C139.066 191.112 139.843 190.729 140.609 190.285C141.385 189.841 142.106 189.353 142.772 188.821C143.449 188.277 144.026 187.722 144.503 187.157ZM151.343 199.821H163.092V201.052H151.343V199.821ZM156.435 186.874H157.733V200.537H156.435V186.874ZM150.727 195.195H151.975V202.101H150.727V195.195ZM162.426 195.195H163.707V202.068H162.426V195.195ZM151.359 188.371H152.607V192.915H161.744V188.371H163.042V194.113H151.359V188.371ZM175.756 192.415H181.963V193.58H175.756V192.415ZM167.002 188.538H174.358V189.586H167.002V188.538ZM166.819 195.128H174.425V196.226H166.819V195.128ZM166.769 192.332H174.558V193.397H166.769V192.332ZM178.868 192.881H180.066V202.018H178.868V192.881ZM170.098 186.857H171.313V189.07H170.098V186.857ZM170.098 193.214H171.313V202.068H170.098V193.214ZM175.157 188.155L176.688 188.621C176.677 188.743 176.566 188.821 176.355 188.854V193.996C176.355 194.618 176.322 195.283 176.255 195.993C176.2 196.703 176.083 197.425 175.906 198.157C175.728 198.878 175.462 199.582 175.107 200.27C174.752 200.958 174.286 201.591 173.709 202.167C173.654 202.079 173.57 201.979 173.459 201.868C173.36 201.757 173.249 201.646 173.127 201.535C173.016 201.435 172.91 201.363 172.81 201.319C173.343 200.797 173.765 200.231 174.075 199.621C174.397 199.011 174.63 198.384 174.774 197.741C174.93 197.097 175.029 196.459 175.074 195.827C175.129 195.183 175.157 194.568 175.157 193.98V188.155ZM180.732 186.973L181.747 187.889C181.226 188.122 180.632 188.344 179.966 188.554C179.301 188.754 178.613 188.937 177.903 189.104C177.204 189.259 176.522 189.398 175.856 189.52C175.823 189.387 175.767 189.226 175.689 189.037C175.612 188.837 175.534 188.676 175.456 188.554C176.078 188.421 176.716 188.272 177.37 188.105C178.036 187.939 178.663 187.761 179.251 187.573C179.839 187.373 180.333 187.173 180.732 186.973ZM171.18 196.526C171.313 196.615 171.507 196.764 171.762 196.975C172.028 197.175 172.311 197.397 172.611 197.641C172.91 197.885 173.182 198.112 173.426 198.323C173.67 198.523 173.848 198.667 173.959 198.756L173.21 199.688C173.077 199.532 172.894 199.338 172.661 199.105C172.428 198.872 172.173 198.628 171.895 198.373C171.629 198.107 171.368 197.863 171.113 197.641C170.869 197.408 170.669 197.23 170.514 197.108L171.18 196.526ZM168.001 189.902L168.999 189.669C169.166 190.036 169.316 190.441 169.449 190.884C169.582 191.328 169.671 191.711 169.715 192.033L168.65 192.316C168.628 191.983 168.556 191.594 168.434 191.151C168.312 190.696 168.167 190.28 168.001 189.902ZM172.278 189.636L173.41 189.886C173.254 190.307 173.093 190.735 172.927 191.167C172.761 191.6 172.6 191.972 172.444 192.282L171.429 192.033C171.529 191.811 171.629 191.561 171.729 191.284C171.84 191.006 171.945 190.723 172.045 190.435C172.145 190.135 172.222 189.869 172.278 189.636ZM170.098 195.694L170.996 196.043C170.719 196.642 170.375 197.253 169.965 197.874C169.554 198.484 169.116 199.055 168.65 199.588C168.195 200.109 167.746 200.542 167.302 200.886C167.202 200.742 167.069 200.586 166.903 200.42C166.747 200.243 166.598 200.098 166.453 199.987C166.908 199.699 167.363 199.322 167.818 198.856C168.284 198.39 168.717 197.879 169.116 197.325C169.515 196.77 169.843 196.226 170.098 195.694ZM185.308 189.47H190.368V200.353H185.308V199.222H189.219V190.585H185.308V189.47ZM184.576 189.47H185.724V201.668H184.576V189.47ZM185.225 194.096H189.818V195.195H185.225V194.096ZM187.122 186.757L188.47 186.99C188.304 187.512 188.121 188.039 187.921 188.571C187.733 189.104 187.555 189.559 187.389 189.936L186.374 189.686C186.473 189.409 186.568 189.098 186.656 188.754C186.756 188.41 186.845 188.061 186.923 187.706C187.011 187.351 187.078 187.035 187.122 186.757ZM192.747 189.42H197.856V190.568H192.747V189.42ZM197.407 189.42H198.589C198.589 189.42 198.589 189.459 198.589 189.536C198.589 189.614 198.589 189.708 198.589 189.819C198.589 189.919 198.583 189.997 198.572 190.052C198.505 191.96 198.439 193.575 198.372 194.895C198.317 196.215 198.245 197.297 198.156 198.14C198.067 198.972 197.962 199.621 197.84 200.087C197.729 200.553 197.59 200.886 197.424 201.086C197.235 201.33 197.035 201.496 196.825 201.585C196.625 201.685 196.375 201.751 196.076 201.785C195.798 201.807 195.432 201.812 194.977 201.801C194.534 201.801 194.073 201.785 193.596 201.751C193.585 201.574 193.541 201.369 193.463 201.136C193.396 200.903 193.302 200.709 193.18 200.553C193.735 200.598 194.234 200.625 194.678 200.636C195.133 200.647 195.46 200.653 195.66 200.653C195.826 200.653 195.959 200.636 196.059 200.603C196.17 200.559 196.275 200.481 196.375 200.37C196.508 200.226 196.625 199.932 196.725 199.488C196.836 199.033 196.93 198.39 197.008 197.558C197.085 196.726 197.157 195.666 197.224 194.379C197.291 193.081 197.352 191.517 197.407 189.686V189.42ZM193.08 186.724L194.278 186.99C194.079 187.822 193.835 188.638 193.546 189.436C193.269 190.224 192.958 190.968 192.614 191.666C192.281 192.365 191.926 192.981 191.549 193.514C191.471 193.447 191.366 193.369 191.233 193.281C191.111 193.181 190.983 193.092 190.85 193.014C190.717 192.926 190.601 192.854 190.501 192.798C190.889 192.299 191.244 191.727 191.566 191.084C191.887 190.429 192.176 189.73 192.431 188.987C192.686 188.244 192.903 187.489 193.08 186.724ZM192.315 193.73L193.296 193.181C193.607 193.569 193.929 193.996 194.262 194.462C194.606 194.928 194.922 195.378 195.21 195.81C195.51 196.243 195.748 196.626 195.926 196.959L194.861 197.624C194.694 197.28 194.467 196.886 194.179 196.443C193.901 195.988 193.596 195.527 193.263 195.061C192.941 194.584 192.625 194.141 192.315 193.73ZM202.366 187.406H205.761V188.538H202.366V187.406ZM202.416 191.3H205.661V192.449H202.416V191.3ZM202.383 195.294H205.678V196.459H202.383V195.294ZM201.784 187.406H202.899V193.397C202.899 194.041 202.882 194.74 202.849 195.494C202.827 196.249 202.771 197.02 202.682 197.807C202.605 198.595 202.483 199.361 202.316 200.104C202.15 200.836 201.928 201.513 201.651 202.134C201.584 202.068 201.49 201.995 201.368 201.918C201.246 201.84 201.118 201.768 200.985 201.701C200.852 201.635 200.741 201.585 200.652 201.552C200.918 200.964 201.124 200.326 201.268 199.638C201.423 198.95 201.534 198.246 201.601 197.524C201.678 196.792 201.728 196.077 201.751 195.378C201.773 194.668 201.784 194.007 201.784 193.397V187.406ZM205.179 187.406H206.327V200.62C206.327 200.941 206.283 201.202 206.194 201.402C206.116 201.602 205.972 201.751 205.761 201.851C205.561 201.951 205.29 202.012 204.946 202.034C204.613 202.068 204.175 202.084 203.631 202.084C203.62 201.973 203.598 201.846 203.564 201.701C203.531 201.568 203.487 201.43 203.431 201.285C203.387 201.141 203.337 201.014 203.282 200.903C203.648 200.914 203.981 200.919 204.28 200.919C204.58 200.919 204.779 200.914 204.879 200.903C204.99 200.903 205.068 200.88 205.112 200.836C205.157 200.792 205.179 200.714 205.179 200.603V187.406ZM211.07 190.036H212.251V200.636C212.251 200.98 212.207 201.252 212.118 201.452C212.03 201.652 211.874 201.801 211.652 201.901C211.408 202.001 211.092 202.062 210.704 202.084C210.327 202.118 209.827 202.134 209.206 202.134C209.184 201.968 209.134 201.768 209.056 201.535C208.99 201.302 208.912 201.102 208.823 200.936C209.256 200.947 209.655 200.953 210.021 200.953C210.388 200.953 210.626 200.947 210.737 200.936C210.959 200.936 211.07 200.831 211.07 200.62V190.036ZM208.807 187.789L209.306 186.824C209.683 186.924 210.083 187.046 210.504 187.19C210.937 187.323 211.364 187.467 211.786 187.623C212.207 187.778 212.601 187.939 212.967 188.105C213.333 188.26 213.644 188.41 213.899 188.554L213.383 189.653C213.139 189.509 212.834 189.353 212.468 189.187C212.102 189.02 211.708 188.854 211.286 188.688C210.876 188.51 210.454 188.349 210.021 188.205C209.6 188.05 209.195 187.911 208.807 187.789ZM212.185 191.417C212.362 192.249 212.59 193.07 212.867 193.88C213.145 194.679 213.466 195.439 213.832 196.16C214.199 196.87 214.604 197.508 215.047 198.074C215.491 198.639 215.979 199.1 216.512 199.455C216.423 199.532 216.323 199.627 216.212 199.738C216.101 199.849 215.996 199.971 215.896 200.104C215.796 200.226 215.707 200.342 215.63 200.453C214.92 199.888 214.287 199.15 213.733 198.24C213.178 197.319 212.701 196.287 212.301 195.145C211.913 194.002 211.591 192.82 211.336 191.6L212.185 191.417ZM209.239 193.048H209.456L209.655 193.014L210.388 193.214C210.155 194.889 209.744 196.343 209.156 197.574C208.568 198.806 207.847 199.754 206.993 200.42C206.937 200.32 206.865 200.209 206.776 200.087C206.688 199.965 206.593 199.843 206.493 199.721C206.394 199.599 206.299 199.505 206.211 199.438C206.699 199.083 207.148 198.601 207.558 197.99C207.969 197.369 208.318 196.653 208.607 195.844C208.906 195.034 209.117 194.174 209.239 193.264V193.048ZM215.047 191.317L216.146 192.149C215.835 192.482 215.508 192.837 215.164 193.214C214.82 193.58 214.481 193.93 214.149 194.263C213.816 194.595 213.505 194.895 213.217 195.161L212.435 194.512C212.723 194.235 213.028 193.913 213.35 193.547C213.672 193.181 213.982 192.804 214.282 192.415C214.581 192.016 214.837 191.65 215.047 191.317ZM207.808 190.036H211.619V191.234H207.808V190.036ZM206.843 193.048H209.622V194.213H206.843V193.048ZM218.509 197.741C218.498 197.652 218.464 197.535 218.409 197.391C218.365 197.247 218.315 197.097 218.259 196.942C218.204 196.776 218.154 196.642 218.109 196.543C218.287 196.509 218.476 196.398 218.675 196.21C218.886 196.01 219.119 195.76 219.374 195.461C219.518 195.317 219.724 195.078 219.99 194.745C220.256 194.401 220.556 193.996 220.889 193.53C221.221 193.064 221.554 192.56 221.887 192.016C222.231 191.461 222.547 190.906 222.836 190.352L223.934 191.034C223.279 192.144 222.558 193.225 221.771 194.279C220.983 195.333 220.19 196.26 219.391 197.058V197.092C219.391 197.092 219.346 197.114 219.258 197.158C219.18 197.203 219.08 197.258 218.958 197.325C218.836 197.391 218.731 197.463 218.642 197.541C218.553 197.608 218.509 197.674 218.509 197.741ZM218.509 197.741L218.442 196.676L219.041 196.226L223.518 195.244C223.496 195.411 223.49 195.605 223.501 195.827C223.512 196.038 223.529 196.21 223.551 196.343C222.519 196.587 221.687 196.787 221.055 196.942C220.434 197.097 219.957 197.225 219.624 197.325C219.291 197.425 219.041 197.508 218.875 197.574C218.72 197.63 218.598 197.685 218.509 197.741ZM218.409 193.73C218.387 193.641 218.348 193.525 218.292 193.381C218.248 193.236 218.198 193.087 218.143 192.931C218.087 192.765 218.032 192.626 217.976 192.515C218.132 192.482 218.287 192.377 218.442 192.199C218.598 192.01 218.764 191.783 218.941 191.517C219.041 191.372 219.186 191.145 219.374 190.834C219.563 190.513 219.762 190.141 219.973 189.719C220.195 189.287 220.417 188.826 220.639 188.338C220.861 187.839 221.061 187.345 221.238 186.857L222.436 187.423C222.148 188.088 221.826 188.76 221.471 189.436C221.116 190.113 220.744 190.757 220.356 191.367C219.968 191.977 219.574 192.532 219.174 193.031V193.081C219.174 193.081 219.136 193.103 219.058 193.148C218.98 193.192 218.892 193.247 218.792 193.314C218.692 193.381 218.603 193.453 218.525 193.53C218.448 193.597 218.409 193.663 218.409 193.73ZM218.409 193.73L218.376 192.781L218.975 192.399L221.987 192.083C221.954 192.249 221.926 192.432 221.904 192.632C221.893 192.831 221.887 192.998 221.887 193.131C221.199 193.22 220.639 193.297 220.206 193.364C219.785 193.431 219.452 193.486 219.208 193.53C218.975 193.564 218.797 193.597 218.675 193.63C218.564 193.663 218.476 193.697 218.409 193.73ZM218.093 199.937C218.57 199.815 219.108 199.671 219.707 199.505C220.317 199.338 220.966 199.161 221.654 198.972C222.342 198.773 223.035 198.578 223.734 198.39L223.917 199.471C222.952 199.771 221.981 200.071 221.005 200.37C220.029 200.659 219.158 200.93 218.392 201.186L218.093 199.937ZM225.166 195.844H232.255V201.918H231.057V196.959H226.33V201.951H225.166V195.844ZM225.864 200.004H231.856V201.119H225.864V200.004ZM227.013 188.388H231.955V189.52H226.447L227.013 188.388ZM231.556 188.388H231.822L232.039 188.338L232.771 188.804C232.26 190.013 231.556 191.084 230.657 192.016C229.759 192.948 228.749 193.747 227.629 194.412C226.519 195.078 225.371 195.605 224.184 195.993C224.15 195.871 224.1 195.738 224.034 195.594C223.978 195.45 223.912 195.311 223.834 195.178C223.768 195.034 223.701 194.923 223.634 194.845C224.777 194.501 225.87 194.041 226.913 193.464C227.956 192.887 228.882 192.193 229.692 191.384C230.513 190.574 231.134 189.653 231.556 188.621V188.388ZM226.896 186.574L228.045 186.907C227.767 187.606 227.434 188.294 227.046 188.971C226.669 189.647 226.253 190.28 225.798 190.868C225.354 191.456 224.894 191.972 224.417 192.415C224.361 192.327 224.284 192.221 224.184 192.099C224.095 191.977 223.995 191.855 223.884 191.733C223.784 191.611 223.695 191.511 223.618 191.433C224.295 190.845 224.921 190.124 225.498 189.27C226.075 188.405 226.541 187.506 226.896 186.574ZM226.53 189.57C226.941 190.391 227.49 191.145 228.178 191.833C228.866 192.51 229.659 193.098 230.557 193.597C231.456 194.085 232.421 194.473 233.453 194.762C233.387 194.862 233.32 194.978 233.253 195.111C233.187 195.244 233.126 195.383 233.07 195.527C233.026 195.661 232.993 195.783 232.971 195.893C231.883 195.538 230.863 195.084 229.908 194.529C228.965 193.974 228.128 193.325 227.396 192.582C226.663 191.838 226.064 191.017 225.598 190.119L226.53 189.57ZM237.78 196.709C238.257 196.709 238.684 196.825 239.061 197.058C239.439 197.28 239.744 197.585 239.977 197.974C240.21 198.351 240.326 198.773 240.326 199.238C240.326 199.704 240.21 200.132 239.977 200.52C239.744 200.897 239.439 201.202 239.061 201.435C238.684 201.668 238.257 201.785 237.78 201.785C237.314 201.785 236.887 201.668 236.499 201.435C236.121 201.202 235.816 200.897 235.583 200.52C235.361 200.132 235.25 199.704 235.25 199.238C235.25 198.773 235.361 198.351 235.583 197.974C235.816 197.585 236.127 197.28 236.515 197.058C236.904 196.825 237.325 196.709 237.78 196.709ZM237.78 200.936C238.257 200.936 238.656 200.775 238.978 200.453C239.311 200.121 239.477 199.716 239.477 199.238C239.477 198.939 239.4 198.662 239.244 198.406C239.1 198.151 238.901 197.946 238.645 197.791C238.39 197.635 238.102 197.558 237.78 197.558C237.48 197.558 237.203 197.635 236.948 197.791C236.693 197.946 236.487 198.151 236.332 198.406C236.177 198.662 236.099 198.939 236.099 199.238C236.099 199.549 236.177 199.838 236.332 200.104C236.487 200.359 236.693 200.564 236.948 200.72C237.203 200.864 237.48 200.936 237.78 200.936Z" fill="#F6EFE5" fill-opacity="0.8" shape-rendering="crispEdges"/>
</g>
<g filter="url(#filter1_di_1821_533)">
<path d="M52.6317 131.57C52.6317 131.528 52.6107 131.485 52.5686 131.443L49.8527 126.075C49.8527 125.906 50.358 125.548 51.3685 125.001C54.1896 123.569 56.0423 122.538 56.9265 121.906C57.1792 121.696 57.3687 121.485 57.495 121.275C57.7476 120.812 57.8739 117.675 57.8739 111.864V103.274L57.5581 102.832C57.095 102.116 55.2212 101.948 51.937 102.327C51.4317 102.411 51.0738 102.432 50.8633 102.39C50.6106 102.348 50.2738 101.864 49.8527 100.937C49.5159 100.222 49.3264 99.7585 49.2843 99.5479C49.3264 99.3795 49.7474 99.3584 50.5475 99.4848C53.1159 99.9479 54.8633 100.116 55.7897 99.99C56.8002 99.8637 57.7897 99.1269 58.7582 97.7795C59.1792 97.19 59.495 96.8321 59.7055 96.7058C59.9161 96.6637 60.6319 97.1689 61.853 98.2216C63.074 99.2742 63.9372 99.9269 64.4425 100.18C64.9899 100.432 65.7057 100.306 66.5899 99.8006C69.5373 97.9479 72.2532 95.59 74.7374 92.7267C77.2217 89.8635 78.0638 88.1372 77.2638 87.5477C77.1796 87.5056 77.0112 87.4635 76.7585 87.4214C74.6953 87.1266 71.9584 87.1266 68.5478 87.4214C67.7478 87.5477 67.0531 87.6108 66.4636 87.6108H65.832L65.0741 86.1582C64.6951 85.4003 64.4846 84.9161 64.4425 84.7055C64.4846 84.5371 64.9056 84.516 65.7057 84.6424C68.8636 85.1476 73.2848 85.4424 78.9691 85.5266C80.6954 85.5687 81.7691 85.4634 82.1902 85.2108C82.5692 84.9582 82.7586 84.0529 82.7586 82.4949C82.7586 81.1054 82.6113 80.2423 82.3165 79.9054C82.0218 79.5686 80.8218 79.4844 78.7165 79.6528C78.548 79.6528 78.3586 79.6738 78.148 79.7159C71.0321 80.2212 67.4741 80.1581 67.4741 79.5265C67.5162 79.4001 68.211 79.1686 69.5584 78.8317C69.6847 78.8317 69.8531 78.8107 70.0636 78.7686C78.4849 77.5896 86.5903 75.6948 94.3799 73.0842C95.7694 72.6211 96.5694 72.3684 96.78 72.3263L96.9695 72.4526C97.0958 72.579 97.2431 72.7474 97.4116 72.9579C97.6221 73.1263 97.8326 73.3369 98.0432 73.5895C98.2958 73.8 98.5484 74.0316 98.8011 74.2843C99.0958 74.5369 99.3695 74.7895 99.6221 75.0422C99.8748 75.2948 100.106 75.5474 100.317 75.8001C100.57 76.0527 100.78 76.2843 100.948 76.4948C101.117 76.6633 101.243 76.8106 101.327 76.9369L101.517 77.1264C101.475 77.5054 100.78 77.6106 99.4327 77.4422C98.759 77.3159 97.9379 77.3159 96.9695 77.4422C96.2958 77.5685 94.7168 77.8001 92.2325 78.137C92.1062 78.137 91.8957 78.158 91.6009 78.2001C89.5798 78.4949 88.4009 78.7896 88.064 79.0844C87.7272 79.3791 87.5587 80.2423 87.5587 81.6739C87.5587 81.8423 87.5587 81.9686 87.5587 82.0528V84.4529L88.064 84.8318L88.443 85.3371L92.7378 85.4003C95.3905 85.4003 96.9905 85.3161 97.5379 85.1476C97.9168 84.9792 98.5484 84.3476 99.4327 83.2529C100.148 82.3686 100.633 81.8634 100.885 81.737C101.096 81.737 101.727 82.1792 102.78 83.0634C104.17 84.2424 104.928 84.895 105.054 85.0213C106.233 86.0319 106.612 86.6635 106.191 86.9161C105.77 87.1266 103.243 87.2529 98.6116 87.295H98.5484H98.4853H98.4221H98.359H98.2958H98.1695H98.1063H98.0432H97.98H97.9168H97.8537H97.7905H97.7274H97.6642H97.601C93.5589 87.3372 91.4536 87.4424 91.2851 87.6108C90.7377 88.2003 91.5167 89.274 93.622 90.832C96.9484 93.2741 100.822 95.1689 105.243 96.5163C105.833 96.6847 106.275 96.8321 106.57 96.9584C107.075 97.211 106.949 97.5268 106.191 97.9058C106.106 97.9479 105.98 98.0111 105.812 98.0953C104.717 98.8111 103.98 99.7585 103.601 100.937C103.138 101.864 101.327 101.211 98.1695 98.9795C94.6326 96.3689 91.8746 93.5478 89.8956 90.5162C89.8535 90.4741 89.7904 90.3898 89.7061 90.2635C88.9903 89.2109 88.464 88.7056 88.1272 88.7477C87.664 88.7898 87.4956 90.4951 87.6219 93.8636L87.8745 97.3374L87.3693 97.6532C87.2008 97.7795 86.9482 97.9268 86.6113 98.0953C85.1797 98.7269 84.1271 98.9584 83.4534 98.79C83.2008 98.7058 82.9902 98.6216 82.8218 98.5374C82.485 98.2847 82.3797 97.4637 82.506 96.0742C82.7586 93.4215 82.7165 91.8636 82.3797 91.4004C82.0007 91.0214 80.9481 91.6741 79.2217 93.3583C77.8743 94.6636 76.1269 96.0531 73.9795 97.5268C73.9374 97.5268 73.8953 97.5479 73.8532 97.59C72.4216 98.5584 71.811 99.2321 72.0216 99.6111C72.4005 100.201 75.6427 100.516 81.7481 100.558C85.7061 100.643 87.9798 100.601 88.5693 100.432C88.9482 100.348 89.4746 99.9269 90.1483 99.169L91.1588 98.0953L91.5378 98.4111C91.5799 98.4111 91.622 98.4532 91.6641 98.5374L96.0852 102.264C96.0852 102.559 95.7484 102.832 95.0747 103.085C94.3168 103.337 93.7062 103.99 93.2431 105.043C92.7378 106.348 92.8641 107.19 93.622 107.569C93.8747 107.695 94.1905 107.78 94.5694 107.822C96.1273 108.032 97.5168 107.527 98.7379 106.306C99.2853 105.759 99.6432 105.464 99.8116 105.422C99.9379 105.464 100.317 105.738 100.948 106.243C103.222 108.095 104.359 109.127 104.359 109.338C104.191 109.674 103.854 109.885 103.349 109.969C103.138 110.053 102.949 110.222 102.78 110.474C102.738 110.517 102.696 110.559 102.654 110.601C102.359 110.896 102.043 112.032 101.706 114.011C101.664 114.222 101.622 114.432 101.58 114.643C100.317 120.58 97.4326 123.464 92.9273 123.296L92.1694 123.233L91.9167 122.348C91.8325 122.054 91.7272 121.759 91.6009 121.464C91.0114 120.117 89.4114 119.211 86.8008 118.748C86.7587 118.748 86.7166 118.727 86.6745 118.685C86.0429 118.559 85.7271 118.348 85.7271 118.054C85.8113 117.885 86.8008 117.801 88.6956 117.801C92.1062 118.054 94.3799 117.822 95.5168 117.106C96.5694 116.348 97.201 114.496 97.4116 111.548C97.4116 111.253 97.3695 110.98 97.2853 110.727C96.8642 109.801 95.8747 109.359 94.3168 109.401C92.7588 109.401 91.8536 109.969 91.6009 111.106C91.6009 111.148 91.5799 111.211 91.5378 111.296C91.1588 112.053 90.0851 112.306 88.3166 112.053C87.8114 111.969 87.4745 111.885 87.3061 111.801C87.0956 111.674 87.1377 111.064 87.4324 109.969C87.4745 109.801 87.5166 109.611 87.5587 109.401C88.5272 105.864 88.864 103.801 88.5693 103.211C88.3166 102.706 87.3903 102.453 85.7903 102.453C84.7376 102.453 83.9797 102.537 83.5166 102.706C82.9271 102.916 82.4639 103.695 82.127 105.043C80.3165 112.496 75.9374 117.948 68.9899 121.401C68.1899 121.78 67.6425 122.075 67.3478 122.285C67.011 122.58 67.0952 122.959 67.6004 123.422C68.1899 123.969 69.1373 124.391 70.4426 124.685C73.8532 125.485 83.6639 125.759 99.8748 125.506C104.001 125.422 106.359 125.422 106.949 125.506C107.328 125.548 107.475 125.696 107.391 125.948L107.264 126.012C107.222 126.054 107.138 126.117 107.012 126.201C106.928 126.243 106.843 126.285 106.759 126.327C106.675 126.37 106.57 126.433 106.443 126.517C105.306 127.064 104.485 128.18 103.98 129.864L103.791 130.37L90.4009 130.306C84.0429 130.264 79.9796 130.222 78.2112 130.18C75.3059 130.096 72.9058 129.759 71.011 129.17C67.8531 128.159 65.2846 126.222 63.3056 123.359C62.674 122.433 62.1266 121.948 61.6635 121.906C61.2424 121.99 60.2319 122.938 58.6318 124.748C58.3371 125.085 57.7897 125.696 56.9897 126.58C55.9791 127.717 55.3265 128.454 55.0318 128.791C54.1054 129.717 53.5791 130.37 53.4528 130.749C53.4107 130.875 53.3686 131.022 53.3265 131.191C53.0738 131.738 52.8422 131.864 52.6317 131.57ZM66.9688 121.085C72.4005 117.338 75.8111 112.243 77.2006 105.801C77.4533 104.495 77.4322 103.611 77.1375 103.148C76.7585 102.559 75.2848 102.432 72.7163 102.769C72.0426 102.853 71.6005 102.874 71.39 102.832C71.1795 102.79 70.9268 102.516 70.6321 102.011C70.3373 101.506 70.0636 101.127 69.811 100.874C69.3899 100.58 68.3794 100.769 66.7794 101.443C65.6846 101.906 64.9899 102.159 64.6951 102.201C64.6109 102.201 64.5267 102.222 64.4425 102.264C63.6425 102.516 63.1161 102.874 62.8635 103.337C62.7372 103.59 62.653 104.959 62.6109 107.443C62.4845 114.896 62.5688 119.001 62.8635 119.759C62.9898 120.054 63.1372 120.348 63.3056 120.643C64.1898 121.99 65.4109 122.138 66.9688 121.085ZM59.3897 87.1687H59.3266C59.0318 87.0424 58.8213 86.895 58.695 86.7266C58.5687 86.5161 58.4003 86.074 58.1897 85.4003C57.095 82.0739 55.1791 78.958 52.4422 76.0527C52.0633 75.6317 51.8528 75.2948 51.8106 75.0422C51.6843 74.4527 52.337 74.4106 53.7686 74.9158C56.2528 75.7159 58.4213 77.0001 60.274 78.7686C60.8635 79.3159 61.3898 79.9475 61.853 80.6633C63.074 82.7265 63.3688 84.5581 62.7372 86.1582C62.1898 87.6319 61.074 87.9687 59.3897 87.1687ZM116.152 131.759C115.942 131.422 116.342 130.959 117.352 130.37C120.3 128.812 122.826 127.064 124.931 125.127C130.11 120.412 133.247 113.738 134.342 105.106C134.426 104.516 134.489 103.969 134.531 103.464C134.742 101.106 134.51 99.7585 133.837 99.4216C133.626 99.3374 132.679 99.2742 130.995 99.2321C124.889 99.1479 120.679 99.2742 118.363 99.6111C118.11 99.6532 117.815 99.6742 117.478 99.6742L117.415 99.5479C117.331 99.4637 117.247 99.3795 117.163 99.2953C117.121 99.169 117.057 99.0427 116.973 98.9163C116.889 98.79 116.805 98.6637 116.721 98.5374C116.636 98.369 116.552 98.2216 116.468 98.0953C116.384 97.9268 116.3 97.7795 116.215 97.6532C116.131 97.4847 116.068 97.3374 116.026 97.211C115.984 97.0847 115.942 97.0005 115.9 96.9584C115.857 96.8742 115.836 96.811 115.836 96.7689C115.878 96.6847 115.984 96.6637 116.152 96.7058C116.363 96.7058 117.331 96.811 119.057 97.0216C120.405 97.19 122.805 97.3374 126.258 97.4637C135.605 97.8426 140.637 97.8637 141.353 97.5268C141.605 97.4005 141.816 97.2531 141.984 97.0847C142.153 96.7058 142.216 93.632 142.174 87.8635C142.174 86.5582 142.174 85.4634 142.174 84.5792C142.174 80.116 141.942 76.558 141.479 73.9053C141.353 73.0211 141.332 72.5158 141.416 72.3895C141.584 72.2632 142.89 72.3474 145.332 72.6421C147.353 72.8526 148.637 73.0632 149.184 73.2737C149.69 73.4842 149.521 73.8421 148.679 74.3474C148.132 74.6843 147.753 75.0843 147.542 75.5474C147.374 76.179 147.29 79.8212 147.29 86.474C147.29 87.4424 147.29 88.7477 147.29 90.3898C147.29 91.6109 147.29 92.453 147.29 92.9162C147.29 95.232 147.626 96.6216 148.3 97.0847C148.848 97.4637 150.427 97.6321 153.037 97.59C154.3 97.5479 155.332 97.5268 156.132 97.5268L163.458 97.4637L163.964 97.0847C164.301 96.8321 164.932 96.1373 165.858 95.0005C166.49 94.1583 166.953 93.5689 167.248 93.232C167.458 93.1899 168.574 93.9899 170.595 95.6321C171.774 96.6426 172.511 97.2742 172.806 97.5268C173.269 97.9479 173.459 98.2847 173.374 98.5374C173.29 98.8742 172.827 99.0848 171.985 99.169C171.185 99.2111 168.406 99.2321 163.648 99.2321C158.553 99.2321 155.627 99.2742 154.869 99.3584C154.363 99.4427 153.985 99.6742 153.732 100.053C153.69 100.18 153.648 101.211 153.606 103.148C153.353 114.601 153.332 121.296 153.542 123.233C153.627 123.991 153.858 124.517 154.237 124.812C154.7 125.106 156.89 125.254 160.806 125.254C163.669 125.254 165.311 125.233 165.732 125.191C167.374 125.106 168.427 124.622 168.89 123.738C169.227 123.191 169.753 121.106 170.469 117.485C170.469 117.443 170.469 117.401 170.469 117.359C170.932 115.085 171.248 113.864 171.416 113.696C171.459 113.653 171.543 113.632 171.669 113.632C171.88 113.632 172.006 115.254 172.048 118.496C172.09 120.685 172.132 122.138 172.174 122.854C172.259 123.738 172.553 124.475 173.059 125.064C173.311 125.359 173.543 125.675 173.753 126.012C174.385 127.317 173.985 128.306 172.553 128.98C170.785 129.822 166.827 130.243 160.679 130.243C154.237 130.201 150.553 129.738 149.627 128.854C149.29 128.559 149.058 128.264 148.932 127.97C148.721 127.296 148.595 122.559 148.553 113.759C148.553 112.496 148.553 110.832 148.553 108.769C148.553 107.969 148.553 107.401 148.553 107.064C148.553 102.811 148.342 100.39 147.921 99.8006C147.669 99.3795 146.911 99.19 145.647 99.2321C145.1 99.2742 144.658 99.2953 144.321 99.2953H141.353L140.974 99.6742C140.595 100.053 140.258 101.358 139.963 103.59C139.163 109.696 137.584 114.706 135.226 118.622C131.9 124.096 126.321 128.285 118.489 131.191C118.447 131.191 118.405 131.212 118.363 131.254C117.057 131.717 116.321 131.885 116.152 131.759ZM153.732 94.0531C153.648 93.8847 153.942 93.1478 154.616 91.8425C156.385 88.8951 158.7 84.2845 161.564 78.0106C161.606 77.8843 161.669 77.737 161.753 77.5685C162.048 76.7685 162.343 76.3475 162.637 76.3054C162.89 76.2632 164.216 76.8317 166.616 78.0106C167.711 78.558 168.49 78.9791 168.953 79.2738C169.669 79.7791 169.48 80.116 168.385 80.2844C168.301 80.2844 168.174 80.3054 168.006 80.3475C167.416 80.516 166.532 81.2949 165.353 82.6844C162.069 86.7266 158.848 90.1583 155.69 92.9794C155.521 93.1057 155.353 93.232 155.185 93.3583C154.427 93.9899 153.942 94.2215 153.732 94.0531ZM130.616 93.4846C130.531 93.4425 130.447 93.4004 130.363 93.3583C129.942 93.1057 129.626 92.5373 129.416 91.653C128.573 87.7793 126.616 83.4844 123.542 78.7686C122.868 77.8001 122.51 77.1264 122.468 76.7475C122.426 76.158 123.626 76.6843 126.068 78.3264C126.321 78.4949 126.594 78.6843 126.889 78.8949C130.931 81.7581 133.353 84.8108 134.153 88.053C134.616 89.8635 134.531 91.3793 133.9 92.6004C133.184 93.9899 132.089 94.2847 130.616 93.4846ZM188.262 131.822C187.925 131.738 187.673 131.612 187.504 131.443C187.294 131.064 187.315 128.58 187.567 123.991C187.61 123.275 187.652 122.18 187.694 120.706C187.946 109.295 187.968 101.358 187.757 96.8952C187.631 94.5794 187.399 92.1583 187.062 89.6319C186.936 88.9582 186.894 88.5372 186.936 88.3688C187.02 88.2845 187.82 88.5582 189.336 89.1898C191.02 89.9477 192.052 90.3898 192.431 90.5162C193.189 90.7267 195.42 90.832 199.126 90.832C199.462 90.832 199.968 90.832 200.641 90.832H200.705H200.768H200.831H200.894H200.957C203.694 90.832 205.315 90.6425 205.82 90.2635C206.199 89.9688 206.536 88.9793 206.831 87.295C206.915 86.8319 206.978 86.474 207.021 86.2213C207.273 84.6634 207.442 83.5265 207.526 82.8107C207.61 81.716 207.378 81.0423 206.831 80.7897C206.536 80.6633 204.999 80.6002 202.22 80.6002C193.041 80.4739 187.336 80.6002 185.104 80.9791H185.041C184.578 81.0633 184.262 81.0423 184.094 80.916C183.925 80.7475 183.631 80.2844 183.21 79.5265C182.831 78.8107 182.641 78.3475 182.641 78.137C182.641 77.9685 183.041 77.9475 183.841 78.0738C184.767 78.2422 185.441 78.3475 185.862 78.3896C187.589 78.6001 195.357 78.7054 209.168 78.7054H229.695L230.2 78.3264C230.621 78.0317 231.253 77.3159 232.095 76.179C232.137 76.1369 232.2 76.0527 232.284 75.9264C233 75.0422 233.463 74.6001 233.674 74.6001C233.926 74.5579 234.642 75.0211 235.821 75.9896C237.547 77.4633 238.684 78.4528 239.232 78.958C239.779 79.5054 239.884 79.9265 239.547 80.2212L239.232 80.537L227.105 80.6002L214.979 80.6633L214.473 80.9791C214.221 81.1897 213.842 81.6949 213.336 82.4949C213.252 82.6213 213.063 82.9371 212.768 83.4423C211.968 84.7476 211.379 85.7582 211 86.474C210.284 87.6529 209.778 88.5161 209.484 89.0635C209.105 89.9056 209.168 90.453 209.673 90.7056C209.884 90.7899 211.273 90.832 213.842 90.832C223.905 90.9583 229.189 90.8741 229.695 90.5793C230.2 90.2846 230.853 89.6109 231.653 88.5582C231.821 88.3477 231.989 88.1793 232.158 88.053C232.368 88.0109 233.358 88.6845 235.126 90.0741C236.516 91.1688 237.316 91.8636 237.526 92.1583C237.611 92.4109 237.358 92.6846 236.768 92.9794C236.726 93.0215 236.621 93.0846 236.453 93.1689C235.947 93.3794 235.632 93.7794 235.505 94.3689C235.337 95.211 235.253 100.685 235.253 110.79C235.253 116.811 235.232 120.643 235.19 122.285C235.105 126.706 234.705 129.359 233.989 130.243C233.611 130.706 232.621 131.128 231.021 131.506C230.263 131.675 229.716 131.759 229.379 131.759C228.958 131.759 228.684 131.422 228.558 130.749C228.263 128.559 226.937 127.127 224.579 126.454C224.284 126.37 224.073 126.306 223.947 126.264C223.652 126.18 223.505 126.033 223.505 125.822V125.38H224.452C224.579 125.38 224.895 125.401 225.4 125.443C226.284 125.485 226.916 125.506 227.295 125.506C228.01 125.506 228.558 125.506 228.937 125.506C229.484 125.422 229.905 125.106 230.2 124.559C230.326 124.306 230.41 121.548 230.453 116.285C230.579 101.674 230.516 94.0741 230.263 93.4846C230.179 93.3162 230.074 93.1689 229.947 93.0425C229.695 92.7478 228.221 92.6004 225.526 92.6004H221.8L221.421 92.9162C221.252 93.1267 221.105 94.3268 220.979 96.5163C220.558 104.559 220.6 113.632 221.105 123.738C221.231 126.559 221.189 128.222 220.979 128.727C220.81 129.064 220.179 129.401 219.084 129.738C217.737 130.159 216.831 130.264 216.368 130.054C215.736 129.717 215.505 128.243 215.673 125.633C215.968 120.622 216.115 113.864 216.115 105.359C216.115 99.1269 216.094 95.6742 216.052 95.0005C215.884 93.5689 215.442 92.7688 214.726 92.6004C214.642 92.6004 213.526 92.6004 211.379 92.6004C209.526 92.6004 208.326 92.6636 207.778 92.7899C207.315 92.8741 206.978 93.211 206.768 93.8004C206.726 94.011 206.684 95.1268 206.642 97.1479C206.515 108.601 206.621 117.464 206.957 123.738C207.084 126.559 206.978 128.285 206.642 128.917C206.347 129.422 205.399 129.78 203.799 129.991C202.705 130.117 202.031 129.991 201.778 129.612C201.526 129.106 201.526 126.643 201.778 122.222C201.82 121.296 201.884 119.485 201.968 116.79C202.22 102.601 202.22 95.0005 201.968 93.9899C201.841 93.5268 201.673 93.1689 201.463 92.9162L201.084 92.6004H197.483C195.883 92.6004 194.81 92.6215 194.262 92.6636C193.547 92.7478 193.083 93.0215 192.873 93.4846C192.831 93.6531 192.789 94.7478 192.747 96.7689C192.536 107.927 192.557 116.222 192.81 121.654C192.81 122.159 192.831 123.064 192.873 124.369C192.957 125.675 192.999 126.58 192.999 127.085L193.126 129.864L192.62 130.306C192.452 130.475 192.241 130.643 191.989 130.812C190.557 131.738 189.315 132.075 188.262 131.822ZM250.646 129.422C249.888 128.538 249.467 127.759 249.383 127.085C249.383 126.622 249.593 126.433 250.014 126.517C252.667 127.022 258.625 127.338 267.888 127.464C267.93 127.464 267.994 127.464 268.078 127.464C271.488 127.506 273.32 127.506 273.573 127.464C274.499 127.338 275.046 126.748 275.215 125.696C275.299 125.275 275.341 122.685 275.341 117.927C275.341 113.296 275.299 110.559 275.215 109.717C275.173 109.043 274.962 108.622 274.583 108.453C274.457 108.411 273.909 108.369 272.941 108.327C267.551 108.159 263.362 108.18 260.372 108.39C259.572 108.517 258.878 108.58 258.288 108.58H257.656L256.899 107.19C256.52 106.474 256.33 106.011 256.33 105.801C256.372 105.632 257.067 105.632 258.414 105.801C262.499 106.306 267.151 106.58 272.373 106.622C272.499 106.622 272.667 106.622 272.878 106.622C274.015 106.664 274.688 106.495 274.899 106.116C275.194 105.653 275.341 103.527 275.341 99.7374C275.341 99.1058 275.341 98.6216 275.341 98.2847C275.341 94.5794 275.32 92.5373 275.278 92.1583C275.152 90.9793 274.688 90.3056 273.888 90.1372C273.594 90.053 271.846 90.0109 268.646 90.0109C268.183 90.0109 267.551 90.0109 266.751 90.0109C264.478 89.9688 263.067 90.0741 262.52 90.3267C262.014 90.5793 261.32 91.4214 260.436 92.8531C260.057 93.4004 259.762 93.8425 259.551 94.1794C258.035 96.4531 256.351 98.6637 254.499 100.811C251.762 103.885 250.12 105.211 249.572 104.79L249.256 104.601L250.709 102.39C255.678 94.811 259.488 85.8845 262.141 75.6106C262.225 75.3159 262.33 75.0843 262.457 74.9158C262.583 74.8737 263.13 75.0001 264.099 75.2948C267.762 76.3475 269.615 77.0212 269.657 77.3159C269.657 77.6106 269.383 77.8843 268.836 78.137C268.625 78.2212 268.436 78.3054 268.267 78.3896C267.678 78.6843 267.088 79.5896 266.499 81.1054C266.036 82.2002 265.53 83.3371 264.983 84.516C264.899 84.6424 264.836 84.7687 264.793 84.895C264.078 86.4108 263.888 87.3372 264.225 87.674C264.562 88.0109 266.33 88.2214 269.53 88.3056C269.825 88.3056 270.267 88.3056 270.857 88.3056C273.088 88.3898 274.415 88.2424 274.836 87.8635C275.215 87.5266 275.362 86.3477 275.278 84.3266C275.278 83.8634 275.278 83.5055 275.278 83.2529C275.236 79.8002 275.004 76.7264 274.583 74.0316C274.415 73.1895 274.373 72.6421 274.457 72.3895L275.025 72.4526C275.446 72.4947 275.952 72.5579 276.541 72.6421C277.131 72.6842 277.762 72.7474 278.436 72.8316C279.152 72.8737 279.804 72.9369 280.394 73.0211C280.983 73.1053 281.489 73.1895 281.91 73.2737C282.331 73.3158 282.562 73.3579 282.604 73.4C282.731 73.779 282.415 74.2632 281.657 74.8527C281.404 75.0211 281.194 75.2106 281.025 75.4211C280.773 75.8001 280.646 77.8422 280.646 81.5476C280.646 84.3266 280.646 85.7371 280.646 85.7792C280.689 87.0003 281.089 87.7161 281.846 87.9266C282.225 88.053 284.099 88.1161 287.468 88.1161L293.152 88.053L293.657 87.7372C293.994 87.4845 294.584 86.8108 295.426 85.7161C296.226 84.7476 296.752 84.2002 297.005 84.0739C297.257 84.0318 297.889 84.4318 298.899 85.274C300.584 86.6213 301.721 87.5477 302.31 88.053C303.026 88.7267 303.257 89.1898 303.005 89.4425C302.921 89.5267 302.794 89.6109 302.626 89.6951C302.205 89.9056 298.563 90.0109 291.699 90.0109C290.731 90.0109 289.447 90.0109 287.847 90.0109C286.752 89.9688 285.994 89.9477 285.573 89.9477C283.089 89.9477 281.594 90.2635 281.089 90.8951C280.71 91.4004 280.541 92.8741 280.583 95.3163C280.625 96.4952 280.646 97.4426 280.646 98.1584C280.646 101.443 280.646 103.211 280.646 103.464C280.731 105.064 281.11 105.99 281.783 106.243C282.12 106.369 283.573 106.432 286.141 106.432C288.962 106.432 290.668 106.327 291.257 106.116C291.678 105.906 292.352 105.19 293.278 103.969C293.447 103.716 293.615 103.485 293.784 103.274C294.457 102.39 294.878 102.032 295.047 102.201C297.152 103.843 298.626 105.022 299.468 105.738C300.689 106.874 301.047 107.611 300.542 107.948C300.331 108.117 297.131 108.222 290.941 108.264C290.057 108.264 288.878 108.264 287.404 108.264C286.268 108.222 285.489 108.222 285.068 108.264C282.878 108.264 281.552 108.601 281.089 109.274C280.71 109.864 280.541 111.611 280.583 114.517C280.625 115.864 280.646 116.959 280.646 117.801C280.646 118.054 280.646 118.348 280.646 118.685C280.604 122.812 280.646 125.106 280.773 125.57C280.983 126.538 281.636 127.106 282.731 127.275C282.857 127.275 284.983 127.275 289.11 127.275L296.436 127.212L296.942 126.833C297.363 126.538 297.994 125.822 298.836 124.685C299.468 123.843 299.931 123.317 300.226 123.106C300.436 122.938 300.794 123.043 301.299 123.422C304.963 126.327 306.773 128.012 306.731 128.475V128.538C306.689 128.833 305.531 129.001 303.257 129.043C301.026 129.085 293.236 129.127 279.889 129.17H279.257H279.194H279.131H279.067H279.004H278.941H278.878H278.815H278.752H278.689H278.625H278.562H278.499H278.436H278.373H278.31H278.246H278.183H278.12H278.057H277.994H277.931H277.867H277.804H277.741H277.678H277.615H277.552H277.488H277.425H277.362H277.299H277.236H277.173H277.11H277.046H276.983H276.92H276.857H276.794H276.731H276.667H276.604H276.541H276.478H276.415H276.352H276.288H276.225H276.162H276.099H276.036H275.973H275.91H275.846H275.783H275.72H275.657H275.594H275.531H275.467H275.404H275.341H275.278H275.215H275.152H275.088H275.025H274.962H274.899H274.836H274.773C260.625 129.17 252.772 129.296 251.214 129.549C251.004 129.591 250.814 129.549 250.646 129.422Z" fill="white"/>
</g>
<defs>
<filter id="filter0_d_1821_533" x="44.416" y="158.724" width="197.91" height="45.4434" filterUnits="userSpaceOnUse" color-interpolation-filters="sRGB">
<feFlood flood-opacity="0" result="BackgroundImageFix"/>
<feColorMatrix in="SourceAlpha" type="matrix" values="0 0 0 0 0 0 0 0 0 0 0 0 0 0 0 0 0 0 127 0" result="hardAlpha"/>
<feOffset/>
<feGaussianBlur stdDeviation="1"/>
<feComposite in2="hardAlpha" operator="out"/>
<feColorMatrix type="matrix" values="0 0 0 0 0 0 0 0 0 0 0 0 0 0 0 0 0 0 0.25 0"/>
<feBlend mode="normal" in2="BackgroundImageFix" result="effect1_dropShadow_1821_533"/>
<feBlend mode="normal" in="SourceGraphic" in2="effect1_dropShadow_1821_533" result="shape"/>
</filter>
<filter id="filter1_di_1821_533" x="-22.9158" y="0.000198364" width="401.91" height="204.401" filterUnits="userSpaceOnUse" color-interpolation-filters="sRGB">
<feFlood flood-opacity="0" result="BackgroundImageFix"/>
<feColorMatrix in="SourceAlpha" type="matrix" values="0 0 0 0 0 0 0 0 0 0 0 0 0 0 0 0 0 0 127 0" result="hardAlpha"/>
<feOffset/>
<feGaussianBlur stdDeviation="36.1"/>
<feComposite in2="hardAlpha" operator="out"/>
<feColorMatrix type="matrix" values="0 0 0 0 0.959179 0 0 0 0 1 0 0 0 0 0.510149 0 0 0 0.9 0"/>
<feBlend mode="normal" in2="BackgroundImageFix" result="effect1_dropShadow_1821_533"/>
<feBlend mode="normal" in="SourceGraphic" in2="effect1_dropShadow_1821_533" result="shape"/>
<feColorMatrix in="SourceAlpha" type="matrix" values="0 0 0 0 0 0 0 0 0 0 0 0 0 0 0 0 0 0 127 0" result="hardAlpha"/>
<feOffset dy="4"/>
<feGaussianBlur stdDeviation="2"/>
<feComposite in2="hardAlpha" operator="arithmetic" k2="-1" k3="1"/>
<feColorMatrix type="matrix" values="0 0 0 0 1 0 0 0 0 0.978205 0 0 0 0 0.346154 0 0 0 0.25 0"/>
<feBlend mode="normal" in2="shape" result="effect2_innerShadow_1821_533"/>
</filter>
</defs>
</svg>
