<svg width="271" height="182" viewBox="0 0 271 182" fill="none" xmlns="http://www.w3.org/2000/svg">
<g filter="url(#filter0_d_1763_420)">
<path d="M10.7988 134.953H16.8897V136.084H10.7988V134.953ZM12.5129 139.945H16.274V147.035H12.5129V145.936H15.1756V141.044H12.5129V139.945ZM12.8125 135.485L13.994 135.652C13.8387 136.806 13.639 137.926 13.3949 139.013C13.1508 140.101 12.8513 141.116 12.4963 142.059C12.1412 143.002 11.7197 143.834 11.2315 144.555C11.1871 144.466 11.115 144.35 11.0151 144.206C10.9264 144.061 10.8321 143.923 10.7322 143.79C10.6324 143.645 10.5436 143.529 10.466 143.44C10.8987 142.808 11.2648 142.07 11.5643 141.227C11.8639 140.384 12.1135 139.474 12.3132 138.498C12.5129 137.521 12.6793 136.517 12.8125 135.485ZM11.9637 139.945H13.0454V148.466H11.9637V139.945ZM20.5675 134.021H21.799V136.534H20.5675V134.021ZM20.5675 142.758H21.799V149.315H20.5675V142.758ZM17.0062 135.985H25.6932V137.133H17.0062V135.985ZM16.5901 144.256H25.9928V145.421H16.5901V144.256ZM18.687 137.532L19.802 137.699C19.5912 138.775 19.2861 139.768 18.8867 140.678C18.4984 141.576 18.0213 142.336 17.4555 142.958C17.389 142.891 17.2947 142.819 17.1726 142.741C17.0617 142.652 16.9507 142.569 16.8398 142.492C16.7288 142.403 16.629 142.331 16.5402 142.275C17.106 141.72 17.5609 141.033 17.9049 140.212C18.2599 139.38 18.5206 138.486 18.687 137.532ZM18.4873 140.045L19.1696 139.33C19.4581 139.585 19.7576 139.868 20.0683 140.178C20.3789 140.478 20.6175 140.739 20.7839 140.961L20.1016 141.776C19.9241 141.532 19.68 141.249 19.3693 140.927C19.0698 140.594 18.7758 140.3 18.4873 140.045ZM22.9473 137.532L24.079 137.715C23.8127 138.825 23.4244 139.834 22.914 140.744C22.4037 141.654 21.799 142.419 21.1001 143.041C21.0446 142.974 20.9614 142.897 20.8504 142.808C20.7395 142.719 20.623 142.63 20.501 142.541C20.39 142.453 20.2846 142.386 20.1848 142.342C20.8837 141.787 21.4606 141.094 21.9155 140.262C22.3815 139.429 22.7254 138.52 22.9473 137.532ZM22.4481 139.962L23.1969 139.263C23.5187 139.529 23.846 139.829 24.1788 140.162C24.5227 140.495 24.8445 140.816 25.144 141.127C25.4436 141.438 25.6877 141.715 25.8763 141.959L25.0775 142.791C24.9 142.536 24.6614 142.242 24.3619 141.909C24.0734 141.576 23.7572 141.243 23.4133 140.911C23.0804 140.567 22.7587 140.25 22.4481 139.962ZM30.7856 138.331H42.1686V139.613H30.7856V138.331ZM36.1609 134.038H37.4756V138.914H36.1609V134.038ZM30.1366 134.454H31.4346V139.995C31.4346 140.827 31.4013 141.659 31.3348 142.492C31.2793 143.324 31.1628 144.139 30.9853 144.938C30.8078 145.737 30.5415 146.508 30.1865 147.251C29.8315 147.994 29.3544 148.699 28.7553 149.365C28.6887 149.254 28.5944 149.137 28.4724 149.015C28.3614 148.904 28.245 148.788 28.1229 148.666C28.0009 148.555 27.8844 148.46 27.7734 148.383C28.4835 147.595 29.0049 146.741 29.3378 145.82C29.6706 144.899 29.8869 143.945 29.9868 142.958C30.0866 141.97 30.1366 140.983 30.1366 139.995V134.454ZM30.7357 142.275H39.6057V149.331H38.2578V143.557H30.7357V142.275ZM45.7632 137.449H59.5593V138.647H45.7632V137.449ZM45.1475 142.275H60.0751V143.473H45.1475V142.275ZM54.9661 138.081H56.2309V149.331H54.9661V138.081ZM49.025 138.081H50.2731V141.876C50.2731 142.564 50.2232 143.257 50.1234 143.956C50.0346 144.644 49.846 145.315 49.5575 145.97C49.2802 146.624 48.8586 147.246 48.2928 147.834C47.7269 148.422 46.967 148.96 46.0128 149.448C45.9574 149.348 45.8797 149.237 45.7799 149.115C45.68 149.004 45.5746 148.888 45.4637 148.766C45.3527 148.655 45.2473 148.566 45.1475 148.499C46.0239 148.055 46.7173 147.573 47.2277 147.051C47.7491 146.53 48.1374 145.981 48.3926 145.404C48.6478 144.827 48.8142 144.239 48.8919 143.64C48.9806 143.041 49.025 142.442 49.025 141.843V138.081ZM47.91 134.47L49.0084 134.021C49.3634 134.465 49.7129 134.958 50.0568 135.502C50.4007 136.046 50.6503 136.517 50.8057 136.917L49.6241 137.449C49.5353 137.172 49.3967 136.861 49.2081 136.517C49.0305 136.173 48.8253 135.824 48.5923 135.469C48.3704 135.103 48.143 134.77 47.91 134.47ZM56.0811 133.971L57.4624 134.404C57.1406 134.925 56.8023 135.458 56.4472 136.001C56.0922 136.545 55.7649 137.005 55.4654 137.383L54.3837 136.983C54.5834 136.717 54.7886 136.406 54.9994 136.051C55.2102 135.696 55.4099 135.336 55.5985 134.969C55.7982 134.603 55.9591 134.271 56.0811 133.971ZM62.4549 140.861H77.0997V142.092H62.4549V140.861ZM63.6365 136.75H75.9681V137.982H63.6365V136.75ZM69.0617 134.038H70.3764V149.331H69.0617V134.038ZM68.7455 141.493L69.8106 141.942C69.4223 142.608 68.9619 143.257 68.4293 143.889C67.8968 144.522 67.3254 145.121 66.7152 145.687C66.1161 146.242 65.4893 146.752 64.8347 147.218C64.1912 147.673 63.5477 148.067 62.9043 148.399C62.8266 148.3 62.7323 148.183 62.6213 148.05C62.5215 147.917 62.4161 147.789 62.3051 147.667C62.1942 147.534 62.0888 147.429 61.989 147.351C62.6213 147.063 63.2593 146.707 63.9028 146.286C64.5573 145.864 65.1842 145.398 65.7833 144.888C66.3824 144.367 66.9316 143.817 67.4308 143.24C67.9412 142.664 68.3794 142.081 68.7455 141.493ZM70.6926 141.493C71.0587 142.081 71.497 142.664 72.0073 143.24C72.5288 143.806 73.089 144.355 73.6881 144.888C74.2872 145.409 74.9141 145.881 75.5687 146.303C76.2232 146.713 76.8667 147.057 77.4991 147.334C77.4103 147.423 77.305 147.528 77.1829 147.651C77.072 147.773 76.961 147.9 76.8501 148.033C76.7502 148.166 76.6615 148.294 76.5838 148.416C75.9514 148.083 75.3079 147.684 74.6534 147.218C73.9988 146.752 73.3664 146.236 72.7562 145.67C72.146 145.104 71.5746 144.505 71.0421 143.873C70.5206 143.24 70.0602 142.597 69.6608 141.942L70.6926 141.493ZM85.6869 141.726H92.8096V142.808H85.6869V141.726ZM85.6369 144.622H92.8096V145.687H85.6369V144.622ZM92.926 134.487L94.1243 134.953C93.8358 135.508 93.5196 136.073 93.1757 136.65C92.8428 137.216 92.5266 137.699 92.2271 138.098L91.162 137.649C91.3617 137.36 91.567 137.039 91.7778 136.684C91.9997 136.317 92.2104 135.94 92.4101 135.552C92.6209 135.164 92.7929 134.809 92.926 134.487ZM84.4054 135.053L85.4539 134.57C85.698 134.881 85.9365 135.219 86.1695 135.585C86.4025 135.951 86.6077 136.312 86.7852 136.667C86.9738 137.022 87.1125 137.344 87.2013 137.632L86.0863 138.181C86.0086 137.904 85.881 137.582 85.7035 137.216C85.526 136.85 85.3263 136.478 85.1044 136.101C84.8825 135.724 84.6495 135.374 84.4054 135.053ZM84.8714 138.764H92.8595V139.945H86.1029V149.331H84.8714V138.764ZM92.2437 138.764H93.4586V147.767C93.4586 148.111 93.4142 148.377 93.3254 148.566C93.2367 148.766 93.0703 148.921 92.8262 149.032C92.571 149.132 92.2271 149.187 91.7944 149.198C91.3728 149.22 90.8458 149.231 90.2134 149.231C90.1912 149.076 90.1413 148.882 90.0637 148.649C89.986 148.416 89.9028 148.216 89.814 148.05C90.2911 148.061 90.7238 148.067 91.1121 148.067C91.5115 148.078 91.7778 148.078 91.9109 148.067C92.1328 148.055 92.2437 147.95 92.2437 147.75V138.764ZM88.6158 134.004H89.864V139.496H88.6158V134.004ZM79.9787 135.053L80.7276 134.204C81.0715 134.37 81.4266 134.565 81.7927 134.786C82.1588 135.008 82.5027 135.236 82.8245 135.469C83.1573 135.702 83.4236 135.918 83.6233 136.118L82.8578 137.083C82.6581 136.872 82.3973 136.65 82.0756 136.417C81.7649 136.173 81.421 135.929 81.0438 135.685C80.6777 135.441 80.3227 135.23 79.9787 135.053ZM79.1966 139.513L79.9122 138.631C80.2672 138.786 80.6333 138.975 81.0105 139.196C81.3877 139.418 81.7428 139.646 82.0756 139.879C82.4195 140.112 82.6913 140.328 82.891 140.528L82.1588 141.51C81.948 141.299 81.6762 141.077 81.3434 140.844C81.0105 140.6 80.6555 140.361 80.2783 140.128C79.9122 139.895 79.5516 139.69 79.1966 139.513ZM79.7125 148.349C79.9898 147.917 80.2894 147.401 80.6111 146.802C80.944 146.203 81.2768 145.57 81.6096 144.905C81.9536 144.239 82.2642 143.59 82.5416 142.958L83.4735 143.706C83.2183 144.294 82.941 144.91 82.6414 145.554C82.3419 146.197 82.0312 146.83 81.7095 147.451C81.3988 148.061 81.0937 148.632 80.7942 149.165L79.7125 148.349ZM96.6039 141.51H111.465V142.758H96.6039V141.51ZM99.6327 134.254L100.931 134.52C100.709 135.341 100.437 136.14 100.115 136.917C99.8047 137.682 99.4607 138.398 99.0835 139.063C98.7063 139.729 98.3124 140.311 97.9019 140.811C97.8132 140.744 97.6911 140.672 97.5358 140.594C97.3916 140.506 97.2418 140.422 97.0865 140.345C96.9423 140.267 96.8147 140.206 96.7037 140.162C97.1364 139.685 97.5358 139.135 97.9019 138.514C98.2792 137.882 98.612 137.205 98.9004 136.484C99.1889 135.752 99.433 135.008 99.6327 134.254ZM99.4829 136.933H110.067V138.198H98.8672L99.4829 136.933ZM104.775 141.759C105.285 143.435 106.123 144.821 107.288 145.92C108.453 147.007 109.978 147.767 111.864 148.2C111.776 148.288 111.676 148.399 111.565 148.533C111.465 148.666 111.365 148.804 111.265 148.949C111.177 149.093 111.099 149.22 111.032 149.331C109.723 148.999 108.586 148.505 107.621 147.85C106.667 147.196 105.857 146.386 105.191 145.421C104.536 144.444 104.009 143.318 103.61 142.042L104.775 141.759ZM103.294 134.021H104.592V139.196C104.592 139.962 104.542 140.733 104.442 141.51C104.353 142.275 104.17 143.03 103.893 143.773C103.616 144.516 103.205 145.226 102.661 145.903C102.118 146.58 101.402 147.212 100.515 147.8C99.6271 148.377 98.5177 148.893 97.1863 149.348C97.142 149.248 97.0754 149.132 96.9866 148.999C96.8979 148.865 96.798 148.732 96.6871 148.599C96.5872 148.466 96.4929 148.355 96.4042 148.266C97.6468 147.845 98.6841 147.373 99.5162 146.852C100.348 146.319 101.014 145.753 101.513 145.154C102.024 144.544 102.406 143.912 102.661 143.257C102.917 142.591 103.083 141.92 103.161 141.243C103.25 140.556 103.294 139.873 103.294 139.196V134.021ZM21.9322 166.212L22.9806 167.194C22.2373 167.56 21.3941 167.915 20.451 168.259C19.5191 168.591 18.5483 168.908 17.5387 169.207C16.5291 169.496 15.5306 169.767 14.5432 170.023C14.5099 169.878 14.4489 169.706 14.3601 169.507C14.2825 169.307 14.2048 169.146 14.1272 169.024C15.0702 168.769 16.0243 168.492 16.9896 168.192C17.9659 167.881 18.8812 167.56 19.7354 167.227C20.6008 166.883 21.3331 166.544 21.9322 166.212ZM13.761 165.063H15.0591V172.602C15.0591 172.879 15.0979 173.09 15.1756 173.234C15.2644 173.379 15.4308 173.479 15.6749 173.534C15.9189 173.59 16.2795 173.617 16.7566 173.617C16.8897 173.617 17.1171 173.617 17.4389 173.617C17.7717 173.617 18.1489 173.617 18.5705 173.617C19.0032 173.617 19.4303 173.617 19.8519 173.617C20.2735 173.617 20.6618 173.617 21.0169 173.617C21.3719 173.617 21.6382 173.617 21.8157 173.617C22.2373 173.617 22.5535 173.551 22.7643 173.418C22.9861 173.284 23.1415 173.029 23.2302 172.652C23.3301 172.275 23.4022 171.726 23.4466 171.004C23.5686 171.071 23.7017 171.138 23.846 171.204C23.9902 171.271 24.1344 171.332 24.2787 171.387C24.434 171.443 24.5727 171.487 24.6947 171.52C24.617 172.375 24.495 173.046 24.3286 173.534C24.1622 174.022 23.8848 174.361 23.4965 174.549C23.1082 174.749 22.5535 174.849 21.8323 174.849C21.7436 174.849 21.566 174.849 21.2998 174.849C21.0446 174.849 20.7395 174.849 20.3845 174.849C20.0405 174.849 19.6744 174.849 19.2861 174.849C18.8978 174.849 18.5261 174.849 18.1711 174.849C17.8272 174.849 17.5276 174.849 17.2725 174.849C17.0173 174.849 16.8453 174.849 16.7566 174.849C15.991 174.849 15.3864 174.788 14.9426 174.666C14.5099 174.544 14.2048 174.316 14.0273 173.983C13.8498 173.651 13.761 173.185 13.761 172.585V165.063ZM17.6053 160.004H18.9533V162.7H17.6053V160.004ZM11.4312 162.118H25.194V165.929H23.8959V163.349H12.6793V165.929H11.4312V162.118ZM36.7101 160.637H41.7193V161.768H36.7101V160.637ZM41.2366 160.637H42.4848V173.75C42.4848 174.128 42.4349 174.416 42.335 174.616C42.2351 174.815 42.0576 174.971 41.8025 175.082C41.5473 175.17 41.1978 175.226 40.754 175.248C40.3213 175.27 39.7777 175.281 39.1231 175.281C39.1009 175.126 39.051 174.926 38.9734 174.682C38.8957 174.449 38.8125 174.255 38.7237 174.1C39.2008 174.111 39.6446 174.116 40.0551 174.116C40.4767 174.128 40.754 174.128 40.8872 174.116C41.0203 174.105 41.1091 174.072 41.1534 174.017C41.2089 173.972 41.2366 173.878 41.2366 173.734V160.637ZM33.4816 160.553L34.4468 160.038C34.6909 160.359 34.9405 160.714 35.1957 161.103C35.4508 161.491 35.6894 161.874 35.9113 162.251C36.1332 162.617 36.3107 162.944 36.4438 163.233L35.412 163.832C35.29 163.543 35.1236 163.211 34.9128 162.833C34.702 162.456 34.469 162.068 34.2138 161.668C33.9697 161.269 33.7256 160.897 33.4816 160.553ZM32.766 163.383H33.9808V175.331H32.766V163.383ZM30.8854 160.121L32.0504 160.437C31.773 161.391 31.4457 162.34 31.0685 163.283C30.7024 164.226 30.2919 165.119 29.837 165.962C29.3932 166.794 28.9162 167.537 28.4058 168.192C28.3725 168.092 28.3115 167.965 28.2228 167.809C28.1451 167.643 28.0619 167.482 27.9731 167.327C27.8955 167.16 27.8178 167.027 27.7401 166.927C28.1728 166.361 28.5833 165.712 28.9716 164.98C29.371 164.248 29.7316 163.466 30.0534 162.634C30.3862 161.802 30.6636 160.964 30.8854 160.121ZM29.5707 164.298L30.719 163.15L30.7523 163.183V175.315H29.5707V164.298ZM47.0446 161.153H58.5108V170.039H57.2128V162.367H48.2928V170.122H47.0446V161.153ZM47.6437 168.325H57.7287V169.523H47.6437V168.325ZM54.1007 171.371L55.0993 170.705C55.6429 171.071 56.2143 171.487 56.8134 171.953C57.4125 172.419 57.9783 172.885 58.5108 173.351C59.0434 173.806 59.476 174.222 59.8089 174.599L58.7105 175.381C58.3999 175.004 57.9838 174.577 57.4624 174.1C56.952 173.634 56.3973 173.162 55.7982 172.685C55.2102 172.197 54.6444 171.759 54.1007 171.371ZM49.907 170.672L51.2384 171.188C50.8279 171.698 50.3452 172.208 49.7905 172.719C49.2469 173.229 48.67 173.712 48.0598 174.166C47.4496 174.621 46.8449 175.015 46.2458 175.348C46.1571 175.259 46.0517 175.159 45.9296 175.048C45.8187 174.937 45.7022 174.827 45.5801 174.716C45.4581 174.616 45.3472 174.533 45.2473 174.466C45.8353 174.144 46.4233 173.778 47.0113 173.368C47.6104 172.946 48.1652 172.502 48.6755 172.036C49.1859 171.57 49.5964 171.115 49.907 170.672ZM62.405 167.36H77.1163V168.475H62.405V167.36ZM69.794 170.339H76.0346V171.437H69.794V170.339ZM69.2614 167.859H70.5096V174.166H69.2614V167.859ZM65.983 170.555C66.3269 171.465 66.7929 172.153 67.3809 172.619C67.98 173.085 68.7067 173.401 69.561 173.567C70.4152 173.734 71.386 173.817 72.4733 173.817C72.5953 173.817 72.8172 173.817 73.139 173.817C73.4607 173.817 73.8268 173.817 74.2373 173.817C74.6589 173.817 75.0805 173.817 75.5021 173.817C75.9237 173.817 76.3064 173.817 76.6504 173.817C77.0054 173.817 77.2717 173.811 77.4492 173.8C77.3826 173.9 77.316 174.022 77.2495 174.166C77.194 174.311 77.1441 174.455 77.0997 174.599C77.0553 174.754 77.0165 174.888 76.9832 174.999H75.9847H72.4234C71.447 174.999 70.5706 174.943 69.794 174.832C69.0173 174.721 68.3239 174.521 67.7137 174.233C67.1035 173.945 66.571 173.534 66.1161 173.001C65.6723 172.469 65.284 171.781 64.9512 170.938L65.983 170.555ZM65.2674 169.024L66.5155 169.191C66.2493 170.577 65.8166 171.787 65.2175 172.818C64.6295 173.85 63.875 174.693 62.9542 175.348C62.8987 175.27 62.8155 175.176 62.7046 175.065C62.5936 174.954 62.4716 174.843 62.3384 174.732C62.2164 174.621 62.1054 174.538 62.0056 174.483C62.8932 173.906 63.6032 173.157 64.1357 172.236C64.6794 171.304 65.0566 170.233 65.2674 169.024ZM65.3506 163.898V165.263H74.021V163.898H65.3506ZM65.3506 161.652V163H74.021V161.652H65.3506ZM64.1524 160.703H75.2857V166.212H64.1524V160.703ZM86.4524 166.594H92.8595V167.693H86.4524V166.594ZM86.4191 162.6H93.625V163.749H86.4191V162.6ZM89.4978 160.038H90.7293V167.243H89.4978V160.038ZM85.9032 162.6H87.0848V166.628C87.0848 167.271 87.057 167.97 87.0016 168.725C86.9461 169.479 86.8462 170.25 86.702 171.038C86.5689 171.814 86.3636 172.574 86.0863 173.318C85.82 174.061 85.4594 174.738 85.0046 175.348C84.938 175.281 84.8437 175.204 84.7216 175.115C84.5996 175.037 84.472 174.96 84.3389 174.882C84.2057 174.804 84.0893 174.743 83.9894 174.699C84.4332 174.111 84.7771 173.473 85.0212 172.785C85.2764 172.097 85.465 171.398 85.587 170.688C85.7201 169.967 85.8034 169.257 85.8366 168.558C85.881 167.859 85.9032 167.21 85.9032 166.611V162.6ZM88.1831 167.16C88.6935 168.88 89.4923 170.367 90.5796 171.62C91.6668 172.874 93.0481 173.761 94.7234 174.283C94.6235 174.372 94.5181 174.477 94.4072 174.599C94.3073 174.732 94.2075 174.865 94.1076 174.999C94.0189 175.132 93.9412 175.259 93.8746 175.381C92.1328 174.738 90.7071 173.734 89.5977 172.369C88.4993 171.004 87.6672 169.362 87.1014 167.443L88.1831 167.16ZM93.2589 162.6H93.4419L93.6583 162.55L94.5237 162.75C94.3905 163.327 94.2297 163.921 94.041 164.531C93.8635 165.141 93.686 165.657 93.5085 166.079L92.4434 165.846C92.5877 165.468 92.7374 164.991 92.8928 164.414C93.0481 163.837 93.1701 163.299 93.2589 162.8V162.6ZM92.5932 166.594H92.8262L93.0425 166.528L93.8413 166.827C93.4974 168.325 92.9871 169.629 92.3103 170.738C91.6335 171.848 90.8347 172.785 89.9139 173.551C88.993 174.305 88.0001 174.904 86.935 175.348C86.8795 175.237 86.8074 175.115 86.7187 174.982C86.641 174.86 86.5578 174.738 86.469 174.616C86.3803 174.505 86.286 174.405 86.1861 174.316C87.1735 173.961 88.0944 173.44 88.9487 172.752C89.814 172.053 90.5629 171.204 91.1953 170.206C91.8388 169.207 92.3048 168.076 92.5932 166.811V166.594ZM81.6762 168.192L82.8578 166.777V175.348H81.6762V168.192ZM79.3796 163.116H84.2723V164.248H79.3796V163.116ZM81.6263 160.071H82.8078V163.749H81.6263V160.071ZM82.7246 166.794C82.8467 166.905 83.0242 167.099 83.2572 167.377C83.5012 167.643 83.7564 167.937 84.0227 168.259C84.3 168.58 84.5497 168.88 84.7716 169.157C85.0046 169.435 85.171 169.634 85.2708 169.756L84.5219 170.605C84.3999 170.405 84.2279 170.156 84.006 169.856C83.7952 169.557 83.5623 169.24 83.3071 168.908C83.063 168.575 82.8245 168.27 82.5915 167.992C82.3696 167.715 82.1921 167.499 82.059 167.343L82.7246 166.794ZM83.9728 163.116H84.2224L84.4387 163.066L85.1044 163.516C84.7272 164.481 84.2446 165.418 83.6566 166.328C83.0686 167.227 82.4251 168.053 81.7261 168.808C81.0272 169.551 80.3282 170.178 79.6293 170.688C79.5849 170.577 79.5239 170.45 79.4462 170.306C79.3796 170.161 79.302 170.028 79.2132 169.906C79.1355 169.773 79.0579 169.668 78.9802 169.59C79.6459 169.146 80.3005 168.597 80.944 167.942C81.5985 167.277 82.1921 166.55 82.7246 165.762C83.2572 164.975 83.6732 164.176 83.9728 163.366V163.116ZM84.7882 166.095L85.5704 166.661C85.3152 167.016 85.0434 167.377 84.7549 167.743C84.4665 168.109 84.2002 168.419 83.9561 168.675L83.3237 168.209C83.4791 168.02 83.6455 167.804 83.823 167.56C84.0116 167.304 84.1891 167.049 84.3555 166.794C84.533 166.528 84.6773 166.295 84.7882 166.095ZM96.5706 173.784H111.498V174.799H96.5706V173.784ZM96.6704 162.966H111.415V163.998H96.6704V162.966ZM97.8187 171.337H110.45V172.336H97.8187V171.337ZM103.344 161.286H104.592V174.266H103.344V161.286ZM109.135 160.121L109.801 161.086C109.057 161.219 108.214 161.341 107.271 161.452C106.339 161.552 105.357 161.641 104.326 161.718C103.294 161.785 102.257 161.846 101.214 161.901C100.171 161.946 99.1612 161.974 98.1848 161.985C98.1848 161.84 98.1516 161.674 98.085 161.485C98.0295 161.286 97.9741 161.125 97.9186 161.003C98.8838 160.969 99.8823 160.931 100.914 160.886C101.957 160.831 102.978 160.77 103.976 160.703C104.986 160.626 105.929 160.537 106.805 160.437C107.693 160.337 108.469 160.232 109.135 160.121ZM99.5661 168.009V169.274H108.553V168.009H99.5661ZM99.5661 165.912V167.16H108.553V165.912H99.5661ZM98.3513 165.013H109.817V170.189H98.3513V165.013ZM122.615 165.646H128.822V166.811H122.615V165.646ZM113.861 161.768H121.217V162.817H113.861V161.768ZM113.678 168.358H121.284V169.457H113.678V168.358ZM113.628 165.563H121.417V166.628H113.628V165.563ZM125.727 166.112H126.925V175.248H125.727V166.112ZM116.957 160.087H118.172V162.301H116.957V160.087ZM116.957 166.445H118.172V175.298H116.957V166.445ZM122.016 161.386L123.547 161.851C123.536 161.974 123.425 162.051 123.214 162.084V167.227C123.214 167.848 123.181 168.514 123.114 169.224C123.059 169.934 122.942 170.655 122.765 171.387C122.587 172.108 122.321 172.813 121.966 173.501C121.611 174.189 121.145 174.821 120.568 175.398C120.513 175.309 120.429 175.209 120.318 175.098C120.219 174.987 120.108 174.876 119.986 174.766C119.875 174.666 119.769 174.594 119.669 174.549C120.202 174.028 120.624 173.462 120.934 172.852C121.256 172.242 121.489 171.615 121.633 170.971C121.788 170.328 121.888 169.69 121.933 169.057C121.988 168.414 122.016 167.798 122.016 167.21V161.386ZM127.591 160.204L128.606 161.119C128.085 161.352 127.491 161.574 126.825 161.785C126.16 161.985 125.472 162.168 124.762 162.334C124.063 162.489 123.381 162.628 122.715 162.75C122.682 162.617 122.626 162.456 122.548 162.268C122.471 162.068 122.393 161.907 122.315 161.785C122.937 161.652 123.575 161.502 124.229 161.336C124.895 161.169 125.522 160.992 126.11 160.803C126.698 160.603 127.191 160.404 127.591 160.204ZM118.039 169.756C118.172 169.845 118.366 169.995 118.621 170.206C118.887 170.405 119.17 170.627 119.47 170.871C119.769 171.115 120.041 171.343 120.285 171.554C120.529 171.753 120.707 171.898 120.818 171.986L120.069 172.918C119.936 172.763 119.753 172.569 119.52 172.336C119.287 172.103 119.031 171.859 118.754 171.604C118.488 171.337 118.227 171.093 117.972 170.871C117.728 170.638 117.528 170.461 117.373 170.339L118.039 169.756ZM114.86 163.133L115.858 162.9C116.025 163.266 116.175 163.671 116.308 164.115C116.441 164.559 116.53 164.941 116.574 165.263L115.509 165.546C115.487 165.213 115.415 164.825 115.293 164.381C115.171 163.926 115.026 163.51 114.86 163.133ZM119.137 162.867L120.269 163.116C120.113 163.538 119.952 163.965 119.786 164.398C119.619 164.83 119.459 165.202 119.303 165.513L118.288 165.263C118.388 165.041 118.488 164.792 118.588 164.514C118.699 164.237 118.804 163.954 118.904 163.665C119.004 163.366 119.081 163.1 119.137 162.867ZM116.957 168.924L117.855 169.274C117.578 169.873 117.234 170.483 116.824 171.104C116.413 171.715 115.975 172.286 115.509 172.818C115.054 173.34 114.605 173.773 114.161 174.116C114.061 173.972 113.928 173.817 113.762 173.651C113.606 173.473 113.456 173.329 113.312 173.218C113.767 172.929 114.222 172.552 114.677 172.086C115.143 171.62 115.576 171.11 115.975 170.555C116.374 170 116.702 169.457 116.957 168.924ZM137.609 160.004H138.924V162.7H137.609V160.004ZM131.402 161.785H145.298V165.363H143.983V162.95H132.667V165.363H131.402V161.785ZM136.96 163.699L138.242 163.982C137.942 164.625 137.609 165.302 137.243 166.012C136.888 166.711 136.522 167.421 136.145 168.142C135.779 168.852 135.418 169.529 135.063 170.172C134.708 170.816 134.386 171.393 134.098 171.903L132.8 171.554C133.11 171.054 133.443 170.483 133.798 169.84C134.164 169.185 134.536 168.503 134.913 167.793C135.29 167.083 135.651 166.378 135.995 165.679C136.35 164.969 136.672 164.309 136.96 163.699ZM141.354 167.16L142.735 167.36C142.402 168.647 141.925 169.745 141.304 170.655C140.694 171.565 139.939 172.33 139.04 172.952C138.153 173.562 137.127 174.055 135.962 174.433C134.797 174.821 133.499 175.132 132.068 175.365C132.034 175.254 131.968 175.126 131.868 174.982C131.779 174.849 131.685 174.71 131.585 174.566C131.496 174.433 131.407 174.322 131.319 174.233C133.205 173.989 134.83 173.612 136.195 173.101C137.559 172.58 138.674 171.848 139.54 170.905C140.405 169.95 141.01 168.702 141.354 167.16ZM130.936 166.395H145.714V167.576H130.936V166.395ZM133.782 170.955L134.614 170.073C135.501 170.317 136.422 170.605 137.376 170.938C138.33 171.271 139.268 171.631 140.189 172.02C141.121 172.397 141.992 172.785 142.801 173.185C143.622 173.573 144.327 173.956 144.915 174.333L143.983 175.365C143.428 174.987 142.752 174.594 141.953 174.183C141.165 173.784 140.305 173.384 139.373 172.985C138.452 172.585 137.509 172.214 136.544 171.87C135.59 171.526 134.669 171.221 133.782 170.955ZM155.832 160.021H156.98V167.044C156.98 167.876 156.941 168.68 156.864 169.457C156.797 170.233 156.647 170.977 156.414 171.687C156.181 172.386 155.838 173.046 155.383 173.667C154.939 174.277 154.334 174.838 153.569 175.348C153.513 175.259 153.43 175.159 153.319 175.048C153.208 174.949 153.097 174.849 152.986 174.749C152.875 174.649 152.775 174.571 152.687 174.516C153.386 174.05 153.946 173.54 154.368 172.985C154.789 172.43 155.105 171.837 155.316 171.204C155.527 170.572 155.666 169.912 155.732 169.224C155.799 168.525 155.832 167.798 155.832 167.044V160.021ZM158.711 160.021H159.893V175.315H158.711V160.021ZM153.103 162.867H156.348V164.015H153.103V162.867ZM159.327 162.867H162.822V164.015H159.327V162.867ZM159.393 166.345H162.655V167.476H159.393V166.345ZM159.31 169.973H163.104V171.121H159.31V169.973ZM153.219 166.345H156.381V167.476H153.219V166.345ZM152.287 170.688C152.764 170.555 153.319 170.389 153.951 170.189C154.595 169.989 155.261 169.779 155.949 169.557L156.132 170.539C155.555 170.76 154.978 170.977 154.401 171.188C153.824 171.387 153.28 171.581 152.77 171.77L152.287 170.688ZM147.594 168.658C148.238 168.469 149.014 168.236 149.924 167.959C150.845 167.671 151.777 167.377 152.72 167.077L152.903 168.225C152.038 168.514 151.167 168.802 150.29 169.091C149.414 169.379 148.621 169.634 147.911 169.856L147.594 168.658ZM147.827 163.383H152.87V164.547H147.827V163.383ZM149.908 160.038H151.072V173.884C151.072 174.216 151.028 174.477 150.939 174.666C150.862 174.854 150.717 174.999 150.507 175.098C150.307 175.198 150.041 175.265 149.708 175.298C149.375 175.331 148.942 175.342 148.41 175.331C148.399 175.187 148.354 174.999 148.277 174.766C148.21 174.544 148.138 174.344 148.06 174.166C148.415 174.178 148.737 174.183 149.026 174.183C149.325 174.194 149.525 174.194 149.625 174.183C149.724 174.183 149.797 174.161 149.841 174.116C149.885 174.083 149.908 174.006 149.908 173.884V160.038ZM167.115 166.262H171.242V167.426H167.115V166.262ZM170.76 166.262H171.975C171.975 166.262 171.975 166.295 171.975 166.361C171.975 166.417 171.969 166.489 171.958 166.578C171.958 166.667 171.958 166.739 171.958 166.794C171.936 168.037 171.902 169.046 171.858 169.823C171.825 170.588 171.775 171.171 171.708 171.57C171.653 171.97 171.564 172.247 171.442 172.402C171.309 172.558 171.165 172.669 171.009 172.735C170.865 172.802 170.676 172.852 170.443 172.885C170.222 172.907 169.933 172.918 169.578 172.918C169.223 172.907 168.84 172.891 168.43 172.868C168.419 172.691 168.38 172.497 168.313 172.286C168.258 172.064 168.18 171.87 168.08 171.703C168.458 171.748 168.813 171.776 169.145 171.787C169.478 171.787 169.711 171.787 169.844 171.787C169.966 171.787 170.066 171.776 170.144 171.753C170.233 171.731 170.31 171.681 170.377 171.604C170.455 171.504 170.516 171.282 170.56 170.938C170.615 170.583 170.654 170.05 170.676 169.34C170.71 168.619 170.738 167.659 170.76 166.461V166.262ZM175.436 160.853L176.185 160.087C176.54 160.254 176.906 160.454 177.283 160.687C177.672 160.908 178.032 161.136 178.365 161.369C178.698 161.591 178.975 161.796 179.197 161.985L178.415 162.85C178.204 162.65 177.932 162.434 177.599 162.201C177.267 161.957 176.912 161.718 176.534 161.485C176.157 161.252 175.791 161.042 175.436 160.853ZM177.832 165.363L179.081 165.679C178.371 167.854 177.4 169.74 176.168 171.337C174.937 172.935 173.472 174.239 171.775 175.248C171.708 175.159 171.62 175.048 171.509 174.915C171.398 174.793 171.281 174.666 171.159 174.533C171.048 174.41 170.948 174.305 170.86 174.216C172.546 173.329 173.972 172.136 175.136 170.638C176.301 169.13 177.2 167.371 177.832 165.363ZM167.215 162.85H180.096V164.065H167.215V162.85ZM166.4 162.85H167.698V167.543C167.698 168.131 167.675 168.769 167.631 169.457C167.587 170.145 167.503 170.844 167.381 171.554C167.259 172.264 167.082 172.957 166.849 173.634C166.616 174.3 166.305 174.904 165.917 175.448C165.85 175.359 165.751 175.259 165.617 175.148C165.495 175.037 165.362 174.932 165.218 174.832C165.085 174.732 164.968 174.66 164.868 174.616C165.334 173.928 165.673 173.173 165.884 172.352C166.106 171.531 166.244 170.705 166.3 169.873C166.366 169.03 166.4 168.247 166.4 167.526V162.85ZM173.323 160.038H174.621C174.609 161.58 174.665 163.044 174.787 164.431C174.909 165.818 175.081 167.094 175.303 168.259C175.525 169.412 175.791 170.416 176.102 171.271C176.423 172.114 176.773 172.769 177.15 173.234C177.538 173.7 177.943 173.933 178.365 173.933C178.609 173.933 178.787 173.7 178.898 173.234C179.02 172.757 179.103 171.964 179.147 170.855C179.291 170.988 179.463 171.121 179.663 171.254C179.874 171.387 180.062 171.482 180.229 171.537C180.151 172.491 180.04 173.234 179.896 173.767C179.763 174.3 179.563 174.671 179.297 174.882C179.042 175.104 178.698 175.215 178.265 175.215C177.71 175.215 177.2 175.026 176.734 174.649C176.268 174.272 175.852 173.739 175.486 173.051C175.131 172.364 174.82 171.554 174.554 170.622C174.288 169.679 174.06 168.641 173.872 167.51C173.694 166.378 173.561 165.185 173.472 163.932C173.384 162.667 173.334 161.369 173.323 160.038ZM182.609 168.492H195.24V169.64H182.609V168.492ZM194.79 168.492H196.122C196.122 168.492 196.116 168.53 196.105 168.608C196.105 168.675 196.1 168.752 196.089 168.841C196.089 168.93 196.083 169.007 196.072 169.074C195.994 170.306 195.905 171.31 195.806 172.086C195.717 172.863 195.611 173.462 195.489 173.884C195.378 174.305 195.234 174.61 195.057 174.799C194.89 174.976 194.702 175.098 194.491 175.165C194.291 175.231 194.047 175.276 193.759 175.298C193.503 175.32 193.137 175.326 192.66 175.315C192.183 175.315 191.69 175.298 191.179 175.265C191.168 175.076 191.124 174.865 191.046 174.632C190.968 174.41 190.869 174.216 190.746 174.05C191.279 174.083 191.778 174.105 192.244 174.116C192.721 174.139 193.054 174.15 193.243 174.15C193.42 174.15 193.559 174.139 193.659 174.116C193.759 174.094 193.853 174.044 193.942 173.967C194.075 173.845 194.191 173.595 194.291 173.218C194.391 172.841 194.48 172.286 194.557 171.554C194.646 170.81 194.724 169.856 194.79 168.691V168.492ZM188.816 166.728H190.131C190.042 167.537 189.92 168.309 189.765 169.041C189.609 169.773 189.376 170.461 189.066 171.104C188.766 171.737 188.356 172.319 187.834 172.852C187.324 173.384 186.669 173.861 185.87 174.283C185.072 174.705 184.101 175.054 182.958 175.331C182.914 175.22 182.853 175.098 182.775 174.965C182.697 174.832 182.609 174.699 182.509 174.566C182.42 174.433 182.331 174.322 182.243 174.233C183.33 173.989 184.24 173.689 184.972 173.334C185.715 172.968 186.32 172.552 186.786 172.086C187.263 171.609 187.634 171.093 187.901 170.539C188.167 169.973 188.367 169.374 188.5 168.741C188.633 168.098 188.738 167.426 188.816 166.728ZM185.355 161.985V165.613H194.141V161.985H185.355ZM184.123 160.803H195.439V166.811H184.123V160.803ZM199.284 166.827H214.528V168.192H199.284V166.827ZM223.032 163.532H231.319V170.838H230.104V164.747H224.213V170.938H223.032V163.532ZM226.56 160.054H227.808V175.298H226.56V160.054ZM223.464 168.708H230.986V169.923H223.464V168.708ZM219.137 161.402H220.352V175.298H219.137V161.402ZM216.458 164.714H222.482V165.879H216.458V164.714ZM219.187 165.163L219.969 165.496C219.792 166.084 219.581 166.694 219.337 167.327C219.104 167.948 218.843 168.569 218.555 169.191C218.278 169.801 217.978 170.378 217.656 170.921C217.335 171.454 217.013 171.909 216.691 172.286C216.636 172.119 216.541 171.925 216.408 171.703C216.286 171.482 216.175 171.293 216.075 171.138C216.375 170.805 216.674 170.405 216.974 169.939C217.274 169.473 217.562 168.969 217.839 168.425C218.128 167.881 218.383 167.332 218.605 166.777C218.838 166.212 219.032 165.674 219.187 165.163ZM221.8 160.254L222.549 161.252C222.039 161.452 221.462 161.635 220.818 161.802C220.175 161.968 219.509 162.118 218.821 162.251C218.133 162.373 217.468 162.478 216.824 162.567C216.802 162.434 216.752 162.273 216.674 162.084C216.608 161.896 216.536 161.735 216.458 161.602C217.09 161.491 217.734 161.369 218.389 161.236C219.054 161.103 219.681 160.953 220.269 160.786C220.868 160.609 221.378 160.431 221.8 160.254ZM220.286 166.178C220.386 166.289 220.546 166.478 220.768 166.744C220.99 166.999 221.223 167.282 221.467 167.593C221.722 167.904 221.95 168.192 222.15 168.458C222.36 168.713 222.51 168.902 222.599 169.024L221.85 169.989C221.75 169.801 221.606 169.557 221.417 169.257C221.229 168.946 221.023 168.625 220.802 168.292C220.591 167.959 220.386 167.648 220.186 167.36C219.997 167.071 219.836 166.85 219.703 166.694L220.286 166.178ZM236.628 164.847H245.681V165.995H236.628V164.847ZM233.766 167.909H248.527V169.091H233.766V167.909ZM238.142 168.725H239.49C239.402 169.534 239.257 170.283 239.058 170.971C238.869 171.659 238.581 172.28 238.192 172.835C237.815 173.39 237.299 173.878 236.645 174.3C235.99 174.721 235.158 175.076 234.148 175.365C234.104 175.254 234.037 175.132 233.949 174.999C233.871 174.865 233.782 174.732 233.682 174.599C233.594 174.477 233.499 174.377 233.399 174.3C234.342 174.067 235.108 173.773 235.696 173.418C236.284 173.063 236.744 172.652 237.077 172.186C237.41 171.72 237.654 171.199 237.809 170.622C237.965 170.034 238.076 169.401 238.142 168.725ZM242.353 168.625H243.617V173.318C243.617 173.562 243.662 173.717 243.751 173.784C243.85 173.85 244.072 173.884 244.416 173.884C244.505 173.884 244.649 173.884 244.849 173.884C245.06 173.884 245.293 173.884 245.548 173.884C245.803 173.884 246.042 173.884 246.263 173.884C246.496 173.884 246.663 173.884 246.763 173.884C246.985 173.884 247.146 173.834 247.245 173.734C247.356 173.634 247.434 173.429 247.478 173.118C247.523 172.796 247.556 172.314 247.578 171.67C247.667 171.748 247.778 171.82 247.911 171.886C248.044 171.942 248.183 171.997 248.327 172.053C248.471 172.097 248.599 172.136 248.71 172.169C248.665 172.935 248.582 173.528 248.46 173.95C248.338 174.361 248.155 174.643 247.911 174.799C247.667 174.954 247.317 175.032 246.863 175.032C246.785 175.032 246.624 175.032 246.38 175.032C246.136 175.032 245.87 175.032 245.581 175.032C245.293 175.032 245.026 175.032 244.782 175.032C244.538 175.032 244.377 175.032 244.3 175.032C243.778 175.032 243.379 174.982 243.102 174.882C242.824 174.793 242.63 174.621 242.519 174.366C242.408 174.122 242.353 173.778 242.353 173.334V168.625ZM240.456 160.021H241.77V162.667H240.456V160.021ZM234.165 161.802H248.161V165.33H246.829V163H235.43V165.33H234.165V161.802ZM251.872 169.257H264.786V170.289H251.872V169.257ZM250.923 161.103H258.595V162.018H250.923V161.103ZM258.345 171.57H263.687V172.536H258.345V171.57ZM250.757 173.917H265.884V174.965H250.757V173.917ZM257.663 169.64H258.895V174.416H257.663V169.64ZM254.202 160.021H255.317V168.808H254.202V160.021ZM253.503 171.038H254.701V174.483H253.503V171.038ZM252.438 163.699V165.08H257.131V163.699H252.438ZM251.406 162.867H258.196V165.912H251.406V162.867ZM255.317 165.862C255.461 165.929 255.672 166.034 255.949 166.178C256.226 166.311 256.52 166.456 256.831 166.611C257.153 166.766 257.447 166.916 257.713 167.06C257.99 167.194 258.19 167.299 258.312 167.377L257.696 168.209C257.541 168.098 257.33 167.959 257.064 167.793C256.809 167.626 256.531 167.454 256.232 167.277C255.932 167.099 255.644 166.938 255.367 166.794C255.089 166.639 254.862 166.517 254.684 166.428L255.317 165.862ZM260.659 160.021L261.79 160.271C261.513 161.236 261.125 162.145 260.625 163C260.137 163.843 259.588 164.553 258.978 165.13C258.933 165.052 258.856 164.958 258.745 164.847C258.645 164.736 258.54 164.631 258.429 164.531C258.318 164.42 258.218 164.331 258.129 164.265C258.717 163.765 259.227 163.144 259.66 162.401C260.093 161.657 260.426 160.864 260.659 160.021ZM260.359 161.885H265.818V162.9H259.843L260.359 161.885ZM263.687 162.334L264.852 162.467C264.442 164.154 263.715 165.502 262.672 166.511C261.641 167.51 260.348 168.292 258.795 168.858C258.75 168.769 258.684 168.669 258.595 168.558C258.517 168.447 258.429 168.331 258.329 168.209C258.229 168.087 258.135 167.998 258.046 167.942C259.544 167.488 260.77 166.811 261.724 165.912C262.689 165.013 263.344 163.821 263.687 162.334ZM260.492 162.484C260.736 163.183 261.097 163.893 261.574 164.614C262.051 165.324 262.661 165.973 263.405 166.561C264.159 167.149 265.058 167.604 266.101 167.926C265.978 168.037 265.845 168.192 265.701 168.392C265.568 168.591 265.463 168.763 265.385 168.908C264.342 168.519 263.438 168.009 262.672 167.377C261.918 166.733 261.291 166.034 260.792 165.28C260.304 164.514 259.932 163.771 259.677 163.05L260.492 162.484ZM254.102 165.479L254.917 165.846C254.64 166.212 254.301 166.583 253.902 166.961C253.503 167.338 253.081 167.693 252.637 168.026C252.194 168.347 251.772 168.608 251.373 168.808C251.295 168.686 251.184 168.547 251.04 168.392C250.895 168.236 250.762 168.109 250.64 168.009C251.04 167.843 251.456 167.621 251.888 167.343C252.321 167.066 252.732 166.766 253.12 166.445C253.519 166.123 253.847 165.801 254.102 165.479Z" fill="white"/>
</g>
<mask id="path-2-outside-1_1763_420" maskUnits="userSpaceOnUse" x="223" y="65" width="48" height="53" fill="black">
<rect fill="white" x="223" y="65" width="48" height="53"/>
<path d="M255.606 69.7996L256.002 69.3715C259.794 70.3704 262.103 71.9937 262.927 74.2413C263.422 75.5614 263.29 76.6138 262.531 77.3987C261.806 78.148 260.915 78.1123 259.86 77.2917C259.662 76.1144 259.135 74.83 258.277 73.4386C257.453 72.0472 256.563 70.8342 255.606 69.7996ZM236.811 78.8436L237.8 77.2382C237.899 77.0955 238.047 76.8457 238.245 76.489C238.476 76.1322 238.641 75.8825 238.74 75.7398C238.872 75.5971 239.004 75.5257 239.135 75.5257C239.432 75.5257 240.125 76.1144 241.213 77.2917C242.301 78.469 242.845 79.2539 242.845 79.6464C242.746 80.2172 242.334 80.5026 241.609 80.5026H235.277V90.8311C236.036 90.5456 236.844 90.2424 237.701 89.9213C238.558 89.6002 239.531 89.2256 240.619 88.7975C241.708 88.3694 242.548 88.0483 243.142 87.8342L243.389 88.6369C242.961 88.8867 241.806 89.618 239.927 90.8311C238.08 92.0084 236.53 92.9895 235.277 93.7744V110.525C235.277 112.487 234.915 113.932 234.189 114.859C233.464 115.823 231.93 116.447 229.589 116.732C229.424 115.056 229.062 113.914 228.501 113.307C227.743 112.558 226.325 112.005 224.247 111.648V110.739C227.578 111.024 229.606 111.167 230.331 111.167C231.123 111.167 231.518 110.792 231.518 110.043V96.0755C231.123 96.2896 230.43 96.6999 229.441 97.3064C228.452 97.8772 227.677 98.3232 227.116 98.6443C226.951 99.3221 226.589 99.7859 226.028 100.036L224.148 94.6842C225.368 94.3631 227.825 93.5425 231.518 92.2225V80.5026H229.243C228.023 80.5383 226.704 80.788 225.286 81.2518L224 78.4155C225.418 78.6296 227.116 78.7723 229.095 78.8436H231.518V77.2382C231.518 72.8499 231.287 69.1039 230.826 66C234.651 67.0703 236.58 67.873 236.613 68.4082C236.613 68.5509 236.465 68.7293 236.168 68.9433L235.277 69.532V78.8436H236.811ZM262.729 80.9307L263.867 79.2183C264.658 78.0766 265.169 77.5058 265.4 77.5058C265.73 77.5058 266.521 78.1123 267.774 79.3253C269.06 80.5026 269.703 81.2875 269.703 81.68C269.571 82.2508 269.126 82.5362 268.368 82.5362H257.684V97.6275C257.783 97.4848 257.898 97.2886 258.03 97.0388C258.195 96.7534 258.294 96.5929 258.327 96.5572C260.437 93.3463 261.938 89.957 262.828 86.3893C266.125 88.2088 267.774 89.3326 267.774 89.7608C267.774 89.9035 267.609 90.0105 267.28 90.0818L266.29 90.1889C263.949 94.7555 261.08 98.9119 257.684 102.658V110.525C257.684 111.024 257.783 111.381 257.981 111.595C258.179 111.773 258.624 111.863 259.316 111.863H262.383C264.097 111.863 265.12 111.845 265.449 111.809C265.845 111.738 266.125 111.577 266.29 111.327C266.521 110.971 267.016 109.098 267.774 105.708H268.318L268.516 111.434C269.505 111.863 270 112.469 270 113.254C270 114.182 269.439 114.842 268.318 115.234C267.197 115.662 265.153 115.876 262.185 115.876H258.426C256.678 115.876 255.508 115.573 254.914 114.966C254.353 114.396 254.073 113.325 254.073 111.756V106.19C251.303 108.723 248.253 110.953 244.923 112.879L244.378 112.023C247.874 109.419 251.105 106.279 254.073 102.604V82.5362H250.957C250.462 90.3851 249.193 97.0388 247.148 102.497C245.104 107.92 241.543 112.754 236.465 117L235.624 116.197C239.548 111.809 242.351 106.939 244.032 101.588C245.714 96.2361 246.753 89.8856 247.148 82.5362H245.368C244.411 82.5719 243.439 82.8216 242.449 83.2854L241.114 80.5026C242.268 80.7167 243.653 80.8594 245.269 80.9307H247.247C247.313 79.5037 247.346 78.3799 247.346 77.5593C247.478 73.1354 247.33 69.3358 246.901 66.1605C250.759 66.553 252.688 66.999 252.688 67.4984C252.721 67.6411 252.589 67.8195 252.292 68.0336L251.353 68.6758C251.287 72.9927 251.188 77.0776 251.056 80.9307H262.729Z"/>
</mask>
<path d="M255.606 69.7996L256.002 69.3715C259.794 70.3704 262.103 71.9937 262.927 74.2413C263.422 75.5614 263.29 76.6138 262.531 77.3987C261.806 78.148 260.915 78.1123 259.86 77.2917C259.662 76.1144 259.135 74.83 258.277 73.4386C257.453 72.0472 256.563 70.8342 255.606 69.7996ZM236.811 78.8436L237.8 77.2382C237.899 77.0955 238.047 76.8457 238.245 76.489C238.476 76.1322 238.641 75.8825 238.74 75.7398C238.872 75.5971 239.004 75.5257 239.135 75.5257C239.432 75.5257 240.125 76.1144 241.213 77.2917C242.301 78.469 242.845 79.2539 242.845 79.6464C242.746 80.2172 242.334 80.5026 241.609 80.5026H235.277V90.8311C236.036 90.5456 236.844 90.2424 237.701 89.9213C238.558 89.6002 239.531 89.2256 240.619 88.7975C241.708 88.3694 242.548 88.0483 243.142 87.8342L243.389 88.6369C242.961 88.8867 241.806 89.618 239.927 90.8311C238.08 92.0084 236.53 92.9895 235.277 93.7744V110.525C235.277 112.487 234.915 113.932 234.189 114.859C233.464 115.823 231.93 116.447 229.589 116.732C229.424 115.056 229.062 113.914 228.501 113.307C227.743 112.558 226.325 112.005 224.247 111.648V110.739C227.578 111.024 229.606 111.167 230.331 111.167C231.123 111.167 231.518 110.792 231.518 110.043V96.0755C231.123 96.2896 230.43 96.6999 229.441 97.3064C228.452 97.8772 227.677 98.3232 227.116 98.6443C226.951 99.3221 226.589 99.7859 226.028 100.036L224.148 94.6842C225.368 94.3631 227.825 93.5425 231.518 92.2225V80.5026H229.243C228.023 80.5383 226.704 80.788 225.286 81.2518L224 78.4155C225.418 78.6296 227.116 78.7723 229.095 78.8436H231.518V77.2382C231.518 72.8499 231.287 69.1039 230.826 66C234.651 67.0703 236.58 67.873 236.613 68.4082C236.613 68.5509 236.465 68.7293 236.168 68.9433L235.277 69.532V78.8436H236.811ZM262.729 80.9307L263.867 79.2183C264.658 78.0766 265.169 77.5058 265.4 77.5058C265.73 77.5058 266.521 78.1123 267.774 79.3253C269.06 80.5026 269.703 81.2875 269.703 81.68C269.571 82.2508 269.126 82.5362 268.368 82.5362H257.684V97.6275C257.783 97.4848 257.898 97.2886 258.03 97.0388C258.195 96.7534 258.294 96.5929 258.327 96.5572C260.437 93.3463 261.938 89.957 262.828 86.3893C266.125 88.2088 267.774 89.3326 267.774 89.7608C267.774 89.9035 267.609 90.0105 267.28 90.0818L266.29 90.1889C263.949 94.7555 261.08 98.9119 257.684 102.658V110.525C257.684 111.024 257.783 111.381 257.981 111.595C258.179 111.773 258.624 111.863 259.316 111.863H262.383C264.097 111.863 265.12 111.845 265.449 111.809C265.845 111.738 266.125 111.577 266.29 111.327C266.521 110.971 267.016 109.098 267.774 105.708H268.318L268.516 111.434C269.505 111.863 270 112.469 270 113.254C270 114.182 269.439 114.842 268.318 115.234C267.197 115.662 265.153 115.876 262.185 115.876H258.426C256.678 115.876 255.508 115.573 254.914 114.966C254.353 114.396 254.073 113.325 254.073 111.756V106.19C251.303 108.723 248.253 110.953 244.923 112.879L244.378 112.023C247.874 109.419 251.105 106.279 254.073 102.604V82.5362H250.957C250.462 90.3851 249.193 97.0388 247.148 102.497C245.104 107.92 241.543 112.754 236.465 117L235.624 116.197C239.548 111.809 242.351 106.939 244.032 101.588C245.714 96.2361 246.753 89.8856 247.148 82.5362H245.368C244.411 82.5719 243.439 82.8216 242.449 83.2854L241.114 80.5026C242.268 80.7167 243.653 80.8594 245.269 80.9307H247.247C247.313 79.5037 247.346 78.3799 247.346 77.5593C247.478 73.1354 247.33 69.3358 246.901 66.1605C250.759 66.553 252.688 66.999 252.688 67.4984C252.721 67.6411 252.589 67.8195 252.292 68.0336L251.353 68.6758C251.287 72.9927 251.188 77.0776 251.056 80.9307H262.729Z" fill="white" fill-opacity="0.9"/>
<path d="M255.606 69.7996L256.002 69.3715C259.794 70.3704 262.103 71.9937 262.927 74.2413C263.422 75.5614 263.29 76.6138 262.531 77.3987C261.806 78.148 260.915 78.1123 259.86 77.2917C259.662 76.1144 259.135 74.83 258.277 73.4386C257.453 72.0472 256.563 70.8342 255.606 69.7996ZM236.811 78.8436L237.8 77.2382C237.899 77.0955 238.047 76.8457 238.245 76.489C238.476 76.1322 238.641 75.8825 238.74 75.7398C238.872 75.5971 239.004 75.5257 239.135 75.5257C239.432 75.5257 240.125 76.1144 241.213 77.2917C242.301 78.469 242.845 79.2539 242.845 79.6464C242.746 80.2172 242.334 80.5026 241.609 80.5026H235.277V90.8311C236.036 90.5456 236.844 90.2424 237.701 89.9213C238.558 89.6002 239.531 89.2256 240.619 88.7975C241.708 88.3694 242.548 88.0483 243.142 87.8342L243.389 88.6369C242.961 88.8867 241.806 89.618 239.927 90.8311C238.08 92.0084 236.53 92.9895 235.277 93.7744V110.525C235.277 112.487 234.915 113.932 234.189 114.859C233.464 115.823 231.93 116.447 229.589 116.732C229.424 115.056 229.062 113.914 228.501 113.307C227.743 112.558 226.325 112.005 224.247 111.648V110.739C227.578 111.024 229.606 111.167 230.331 111.167C231.123 111.167 231.518 110.792 231.518 110.043V96.0755C231.123 96.2896 230.43 96.6999 229.441 97.3064C228.452 97.8772 227.677 98.3232 227.116 98.6443C226.951 99.3221 226.589 99.7859 226.028 100.036L224.148 94.6842C225.368 94.3631 227.825 93.5425 231.518 92.2225V80.5026H229.243C228.023 80.5383 226.704 80.788 225.286 81.2518L224 78.4155C225.418 78.6296 227.116 78.7723 229.095 78.8436H231.518V77.2382C231.518 72.8499 231.287 69.1039 230.826 66C234.651 67.0703 236.58 67.873 236.613 68.4082C236.613 68.5509 236.465 68.7293 236.168 68.9433L235.277 69.532V78.8436H236.811ZM262.729 80.9307L263.867 79.2183C264.658 78.0766 265.169 77.5058 265.4 77.5058C265.73 77.5058 266.521 78.1123 267.774 79.3253C269.06 80.5026 269.703 81.2875 269.703 81.68C269.571 82.2508 269.126 82.5362 268.368 82.5362H257.684V97.6275C257.783 97.4848 257.898 97.2886 258.03 97.0388C258.195 96.7534 258.294 96.5929 258.327 96.5572C260.437 93.3463 261.938 89.957 262.828 86.3893C266.125 88.2088 267.774 89.3326 267.774 89.7608C267.774 89.9035 267.609 90.0105 267.28 90.0818L266.29 90.1889C263.949 94.7555 261.08 98.9119 257.684 102.658V110.525C257.684 111.024 257.783 111.381 257.981 111.595C258.179 111.773 258.624 111.863 259.316 111.863H262.383C264.097 111.863 265.12 111.845 265.449 111.809C265.845 111.738 266.125 111.577 266.29 111.327C266.521 110.971 267.016 109.098 267.774 105.708H268.318L268.516 111.434C269.505 111.863 270 112.469 270 113.254C270 114.182 269.439 114.842 268.318 115.234C267.197 115.662 265.153 115.876 262.185 115.876H258.426C256.678 115.876 255.508 115.573 254.914 114.966C254.353 114.396 254.073 113.325 254.073 111.756V106.19C251.303 108.723 248.253 110.953 244.923 112.879L244.378 112.023C247.874 109.419 251.105 106.279 254.073 102.604V82.5362H250.957C250.462 90.3851 249.193 97.0388 247.148 102.497C245.104 107.92 241.543 112.754 236.465 117L235.624 116.197C239.548 111.809 242.351 106.939 244.032 101.588C245.714 96.2361 246.753 89.8856 247.148 82.5362H245.368C244.411 82.5719 243.439 82.8216 242.449 83.2854L241.114 80.5026C242.268 80.7167 243.653 80.8594 245.269 80.9307H247.247C247.313 79.5037 247.346 78.3799 247.346 77.5593C247.478 73.1354 247.33 69.3358 246.901 66.1605C250.759 66.553 252.688 66.999 252.688 67.4984C252.721 67.6411 252.589 67.8195 252.292 68.0336L251.353 68.6758C251.287 72.9927 251.188 77.0776 251.056 80.9307H262.729Z" stroke="white" stroke-opacity="0.9" stroke-width="0.8" mask="url(#path-2-outside-1_1763_420)"/>
<mask id="path-3-outside-2_1763_420" maskUnits="userSpaceOnUse" x="181" y="73" width="41" height="52" fill="black">
<rect fill="white" x="181" y="73" width="41" height="52"/>
<path d="M213.114 80.1497L214.062 78.7594C214.751 77.8324 215.168 77.369 215.312 77.369C215.57 77.369 216.159 77.9572 217.078 79.1337C217.998 80.3102 218.457 81.0945 218.457 81.4866C218.17 81.8788 217.596 82.1283 216.734 82.2353C215.757 84.7665 214.55 86.9768 213.114 88.8663C216.389 91.0053 218.328 93.2513 218.931 95.6043C219.305 96.9947 219.133 97.9394 218.414 98.4385C217.926 98.795 217.337 98.7415 216.648 98.2781C215.498 96.2103 213.617 93.893 211.002 91.3262C208.417 93.893 205.141 95.8538 201.177 97.2086L200.875 96.4064C204.179 94.6952 206.908 92.3957 209.063 89.508C207.483 88.1176 205.702 86.7986 203.719 85.5508L203.978 84.7487C206.362 85.4973 208.546 86.3708 210.528 87.369C211.649 85.5508 212.496 83.6613 213.071 81.7005H209.365C207.497 81.7362 205.299 82.0036 202.771 82.5027L201.565 79.7219C203.173 79.9358 205.127 80.0784 207.425 80.1497H213.114ZM189.714 95.2299C190.288 95.123 191.351 94.9447 192.903 94.6952C194.483 94.41 195.718 94.1961 196.609 94.0535V90.631H189.714V95.2299ZM196.609 83.1979V78.8128H189.714V83.1979H196.609ZM196.609 84.7487H189.714V89.1337H196.609V84.7487ZM198.893 77.262L199.798 75.6578C200.459 74.5526 200.875 74 201.048 74C201.335 74 202.024 74.5704 203.116 75.7112C204.208 76.852 204.754 77.6185 204.754 78.0107C204.639 78.5455 204.251 78.8128 203.59 78.8128H199.841V85.6578C199.898 90.1854 200.013 94.4813 200.186 98.5455C199.554 99.4367 198.562 99.8824 197.212 99.8824C196.695 99.8824 196.436 99.5258 196.436 98.8128C196.465 98.6346 196.48 98.4563 196.48 98.2781C196.508 98.0998 196.523 97.8859 196.523 97.6364C196.551 97.3512 196.58 97.0838 196.609 96.8342V95.2834C193.391 96.6025 189.498 98.0642 184.93 99.6685C184.758 100.346 184.428 100.738 183.939 100.845L182 96.4064C183.264 96.2995 184.787 96.0856 186.568 95.7647V78.8128H185.275C184.586 78.8485 183.91 79.098 183.25 79.5615L182.172 76.8342C183.781 77.0481 185.735 77.1907 188.033 77.262H198.893ZM183.422 108.652C185.146 107.333 186.783 105.783 188.335 104C189.886 102.182 191.064 100.381 191.869 98.5989L194.023 100.791C195.575 101.825 195.991 102.431 195.273 102.61C195.215 102.61 195.158 102.61 195.101 102.61L194.325 102.663C193.147 103.875 191.596 105.105 189.671 106.353C187.746 107.601 185.807 108.635 183.853 109.455L183.422 108.652ZM195.833 108.92C197.614 109.989 198.045 110.613 197.126 110.791L196.307 110.898C194.756 113.109 192.745 115.266 190.274 117.369C187.803 119.472 185.203 121.13 182.474 122.342L182.086 121.701C184.27 120.061 186.381 118.029 188.421 115.604C190.92 112.645 192.587 109.74 193.42 106.888L195.833 108.92ZM208.675 109.508C211.835 106.121 214.062 102.93 215.355 99.9358C217.969 102.324 219.276 103.75 219.276 104.214C219.276 104.357 219.133 104.446 218.845 104.481H218.027C215.383 106.692 212.496 108.688 209.365 110.471C212.324 114.463 216.202 117.369 221 119.187L220.957 119.775C219.52 120.061 218.558 121.273 218.07 123.412C211.232 119.348 206.75 112.538 204.624 102.984C204.452 103.055 204.179 103.18 203.806 103.358C203.432 103.501 203.145 103.608 202.944 103.679V110.096C203.001 114.446 203.116 118.617 203.288 122.61C202.541 123.537 201.464 124 200.056 124C199.798 124 199.568 123.875 199.367 123.626C199.194 123.412 199.108 123.162 199.108 122.877C199.309 119.383 199.439 115.515 199.496 111.273V104.909C197.715 105.444 195.977 105.872 194.282 106.193L194.023 105.337C196.006 104.624 198.103 103.608 200.315 102.289C203.475 100.506 205.802 98.5276 207.296 96.3529C209.767 98.8841 210.873 100.292 210.614 100.578C210.528 100.684 210.341 100.738 210.054 100.738L209.02 100.684C207.727 101.504 206.535 102.146 205.443 102.61C206.19 105.07 207.267 107.369 208.675 109.508Z"/>
</mask>
<path d="M213.114 80.1497L214.062 78.7594C214.751 77.8324 215.168 77.369 215.312 77.369C215.57 77.369 216.159 77.9572 217.078 79.1337C217.998 80.3102 218.457 81.0945 218.457 81.4866C218.17 81.8788 217.596 82.1283 216.734 82.2353C215.757 84.7665 214.55 86.9768 213.114 88.8663C216.389 91.0053 218.328 93.2513 218.931 95.6043C219.305 96.9947 219.133 97.9394 218.414 98.4385C217.926 98.795 217.337 98.7415 216.648 98.2781C215.498 96.2103 213.617 93.893 211.002 91.3262C208.417 93.893 205.141 95.8538 201.177 97.2086L200.875 96.4064C204.179 94.6952 206.908 92.3957 209.063 89.508C207.483 88.1176 205.702 86.7986 203.719 85.5508L203.978 84.7487C206.362 85.4973 208.546 86.3708 210.528 87.369C211.649 85.5508 212.496 83.6613 213.071 81.7005H209.365C207.497 81.7362 205.299 82.0036 202.771 82.5027L201.565 79.7219C203.173 79.9358 205.127 80.0784 207.425 80.1497H213.114ZM189.714 95.2299C190.288 95.123 191.351 94.9447 192.903 94.6952C194.483 94.41 195.718 94.1961 196.609 94.0535V90.631H189.714V95.2299ZM196.609 83.1979V78.8128H189.714V83.1979H196.609ZM196.609 84.7487H189.714V89.1337H196.609V84.7487ZM198.893 77.262L199.798 75.6578C200.459 74.5526 200.875 74 201.048 74C201.335 74 202.024 74.5704 203.116 75.7112C204.208 76.852 204.754 77.6185 204.754 78.0107C204.639 78.5455 204.251 78.8128 203.59 78.8128H199.841V85.6578C199.898 90.1854 200.013 94.4813 200.186 98.5455C199.554 99.4367 198.562 99.8824 197.212 99.8824C196.695 99.8824 196.436 99.5258 196.436 98.8128C196.465 98.6346 196.48 98.4563 196.48 98.2781C196.508 98.0998 196.523 97.8859 196.523 97.6364C196.551 97.3512 196.58 97.0838 196.609 96.8342V95.2834C193.391 96.6025 189.498 98.0642 184.93 99.6685C184.758 100.346 184.428 100.738 183.939 100.845L182 96.4064C183.264 96.2995 184.787 96.0856 186.568 95.7647V78.8128H185.275C184.586 78.8485 183.91 79.098 183.25 79.5615L182.172 76.8342C183.781 77.0481 185.735 77.1907 188.033 77.262H198.893ZM183.422 108.652C185.146 107.333 186.783 105.783 188.335 104C189.886 102.182 191.064 100.381 191.869 98.5989L194.023 100.791C195.575 101.825 195.991 102.431 195.273 102.61C195.215 102.61 195.158 102.61 195.101 102.61L194.325 102.663C193.147 103.875 191.596 105.105 189.671 106.353C187.746 107.601 185.807 108.635 183.853 109.455L183.422 108.652ZM195.833 108.92C197.614 109.989 198.045 110.613 197.126 110.791L196.307 110.898C194.756 113.109 192.745 115.266 190.274 117.369C187.803 119.472 185.203 121.13 182.474 122.342L182.086 121.701C184.27 120.061 186.381 118.029 188.421 115.604C190.92 112.645 192.587 109.74 193.42 106.888L195.833 108.92ZM208.675 109.508C211.835 106.121 214.062 102.93 215.355 99.9358C217.969 102.324 219.276 103.75 219.276 104.214C219.276 104.357 219.133 104.446 218.845 104.481H218.027C215.383 106.692 212.496 108.688 209.365 110.471C212.324 114.463 216.202 117.369 221 119.187L220.957 119.775C219.52 120.061 218.558 121.273 218.07 123.412C211.232 119.348 206.75 112.538 204.624 102.984C204.452 103.055 204.179 103.18 203.806 103.358C203.432 103.501 203.145 103.608 202.944 103.679V110.096C203.001 114.446 203.116 118.617 203.288 122.61C202.541 123.537 201.464 124 200.056 124C199.798 124 199.568 123.875 199.367 123.626C199.194 123.412 199.108 123.162 199.108 122.877C199.309 119.383 199.439 115.515 199.496 111.273V104.909C197.715 105.444 195.977 105.872 194.282 106.193L194.023 105.337C196.006 104.624 198.103 103.608 200.315 102.289C203.475 100.506 205.802 98.5276 207.296 96.3529C209.767 98.8841 210.873 100.292 210.614 100.578C210.528 100.684 210.341 100.738 210.054 100.738L209.02 100.684C207.727 101.504 206.535 102.146 205.443 102.61C206.19 105.07 207.267 107.369 208.675 109.508Z" fill="white" fill-opacity="0.9"/>
<path d="M213.114 80.1497L214.062 78.7594C214.751 77.8324 215.168 77.369 215.312 77.369C215.57 77.369 216.159 77.9572 217.078 79.1337C217.998 80.3102 218.457 81.0945 218.457 81.4866C218.17 81.8788 217.596 82.1283 216.734 82.2353C215.757 84.7665 214.55 86.9768 213.114 88.8663C216.389 91.0053 218.328 93.2513 218.931 95.6043C219.305 96.9947 219.133 97.9394 218.414 98.4385C217.926 98.795 217.337 98.7415 216.648 98.2781C215.498 96.2103 213.617 93.893 211.002 91.3262C208.417 93.893 205.141 95.8538 201.177 97.2086L200.875 96.4064C204.179 94.6952 206.908 92.3957 209.063 89.508C207.483 88.1176 205.702 86.7986 203.719 85.5508L203.978 84.7487C206.362 85.4973 208.546 86.3708 210.528 87.369C211.649 85.5508 212.496 83.6613 213.071 81.7005H209.365C207.497 81.7362 205.299 82.0036 202.771 82.5027L201.565 79.7219C203.173 79.9358 205.127 80.0784 207.425 80.1497H213.114ZM189.714 95.2299C190.288 95.123 191.351 94.9447 192.903 94.6952C194.483 94.41 195.718 94.1961 196.609 94.0535V90.631H189.714V95.2299ZM196.609 83.1979V78.8128H189.714V83.1979H196.609ZM196.609 84.7487H189.714V89.1337H196.609V84.7487ZM198.893 77.262L199.798 75.6578C200.459 74.5526 200.875 74 201.048 74C201.335 74 202.024 74.5704 203.116 75.7112C204.208 76.852 204.754 77.6185 204.754 78.0107C204.639 78.5455 204.251 78.8128 203.59 78.8128H199.841V85.6578C199.898 90.1854 200.013 94.4813 200.186 98.5455C199.554 99.4367 198.562 99.8824 197.212 99.8824C196.695 99.8824 196.436 99.5258 196.436 98.8128C196.465 98.6346 196.48 98.4563 196.48 98.2781C196.508 98.0998 196.523 97.8859 196.523 97.6364C196.551 97.3512 196.58 97.0838 196.609 96.8342V95.2834C193.391 96.6025 189.498 98.0642 184.93 99.6685C184.758 100.346 184.428 100.738 183.939 100.845L182 96.4064C183.264 96.2995 184.787 96.0856 186.568 95.7647V78.8128H185.275C184.586 78.8485 183.91 79.098 183.25 79.5615L182.172 76.8342C183.781 77.0481 185.735 77.1907 188.033 77.262H198.893ZM183.422 108.652C185.146 107.333 186.783 105.783 188.335 104C189.886 102.182 191.064 100.381 191.869 98.5989L194.023 100.791C195.575 101.825 195.991 102.431 195.273 102.61C195.215 102.61 195.158 102.61 195.101 102.61L194.325 102.663C193.147 103.875 191.596 105.105 189.671 106.353C187.746 107.601 185.807 108.635 183.853 109.455L183.422 108.652ZM195.833 108.92C197.614 109.989 198.045 110.613 197.126 110.791L196.307 110.898C194.756 113.109 192.745 115.266 190.274 117.369C187.803 119.472 185.203 121.13 182.474 122.342L182.086 121.701C184.27 120.061 186.381 118.029 188.421 115.604C190.92 112.645 192.587 109.74 193.42 106.888L195.833 108.92ZM208.675 109.508C211.835 106.121 214.062 102.93 215.355 99.9358C217.969 102.324 219.276 103.75 219.276 104.214C219.276 104.357 219.133 104.446 218.845 104.481H218.027C215.383 106.692 212.496 108.688 209.365 110.471C212.324 114.463 216.202 117.369 221 119.187L220.957 119.775C219.52 120.061 218.558 121.273 218.07 123.412C211.232 119.348 206.75 112.538 204.624 102.984C204.452 103.055 204.179 103.18 203.806 103.358C203.432 103.501 203.145 103.608 202.944 103.679V110.096C203.001 114.446 203.116 118.617 203.288 122.61C202.541 123.537 201.464 124 200.056 124C199.798 124 199.568 123.875 199.367 123.626C199.194 123.412 199.108 123.162 199.108 122.877C199.309 119.383 199.439 115.515 199.496 111.273V104.909C197.715 105.444 195.977 105.872 194.282 106.193L194.023 105.337C196.006 104.624 198.103 103.608 200.315 102.289C203.475 100.506 205.802 98.5276 207.296 96.3529C209.767 98.8841 210.873 100.292 210.614 100.578C210.528 100.684 210.341 100.738 210.054 100.738L209.02 100.684C207.727 101.504 206.535 102.146 205.443 102.61C206.19 105.07 207.267 107.369 208.675 109.508Z" stroke="white" stroke-opacity="0.9" stroke-width="0.8" mask="url(#path-3-outside-2_1763_420)"/>
<path d="M156.752 61.8761L157.817 60.3317C158.634 59.302 159.148 58.7872 159.361 58.7872C159.681 58.7872 160.48 59.4263 161.758 60.7044C163.072 61.9471 163.728 62.7636 163.728 63.1542C163.338 63.6157 162.592 63.9175 161.492 64.0595C161.385 65.7282 161.137 68.5507 160.746 72.5271H164.687L165.965 70.6632C166.072 70.5212 166.196 70.3436 166.338 70.1306C166.48 69.9176 166.586 69.7401 166.657 69.5981C166.764 69.4561 166.87 69.314 166.977 69.172C167.083 69.03 167.19 68.9235 167.297 68.8525C167.403 68.7815 167.492 68.746 167.563 68.746C167.918 68.746 168.859 69.4028 170.385 70.7164C171.912 71.9946 172.675 72.8289 172.675 73.2194C172.569 73.752 172.089 74.0183 171.237 74.0183H160.586C159.486 82.4326 157.959 87.5273 156.006 89.3025C154.338 90.8292 151.959 91.5925 148.87 91.5925C148.87 90.1368 148.444 89.125 147.592 88.5569C146.349 87.7403 144.024 87.048 140.616 86.48L140.669 85.6279C147.06 86.1604 150.379 86.4267 150.628 86.4267C151.622 86.4267 152.385 86.1782 152.918 85.6811C154.196 84.6515 155.279 80.7639 156.166 74.0183H133.692C131.349 74.0538 128.615 74.32 125.491 74.8171L124 72.0478C126.414 72.3318 128.828 72.4916 131.243 72.5271H156.379C156.628 70.5744 156.894 67.5389 157.178 63.4205H137.9C137.438 65.5152 137.207 66.5803 137.207 66.6158C136.107 67.3258 134.527 67.3791 132.468 66.7755C133.71 62.8702 134.917 57.8287 136.089 51.651C136.906 47.0711 137.207 43.5207 136.994 41C141.148 41.497 143.225 41.9941 143.225 42.4911C143.261 42.6332 143.119 42.7929 142.799 42.9704L141.787 43.5563C141.006 48.1362 140.562 50.6925 140.456 51.225H158.616L159.894 49.3611C160.853 48.1185 161.438 47.4971 161.651 47.4971C162.006 47.4971 162.947 48.1362 164.474 49.4143C166.036 50.6569 166.817 51.4735 166.817 51.8641C166.64 52.4676 166.196 52.7694 165.486 52.7694H140.083C139.586 55.5387 139 58.5742 138.326 61.8761H156.752Z" fill="white" fill-opacity="0.9"/>
<path d="M137.018 40.8018C139.096 41.0505 140.664 41.2995 141.714 41.5508C142.237 41.676 142.643 41.8041 142.922 41.9375C143.061 42.0039 143.179 42.0774 143.266 42.1602C143.342 42.2329 143.404 42.3277 143.419 42.4424C143.459 42.6036 143.388 42.7455 143.295 42.8506C143.202 42.9551 143.064 43.0525 142.896 43.1455L141.968 43.6826C141.279 47.7199 140.855 50.1691 140.696 51.0254H158.511L159.729 49.248L159.735 49.2383C160.216 48.6154 160.608 48.144 160.907 47.8262C161.056 47.6679 161.187 47.5428 161.299 47.4561C161.355 47.4127 161.41 47.3749 161.464 47.3477C161.515 47.3218 161.58 47.2969 161.651 47.2969C161.789 47.2969 161.949 47.3553 162.116 47.4375C162.29 47.523 162.497 47.6484 162.735 47.8105C163.213 48.1351 163.835 48.6187 164.599 49.2578L165.15 49.7061C165.667 50.1353 166.076 50.5068 166.376 50.8203C166.576 51.029 166.732 51.2171 166.839 51.3828C166.942 51.5427 167.018 51.7075 167.018 51.8643V51.8926L167.009 51.9209C166.909 52.2587 166.73 52.5268 166.464 52.708C166.2 52.8877 165.868 52.9697 165.485 52.9697H140.25C139.771 55.6287 139.211 58.5307 138.57 61.6758H156.646L157.652 60.2178L157.66 60.207L157.954 59.8428C158.235 59.5019 158.475 59.2313 158.674 59.0322C158.806 58.9 158.925 58.7944 159.029 58.7207C159.124 58.6537 159.241 58.587 159.361 58.5869C159.496 58.5869 159.645 58.6505 159.79 58.7334C159.942 58.8205 160.122 58.9474 160.325 59.1104C160.732 59.4361 161.256 59.9204 161.896 60.5596L162.36 61.0078C162.795 61.4372 163.139 61.8092 163.392 62.123C163.56 62.3322 163.691 62.5202 163.781 62.6855C163.869 62.8466 163.929 63.0067 163.929 63.1543V63.2275L163.881 63.2832C163.462 63.7783 162.709 64.0801 161.68 64.2324C161.57 65.8901 161.333 68.5891 160.967 72.3271H164.582L165.8 70.5498L165.805 70.543C165.908 70.4049 166.031 70.2307 166.172 70.0195C166.312 69.81 166.413 69.6402 166.479 69.5088L166.486 69.4922L166.497 69.4785C166.604 69.3365 166.711 69.1938 166.817 69.0518C166.932 68.8983 167.055 68.7739 167.186 68.6865C167.302 68.6089 167.431 68.546 167.562 68.5459C167.701 68.5459 167.863 68.606 168.029 68.6904C168.203 68.7785 168.41 68.9074 168.649 69.0742C169.128 69.4083 169.75 69.9061 170.516 70.5645H170.515C171.28 71.2051 171.86 71.7394 172.25 72.166C172.445 72.3792 172.598 72.5697 172.702 72.7373C172.803 72.8992 172.875 73.0647 172.875 73.2197V73.2393L172.871 73.2588C172.806 73.5831 172.623 73.8319 172.333 73.9932C172.052 74.1495 171.68 74.2178 171.237 74.2178H160.761C160.214 78.3494 159.565 81.6805 158.808 84.207C158.043 86.76 157.16 88.5226 156.141 89.4492C154.423 91.0203 151.99 91.792 148.87 91.792H148.67V91.5928C148.67 90.1737 148.256 89.2404 147.481 88.7236V88.7227C146.277 87.9318 143.99 87.2455 140.583 86.6777L140.404 86.6475L140.416 86.4678L140.47 85.6152L140.482 85.4121L140.686 85.4287C143.881 85.695 146.308 85.8942 147.968 86.0273C149.635 86.1611 150.514 86.2266 150.628 86.2266C151.59 86.2265 152.298 85.9866 152.781 85.5352L152.786 85.5303L152.792 85.5254C153.078 85.2951 153.369 84.8895 153.659 84.2861C153.947 83.6858 154.227 82.9047 154.496 81.9395C155.022 80.0521 155.501 77.4793 155.937 74.2178H133.695C131.364 74.2531 128.64 74.5186 125.522 75.0146L125.383 75.0371L125.315 74.9121L123.824 72.1426L123.642 71.8047L124.023 71.8496C126.431 72.1328 128.839 72.2917 131.246 72.3271H156.201C156.438 70.4108 156.693 67.5094 156.963 63.6201H138.061C137.847 64.5899 137.686 65.3277 137.576 65.833C137.519 66.099 137.475 66.3006 137.446 66.4375C137.432 66.5059 137.421 66.5574 137.414 66.5928C137.411 66.6106 137.409 66.6236 137.407 66.6318V66.7246L137.315 66.7842C136.142 67.5409 134.491 67.5774 132.411 66.9678L132.215 66.9102L132.277 66.7148C133.516 62.8206 134.721 57.7884 135.892 51.6162L136.039 50.7705C136.743 46.6042 136.993 43.3553 136.795 41.0166L136.774 40.7725L137.018 40.8018Z" stroke="white" stroke-opacity="0.9" stroke-width="0.4"/>
<mask id="path-6-outside-3_1763_420" maskUnits="userSpaceOnUse" x="62.9089" y="-1.07785" width="55.5386" height="61.9475" fill="black">
<rect fill="white" x="62.9089" y="-1.07785" width="55.5386" height="61.9475"/>
<path d="M108.793 14.7552C109.161 10.2261 109.259 6.40833 109.084 3.30184C112.951 4.80604 114.864 5.81414 114.822 6.32612C114.809 6.48365 114.653 6.64935 114.354 6.82322L113.351 7.33618L111.797 26.4175C111.637 28.3867 111.166 29.7954 110.384 30.6435C109.603 31.4917 108.033 31.9586 105.675 32.0441C105.691 30.5389 105.406 29.4453 104.82 28.7633C104.067 27.9488 102.766 27.3076 100.916 26.8398L100.983 26.0128C104.22 26.5141 106.156 26.7908 106.793 26.8426C107.183 26.8743 107.453 26.8368 107.604 26.7302C107.758 26.5842 107.852 26.3143 107.884 25.9205L108.793 14.7552ZM97.9308 14.2871C98.2322 10.5851 98.2989 7.35946 98.1309 4.61031C101.86 6.06359 103.702 7.06593 103.657 7.6173C103.644 7.77483 103.488 7.94053 103.189 8.1144L102.234 8.69075L101.921 12.5306C101.655 16.6717 101.497 19.9295 101.446 22.304C101.237 22.6834 100.764 23.0216 100.027 23.3184C99.3293 23.5787 98.6088 23.6786 97.8657 23.6181C97.1933 23.5634 96.8892 23.1422 96.9533 22.3545C97.2039 21.027 97.4448 19.3815 97.6759 17.4181L97.9308 14.2871ZM87.7198 11.7312L89.0656 10.2946C89.1814 10.1851 89.3165 10.0574 89.4709 9.91135C89.6284 9.72596 89.7474 9.57707 89.8278 9.46468C89.9436 9.35517 90.0578 9.26536 90.1704 9.19524C90.2861 9.08573 90.381 9.01416 90.455 8.98054C90.5676 8.91042 90.6592 8.87824 90.73 8.884C91.0485 8.90993 91.7371 9.63996 92.7958 11.0741C93.8545 12.5082 94.3663 13.4419 94.331 13.8751C94.0512 14.2487 93.3227 14.4471 92.1453 14.4702C87.3737 23.1999 79.1028 28.3146 67.3327 29.8143L67.096 28.784C76.9808 26.3777 83.7896 21.2827 87.5224 13.4991L78.6581 12.7774C77.883 13.5468 76.8506 14.4142 75.5609 15.3796C78.4049 16.3248 80.0314 17.7853 80.4404 19.7612C80.7625 21.056 80.5086 21.9868 79.6788 22.5536C79.0001 23.0137 78.2763 22.935 77.5073 22.3173C77.2012 20.3895 76.0812 18.3953 74.1473 16.3349C72.1146 17.6759 70.1413 18.7244 68.2275 19.4804L67.7254 18.4286C72.3537 15.396 76.089 11.2996 78.9314 6.13934L75.9059 5.893C74.1333 5.78832 72.2531 5.91275 70.2652 6.26627L69.1883 3.08631C71.1507 3.48396 73.5441 3.83741 76.3686 4.14667L90.1163 5.26602L91.3173 3.63927C91.3977 3.52688 91.4974 3.39624 91.6164 3.24735C91.7708 3.10134 91.8882 2.97214 91.9686 2.85976C92.0489 2.74737 92.1293 2.63498 92.2097 2.52259C92.3287 2.3737 92.4252 2.28244 92.4992 2.24882C92.5764 2.17582 92.6519 2.12251 92.7259 2.08889C92.8385 2.01876 92.9302 1.98658 93.0009 1.99234C93.3548 2.02116 94.119 2.69787 95.2935 4.02248C96.468 5.34709 97.0376 6.22601 97.0023 6.65922C96.8449 7.28071 96.3592 7.55833 95.5453 7.49206L83.6555 6.52398C82.8581 8.00519 81.7358 9.53925 80.2886 11.1261L87.7198 11.7312ZM107.157 34.8408L108.532 33.0498C108.651 32.9009 108.789 32.7338 108.947 32.5484C109.108 32.3236 109.23 32.1353 109.313 31.9836C109.432 31.8347 109.55 31.7055 109.666 31.596C109.785 31.4471 109.9 31.3376 110.013 31.2674C110.126 31.1973 110.217 31.1651 110.288 31.1709C110.642 31.1997 111.453 31.9595 112.721 33.4503C113.992 34.9017 114.609 35.844 114.574 36.2772C114.381 36.8959 113.913 37.1749 113.17 37.1144L92.1507 35.403C93.3644 38.8716 95.1811 41.9334 97.6009 44.5884C100.904 42.0822 103.477 39.358 105.319 36.4157C108.279 38.9958 109.739 40.5418 109.697 41.0538C109.716 41.2536 109.548 41.3587 109.19 41.3693L108.23 41.3506C106.008 42.8347 102.791 44.2775 98.5807 45.6791C102.275 49.31 107.078 52.2185 112.991 54.4047L112.832 55.0459C110.999 55.2534 109.682 56.5536 108.881 58.9464C99.3839 53.9707 93.4113 46.17 90.9637 35.5442C88.8861 37.4366 86.3581 39.1733 83.3797 40.7545L82.6486 49.7339C83.4721 49.682 85.3716 49.5393 88.3472 49.3059C91.3581 49.0753 93.7225 48.911 95.4402 48.813L95.4695 49.7668C90.2425 51.4028 83.2768 53.1747 74.5724 55.0825C74.222 55.8865 73.7412 56.3231 73.13 56.3922L70.9522 50.3277C71.4154 50.3258 73.9358 50.2138 78.5133 49.9919L79.105 42.7256C74.8656 44.4816 70.2015 45.7669 65.1126 46.5816L64.818 45.6061C73.1716 43.194 79.9647 39.6042 85.1973 34.8368L75.4307 34.0416C72.8796 33.8736 70.1501 33.9288 67.2421 34.2074L66.0591 31.0188C68.0215 31.4165 70.415 31.7699 73.2395 32.0792L88.314 33.3066C88.561 30.2741 88.6391 27.7828 88.5486 25.8328C92.2805 27.2468 94.1401 28.2505 94.1274 28.8442C94.1114 29.0411 93.9538 29.2265 93.6547 29.4003L92.8104 29.9263L92.5073 33.648L107.157 34.8408Z"/>
</mask>
<path d="M108.793 14.7552C109.161 10.2261 109.259 6.40833 109.084 3.30184C112.951 4.80604 114.864 5.81414 114.822 6.32612C114.809 6.48365 114.653 6.64935 114.354 6.82322L113.351 7.33618L111.797 26.4175C111.637 28.3867 111.166 29.7954 110.384 30.6435C109.603 31.4917 108.033 31.9586 105.675 32.0441C105.691 30.5389 105.406 29.4453 104.82 28.7633C104.067 27.9488 102.766 27.3076 100.916 26.8398L100.983 26.0128C104.22 26.5141 106.156 26.7908 106.793 26.8426C107.183 26.8743 107.453 26.8368 107.604 26.7302C107.758 26.5842 107.852 26.3143 107.884 25.9205L108.793 14.7552ZM97.9308 14.2871C98.2322 10.5851 98.2989 7.35946 98.1309 4.61031C101.86 6.06359 103.702 7.06593 103.657 7.6173C103.644 7.77483 103.488 7.94053 103.189 8.1144L102.234 8.69075L101.921 12.5306C101.655 16.6717 101.497 19.9295 101.446 22.304C101.237 22.6834 100.764 23.0216 100.027 23.3184C99.3293 23.5787 98.6088 23.6786 97.8657 23.6181C97.1933 23.5634 96.8892 23.1422 96.9533 22.3545C97.2039 21.027 97.4448 19.3815 97.6759 17.4181L97.9308 14.2871ZM87.7198 11.7312L89.0656 10.2946C89.1814 10.1851 89.3165 10.0574 89.4709 9.91135C89.6284 9.72596 89.7474 9.57707 89.8278 9.46468C89.9436 9.35517 90.0578 9.26536 90.1704 9.19524C90.2861 9.08573 90.381 9.01416 90.455 8.98054C90.5676 8.91042 90.6592 8.87824 90.73 8.884C91.0485 8.90993 91.7371 9.63996 92.7958 11.0741C93.8545 12.5082 94.3663 13.4419 94.331 13.8751C94.0512 14.2487 93.3227 14.4471 92.1453 14.4702C87.3737 23.1999 79.1028 28.3146 67.3327 29.8143L67.096 28.784C76.9808 26.3777 83.7896 21.2827 87.5224 13.4991L78.6581 12.7774C77.883 13.5468 76.8506 14.4142 75.5609 15.3796C78.4049 16.3248 80.0314 17.7853 80.4404 19.7612C80.7625 21.056 80.5086 21.9868 79.6788 22.5536C79.0001 23.0137 78.2763 22.935 77.5073 22.3173C77.2012 20.3895 76.0812 18.3953 74.1473 16.3349C72.1146 17.6759 70.1413 18.7244 68.2275 19.4804L67.7254 18.4286C72.3537 15.396 76.089 11.2996 78.9314 6.13934L75.9059 5.893C74.1333 5.78832 72.2531 5.91275 70.2652 6.26627L69.1883 3.08631C71.1507 3.48396 73.5441 3.83741 76.3686 4.14667L90.1163 5.26602L91.3173 3.63927C91.3977 3.52688 91.4974 3.39624 91.6164 3.24735C91.7708 3.10134 91.8882 2.97214 91.9686 2.85976C92.0489 2.74737 92.1293 2.63498 92.2097 2.52259C92.3287 2.3737 92.4252 2.28244 92.4992 2.24882C92.5764 2.17582 92.6519 2.12251 92.7259 2.08889C92.8385 2.01876 92.9302 1.98658 93.0009 1.99234C93.3548 2.02116 94.119 2.69787 95.2935 4.02248C96.468 5.34709 97.0376 6.22601 97.0023 6.65922C96.8449 7.28071 96.3592 7.55833 95.5453 7.49206L83.6555 6.52398C82.8581 8.00519 81.7358 9.53925 80.2886 11.1261L87.7198 11.7312ZM107.157 34.8408L108.532 33.0498C108.651 32.9009 108.789 32.7338 108.947 32.5484C109.108 32.3236 109.23 32.1353 109.313 31.9836C109.432 31.8347 109.55 31.7055 109.666 31.596C109.785 31.4471 109.9 31.3376 110.013 31.2674C110.126 31.1973 110.217 31.1651 110.288 31.1709C110.642 31.1997 111.453 31.9595 112.721 33.4503C113.992 34.9017 114.609 35.844 114.574 36.2772C114.381 36.8959 113.913 37.1749 113.17 37.1144L92.1507 35.403C93.3644 38.8716 95.1811 41.9334 97.6009 44.5884C100.904 42.0822 103.477 39.358 105.319 36.4157C108.279 38.9958 109.739 40.5418 109.697 41.0538C109.716 41.2536 109.548 41.3587 109.19 41.3693L108.23 41.3506C106.008 42.8347 102.791 44.2775 98.5807 45.6791C102.275 49.31 107.078 52.2185 112.991 54.4047L112.832 55.0459C110.999 55.2534 109.682 56.5536 108.881 58.9464C99.3839 53.9707 93.4113 46.17 90.9637 35.5442C88.8861 37.4366 86.3581 39.1733 83.3797 40.7545L82.6486 49.7339C83.4721 49.682 85.3716 49.5393 88.3472 49.3059C91.3581 49.0753 93.7225 48.911 95.4402 48.813L95.4695 49.7668C90.2425 51.4028 83.2768 53.1747 74.5724 55.0825C74.222 55.8865 73.7412 56.3231 73.13 56.3922L70.9522 50.3277C71.4154 50.3258 73.9358 50.2138 78.5133 49.9919L79.105 42.7256C74.8656 44.4816 70.2015 45.7669 65.1126 46.5816L64.818 45.6061C73.1716 43.194 79.9647 39.6042 85.1973 34.8368L75.4307 34.0416C72.8796 33.8736 70.1501 33.9288 67.2421 34.2074L66.0591 31.0188C68.0215 31.4165 70.415 31.7699 73.2395 32.0792L88.314 33.3066C88.561 30.2741 88.6391 27.7828 88.5486 25.8328C92.2805 27.2468 94.1401 28.2505 94.1274 28.8442C94.1114 29.0411 93.9538 29.2265 93.6547 29.4003L92.8104 29.9263L92.5073 33.648L107.157 34.8408Z" fill="white" fill-opacity="0.9"/>
<path d="M108.793 14.7552C109.161 10.2261 109.259 6.40833 109.084 3.30184C112.951 4.80604 114.864 5.81414 114.822 6.32612C114.809 6.48365 114.653 6.64935 114.354 6.82322L113.351 7.33618L111.797 26.4175C111.637 28.3867 111.166 29.7954 110.384 30.6435C109.603 31.4917 108.033 31.9586 105.675 32.0441C105.691 30.5389 105.406 29.4453 104.82 28.7633C104.067 27.9488 102.766 27.3076 100.916 26.8398L100.983 26.0128C104.22 26.5141 106.156 26.7908 106.793 26.8426C107.183 26.8743 107.453 26.8368 107.604 26.7302C107.758 26.5842 107.852 26.3143 107.884 25.9205L108.793 14.7552ZM97.9308 14.2871C98.2322 10.5851 98.2989 7.35946 98.1309 4.61031C101.86 6.06359 103.702 7.06593 103.657 7.6173C103.644 7.77483 103.488 7.94053 103.189 8.1144L102.234 8.69075L101.921 12.5306C101.655 16.6717 101.497 19.9295 101.446 22.304C101.237 22.6834 100.764 23.0216 100.027 23.3184C99.3293 23.5787 98.6088 23.6786 97.8657 23.6181C97.1933 23.5634 96.8892 23.1422 96.9533 22.3545C97.2039 21.027 97.4448 19.3815 97.6759 17.4181L97.9308 14.2871ZM87.7198 11.7312L89.0656 10.2946C89.1814 10.1851 89.3165 10.0574 89.4709 9.91135C89.6284 9.72596 89.7474 9.57707 89.8278 9.46468C89.9436 9.35517 90.0578 9.26536 90.1704 9.19524C90.2861 9.08573 90.381 9.01416 90.455 8.98054C90.5676 8.91042 90.6592 8.87824 90.73 8.884C91.0485 8.90993 91.7371 9.63996 92.7958 11.0741C93.8545 12.5082 94.3663 13.4419 94.331 13.8751C94.0512 14.2487 93.3227 14.4471 92.1453 14.4702C87.3737 23.1999 79.1028 28.3146 67.3327 29.8143L67.096 28.784C76.9808 26.3777 83.7896 21.2827 87.5224 13.4991L78.6581 12.7774C77.883 13.5468 76.8506 14.4142 75.5609 15.3796C78.4049 16.3248 80.0314 17.7853 80.4404 19.7612C80.7625 21.056 80.5086 21.9868 79.6788 22.5536C79.0001 23.0137 78.2763 22.935 77.5073 22.3173C77.2012 20.3895 76.0812 18.3953 74.1473 16.3349C72.1146 17.6759 70.1413 18.7244 68.2275 19.4804L67.7254 18.4286C72.3537 15.396 76.089 11.2996 78.9314 6.13934L75.9059 5.893C74.1333 5.78832 72.2531 5.91275 70.2652 6.26627L69.1883 3.08631C71.1507 3.48396 73.5441 3.83741 76.3686 4.14667L90.1163 5.26602L91.3173 3.63927C91.3977 3.52688 91.4974 3.39624 91.6164 3.24735C91.7708 3.10134 91.8882 2.97214 91.9686 2.85976C92.0489 2.74737 92.1293 2.63498 92.2097 2.52259C92.3287 2.3737 92.4252 2.28244 92.4992 2.24882C92.5764 2.17582 92.6519 2.12251 92.7259 2.08889C92.8385 2.01876 92.9302 1.98658 93.0009 1.99234C93.3548 2.02116 94.119 2.69787 95.2935 4.02248C96.468 5.34709 97.0376 6.22601 97.0023 6.65922C96.8449 7.28071 96.3592 7.55833 95.5453 7.49206L83.6555 6.52398C82.8581 8.00519 81.7358 9.53925 80.2886 11.1261L87.7198 11.7312ZM107.157 34.8408L108.532 33.0498C108.651 32.9009 108.789 32.7338 108.947 32.5484C109.108 32.3236 109.23 32.1353 109.313 31.9836C109.432 31.8347 109.55 31.7055 109.666 31.596C109.785 31.4471 109.9 31.3376 110.013 31.2674C110.126 31.1973 110.217 31.1651 110.288 31.1709C110.642 31.1997 111.453 31.9595 112.721 33.4503C113.992 34.9017 114.609 35.844 114.574 36.2772C114.381 36.8959 113.913 37.1749 113.17 37.1144L92.1507 35.403C93.3644 38.8716 95.1811 41.9334 97.6009 44.5884C100.904 42.0822 103.477 39.358 105.319 36.4157C108.279 38.9958 109.739 40.5418 109.697 41.0538C109.716 41.2536 109.548 41.3587 109.19 41.3693L108.23 41.3506C106.008 42.8347 102.791 44.2775 98.5807 45.6791C102.275 49.31 107.078 52.2185 112.991 54.4047L112.832 55.0459C110.999 55.2534 109.682 56.5536 108.881 58.9464C99.3839 53.9707 93.4113 46.17 90.9637 35.5442C88.8861 37.4366 86.3581 39.1733 83.3797 40.7545L82.6486 49.7339C83.4721 49.682 85.3716 49.5393 88.3472 49.3059C91.3581 49.0753 93.7225 48.911 95.4402 48.813L95.4695 49.7668C90.2425 51.4028 83.2768 53.1747 74.5724 55.0825C74.222 55.8865 73.7412 56.3231 73.13 56.3922L70.9522 50.3277C71.4154 50.3258 73.9358 50.2138 78.5133 49.9919L79.105 42.7256C74.8656 44.4816 70.2015 45.7669 65.1126 46.5816L64.818 45.6061C73.1716 43.194 79.9647 39.6042 85.1973 34.8368L75.4307 34.0416C72.8796 33.8736 70.1501 33.9288 67.2421 34.2074L66.0591 31.0188C68.0215 31.4165 70.415 31.7699 73.2395 32.0792L88.314 33.3066C88.561 30.2741 88.6391 27.7828 88.5486 25.8328C92.2805 27.2468 94.1401 28.2505 94.1274 28.8442C94.1114 29.0411 93.9538 29.2265 93.6547 29.4003L92.8104 29.9263L92.5073 33.648L107.157 34.8408Z" stroke="white" stroke-opacity="0.9" stroke-width="0.8" mask="url(#path-6-outside-3_1763_420)"/>
<mask id="path-7-outside-4_1763_420" maskUnits="userSpaceOnUse" x="-1.21765" y="38.8159" width="63.3746" height="70.5671" fill="black">
<rect fill="white" x="-1.21765" y="38.8159" width="63.3746" height="70.5671"/>
<path d="M41.2207 50.3886L41.8376 48.1873C41.8975 48.0016 41.969 47.7917 42.0522 47.5576C42.1353 47.3234 42.1952 47.1378 42.2316 47.0007C42.2914 46.8151 42.3564 46.6495 42.4265 46.5038C42.4863 46.3181 42.5447 46.1967 42.6017 46.1395C42.6821 46.0337 42.7559 45.9722 42.8231 45.9549C43.1595 45.8683 44.153 46.3148 45.8036 47.2944C47.4776 48.2254 48.371 48.9104 48.484 49.3495C48.4904 50.0713 48.1405 50.523 47.4342 50.7048L29.3225 55.3652C26.8439 56.0456 24.326 56.9914 21.7688 58.2026L19.6056 55.4399C21.5507 55.1948 23.8957 54.7616 26.6405 54.1404L31.5342 52.8811C30.6202 49.329 29.7616 46.5498 28.9585 44.5436C33.0233 44.7317 35.1327 45.1251 35.2868 45.7238C35.3278 45.8835 35.2279 46.122 34.9868 46.4393L34.2986 47.3186L35.4694 51.8686L41.2207 50.3886ZM37.5214 74.8946C38.7905 72.4403 39.558 69.2214 39.824 65.238C40.0899 61.2545 39.7257 57.5395 38.7313 54.0931C42.8167 54.3611 44.9261 54.7545 45.0596 55.2734C45.0904 55.3931 44.9867 55.5475 44.7484 55.7365L43.9832 56.3163C43.9801 57.9768 43.8486 59.9043 43.5885 62.099C47.642 62.8007 50.4332 64.3804 51.9622 66.8382C52.9214 68.3361 53.122 69.6037 52.5641 70.6409C52.0763 71.5324 51.242 71.7045 50.0612 71.1572C48.7341 68.6476 46.4863 66.1833 43.3178 63.7645C42.4397 68.714 40.7257 72.6445 38.1758 75.5561L37.5214 74.8946ZM14.2368 74.5029L19.6286 95.4568L25.1277 94.0418L19.7359 73.0879L14.2368 74.5029ZM14.9618 53.6986L15.5788 51.4972C15.6152 51.3601 15.6582 51.1789 15.7078 50.9533C15.791 50.7192 15.8508 50.5335 15.8873 50.3965C15.9573 50.2508 16.0106 50.1094 16.0471 49.9724C16.1069 49.7868 16.1602 49.6454 16.2069 49.5483C16.2536 49.4511 16.3055 49.3739 16.3625 49.3167C16.4428 49.2109 16.5167 49.1494 16.5839 49.1321C16.9203 49.0455 17.8969 49.4964 19.5139 50.4846C21.1645 51.4642 22.0463 52.1735 22.1593 52.6125C22.1657 53.3343 21.799 53.7904 21.059 53.9808L12.5834 56.1617C13.3439 61.6258 13.6481 67.0584 13.4958 72.4595L14.4109 72.6709L18.8001 71.5414L19.3539 69.9308C19.8006 68.8796 20.108 68.3324 20.2762 68.2892C20.6125 68.2026 21.4963 68.571 22.9274 69.3943C24.3818 70.169 25.1655 70.7759 25.2785 71.2149C25.1196 71.8516 24.5548 72.4437 23.584 72.9914L26.3415 83.7078C27.7131 88.7594 29.0852 93.5341 30.4578 98.0322C30.3148 98.452 29.9363 98.9324 29.3225 99.4733C28.7189 100.054 28.1144 100.423 27.509 100.578C26.9372 100.725 26.5486 100.4 26.3432 99.6016L26.0212 97.5142L25.5899 95.8379L20.0908 97.2529L20.6146 99.2884C21.3111 101.577 21.7019 102.817 21.7869 103.008C21.7887 103.433 21.5331 103.903 21.0201 104.418C20.5072 104.933 19.8639 105.29 19.0903 105.489C18.7876 105.567 18.4877 105.517 18.1907 105.338C17.9273 105.15 17.7545 104.897 17.6723 104.578C16.596 99.2799 15.5215 94.4072 14.4488 89.9597L12.4307 82.1169C11.7781 85.4339 11.1592 87.9762 10.5741 89.7439L9.63247 89.2202C10.9801 80.6603 10.6352 69.9827 8.5978 57.1873L6.52933 57.7195C5.5306 58.0191 4.47576 58.5884 3.36483 59.4275L1.21701 56.7247C3.16211 56.4795 5.49027 56.0507 8.2015 55.4381L14.9618 53.6986ZM26.2776 80.5327C27.1469 77.5003 27.5791 73.8145 27.5742 69.4752C27.5926 65.0873 27.0687 61.0305 26.0024 57.3047C30.1111 57.5241 32.2322 57.8932 32.3657 58.4121C32.4068 58.5717 32.2914 58.7504 32.0195 58.948L31.2697 59.5878C31.2687 60.1412 31.2109 62.0072 31.0965 65.1857C34.3335 65.5018 36.4596 66.6569 37.4748 68.6511C38.1267 69.9302 38.1144 70.9972 37.4379 71.8522C36.852 72.6413 36.0191 72.7492 34.9392 72.176C34.3294 70.503 33.0036 68.6952 30.9617 66.7524C30.4777 72.5367 29.163 77.322 27.0174 81.1083L26.2776 80.5327ZM43.1103 81.5632L49.4166 79.9405L50.0182 77.6792C50.0546 77.5422 50.0976 77.3609 50.1472 77.1354C50.2304 76.9012 50.2902 76.7156 50.3266 76.5785C50.3967 76.4328 50.45 76.2915 50.4865 76.1544C50.5463 75.9688 50.5995 75.8274 50.6463 75.7303C50.693 75.6332 50.7449 75.556 50.8019 75.4988C50.8822 75.393 50.956 75.3314 51.0233 75.3141C51.3596 75.2276 52.3414 75.6984 53.9687 76.7265C55.6296 77.746 56.5165 78.4753 56.6295 78.9143C56.6929 79.5789 56.3378 80.0107 55.5643 80.2097L43.5571 83.2994L44.8511 88.3283C45.9865 92.4619 46.9244 95.6887 47.6649 98.0089C47.5994 98.4513 47.2429 98.9473 46.5954 99.4969C45.9918 100.078 45.32 100.463 44.5801 100.654C44.2437 100.74 43.9387 100.67 43.665 100.442C43.4016 100.255 43.2288 100.002 43.1467 99.6822C42.5166 96.3974 41.8192 93.1299 41.0546 89.8797L39.6219 84.312L35.8886 85.2726C33.9481 85.8145 31.7549 86.698 29.3089 87.9232L27.1457 85.1605C29.0908 84.9154 31.4189 84.4865 34.1302 83.874L39.1752 82.5758C38.4563 79.7819 37.7429 77.4973 37.035 75.7219C41.1774 75.9327 43.3256 76.3374 43.4796 76.9361C43.531 77.1356 43.4193 77.3984 43.1446 77.7245L42.3863 78.7494L43.1103 81.5632Z"/>
</mask>
<path d="M41.2207 50.3886L41.8376 48.1873C41.8975 48.0016 41.969 47.7917 42.0522 47.5576C42.1353 47.3234 42.1952 47.1378 42.2316 47.0007C42.2914 46.8151 42.3564 46.6495 42.4265 46.5038C42.4863 46.3181 42.5447 46.1967 42.6017 46.1395C42.6821 46.0337 42.7559 45.9722 42.8231 45.9549C43.1595 45.8683 44.153 46.3148 45.8036 47.2944C47.4776 48.2254 48.371 48.9104 48.484 49.3495C48.4904 50.0713 48.1405 50.523 47.4342 50.7048L29.3225 55.3652C26.8439 56.0456 24.326 56.9914 21.7688 58.2026L19.6056 55.4399C21.5507 55.1948 23.8957 54.7616 26.6405 54.1404L31.5342 52.8811C30.6202 49.329 29.7616 46.5498 28.9585 44.5436C33.0233 44.7317 35.1327 45.1251 35.2868 45.7238C35.3278 45.8835 35.2279 46.122 34.9868 46.4393L34.2986 47.3186L35.4694 51.8686L41.2207 50.3886ZM37.5214 74.8946C38.7905 72.4403 39.558 69.2214 39.824 65.238C40.0899 61.2545 39.7257 57.5395 38.7313 54.0931C42.8167 54.3611 44.9261 54.7545 45.0596 55.2734C45.0904 55.3931 44.9867 55.5475 44.7484 55.7365L43.9832 56.3163C43.9801 57.9768 43.8486 59.9043 43.5885 62.099C47.642 62.8007 50.4332 64.3804 51.9622 66.8382C52.9214 68.3361 53.122 69.6037 52.5641 70.6409C52.0763 71.5324 51.242 71.7045 50.0612 71.1572C48.7341 68.6476 46.4863 66.1833 43.3178 63.7645C42.4397 68.714 40.7257 72.6445 38.1758 75.5561L37.5214 74.8946ZM14.2368 74.5029L19.6286 95.4568L25.1277 94.0418L19.7359 73.0879L14.2368 74.5029ZM14.9618 53.6986L15.5788 51.4972C15.6152 51.3601 15.6582 51.1789 15.7078 50.9533C15.791 50.7192 15.8508 50.5335 15.8873 50.3965C15.9573 50.2508 16.0106 50.1094 16.0471 49.9724C16.1069 49.7868 16.1602 49.6454 16.2069 49.5483C16.2536 49.4511 16.3055 49.3739 16.3625 49.3167C16.4428 49.2109 16.5167 49.1494 16.5839 49.1321C16.9203 49.0455 17.8969 49.4964 19.5139 50.4846C21.1645 51.4642 22.0463 52.1735 22.1593 52.6125C22.1657 53.3343 21.799 53.7904 21.059 53.9808L12.5834 56.1617C13.3439 61.6258 13.6481 67.0584 13.4958 72.4595L14.4109 72.6709L18.8001 71.5414L19.3539 69.9308C19.8006 68.8796 20.108 68.3324 20.2762 68.2892C20.6125 68.2026 21.4963 68.571 22.9274 69.3943C24.3818 70.169 25.1655 70.7759 25.2785 71.2149C25.1196 71.8516 24.5548 72.4437 23.584 72.9914L26.3415 83.7078C27.7131 88.7594 29.0852 93.5341 30.4578 98.0322C30.3148 98.452 29.9363 98.9324 29.3225 99.4733C28.7189 100.054 28.1144 100.423 27.509 100.578C26.9372 100.725 26.5486 100.4 26.3432 99.6016L26.0212 97.5142L25.5899 95.8379L20.0908 97.2529L20.6146 99.2884C21.3111 101.577 21.7019 102.817 21.7869 103.008C21.7887 103.433 21.5331 103.903 21.0201 104.418C20.5072 104.933 19.8639 105.29 19.0903 105.489C18.7876 105.567 18.4877 105.517 18.1907 105.338C17.9273 105.15 17.7545 104.897 17.6723 104.578C16.596 99.2799 15.5215 94.4072 14.4488 89.9597L12.4307 82.1169C11.7781 85.4339 11.1592 87.9762 10.5741 89.7439L9.63247 89.2202C10.9801 80.6603 10.6352 69.9827 8.5978 57.1873L6.52933 57.7195C5.5306 58.0191 4.47576 58.5884 3.36483 59.4275L1.21701 56.7247C3.16211 56.4795 5.49027 56.0507 8.2015 55.4381L14.9618 53.6986ZM26.2776 80.5327C27.1469 77.5003 27.5791 73.8145 27.5742 69.4752C27.5926 65.0873 27.0687 61.0305 26.0024 57.3047C30.1111 57.5241 32.2322 57.8932 32.3657 58.4121C32.4068 58.5717 32.2914 58.7504 32.0195 58.948L31.2697 59.5878C31.2687 60.1412 31.2109 62.0072 31.0965 65.1857C34.3335 65.5018 36.4596 66.6569 37.4748 68.6511C38.1267 69.9302 38.1144 70.9972 37.4379 71.8522C36.852 72.6413 36.0191 72.7492 34.9392 72.176C34.3294 70.503 33.0036 68.6952 30.9617 66.7524C30.4777 72.5367 29.163 77.322 27.0174 81.1083L26.2776 80.5327ZM43.1103 81.5632L49.4166 79.9405L50.0182 77.6792C50.0546 77.5422 50.0976 77.3609 50.1472 77.1354C50.2304 76.9012 50.2902 76.7156 50.3266 76.5785C50.3967 76.4328 50.45 76.2915 50.4865 76.1544C50.5463 75.9688 50.5995 75.8274 50.6463 75.7303C50.693 75.6332 50.7449 75.556 50.8019 75.4988C50.8822 75.393 50.956 75.3314 51.0233 75.3141C51.3596 75.2276 52.3414 75.6984 53.9687 76.7265C55.6296 77.746 56.5165 78.4753 56.6295 78.9143C56.6929 79.5789 56.3378 80.0107 55.5643 80.2097L43.5571 83.2994L44.8511 88.3283C45.9865 92.4619 46.9244 95.6887 47.6649 98.0089C47.5994 98.4513 47.2429 98.9473 46.5954 99.4969C45.9918 100.078 45.32 100.463 44.5801 100.654C44.2437 100.74 43.9387 100.67 43.665 100.442C43.4016 100.255 43.2288 100.002 43.1467 99.6822C42.5166 96.3974 41.8192 93.1299 41.0546 89.8797L39.6219 84.312L35.8886 85.2726C33.9481 85.8145 31.7549 86.698 29.3089 87.9232L27.1457 85.1605C29.0908 84.9154 31.4189 84.4865 34.1302 83.874L39.1752 82.5758C38.4563 79.7819 37.7429 77.4973 37.035 75.7219C41.1774 75.9327 43.3256 76.3374 43.4796 76.9361C43.531 77.1356 43.4193 77.3984 43.1446 77.7245L42.3863 78.7494L43.1103 81.5632Z" fill="white" fill-opacity="0.9"/>
<path d="M41.2207 50.3886L41.8376 48.1873C41.8975 48.0016 41.969 47.7917 42.0522 47.5576C42.1353 47.3234 42.1952 47.1378 42.2316 47.0007C42.2914 46.8151 42.3564 46.6495 42.4265 46.5038C42.4863 46.3181 42.5447 46.1967 42.6017 46.1395C42.6821 46.0337 42.7559 45.9722 42.8231 45.9549C43.1595 45.8683 44.153 46.3148 45.8036 47.2944C47.4776 48.2254 48.371 48.9104 48.484 49.3495C48.4904 50.0713 48.1405 50.523 47.4342 50.7048L29.3225 55.3652C26.8439 56.0456 24.326 56.9914 21.7688 58.2026L19.6056 55.4399C21.5507 55.1948 23.8957 54.7616 26.6405 54.1404L31.5342 52.8811C30.6202 49.329 29.7616 46.5498 28.9585 44.5436C33.0233 44.7317 35.1327 45.1251 35.2868 45.7238C35.3278 45.8835 35.2279 46.122 34.9868 46.4393L34.2986 47.3186L35.4694 51.8686L41.2207 50.3886ZM37.5214 74.8946C38.7905 72.4403 39.558 69.2214 39.824 65.238C40.0899 61.2545 39.7257 57.5395 38.7313 54.0931C42.8167 54.3611 44.9261 54.7545 45.0596 55.2734C45.0904 55.3931 44.9867 55.5475 44.7484 55.7365L43.9832 56.3163C43.9801 57.9768 43.8486 59.9043 43.5885 62.099C47.642 62.8007 50.4332 64.3804 51.9622 66.8382C52.9214 68.3361 53.122 69.6037 52.5641 70.6409C52.0763 71.5324 51.242 71.7045 50.0612 71.1572C48.7341 68.6476 46.4863 66.1833 43.3178 63.7645C42.4397 68.714 40.7257 72.6445 38.1758 75.5561L37.5214 74.8946ZM14.2368 74.5029L19.6286 95.4568L25.1277 94.0418L19.7359 73.0879L14.2368 74.5029ZM14.9618 53.6986L15.5788 51.4972C15.6152 51.3601 15.6582 51.1789 15.7078 50.9533C15.791 50.7192 15.8508 50.5335 15.8873 50.3965C15.9573 50.2508 16.0106 50.1094 16.0471 49.9724C16.1069 49.7868 16.1602 49.6454 16.2069 49.5483C16.2536 49.4511 16.3055 49.3739 16.3625 49.3167C16.4428 49.2109 16.5167 49.1494 16.5839 49.1321C16.9203 49.0455 17.8969 49.4964 19.5139 50.4846C21.1645 51.4642 22.0463 52.1735 22.1593 52.6125C22.1657 53.3343 21.799 53.7904 21.059 53.9808L12.5834 56.1617C13.3439 61.6258 13.6481 67.0584 13.4958 72.4595L14.4109 72.6709L18.8001 71.5414L19.3539 69.9308C19.8006 68.8796 20.108 68.3324 20.2762 68.2892C20.6125 68.2026 21.4963 68.571 22.9274 69.3943C24.3818 70.169 25.1655 70.7759 25.2785 71.2149C25.1196 71.8516 24.5548 72.4437 23.584 72.9914L26.3415 83.7078C27.7131 88.7594 29.0852 93.5341 30.4578 98.0322C30.3148 98.452 29.9363 98.9324 29.3225 99.4733C28.7189 100.054 28.1144 100.423 27.509 100.578C26.9372 100.725 26.5486 100.4 26.3432 99.6016L26.0212 97.5142L25.5899 95.8379L20.0908 97.2529L20.6146 99.2884C21.3111 101.577 21.7019 102.817 21.7869 103.008C21.7887 103.433 21.5331 103.903 21.0201 104.418C20.5072 104.933 19.8639 105.29 19.0903 105.489C18.7876 105.567 18.4877 105.517 18.1907 105.338C17.9273 105.15 17.7545 104.897 17.6723 104.578C16.596 99.2799 15.5215 94.4072 14.4488 89.9597L12.4307 82.1169C11.7781 85.4339 11.1592 87.9762 10.5741 89.7439L9.63247 89.2202C10.9801 80.6603 10.6352 69.9827 8.5978 57.1873L6.52933 57.7195C5.5306 58.0191 4.47576 58.5884 3.36483 59.4275L1.21701 56.7247C3.16211 56.4795 5.49027 56.0507 8.2015 55.4381L14.9618 53.6986ZM26.2776 80.5327C27.1469 77.5003 27.5791 73.8145 27.5742 69.4752C27.5926 65.0873 27.0687 61.0305 26.0024 57.3047C30.1111 57.5241 32.2322 57.8932 32.3657 58.4121C32.4068 58.5717 32.2914 58.7504 32.0195 58.948L31.2697 59.5878C31.2687 60.1412 31.2109 62.0072 31.0965 65.1857C34.3335 65.5018 36.4596 66.6569 37.4748 68.6511C38.1267 69.9302 38.1144 70.9972 37.4379 71.8522C36.852 72.6413 36.0191 72.7492 34.9392 72.176C34.3294 70.503 33.0036 68.6952 30.9617 66.7524C30.4777 72.5367 29.163 77.322 27.0174 81.1083L26.2776 80.5327ZM43.1103 81.5632L49.4166 79.9405L50.0182 77.6792C50.0546 77.5422 50.0976 77.3609 50.1472 77.1354C50.2304 76.9012 50.2902 76.7156 50.3266 76.5785C50.3967 76.4328 50.45 76.2915 50.4865 76.1544C50.5463 75.9688 50.5995 75.8274 50.6463 75.7303C50.693 75.6332 50.7449 75.556 50.8019 75.4988C50.8822 75.393 50.956 75.3314 51.0233 75.3141C51.3596 75.2276 52.3414 75.6984 53.9687 76.7265C55.6296 77.746 56.5165 78.4753 56.6295 78.9143C56.6929 79.5789 56.3378 80.0107 55.5643 80.2097L43.5571 83.2994L44.8511 88.3283C45.9865 92.4619 46.9244 95.6887 47.6649 98.0089C47.5994 98.4513 47.2429 98.9473 46.5954 99.4969C45.9918 100.078 45.32 100.463 44.5801 100.654C44.2437 100.74 43.9387 100.67 43.665 100.442C43.4016 100.255 43.2288 100.002 43.1467 99.6822C42.5166 96.3974 41.8192 93.1299 41.0546 89.8797L39.6219 84.312L35.8886 85.2726C33.9481 85.8145 31.7549 86.698 29.3089 87.9232L27.1457 85.1605C29.0908 84.9154 31.4189 84.4865 34.1302 83.874L39.1752 82.5758C38.4563 79.7819 37.7429 77.4973 37.035 75.7219C41.1774 75.9327 43.3256 76.3374 43.4796 76.9361C43.531 77.1356 43.4193 77.3984 43.1446 77.7245L42.3863 78.7494L43.1103 81.5632Z" stroke="white" stroke-opacity="0.9" stroke-width="0.8" mask="url(#path-7-outside-4_1763_420)"/>
<defs>
<filter id="filter0_d_1763_420" x="8.46582" y="131.971" width="259.635" height="45.4775" filterUnits="userSpaceOnUse" color-interpolation-filters="sRGB">
<feFlood flood-opacity="0" result="BackgroundImageFix"/>
<feColorMatrix in="SourceAlpha" type="matrix" values="0 0 0 0 0 0 0 0 0 0 0 0 0 0 0 0 0 0 127 0" result="hardAlpha"/>
<feOffset/>
<feGaussianBlur stdDeviation="1"/>
<feComposite in2="hardAlpha" operator="out"/>
<feColorMatrix type="matrix" values="0 0 0 0 0 0 0 0 0 0 0 0 0 0 0 0 0 0 0.25 0"/>
<feBlend mode="normal" in2="BackgroundImageFix" result="effect1_dropShadow_1763_420"/>
<feBlend mode="normal" in="SourceGraphic" in2="effect1_dropShadow_1763_420" result="shape"/>
</filter>
</defs>
</svg>
