<svg width="295" height="58" viewBox="0 0 295 58" fill="none" xmlns="http://www.w3.org/2000/svg">
<path d="M3.67931 0.415507C4.9473 1.28855 5.87924 2.05419 6.47513 2.71244L5.92428 3.28407C5.28682 2.56347 4.36874 1.77704 3.17004 0.924782L3.67931 0.415507ZM8.20042 3.43997C8.88638 4.84654 9.35062 6.14571 9.59313 7.33748L8.83442 7.63889C8.59883 6.41247 8.14846 5.10637 7.48328 3.72059L8.20042 3.43997ZM1.77733 3.85571C1.68033 4.57631 1.55907 5.2692 1.41356 5.93438C1.24034 6.75892 1.05672 7.42409 0.862716 7.9299L0.0936075 7.60771C0.530128 6.5753 0.841929 5.27613 1.02901 3.7102L1.77733 3.85571ZM3.46105 2.9307V8.05462C3.46105 8.2902 3.50609 8.4461 3.59617 8.52232C3.68624 8.59161 3.88025 8.62626 4.1782 8.62626H6.16333C6.48206 8.62626 6.68992 8.49114 6.78693 8.22092C6.877 7.97148 6.94283 7.38945 6.9844 6.47483C7.07448 6.54412 7.19227 6.60995 7.33777 6.67231C7.46942 6.73467 7.59414 6.78317 7.71194 6.81781C7.6565 7.82943 7.53525 8.49807 7.34817 8.82373C7.14723 9.1771 6.76614 9.35379 6.2049 9.35379H4.11584C3.55459 9.35379 3.17697 9.26372 2.98296 9.08356C2.78202 8.90341 2.68155 8.55697 2.68155 8.04423V2.9307H3.46105ZM18.5314 8.5535C18.7878 8.5535 18.9541 8.45303 19.0303 8.2521C19.0996 8.06502 19.1516 7.61464 19.1862 6.90096C19.2693 6.96332 19.3871 7.02568 19.5396 7.08804C19.6781 7.1504 19.8063 7.19544 19.9241 7.22315C19.8687 8.06155 19.7578 8.61586 19.5915 8.88609C19.4114 9.16325 19.0753 9.30182 18.5834 9.30182H16.6502C16.1167 9.30182 15.7564 9.21868 15.5693 9.05238C15.3892 8.88609 15.2991 8.57083 15.2991 8.10659V4.56246H15.0808C14.5681 6.98757 13.1927 8.65051 10.9547 9.55126C10.8923 9.4404 10.8161 9.32954 10.726 9.21868C10.6221 9.08703 10.5251 8.98656 10.435 8.91727C12.4998 8.1343 13.792 6.6827 14.3117 4.56246H10.5701V3.80374H14.4468C14.5023 3.46422 14.5438 3.07621 14.5715 2.63969L14.6131 2.06805L14.6339 1.50681H11.2145V0.758488H19.2382V1.50681H15.3926C15.3718 2.35906 15.3095 3.12471 15.2055 3.80374H19.8306V4.56246H16.089V8.10659C16.089 8.28674 16.1271 8.408 16.2033 8.47036C16.2865 8.52579 16.4597 8.5535 16.723 8.5535H18.5314ZM22.4497 4.61442C22.0755 4.27491 21.5386 3.94232 20.8387 3.61666L21.2129 3.04503C21.8989 3.33604 22.4428 3.64438 22.8447 3.97003L22.4497 4.61442ZM21.0466 8.93806C21.6078 7.92644 22.1102 6.85592 22.5536 5.72651L23.1253 6.14224C22.6818 7.27166 22.2037 8.34217 21.691 9.35379L21.0466 8.93806ZM21.7014 0.249214C22.4012 0.581801 22.9347 0.931711 23.302 1.29894L22.8966 1.91215C22.5225 1.53106 21.9959 1.15344 21.3168 0.779275L21.7014 0.249214ZM23.4787 3.97003H30.0888V5.75769H29.3509V4.6456H27.1059V5.82005H29.3717V8.16895C29.3717 8.50846 29.2643 8.72673 29.0495 8.82373C28.8901 8.89995 28.4779 8.93806 27.8127 8.93806C27.7919 8.74405 27.7226 8.52925 27.6048 8.29367C27.785 8.3006 27.972 8.30406 28.1661 8.30406H28.4986C28.5956 8.29713 28.6441 8.24863 28.6441 8.15856V6.48523H27.1059V9.56166H26.3576V6.48523H24.9129V8.93806H24.1958V5.82005H26.3576V4.6456H24.1854V5.75769H23.4787V3.97003ZM30.2655 1.5276V2.21356H29.1326V3.3984H28.4155V2.21356H27.0955V3.36722H26.3784V2.21356H25.1416V3.40879H24.4141V2.21356H23.3851V1.5276H24.4141V0.342754H25.1416V1.5276H26.3784V0.249214H27.0955V1.5276H28.4155V0.342754H29.1326V1.5276H30.2655ZM39.3493 0.976749H36.3872V1.79782H39.3493V0.976749ZM39.3493 2.34867H36.3872V3.18014H39.3493V2.34867ZM40.0976 3.76217H35.6597V0.394721H40.0976V3.76217ZM34.0591 4.46892H32.7599V7.54535H34.0591V4.46892ZM31.3464 0.612981H35.0257V1.31973H33.4563C33.283 2.1997 33.0579 3.02077 32.7807 3.78295H34.7762V8.23131H32.7599V9.06278H32.0636V5.35235C31.8626 5.68494 31.6755 5.95863 31.5023 6.17343C31.4677 6.05563 31.4122 5.91013 31.336 5.7369C31.2529 5.54289 31.1801 5.40085 31.1178 5.31078C31.8176 4.40309 32.3373 3.07274 32.6768 1.31973H31.3464V0.612981ZM36.4703 6.8386C36.99 7.27512 37.3919 7.72896 37.676 8.20013L37.0524 8.61586C36.8306 8.17934 36.4461 7.70818 35.8987 7.20237L36.4703 6.8386ZM40.7212 6.70349H39.3909V8.7198C39.3909 9.09396 39.2662 9.32954 39.0167 9.42654C38.8158 9.50969 38.3446 9.55126 37.6032 9.55126C37.5894 9.46119 37.5547 9.34686 37.4993 9.20828L37.4265 9.0316L37.3538 8.8757C37.9427 8.88955 38.3134 8.88955 38.4659 8.8757C38.5837 8.8757 38.6426 8.82027 38.6426 8.7094V6.70349H35.0776V6.01752H38.6426V5.13409H35.2439V4.45852H40.6381V5.13409H39.3909V6.01752H40.7212V6.70349ZM42.5712 9.31222C43.3958 8.9727 43.8323 8.46343 43.8808 7.78439C43.8392 7.79132 43.7803 7.79479 43.7041 7.79479C43.4824 7.79479 43.2988 7.73243 43.1533 7.60771C43.0008 7.47606 42.9246 7.29244 42.9246 7.05686C42.9246 6.82128 43.0043 6.6342 43.1637 6.49562C43.3092 6.3709 43.4928 6.30854 43.7145 6.30854C44.3035 6.30854 44.5979 6.70695 44.5979 7.50377C44.5979 8.05809 44.4351 8.54311 44.1095 8.95884C43.7907 9.36765 43.3542 9.66906 42.7999 9.86307L42.5712 9.31222ZM55.8436 1.58996C55.8158 2.43528 55.7743 3.14203 55.7188 3.7102H60.3335C60.3335 3.89035 60.33 4.01507 60.3231 4.08436C60.2261 5.78887 60.1256 6.98757 60.0217 7.68046C59.9177 8.41492 59.7653 8.88955 59.5644 9.10435C59.3634 9.32608 59.069 9.4508 58.6809 9.47851C58.2791 9.51316 57.6693 9.4993 56.8517 9.43694C56.8378 9.16671 56.7478 8.91381 56.5815 8.67822C56.9141 8.71287 57.2778 8.73712 57.6728 8.75098C57.8114 8.75791 57.9534 8.76137 58.0989 8.76137H58.3899C58.6186 8.76137 58.7814 8.71633 58.8784 8.62626C59.1694 8.36296 59.3808 6.97371 59.5124 4.45852H55.6253C55.265 6.91135 54.2257 8.61586 52.5073 9.57205C52.3618 9.32954 52.1747 9.1286 51.946 8.96924C53.221 8.2902 54.0871 7.1989 54.5444 5.69533C54.7245 5.10637 54.8527 4.42388 54.9289 3.64784C54.9774 3.14203 55.0121 2.45607 55.0329 1.58996H52.2371V0.841635H61.2793V1.58996H55.8436ZM65.0001 5.76808V9.55126H64.283V5.99674C64.0612 6.06603 63.7633 6.15957 63.3891 6.27736L62.963 6.40208C62.8106 6.45058 62.6789 6.49215 62.568 6.5268L62.3602 5.78887L62.568 5.7369L62.7863 5.67454C62.9595 5.62604 63.112 5.581 63.2436 5.53943C63.6247 5.4355 63.9712 5.33503 64.283 5.23802V2.92031H63.3372C63.1986 3.56469 63.0461 4.07743 62.8799 4.45852C62.7898 4.39616 62.6962 4.3338 62.5992 4.27144C62.4676 4.19522 62.3636 4.14326 62.2874 4.11554C62.6062 3.39494 62.8452 2.24127 63.0046 0.654555L63.6801 0.768882C63.6386 1.12918 63.5727 1.59689 63.4827 2.17198H64.283V0.0621336H65.0001V2.17198H66.0706V2.92031H65.0001V5.04055L66.2057 4.66639L66.3097 5.35235L65.0001 5.76808ZM71.7973 1.79782C71.7973 1.99183 71.7939 2.12002 71.787 2.18238C71.586 6.2635 71.295 8.54311 70.9139 9.0212C70.7407 9.25679 70.5016 9.38844 70.1968 9.41615C69.9473 9.4508 69.5524 9.4508 69.0119 9.41615C68.9981 9.11128 68.9253 8.85837 68.7937 8.65744C69.0015 8.67822 69.2163 8.69208 69.4381 8.69901C69.6043 8.70594 69.7533 8.7094 69.885 8.7094C70.0443 8.7094 70.1725 8.65051 70.2695 8.53272C70.5952 8.17241 70.8516 6.1665 71.0386 2.51496H70.5398C70.2626 3.97003 69.8503 5.28306 69.3029 6.45405C68.6863 7.74975 67.9691 8.72326 67.1515 9.37458C66.9991 9.20136 66.7843 9.04545 66.5071 8.90688C67.3178 8.32485 68.0246 7.43102 68.6274 6.22539C69.1678 5.14448 69.5836 3.90767 69.8746 2.51496H69.0223C68.4611 4.66292 67.6088 6.23232 66.4656 7.22315C66.3131 7.05686 66.1087 6.90789 65.8523 6.77624C66.954 5.91706 67.789 4.49663 68.3571 2.51496H67.4633C67.0961 3.33258 66.7011 3.99082 66.2785 4.4897C66.223 4.43427 66.1295 4.35805 65.9979 4.26105L65.8316 4.13633C65.7761 4.10168 65.7276 4.0705 65.6861 4.04279C66.5106 3.14203 67.1169 1.81168 67.5049 0.0517404L68.2116 0.197247C68.08 0.765417 67.9241 1.29894 67.7439 1.79782H71.0698V1.78743L71.7973 1.79782ZM77.4513 3.05542C77.4444 3.14549 77.4444 3.25982 77.4513 3.3984C77.4583 3.51619 77.4686 3.62359 77.4825 3.72059C75.286 4.19869 74.1012 4.48624 73.928 4.58324C73.9003 4.47931 73.8587 4.36498 73.8033 4.24026C73.7478 4.09475 73.6924 3.98736 73.637 3.91807C73.7686 3.86956 73.8725 3.80374 73.9488 3.72059C74.0596 3.6028 74.1151 3.4573 74.1151 3.28407V0.0621336H74.9153V1.25737H77.3578V1.93294H74.9153V3.54391L77.4513 3.05542ZM80.1432 5.80966H75.0816V6.84899H80.1432V5.80966ZM80.1432 8.53272V7.4622H75.0816V8.53272H80.1432ZM77.8255 4.30262C77.7008 4.56592 77.5518 4.85 77.3786 5.15488H80.9331V9.55126H80.1432V9.1875H75.0816V9.55126H74.3125V5.15488H76.5991C76.7931 4.74607 76.9282 4.39963 77.0044 4.11554L77.8255 4.30262ZM81.0059 3.73099C81.1999 3.73099 81.328 3.66863 81.3904 3.54391C81.4458 3.41919 81.4874 3.1351 81.5151 2.69165C81.6953 2.8233 81.9239 2.91684 82.2011 2.97227C82.1526 3.54044 82.0521 3.925 81.8997 4.12593C81.7472 4.31994 81.4701 4.41695 81.0682 4.41695H79.2286C78.7228 4.41695 78.3833 4.34419 78.21 4.19869C78.0368 4.05318 77.9502 3.7691 77.9502 3.34643V0.0621336H78.7089V1.72507C79.8245 1.38555 80.6525 1.0599 81.1929 0.748095L81.7438 1.34052C80.9539 1.71468 79.9423 2.06112 78.7089 2.37985V3.34643C78.7089 3.5058 78.747 3.60973 78.8232 3.65823C78.8925 3.70674 79.0519 3.73099 79.3013 3.73099H81.0059ZM84.5084 3.33604H83.7393V1.25737H87.5433C87.3839 0.897066 87.2211 0.554085 87.0548 0.228427L87.8447 0.0413465C88.0872 0.484796 88.2881 0.890137 88.4475 1.25737H92.1371V3.33604H91.3368V1.97451H84.5084V3.33604ZM86.7846 4.82229C86.4866 5.31424 86.2129 5.7369 85.9635 6.09028C86.6148 6.29815 87.3597 6.56491 88.1981 6.89057C88.8009 6.31547 89.2547 5.62604 89.5596 4.82229H86.7846ZM90.443 4.82229C90.0896 5.76462 89.5942 6.55451 88.9568 7.19197C90.3633 7.78786 91.4442 8.32831 92.1995 8.81334L91.5655 9.47851C90.8172 8.96577 89.7293 8.3976 88.302 7.774C87.3112 8.54311 85.915 9.12514 84.1135 9.52008C84.0719 9.42308 84.0026 9.30182 83.9056 9.15632C83.8086 9.01774 83.7151 8.90341 83.625 8.81334C85.2741 8.52925 86.5663 8.06848 87.5017 7.43102C86.4416 7.00836 85.527 6.67577 84.7579 6.43326L84.7683 6.42287C85.1147 5.98634 85.4819 5.45282 85.8699 4.82229H83.4795V4.08436H86.3065C86.6876 3.39147 86.9612 2.83369 87.1275 2.41103L87.959 2.58772C87.7442 3.06581 87.4948 3.56469 87.2107 4.08436H92.4178V4.82229H90.443ZM95.7332 3.69981C95.5184 3.69981 95.3383 3.63052 95.1928 3.49194C95.0334 3.34643 94.9537 3.15935 94.9537 2.9307C94.9537 2.69512 95.0334 2.50457 95.1928 2.35906C95.3383 2.21356 95.5184 2.1408 95.7332 2.1408C95.948 2.1408 96.1317 2.21356 96.2841 2.35906C96.4435 2.5115 96.5231 2.70205 96.5231 2.9307C96.5231 3.15935 96.4435 3.34643 96.2841 3.49194C96.1317 3.63052 95.948 3.69981 95.7332 3.69981ZM94.6523 9.88385C95.5046 9.49583 95.9446 8.91034 95.9723 8.12738C95.9307 8.14123 95.8684 8.14816 95.7852 8.14816C95.5635 8.14816 95.3799 8.0858 95.2344 7.96108C95.0819 7.82943 95.0057 7.64235 95.0057 7.39984C95.0057 7.16426 95.0854 6.97718 95.2448 6.8386C95.3903 6.71388 95.5739 6.65152 95.7956 6.65152C96.0797 6.65152 96.3014 6.76585 96.4608 6.9945C96.6132 7.21622 96.6894 7.52456 96.6894 7.91951C96.6894 9.13207 96.0901 9.967 94.8914 10.4243L94.6523 9.88385ZM106.106 1.829C105.933 1.44098 105.638 0.959426 105.222 0.384327L105.815 0.0517404C106.224 0.55755 106.525 1.01832 106.719 1.43406L106.106 1.829ZM107.488 6.82821C107.294 6.52333 106.934 6.0487 106.407 5.40432V9.54087H105.628V5.51864C105.177 6.03831 104.748 6.46097 104.339 6.78663C104.297 6.67577 104.235 6.54412 104.152 6.39169C104.062 6.22539 103.986 6.11453 103.923 6.0591C105.101 5.1722 106.033 4.01854 106.719 2.59811H104.131V1.89136H107.104L107.249 1.86018L107.696 2.17198C107.377 2.96188 106.948 3.73792 106.407 4.5001V4.52088L106.49 4.60403L106.574 4.68718C106.643 4.76339 106.705 4.83268 106.761 4.89504C107.128 4.5001 107.408 4.16058 107.602 3.87649L108.133 4.31301C107.738 4.70796 107.402 5.03016 107.124 5.2796C107.533 5.71612 107.817 6.02445 107.977 6.20461L107.488 6.82821ZM113.08 1.3613C112.955 6.03831 112.726 8.58815 112.394 9.01081C112.207 9.26718 111.936 9.41615 111.583 9.45772C111.244 9.4993 110.741 9.49583 110.076 9.44733C110.062 9.16325 109.983 8.91727 109.837 8.7094C110.121 8.73019 110.412 8.74751 110.71 8.76137C110.828 8.76137 110.939 8.76483 111.043 8.77176H111.282C111.462 8.77176 111.604 8.7094 111.708 8.58468C111.992 8.26595 112.196 5.96556 112.321 1.6835H110.326C110.235 3.71366 110.028 5.28306 109.702 6.39169C109.3 7.72896 108.642 8.78562 107.727 9.56166C107.672 9.48544 107.578 9.38497 107.447 9.26025C107.329 9.13553 107.221 9.03506 107.124 8.95884C108.004 8.28674 108.628 7.32016 108.995 6.0591C109.3 5.03362 109.484 3.57509 109.546 1.6835H107.852V0.935175H113.08V1.3613ZM118.006 0.415507C119.274 1.28855 120.206 2.05419 120.802 2.71244L120.251 3.28407C119.614 2.56347 118.696 1.77704 117.497 0.924782L118.006 0.415507ZM122.527 3.43997C123.213 4.84654 123.677 6.14571 123.92 7.33748L123.161 7.63889C122.926 6.41247 122.475 5.10637 121.81 3.72059L122.527 3.43997ZM116.104 3.85571C116.007 4.57631 115.886 5.2692 115.74 5.93438C115.567 6.75892 115.384 7.42409 115.19 7.9299L114.42 7.60771C114.857 6.5753 115.169 5.27613 115.356 3.7102L116.104 3.85571ZM117.788 2.9307V8.05462C117.788 8.2902 117.833 8.4461 117.923 8.52232C118.013 8.59161 118.207 8.62626 118.505 8.62626H120.49C120.809 8.62626 121.017 8.49114 121.114 8.22092C121.204 7.97148 121.27 7.38945 121.311 6.47483C121.401 6.54412 121.519 6.60995 121.665 6.67231C121.796 6.73467 121.921 6.78317 122.039 6.81781C121.983 7.82943 121.862 8.49807 121.675 8.82373C121.474 9.1771 121.093 9.35379 120.532 9.35379H118.443C117.881 9.35379 117.504 9.26372 117.31 9.08356C117.109 8.90341 117.008 8.55697 117.008 8.04423V2.9307H117.788ZM130.343 5.06134C131.389 6.53719 132.713 7.62503 134.313 8.32485C134.119 8.48421 133.932 8.70247 133.752 8.97963C132.276 8.23824 130.991 7.11922 129.896 5.62258V9.55126H129.096V5.66415C128.036 7.11922 126.761 8.22092 125.271 8.96924C125.195 8.8653 125.108 8.75444 125.011 8.63665C124.894 8.505 124.793 8.40453 124.71 8.33524C126.324 7.61464 127.641 6.52333 128.659 5.06134H124.991V4.30262H129.096V2.51496H125.739V1.75625H129.096V0.0621336H129.896V1.75625H133.357V2.51496H129.896V4.30262H134.074V5.06134H130.343ZM140.913 2.79559C141.163 4.08436 141.533 5.19645 142.025 6.13185C142.503 5.23109 142.85 4.08436 143.065 2.69165H140.955L140.913 2.79559ZM143.875 2.69165C143.591 4.42388 143.13 5.82698 142.493 6.90096C143.089 7.80172 143.83 8.45303 144.717 8.85491C144.634 8.9242 144.537 9.02467 144.426 9.15632C144.343 9.26718 144.263 9.38151 144.187 9.4993C143.342 9.06278 142.618 8.42185 142.015 7.57653C141.384 8.408 140.542 9.0801 139.489 9.59284C139.455 9.50276 139.389 9.38151 139.292 9.22907C139.195 9.09049 139.108 8.97617 139.032 8.88609C140.127 8.38721 140.972 7.71164 141.568 6.85939C141.131 6.06256 140.761 5.06827 140.456 3.87649C140.255 4.27837 140.005 4.6941 139.708 5.1237C139.638 5.04055 139.545 4.94354 139.427 4.83268C139.302 4.70796 139.198 4.61789 139.115 4.56246L139.167 4.5001H136.444V7.774L139.177 6.78663C139.177 6.8975 139.188 7.02568 139.209 7.17119C139.229 7.30976 139.254 7.42409 139.281 7.51417C137.057 8.36642 135.852 8.87916 135.665 9.05238C135.637 8.92766 135.595 8.78909 135.54 8.63665C135.477 8.47728 135.415 8.35256 135.353 8.26249C135.45 8.22092 135.522 8.15856 135.571 8.07541C135.64 7.9784 135.675 7.84675 135.675 7.68046V3.74138H138.429V1.54838H135.55V0.789668H139.188V4.46892C139.936 3.47808 140.508 2.00569 140.903 0.0517404L141.651 0.197247C141.512 0.869351 141.36 1.45831 141.194 1.96412H144.551V2.69165H143.875ZM146.505 9.31222C147.329 8.9727 147.766 8.46343 147.814 7.78439C147.773 7.79132 147.714 7.79479 147.638 7.79479C147.416 7.79479 147.232 7.73243 147.087 7.60771C146.934 7.47606 146.858 7.29244 146.858 7.05686C146.858 6.82128 146.938 6.6342 147.097 6.49562C147.243 6.3709 147.426 6.30854 147.648 6.30854C148.237 6.30854 148.531 6.70695 148.531 7.50377C148.531 8.05809 148.369 8.54311 148.043 8.95884C147.724 9.36765 147.288 9.66906 146.733 9.86307L146.505 9.31222ZM159.902 2.60851C159.867 3.24596 159.819 3.79335 159.756 4.25065H164.173C164.167 4.42388 164.156 4.5486 164.142 4.62482C163.969 7.22315 163.699 8.70594 163.332 9.07317C163.131 9.28797 162.833 9.40922 162.438 9.43694C161.994 9.46465 161.416 9.4508 160.702 9.39536C160.674 9.11821 160.584 8.86877 160.432 8.64704C160.758 8.67476 161.104 8.69555 161.471 8.7094C161.61 8.7094 161.748 8.71287 161.887 8.7198H162.168C162.403 8.7198 162.566 8.68169 162.656 8.60547C162.954 8.3491 163.183 7.14694 163.342 4.99898H159.642C159.247 7.18158 158.225 8.7094 156.576 9.58244C156.423 9.333 156.236 9.12514 156.015 8.95884C157.193 8.36989 158.017 7.44141 158.488 6.17343C158.786 5.34889 158.973 4.16058 159.05 2.60851H156.243V1.84979H160.785C160.626 1.36477 160.39 0.8451 160.078 0.290788L160.816 -0.000226948C161.184 0.637232 161.433 1.14997 161.565 1.53799L160.848 1.84979H165.182V2.60851H159.902ZM174.317 0.966355H170.898V1.79782H174.317V0.966355ZM174.317 2.35906H170.898V3.20093H174.317V2.35906ZM175.086 3.79335H170.15V0.384327H175.086V3.79335ZM169.256 0.373934C168.598 1.32319 167.752 2.14427 166.72 2.83716C166.616 2.6085 166.481 2.40064 166.314 2.21356C167.291 1.58303 168.026 0.876279 168.518 0.0933133L169.256 0.373934ZM169.381 2.62929C169.173 3.00345 168.889 3.42958 168.528 3.90767V9.54087H167.77V4.78072C167.368 5.21724 166.962 5.5914 166.554 5.9032C166.519 5.82005 166.46 5.70226 166.377 5.54982C166.287 5.38353 166.211 5.25535 166.148 5.16527C167.243 4.36152 168.095 3.42612 168.705 2.35906L169.381 2.62929ZM170.721 6.88017C171.31 7.39984 171.75 7.8814 172.041 8.32485L171.449 8.74058C171.199 8.32485 170.773 7.8225 170.17 7.23355L170.721 6.88017ZM175.762 6.70349H174.213V8.69901C174.213 9.0801 174.082 9.32608 173.818 9.43694C173.59 9.52008 173.063 9.56166 172.239 9.56166C172.211 9.36765 172.128 9.13207 171.989 8.85491C172.266 8.86184 172.53 8.86877 172.779 8.8757C173.008 8.8757 173.16 8.87223 173.236 8.8653C173.375 8.85837 173.444 8.79601 173.444 8.67822V6.70349H169.277V6.03831H173.444V5.15488H169.516V4.4897H175.575V5.15488H174.213V6.03831H175.762V6.70349ZM178.402 2.89952C178.229 3.73099 178.028 4.57631 177.799 5.4355C178.201 5.71958 178.558 5.98981 178.87 6.24618C179.216 5.32463 179.452 4.20908 179.576 2.89952H178.402ZM180.325 2.23434C180.2 4.11901 179.906 5.62258 179.441 6.74506C179.912 7.15386 180.283 7.53495 180.553 7.88833L180.075 8.51193C179.861 8.20706 179.542 7.85022 179.119 7.44141C178.641 8.34217 178 9.03853 177.196 9.53048C177.141 9.43347 177.072 9.32608 176.988 9.20828C176.891 9.08356 176.808 8.98656 176.739 8.91727C177.494 8.50154 178.101 7.83983 178.558 6.93214C178.038 6.48869 177.515 6.08335 176.988 5.71612C177.21 5.04401 177.449 4.10515 177.706 2.89952H176.76V2.18238H177.841C177.986 1.32319 178.09 0.630303 178.153 0.103707L178.88 0.14528C178.79 0.824313 178.676 1.50335 178.537 2.18238H179.753L179.878 2.16159L180.325 2.23434ZM181.811 6.0487V8.408H184.908V6.0487H181.811ZM181.094 5.35235H185.657V9.53048H184.908V9.09396H181.811V9.55126H181.094V5.35235ZM184.565 1.55878C185.376 2.59811 185.961 3.56469 186.322 4.45852L185.657 4.79111C185.553 4.53474 185.442 4.29223 185.324 4.06357C182.483 4.27837 180.955 4.43081 180.74 4.52088C180.727 4.43774 180.692 4.31994 180.637 4.16751C180.581 4.01507 180.529 3.88689 180.481 3.78295C180.647 3.74831 180.872 3.52658 181.156 3.11778C181.232 3.01385 181.333 2.86487 181.458 2.67086C181.596 2.44221 181.738 2.19624 181.884 1.93294C182.265 1.2539 182.57 0.623375 182.798 0.0413465L183.588 0.280394C182.992 1.56224 182.355 2.67086 181.676 3.60627L184.971 3.3984C184.7 2.91338 184.364 2.39717 183.962 1.84979L184.565 1.55878ZM187.08 8.17934C187.829 8.06155 189.059 7.8329 190.77 7.49338L190.832 8.17934L187.216 8.92766L187.08 8.17934ZM191.861 7.35827C193.379 7.76014 194.726 8.28328 195.904 8.92766L195.457 9.54087C194.293 8.86184 192.942 8.31792 191.404 7.90912L191.861 7.35827ZM192.994 5.50825C193.819 5.80619 194.539 6.18035 195.156 6.63073L194.688 7.16079C194.099 6.71734 193.382 6.32933 192.537 5.99674L192.994 5.50825ZM192.568 1.87058C192.887 2.41103 193.282 2.91684 193.753 3.38801C194.252 2.89605 194.654 2.37292 194.959 1.81861H192.61L192.568 1.87058ZM195.998 1.39248C195.603 2.29324 195.031 3.11778 194.283 3.8661C195.052 4.51742 195.887 5.00244 196.788 5.32117C196.705 5.38353 196.611 5.484 196.507 5.62258C196.424 5.71958 196.344 5.83044 196.268 5.95516C195.388 5.60872 194.55 5.07519 193.753 4.35459C192.977 5.01283 192.1 5.54289 191.123 5.94477C191.075 5.84777 191.002 5.7369 190.905 5.61218C190.808 5.48053 190.718 5.38353 190.635 5.32117C191.563 4.98165 192.43 4.4897 193.233 3.84531C192.797 3.38801 192.43 2.92031 192.132 2.44221C191.861 2.7748 191.508 3.13164 191.071 3.51273C191.002 3.41572 190.919 3.31872 190.822 3.22171C190.711 3.11778 190.611 3.04503 190.521 3.00345C189.842 4.11208 189.135 5.06134 188.4 5.85123L190.583 5.54982C190.583 5.66069 190.586 5.77848 190.593 5.9032C190.6 6.03485 190.607 6.13532 190.614 6.20461C188.632 6.52333 187.548 6.72774 187.361 6.81781C187.34 6.72774 187.306 6.61687 187.257 6.48523C187.209 6.32586 187.164 6.20461 187.122 6.12146C187.281 6.09374 187.545 5.87202 187.912 5.45628C188.023 5.33849 188.168 5.16527 188.348 4.93662C188.556 4.66639 188.764 4.37884 188.972 4.07397C187.995 4.18483 187.437 4.27491 187.299 4.34419C187.278 4.25412 187.24 4.13633 187.184 3.99082C187.129 3.83839 187.08 3.71366 187.039 3.61666C187.177 3.58894 187.375 3.37415 187.631 2.97227C187.701 2.87527 187.787 2.73323 187.891 2.54615C188.016 2.32442 188.141 2.0923 188.265 1.84979C188.598 1.19154 188.861 0.58873 189.055 0.0413465L189.793 0.353147C189.315 1.50335 188.743 2.56 188.078 3.52312L189.419 3.3984C189.523 3.23903 189.637 3.05542 189.762 2.84755L189.928 2.55654L190.084 2.27592L190.728 2.66047L190.541 2.96188C191.511 2.19277 192.239 1.22272 192.724 0.0517404L193.524 0.186853C193.393 0.491725 193.23 0.810455 193.036 1.14304H195.374L195.509 1.10147L195.998 1.39248ZM199.085 6.215C199.528 6.215 199.902 6.36743 200.207 6.67231C200.519 6.98411 200.675 7.35827 200.675 7.79479C200.675 8.23824 200.519 8.6124 200.207 8.91727C199.902 9.22907 199.528 9.38497 199.085 9.38497C198.655 9.38497 198.284 9.22907 197.973 8.91727C197.661 8.60547 197.505 8.23131 197.505 7.79479C197.505 7.35827 197.661 6.98411 197.973 6.67231C198.284 6.36743 198.655 6.215 199.085 6.215ZM199.085 8.85491C199.383 8.85491 199.632 8.75098 199.833 8.54311C200.041 8.34217 200.145 8.09273 200.145 7.79479C200.145 7.50377 200.041 7.2578 199.833 7.05686C199.632 6.84899 199.383 6.74506 199.085 6.74506C198.801 6.74506 198.555 6.84899 198.347 7.05686C198.139 7.26473 198.035 7.5107 198.035 7.79479C198.035 8.0858 198.139 8.33524 198.347 8.54311C198.555 8.75098 198.801 8.85491 199.085 8.85491ZM8.40829 23.7636C7.98563 23.3409 7.23731 22.6862 6.16333 21.7993C5.3665 22.6377 4.34102 23.3028 3.08689 23.7948C3.03839 23.7047 2.9691 23.5938 2.87903 23.4622C2.78202 23.3098 2.69887 23.1989 2.62959 23.1296C3.83521 22.707 4.81565 22.1111 5.5709 21.342C4.62857 20.6075 3.76939 19.97 2.99335 19.4296L3.52341 18.9827C4.20938 19.433 5.05124 20.0359 6.049 20.7911C6.5756 20.1121 6.98094 19.3153 7.26502 18.4006H2.68155V17.6731H5.74759C5.59516 17.2297 5.35611 16.7481 5.03045 16.2284L5.75799 15.9998C6.15293 16.6026 6.41623 17.0945 6.54788 17.4756L6.00743 17.6731H9.38526V18.4006H8.0757C7.72233 19.5162 7.24423 20.462 6.64142 21.238C7.73619 22.0833 8.52262 22.7381 9.00071 23.2024L8.40829 23.7636ZM1.72536 18.5565C1.42742 18.0577 0.935469 17.5103 0.249508 16.9144L0.852322 16.509C1.53135 17.0634 2.03716 17.59 2.36975 18.0888L1.72536 18.5565ZM2.22424 23.6701C2.30046 23.7047 2.41825 23.7705 2.57762 23.8675L2.67116 23.9299L2.78549 24.0027C2.87556 24.0581 2.95871 24.1066 3.03493 24.1482C3.54767 24.4253 4.44149 24.5639 5.71641 24.5639C7.17148 24.5639 8.45333 24.4981 9.56195 24.3664C9.50652 24.4911 9.45455 24.6332 9.40605 24.7925C9.35062 24.9727 9.31944 25.1182 9.31251 25.2291C8.2316 25.2984 7.02251 25.333 5.68523 25.333C4.41724 25.333 3.48184 25.1736 2.87903 24.8549C2.78895 24.8064 2.68848 24.7475 2.57762 24.6782L2.44251 24.5951L2.30739 24.5119C2.12031 24.3941 1.98173 24.3352 1.89166 24.3352C1.62836 24.3352 1.18145 24.7094 0.550915 25.4577L6.73187e-05 24.7198C0.554379 24.1863 1.04633 23.8398 1.47592 23.6805V20.6664H0.145574V19.9389H2.22424V23.6701ZM19.7267 19.3984C19.7197 19.5786 19.7093 19.6998 19.6955 19.7622C19.5153 22.9079 19.252 24.6886 18.9056 25.1044C18.7324 25.3122 18.5002 25.4265 18.2092 25.4473C17.9667 25.475 17.596 25.4785 17.0971 25.4577C17.0833 25.1806 17.0175 24.9346 16.8997 24.7198C17.0937 24.7406 17.2877 24.7544 17.4817 24.7614C17.6341 24.7683 17.7692 24.7718 17.887 24.7718C18.0533 24.7718 18.1711 24.7198 18.2404 24.6159C18.5176 24.3387 18.7462 22.8421 18.9264 20.1259H18.2196C17.5129 22.558 16.2795 24.363 14.5196 25.5409C14.4503 25.4716 14.3568 25.3919 14.239 25.3018C14.1142 25.2048 14.0103 25.1355 13.9272 25.094C15.6386 24.0823 16.8304 22.4263 17.5025 20.1259H16.6294C16.1652 21.4494 15.3961 22.4956 14.3221 23.2647C14.2805 23.2162 14.2009 23.1435 14.0831 23.0465L13.9272 22.9321C13.8856 22.9044 13.8371 22.8732 13.7817 22.8386L13.8024 22.9217L12.971 23.2543L12.1499 23.5765C11.5402 23.819 11.0378 24.0165 10.6429 24.1689L10.3934 23.3894C10.8507 23.2439 11.3219 23.0811 11.8069 22.901V19.3049H10.5389V18.5773H11.8069V16.1765H12.5345V18.5773H13.6777V19.3049H12.5345V22.6411L13.6465 22.2254L13.7817 22.8178C14.7517 22.1804 15.455 21.2831 15.8915 20.1259H15.164C14.6443 20.1259 14.3429 20.1675 14.2597 20.2507C14.232 20.1675 14.1835 20.0497 14.1142 19.8973C14.0519 19.7448 13.993 19.6201 13.9376 19.5231C14.1523 19.4885 14.4988 19.3187 14.9769 19.0138C15.0808 18.9515 15.2055 18.8683 15.351 18.7644C15.5243 18.6397 15.7044 18.508 15.8915 18.3695C16.3904 18.0022 16.8338 17.6385 17.2219 17.2782H13.8856V16.5402H18.0533L18.1988 16.4779L18.7809 16.9144C17.7138 17.8775 16.6433 18.7055 15.5693 19.3984H19.7267ZM24.466 16.4155C25.734 17.2885 26.6659 18.0542 27.2618 18.7124L26.711 19.2841C26.0735 18.5635 25.1554 17.777 23.9567 16.9248L24.466 16.4155ZM28.9871 19.44C29.6731 20.8465 30.1373 22.1457 30.3798 23.3375L29.6211 23.6389C29.3855 22.4125 28.9352 21.1064 28.27 19.7206L28.9871 19.44ZM22.564 19.8557C22.467 20.5763 22.3458 21.2692 22.2003 21.9344C22.027 22.7589 21.8434 23.4241 21.6494 23.9299L20.8803 23.6077C21.3168 22.5753 21.6286 21.2761 21.8157 19.7102L22.564 19.8557ZM24.2478 18.9307V24.0546C24.2478 24.2902 24.2928 24.4461 24.3829 24.5223C24.4729 24.5916 24.667 24.6263 24.9649 24.6263H26.95C27.2688 24.6263 27.4766 24.4911 27.5736 24.2209C27.6637 23.9715 27.7295 23.3894 27.7711 22.4748C27.8612 22.5441 27.979 22.6099 28.1245 22.6723C28.2561 22.7347 28.3808 22.7832 28.4986 22.8178C28.4432 23.8294 28.322 24.4981 28.1349 24.8237C27.9339 25.1771 27.5528 25.3538 26.9916 25.3538H24.9025C24.3413 25.3538 23.9637 25.2637 23.7697 25.0836C23.5687 24.9034 23.4683 24.557 23.4683 24.0442V18.9307H24.2478ZM39.4636 20.2403H32.2195V19.5439H38.7153V18.6501H32.6768V18.0681H38.7153V17.1742H32.2195V16.4779H39.4636V20.2403ZM37.9774 22.9321C38.3931 22.3293 38.7361 21.6919 39.0063 21.0198L39.6819 21.4147C39.4671 21.7958 39.28 22.1249 39.1206 22.4021C38.8989 22.7624 38.7084 23.0534 38.549 23.2751L37.9774 22.9321ZM33.6226 21.3004C33.4771 21.7023 33.3315 22.0487 33.186 22.3397C32.9851 22.7208 32.7738 23.0257 32.552 23.2543L31.8973 22.8594C32.3407 22.4367 32.6941 21.8304 32.9574 21.0405L33.6226 21.3004ZM36.4288 20.4689C36.3872 21.0024 36.3144 21.484 36.2105 21.9136C36.8826 23.5696 38.4 24.5327 40.7628 24.8029C40.5619 25.0316 40.4094 25.2706 40.3055 25.5201C38.1991 25.1736 36.7371 24.2729 35.9195 22.8178C35.6285 23.5315 35.1677 24.1031 34.5372 24.5327C33.8374 25.0039 32.8673 25.3607 31.627 25.6032C31.5439 25.3607 31.4122 25.1425 31.2321 24.9485C32.9227 24.6505 34.0868 24.117 34.7243 23.3479C35.2024 22.7658 35.5003 21.8062 35.6181 20.4689H36.4288ZM44.9929 18.411H42.8103V20.5832H44.9929V18.411ZM44.9929 23.7636V21.2692H42.8103V23.7636H44.9929ZM44.5148 16.1869L44.3797 16.5818L44.2446 16.9767C44.1406 17.2816 44.0506 17.5276 43.9743 17.7147H45.6996V24.46H42.8103V25.281H42.1035V17.7147H43.2676C43.3577 17.4375 43.4374 17.1569 43.5066 16.8728C43.5898 16.5402 43.6487 16.2596 43.6833 16.031L44.5148 16.1869ZM50.782 18.0784C50.6988 20.5174 50.6122 22.1873 50.5222 23.088C50.4182 24.065 50.2658 24.6782 50.0648 24.9277C49.8708 25.1702 49.5971 25.3088 49.2438 25.3434C48.9597 25.378 48.4469 25.3746 47.7056 25.333C47.6778 25.0489 47.5912 24.796 47.4457 24.5743C47.7367 24.602 48.0485 24.6193 48.3811 24.6263C48.4989 24.6332 48.6167 24.6366 48.7345 24.6366H48.9839C49.1849 24.6366 49.3269 24.5847 49.4101 24.4807C49.708 24.162 49.9193 22.1353 50.0441 18.4006H47.4041C47.0854 19.1697 46.7598 19.776 46.4272 20.2195C46.3717 20.164 46.2713 20.0878 46.1258 19.9908L45.9387 19.8765L45.8659 19.8245L45.7932 19.783C46.4722 18.8891 47.0023 17.6315 47.3834 16.0102L48.1213 16.1869C47.9896 16.7273 47.8407 17.2262 47.6744 17.6835H50.782V18.0784ZM48.4851 22.7658C48.1663 22.1215 47.6397 21.3212 46.9053 20.365L47.5081 20.0116C48.2703 20.9817 48.8142 21.7646 49.1398 22.3605L48.4851 22.7658ZM56.7893 17.7874H52.2371V17.143H54.2742C54.1148 16.7689 53.9624 16.4536 53.8168 16.1972L54.5132 16.0206C54.7557 16.4571 54.9393 16.8312 55.064 17.143H56.7893V17.7874ZM53.6298 22.454C53.3803 23.1954 53.0235 23.8468 52.5593 24.408C52.4761 24.3387 52.393 24.2729 52.3098 24.2105C52.192 24.1204 52.0985 24.0546 52.0292 24.013C52.4449 23.5627 52.7671 22.9876 52.9958 22.2878L53.6298 22.454ZM53.5362 17.8602C53.7787 18.3868 53.9242 18.8718 53.9727 19.3153L53.318 19.4919C53.2695 19.0277 53.1343 18.5323 52.9126 18.0057L53.5362 17.8602ZM54.8978 21.9032V24.5431C54.8978 24.8826 54.7973 25.1009 54.5963 25.1979C54.4231 25.281 54.0594 25.3226 53.505 25.3226C53.4704 25.1078 53.3942 24.8896 53.2764 24.6678C53.6713 24.6817 53.9346 24.6817 54.0663 24.6678C54.1494 24.6678 54.191 24.6228 54.191 24.5327V21.9032H52.1227V21.238H54.191V20.1467H52.0708V19.4919H54.9393C55.1749 18.9238 55.362 18.3729 55.5006 17.8394L56.2073 17.9953C55.9856 18.6189 55.795 19.1178 55.6357 19.4919H56.9556V20.1467H54.8978V21.238H56.8309V21.9032H54.8978ZM55.8436 22.2462C56.2662 22.8906 56.5538 23.4345 56.7062 23.8779L56.1657 24.1897C55.9787 23.6909 55.6946 23.1331 55.3135 22.5164L55.8436 22.2462ZM61.4871 20.261H60.3439V25.4993H59.5956V20.261H58.0262V20.5936C58.0262 21.5498 57.9638 22.3778 57.8391 23.0776C57.6659 24.0546 57.3679 24.8445 56.9452 25.4473C56.772 25.2603 56.5745 25.1044 56.3528 24.9796C56.7408 24.4253 57.0076 23.7116 57.1531 22.8386C57.257 22.2358 57.309 21.4875 57.309 20.5936V17.0495C58.7156 16.8208 59.793 16.5506 60.5413 16.2388L61.1546 16.8105C60.3577 17.1084 59.3149 17.3578 58.0262 17.5588V19.5335H61.4871V20.261ZM71.7766 24.4704V25.2187H62.568V24.4704H66.7774V21.8304H63.6905V21.0821H66.7774V18.8164H64.3349C63.9954 19.4885 63.6316 20.0532 63.2436 20.5105C63.1674 20.4481 63.06 20.3684 62.9214 20.2714C62.7759 20.1744 62.6512 20.1017 62.5473 20.0532C63.3718 19.1663 64.0127 17.8914 64.47 16.2284L65.2495 16.3947C65.0625 17.0391 64.8684 17.5934 64.6675 18.0577H66.7774V16.0621H67.5673V18.0577H71.2881V18.8164H67.5673V21.0821H70.9035V21.8304H67.5673V24.4704H71.7766ZM77.7631 18.0992C77.5553 17.6489 77.195 17.0668 76.6822 16.3531L77.3474 16.0102C77.8948 16.7031 78.2689 17.2643 78.4699 17.6939L77.7631 18.0992ZM81.3488 18.4526C79.9423 20.5451 78.0403 22.3328 75.6429 23.8156C75.7537 23.8987 75.8438 23.9611 75.9131 24.0027C76.4258 24.3283 77.3127 24.4911 78.5738 24.4911C79.8695 24.4911 81.1167 24.4288 82.3154 24.3041C82.2669 24.408 82.2184 24.5431 82.1699 24.7094C82.1214 24.8826 82.0937 25.0247 82.0868 25.1355C81.6849 25.1632 81.1236 25.1875 80.403 25.2083C79.6478 25.236 79.0277 25.2499 78.5426 25.2499C77.2746 25.2499 76.3462 25.0628 75.7572 24.6886C75.6741 24.6332 75.5736 24.5639 75.4558 24.4807L75.3207 24.3768L75.196 24.2833C75.0089 24.1516 74.8703 24.0858 74.7802 24.0858C74.5169 24.0858 74.0804 24.5154 73.4707 25.3746L72.899 24.6678C73.7028 23.7948 74.3333 23.3583 74.7906 23.3583C74.8253 23.3583 74.8703 23.3652 74.9257 23.3791C76.9836 22.1873 78.6847 20.6802 80.0289 18.8579H73.4291V18.1096H80.6005L80.7668 18.0577L81.3488 18.4526ZM85.2983 17.7043C85.2498 17.5241 85.1701 17.2955 85.0593 17.0183C84.9623 16.7827 84.8549 16.5368 84.7371 16.2804L85.3919 16.0517C85.6759 16.5922 85.8734 17.0599 85.9843 17.4548L85.2983 17.7043ZM87.0236 19.8453C87.0236 20.0047 87.0201 20.1225 87.0132 20.1987C86.9439 23.1643 86.8053 24.7925 86.5975 25.0836C86.4589 25.2776 86.2614 25.385 86.0051 25.4058C85.7833 25.4335 85.4611 25.4369 85.0385 25.4162C85.0246 25.1529 84.9588 24.9242 84.841 24.7302C85.0142 24.744 85.184 24.7544 85.3503 24.7614C85.4889 24.7683 85.6032 24.7718 85.6933 24.7718C85.8249 24.7718 85.9219 24.7233 85.9843 24.6263C86.1367 24.4045 86.2441 23.0465 86.3065 20.5521H85.132C85.0766 22.6307 84.5846 24.2867 83.6562 25.5201C83.6007 25.4508 83.5176 25.3711 83.4067 25.281C83.3028 25.2048 83.2023 25.139 83.1053 25.0836C83.6388 24.3699 84.0061 23.5246 84.207 22.5476C84.3525 21.8686 84.4253 21.0475 84.4253 20.0844V18.5046H83.3132V17.777H87.325V18.5046H85.132V19.8453H87.0236ZM88.645 18.1408C88.354 18.7298 88.0179 19.2425 87.6368 19.679C87.5537 19.6097 87.4567 19.53 87.3458 19.44C87.2142 19.336 87.1068 19.2598 87.0236 19.2113C87.7581 18.4561 88.2916 17.4029 88.6242 16.0517L89.3725 16.1869C89.2686 16.5679 89.13 16.9837 88.9568 17.4341H92.5425V18.1408H88.645ZM92.5529 20.7184C92.0609 21.2034 91.5205 21.6503 90.9315 22.0591C91.3611 23.3409 91.9466 24.2417 92.688 24.7614C92.4732 24.9277 92.2965 25.1355 92.1579 25.385C90.9384 24.4704 90.1278 22.6134 89.7259 19.8141L89.2582 19.9285L88.7801 20.0428V24.2833L90.3391 23.5973C90.3529 23.8537 90.3911 24.0823 90.4534 24.2833C88.9914 24.9623 88.2015 25.3607 88.0837 25.4785C88.0491 25.4023 87.9902 25.2984 87.907 25.1667C87.8239 25.0558 87.7511 24.9658 87.6888 24.8965C87.7858 24.8133 87.862 24.7163 87.9174 24.6055C88.0006 24.4461 88.0422 24.259 88.0422 24.0442V19.5647C89.6774 19.2182 90.9038 18.8441 91.7214 18.4422L92.345 18.9827C91.7976 19.2182 91.1428 19.44 90.3807 19.6478C90.4915 20.3823 90.6093 20.9678 90.734 21.4043C91.2745 20.9609 91.6937 20.5728 91.9916 20.2403L92.5529 20.7184ZM94.538 25.3122C95.3625 24.9727 95.7991 24.4634 95.8476 23.7844C95.806 23.7913 95.7471 23.7948 95.6709 23.7948C95.4492 23.7948 95.2655 23.7324 95.12 23.6077C94.9676 23.4761 94.8914 23.2924 94.8914 23.0569C94.8914 22.8213 94.9711 22.6342 95.1304 22.4956C95.2759 22.3709 95.4595 22.3085 95.6813 22.3085C96.2702 22.3085 96.5647 22.707 96.5647 23.5038C96.5647 24.0581 96.4019 24.5431 96.0762 24.9588C95.7575 25.3676 95.321 25.6691 94.7667 25.8631L94.538 25.3122ZM112.072 24.5535C112.328 24.5535 112.494 24.453 112.57 24.2521C112.64 24.065 112.692 23.6146 112.726 22.901C112.81 22.9633 112.927 23.0257 113.08 23.088C113.218 23.1504 113.347 23.1954 113.464 23.2232C113.409 24.0616 113.298 24.6159 113.132 24.8861C112.952 25.1632 112.616 25.3018 112.124 25.3018H110.19C109.657 25.3018 109.297 25.2187 109.109 25.0524C108.929 24.8861 108.839 24.5708 108.839 24.1066V20.5625H108.621C108.108 22.9876 106.733 24.6505 104.495 25.5513C104.432 25.4404 104.356 25.3295 104.266 25.2187C104.162 25.087 104.065 24.9866 103.975 24.9173C106.04 24.1343 107.332 22.6827 107.852 20.5625H104.11V19.8037H107.987C108.042 19.4642 108.084 19.0762 108.112 18.6397L108.153 18.0681L108.174 17.5068H104.755V16.7585H112.778V17.5068H108.933C108.912 18.3591 108.85 19.1247 108.746 19.8037H113.371V20.5625H109.629V24.1066C109.629 24.2867 109.667 24.408 109.743 24.4704C109.827 24.5258 110 24.5535 110.263 24.5535H112.072ZM116.925 16.1557C117.424 16.7585 117.781 17.3371 117.996 17.8914L117.31 18.2655C117.102 17.6974 116.759 17.1015 116.281 16.4779L116.925 16.1557ZM119.783 21.633C120.608 23.2335 121.97 24.2694 123.868 24.7406C123.626 24.9692 123.445 25.2117 123.328 25.4681C121.505 24.9415 120.154 23.8571 119.274 22.215C118.72 23.6285 117.299 24.7337 115.013 25.5305C114.951 25.4196 114.871 25.3053 114.774 25.1875C114.663 25.042 114.559 24.9346 114.462 24.8653C116.776 24.0754 118.138 22.998 118.547 21.633H114.67V20.8743H118.703C118.716 20.5971 118.723 20.3996 118.723 20.2818V19.0242H115.294V18.2655H120.158C120.608 17.5726 120.989 16.8486 121.301 16.0933L122.122 16.3843C121.699 17.1396 121.322 17.7666 120.989 18.2655H123.047V19.0242H119.586V20.2922C119.586 20.4169 119.579 20.611 119.565 20.8743H123.608V21.633H119.783ZM125.874 19.1282H125.126V17.1846H129.345C129.221 16.8659 129.065 16.5333 128.878 16.1869L129.668 15.979C129.931 16.4363 130.128 16.8312 130.26 17.1638L130.198 17.1846H133.908V19.1282H133.139V17.9018H125.874V19.1282ZM131.715 22.3085C131.937 22.5857 132.124 22.8247 132.276 23.0257C132.491 23.3028 132.685 23.5523 132.858 23.774C133.288 24.3491 133.603 24.7995 133.804 25.1251L133.118 25.5513C133.007 25.3503 132.844 25.0905 132.63 24.7718C129.463 25.0697 127.779 25.2603 127.578 25.3434C127.551 25.2533 127.513 25.1355 127.464 24.99C127.409 24.8237 127.36 24.6955 127.319 24.6055C127.478 24.5778 127.714 24.3595 128.025 23.9507C128.212 23.7359 128.479 23.3548 128.826 22.8074C129.234 22.163 129.577 21.5464 129.855 20.9574L130.655 21.2276C130.031 22.3986 129.338 23.4691 128.576 24.4392L132.183 24.1378C132.023 23.9091 131.84 23.6562 131.632 23.3791C131.486 23.192 131.303 22.9564 131.081 22.6723L131.715 22.3085ZM134.043 19.731V20.4689H128.545C127.721 22.3951 126.681 23.9057 125.427 25.0004C125.365 24.9311 125.261 24.8307 125.115 24.699C124.991 24.5881 124.876 24.4946 124.772 24.4184C125.957 23.4968 126.927 22.1804 127.682 20.4689H124.98V19.731H127.984C128.164 19.2529 128.33 18.7471 128.483 18.2136L129.273 18.4006C129.162 18.8094 129.013 19.2529 128.826 19.731H134.043ZM140.549 19.8141C141.36 22.357 142.722 24.02 144.634 24.8029C144.405 25.0177 144.211 25.2603 144.052 25.5305C142.181 24.6436 140.802 22.9287 139.915 20.3858C139.306 22.8317 137.923 24.5466 135.768 25.5305C135.637 25.288 135.443 25.0766 135.186 24.8965C137.348 23.9542 138.696 22.26 139.229 19.8141H135.394V19.0242H139.354C139.423 18.5531 139.468 18.0265 139.489 17.4444C139.496 17.2366 139.5 16.9975 139.5 16.7273L139.51 16.3947V16.0725H140.342V16.3947L140.331 16.7273C140.324 16.9906 140.317 17.2331 140.31 17.4548C140.283 18.023 140.238 18.5461 140.175 19.0242H144.468V19.8141H140.549ZM146.505 25.3122C147.329 24.9727 147.766 24.4634 147.814 23.7844C147.773 23.7913 147.714 23.7948 147.638 23.7948C147.416 23.7948 147.232 23.7324 147.087 23.6077C146.934 23.4761 146.858 23.2924 146.858 23.0569C146.858 22.8213 146.938 22.6342 147.097 22.4956C147.243 22.3709 147.426 22.3085 147.648 22.3085C148.237 22.3085 148.531 22.707 148.531 23.5038C148.531 24.0581 148.369 24.5431 148.043 24.9588C147.724 25.3676 147.288 25.6691 146.733 25.8631L146.505 25.3122ZM164.038 24.5535C164.295 24.5535 164.461 24.453 164.537 24.2521C164.607 24.065 164.658 23.6146 164.693 22.901C164.776 22.9633 164.894 23.0257 165.047 23.088C165.185 23.1504 165.313 23.1954 165.431 23.2232C165.376 24.0616 165.265 24.6159 165.098 24.8861C164.918 25.1632 164.582 25.3018 164.09 25.3018H162.157C161.624 25.3018 161.263 25.2187 161.076 25.0524C160.896 24.8861 160.806 24.5708 160.806 24.1066V20.5625H160.588C160.075 22.9876 158.7 24.6505 156.462 25.5513C156.399 25.4404 156.323 25.3295 156.233 25.2187C156.129 25.087 156.032 24.9866 155.942 24.9173C158.007 24.1343 159.299 22.6827 159.819 20.5625H156.077V19.8037H159.954C160.009 19.4642 160.051 19.0762 160.078 18.6397L160.12 18.0681L160.141 17.5068H156.721V16.7585H164.745V17.5068H160.9C160.879 18.3591 160.816 19.1247 160.712 19.8037H165.338V20.5625H161.596V24.1066C161.596 24.2867 161.634 24.408 161.71 24.4704C161.793 24.5258 161.967 24.5535 162.23 24.5535H164.038ZM168.892 16.1557C169.391 16.7585 169.748 17.3371 169.963 17.8914L169.277 18.2655C169.069 17.6974 168.726 17.1015 168.248 16.4779L168.892 16.1557ZM171.75 21.633C172.575 23.2335 173.936 24.2694 175.835 24.7406C175.592 24.9692 175.412 25.2117 175.294 25.4681C173.472 24.9415 172.121 23.8571 171.241 22.215C170.687 23.6285 169.266 24.7337 166.98 25.5305C166.917 25.4196 166.838 25.3053 166.741 25.1875C166.63 25.042 166.526 24.9346 166.429 24.8653C168.743 24.0754 170.105 22.998 170.513 21.633H166.637V20.8743H170.669C170.683 20.5971 170.69 20.3996 170.69 20.2818V19.0242H167.26V18.2655H172.124C172.575 17.5726 172.956 16.8486 173.268 16.0933L174.089 16.3843C173.666 17.1396 173.288 17.7666 172.956 18.2655H175.014V19.0242H171.553V20.2922C171.553 20.4169 171.546 20.611 171.532 20.8743H175.575V21.633H171.75ZM180.803 18.9515H180.096V17.2158H182.705C182.636 16.9109 182.518 16.5749 182.351 16.2076L183.006 16.0102C183.242 16.4398 183.387 16.8416 183.443 17.2158H186.031V18.9515H185.293V17.881H180.803V18.9515ZM181.395 23.2128H184.513V22.2358H181.395V23.2128ZM181.395 21.6642H184.513V20.6872H181.395V21.6642ZM180.678 20.0948H185.262V23.8156H180.678V20.0948ZM185.116 18.702V19.3464H180.907V18.702H185.116ZM177.758 17.7562V22.0903H178.942V17.7562H177.758ZM179.67 22.8074H177.758V23.7948H177.051V17.0391H179.67V22.8074ZM186.187 24.5951V25.3018H179.784V24.5951H186.187ZM194.99 16.9144H192.921V17.777H194.99V16.9144ZM195.686 18.2551H192.256V16.4363H195.686V18.2551ZM190.78 16.9144H188.785V17.777H190.78V16.9144ZM191.477 18.2551H188.109V16.4363H191.477V18.2551ZM192.173 20.6352C191.951 21.439 191.508 22.0314 190.843 22.4125C190.157 22.8143 189.052 23.0984 187.527 23.2647C187.479 23.0569 187.378 22.8559 187.226 22.6619C188.632 22.5372 189.644 22.3189 190.261 22.0071C190.843 21.7161 191.231 21.2588 191.425 20.6352H192.173ZM188.681 23.7636V24.6574H190.78V23.7636H188.681ZM188.005 23.2543H191.477V25.5617H190.78V25.1667H188.681V25.5617H188.005V23.2543ZM192.963 23.7636V24.647H195.083V23.7636H192.963ZM192.277 23.2543H195.79V25.5305H195.083V25.1563H192.963V25.5305H192.277V23.2543ZM192.194 21.4251C193.864 21.8339 195.25 22.2808 196.351 22.7658L195.988 23.3271C194.893 22.8213 193.514 22.3501 191.851 21.9136L192.194 21.4251ZM196.362 18.702V19.2841H192.121C192.066 19.4573 191.986 19.6582 191.882 19.8869H195.26V21.9448H194.48V20.4585H189.232V21.9967H188.473V19.8869H191.134C191.217 19.6236 191.272 19.4227 191.3 19.2841H187.371V18.702H196.362ZM198.472 25.3122C199.296 24.9727 199.733 24.4634 199.781 23.7844C199.74 23.7913 199.681 23.7948 199.604 23.7948C199.383 23.7948 199.199 23.7324 199.054 23.6077C198.901 23.4761 198.825 23.2924 198.825 23.0569C198.825 22.8213 198.905 22.6342 199.064 22.4956C199.209 22.3709 199.393 22.3085 199.615 22.3085C200.204 22.3085 200.498 22.707 200.498 23.5038C200.498 24.0581 200.335 24.5431 200.01 24.9588C199.691 25.3676 199.254 25.6691 198.7 25.8631L198.472 25.3122ZM214.269 22.4437C215.614 23.4483 216.604 24.3283 217.242 25.0836L216.535 25.5513C215.905 24.7683 214.931 23.8675 213.615 22.849L214.269 22.4437ZM211.754 22.7866C210.944 23.8675 209.897 24.7995 208.615 25.5824C208.539 25.5062 208.439 25.4127 208.314 25.3018C208.203 25.2048 208.099 25.1182 208.002 25.042C209.312 24.2937 210.292 23.4379 210.944 22.4748L211.754 22.7866ZM209.915 20.7703H215.392V17.5692H209.915V20.7703ZM216.203 16.8312V21.5186H209.135V16.8312H216.203ZM220.859 16.1557C221.358 16.7585 221.715 17.3371 221.929 17.8914L221.243 18.2655C221.035 17.6974 220.693 17.1015 220.214 16.4779L220.859 16.1557ZM223.717 21.633C224.542 23.2335 225.903 24.2694 227.802 24.7406C227.559 24.9692 227.379 25.2117 227.261 25.4681C225.439 24.9415 224.088 23.8571 223.208 22.215C222.653 23.6285 221.233 24.7337 218.946 25.5305C218.884 25.4196 218.804 25.3053 218.707 25.1875C218.597 25.042 218.493 24.9346 218.396 24.8653C220.71 24.0754 222.071 22.998 222.48 21.633H218.603V20.8743H222.636C222.65 20.5971 222.657 20.3996 222.657 20.2818V19.0242H219.227V18.2655H224.091C224.542 17.5726 224.923 16.8486 225.234 16.0933L226.055 16.3843C225.633 17.1396 225.255 17.7666 224.923 18.2655H226.98V19.0242H223.52V20.2922C223.52 20.4169 223.513 20.611 223.499 20.8743H227.542V21.633H223.717ZM238.07 21.7161H233.944V24.5015C233.944 25.0004 233.757 25.3053 233.383 25.4162C233.106 25.5132 232.392 25.5617 231.242 25.5617C231.207 25.4439 231.159 25.3122 231.096 25.1667C231.027 25.0073 230.961 24.8757 230.899 24.7718C231.266 24.7856 231.664 24.7925 232.094 24.7925H232.822C233.029 24.7856 233.133 24.6852 233.133 24.4911V21.7161H228.851V20.9366H233.133V17.4964C232.046 17.5934 230.902 17.6592 229.704 17.6939C229.697 17.5969 229.672 17.4756 229.631 17.3301C229.596 17.2193 229.558 17.1084 229.516 16.9975C232.808 16.8728 235.215 16.6095 236.74 16.2076L237.145 16.904C236.258 17.1257 235.191 17.2955 233.944 17.4133V20.9366H238.07V21.7161ZM230.67 18.0265C231.176 18.8857 231.512 19.634 231.678 20.2714L230.972 20.5521C230.819 19.9285 230.493 19.1628 229.995 18.2551L230.67 18.0265ZM235.233 20.2714C235.697 19.4954 236.071 18.6847 236.355 17.8394L237.176 18.12C237.045 18.3833 236.937 18.5946 236.854 18.754C236.729 18.9965 236.615 19.2113 236.511 19.3984C236.255 19.8834 236.037 20.261 235.856 20.5313L235.233 20.2714ZM239.13 25.281C239.657 24.7198 240.107 24.0546 240.481 23.2855L241.199 23.483C240.755 24.356 240.305 25.0524 239.847 25.5721L239.13 25.281ZM241.635 20.365V22.1319C241.635 22.5129 241.514 22.7555 241.271 22.8594C241.084 22.9495 240.634 22.9945 239.92 22.9945C239.879 22.7451 239.802 22.5129 239.692 22.2981C239.892 22.3051 240.111 22.3085 240.346 22.3085H240.731C240.856 22.3016 240.918 22.2427 240.918 22.1319V20.5625L240.492 20.6872L240.087 20.8015C239.782 20.8916 239.536 20.9643 239.349 21.0198L239.151 20.2714C239.518 20.1883 240.107 20.0393 240.918 19.8245V18.224H239.369V17.4964H240.918V16.0621H241.635V17.4964H242.841V18.224H241.635V19.6271L242.248 19.4608L242.862 19.2945L242.945 19.9908L241.635 20.365ZM242.934 23.5142C243.094 24.2348 243.18 24.8514 243.194 25.3642L242.435 25.4785C242.435 24.9588 242.366 24.3283 242.228 23.5869L242.934 23.5142ZM245.065 23.431C245.391 24.0962 245.616 24.7198 245.74 25.3018L244.982 25.4681C244.885 24.9415 244.677 24.3075 244.358 23.5661L245.065 23.431ZM245.2 18.2136C245.158 19.1143 245.061 19.8488 244.909 20.4169C245.588 20.8535 246.059 21.1791 246.323 21.3939L245.928 22.0071C245.664 21.7785 245.255 21.4701 244.701 21.0821C244.362 21.9136 243.783 22.5614 242.965 23.0257C242.841 22.797 242.678 22.6099 242.477 22.4644C243.246 22.0487 243.78 21.4494 244.078 20.6664C243.939 20.5832 243.762 20.4724 243.547 20.3338L243.288 20.1779L243.038 20.022L243.412 19.5023L243.62 19.6271L243.828 19.7518L244.265 20.0012C244.369 19.5162 244.438 18.9203 244.473 18.2136H243.09V17.5484H244.493C244.507 16.9248 244.514 16.4224 244.514 16.0413H245.252L245.242 16.4363V16.8208C245.235 17.1188 245.228 17.3613 245.221 17.5484H247.331C247.289 19.3845 247.289 20.5936 247.331 21.1757C247.393 21.9863 247.552 22.3882 247.809 22.3813C247.975 22.3813 248.072 22.0037 248.1 21.2484C248.266 21.3731 248.467 21.4771 248.703 21.5602C248.661 22.1422 248.574 22.5407 248.443 22.7555C248.311 22.9702 248.089 23.0776 247.778 23.0776C247.216 23.0776 246.863 22.6481 246.717 21.7889C246.614 21.2207 246.572 20.0289 246.593 18.2136H245.2ZM247.164 23.2128C247.83 24.0096 248.294 24.6886 248.557 25.2499L247.85 25.5928C247.559 24.9762 247.105 24.2833 246.489 23.5142L247.164 23.2128ZM257.973 16.8208C256.033 17.1326 253.494 17.3093 250.355 17.3509C250.334 17.1638 250.282 16.9594 250.199 16.7377C253.38 16.6753 255.888 16.4952 257.724 16.1972L257.973 16.8208ZM250.584 20.3234H249.929V18.5877H251.737C251.647 18.3036 251.523 17.9641 251.363 17.5692L251.935 17.3509C252.164 17.8567 252.326 18.269 252.423 18.5877H254.076C254.034 18.4353 253.979 18.2482 253.91 18.0265C253.854 17.8602 253.792 17.6766 253.723 17.4756L254.305 17.2885C254.485 17.6835 254.641 18.1166 254.772 18.5877H255.843C256.148 18.1373 256.414 17.6489 256.643 17.1223L257.329 17.3509C257.142 17.6766 256.882 18.0888 256.55 18.5877H258.576V20.3234H257.901V19.2529H250.584V20.3234ZM253.255 22.5892C253.691 23.0257 254.249 23.4102 254.928 23.7428C255.538 23.4033 256.016 23.0188 256.363 22.5892H253.255ZM257.423 22.1942C257.035 22.9148 256.449 23.5315 255.666 24.0442C256.546 24.3699 257.544 24.5985 258.659 24.7302C258.59 24.8064 258.514 24.9138 258.431 25.0524C258.361 25.1771 258.299 25.2949 258.244 25.4058C257.003 25.2325 255.895 24.9207 254.918 24.4704C254.086 24.8861 253.13 25.1944 252.049 25.3954C252.022 25.3053 251.973 25.1944 251.904 25.0628C251.828 24.9311 251.758 24.8307 251.696 24.7614C252.631 24.602 253.463 24.3768 254.19 24.0858C253.539 23.6978 252.995 23.2474 252.559 22.7347C251.963 23.8987 251.107 24.8029 249.991 25.4473C249.943 25.3711 249.87 25.2706 249.773 25.1459C249.669 25.0143 249.583 24.9173 249.513 24.8549C250.927 24.1066 251.911 22.8525 252.465 21.0925H250.677V20.4273H252.652C252.728 20.1363 252.791 19.8349 252.839 19.5231L253.577 19.6167C253.536 19.8315 253.477 20.1017 253.4 20.4273H257.807V21.0925H253.213C253.158 21.3212 253.064 21.5983 252.933 21.924H256.872L256.996 21.8928L257.423 22.1942ZM266.486 23.0153H260.063V22.267H266.486V23.0153ZM268.647 20.0844C268.641 20.2645 268.63 20.3892 268.616 20.4585C268.36 23.0984 268.01 24.6297 267.567 25.0524C267.352 25.2741 267.03 25.3954 266.6 25.4162C266.122 25.4439 265.505 25.43 264.75 25.3746C264.722 25.0905 264.625 24.8376 264.459 24.6159C264.805 24.6505 265.186 24.6713 265.602 24.6782C265.755 24.6852 265.907 24.6886 266.059 24.6886H266.371C266.642 24.6886 266.818 24.647 266.901 24.5639C267.276 24.2798 267.573 23.0291 267.795 20.8119H261.809L261.164 20.8015C261.511 19.582 261.84 18.075 262.152 16.2804L262.931 16.3635L262.879 16.6338L262.827 16.9144C262.779 17.1569 262.741 17.3474 262.713 17.486H268.492V18.224H262.567L262.463 18.7124L262.359 19.1905C262.276 19.5578 262.207 19.8557 262.152 20.0844H268.647ZM275.424 17.2054C275.722 17.9814 276.155 18.657 276.723 19.2321C277.34 18.6501 277.804 17.9745 278.116 17.2054H275.424ZM279.051 16.6753C278.712 17.8948 278.123 18.9064 277.284 19.7102C277.97 20.2299 278.781 20.5971 279.716 20.8119C279.633 20.902 279.547 21.0094 279.457 21.1341C279.353 21.2727 279.273 21.3939 279.217 21.4979C278.247 21.2207 277.416 20.7911 276.723 20.2091C276.106 20.701 275.362 21.0994 274.489 21.4043C274.385 21.141 274.243 20.9193 274.062 20.7391C274.831 20.5243 275.538 20.1744 276.183 19.6894C275.566 19.0104 275.091 18.1928 274.759 17.2366L274.863 17.2054H274.405V16.5298H278.438L278.573 16.4987L279.051 16.6753ZM273.688 21.3627H272.981V16.27H273.688V21.3627ZM271.734 20.9678H271.028V16.7481H271.734V20.9678ZM275.382 24.5327H279.654V25.2187H270.414V24.5327H274.613V23.0361H271.454V22.3709H274.613V21.5914H275.382V22.3709H278.573V23.0361H275.382V24.5327ZM281.878 19.3672H281.109V17.3093H285.235C285.083 16.9213 284.906 16.5541 284.705 16.2076L285.443 16.0206C285.734 16.464 285.949 16.8936 286.087 17.3093H289.684V19.3672H288.883V18.0473H281.878V19.3672ZM282.72 21.3627C283.538 22.1457 284.113 22.8629 284.445 23.5142L283.801 23.9507C283.468 23.2786 282.911 22.5441 282.128 21.7473L282.72 21.3627ZM289.964 20.8327H287.324V24.4911C287.324 24.9554 287.158 25.2395 286.825 25.3434C286.562 25.4335 285.904 25.4785 284.851 25.4785C284.816 25.2291 284.726 24.9727 284.58 24.7094C284.913 24.7233 285.263 24.7302 285.63 24.7302C285.914 24.7302 286.129 24.7267 286.275 24.7198C286.448 24.7198 286.534 24.6401 286.534 24.4807V20.8327H280.86V20.074H286.534V18.6189H287.324V20.074H289.964V20.8327ZM292.625 22.215C293.068 22.215 293.443 22.3674 293.747 22.6723C294.059 22.9841 294.215 23.3583 294.215 23.7948C294.215 24.2382 294.059 24.6124 293.747 24.9173C293.443 25.2291 293.068 25.385 292.625 25.385C292.195 25.385 291.825 25.2291 291.513 24.9173C291.201 24.6055 291.045 24.2313 291.045 23.7948C291.045 23.3583 291.201 22.9841 291.513 22.6723C291.825 22.3674 292.195 22.215 292.625 22.215ZM292.625 24.8549C292.923 24.8549 293.172 24.751 293.373 24.5431C293.581 24.3422 293.685 24.0927 293.685 23.7948C293.685 23.5038 293.581 23.2578 293.373 23.0569C293.172 22.849 292.923 22.7451 292.625 22.7451C292.341 22.7451 292.095 22.849 291.887 23.0569C291.679 23.2647 291.575 23.5107 291.575 23.7948C291.575 24.0858 291.679 24.3352 291.887 24.5431C292.095 24.751 292.341 24.8549 292.625 24.8549ZM1.59025 35.3776C1.59025 36.5417 1.53482 37.5706 1.42396 38.4644C1.26459 39.7532 0.994365 40.7995 0.613275 41.6032C0.550915 41.5339 0.45391 41.4543 0.322261 41.3642C0.183683 41.2741 0.0762852 41.2117 6.73187e-05 41.1771C0.353441 40.4149 0.599417 39.4414 0.737995 38.2566C0.793427 37.7993 0.831536 37.2969 0.852322 36.7495C0.86618 36.3477 0.873109 35.8904 0.873109 35.3776V32.4779H9.09425V33.1119H1.59025V35.3776ZM7.71194 34.3175H3.21161V34.9619H7.71194V34.3175ZM7.71194 35.44H3.21161V36.0844H7.71194V35.44ZM8.46026 36.5728H5.76838V37.7577C5.76838 38.0695 5.65405 38.2704 5.4254 38.3605C5.25218 38.4229 4.82605 38.454 4.14702 38.454C4.12623 38.3709 4.09158 38.2739 4.04308 38.163C4.00151 38.073 3.95301 37.9794 3.89757 37.8824C4.42417 37.8963 4.75676 37.8963 4.89534 37.8824C4.99927 37.8824 5.05124 37.8374 5.05124 37.7473V36.5728H2.50487V33.829H4.76022L4.81219 33.6419L4.85376 33.4652C4.88841 33.3267 4.91266 33.2158 4.92652 33.1326L5.78916 33.2782L5.65405 33.5588L5.52933 33.829H8.46026V36.5728ZM5.2695 38.6203C5.78224 39.0915 6.17372 39.4899 6.44395 39.8156L5.91389 40.1897C5.66444 39.8571 5.27643 39.4414 4.74983 38.9425L5.2695 38.6203ZM4.09505 36.9678C3.54074 37.5083 2.94485 37.9898 2.30739 38.4125C2.24503 38.3432 2.15842 38.2635 2.04756 38.1734C1.92977 38.0764 1.8293 38.0037 1.74615 37.9552C2.36975 37.6087 2.93446 37.2034 3.44027 36.7391L4.09505 36.9678ZM8.44986 38.4229C7.98563 38.0487 7.35856 37.6156 6.56867 37.1237L7.04676 36.7184C7.83666 37.1618 8.47065 37.5741 8.94874 37.9552L8.44986 38.4229ZM1.44474 40.8237C1.76347 40.3664 2.0337 39.7324 2.25542 38.9217L2.82706 39.14C2.70234 39.5419 2.58801 39.8779 2.48408 40.1482C2.33857 40.5431 2.19306 40.8549 2.04756 41.0836L1.44474 40.8237ZM6.56867 40.751C6.79039 40.751 6.93243 40.6955 6.99479 40.5847C7.05715 40.4669 7.09873 40.1863 7.11951 39.7428C7.29274 39.8675 7.50407 39.9507 7.75351 39.9923C7.71194 40.5535 7.61493 40.9277 7.46249 41.1147C7.31699 41.2949 7.03983 41.385 6.63103 41.385H4.6459C4.13316 41.385 3.78671 41.3226 3.60656 41.1979C3.43334 41.0732 3.34673 40.8307 3.34673 40.4704V38.9529H4.03269V40.46C4.03269 40.5847 4.0708 40.6644 4.14702 40.699C4.22323 40.7337 4.39992 40.751 4.67708 40.751H6.56867ZM8.11728 38.7555C8.65773 39.4345 9.07346 40.0165 9.36448 40.5015L8.74088 40.8029C8.44986 40.2763 8.04452 39.6701 7.52485 38.9841L8.11728 38.7555ZM18.916 34.5046C18.5487 33.9503 18.0048 33.3613 17.2842 32.7377L17.8766 32.3324C18.618 32.956 19.1723 33.5311 19.5396 34.0577L18.916 34.5046ZM19.2901 36.604C18.8259 37.4771 18.2231 38.2912 17.4817 39.0465C17.9043 40.2175 18.3651 40.8029 18.864 40.8029C19.1204 40.8029 19.2763 40.1828 19.3317 38.9425C19.5326 39.1365 19.7509 39.2751 19.9865 39.3583C19.9172 40.2175 19.7959 40.7995 19.6227 41.1044C19.4564 41.4162 19.1793 41.5721 18.7912 41.5721C18.0221 41.5721 17.3812 40.9242 16.8685 39.6285C16.1756 40.2452 15.4446 40.7544 14.6755 41.1563C14.5369 40.9277 14.3602 40.7233 14.1454 40.5431C15.06 40.0997 15.8811 39.5384 16.6086 38.8594C16.3592 37.9933 16.1652 36.9886 16.0266 35.8453H13.5842V37.5083L14.5196 37.3004L15.4446 37.1029L15.4966 37.7993L14.5404 38.0279L13.5842 38.2462V40.5535C13.5842 41.0039 13.4352 41.288 13.1373 41.4058C12.8878 41.5028 12.3127 41.5513 11.412 41.5513C11.3635 41.3088 11.2665 41.0489 11.121 40.7718C11.4189 40.7856 11.7238 40.7925 12.0356 40.7925C12.2781 40.7925 12.4582 40.7891 12.576 40.7822C12.7423 40.7822 12.8255 40.7025 12.8255 40.5431V38.4333C12.5414 38.4956 12.1638 38.5788 11.6926 38.6827L11.4224 38.7451L11.1625 38.8074C10.9754 38.849 10.8126 38.8836 10.674 38.9114L10.4558 38.1319C10.7329 38.0833 11.0932 38.0141 11.5367 37.924C11.7099 37.8963 11.9178 37.8547 12.1603 37.7993L12.4929 37.7369L12.8255 37.6642V35.8453H10.6013V35.1074H12.8255V33.4548C12.2226 33.5726 11.5852 33.6766 10.9131 33.7666C10.8646 33.5518 10.7814 33.3371 10.6636 33.1223C12.4444 32.852 13.8128 32.5402 14.769 32.1869L15.3199 32.8208C14.8071 33.001 14.2286 33.1604 13.5842 33.2989V35.1074H15.9643C15.8811 34.2413 15.8326 33.2539 15.8188 32.1453H16.6086C16.6086 33.1915 16.6502 34.1789 16.7334 35.1074H19.789V35.8453H16.8165C16.9204 36.7253 17.0625 37.5152 17.2426 38.215C17.797 37.6191 18.2508 36.9886 18.6042 36.3234L19.2901 36.604ZM23.4579 32.3116C23.2639 33.0045 23.0006 33.7424 22.668 34.5254V41.5409H21.9196V36.0324C21.691 36.4343 21.4519 36.798 21.2025 37.1237C21.1679 37.0267 21.109 36.895 21.0258 36.7287C20.9288 36.5555 20.8491 36.4273 20.7868 36.3442C21.5905 35.3118 22.2453 33.9018 22.7511 32.1141L23.4579 32.3116ZM23.9152 34.1408H24.6635V41.5513H23.9152V34.1408ZM24.9441 32.0621C25.5261 32.852 25.9384 33.5137 26.1809 34.0473L25.5469 34.411C25.2906 33.8013 24.8887 33.1257 24.3413 32.3843L24.9441 32.0621ZM29.9225 40.5639C29.9225 40.9935 29.784 41.2672 29.5068 41.385C29.2851 41.475 28.7342 41.5201 27.8543 41.5201C27.8196 41.2845 27.7365 41.0385 27.6048 40.7822C27.8681 40.796 28.1418 40.8029 28.4259 40.8029C28.6545 40.8029 28.8243 40.7995 28.9352 40.7925C29.0876 40.7856 29.1638 40.7059 29.1638 40.5535V33.143H26.3576V32.4363H29.9225V40.5639ZM36.2313 35.8453C35.8987 35.0831 35.379 34.2586 34.6723 33.3717L35.3271 33.0287C36.0615 33.9087 36.5951 34.7124 36.9276 35.44L36.2313 35.8453ZM35.7012 37.9032C35.7151 38.0071 35.7428 38.1353 35.7844 38.2878C35.819 38.3986 35.8571 38.5129 35.8987 38.6307C33.7161 39.677 32.507 40.3041 32.2714 40.5119C32.2437 40.4288 32.1814 40.3179 32.0843 40.1793C32.0012 40.0616 31.9215 39.9611 31.8453 39.8779C31.9077 39.8433 31.97 39.7983 32.0324 39.7428C32.1086 39.6805 32.1779 39.6146 32.2402 39.5453C32.3927 39.3513 32.4689 39.1504 32.4689 38.9425V32.8624H33.29V39.0257L35.7012 37.9032ZM40.108 41.5201C39.6715 40.8203 38.9717 39.9957 38.0086 39.0465C37.3434 40.1343 36.3283 40.99 34.9633 41.6136C34.9079 41.5305 34.8213 41.4196 34.7035 41.281C34.5857 41.1355 34.4817 41.0247 34.3917 40.9485C35.9645 40.3248 37.0628 39.3202 37.6864 37.9344C38.213 36.7703 38.5421 34.948 38.6737 32.4675L39.4844 32.509C39.325 35.149 38.9544 37.0994 38.3723 38.3605C39.4809 39.4206 40.2812 40.3075 40.7732 41.0212L40.108 41.5201ZM46.9988 33.59C46.9988 34.8787 46.3925 35.8141 45.18 36.3962C45.1315 36.3199 45.0553 36.2195 44.9513 36.0948C44.8405 35.97 44.7504 35.88 44.6811 35.8245C45.7412 35.3395 46.2713 34.5877 46.2713 33.5692V32.4259H49.5556V34.8372C49.5556 35.0935 49.6179 35.2217 49.7427 35.2217H50.4598C50.6469 35.2217 50.8097 35.2044 50.9483 35.1697C50.9621 35.4123 50.9864 35.634 51.021 35.8349C50.9102 35.8696 50.7266 35.8869 50.4702 35.8869H49.6907C49.3512 35.8869 49.1191 35.8037 48.9943 35.6374C48.8835 35.4919 48.828 35.2182 48.828 34.8164V33.1534H46.9988V33.59ZM44.0367 34.3383C43.6625 33.8533 43.1359 33.3128 42.4569 32.7169L42.9558 32.2492C43.6625 32.8243 44.1961 33.3371 44.5564 33.7874L44.0367 34.3383ZM45.0033 38.9321C45.0864 39.1885 45.18 39.3998 45.2839 39.5661C43.912 40.5778 43.1533 41.1667 43.0078 41.333C42.9662 41.2429 42.9073 41.1321 42.8311 41.0004C42.741 40.8618 42.6613 40.7579 42.592 40.6886C42.7167 40.6055 42.8276 40.4911 42.9246 40.3456C43.0493 40.1586 43.1117 39.9611 43.1117 39.7532V36.0428H41.6566V35.3049H43.86V39.7532L45.0033 38.9321ZM46.2817 37.342C46.6489 38.118 47.1894 38.804 47.903 39.3998C48.6236 38.8247 49.1641 38.1388 49.5244 37.342H46.2817ZM50.5014 36.8015C50.1203 38.021 49.4551 39.0326 48.5058 39.8364C49.2472 40.3214 50.1272 40.6748 51.1458 40.8965C50.9656 41.0697 50.8062 41.2984 50.6677 41.5824C49.5868 41.3191 48.6583 40.8965 47.8822 40.3145C47.127 40.8341 46.202 41.2499 45.1072 41.5617C45.0379 41.333 44.9097 41.1044 44.7227 40.8757C45.6858 40.654 46.5415 40.3075 47.2898 39.8364C46.5623 39.1573 45.9837 38.3432 45.5541 37.3939L45.6996 37.342H45.1696V36.6144H49.8882L50.0233 36.5832L50.5014 36.8015ZM54.6483 34.3591C54.2811 33.881 53.7372 33.3405 53.0166 32.7377L53.5154 32.2388C54.243 32.8208 54.7938 33.3371 55.168 33.7874L54.6483 34.3591ZM55.7604 38.8594C55.7812 38.9425 55.8228 39.0603 55.8851 39.2128L55.9475 39.3894L55.9787 39.4726L56.0098 39.535C54.5548 40.5674 53.758 41.1736 53.6194 41.3538C53.5847 41.2499 53.5258 41.1251 53.4427 40.9796C53.3595 40.8411 53.2833 40.7302 53.214 40.647C53.3457 40.557 53.4531 40.4496 53.5362 40.3248C53.654 40.1586 53.7129 39.9784 53.7129 39.7844V36.0636H52.0812V35.3049H54.4924V39.7116L55.7604 38.8594ZM61.4975 36.2714H58.868V41.5513H58.0677V36.2714H55.4278V35.4919H58.0677V32.0933H58.868V35.4919H61.4975V36.2714ZM64.7507 34.2136C64.5359 33.7493 64.1756 33.2262 63.6697 32.6442L64.3349 32.3531C64.8199 32.8867 65.1941 33.3925 65.4574 33.8706L64.7507 34.2136ZM71.2881 34.5461C71.2811 34.7402 71.2777 34.8753 71.2777 34.9515C71.1945 37.0787 71.1079 38.5441 71.0178 39.3479C70.9139 40.2278 70.7649 40.7856 70.5709 41.0212C70.3631 41.2637 70.0755 41.3988 69.7083 41.4265C69.3272 41.4612 68.7798 41.4543 68.0661 41.4058C68.0384 41.1286 67.9483 40.8618 67.7959 40.6055C68.0938 40.6401 68.416 40.6609 68.7625 40.6678C68.8872 40.6748 69.0154 40.6782 69.147 40.6782H69.4069C69.6078 40.6782 69.7568 40.6263 69.8538 40.5223C70.1309 40.2452 70.3353 38.5095 70.467 35.3153H66.9021C66.5764 37.9344 65.3292 39.9645 63.1605 41.4058C63.0219 41.1979 62.821 41.0108 62.5577 40.8445C64.6086 39.5072 65.7935 37.6642 66.1122 35.3153H62.8487V34.5461H66.1953C66.223 34.1581 66.2369 33.7424 66.2369 33.2989V32.0829H67.006V33.3093C67.006 33.6974 66.9956 34.1096 66.9748 34.5461H71.2881ZM68.5442 38.9321C68.2601 38.3363 67.7924 37.6572 67.1411 36.895L67.7751 36.5832C68.4472 37.3177 68.9288 37.976 69.2198 38.558L68.5442 38.9321ZM74.4165 34.8995C74.271 35.7102 74.077 36.6387 73.8344 37.6849C74.1393 37.9136 74.4373 38.1526 74.7283 38.4021C75.0747 37.4805 75.3068 36.313 75.4246 34.8995H74.4165ZM75.726 40.5327C75.532 40.2486 75.2791 39.9472 74.9673 39.6285C74.5377 40.4322 73.9522 41.0662 73.2108 41.5305C73.1485 41.4265 73.0792 41.3226 73.003 41.2187C72.906 41.087 72.8194 40.9866 72.7431 40.9173C73.4291 40.5431 73.9903 39.9334 74.4269 39.088C73.9003 38.6099 73.4395 38.2289 73.0445 37.9448C73.2663 37.2242 73.4949 36.2091 73.7305 34.8995H72.9198V34.1928H73.8552C73.9938 33.2089 74.0839 32.4987 74.1255 32.0621L74.8218 32.1037C74.7387 32.8728 74.6417 33.5692 74.5308 34.1928H75.5909L75.726 34.172L76.1626 34.2343C76.0586 36.2022 75.7711 37.7646 75.2999 38.9217C75.7226 39.3236 76.0448 39.6805 76.2665 39.9923L75.726 40.5327ZM78.0126 36.3234H80.4758V35.3776H78.0126V36.3234ZM78.0126 33.8602V34.7748H80.4758V33.8602H78.0126ZM80.0601 38.558C80.7252 39.4934 81.5082 40.1863 82.409 40.6366C82.3189 40.7129 82.2219 40.8099 82.1179 40.9277C82.0071 41.0455 81.9239 41.1529 81.8685 41.2499C81.0647 40.744 80.3268 40.013 79.6547 39.0569V41.5513H78.9064V39.0361C78.262 40.0338 77.4756 40.7891 76.5471 41.3018C76.4847 41.2117 76.3981 41.1044 76.2873 40.9796C76.1903 40.8688 76.1002 40.7718 76.017 40.6886C77.0009 40.2452 77.8116 39.535 78.4491 38.558H76.4016V37.8928H78.9064V36.9678H77.3058V33.8602H76.3808V33.1846H77.3058V32.0517H78.0126V33.1846H80.4758V32.0517H81.2137V33.1846H82.1387V33.8602H81.2137V36.9678H79.6547V37.8928H82.1387V38.558H80.0601ZM84.1446 41.3122C84.9692 40.9727 85.4057 40.4634 85.4542 39.7844C85.4126 39.7913 85.3537 39.7948 85.2775 39.7948C85.0558 39.7948 84.8722 39.7324 84.7267 39.6077C84.5742 39.4761 84.498 39.2924 84.498 39.0569C84.498 38.8213 84.5777 38.6342 84.7371 38.4956C84.8826 38.3709 85.0662 38.3085 85.2879 38.3085C85.8769 38.3085 86.1714 38.707 86.1714 39.5038C86.1714 40.0581 86.0085 40.5431 85.6829 40.9588C85.3641 41.3676 84.9276 41.6691 84.3733 41.8631L84.1446 41.3122ZM98.5914 35.8453C98.2588 35.0831 97.7392 34.2586 97.0324 33.3717L97.6872 33.0287C98.4217 33.9087 98.9552 34.7124 99.2878 35.44L98.5914 35.8453ZM98.0614 37.9032C98.0752 38.0071 98.1029 38.1353 98.1445 38.2878C98.1791 38.3986 98.2173 38.5129 98.2588 38.6307C96.0762 39.677 94.8671 40.3041 94.6315 40.5119C94.6038 40.4288 94.5415 40.3179 94.4445 40.1793C94.3613 40.0616 94.2816 39.9611 94.2054 39.8779C94.2678 39.8433 94.3301 39.7983 94.3925 39.7428C94.4687 39.6805 94.538 39.6146 94.6004 39.5453C94.7528 39.3513 94.829 39.1504 94.829 38.9425V32.8624H95.6501V39.0257L98.0614 37.9032ZM102.468 41.5201C102.032 40.8203 101.332 39.9957 100.369 39.0465C99.7035 40.1343 98.6884 40.99 97.3234 41.6136C97.268 41.5305 97.1814 41.4196 97.0636 41.281C96.9458 41.1355 96.8419 41.0247 96.7518 40.9485C98.3247 40.3248 99.4229 39.3202 100.046 37.9344C100.573 36.7703 100.902 34.948 101.034 32.4675L101.845 32.509C101.685 35.149 101.314 37.0994 100.732 38.3605C101.841 39.4206 102.641 40.3075 103.133 41.0212L102.468 41.5201ZM113.277 40.5015V41.2499H104.516V32.5506H113.132V33.2989H105.316V40.5015H113.277ZM110.097 40.2417V36.9158H107.488C107.467 37.5741 107.388 38.1561 107.249 38.6619C107.076 39.3202 106.799 39.8571 106.418 40.2729C106.355 40.2105 106.255 40.1308 106.116 40.0338C105.978 39.9438 105.863 39.8779 105.773 39.8364C106.161 39.4068 106.431 38.8663 106.584 38.215C106.688 37.7646 106.74 37.2103 106.74 36.5521V34.3487C108.888 34.2725 110.509 34.1131 111.604 33.8706L112.082 34.4942C110.966 34.7436 109.439 34.8995 107.499 34.9619V36.2299H112.841V36.9158H110.856V40.2417H110.097ZM118.006 32.4155C119.274 33.2885 120.206 34.0542 120.802 34.7124L120.251 35.2841C119.614 34.5635 118.696 33.777 117.497 32.9248L118.006 32.4155ZM122.527 35.44C123.213 36.8465 123.677 38.1457 123.92 39.3375L123.161 39.6389C122.926 38.4125 122.475 37.1064 121.81 35.7206L122.527 35.44ZM116.104 35.8557C116.007 36.5763 115.886 37.2692 115.74 37.9344C115.567 38.7589 115.384 39.4241 115.19 39.9299L114.42 39.6077C114.857 38.5753 115.169 37.2761 115.356 35.7102L116.104 35.8557ZM117.788 34.9307V40.0546C117.788 40.2902 117.833 40.4461 117.923 40.5223C118.013 40.5916 118.207 40.6263 118.505 40.6263H120.49C120.809 40.6263 121.017 40.4911 121.114 40.2209C121.204 39.9715 121.27 39.3894 121.311 38.4748C121.401 38.5441 121.519 38.6099 121.665 38.6723C121.796 38.7347 121.921 38.7832 122.039 38.8178C121.983 39.8294 121.862 40.4981 121.675 40.8237C121.474 41.1771 121.093 41.3538 120.532 41.3538H118.443C117.881 41.3538 117.504 41.2637 117.31 41.0836C117.109 40.9034 117.008 40.557 117.008 40.0442V34.9307H117.788ZM127.111 34.2136C126.896 33.7493 126.536 33.2262 126.03 32.6442L126.695 32.3531C127.18 32.8867 127.554 33.3925 127.818 33.8706L127.111 34.2136ZM133.648 34.5461C133.641 34.7402 133.638 34.8753 133.638 34.9515C133.555 37.0787 133.468 38.5441 133.378 39.3479C133.274 40.2278 133.125 40.7856 132.931 41.0212C132.723 41.2637 132.436 41.3988 132.068 41.4265C131.687 41.4612 131.14 41.4543 130.426 41.4058C130.399 41.1286 130.308 40.8618 130.156 40.6055C130.454 40.6401 130.776 40.6609 131.123 40.6678C131.247 40.6748 131.376 40.6782 131.507 40.6782H131.767C131.968 40.6782 132.117 40.6263 132.214 40.5223C132.491 40.2452 132.695 38.5095 132.827 35.3153H129.262C128.937 37.9344 127.689 39.9645 125.521 41.4058C125.382 41.1979 125.181 41.0108 124.918 40.8445C126.969 39.5072 128.154 37.6642 128.472 35.3153H125.209V34.5461H128.555C128.583 34.1581 128.597 33.7424 128.597 33.2989V32.0829H129.366V33.3093C129.366 33.6974 129.356 34.1096 129.335 34.5461H133.648ZM130.904 38.9321C130.62 38.3363 130.153 37.6572 129.501 36.895L130.135 36.5832C130.807 37.3177 131.289 37.976 131.58 38.558L130.904 38.9321ZM144.634 33.5484H138.024V32.9248H141.007C140.896 32.6476 140.778 32.3947 140.653 32.1661L141.277 31.979C141.367 32.1037 141.461 32.2596 141.558 32.4467C141.627 32.5991 141.696 32.7585 141.765 32.9248H144.634V33.5484ZM137.941 38.7451L137.255 39.0257L136.569 39.3063C136.049 39.5211 135.626 39.6909 135.301 39.8156L135.093 39.088C135.245 39.0465 135.443 38.9806 135.685 38.8906C135.768 38.8629 135.876 38.8213 136.007 38.7658L136.361 38.6411V35.2841H135.28V34.5461H136.361V32.2076H137.005V34.5461H137.961V35.2841H137.005V38.4021L137.806 38.0903L137.941 38.7451ZM140.456 38.2878H142.254V37.7265H140.456V38.2878ZM140.456 37.238H142.254V36.6976H140.456V37.238ZM139.198 35.2113H140.414V34.4214H139.198V35.2113ZM142.264 35.2321H143.522V34.4214H142.264V35.2321ZM144.249 39.3063C143.931 39.5557 143.501 39.8225 142.961 40.1066C143.439 40.4669 144.024 40.7267 144.717 40.8861C144.648 40.9485 144.568 41.0385 144.478 41.1563C144.402 41.2603 144.336 41.3642 144.281 41.4681C142.853 41.0732 141.845 40.2278 141.256 38.9321C140.93 39.1954 140.556 39.4379 140.134 39.6597V40.6678L141.838 40.3456C141.831 40.4219 141.831 40.5223 141.838 40.647L141.849 40.7925L141.859 40.8549V40.9173C140.404 41.236 139.607 41.4439 139.468 41.5409C139.448 41.4647 139.41 41.3676 139.354 41.2499C139.306 41.139 139.257 41.0524 139.209 40.99C139.25 40.9692 139.285 40.9485 139.313 40.9277C139.354 40.8999 139.389 40.8653 139.417 40.8237C139.493 40.7267 139.531 40.5951 139.531 40.4288V39.9507C138.99 40.2001 138.405 40.4149 137.774 40.5951C137.726 40.5189 137.663 40.4288 137.587 40.3248C137.504 40.2001 137.435 40.1101 137.379 40.0546C138.703 39.7359 139.732 39.3271 140.466 38.8282H138.076V38.2878H139.77V37.7265H138.679V37.238H139.77V36.6976H138.356V36.1675H139.77V35.6582H138.616V33.9745H141.017V35.6582H140.456V36.1675H142.254V35.6686H141.682V33.9745H144.125V35.6686H142.94V36.1675H144.301V36.6976H142.94V37.238H144.104V37.7265H142.94V38.2878H144.655V38.8282H141.869C142.015 39.14 142.233 39.4414 142.524 39.7324C142.718 39.6285 142.936 39.4968 143.179 39.3375C143.387 39.1989 143.577 39.0673 143.751 38.9425L144.249 39.3063ZM146.505 41.3122C147.329 40.9727 147.766 40.4634 147.814 39.7844C147.773 39.7913 147.714 39.7948 147.638 39.7948C147.416 39.7948 147.232 39.7324 147.087 39.6077C146.934 39.4761 146.858 39.2924 146.858 39.0569C146.858 38.8213 146.938 38.6342 147.097 38.4956C147.243 38.3709 147.426 38.3085 147.648 38.3085C148.237 38.3085 148.531 38.707 148.531 39.5038C148.531 40.0581 148.369 40.5431 148.043 40.9588C147.724 41.3676 147.288 41.6691 146.733 41.8631L146.505 41.3122ZM155.817 36.6976C155.949 36.3788 156.067 35.9562 156.171 35.4296C156.254 34.9723 156.316 34.5115 156.358 34.0473L156.888 34.12C156.853 34.5773 156.794 35.0485 156.711 35.5335C156.607 36.0878 156.493 36.5382 156.368 36.8846L155.817 36.6976ZM157.262 32.0517H157.989V41.5201H157.262V32.0517ZM158.54 33.7666C158.901 34.5011 159.136 35.1074 159.247 35.5855L158.748 35.8349C158.637 35.3222 158.412 34.6986 158.073 33.9641L158.54 33.7666ZM160.868 37.6538V38.7139H163.955V37.6538H160.868ZM163.955 40.4392V39.3479H160.868V40.4392H163.955ZM160.11 36.9886H164.724V41.5201H163.955V41.0836H160.868V41.5409H160.11V36.9886ZM161.534 35.4608H163.155V34.0992H161.534V35.4608ZM165.41 35.4608V36.1675H159.403V35.4608H160.785V34.0992H159.673V33.4133H160.785V32.0621H161.534V33.4133H163.155V32.0621H163.903V33.4133H165.14V34.0992H163.903V35.4608H165.41ZM168.934 37.7681V41.5513H168.216V37.9967C167.995 38.066 167.697 38.1596 167.323 38.2774L166.897 38.4021C166.744 38.4506 166.612 38.4922 166.502 38.5268L166.294 37.7889L166.502 37.7369L166.72 37.6745C166.893 37.626 167.045 37.581 167.177 37.5394C167.558 37.4355 167.905 37.335 168.216 37.238V34.9203H167.271C167.132 35.5647 166.98 36.0774 166.813 36.4585C166.723 36.3962 166.63 36.3338 166.533 36.2714C166.401 36.1952 166.297 36.1433 166.221 36.1155C166.54 35.3949 166.779 34.2413 166.938 32.6546L167.614 32.7689C167.572 33.1292 167.506 33.5969 167.416 34.172H168.216V32.0621H168.934V34.172H170.004V34.9203H168.934V37.0405L170.139 36.6664L170.243 37.3524L168.934 37.7681ZM175.731 33.7978C175.731 33.9918 175.727 34.12 175.72 34.1824C175.52 38.2635 175.229 40.5431 174.847 41.0212C174.674 41.2568 174.435 41.3884 174.13 41.4162C173.881 41.4508 173.486 41.4508 172.945 41.4162C172.932 41.1113 172.859 40.8584 172.727 40.6574C172.935 40.6782 173.15 40.6921 173.372 40.699C173.538 40.7059 173.687 40.7094 173.818 40.7094C173.978 40.7094 174.106 40.6505 174.203 40.5327C174.529 40.1724 174.785 38.1665 174.972 34.515H174.473C174.196 35.97 173.784 37.2831 173.236 38.454C172.62 39.7498 171.903 40.7233 171.085 41.3746C170.933 41.2014 170.718 41.0455 170.441 40.9069C171.251 40.3248 171.958 39.431 172.561 38.2254C173.101 37.1445 173.517 35.9077 173.808 34.515H172.956C172.395 36.6629 171.542 38.2323 170.399 39.2232C170.247 39.0569 170.042 38.9079 169.786 38.7762C170.888 37.9171 171.723 36.4966 172.291 34.515H171.397C171.03 35.3326 170.635 35.9908 170.212 36.4897C170.157 36.4343 170.063 36.3581 169.931 36.261L169.765 36.1363C169.71 36.1017 169.661 36.0705 169.62 36.0428C170.444 35.142 171.05 33.8117 171.438 32.0517L172.145 32.1972C172.014 32.7654 171.858 33.2989 171.677 33.7978H175.003V33.7874L175.731 33.7978ZM181.499 33.829C181.291 33.3093 181.007 32.7793 180.647 32.2388L181.374 31.9998C181.818 32.6372 182.112 33.15 182.258 33.538L181.499 33.829ZM183.297 34.6085V40.5431C183.297 40.9935 183.148 41.2741 182.85 41.385C182.587 41.482 181.991 41.5305 181.063 41.5305C181.007 41.2533 180.917 40.9935 180.792 40.751C181.111 40.7579 181.423 40.7648 181.728 40.7718C181.998 40.7718 182.182 40.7683 182.279 40.7614C182.438 40.7544 182.518 40.6782 182.518 40.5327V34.6085H180.782V35.8037C180.782 36.9817 180.643 37.9656 180.366 38.7555C179.958 39.8987 179.223 40.848 178.163 41.6032C178.101 41.5201 178.01 41.4196 177.893 41.3018C177.775 41.184 177.671 41.094 177.581 41.0316C178.579 40.3456 179.265 39.483 179.639 38.4437C179.888 37.7438 180.013 36.8639 180.013 35.8037V34.6085H176.947V33.8498H186.02V34.6085H183.297ZM179.067 35.8557C178.721 37.193 178.229 38.2739 177.591 39.0984C177.522 39.0361 177.415 38.9599 177.269 38.8698C177.131 38.7797 177.013 38.7104 176.916 38.6619C177.519 37.9621 177.976 36.9782 178.288 35.7102L179.067 35.8557ZM184.461 35.6998C185.244 36.9124 185.778 38.0245 186.062 39.0361L185.334 39.3583C185.071 38.3259 184.558 37.1964 183.796 35.97L184.461 35.6998ZM186.997 36.6976C187.129 36.3788 187.247 35.9562 187.351 35.4296C187.434 34.9723 187.496 34.5115 187.538 34.0473L188.068 34.12C188.033 34.5773 187.974 35.0485 187.891 35.5335C187.787 36.0878 187.673 36.5382 187.548 36.8846L186.997 36.6976ZM188.442 32.0517H189.169V41.5201H188.442V32.0517ZM189.72 33.7666C190.081 34.5011 190.316 35.1074 190.427 35.5855L189.928 35.8349C189.817 35.3222 189.592 34.6986 189.253 33.9641L189.72 33.7666ZM192.048 37.6538V38.7139H195.135V37.6538H192.048ZM195.135 40.4392V39.3479H192.048V40.4392H195.135ZM191.29 36.9886H195.904V41.5201H195.135V41.0836H192.048V41.5409H191.29V36.9886ZM192.714 35.4608H194.335V34.0992H192.714V35.4608ZM196.59 35.4608V36.1675H190.583V35.4608H191.965V34.0992H190.853V33.4133H191.965V32.0621H192.714V33.4133H194.335V32.0621H195.083V33.4133H196.32V34.0992H195.083V35.4608H196.59ZM201.153 32.4155C202.421 33.2885 203.353 34.0542 203.949 34.7124L203.398 35.2841C202.761 34.5635 201.842 33.777 200.644 32.9248L201.153 32.4155ZM205.674 35.44C206.36 36.8465 206.824 38.1457 207.067 39.3375L206.308 39.6389C206.073 38.4125 205.622 37.1064 204.957 35.7206L205.674 35.44ZM199.251 35.8557C199.154 36.5763 199.033 37.2692 198.887 37.9344C198.714 38.7589 198.53 39.4241 198.336 39.9299L197.567 39.6077C198.004 38.5753 198.316 37.2761 198.503 35.7102L199.251 35.8557ZM200.935 34.9307V40.0546C200.935 40.2902 200.98 40.4461 201.07 40.5223C201.16 40.5916 201.354 40.6263 201.652 40.6263H203.637C203.956 40.6263 204.164 40.4911 204.261 40.2209C204.351 39.9715 204.417 39.3894 204.458 38.4748C204.548 38.5441 204.666 38.6099 204.811 38.6723C204.943 38.7347 205.068 38.7832 205.186 38.8178C205.13 39.8294 205.009 40.4981 204.822 40.8237C204.621 41.1771 204.24 41.3538 203.679 41.3538H201.59C201.028 41.3538 200.651 41.2637 200.457 41.0836C200.256 40.9034 200.155 40.557 200.155 40.0442V34.9307H200.935ZM208.865 41.3122C209.689 40.9727 210.126 40.4634 210.174 39.7844C210.133 39.7913 210.074 39.7948 209.998 39.7948C209.776 39.7948 209.592 39.7324 209.447 39.6077C209.294 39.4761 209.218 39.2924 209.218 39.0569C209.218 38.8213 209.298 38.6342 209.457 38.4956C209.603 38.3709 209.786 38.3085 210.008 38.3085C210.597 38.3085 210.892 38.707 210.892 39.5038C210.892 40.0581 210.729 40.5431 210.403 40.9588C210.084 41.3676 209.648 41.6691 209.094 41.8631L208.865 41.3122ZM224.829 40.5743H227.573V41.3018H221.327V40.5743H224.06V37.6538H221.732V36.9262H224.06V34.9411H224.829V36.9262H227.168V37.6538H224.829V40.5743ZM227.573 33.6627V34.4006H221.909C221.521 35.2044 221.101 35.9111 220.651 36.5209V41.5097H219.892V37.4355C219.553 37.8027 219.151 38.1526 218.687 38.4852C218.652 38.3882 218.593 38.267 218.51 38.1215C218.434 37.9898 218.361 37.8789 218.292 37.7889C219.407 36.999 220.322 35.8696 221.035 34.4006H218.541V33.6627H221.378C221.593 33.1361 221.777 32.5991 221.929 32.0517L222.719 32.2492C222.601 32.6511 222.435 33.1223 222.22 33.6627H227.573ZM231.023 33.7978C230.49 34.657 229.943 35.3672 229.381 35.9285C229.291 35.8592 229.18 35.783 229.049 35.6998C228.91 35.6028 228.792 35.5266 228.695 35.4712C229.693 34.605 230.49 33.4479 231.086 31.9998L231.845 32.218L231.637 32.6546C231.56 32.8278 231.488 32.9767 231.418 33.1015H237.821V33.7978H231.023ZM235.815 39.5142C235.856 39.0707 235.898 38.5095 235.94 37.8304H230.961C230.892 38.3155 230.805 38.8767 230.701 39.5142H233.913C233.428 39.0638 232.808 38.6446 232.052 38.2566L232.489 37.8304C233.362 38.2392 234.02 38.6723 234.464 39.1296L234.11 39.5142H235.815ZM231.273 35.5335L231.159 36.3442L231.044 37.1653H234.162C233.663 36.708 233.047 36.3199 232.312 36.0012L232.749 35.5647C233.546 35.9042 234.176 36.2853 234.64 36.708L234.193 37.1653H235.971C235.992 36.6248 236.012 36.0809 236.033 35.5335H231.273ZM236.698 37.8512C236.643 38.7035 236.601 39.2578 236.574 39.5142H237.821V40.2001H236.49C236.414 40.6574 236.314 40.9796 236.189 41.1667C236.016 41.3815 235.773 41.5062 235.461 41.5409C235.15 41.5617 234.706 41.5547 234.131 41.5201C234.117 41.3122 234.051 41.1078 233.934 40.9069C234.183 40.9277 234.426 40.9415 234.661 40.9485C234.869 40.9554 235.028 40.9554 235.139 40.9485C235.312 40.9485 235.441 40.8999 235.524 40.8029C235.6 40.7129 235.669 40.5119 235.732 40.2001H229.797C229.866 39.819 229.929 39.4587 229.984 39.1192C230.06 38.6758 230.13 38.2531 230.192 37.8512H228.727V37.1445H230.296L230.379 36.5417L230.452 35.9596C230.514 35.5093 230.559 35.1386 230.587 34.8476H236.802C236.795 35.0346 236.792 35.1594 236.792 35.2217C236.785 35.5127 236.774 35.8522 236.761 36.2403L236.75 36.4793L236.74 36.708C236.733 36.8881 236.726 37.0336 236.719 37.1445H238.174V37.8512H236.698ZM248.536 36.2818V37.1237H239.13V36.2818H248.536ZM253.899 34.5773C253.574 35.4504 253.206 36.1744 252.798 36.7495C252.728 36.6941 252.611 36.6214 252.444 36.5313C252.292 36.4412 252.164 36.3754 252.06 36.3338C252.836 35.343 253.4 33.9191 253.754 32.0621L254.585 32.2076C254.467 32.7273 254.325 33.2643 254.159 33.8186H257.973L258.109 33.777L258.68 34.0784C258.431 35.0485 258.067 35.9839 257.589 36.8846C257.499 36.8361 257.395 36.7807 257.277 36.7184C257.145 36.6491 257.038 36.5971 256.955 36.5625C257.087 36.2853 257.218 35.9839 257.35 35.6582C257.502 35.2702 257.624 34.9099 257.714 34.5773H253.899ZM251.654 34.7644C251.204 34.3002 250.542 33.8186 249.669 33.3197L250.126 32.7689C250.993 33.2123 251.668 33.6662 252.153 34.1304L251.654 34.7644ZM252.247 37.3212C251.651 38.3744 250.972 39.431 250.21 40.4911L249.513 39.9611C250.199 39.1158 250.913 38.0695 251.654 36.8223L252.247 37.3212ZM255.76 35.731C255.76 35.8765 255.753 36.1225 255.739 36.4689C256.252 38.7624 257.336 40.2071 258.992 40.8029C258.909 40.8653 258.812 40.9658 258.701 41.1044C258.604 41.236 258.528 41.3573 258.472 41.4681C257.073 40.8861 256.071 39.7186 255.469 37.9656C254.991 39.4968 253.882 40.7025 252.143 41.5824C251.983 41.3607 251.789 41.1598 251.561 40.9796C252.953 40.2937 253.913 39.4068 254.44 38.3189C254.641 37.9032 254.783 37.4459 254.866 36.947C254.921 36.5936 254.949 36.1848 254.949 35.7206V35.0762H255.76V35.731ZM264.116 40.7198C264.352 40.7198 264.504 40.6332 264.573 40.46C264.643 40.2937 264.691 39.9022 264.719 39.2855C264.94 39.4241 265.169 39.5176 265.405 39.5661C265.356 40.2937 265.252 40.7787 265.093 41.0212C264.927 41.2706 264.618 41.3954 264.168 41.3954H262.245C261.739 41.3954 261.396 41.3191 261.216 41.1667C261.029 41.0073 260.936 40.7059 260.936 40.2625V35.8349H264.698C264.698 35.9804 264.694 36.0844 264.688 36.1467C264.591 37.7612 264.445 38.6758 264.251 38.8906C264.119 39.0361 263.922 39.1261 263.659 39.1608C263.596 39.1608 263.534 39.1643 263.472 39.1712H263.232C263.025 39.1712 262.827 39.1643 262.64 39.1504C262.619 38.9079 262.557 38.6862 262.453 38.4852C262.612 38.506 262.786 38.5164 262.973 38.5164C263.042 38.5233 263.111 38.5268 263.181 38.5268H263.336C263.475 38.5268 263.575 38.4956 263.638 38.4333C263.769 38.26 263.87 37.6226 263.939 36.5209H261.684V40.2625C261.684 40.4565 261.722 40.5812 261.798 40.6366C261.874 40.6921 262.044 40.7198 262.307 40.7198H264.116ZM263.42 32.2908L263.316 32.509L263.212 32.7377C264.341 33.8948 265.138 34.8164 265.602 35.5023L265.051 36.0116C264.566 35.2841 263.839 34.4006 262.869 33.3613C262.183 34.5392 261.331 35.5231 260.312 36.313C260.243 36.2368 260.156 36.1433 260.052 36.0324C259.927 35.9146 259.827 35.828 259.751 35.7726C261.102 34.8094 262.086 33.5761 262.702 32.0725L263.42 32.2908ZM266.839 38.9945H266.101V33.2678H266.839V38.9945ZM268.876 32.218V40.5223C268.876 40.9727 268.72 41.2568 268.408 41.3746C268.138 41.4785 267.515 41.5235 266.538 41.5097C266.517 41.4058 266.482 41.2845 266.434 41.1459C266.378 40.9935 266.323 40.8688 266.267 40.7718C266.593 40.7856 266.922 40.7925 267.255 40.7925C267.518 40.7925 267.715 40.7891 267.847 40.7822C268.027 40.7752 268.117 40.6886 268.117 40.5223V32.218H268.876ZM273.543 32.3324C273.286 33.0253 272.933 33.7666 272.483 34.5565V41.5305H271.713V35.7518C271.409 36.1814 271.066 36.5936 270.685 36.9886C270.643 36.8846 270.577 36.7565 270.487 36.604C270.39 36.4239 270.307 36.2957 270.238 36.2195C271.325 35.1663 272.181 33.7909 272.805 32.0933L273.543 32.3324ZM276.578 34.5254V36.0116H279.54V36.7287H276.578V38.2981H279.685V39.0257H276.578V41.5409H275.798V34.5254H275.081C274.624 35.3776 274.132 36.0982 273.605 36.6872C273.543 36.6179 273.449 36.5313 273.324 36.4273C273.2 36.3165 273.092 36.2299 273.002 36.1675C273.972 35.1628 274.734 33.8359 275.289 32.1869L276.027 32.3843C275.881 32.8001 275.691 33.2678 275.455 33.7874H279.779V34.5254H276.578ZM288.769 37.4147V34.6605H285.786V37.4147H288.769ZM284.986 37.4147V34.6605H282.013V37.4147H284.986ZM289.559 33.9018V38.7658H288.769V38.1734H285.786V41.5409H284.986V38.1734H282.013V38.8178H281.255V33.9018H284.986V32.0517H285.786V33.9018H289.559ZM292.012 41.3122C292.836 40.9727 293.273 40.4634 293.321 39.7844C293.28 39.7913 293.221 39.7948 293.145 39.7948C292.923 39.7948 292.739 39.7324 292.594 39.6077C292.441 39.4761 292.365 39.2924 292.365 39.0569C292.365 38.8213 292.445 38.6342 292.604 38.4956C292.75 38.3709 292.933 38.3085 293.155 38.3085C293.744 38.3085 294.038 38.707 294.038 39.5038C294.038 40.0581 293.876 40.5431 293.55 40.9588C293.231 41.3676 292.795 41.6691 292.24 41.8631L292.012 41.3122ZM5.64366 51.1594V50.3175H4.1678V51.1594H5.64366ZM4.1678 49.7666H5.64366V48.9352H4.1678V49.7666ZM7.85744 48.9352H6.35041V49.7666H7.85744V48.9352ZM7.85744 50.3175H6.35041V51.1594H7.85744V50.3175ZM3.74167 56.0962H3.03493V52.4273H5.64366V51.731H3.47145V48.3635H8.58498V51.731H6.35041V52.4273H9.06307V55.5246C9.06307 55.8433 8.94528 56.0477 8.7097 56.1378C8.51569 56.2071 8.05838 56.2417 7.33777 56.2417C7.2962 56.0477 7.21998 55.8606 7.10912 55.6805C7.67036 55.6943 8.02374 55.6943 8.16924 55.6805C8.28011 55.6735 8.33554 55.6216 8.33554 55.5246V53.0717H6.31923V54.2462L7.17148 54.1942C7.08141 53.9517 6.97401 53.7127 6.84929 53.4771L7.34817 53.3627C7.68076 53.9863 7.91634 54.558 8.05492 55.0776L7.52485 55.2335C7.511 55.1712 7.49021 55.095 7.46249 55.0049L7.43131 54.8802L7.38974 54.7555L6.50631 54.8282L6.08018 54.8594L5.65405 54.8906C5.00966 54.946 4.50732 54.9876 4.14702 55.0153L4.06387 54.3813C4.54196 54.3605 5.06856 54.3293 5.64366 54.2878V53.0717H3.74167V56.0962ZM2.17228 50.515C1.74269 50.0646 1.13294 49.6003 0.343048 49.1223L0.862716 48.6338C1.71497 49.1257 2.33164 49.5692 2.71273 49.9641L2.17228 50.515ZM2.23464 55.6597C2.31086 55.6943 2.43211 55.7705 2.59841 55.8883L2.70234 55.9611L2.81667 56.0442C2.91367 56.1066 3.00375 56.1655 3.08689 56.2209C3.63428 56.5604 4.53157 56.7302 5.77877 56.7302C7.08833 56.7302 8.34593 56.6644 9.55156 56.5327C9.49613 56.6436 9.44763 56.7752 9.40605 56.9277C9.35755 57.087 9.32983 57.2187 9.32291 57.3226C8.95567 57.3503 8.41175 57.3746 7.69115 57.3954C6.9359 57.4231 6.29151 57.4369 5.75799 57.4369C4.49692 57.4369 3.55459 57.2464 2.93099 56.8653C2.84785 56.8168 2.74738 56.7475 2.62959 56.6574L2.49447 56.5639L2.35936 56.4704C2.16535 56.3318 2.01984 56.2625 1.92284 56.2625C1.65954 56.2625 1.19877 56.6955 0.540522 57.5617L0.0416407 56.8965C0.595953 56.2867 1.07751 55.8883 1.48632 55.7012V52.3858H0.187148V51.6686H2.23464V55.6597ZM18.4691 48.6338V54.5268H17.6584V49.4029H12.6592V54.5268H11.8693V48.6338H18.4691ZM15.4966 50.3695C15.4273 52.6352 15.1744 54.1942 14.7378 55.0465C14.1281 56.2452 12.867 57.0801 10.9547 57.5513C10.92 57.4543 10.8577 57.3365 10.7676 57.1979C10.6775 57.0732 10.5944 56.9692 10.5181 56.8861C12.3266 56.4773 13.5045 55.7359 14.0519 54.6619C14.426 53.9205 14.6408 52.4897 14.6963 50.3695H15.4966ZM16.1202 53.6434V56.2105C16.1202 56.363 16.1583 56.4634 16.2345 56.5119C16.3107 56.5535 16.477 56.5743 16.7334 56.5743H18.4587C18.7081 56.5743 18.8675 56.4842 18.9368 56.3041C19.006 56.1239 19.0545 55.6839 19.0823 54.9841C19.1654 55.0465 19.2797 55.1088 19.4252 55.1712C19.55 55.2266 19.6712 55.2682 19.789 55.2959C19.7405 56.0997 19.6331 56.6332 19.4668 56.8965C19.3005 57.1598 18.9853 57.2914 18.521 57.2914H16.671C16.1652 57.2914 15.8222 57.2187 15.6421 57.0732C15.455 56.9277 15.3614 56.6436 15.3614 56.2209V53.6434H16.1202ZM25.2247 53.529C25.2317 53.439 25.2386 53.3316 25.2455 53.2068V52.4793H22.7719V53.529H25.2247ZM22.7719 51.8661H25.2455V50.8268H22.7719V51.8661ZM26.0354 50.8268V51.8661H28.6545V50.8268H26.0354ZM28.6545 52.4793H26.0354V52.9054C26.0354 53.0579 26.0285 53.2657 26.0146 53.529H28.6545V52.4793ZM25.9211 54.1734C25.7894 54.8594 25.4811 55.4483 24.9961 55.9403C26.0354 56.4115 27.8369 56.6817 30.4006 56.751C30.2343 56.9866 30.1269 57.2395 30.0784 57.5097C27.4177 57.3919 25.5157 57.0316 24.3725 56.4288C23.638 56.9138 22.6333 57.288 21.3584 57.5513C21.3168 57.4543 21.251 57.3399 21.1609 57.2083C21.0639 57.0697 20.9773 56.9588 20.9011 56.8757C22.1067 56.6401 23.0248 56.3422 23.6553 55.9819C23.1426 55.5869 22.7165 55.0984 22.377 54.5164L23.0213 54.2566C23.3747 54.797 23.7939 55.2266 24.2789 55.5453C24.7016 55.185 24.9822 54.7277 25.1208 54.1734H22.034V50.1824H25.2455V49.3093H21.0882V48.613H30.068V49.3093H26.0354V50.1824H29.4133V54.1734H25.9211ZM38.9336 49.1638H35.3998V50.172H38.9336V49.1638ZM38.9336 50.7956H35.3998V51.8141H38.9336V50.7956ZM39.6923 52.4689H34.6723V48.509H39.6923V52.4689ZM33.6953 49.8498C33.2727 49.4826 32.6491 49.1119 31.8245 48.7377L32.2299 48.1869C33.0267 48.4917 33.6607 48.8382 34.1318 49.2262L33.6953 49.8498ZM33.1133 52.6768C32.6491 52.2749 32.0151 51.8973 31.2113 51.5439L31.6063 50.9931C32.41 51.3049 33.0509 51.6548 33.529 52.0428L33.1133 52.6768ZM33.9032 54.0383C33.3766 55.1469 32.7842 56.2556 32.1259 57.3642L31.4711 56.8861C32.1086 55.9368 32.7287 54.8317 33.3315 53.5706L33.9032 54.0383ZM35.0361 56.5535H36.0442V54.0175H35.0361V56.5535ZM36.647 54.0175V56.5535H37.6656V54.0175H36.647ZM38.2788 54.0175V56.5535H39.2973V54.0175H38.2788ZM40.7316 56.5535V57.2395H33.4563V56.5535H34.3397V53.3524H40.0353V56.5535H40.7316ZM47.4769 54.7243C48.4192 55.632 49.6456 56.2833 51.1561 56.6782C50.9691 56.8514 50.7958 57.0662 50.6365 57.3226C49.0498 56.8307 47.7541 56.0442 46.7494 54.9633V57.5409H45.9803V54.9217C44.9964 56.0096 43.711 56.8307 42.1243 57.385C42.0689 57.2949 41.9892 57.184 41.8853 57.0524C41.7952 56.9415 41.7051 56.8376 41.6151 56.7406C43.0563 56.3248 44.2619 55.6527 45.2319 54.7243H41.7917V54.0383H45.9803V53.4043C45.807 53.4112 45.4918 53.4147 45.0345 53.4147C45.0137 53.3246 44.979 53.2172 44.9305 53.0925L44.8578 52.9366L44.785 52.7807C45.0414 52.7946 45.3012 52.8015 45.5645 52.8015H45.8451C45.9214 52.7946 45.9803 52.7911 46.0218 52.7911C46.1466 52.7911 46.2089 52.7391 46.2089 52.6352V51.1801H46.1154C45.1661 52.171 43.9051 52.9332 42.3322 53.4667C42.2144 53.2727 42.0516 53.0717 41.8437 52.8639C43.1602 52.4758 44.2654 51.9146 45.1592 51.1801H41.9996V50.5461H46.635C45.8036 50.2551 45.031 50.0403 44.3173 49.9018L44.7434 49.4444C45.2354 49.5345 45.7966 49.6731 46.4272 49.8602C47.0023 49.6592 47.5566 49.4063 48.0901 49.1015H42.8934V48.4675H48.9943L49.171 48.4259L49.6803 48.8208C49.0498 49.3267 48.2564 49.7736 47.3002 50.1616C47.5843 50.2586 47.8476 50.3625 48.0901 50.4734L48.0277 50.5461H50.1272L50.2727 50.5046L50.8651 50.7228C50.1515 51.6652 49.5764 52.3269 49.1398 52.708L48.4539 52.4377C48.8627 52.0774 49.2472 51.6582 49.6075 51.1801H46.9884V52.6456C46.9884 53.0059 46.8533 53.2276 46.5831 53.3108C46.4999 53.3385 46.4064 53.3593 46.3025 53.3731H46.7494V54.0383H50.9483V54.7243H47.4769ZM54.3989 57.333C53.6921 56.46 52.9265 55.6874 52.1019 55.0153L52.7775 54.4229C53.5535 55.0465 54.3296 55.8156 55.1056 56.7302L54.3989 57.333ZM66.7981 53.529C66.8051 53.439 66.812 53.3316 66.8189 53.2068V52.4793H64.3453V53.529H66.7981ZM64.3453 51.8661H66.8189V50.8268H64.3453V51.8661ZM67.6088 50.8268V51.8661H70.228V50.8268H67.6088ZM70.228 52.4793H67.6088V52.9054C67.6088 53.0579 67.6019 53.2657 67.588 53.529H70.228V52.4793ZM67.4945 54.1734C67.3628 54.8594 67.0545 55.4483 66.5695 55.9403C67.6088 56.4115 69.4103 56.6817 71.974 56.751C71.8077 56.9866 71.7003 57.2395 71.6518 57.5097C68.9911 57.3919 67.0892 57.0316 65.9459 56.4288C65.2114 56.9138 64.2067 57.288 62.9318 57.5513C62.8902 57.4543 62.8244 57.3399 62.7343 57.2083C62.6373 57.0697 62.5507 56.9588 62.4745 56.8757C63.6801 56.6401 64.5982 56.3422 65.2287 55.9819C64.716 55.5869 64.2899 55.0984 63.9504 54.5164L64.5948 54.2566C64.9481 54.797 65.3673 55.2266 65.8523 55.5453C66.275 55.185 66.5556 54.7277 66.6942 54.1734H63.6074V50.1824H66.8189V49.3093H62.6616V48.613H71.6414V49.3093H67.6088V50.1824H70.9867V54.1734H67.4945ZM74.9881 49.9641C74.6139 49.5553 74.0943 49.1534 73.4291 48.7585L73.8344 48.2076C74.5204 48.5818 75.047 48.9594 75.4142 49.3405L74.9881 49.9641ZM74.4892 52.656C74.1151 52.2818 73.585 51.9111 72.899 51.5439L73.2732 50.9723C73.9592 51.291 74.4927 51.634 74.8738 52.0012L74.4892 52.656ZM75.4038 54.0383C74.8842 55.2439 74.3402 56.3664 73.7721 57.4058L73.1797 56.8029C73.7894 55.7983 74.3576 54.6896 74.8842 53.4771L75.4038 54.0383ZM80.7044 55.1088C80.5589 55.4206 80.4411 55.677 80.3511 55.8779C80.2125 56.1689 80.0912 56.4149 79.9873 56.6159H82.2115V57.2914H75.383V56.6159H77.3474C77.2573 56.0893 77.0841 55.5938 76.8277 55.1296L77.5241 54.9425C77.8151 55.4345 78.0022 55.923 78.0853 56.408L77.4201 56.6159H79.2182C79.3429 56.3803 79.4746 56.0927 79.6131 55.7532C79.7379 55.4553 79.8453 55.1643 79.9353 54.8802L80.7044 55.1088ZM80.4342 52.9886H77.0044V54.2046H80.4342V52.9886ZM81.1618 54.849H76.3185V52.3442H81.1618V54.849ZM82.305 49.9433C81.7299 50.366 81.283 50.6778 80.9643 50.8787C81.3939 51.3499 81.9101 51.7518 82.5129 52.0844C82.2704 52.2853 82.1041 52.4966 82.014 52.7184C81.2795 52.261 80.6871 51.7379 80.2367 51.149V51.5647H77.389V51.1074C76.8554 51.7864 76.2526 52.3096 75.5805 52.6768C75.4697 52.4758 75.3172 52.2992 75.1232 52.1467C75.6845 51.8626 76.1868 51.4608 76.6303 50.9411C76.3462 50.5946 76.0032 50.2794 75.6013 49.9953L76.0586 49.5172C76.4258 49.7805 76.7619 50.0646 77.0668 50.3695C77.3231 50.0022 77.5414 49.5969 77.7216 49.1534H75.8196V48.4779H78.023L78.1477 48.4467L78.6154 48.6338C78.4006 49.4444 78.0507 50.1928 77.5657 50.8787H80.0393C79.5681 50.1858 79.1662 49.3024 78.8336 48.2284L79.4884 48.0725C79.6339 48.5229 79.776 48.904 79.9146 49.2158C80.3788 48.8208 80.7183 48.5021 80.9331 48.2596L81.432 48.7585C81.0093 49.1257 80.5901 49.4514 80.1744 49.7355C80.2991 49.971 80.4446 50.2066 80.6109 50.4422C81.0959 50.0819 81.4909 49.7493 81.7957 49.4444L82.305 49.9433ZM83.3548 57.0628C83.8051 56.1135 84.252 54.9564 84.6955 53.5914L85.2983 53.9863C84.9449 55.1643 84.5257 56.3214 84.0407 57.4577L83.3548 57.0628ZM84.602 52.6976C84.2417 52.2957 83.7497 51.8973 83.1261 51.5023L83.6146 51.0242C84.252 51.4192 84.7509 51.7968 85.1112 52.1571L84.602 52.6976ZM83.9887 48.2596C84.6401 48.6892 85.1251 49.0911 85.4438 49.4652L84.9034 49.9641C84.5777 49.5622 84.0996 49.1396 83.4691 48.6961L83.9887 48.2596ZM88.6346 51.97C88.6069 51.88 88.5514 51.7241 88.4683 51.5023C86.8192 51.7241 85.9323 51.8661 85.8076 51.9285C85.7868 51.8453 85.7556 51.7414 85.714 51.6167C85.6655 51.4781 85.624 51.3672 85.5893 51.2841C85.6933 51.2702 85.8214 51.1663 85.9739 50.9723C86.0085 50.9307 86.0466 50.8718 86.0882 50.7956C86.1436 50.7124 86.2025 50.6224 86.2649 50.5254C86.4104 50.2759 86.5386 50.0299 86.6494 49.7874H85.475V49.1534H87.2003C87.131 48.8763 87.0271 48.5645 86.8885 48.218L87.5121 48.0829C87.6715 48.4779 87.7996 48.8347 87.8966 49.1534H89.4453V49.7874H87.3978C87.1622 50.2586 86.885 50.7124 86.5663 51.149L88.2188 50.9515L88.0629 50.6293L87.9174 50.3279L88.4579 50.1096C88.8251 50.7748 89.078 51.3118 89.2166 51.7206L88.6346 51.97ZM88.1773 55.0465V54.215H86.5767V55.0465H88.1773ZM86.5767 52.8327V53.6642H88.1773V52.8327H86.5767ZM88.8321 56.7406C88.8321 57.0662 88.7385 57.2776 88.5514 57.3746C88.399 57.4577 88.0595 57.4993 87.5329 57.4993C87.4982 57.2706 87.4289 57.0558 87.325 56.8549C87.4705 56.8618 87.623 56.8653 87.7823 56.8653H88.0526C88.1357 56.8653 88.1773 56.8203 88.1773 56.7302V55.6077H86.5767V57.5097H85.9219V52.2403H88.8321V56.7406ZM90.4118 50.5461L90.3807 50.6917L90.3391 50.8268C90.4707 52.0532 90.6682 53.096 90.9315 53.9552C91.2087 53.0821 91.4096 51.9458 91.5343 50.5461H90.4118ZM92.2099 50.5461C92.0228 52.3754 91.7145 53.8304 91.2849 54.9114C91.666 55.8052 92.151 56.4842 92.74 56.9485C92.6637 57.0177 92.5806 57.1078 92.4905 57.2187C92.3866 57.3365 92.3138 57.4404 92.2723 57.5305C91.7457 57.0593 91.2987 56.4357 90.9315 55.6597C90.5504 56.408 90.0619 57.0455 89.466 57.5721C89.4245 57.5028 89.3552 57.4092 89.2582 57.2914C89.1612 57.1806 89.0711 57.0905 88.988 57.0212C89.6739 56.4738 90.2109 55.7498 90.5989 54.849C90.3218 54.073 90.1035 53.1341 89.9441 52.0324C89.8125 52.3788 89.6704 52.6733 89.518 52.9158C89.4557 52.8327 89.3829 52.7391 89.2998 52.6352C89.1958 52.5105 89.1092 52.4204 89.0399 52.365C89.5665 51.4712 89.9441 50.0161 90.1728 47.9998L90.838 48.0829C90.7756 48.658 90.6855 49.247 90.5677 49.8498H92.6464V50.5461H92.2099ZM95.9723 57.333C95.2655 56.46 94.4999 55.6874 93.6754 55.0153L94.3509 54.4229C95.127 55.0465 95.903 55.8156 96.679 56.7302L95.9723 57.333ZM108.372 53.529C108.378 53.439 108.385 53.3316 108.392 53.2068V52.4793H105.919V53.529H108.372ZM105.919 51.8661H108.392V50.8268H105.919V51.8661ZM109.182 50.8268V51.8661H111.801V50.8268H109.182ZM111.801 52.4793H109.182V52.9054C109.182 53.0579 109.175 53.2657 109.161 53.529H111.801V52.4793ZM109.068 54.1734C108.936 54.8594 108.628 55.4483 108.143 55.9403C109.182 56.4115 110.984 56.6817 113.547 56.751C113.381 56.9866 113.274 57.2395 113.225 57.5097C110.565 57.3919 108.663 57.0316 107.519 56.4288C106.785 56.9138 105.78 57.288 104.505 57.5513C104.464 57.4543 104.398 57.3399 104.308 57.2083C104.211 57.0697 104.124 56.9588 104.048 56.8757C105.254 56.6401 106.172 56.3422 106.802 55.9819C106.289 55.5869 105.863 55.0984 105.524 54.5164L106.168 54.2566C106.522 54.797 106.941 55.2266 107.426 55.5453C107.848 55.185 108.129 54.7277 108.268 54.1734H105.181V50.1824H108.392V49.3093H104.235V48.613H113.215V49.3093H109.182V50.1824H112.56V54.1734H109.068ZM123.743 55.0465H119.513V57.5201H118.713V55.0465H114.514V54.2878H118.713V52.6144H115.408V51.8765H118.713V50.3383H114.899V49.5796H118.713V48.0621H119.513V49.5796H123.328V50.3383H119.513V51.8765H122.849V52.6144H119.513V54.2878H123.743V55.0465ZM127.423 50.7644C126.972 52.1571 126.255 53.1999 125.271 53.8928C125.216 53.8304 125.129 53.7438 125.011 53.633C124.887 53.5221 124.783 53.439 124.7 53.3835C125.94 52.5867 126.716 51.2009 127.028 49.2262H125.178V48.5714H132.11L132.058 48.7897L132.006 49.0287L131.892 49.4964C131.809 49.8567 131.732 50.1616 131.663 50.411H133.731C133.724 50.5496 133.714 50.6535 133.7 50.7228C133.555 52.2056 133.364 53.0544 133.129 53.2692C132.997 53.4216 132.775 53.5083 132.463 53.529C132.152 53.5568 131.732 53.5533 131.206 53.5186C131.185 53.29 131.109 53.0683 130.977 52.8535C131.199 52.8743 131.434 52.8881 131.684 52.895C131.781 52.902 131.874 52.9054 131.964 52.9054H132.162C132.342 52.9054 132.467 52.8743 132.536 52.8119C132.702 52.6664 132.834 52.0809 132.931 51.0554H130.748C130.922 50.5219 131.078 49.9122 131.216 49.2262H127.786C127.703 49.6419 127.641 49.9468 127.599 50.1408H129.948L130.062 50.12L130.478 50.2655C130.284 51.0485 129.99 51.6894 129.595 52.1883C130.087 52.5278 130.454 52.8188 130.696 53.0613L130.229 53.5394C130.007 53.3038 129.657 53.0094 129.179 52.656C128.736 53.0994 128.15 53.4459 127.423 53.6953C127.388 53.6191 127.322 53.5256 127.225 53.4147C127.135 53.3038 127.052 53.2207 126.976 53.1653C127.634 52.9574 128.181 52.6664 128.618 52.2922C128.14 52.0151 127.731 51.8003 127.391 51.6478L127.849 51.2321C128.271 51.4192 128.67 51.6236 129.044 51.8453C129.286 51.5612 129.491 51.2009 129.657 50.7644H127.423ZM126.716 56.5639H128.088V54.6411H126.716V56.5639ZM128.805 54.6411V56.5639H130.177V54.6411H128.805ZM130.894 54.6411V56.5639H132.297V54.6411H130.894ZM134.209 56.5639V57.2499H124.824V56.5639H125.988V54.0071H133.045V56.5639H134.209ZM138.533 50.411H136.35V52.5832H138.533V50.411ZM138.533 55.7636V53.2692H136.35V55.7636H138.533ZM138.055 48.1869L137.92 48.5818L137.785 48.9767C137.681 49.2816 137.591 49.5276 137.515 49.7147H139.24V56.46H136.35V57.281H135.644V49.7147H136.808C136.898 49.4375 136.978 49.1569 137.047 48.8728C137.13 48.5402 137.189 48.2596 137.224 48.031L138.055 48.1869ZM144.322 50.0784C144.239 52.5174 144.152 54.1873 144.062 55.088C143.958 56.065 143.806 56.6782 143.605 56.9277C143.411 57.1702 143.137 57.3088 142.784 57.3434C142.5 57.378 141.987 57.3746 141.246 57.333C141.218 57.0489 141.131 56.796 140.986 56.5743C141.277 56.602 141.589 56.6193 141.921 56.6263C142.039 56.6332 142.157 56.6366 142.275 56.6366H142.524C142.725 56.6366 142.867 56.5847 142.95 56.4807C143.248 56.162 143.46 54.1353 143.584 50.4006H140.944C140.626 51.1697 140.3 51.776 139.967 52.2195C139.912 52.164 139.811 52.0878 139.666 51.9908L139.479 51.8765L139.406 51.8245L139.333 51.783C140.012 50.8891 140.542 49.6315 140.924 48.0102L141.661 48.1869C141.53 48.7273 141.381 49.2262 141.215 49.6835H144.322V50.0784ZM142.025 54.7658C141.707 54.1215 141.18 53.3212 140.445 52.365L141.048 52.0116C141.81 52.9817 142.354 53.7646 142.68 54.3605L142.025 54.7658ZM153.136 56.2521V54.7139H147.596V56.2521H153.136ZM147.596 52.4793V53.9863H153.136V52.4793H147.596ZM147.596 50.2032V51.7518H153.136V50.2032H147.596ZM153.936 49.4652V57.5097H153.136V56.9796H147.596V57.5617H146.827V49.4652H149.436C149.623 48.9109 149.758 48.4363 149.841 48.0413L150.724 48.1557C150.565 48.6061 150.392 49.0426 150.205 49.4652H153.936ZM163.228 56.5639C163.768 56.5639 164.121 56.4461 164.288 56.2105C164.44 55.9957 164.551 55.483 164.62 54.6723C164.877 54.8317 165.133 54.9356 165.389 54.9841C165.306 55.9264 165.133 56.5466 164.87 56.8445C164.586 57.1632 164.035 57.3226 163.217 57.3226H159.299C158.454 57.3226 157.882 57.2291 157.584 57.042C157.272 56.848 157.116 56.4634 157.116 55.8883V52.0324H163.29V49.4444H156.981V48.6649H164.08V53.4459H163.29V52.7911H157.896V55.8883C157.896 56.1655 157.982 56.3456 158.156 56.4288C158.329 56.5189 158.696 56.5639 159.257 56.5639H163.228ZM167.905 54.215C168.348 54.215 168.722 54.3674 169.027 54.6723C169.339 54.9841 169.495 55.3583 169.495 55.7948C169.495 56.2382 169.339 56.6124 169.027 56.9173C168.722 57.2291 168.348 57.385 167.905 57.385C167.475 57.385 167.104 57.2291 166.793 56.9173C166.481 56.6055 166.325 56.2313 166.325 55.7948C166.325 55.3583 166.481 54.9841 166.793 54.6723C167.104 54.3674 167.475 54.215 167.905 54.215ZM167.905 56.8549C168.203 56.8549 168.452 56.751 168.653 56.5431C168.861 56.3422 168.965 56.0927 168.965 55.7948C168.965 55.5038 168.861 55.2578 168.653 55.0569C168.452 54.849 168.203 54.7451 167.905 54.7451C167.621 54.7451 167.375 54.849 167.167 55.0569C166.959 55.2647 166.855 55.5107 166.855 55.7948C166.855 56.0858 166.959 56.3352 167.167 56.5431C167.375 56.751 167.621 56.8549 167.905 56.8549Z" fill="#4E0000"/>
</svg>
