<svg width="299" height="131" viewBox="0 0 299 131" fill="none" xmlns="http://www.w3.org/2000/svg">
<path d="M13.1826 27.4718H14.4208C15.6832 31.696 16.1688 35.5804 15.8774 39.1249C15.6346 42.6694 15.0763 45.5099 14.2023 47.6463C13.3768 49.7827 12.3329 51.5549 11.0705 52.963C9.95374 54.2255 8.69131 55.0023 7.28322 55.2937C5.87513 55.585 4.8312 55.2694 4.15144 54.3468C3.18034 52.7931 3.59306 51.0451 5.38958 49.1029C7.57455 47.355 9.41963 44.4902 10.9248 40.5087C12.4786 36.4787 13.2312 32.133 13.1826 27.4718ZM24.3988 5.47643L24.6173 4.89377C34.8624 6.44753 41.66 9.45793 45.0103 13.925C46.7583 16.2556 47.1467 18.2949 46.1756 20.0429C45.4473 21.451 44.282 21.9122 42.6797 21.4267C42.3398 21.3296 42.0242 21.1839 41.7329 20.9897C40.4219 18.6105 38.2369 16.0128 35.178 13.1966C32.119 10.3805 28.4774 7.977 24.2531 5.98626L24.3988 5.47643ZM55.134 26.5978C62.9028 30.7249 67.7825 35.9203 69.7733 42.1839C71.0357 46.0197 70.9629 49.2 69.5548 51.7249C68.5837 53.57 67.3698 54.1283 65.9132 53.4C65.379 53.1573 64.8692 52.7203 64.3837 52.089C64.2866 48.0104 63.4611 43.6648 61.9074 39.0521C60.3536 34.4394 57.9016 30.555 54.5513 27.3989L55.134 26.5978ZM23.452 62.8682V35.0463C23.452 29.0741 23.1121 23.9758 22.4323 19.7515C28.0647 21.3053 30.8809 22.4221 30.8809 23.1018C30.8809 23.296 30.7109 23.5145 30.371 23.7573L29.1329 24.6313V61.2659C29.1329 62.1884 29.3999 62.8197 29.934 63.1595C30.5167 63.4994 31.6577 63.6694 33.3572 63.6694H42.2427C46.4184 63.6694 49.1617 63.5965 50.4727 63.4509C51.4438 63.3052 52.1236 62.8925 52.512 62.2127C53.2403 60.5619 54.1872 56.3619 55.3525 49.6128H56.2265L56.445 62.7226C58.1929 63.3538 59.0669 64.252 59.0669 65.4173C59.0669 66.4855 58.6057 67.2867 57.6831 67.8208C56.8091 68.4035 55.134 68.8162 52.6577 69.059C50.2299 69.3503 46.6369 69.4959 41.8785 69.4959H32.4832C28.8901 69.4959 26.4866 69.059 25.2728 68.185C24.0589 67.311 23.452 65.5387 23.452 62.8682ZM91.4044 53.837C88.4426 59.615 86.1605 63.815 84.5582 66.437C85.3351 67.5052 85.3108 68.452 84.4854 69.2774L79.0958 63.6694C82.8831 60.3191 86.6703 56.4833 90.4576 52.1619L91.5501 46.9908L95.1189 48.0833L92.1327 52.6717C92.8611 54.0312 93.8079 55.4393 94.9732 56.896C101.625 52.526 108.01 47.2578 114.128 41.0914C120.295 34.9249 125.126 28.8313 128.622 22.8105H95.7015C92.1085 22.8591 88.3698 23.1989 84.4854 23.8301L82.5189 19.97C85.238 20.2614 88.5397 20.4556 92.4241 20.5527H108.738V19.533C108.738 13.2695 108.423 8.17122 107.792 4.23828C113.57 5.64637 116.483 6.71458 116.532 7.4429C116.532 7.63712 116.313 7.87989 115.876 8.17122L114.638 9.04521V20.5527H129.059L130.807 18.8047C132.118 17.5909 132.895 16.9839 133.137 16.9839C133.574 16.9839 134.642 17.8336 136.342 19.533C138.09 21.1839 138.964 22.2764 138.964 22.8105C138.478 23.3932 137.434 23.7088 135.832 23.7573C131.511 30.4579 125.854 36.8428 118.862 42.9122C111.87 48.9815 104.247 54.007 95.9929 57.9885C98.4692 60.4162 101.601 62.0428 105.388 62.8682C109.175 63.6451 114.371 64.0335 120.974 64.0335C133.113 64.0335 141.1 63.9607 144.936 63.815V64.9075C142.848 65.3931 141.731 66.9954 141.586 69.7144H120.756C112.501 69.7144 106.189 68.622 101.819 66.437C97.4981 64.3006 94.0264 60.1006 91.4044 53.837ZM178.002 13.1966L179.531 11.0117C179.629 10.866 179.774 10.6718 179.968 10.429C180.163 10.1377 180.308 9.9192 180.405 9.77353C180.502 9.62787 180.624 9.4822 180.77 9.33654C180.915 9.14232 181.037 9.02093 181.134 8.97238C181.279 8.87527 181.401 8.82671 181.498 8.82671C181.983 8.82671 183.076 9.60359 184.775 11.1573C186.475 12.6625 187.324 13.6822 187.324 14.2163C187.179 15.0417 186.572 15.4544 185.504 15.4544H167.077C163.484 15.503 159.745 15.8429 155.861 16.4741L154.04 12.614C156.614 12.9053 159.697 13.0995 163.29 13.1966H167.66C167.66 8.92382 167.466 5.52499 167.077 3.00014C172.321 4.35967 174.967 5.37932 175.016 6.05909C175.016 6.30186 174.822 6.54464 174.433 6.78741L173.268 7.58857V13.1966H178.002ZM159.503 16.1828L160.449 15.8186C164.965 18.5377 167.393 21.5724 167.733 24.9226C167.927 26.9134 167.368 28.2729 166.057 29.0012C164.941 29.681 163.8 29.414 162.634 28.2001C162.634 24.6556 161.59 20.6498 159.503 16.1828ZM179.823 29.9481L181.279 27.6903C181.425 27.5446 181.571 27.3504 181.716 27.1076C181.911 26.8163 182.056 26.5978 182.153 26.4521C182.299 26.2579 182.445 26.0637 182.59 25.8695C182.736 25.6752 182.857 25.5538 182.955 25.5053C183.1 25.4082 183.222 25.3596 183.319 25.3596C183.804 25.3596 184.921 26.1608 186.669 27.7631C188.465 29.3654 189.364 30.4336 189.364 30.9677C189.17 31.7446 188.514 32.133 187.397 32.133H165.766C162.27 32.1816 158.556 32.5215 154.623 33.1527L152.729 29.3654C155.448 29.6567 158.75 29.8509 162.634 29.9481H172.394C174.142 24.2671 175.016 19.3388 175.016 15.1631C180.357 16.7169 183.052 17.8094 183.1 18.4406C183.1 18.6348 182.882 18.8047 182.445 18.9504L181.134 19.4602C179.337 22.7134 176.982 26.2093 174.069 29.9481H179.823ZM178.949 41.5284L180.405 39.3434C181.474 37.8868 182.153 37.1584 182.445 37.1584C182.93 37.1584 183.998 37.911 185.649 39.4162C187.3 40.9214 188.126 41.9411 188.126 42.4752C187.883 43.3006 187.227 43.7133 186.159 43.7133H173.049V46.9908L173.195 46.8451C179.119 48.3018 182.809 50.6567 184.265 53.9099C185.139 55.852 185.018 57.3815 183.901 58.4983C182.882 59.5179 181.619 59.4937 180.114 58.4254C179.774 56.726 178.924 54.9052 177.565 52.963C176.205 50.9723 174.7 49.2486 173.049 47.7919V55.2937C173.195 61.6058 173.365 66.437 173.559 69.7873C173.268 70.2728 172.612 70.7584 171.593 71.2439C170.573 71.778 169.578 72.0451 168.607 72.0451C168.121 72.0451 167.733 71.8751 167.441 71.5352C167.15 71.2439 167.004 70.904 167.004 70.5156C167.296 66.6312 167.49 62.7468 167.587 58.8624V52.2347C164.091 57.5757 159.575 62.237 154.04 66.2185L153.166 65.1988C158.459 59.615 162.61 52.4532 165.62 43.7133H161.906C159.818 43.7619 157.633 44.1018 155.351 44.733L153.385 40.9457C156.007 41.237 159.187 41.4313 162.926 41.5284H167.587C167.587 37.9839 167.417 35.0463 167.077 32.7157C172.175 34.1723 174.724 35.2648 174.724 35.9931C174.724 36.1873 174.53 36.4058 174.142 36.6486L173.049 37.3769V41.5284H178.949ZM196.793 11.3758C203.639 8.65677 208.616 5.64637 211.723 2.34465C216.142 6.32614 218.157 8.55966 217.768 9.04521C217.623 9.14232 217.283 9.19087 216.749 9.19087L214.855 9.04521C209.417 10.9874 203.178 12.444 196.137 13.4151V29.2926H209.975L211.65 26.7434C212.816 25.0926 213.568 24.2671 213.908 24.2671C214.394 24.2671 215.608 25.1411 217.55 26.8891C219.492 28.6371 220.463 29.7781 220.463 30.3122C220.269 31.0891 219.613 31.4775 218.497 31.4775H211.286V52.3075C211.383 58.3769 211.578 64.2035 211.869 69.7873C210.752 71.2925 208.956 72.0451 206.479 72.0451C206.042 72.0451 205.63 71.8751 205.241 71.5352C204.901 71.2439 204.731 70.904 204.731 70.5156C205.168 64.1064 205.435 57.6486 205.533 51.1422V31.4775H196.137V33.881C196.137 36.9885 196.04 39.7318 195.846 42.111C195.652 44.4902 195.215 47.185 194.535 50.1954C193.904 53.2058 193.005 55.9006 191.84 58.2798C190.675 60.659 189.024 63.0624 186.887 65.4902C184.751 67.9179 182.226 70.0786 179.313 71.9722L178.366 71.0254C183.173 66.4127 186.378 61.1202 187.98 55.148C189.631 49.1272 190.456 42.0139 190.456 33.8082V21.4995C190.456 16.3527 190.213 12.1527 189.728 8.89955L196.793 11.3758ZM276.18 42.4752L277.928 39.9261C278.073 39.7804 278.243 39.5376 278.438 39.1977C278.68 38.8579 278.875 38.6151 279.02 38.4694C279.166 38.2752 279.312 38.081 279.457 37.8868C279.651 37.6925 279.821 37.5469 279.967 37.4498C280.113 37.3527 280.234 37.3041 280.331 37.3041C280.817 37.3041 282.152 38.2024 284.337 39.9989C286.522 41.7954 287.614 42.9607 287.614 43.4948C287.42 44.2717 286.789 44.6602 285.721 44.6602H263.871V66.5827H282.516L284.41 63.8879C284.555 63.6936 284.75 63.4509 284.992 63.1595C285.235 62.8197 285.405 62.5526 285.502 62.3584C285.648 62.1642 285.794 61.97 285.939 61.7757C286.133 61.5815 286.303 61.4358 286.449 61.3387C286.595 61.2416 286.716 61.1931 286.813 61.1931C287.299 61.1931 288.634 62.1399 290.819 64.0335C293.053 65.8786 294.169 67.0682 294.169 67.6023C294.024 68.3792 293.417 68.7676 292.348 68.7676H240.565C237.069 68.8162 233.354 69.1561 229.421 69.7873L227.455 66C230.174 66.2913 233.476 66.4855 237.36 66.5827H257.753V44.6602H248.722C245.129 44.7087 241.39 45.0486 237.506 45.6798L235.685 41.8925C238.404 42.1839 241.706 42.3781 245.59 42.4752H257.753V23.6117H242.604C238.477 30.992 233.791 36.8186 228.547 41.0914L227.528 40.4359C231.461 35.0949 234.908 28.7342 237.87 21.3539C238.793 19.0718 239.642 16.3284 240.419 13.1238C241.245 9.9192 241.73 7.29724 241.876 5.25794C247.799 7.15157 250.761 8.43828 250.761 9.11804C250.761 9.31226 250.543 9.50648 250.106 9.7007L248.795 10.2105C247.581 13.7065 245.93 17.4452 243.842 21.4267H257.753V18.3677C257.753 12.1042 257.438 7.00591 256.806 3.07297C262.779 4.57817 265.765 5.69493 265.765 6.42325C265.765 6.61747 265.546 6.86024 265.109 7.15157L263.871 7.95273V21.4267H278.729L280.55 18.8776C281.861 17.1781 282.662 16.3284 282.953 16.3284C283.439 16.3284 284.75 17.2267 286.886 19.0232C289.022 20.7712 290.091 21.9122 290.091 22.4463C289.896 23.2232 289.241 23.6117 288.124 23.6117H263.871V42.4752H276.18Z" fill="#2F0000"/>
<path d="M19.4181 99.749V101.002C19.1721 100.967 18.9964 100.955 18.5865 100.944C18.4811 102.197 18.4343 102.49 18.2469 103.274C18.0127 104.164 17.7667 104.762 17.2982 105.535C17.9892 106.308 18.6802 106.846 19.6874 107.373C19.3244 107.877 19.1721 108.17 18.973 108.708C17.9658 108.111 17.2045 107.467 16.4901 106.636C15.7991 107.432 14.8973 108.146 13.7964 108.755C13.6091 108.322 13.41 107.994 13.1289 107.643C12.8829 108.451 12.6136 108.626 11.6064 108.626C11.3955 108.626 11.2199 108.615 10.8217 108.58C10.7982 108.099 10.7514 107.83 10.5991 107.338C10.8685 107.408 11.173 107.444 11.3955 107.444C11.8289 107.444 11.9226 107.397 12.0045 107.163C12.1802 106.659 12.2622 105.417 12.2622 103.368V103.286H11.1262C10.9036 106.132 10.4937 107.537 9.49824 108.802C9.21716 108.287 8.93608 107.947 8.58473 107.666C9.29914 106.741 9.61536 105.874 9.83788 104.246C9.91986 103.626 10.0018 102.572 10.0253 101.834C10.0253 101.728 10.0253 101.728 10.0253 101.4C10.0253 101.283 10.0253 101.119 10.037 100.92H9.84959C9.31085 100.92 9.0532 100.932 8.7604 100.967V99.7139C9.11176 99.7607 9.41626 99.7842 9.96671 99.7842H10.9271C10.7748 99.2337 10.6343 98.8941 10.3649 98.4022L11.5595 97.9688C11.9577 98.8589 12.11 99.304 12.2036 99.7842H12.6955C13.1991 99.7842 13.4685 99.7724 13.8082 99.7256V100.955C13.4334 100.932 13.0937 100.92 12.7307 100.92H11.2667C11.2199 101.927 11.2199 101.927 11.2082 102.15H12.5082C13.0586 102.15 13.2109 102.15 13.4568 102.115C13.4568 102.15 13.4568 102.162 13.4568 102.197C13.9253 101.588 14.3703 100.604 14.71 99.3977C14.8739 98.8121 14.9676 98.3085 14.9793 97.9571L16.3145 98.1679C16.2676 98.3085 16.2676 98.3085 16.1856 98.6364C16.1388 98.8472 15.9163 99.6436 15.8694 99.8076H18.1532C18.6685 99.8076 19.0901 99.7842 19.4181 99.749ZM17.3451 100.944H15.4829C15.4009 101.154 15.4009 101.154 15.2604 101.482C15.5181 102.642 15.7991 103.321 16.4667 104.434C16.982 103.485 17.2631 102.372 17.3451 100.944ZM15.682 105.546C15.1901 104.75 14.8973 104.082 14.5109 102.864C14.3937 103.052 14.3235 103.157 14.0424 103.52C13.8901 103.251 13.691 102.993 13.4334 102.712C13.4334 102.771 13.4334 102.794 13.4334 102.888C13.4334 105.207 13.3397 106.706 13.164 107.479C14.1009 107.057 14.9208 106.425 15.682 105.546ZM26.4802 99.8427V101.213C28.2838 101.998 29.0919 102.408 30.6847 103.368L30.0172 104.539C28.9514 103.801 27.6514 103.063 26.4802 102.536V107.116C26.4802 107.865 26.5036 108.275 26.5622 108.732H25.0397C25.0982 108.287 25.1217 107.865 25.1217 107.116V99.8427H22.428C21.8424 99.8427 21.3271 99.8661 20.8586 99.913V98.5427C21.3036 98.5896 21.8073 98.613 22.428 98.613H29.7829C30.3919 98.613 30.8838 98.5896 31.3523 98.5427V99.913C30.8604 99.8661 30.3802 99.8427 29.7829 99.8427H26.4802ZM36.8802 104.996L36.8685 105.019C36.564 106.811 36.3766 107.467 35.873 108.591C35.6036 108.24 35.4514 108.088 34.9829 107.713C34.9946 108.146 35.0064 108.521 35.0532 108.861H33.7181C33.7649 108.392 33.7883 108.029 33.7883 107.479V103.977C33.7883 103.426 33.8 103.169 33.8235 102.782C33.6127 103.216 33.4487 103.473 33.0388 104.012C32.8748 103.345 32.7928 103.169 32.4883 102.642C33.0505 102.009 33.4721 101.342 33.8703 100.428C34.2685 99.5265 34.491 98.8004 34.6433 97.8869L35.8613 98.3319C35.791 98.531 35.7325 98.7184 35.6505 99.0229C35.5217 99.4914 35.2757 100.159 34.9829 100.826V107.444C35.7208 106.144 36.0136 104.281 36.0136 101.014C36.0136 99.913 36.0018 99.6319 35.9784 99.1634C36.3181 99.1986 36.646 99.2103 37.2433 99.2103H38.9064C38.6721 98.7887 38.5901 98.6715 38.3793 98.3905L39.5154 97.9103C39.8667 98.3553 40.1009 98.7301 40.3 99.2103H41.9631C42.5604 99.2103 42.7595 99.1986 43.0757 99.1634C43.0406 99.4328 43.0289 99.6319 43.0289 100.007V101.517C43.0289 101.904 43.0406 102.126 43.0757 102.349C42.7595 102.326 42.5136 102.314 42.01 102.314H37.2199C37.1964 102.876 37.1847 103.181 37.173 103.356C37.3838 103.368 37.3838 103.368 37.9109 103.368H42.1856C42.8883 103.368 43.0172 103.368 43.3217 103.321C43.2748 103.754 43.2631 103.907 43.2631 104.457V107.666C43.2631 108.439 42.9937 108.673 42.1388 108.673C41.9748 108.673 41.8694 108.673 41.6352 108.662C41.6235 108.217 41.5766 107.982 41.4361 107.596C41.6937 107.631 41.8343 107.643 42.01 107.643C42.1973 107.643 42.2325 107.608 42.2325 107.385V106.46H41.3541V107.373C41.3541 108.053 41.3658 108.263 41.4009 108.533H40.3235C40.3586 108.287 40.3703 107.994 40.3703 107.373V106.46H39.6793V107.373C39.6793 108.041 39.691 108.287 39.7145 108.533H38.6487C38.6838 108.252 38.6955 108.017 38.6955 107.373V106.46H37.9343V107.76C37.9343 108.252 37.946 108.556 37.9928 108.802H36.8217C36.8685 108.474 36.8802 108.17 36.8802 107.748V104.996ZM41.3541 105.429H42.2325V104.399H41.3541V105.429ZM40.3703 105.429V104.399H39.6793V105.429H40.3703ZM38.6955 105.429V104.399H37.9343V105.429H38.6955ZM37.2433 100.229L37.2316 101.295H41.7874V100.229H37.2433ZM47.7136 99.667L47.6901 104.399V104.434C47.6901 104.516 47.6901 104.715 47.7018 104.984C47.7018 105.125 47.7136 105.312 47.7136 105.581H46.4018C46.4487 105.242 46.4604 104.972 46.4604 104.375V99.9013C46.4604 99.2805 46.437 98.7887 46.4018 98.4373C46.7532 98.4842 47.0343 98.4959 47.6316 98.4959H52.8901C53.4991 98.4959 53.7919 98.4842 54.1316 98.4373C54.0964 98.7652 54.073 99.2688 54.073 99.9013V104.375C54.073 104.984 54.0847 105.254 54.1316 105.581H52.7964C52.8082 105.265 52.8199 104.867 52.8199 104.387L52.8316 99.667H47.7136ZM49.5055 100.276H50.8172C50.7352 102.935 50.6883 103.661 50.5361 104.516H51.5901C51.5667 104.972 51.555 105.172 51.555 105.406V107.186C51.555 107.479 51.7775 107.549 52.6091 107.549C53.6748 107.549 54.0496 107.502 54.2136 107.338C54.3541 107.209 54.4127 106.846 54.4595 105.804C54.9748 106.085 55.2091 106.179 55.6658 106.296C55.5487 107.526 55.455 107.947 55.2091 108.228C54.9163 108.591 54.2838 108.708 52.7379 108.708C50.7469 108.708 50.2901 108.509 50.2901 107.666V105.453C50.2901 105.453 50.2901 105.417 50.3018 105.347C50.3018 105.3 50.3018 105.277 50.3018 105.277C50.2784 105.324 50.2667 105.371 50.2433 105.417C50.2082 105.488 50.2082 105.488 50.1964 105.523C50.0325 105.956 49.6577 106.483 49.1892 106.928C48.7208 107.385 48.1118 107.818 47.4208 108.181C46.9406 108.439 46.5307 108.615 45.6289 108.943C45.4298 108.486 45.3127 108.299 44.9027 107.795C46.4721 107.28 47.3505 106.811 48.1352 106.097C48.6036 105.663 48.955 105.218 49.119 104.844C49.3766 104.188 49.482 103.017 49.5055 100.276ZM59.5073 105.804V107.514C59.5073 108.521 59.2496 108.896 58.3009 109.271L57.891 108.65C58.5937 108.451 58.7577 108.24 58.7694 107.514H57.7973V105.804H59.5073ZM69.3451 98.9643L70.1181 98.0274C70.9379 98.5544 71.3829 98.8941 72.1442 99.5733L71.3478 100.581C70.6685 99.913 70.1415 99.4796 69.3451 98.9643ZM68.9118 101.892L69.6027 100.908C70.3054 101.318 70.9496 101.775 71.7226 102.396L70.9847 103.462C70.1766 102.724 69.755 102.408 68.9118 101.892ZM70.6568 104.188L71.7226 104.867C71.1604 106.577 70.9496 107.081 70.3054 108.275C70.1883 108.486 70.1532 108.568 70.0712 108.72L68.9352 107.748C69.0991 107.584 69.3217 107.268 69.5559 106.87C70.0009 106.108 70.3054 105.371 70.6568 104.188ZM77.6018 102.888H73.573C73.1514 102.888 72.8586 102.899 72.4838 102.923C72.5073 102.583 72.519 102.29 72.519 101.834V99.3625C72.519 98.9292 72.5073 98.6715 72.4838 98.3319C72.7766 98.367 73.1045 98.3787 73.6784 98.3787H77.473C78.0586 98.3787 78.3748 98.367 78.6676 98.3319C78.6325 98.695 78.6208 98.9175 78.6208 99.3977V101.857C78.6208 102.279 78.6325 102.56 78.6676 102.923C78.3514 102.899 78.082 102.888 77.6018 102.888ZM73.7253 99.4679V100.182H77.4027V99.4679H73.7253ZM73.7253 101.166V101.881H77.4027V101.166H73.7253ZM79.0892 107.186H79.2649C79.5343 107.186 79.6748 107.174 79.8973 107.127V108.427C79.6748 108.392 79.6748 108.392 78.6208 108.357H72.4955C72.0154 108.357 71.6054 108.381 71.2073 108.427V107.139C71.4298 107.174 71.6054 107.186 71.8514 107.186H72.1091V104.422C72.1091 104.082 72.0973 103.895 72.0739 103.579C72.3199 103.602 72.5307 103.614 73.0928 103.614H78.0703C78.6793 103.614 78.8784 103.602 79.1361 103.579C79.1009 103.918 79.0892 104.071 79.0892 104.399V107.186ZM73.2217 104.68V107.186H74.0883V104.68H73.2217ZM75.1307 104.68V107.186H76.0091V104.68H75.1307ZM77.0514 104.68V107.186H77.9415V104.68H77.0514ZM85.7532 104.574V103.872C85.5541 103.872 85.437 103.872 84.8631 103.848C84.7928 103.462 84.7226 103.204 84.6172 102.97C83.9496 103.356 83.0127 103.708 81.7478 104.047C81.4784 103.614 81.3379 103.438 80.9514 103.017C82.837 102.7 84.137 102.244 84.8865 101.646H82.7667C82.1694 101.646 81.7361 101.67 81.3613 101.717V100.534C81.7244 100.581 82.2163 100.604 82.8955 100.604H85.4253C85.1442 100.405 84.8631 100.264 84.0433 99.8427L84.6406 99.3274H83.6451C83.0244 99.3274 82.7433 99.3391 82.3919 99.386V98.2265C82.7667 98.2733 83.2 98.2968 83.8793 98.2968H88.5055C89.1847 98.2968 89.5009 98.2851 89.7469 98.2499L90.4262 98.9995C90.3676 99.0346 90.3676 99.0346 90.2973 99.0814C90.2505 99.1166 90.1334 99.1986 89.9694 99.3157C89.3955 99.7139 88.5523 100.194 87.6622 100.604H89.7586C90.2271 100.604 90.5082 100.592 90.8244 100.557L91.5739 101.342C91.4334 101.482 91.4334 101.482 91.2811 101.646C90.6018 102.361 89.8874 102.923 88.8451 103.555C88.482 103.11 88.3766 103.005 87.8964 102.665C88.728 102.279 88.9739 102.126 89.5478 101.646H87.5802V103.017C87.5802 103.497 87.4163 103.731 87.0298 103.813V104.574H90.2739C90.9298 104.574 91.3631 104.551 91.7145 104.504V105.769C91.3514 105.722 90.9298 105.699 90.2856 105.699H87.9784C88.9036 106.495 90.2154 107.081 92.0073 107.479C91.7145 107.877 91.5505 108.158 91.3046 108.697C89.4073 108.111 88.0604 107.315 86.9946 106.179L87.0181 106.577C87.0181 106.706 87.0298 106.999 87.0298 107.104V107.912C87.0298 108.369 87.0415 108.591 87.1 108.849H85.6829C85.7298 108.533 85.7532 108.263 85.7532 107.912V107.116C85.7532 106.893 85.7649 106.671 85.7883 106.19C84.7226 107.291 83.5865 107.994 81.6658 108.708C81.4667 108.252 81.3027 108.006 80.928 107.572C82.5325 107.127 83.8208 106.507 84.8046 105.699H82.6613C82.0406 105.699 81.5955 105.722 81.2325 105.769V104.504C81.5838 104.551 81.9118 104.574 82.3919 104.574H85.7532ZM86.3622 101.646H86.3154C85.9289 102.091 85.5658 102.384 84.828 102.841C84.9451 102.864 84.9451 102.864 85.2262 102.888C85.4253 102.911 85.8703 102.935 86.1046 102.935C86.3036 102.935 86.3622 102.888 86.3622 102.712V101.646ZM88.0838 99.3274H85.1442C85.7649 99.667 86.1865 99.9247 86.5379 100.171C87.0532 99.9481 87.3226 99.7959 88.0838 99.3274ZM97.5118 99.0463H99.4559C99.7253 98.7184 99.9829 98.2968 100.17 97.8869L101.505 98.1562C101.318 98.449 101.06 98.7769 100.838 99.0463H102.196C102.77 99.0463 103.028 99.0346 103.379 98.976V100.1C103.028 100.054 102.712 100.042 102.196 100.042H99.0226V100.569H101.74C102.337 100.569 102.56 100.557 102.841 100.522V101.564C102.548 101.529 102.314 101.517 101.74 101.517H99.0226V102.08H102.302C102.899 102.08 103.18 102.068 103.485 102.021V103.134C103.157 103.087 102.899 103.075 102.302 103.075H99.0226V104.153H100.135C100.369 103.86 100.58 103.508 100.768 103.134L102.032 103.579C101.927 103.708 101.927 103.708 101.681 104.012C101.658 104.059 101.623 104.094 101.564 104.153H102.641C103.25 104.153 103.508 104.141 103.824 104.094V105.23C103.473 105.172 103.18 105.16 102.641 105.16H94.3379C93.8109 105.16 93.4946 105.172 93.155 105.23V104.094C93.4712 104.141 93.7289 104.153 94.3379 104.153H95.3919C95.1577 103.79 95.1343 103.766 94.8883 103.485L96.1298 103.11C96.3757 103.45 96.6217 103.872 96.7388 104.153H97.7811V103.075H94.7009C94.1154 103.075 93.8577 103.087 93.5064 103.134V102.021C93.8109 102.068 94.1037 102.08 94.7009 102.08H97.7811V101.517H95.2982C94.7244 101.517 94.4901 101.529 94.1973 101.564V100.522C94.4784 100.557 94.7009 100.569 95.2982 100.569H97.7811V100.042H94.8181C94.3145 100.042 94.0217 100.054 93.6469 100.1V98.976C93.9982 99.0346 94.2559 99.0463 94.8181 99.0463H96.1415C95.9073 98.6481 95.8136 98.531 95.4739 98.1094L96.7622 97.8751C97.0901 98.3202 97.3244 98.695 97.5118 99.0463ZM95.7433 108.826H94.4082C94.455 108.451 94.4784 108.123 94.4784 107.654V106.577C94.4784 106.179 94.4667 105.909 94.4199 105.605C94.7361 105.64 94.982 105.652 95.3919 105.652H101.576C102.044 105.652 102.278 105.64 102.56 105.605C102.513 105.921 102.501 106.155 102.501 106.542V107.666C102.501 108.135 102.524 108.474 102.571 108.826H101.213V108.369H95.7433V108.826ZM95.7433 106.647V107.338H101.213V106.647H95.7433ZM111.355 99.222V98.8941C111.355 98.5661 111.332 98.2968 111.285 97.9923H112.678C112.632 98.2851 112.62 98.5427 112.62 98.9058V99.222H114.119C114.658 99.222 114.986 99.1986 115.325 99.1517V100.405C114.986 100.358 114.693 100.346 114.142 100.346H112.62V101.517H114.564C115.091 101.517 115.466 101.494 115.829 101.459V102.7C115.536 102.665 115.161 102.642 114.587 102.642H114.318V103.649H114.564C115.103 103.649 115.419 103.637 115.782 103.59V104.867C115.466 104.82 115.079 104.797 114.576 104.797H114.318V107.526C114.318 108.041 114.224 108.275 113.943 108.463C113.697 108.65 113.346 108.708 112.596 108.708C112.292 108.708 112.046 108.697 111.496 108.662C111.425 108.135 111.355 107.818 111.179 107.385C111.812 107.479 112.187 107.514 112.573 107.514C112.983 107.514 113.088 107.455 113.088 107.233V104.797H109.856C109.352 104.797 108.989 104.82 108.638 104.867V103.59C108.978 103.637 109.282 103.649 109.786 103.649H113.088V102.642H109.692C109.165 102.642 108.884 102.654 108.556 102.7V101.459C108.896 101.506 109.177 101.517 109.692 101.517H111.355V100.346H109.985C109.458 100.346 109.165 100.358 108.825 100.405V99.1517C109.153 99.1986 109.493 99.222 110.032 99.222H111.355ZM107.56 97.8751L108.603 98.6364C108.486 98.7652 108.486 98.7652 108.275 99.0112C107.467 99.9715 106.741 100.616 105.757 101.225C105.569 100.768 105.37 100.44 105.101 100.124C106.272 99.4445 107.127 98.6715 107.56 97.8751ZM106.413 107.444V105.207C106.413 104.808 106.413 104.785 106.436 103.942C106.108 104.352 106.05 104.41 105.558 104.82C105.37 104.235 105.241 103.954 104.996 103.555C105.804 102.981 106.331 102.454 106.963 101.611C107.256 101.225 107.467 100.873 107.607 100.545L108.65 101.26C108.556 101.377 108.556 101.377 108.497 101.482C108.497 101.482 108.474 101.517 108.427 101.588C108.404 101.611 108.369 101.658 108.333 101.74C108.111 102.08 107.935 102.326 107.631 102.7V107.455C107.631 108.099 107.642 108.498 107.689 108.826H106.342C106.389 108.498 106.413 108.076 106.413 107.444ZM111.718 106.764L110.699 107.549C110.078 106.542 109.832 106.237 109.13 105.546L110.09 104.855C110.758 105.499 111.05 105.839 111.718 106.764ZM126.428 99.8896H122.036C122.024 100.698 121.989 101.166 121.931 101.705H125.292C125.983 101.705 126.44 101.693 126.791 101.646C126.756 101.916 126.756 101.927 126.721 102.97C126.639 105.031 126.405 106.893 126.112 107.608C125.807 108.345 125.315 108.591 124.144 108.591C123.746 108.591 123.523 108.58 122.481 108.498C122.423 107.971 122.352 107.631 122.165 107.163C122.868 107.315 123.523 107.397 124.039 107.397C124.636 107.397 124.835 107.28 124.964 106.846C125.198 106.003 125.327 104.867 125.397 102.935H121.755C121.532 104.27 121.123 105.359 120.455 106.436C119.834 107.42 119.214 108.064 118.16 108.814C117.89 108.369 117.597 108.029 117.176 107.69C118.031 107.139 118.464 106.753 118.979 106.085C119.799 105.019 120.303 103.79 120.537 102.22C120.654 101.436 120.654 101.436 120.701 99.8896H118.897C118.359 99.8896 117.867 99.913 117.387 99.9598V98.5778C117.82 98.6247 118.312 98.6481 118.886 98.6481H126.416C126.978 98.6481 127.459 98.6247 127.915 98.5778V99.9598C127.459 99.913 126.955 99.8896 126.428 99.8896ZM135.739 100.862H135.188C135.177 100.885 135.177 100.885 135.153 100.955C134.802 101.681 134.345 102.349 133.795 102.923C133.432 102.478 133.209 102.279 132.823 102.033C133.115 101.763 133.268 101.611 133.385 101.471C133.174 101.447 132.998 101.447 132.729 101.447H132.448V103.637C132.834 103.508 133.033 103.426 133.549 103.204L133.56 104.375C132.963 104.633 132.799 104.703 132.448 104.844V107.502C132.448 107.994 132.471 108.404 132.518 108.849H131.136C131.195 108.439 131.218 108.017 131.218 107.502V105.289C130.515 105.535 130.515 105.535 130.164 105.652C129.848 105.757 129.778 105.792 129.543 105.898L129.274 104.504C129.813 104.469 130.094 104.399 131.218 104.047V101.447H130.632C130.55 101.998 130.422 102.572 130.187 103.345C129.801 103.028 129.567 102.899 129.122 102.712C129.344 102.185 129.426 101.857 129.555 101.084C129.66 100.499 129.719 99.9013 129.719 99.4094C129.719 99.2571 129.707 99.1517 129.696 98.9409L130.867 99.0697C130.808 99.9247 130.796 100.018 130.773 100.264H131.218V98.9409C131.218 98.5778 131.195 98.3085 131.136 97.9805H132.518C132.471 98.2851 132.448 98.5544 132.448 98.9409V100.264H132.729C133.104 100.264 133.291 100.253 133.49 100.206V101.33C133.841 100.838 134.099 100.358 134.322 99.7959C134.614 99.0697 134.79 98.4724 134.837 97.9923L136.196 98.2265C136.102 98.4724 136.102 98.4724 135.821 99.2923C135.774 99.4211 135.75 99.4914 135.669 99.7256H138.913C139.405 99.7256 139.674 99.7139 139.885 99.6787C139.838 100.042 139.838 100.042 139.814 101.154C139.732 105.136 139.58 106.905 139.264 107.713C138.995 108.416 138.503 108.685 137.46 108.685C137.179 108.685 136.945 108.673 136.336 108.615V108.591C136.336 108.135 136.242 107.736 136.032 107.291C136.629 107.42 137.086 107.479 137.472 107.479C137.952 107.479 138.128 107.233 138.257 106.401C138.456 105.136 138.561 103.227 138.596 100.862H138.456C138.175 102.607 137.765 103.989 137.203 105.101C136.5 106.518 135.68 107.49 134.158 108.697C133.888 108.275 133.689 108.076 133.174 107.736C134.614 106.788 135.505 105.816 136.219 104.41C136.605 103.614 137.004 102.525 137.191 101.681C137.203 101.588 137.261 101.318 137.343 100.862H136.863C136.278 103.145 135.317 104.726 133.724 105.991C133.502 105.558 133.291 105.312 132.858 104.972C133.502 104.574 133.806 104.305 134.24 103.79C134.954 102.935 135.423 102.033 135.739 100.862ZM143.949 105.804V107.514C143.949 108.521 143.691 108.896 142.742 109.271L142.332 108.65C143.035 108.451 143.199 108.24 143.211 107.514H142.239V105.804H143.949ZM162.699 100.686H157.874C157.429 101.599 156.972 102.337 156.34 103.122V107.444C156.34 108.076 156.351 108.474 156.398 108.802H154.969C155.016 108.427 155.04 108.053 155.04 107.444V104.539C154.595 104.972 154.513 105.043 154.15 105.336C153.904 104.855 153.658 104.539 153.271 104.176C154.712 103.122 155.684 102.045 156.433 100.686H155.005C154.419 100.686 153.962 100.709 153.599 100.756V99.386C153.915 99.4328 154.372 99.4562 155.005 99.4562H157.019C157.277 98.8238 157.429 98.3202 157.487 97.8986L158.94 98.1796C158.881 98.3085 158.858 98.3553 158.752 98.6481C158.659 98.9175 158.553 99.1869 158.448 99.4562H162.699C163.332 99.4562 163.788 99.4328 164.105 99.386V100.756C163.73 100.709 163.285 100.686 162.699 100.686ZM160.849 104.41V107.163H162.711C163.332 107.163 163.683 107.139 164.011 107.092V108.439C163.554 108.392 163.214 108.369 162.699 108.369H158.014C157.464 108.369 157.089 108.392 156.703 108.439V107.092C157.066 107.139 157.441 107.163 158.003 107.163H159.549V104.41H158.331C157.78 104.41 157.417 104.422 157.066 104.469V103.145C157.405 103.192 157.722 103.216 158.319 103.216H159.549V102.466C159.549 101.857 159.537 101.564 159.49 101.248H160.907C160.86 101.506 160.849 101.822 160.849 102.49V103.216H162.313C162.898 103.216 163.226 103.192 163.566 103.145V104.469C163.214 104.422 162.851 104.41 162.313 104.41H160.849ZM168.297 102.911V106.343C168.801 105.991 169.023 105.816 169.504 105.417V106.87C168.766 107.455 167.911 108.041 167.114 108.521L166.552 107.291C166.915 107.104 167.009 106.975 167.068 106.6V102.876H166.576C166.236 102.876 165.92 102.899 165.569 102.946V101.564C165.955 101.623 166.189 101.635 166.587 101.635H167.478C167.852 101.635 168.04 101.623 168.344 101.576C168.297 102.033 168.297 102.126 168.297 102.911ZM174.774 102.899L175.465 103.661C175.36 103.801 175.36 103.801 175.16 104.141C174.587 105.113 174.153 105.699 173.544 106.308C174.411 106.905 175.16 107.221 176.367 107.514C176.039 107.889 175.781 108.287 175.582 108.744C174.177 108.263 173.345 107.83 172.549 107.174C172.232 107.408 171.893 107.619 171.331 107.947C170.663 108.322 170.569 108.369 169.504 108.72C169.363 108.24 169.211 107.959 168.86 107.514C170.16 107.163 170.581 106.963 171.635 106.296C171.014 105.57 170.71 105.066 170.312 104.094C170.078 104.094 169.996 104.106 169.808 104.129V102.899C170.078 102.935 170.417 102.958 170.733 102.958H174.083C174.399 102.958 174.61 102.946 174.774 102.899ZM173.79 104.082H171.565C171.858 104.691 172.139 105.09 172.607 105.558C173.123 105.09 173.357 104.797 173.79 104.082ZM169.023 99.6085L168.087 100.663C167.735 100.217 166.962 99.4796 166.435 99.0932L167.384 98.1679C167.899 98.5544 168.649 99.222 169.023 99.6085ZM174.715 99.0346V100.967C174.715 101.178 174.75 101.248 174.903 101.248C174.926 101.248 174.938 101.248 174.95 101.248C175.84 101.19 175.84 101.19 176.121 101.131C176.05 101.354 175.933 101.927 175.887 102.396C175.816 102.396 175.781 102.396 175.734 102.396C175.652 102.396 175.582 102.396 175.371 102.419C175.207 102.431 175.067 102.431 174.95 102.431C174.469 102.431 174.048 102.372 173.86 102.279C173.591 102.15 173.509 101.951 173.509 101.447V99.5382H171.6C171.577 100.651 171.506 100.99 171.214 101.494C170.956 101.916 170.675 102.22 169.949 102.806C169.668 102.384 169.469 102.185 169.047 101.857C169.75 101.436 169.996 101.19 170.195 100.721C170.359 100.335 170.417 99.8896 170.417 99.0814C170.417 98.7301 170.405 98.5544 170.382 98.2968C170.593 98.3202 170.85 98.3319 171.132 98.3319H174.036C174.294 98.3319 174.54 98.3202 174.75 98.2968C174.727 98.4373 174.715 98.7067 174.715 99.0346ZM180.712 102.899V106.53C181.344 106.144 181.625 105.968 182.012 105.699V107.104C181.356 107.526 180.36 108.088 179.576 108.463L179.049 107.233C179.353 107.034 179.423 106.928 179.482 106.659V102.864H178.639C178.299 102.864 177.983 102.888 177.632 102.935V101.553C178.018 101.611 178.252 101.623 178.651 101.623H179.892C180.267 101.623 180.454 101.611 180.759 101.564C180.712 102.021 180.712 102.103 180.712 102.899ZM184.178 101.588V99.4445C184.178 98.695 184.167 98.4607 184.073 98.0274H185.654C185.572 98.4373 185.549 98.7652 185.549 99.4445V101.588H186.743C187.493 101.588 187.926 101.564 188.383 101.517V102.864C187.844 102.817 187.411 102.794 186.732 102.794H185.549V107.104C185.549 107.971 185.572 108.392 185.654 108.896H184.073C184.155 108.404 184.178 108.006 184.178 107.104V102.794H183.265C182.574 102.794 182.023 102.817 181.45 102.864V101.517C182.012 101.564 182.504 101.588 183.253 101.588H184.178ZM181.356 99.6436L180.302 100.627C179.951 100.182 179.107 99.386 178.569 98.9878L179.599 98.1211C180.196 98.5778 180.981 99.2571 181.356 99.6436ZM199.158 98.8941L200.001 99.6436C199.896 99.7373 199.896 99.7373 199.591 100.159C199.123 100.791 198.514 101.436 197.951 101.904C198.701 102.29 199.404 102.501 200.68 102.689C200.446 103.099 200.329 103.403 200.2 103.883C198.678 103.508 197.799 103.157 196.968 102.595C196.183 103.063 195.527 103.333 194.239 103.719C194.075 103.286 193.946 103.028 193.723 102.712C194.813 102.454 195.539 102.208 196.101 101.892C195.726 101.541 195.562 101.342 195.211 100.838C194.93 101.178 194.801 101.318 194.391 101.681C194.063 101.342 193.852 101.154 193.641 101.014V105.886C193.641 106.518 193.653 106.799 193.7 107.069H192.435C192.494 106.741 192.505 106.46 192.505 105.863V101.096C192.505 100.499 192.494 100.335 192.459 99.995H193.688C193.653 100.241 193.653 100.311 193.641 100.78C194.625 99.913 195.223 98.9995 195.515 97.922L196.769 98.1562C196.593 98.5661 196.593 98.5661 196.394 98.9643H198.631C198.947 98.9643 198.959 98.9643 199.158 98.8941ZM198.35 100.007H195.867C196.218 100.557 196.534 100.92 197.026 101.307C197.53 100.932 197.916 100.557 198.35 100.007ZM190.714 107.432V104.094C190.714 103.52 190.725 103.227 190.749 102.7C190.456 103.263 190.304 103.508 189.941 103.954C189.765 103.368 189.601 102.958 189.378 102.583C190.444 101.412 191.381 99.4679 191.604 97.9571L192.927 98.2968C192.857 98.4842 192.857 98.4842 192.751 98.8238C192.505 99.5851 192.26 100.194 191.873 100.99V107.432C191.873 108.029 191.885 108.392 191.932 108.837H190.643C190.69 108.381 190.714 108.017 190.714 107.432ZM198.139 103.989L199.123 104.656C197.541 105.921 196.546 106.413 194.543 106.94C194.414 106.565 194.251 106.296 193.981 105.956C195.761 105.617 197.541 104.773 198.139 103.989ZM196.956 103.099L197.823 103.731C197.717 103.801 197.717 103.801 197.401 104.024C196.698 104.527 195.843 104.89 194.461 105.277C194.297 104.914 194.239 104.82 193.876 104.363C195.34 104.071 196.359 103.649 196.956 103.099ZM199.486 105.019L200.469 105.722C200.329 105.839 200.188 105.945 200.013 106.108C198.326 107.584 196.851 108.275 194.169 108.849C193.981 108.416 193.852 108.193 193.56 107.795C195.41 107.502 196.769 107.045 197.998 106.296C198.701 105.863 199.158 105.476 199.486 105.019ZM210.588 102.759V107.42C210.588 108.006 210.483 108.275 210.19 108.463C209.932 108.615 209.569 108.673 208.82 108.673C208.398 108.673 208.094 108.662 207.532 108.638C207.461 108.123 207.391 107.818 207.192 107.326C207.836 107.408 208.41 107.455 208.796 107.455C209.253 107.455 209.312 107.432 209.312 107.174V102.759H207.075C206.536 102.759 205.997 102.782 205.634 102.829V101.517C205.986 101.564 206.513 101.588 207.075 101.588H211.057C211.713 101.588 212.181 101.564 212.486 101.517V102.829C212.099 102.782 211.607 102.759 211.092 102.759H210.588ZM204.369 97.9454L205.494 98.7301C205.365 98.8706 205.365 98.8706 205.142 99.1283C204.381 100.042 203.55 100.768 202.449 101.471C202.214 101.014 202.015 100.733 201.711 100.37C202.636 99.8661 203.233 99.3977 203.807 98.7652C204.065 98.4607 204.217 98.2382 204.369 97.9454ZM206.103 99.8427V98.5427C206.431 98.5896 206.864 98.613 207.473 98.613H210.635C211.221 98.613 211.619 98.5896 211.97 98.5427V99.8427C211.56 99.7959 211.127 99.7724 210.659 99.7724H207.473C206.981 99.7724 206.489 99.7959 206.103 99.8427ZM203.315 107.326V105.277C203.315 104.785 203.315 104.773 203.339 103.918C203.034 104.281 202.683 104.621 202.273 104.914C202.097 104.387 201.945 104.082 201.687 103.661C202.917 102.864 204.123 101.576 204.569 100.569L205.669 101.295C205.552 101.424 205.447 101.564 205.283 101.81C205.014 102.197 204.908 102.349 204.604 102.724V107.338C204.604 107.959 204.627 108.427 204.686 108.814H203.233C203.292 108.451 203.315 107.936 203.315 107.326ZM219.723 99.995H222.932C223.448 99.995 223.694 99.9833 223.998 99.9481C223.963 100.276 223.951 100.522 223.951 100.979V104.551C223.951 105.078 223.963 105.382 224.01 105.722H222.628V105.019H219.723V107.397C219.723 108.099 219.747 108.439 219.805 108.849H218.306C218.365 108.416 218.388 108.053 218.388 107.397V105.019H215.624V105.722H214.242C214.289 105.336 214.301 105.043 214.301 104.551V100.967C214.301 100.534 214.289 100.323 214.254 99.9481C214.594 99.9833 214.84 99.995 215.308 99.995H218.388V99.2805C218.388 98.6715 218.377 98.3905 218.318 98.004H219.794C219.747 98.367 219.723 98.6715 219.723 99.2337V99.995ZM219.723 101.236V103.778H222.628V101.236H219.723ZM218.388 103.778V101.236H215.624V103.778H218.388ZM228.929 100.381V99.3274C228.929 98.976 228.917 98.7418 228.894 98.5193C229.14 98.5427 229.456 98.5544 230.053 98.5544H235.136C235.71 98.5544 236.026 98.5427 236.272 98.5193C236.249 98.7652 236.237 98.9292 236.237 99.3274V100.323C236.237 100.709 236.249 101.026 236.284 101.248H234.984V99.7373H230.159V101.248H228.882C228.917 100.908 228.929 100.674 228.929 100.381ZM225.685 101.916L226.411 100.955C227.254 101.436 227.769 101.799 228.46 102.396L227.687 103.426C226.914 102.7 226.528 102.408 225.685 101.916ZM227.559 104.129L228.601 104.89C228.226 106.026 227.887 106.858 227.453 107.69C227.301 107.982 227.278 108.017 226.856 108.744L225.708 107.783C225.989 107.49 226.13 107.315 226.341 106.952C226.774 106.202 227.125 105.394 227.559 104.129ZM233.344 102.372H231.658C231.646 104.293 231.529 105.371 231.224 106.214C230.955 106.94 230.533 107.561 229.924 108.088C229.678 108.31 229.456 108.474 228.976 108.814C228.695 108.263 228.589 108.099 228.179 107.678C229.14 107.081 229.62 106.624 229.924 105.98C230.217 105.359 230.369 104.27 230.369 102.864C230.369 101.892 230.358 101.541 230.311 101.178C230.557 101.201 230.85 101.213 231.283 101.213H233.684C234.141 101.213 234.351 101.201 234.644 101.178C234.621 101.482 234.609 101.775 234.609 102.15V107.022C234.609 107.28 234.691 107.35 234.972 107.35C235.288 107.35 235.405 107.268 235.464 107.022C235.534 106.647 235.569 106.108 235.569 105.218C236.12 105.499 236.319 105.57 236.764 105.663C236.647 108.287 236.46 108.591 234.89 108.591C234.258 108.591 233.883 108.521 233.66 108.345C233.414 108.17 233.344 107.936 233.344 107.373V102.372ZM226.141 98.976L226.938 98.0742C227.828 98.6364 228.226 98.9526 228.917 99.5851L228.121 100.592C227.418 99.8778 226.996 99.5382 226.141 98.976ZM245.466 105.148V107.127C245.958 107.209 246.391 107.245 246.977 107.245C247.55 107.245 247.96 107.221 248.815 107.127C248.581 107.69 248.534 107.889 248.452 108.486C247.878 108.509 247.621 108.521 247.375 108.521C245.77 108.521 244.669 108.31 243.85 107.842C243.311 107.549 242.807 107.057 242.479 106.542C242.151 107.373 241.753 108.029 241.144 108.72C240.781 108.275 240.594 108.123 240.137 107.877C240.828 107.186 241.343 106.308 241.636 105.265C241.788 104.68 241.905 103.942 241.905 103.45C241.905 103.391 241.905 103.345 241.894 103.239L243.205 103.391C243.17 103.555 243.159 103.59 243.123 103.895C243.053 104.352 243.006 104.633 242.901 105.195C243.205 105.827 243.686 106.366 244.213 106.682V102.548H242.995C242.479 102.548 242.187 102.56 241.87 102.607V101.658H241.062C241.086 101.436 241.097 101.201 241.097 100.897V99.9598C241.097 99.5733 241.086 99.386 241.062 99.1869C241.32 99.222 241.695 99.2337 242.233 99.2337H244.178C244.06 98.9409 243.943 98.7184 243.721 98.3553L244.915 97.922C245.208 98.4139 245.349 98.7301 245.524 99.2337H247.199C247.785 99.2337 248.148 99.222 248.441 99.1869C248.417 99.4445 248.405 99.6787 248.405 100.054V100.791C248.405 101.143 248.417 101.436 248.452 101.646H247.761V102.607C247.433 102.56 247.105 102.548 246.625 102.548H245.466V104.012H246.965C247.457 104.012 247.761 104 248.101 103.954V105.207C247.761 105.16 247.422 105.148 246.941 105.148H245.466ZM247.176 101.412V100.381H242.304V101.412C242.667 101.424 242.678 101.424 242.936 101.424H246.672C246.836 101.424 247 101.424 247.176 101.412ZM238.216 99.1049L239.024 98.1679C239.891 98.7067 240.336 99.0697 240.957 99.7373L240.149 100.768C239.411 99.9247 239.024 99.5968 238.216 99.1049ZM237.748 102.056L238.474 101.084C239.341 101.564 239.75 101.857 240.535 102.501L239.797 103.602C239.036 102.853 238.614 102.536 237.748 102.056ZM239.411 104.258L240.465 104.996C240.137 106.132 239.774 107.081 239.294 108.041C239.177 108.275 239.13 108.369 239.048 108.509C238.978 108.65 238.978 108.65 238.919 108.767L237.783 107.795C238.322 107.268 238.907 106.015 239.411 104.258ZM251.052 107.116L249.764 106.39C250.549 104.89 250.806 103.965 251.087 101.635L252.387 101.904C252.001 104.738 251.802 105.488 251.052 107.116ZM257.751 99.749L256.943 100.979C255.772 100.206 254.905 99.7842 252.985 99.0932L253.734 97.9805C255.479 98.5778 256.358 98.9643 257.751 99.749ZM260.949 106.179L259.602 106.858C259.063 104.82 258.571 103.544 257.716 101.998L258.969 101.436C259.836 102.981 260.281 104.071 260.949 106.179ZM254.378 101.74V106.928C254.378 107.221 254.601 107.28 255.678 107.28C256.627 107.28 256.955 107.198 257.084 106.928C257.236 106.6 257.318 105.827 257.341 104.609C257.845 104.855 258.161 104.961 258.653 105.078C258.548 106.659 258.431 107.326 258.173 107.818C257.845 108.416 257.341 108.556 255.456 108.556C254.086 108.556 253.641 108.486 253.324 108.228C253.114 108.053 253.032 107.783 253.032 107.303V101.775C253.032 101.33 253.008 101.049 252.95 100.581H254.46C254.402 100.955 254.378 101.318 254.378 101.74ZM269.006 106.038H268.187C268.116 106.495 268.105 106.53 268.023 106.776C267.788 107.49 267.261 108.053 266.488 108.439C266.043 108.65 265.657 108.779 264.825 108.966C264.614 108.463 264.462 108.217 264.158 107.854C266.125 107.608 266.863 107.139 267.015 106.038H266.816C266.453 106.038 266.289 106.038 265.809 106.073C265.832 105.839 265.844 105.663 265.844 105.218V103.11C265.844 102.7 265.832 102.419 265.797 102.185C266.102 102.208 266.36 102.22 266.91 102.22H270.997C271.536 102.22 271.794 102.208 272.098 102.185C272.063 102.454 272.051 102.7 272.051 103.11V105.148C272.051 105.535 272.063 105.816 272.098 106.073C271.805 106.05 271.595 106.038 271.114 106.038H270.201V107.373C270.201 107.619 270.26 107.643 270.904 107.643C271.396 107.643 271.56 107.608 271.63 107.49C271.7 107.362 271.723 107.034 271.723 106.343C272.11 106.542 272.414 106.647 272.883 106.753C272.766 108.533 272.543 108.744 270.81 108.744C270.06 108.744 269.674 108.697 269.393 108.58C269.088 108.439 269.006 108.263 269.006 107.818V106.038ZM267.039 103.169V103.637H270.822V103.169H267.039ZM267.039 104.527V105.043H270.822V104.527H267.039ZM264.392 99.4679V101.026C264.743 101.026 264.942 101.014 265.2 100.99V102.208C264.954 102.173 264.708 102.162 264.392 102.162V105.043C264.79 104.867 264.896 104.82 265.423 104.574L265.469 105.827C264.673 106.214 263.935 106.518 262.647 107.045C262.448 107.127 262.272 107.198 262.108 107.28L261.85 105.921C262.155 105.874 262.471 105.781 263.174 105.523V102.162H262.916C262.577 102.162 262.284 102.185 261.991 102.22V100.967C262.296 101.014 262.577 101.026 262.928 101.026H263.174V99.4562C263.174 98.8824 263.15 98.5076 263.104 98.1562H264.462C264.404 98.5193 264.392 98.8472 264.392 99.4679ZM266.887 98.9643H268.362C268.292 98.7067 268.222 98.5427 268.069 98.2265L269.264 97.9454C269.463 98.3202 269.569 98.6013 269.662 98.9643H271.161C271.677 98.9643 272.087 98.9409 272.426 98.9058V99.995C272.028 99.9598 271.759 99.9481 271.232 99.9481C271.068 100.323 270.986 100.499 270.857 100.756H271.536C272.145 100.756 272.379 100.745 272.719 100.698V101.869C272.321 101.822 272.051 101.81 271.489 101.81H266.523C265.938 101.81 265.797 101.81 265.446 101.845V100.709C265.821 100.745 266.008 100.756 266.488 100.756H266.969C266.887 100.499 266.793 100.264 266.652 99.9481H266.594C266.16 99.9481 265.938 99.9598 265.633 99.995V98.9058C265.996 98.9526 266.371 98.9643 266.887 98.9643ZM269.967 99.9481H267.882C267.987 100.182 268.105 100.475 268.198 100.756H269.615C269.768 100.452 269.861 100.217 269.967 99.9481ZM276.642 105.804V107.514C276.642 108.521 276.385 108.896 275.436 109.271L275.026 108.65C275.729 108.451 275.893 108.24 275.905 107.514H274.932V105.804H276.642ZM10.2712 117.14H13.3397C13.164 116.8 13.0937 116.672 12.8712 116.32L14.1829 115.84C14.4874 116.332 14.5109 116.367 14.8271 117.14H17.8487C18.446 117.14 18.7505 117.128 19.1487 117.093C19.1136 117.351 19.1018 117.573 19.1018 117.983V118.944C19.1018 119.318 19.1136 119.588 19.1487 119.845H17.8838V118.288H10.2595V119.845H8.98293C9.01806 119.576 9.04149 119.318 9.04149 118.932V117.983C9.04149 117.597 9.02977 117.363 8.99464 117.093C9.36941 117.128 9.69734 117.14 10.2712 117.14ZM15.7523 122.387V125.057C15.7523 125.35 15.8928 125.397 16.8415 125.397C17.7433 125.397 18.0127 125.326 18.1064 125.081C18.1532 124.94 18.2 124.495 18.2 124.167C18.2 124.026 18.2 123.933 18.2 123.874C18.7036 124.097 18.9145 124.155 19.4064 124.237C19.3595 125.408 19.219 125.924 18.8676 126.228C18.5397 126.498 18.0595 126.568 16.5487 126.568C14.7802 126.568 14.4523 126.404 14.4523 125.561V122.387H13.164C13.082 123.429 12.9415 123.956 12.5667 124.612C11.9928 125.608 11.2433 126.135 9.3577 126.861C9.1586 126.416 8.94779 126.053 8.64329 125.654C9.62707 125.362 9.97842 125.221 10.4235 124.975C11.1847 124.554 11.6649 123.874 11.8054 123.019C11.8406 122.844 11.8523 122.726 11.8874 122.387H10.2361C9.66221 122.387 9.31085 122.41 8.98293 122.457V121.181C9.29914 121.239 9.63878 121.251 10.2361 121.251H17.9073C18.4928 121.251 18.8208 121.239 19.1487 121.181V122.457C18.7973 122.41 18.4577 122.387 17.9073 122.387H15.7523ZM10.6577 120.384V119.131C10.9739 119.178 11.2433 119.19 11.7703 119.19H16.3613C16.8883 119.19 17.1577 119.178 17.4856 119.131V120.384C17.1577 120.337 16.8766 120.326 16.3613 120.326H11.7703C11.255 120.326 10.9739 120.337 10.6577 120.384ZM29.373 117.702L29.3262 117.644C29.0568 117.281 28.7874 116.999 28.3424 116.625L29.2442 116.051C29.7829 116.508 29.982 116.707 30.4271 117.281L29.8181 117.702H30.1694C30.7901 117.702 31.1064 117.69 31.4109 117.632V118.92C31.0244 118.885 30.5793 118.862 29.982 118.862H27.8739C27.9676 120.326 28.1316 121.368 28.4127 122.363C28.9631 121.485 29.3964 120.443 29.537 119.623L30.7901 120.103C30.7199 120.279 30.7199 120.279 30.5325 120.724C30.0172 121.989 29.5487 122.832 28.9514 123.652C29.2325 124.167 29.5018 124.53 29.8064 124.811C30.0055 124.987 30.1226 125.081 30.1811 125.081C30.228 125.081 30.2748 125.01 30.3334 124.858C30.4154 124.589 30.4154 124.589 30.5559 123.488C30.9541 123.886 31.1064 124.003 31.61 124.272C31.3406 125.854 30.9307 126.545 30.2865 126.545C29.6892 126.545 28.7289 125.725 28.0847 124.659C27.1946 125.549 26.3045 126.193 25.2505 126.708C24.8874 126.17 24.7586 126.029 24.3604 125.69C25.5901 125.186 26.6559 124.46 27.5109 123.535C27.4991 123.499 27.4991 123.499 27.4757 123.441C27.0307 122.387 26.7379 120.759 26.6325 118.862H23.0018C22.9901 119.459 22.9901 119.471 22.9784 120.408H25.1334C25.5433 120.408 25.719 120.396 25.9649 120.361C25.9415 120.607 25.9181 120.899 25.8946 121.356C25.7892 123.417 25.7073 124.085 25.5082 124.577C25.3208 125.045 24.8991 125.221 23.9973 125.221C23.6811 125.221 23.482 125.209 23.1073 125.186C23.0487 124.682 22.9784 124.401 22.8027 123.945C23.4352 124.026 23.5991 124.038 23.9271 124.038C24.3018 124.038 24.4073 123.968 24.4658 123.675C24.5595 123.265 24.6181 122.504 24.6415 121.555H22.9316C22.8379 122.961 22.7559 123.687 22.5685 124.495C22.3577 125.432 22.1235 125.959 21.6082 126.779C21.2451 126.31 21.0109 126.088 20.5892 125.783C20.9991 125.151 21.2451 124.6 21.3973 123.933C21.6316 122.926 21.7487 121.38 21.7487 119.225C21.7487 118.452 21.7253 118.089 21.6784 117.644C22.1 117.679 22.5802 117.702 23.1892 117.702H26.5856C26.5739 117.526 26.5739 117.526 26.5622 116.929C26.5388 116.355 26.5388 116.32 26.4919 116.051H27.8856C27.8505 116.297 27.8271 116.754 27.8271 117.117C27.8271 117.222 27.8271 117.386 27.8271 117.702H29.373ZM41.7523 122.972L40.8622 123.898C39.773 122.41 39.0469 121.497 38.3676 120.794C38.2973 120.724 38.2856 120.712 38.2505 120.677C38.0631 121.227 37.864 121.614 37.5946 122.036C37.0442 122.867 36.4235 123.441 35.3694 124.108C35.2055 123.781 34.9478 123.453 34.6199 123.125V125.397C34.6199 126.123 34.6316 126.474 34.6784 126.79H33.2379C33.2964 126.392 33.3199 125.936 33.3199 125.373V118.698C33.3199 118.217 33.3082 117.89 33.273 117.562C33.6946 117.608 34.0226 117.62 34.6316 117.62H37.5009C37.5009 117.538 37.5009 117.538 37.5009 117.398C37.5127 117.281 37.5127 117.14 37.5127 117.011C37.5127 116.543 37.4892 116.262 37.4424 115.957H38.9064C38.8478 116.262 38.8244 116.519 38.7892 117.433C38.7892 117.526 38.7892 117.55 38.7775 117.62H41.764C42.4082 117.62 42.7009 117.608 43.0991 117.562C43.064 117.878 43.0523 118.206 43.0523 118.698V125.408C43.0523 125.9 43.0172 126.076 42.8766 126.252C42.619 126.58 42.2091 126.673 41.0847 126.673C40.7451 126.673 40.464 126.662 39.9604 126.638C39.8784 126.053 39.7964 125.76 39.5973 125.303C40.1946 125.397 40.6514 125.432 41.1433 125.432C41.6937 125.432 41.7523 125.397 41.7523 125.057V122.972ZM41.7523 118.791H38.6721C38.6604 118.885 38.6604 118.885 38.5901 119.318C39.5036 120.22 39.5036 120.22 40.2766 121.075C41.0262 121.907 41.0379 121.918 41.7523 122.797V118.791ZM37.3955 118.791H34.6199V122.984C36.3181 121.989 37.1027 120.806 37.3955 118.791ZM45.9802 125.116L44.6919 124.39C45.4766 122.89 45.7343 121.965 46.0154 119.635L47.3154 119.904C46.9289 122.738 46.7298 123.488 45.9802 125.116ZM52.6793 117.749L51.8712 118.979C50.7 118.206 49.8334 117.784 47.9127 117.093L48.6622 115.981C50.4073 116.578 51.2856 116.964 52.6793 117.749ZM55.8766 124.179L54.5298 124.858C53.991 122.82 53.4991 121.544 52.6442 119.998L53.8973 119.436C54.764 120.981 55.2091 122.071 55.8766 124.179ZM49.3064 119.74V124.928C49.3064 125.221 49.5289 125.28 50.6064 125.28C51.555 125.28 51.8829 125.198 52.0118 124.928C52.164 124.6 52.246 123.827 52.2694 122.609C52.773 122.855 53.0892 122.961 53.5811 123.078C53.4757 124.659 53.3586 125.326 53.1009 125.818C52.773 126.416 52.2694 126.556 50.3838 126.556C49.0136 126.556 48.5685 126.486 48.2523 126.228C48.0415 126.053 47.9595 125.783 47.9595 125.303V119.775C47.9595 119.33 47.9361 119.049 47.8775 118.581H49.3883C49.3298 118.955 49.3064 119.318 49.3064 119.74ZM58.6523 120.794H58.0433C57.7036 120.794 57.3874 120.817 57.0361 120.864V119.482C57.4226 119.541 57.6568 119.553 58.055 119.553H59.0622C59.4838 119.553 59.7298 119.541 60.0226 119.494C60.0109 119.576 60.0109 119.576 59.9991 119.681C59.964 120.033 59.9523 120.279 59.9523 120.829V123.851C60.5613 123.371 60.655 123.3 61.0649 122.89L61.0766 124.448C60.8307 124.706 60.6316 124.893 60.2217 125.233C60.1046 125.326 59.6244 125.701 58.7811 126.345L58.1721 125.139C58.5703 124.917 58.6523 124.788 58.6523 124.436V120.794ZM61.0532 117.644L60.046 118.627C59.7181 118.206 59.0739 117.573 58.3478 116.988L59.3433 116.121C59.8469 116.496 60.573 117.14 61.0532 117.644ZM62.9973 116.18H64.473C64.4262 116.496 64.4027 117.07 64.4027 117.714V117.772C64.4027 118.709 64.4964 119.635 64.6838 120.443C64.9532 121.637 65.4217 122.703 66.1127 123.64C66.6163 124.319 67.0027 124.717 67.9163 125.444C67.5181 125.865 67.319 126.146 67.0262 126.662C66.1712 125.842 65.6442 125.198 65.082 124.331C64.4496 123.359 64.1451 122.645 63.8874 121.59C63.6415 122.773 63.3838 123.511 62.9036 124.413C62.4586 125.256 62.0018 125.865 61.182 126.767C60.9595 126.334 60.737 126.064 60.2802 125.654C61.3226 124.682 61.791 124.05 62.2361 122.996C62.7982 121.684 63.0676 119.963 63.0676 117.608C63.0676 116.789 63.0559 116.543 62.9973 116.18ZM73.1748 118.674H72.7415C72.7298 118.99 72.7298 119.026 72.7298 119.471C72.7298 119.787 72.7064 120.068 72.6712 120.513H73.3739C73.8775 120.513 74.1469 120.501 74.4748 120.454V121.743C74.1586 121.696 73.8424 121.684 73.3388 121.684H72.5541C72.5424 121.766 72.5073 121.954 72.4604 122.235C73.4442 123.113 73.8541 123.558 74.6036 124.577L73.655 125.725C73.1514 124.835 72.7415 124.261 72.0856 123.546C71.8982 124.062 71.6757 124.483 71.3478 124.952C70.9613 125.49 70.61 125.854 69.8253 126.509C69.5676 126.041 69.3334 125.795 68.8532 125.455C70.282 124.565 71.0199 123.441 71.3009 121.684H70.3991C69.7784 121.684 69.4622 121.696 69.1226 121.754V120.443C69.4622 120.501 69.755 120.513 70.4343 120.513H71.4298C71.4649 120.056 71.4649 120.056 71.4883 118.674H70.9145C70.5748 119.354 70.3757 119.67 69.8955 120.267C69.591 119.904 69.3334 119.67 68.8883 119.377C69.6379 118.581 70.0595 117.808 70.3874 116.636C70.4811 116.332 70.5163 116.133 70.528 115.91L71.8514 116.168C71.7928 116.32 71.746 116.449 71.6523 116.777C71.5703 117.046 71.5118 117.234 71.4064 117.515H73.1748C73.7253 117.515 74.0064 117.503 74.3343 117.456V118.733C73.9946 118.698 73.6199 118.674 73.1748 118.674ZM75.9973 125.654V126.451H74.6973C74.7325 126.076 74.7676 125.572 74.7676 125.104V118.206C74.7676 117.737 74.7442 117.351 74.6973 116.964C75.037 117.011 75.2712 117.023 75.7748 117.023H78.2343C78.7027 117.023 78.9838 117.011 79.3235 116.964C79.2766 117.339 79.2649 117.667 79.2649 118.206V124.987C79.2649 125.526 79.2883 126.029 79.3352 126.463H78.0118V125.654H75.9973ZM76.0208 118.194V124.483H78.0118V118.194H76.0208ZM84.4064 117.433H89.2199C89.9226 117.433 90.2154 117.421 90.6604 117.363V118.709C90.2856 118.674 89.8874 118.651 89.2784 118.651H84.3127C84.2775 119.108 84.2658 119.154 84.1604 120.033H89.4073C89.9928 120.033 90.3325 120.021 90.6018 119.974C90.5667 120.302 90.5667 120.302 90.5199 121.169C90.391 123.476 90.1919 124.858 89.8874 125.619C89.5361 126.474 89.1027 126.697 87.7793 126.697C87.2523 126.697 86.9244 126.673 85.9055 126.603C85.8 126.076 85.6244 125.537 85.4604 125.198C86.819 125.373 87.1937 125.408 87.8262 125.408C88.5055 125.408 88.6226 125.291 88.81 124.413C88.9856 123.57 89.0676 122.832 89.1613 121.216H84.4298C83.973 121.216 83.3289 121.239 82.6145 121.298C82.837 120.091 82.9073 119.635 83.0009 118.674C83.0712 117.819 83.1181 117.105 83.1181 116.648C83.1181 116.543 83.1181 116.437 83.1064 116.367C83.0946 116.168 83.0946 116.168 83.0946 116.074L84.5469 116.086C84.5235 116.25 84.5 116.414 84.4766 116.636C84.4766 116.718 84.4532 116.929 84.4298 117.234C84.4181 117.316 84.4181 117.339 84.4064 117.433ZM88.6226 122.504V123.839C88.1775 123.792 87.6973 123.769 87.2055 123.769H82.6379C82.1109 123.769 81.619 123.792 81.1505 123.839V122.504C81.5721 122.551 82.0523 122.574 82.6496 122.574H87.2172C87.7091 122.574 88.1775 122.551 88.6226 122.504ZM101.564 119.143H95.6847C95.1226 119.143 94.8064 119.154 94.5018 119.19V118.054C94.8532 118.089 95.146 118.1 95.7082 118.1H101.564V117.515H95.1577C94.6307 117.515 94.2676 117.526 93.9514 117.562V116.426C94.3262 116.472 94.6307 116.484 95.1811 116.484H101.705C102.185 116.484 102.478 116.472 102.805 116.449C102.782 116.789 102.77 117.011 102.77 117.363V119.834C102.77 120.173 102.782 120.431 102.805 120.736C102.442 120.724 102.15 120.712 101.728 120.712H95.1226C94.6073 120.712 94.2793 120.724 93.928 120.759V119.67C94.2442 119.705 94.5955 119.717 95.0991 119.717H101.564V119.143ZM97.6523 121.028H99.0226C98.9874 121.227 98.9757 121.45 98.9757 121.743C98.9757 122.328 99.1514 122.972 99.4442 123.429C99.8775 124.132 100.814 124.776 101.88 125.151C102.431 125.338 102.934 125.444 103.824 125.561C103.543 126.017 103.414 126.31 103.25 126.861C101.939 126.626 100.978 126.287 100.205 125.795C99.6901 125.479 99.2334 125.069 98.882 124.624C98.6595 124.354 98.5541 124.179 98.3784 123.769C97.9685 124.741 97.5 125.268 96.4928 125.877C95.6613 126.381 94.9352 126.638 93.764 126.849C93.6 126.299 93.4478 126.006 93.1433 125.619C94.6307 125.444 95.6145 125.081 96.4811 124.378C97.2892 123.722 97.6874 122.808 97.6874 121.59C97.6874 121.38 97.6874 121.321 97.6523 121.028ZM94.6307 124.167L93.7172 123.336C94.6541 122.645 94.9235 122.363 95.4739 121.45L96.5514 122.059C95.919 123.054 95.4154 123.617 94.6307 124.167ZM101.693 121.473L102.77 122.164C102.009 123.066 101.646 123.429 100.908 124.015L100.006 123.183C100.744 122.68 101.131 122.281 101.693 121.473ZM113.088 123.675V123.898C113.205 123.863 113.276 123.792 113.369 123.605C113.58 123.031 113.686 122.633 113.791 122.024L114.681 122.258C114.634 122.375 114.634 122.375 114.564 122.609C114.482 122.855 114.201 123.605 114.084 123.874C114.189 123.863 114.189 123.863 114.4 123.839C114.423 123.827 114.517 123.816 114.822 123.769C114.728 123.499 114.681 123.371 114.517 123.043L115.232 122.715C115.513 123.289 115.735 123.851 115.934 124.483L115.267 124.776C115.489 124.87 115.887 124.987 116.192 125.045C116.063 125.818 116.016 126.006 115.852 126.24C115.595 126.603 115.208 126.685 113.803 126.685C112.889 126.685 112.503 126.626 112.269 126.463C112.058 126.31 111.952 126.041 111.952 125.654V123.792C111.542 124.507 111.132 124.987 110.477 125.549C109.879 126.076 109.364 126.416 108.497 126.896C108.298 126.533 107.994 126.17 107.619 125.865C108.86 125.245 109.458 124.858 109.961 124.378C110.734 123.628 111.144 122.937 111.414 121.86H110.348C110.02 121.86 109.669 121.872 109.387 121.895C109.423 121.637 109.423 121.415 109.423 120.771V118.03C109.423 117.386 109.423 117.163 109.387 116.882C109.692 116.906 110.02 116.917 110.488 116.917H111.32C111.484 116.601 111.601 116.297 111.718 115.852L113.053 116.004C112.784 116.578 112.737 116.683 112.596 116.917H114.318C114.845 116.917 115.138 116.906 115.431 116.882C115.407 117.187 115.396 117.491 115.396 118.112V120.665C115.396 121.38 115.407 121.649 115.431 121.895C115.138 121.872 114.798 121.86 114.377 121.86H112.667C112.596 122.223 112.55 122.387 112.432 122.726H113.147C113.112 123.054 113.088 123.359 113.088 123.675ZM113.088 124.085L113.1 125.338C113.1 125.572 113.241 125.608 114.06 125.608C114.986 125.608 115.021 125.572 115.079 124.671C115.056 124.565 115.056 124.565 115.044 124.518L113.943 124.729C113.65 124.776 113.58 124.799 113.346 124.87L113.088 124.085ZM114.213 118.873V117.972H112.96L112.948 118.873H114.213ZM114.213 119.869H112.913C112.889 120.197 112.866 120.501 112.831 120.853H114.213V119.869ZM110.523 119.869V120.853H111.578C111.601 120.665 111.636 120.337 111.66 119.869H110.523ZM110.523 118.873H111.706V117.972H110.523V118.873ZM108.205 120.513H107.724C107.162 122.621 107.162 122.621 106.787 123.535C106.998 123.499 108.064 123.336 108.322 123.289C108.31 123.242 108.31 123.23 108.298 123.183C108.087 122.563 107.994 122.281 107.736 121.626L108.673 121.333C109.153 122.481 109.364 123.066 109.75 124.261L108.743 124.741L108.626 124.272C107.069 124.6 106.19 124.799 105.569 124.952L105.16 123.769C105.417 123.652 105.546 123.523 105.675 123.277C106.085 122.211 106.401 121.169 106.541 120.513H106.237C105.815 120.513 105.558 120.525 105.253 120.572V119.33C105.546 119.365 105.78 119.377 106.331 119.377H108.123C108.673 119.377 108.896 119.365 109.188 119.33V120.572C108.884 120.525 108.638 120.513 108.205 120.513ZM105.534 117.983V116.742C105.815 116.789 106.05 116.8 106.471 116.8H108.169C108.568 116.8 108.79 116.789 109.071 116.742V117.983C108.802 117.936 108.591 117.925 108.216 117.925H106.448C106.05 117.925 105.827 117.936 105.534 117.983ZM120.139 117.726H120.783C121.31 117.714 121.65 117.702 121.79 117.69C121.778 117.784 121.778 117.784 121.767 118.042C121.755 118.077 121.755 118.077 121.755 118.698V119.681C122.516 118.791 123.289 117.128 123.465 115.992L124.812 116.215C124.741 116.379 124.718 116.437 124.648 116.672C124.601 116.847 124.414 117.351 124.308 117.655H126.803C127.283 117.655 127.564 117.644 127.798 117.608C127.763 117.913 127.763 117.913 127.751 118.534C127.728 119.986 127.623 122.691 127.576 123.289C127.353 126.275 127.06 126.697 125.21 126.697C124.929 126.697 124.636 126.685 124.086 126.65C124.039 126.123 123.957 125.795 123.758 125.315C124.519 125.444 124.87 125.479 125.257 125.479C125.76 125.479 125.936 125.385 126.041 125.045C126.287 124.319 126.44 122.106 126.475 118.885H123.758C123.36 119.693 122.95 120.302 122.259 121.087C122.095 120.853 122.001 120.736 121.755 120.501V124.999C121.755 125.432 121.767 125.83 121.802 126.158H120.549V125.455H118.886V126.486H117.609C117.656 126.135 117.668 125.701 117.668 124.975V118.885C117.668 118.264 117.656 117.995 117.621 117.69C117.773 117.702 118.031 117.726 118.124 117.726H118.886C119.132 117.14 119.272 116.636 119.389 116.016L120.736 116.203C120.502 116.894 120.385 117.187 120.139 117.726ZM118.874 118.862V120.935H120.549V118.862H118.874ZM118.874 122.071V124.331H120.549V122.071H118.874ZM125.573 123.16L124.39 123.804C124.004 122.68 123.43 121.555 122.879 120.829L123.945 120.255C124.648 121.263 125.011 121.907 125.573 123.16ZM129.66 116.964L130.433 116.027C131.253 116.554 131.698 116.894 132.46 117.573L131.663 118.581C130.984 117.913 130.457 117.48 129.66 116.964ZM129.227 119.892L129.918 118.908C130.621 119.318 131.265 119.775 132.038 120.396L131.3 121.462C130.492 120.724 130.07 120.408 129.227 119.892ZM130.972 122.188L132.038 122.867C131.476 124.577 131.265 125.081 130.621 126.275C130.504 126.486 130.469 126.568 130.387 126.72L129.25 125.748C129.414 125.584 129.637 125.268 129.871 124.87C130.316 124.108 130.621 123.371 130.972 122.188ZM137.917 120.888H133.888C133.467 120.888 133.174 120.899 132.799 120.923C132.823 120.583 132.834 120.29 132.834 119.834V117.363C132.834 116.929 132.823 116.672 132.799 116.332C133.092 116.367 133.42 116.379 133.994 116.379H137.788C138.374 116.379 138.69 116.367 138.983 116.332C138.948 116.695 138.936 116.917 138.936 117.398V119.857C138.936 120.279 138.948 120.56 138.983 120.923C138.667 120.899 138.397 120.888 137.917 120.888ZM134.041 117.468V118.182H137.718V117.468H134.041ZM134.041 119.166V119.881H137.718V119.166H134.041ZM139.405 125.186H139.58C139.85 125.186 139.99 125.174 140.213 125.127V126.427C139.99 126.392 139.99 126.392 138.936 126.357H132.811C132.331 126.357 131.921 126.381 131.523 126.427V125.139C131.745 125.174 131.921 125.186 132.167 125.186H132.424V122.422C132.424 122.082 132.413 121.895 132.389 121.579C132.635 121.602 132.846 121.614 133.408 121.614H138.386C138.995 121.614 139.194 121.602 139.451 121.579C139.416 121.918 139.405 122.071 139.405 122.399V125.186ZM133.537 122.68V125.186H134.404V122.68H133.537ZM135.446 122.68V125.186H136.324V122.68H135.446ZM137.367 122.68V125.186H138.257V122.68H137.367ZM146.069 122.574V121.872C145.869 121.872 145.752 121.872 145.178 121.848C145.108 121.462 145.038 121.204 144.932 120.97C144.265 121.356 143.328 121.708 142.063 122.047C141.794 121.614 141.653 121.438 141.267 121.017C143.152 120.7 144.452 120.244 145.202 119.646H143.082C142.485 119.646 142.051 119.67 141.677 119.717V118.534C142.04 118.581 142.532 118.604 143.211 118.604H145.741C145.46 118.405 145.178 118.264 144.359 117.843L144.956 117.327H143.96C143.34 117.327 143.059 117.339 142.707 117.386V116.226C143.082 116.273 143.515 116.297 144.195 116.297H148.821C149.5 116.297 149.816 116.285 150.062 116.25L150.741 116.999C150.683 117.035 150.683 117.035 150.613 117.081C150.566 117.117 150.449 117.199 150.285 117.316C149.711 117.714 148.868 118.194 147.978 118.604H150.074C150.542 118.604 150.823 118.592 151.14 118.557L151.889 119.342C151.749 119.482 151.749 119.482 151.596 119.646C150.917 120.361 150.203 120.923 149.16 121.555C148.797 121.11 148.692 121.005 148.212 120.665C149.043 120.279 149.289 120.126 149.863 119.646H147.896V121.017C147.896 121.497 147.732 121.731 147.345 121.813V122.574H150.589C151.245 122.574 151.678 122.551 152.03 122.504V123.769C151.667 123.722 151.245 123.699 150.601 123.699H148.294C149.219 124.495 150.531 125.081 152.323 125.479C152.03 125.877 151.866 126.158 151.62 126.697C149.723 126.111 148.376 125.315 147.31 124.179L147.333 124.577C147.333 124.706 147.345 124.999 147.345 125.104V125.912C147.345 126.369 147.357 126.591 147.415 126.849H145.998C146.045 126.533 146.069 126.263 146.069 125.912V125.116C146.069 124.893 146.08 124.671 146.104 124.19C145.038 125.291 143.902 125.994 141.981 126.708C141.782 126.252 141.618 126.006 141.243 125.572C142.848 125.127 144.136 124.507 145.12 123.699H142.977C142.356 123.699 141.911 123.722 141.548 123.769V122.504C141.899 122.551 142.227 122.574 142.707 122.574H146.069ZM146.678 119.646H146.631C146.244 120.091 145.881 120.384 145.143 120.841C145.26 120.864 145.26 120.864 145.541 120.888C145.741 120.911 146.186 120.935 146.42 120.935C146.619 120.935 146.678 120.888 146.678 120.712V119.646ZM148.399 117.327H145.46C146.08 117.667 146.502 117.925 146.853 118.171C147.369 117.948 147.638 117.796 148.399 117.327ZM161.844 120.759H160.591C160.579 123.476 160.123 125.526 159.232 126.884C158.764 126.509 158.565 126.381 158.073 126.123C158.331 125.783 158.495 125.479 158.694 125.022L158.014 125.35C157.733 124.46 157.628 124.202 157.335 123.581L158.249 123.265C158.53 123.816 158.635 124.05 158.846 124.624C159.221 123.546 159.361 121.918 159.361 118.826C159.361 117.843 159.35 117.421 159.291 116.964C160.614 116.929 162.641 116.414 163.238 115.969L164.21 117.105C164.069 117.14 164.023 117.163 163.812 117.234C162.887 117.585 162.137 117.761 160.603 118.03V119.576H163.238C163.753 119.576 164.058 119.553 164.315 119.506V120.806C164.023 120.771 163.835 120.759 163.367 120.759H163.074V125.479C163.074 126.181 163.086 126.509 163.144 126.861H161.774C161.832 126.498 161.844 126.158 161.844 125.479V120.759ZM157.312 118.159L158.307 118.44C158.249 118.569 158.249 118.569 158.132 118.826C158.085 118.92 158.003 119.108 157.897 119.365C157.827 119.529 157.827 119.529 157.663 119.799H157.909C158.436 119.799 158.67 119.787 158.975 119.74V120.993C158.647 120.958 158.401 120.946 157.909 120.946H156.949V121.778H157.85C158.354 121.778 158.623 121.766 158.916 121.719V122.949C158.612 122.914 158.342 122.902 157.85 122.902H156.949V125.725C156.949 126.263 156.902 126.439 156.703 126.615C156.504 126.779 156.223 126.849 155.707 126.849C155.532 126.849 155.18 126.837 154.817 126.814C154.794 126.427 154.712 126.053 154.583 125.643C155.051 125.701 155.25 125.713 155.426 125.713C155.696 125.713 155.766 125.654 155.766 125.432V122.902H154.536C154.032 122.902 153.775 122.914 153.459 122.961V121.719C153.763 121.766 153.997 121.778 154.56 121.778H155.766V120.946H154.524C154.032 120.946 153.763 120.958 153.447 120.993V119.74C153.74 119.787 153.997 119.799 154.536 119.799H154.817C154.665 119.178 154.536 118.826 154.314 118.417L155.332 118.159H154.723C154.208 118.159 153.939 118.171 153.623 118.206V116.953C153.915 116.999 154.185 117.011 154.747 117.011H155.66C155.543 116.718 155.485 116.59 155.286 116.191L156.492 115.899C156.726 116.367 156.808 116.543 156.972 117.011H157.745C158.284 117.011 158.518 116.999 158.823 116.953V118.206C158.518 118.171 158.225 118.159 157.733 118.159H157.312ZM157.16 118.159H155.426C155.684 118.663 155.766 118.908 155.93 119.517L154.876 119.799H156.492C156.796 119.236 157.007 118.733 157.16 118.159ZM154.173 126.053L153.166 125.408C153.728 124.729 154.032 124.155 154.29 123.277L155.332 123.663C154.923 124.846 154.735 125.221 154.173 126.053ZM168.438 118.346H170.347V117.456C170.347 116.847 170.323 116.484 170.265 116.051H171.764C171.717 116.437 171.694 116.824 171.694 117.445V118.346H174.13C174.727 118.346 175.231 118.323 175.711 118.276V119.564C175.207 119.517 174.727 119.494 174.165 119.494H171.694V121.649H173.72C174.305 121.649 174.774 121.626 175.16 121.579V122.867C174.739 122.82 174.27 122.797 173.72 122.797H171.694V125.28H174.505C175.172 125.28 175.664 125.256 176.132 125.198V126.533C175.582 126.474 175.16 126.451 174.54 126.451H167.372C166.763 126.451 166.26 126.474 165.709 126.533V125.198C166.213 125.256 166.716 125.28 167.337 125.28H170.347V122.797H168.543C167.993 122.797 167.524 122.82 167.126 122.867V121.579C167.501 121.626 167.887 121.649 168.532 121.649H170.347V119.494H167.958C167.466 120.513 167.021 121.192 166.365 121.954C166.06 121.508 165.791 121.227 165.405 120.958C166.283 120.068 166.986 118.838 167.384 117.538C167.536 117.035 167.595 116.789 167.641 116.449L168.977 116.777C168.953 116.871 168.953 116.871 168.871 117.081C168.836 117.163 168.836 117.175 168.754 117.468C168.696 117.632 168.543 118.089 168.438 118.346Z" fill="#775656"/>
</svg>
