<svg width="291" height="42" viewBox="0 0 291 42" fill="none" xmlns="http://www.w3.org/2000/svg">
<path d="M161.388 1.55871C161.388 2.84748 160.782 3.78288 159.569 4.36491C159.521 4.28869 159.444 4.18822 159.34 4.0635C159.23 3.93878 159.14 3.84871 159.07 3.79328C160.13 3.30825 160.66 2.55647 160.66 1.53792V0.394651H163.945V2.80591C163.945 3.06228 164.007 3.19046 164.132 3.19046H164.849C165.036 3.19046 165.199 3.17314 165.337 3.1385C165.351 3.38101 165.376 3.60273 165.41 3.80367C165.299 3.83832 165.116 3.85564 164.859 3.85564H164.08C163.74 3.85564 163.508 3.77249 163.384 3.6062C163.273 3.46069 163.217 3.187 163.217 2.78512V1.12219H161.388V1.55871ZM158.426 2.30703C158.052 1.822 157.525 1.28155 156.846 0.685664L157.345 0.217964C158.052 0.793063 158.585 1.3058 158.946 1.75618L158.426 2.30703ZM159.392 6.90089C159.476 7.15726 159.569 7.36859 159.673 7.53488C158.301 8.5465 157.542 9.13546 157.397 9.30175C157.355 9.21168 157.296 9.10082 157.22 8.96917C157.13 8.83059 157.05 8.72666 156.981 8.65737C157.106 8.57422 157.217 8.45989 157.314 8.31439C157.439 8.12731 157.501 7.92983 157.501 7.72196V4.01154H156.046V3.27361H158.249V7.72196L159.392 6.90089ZM160.671 5.31071C161.038 6.08674 161.579 6.77271 162.292 7.36859C163.013 6.79349 163.553 6.10753 163.914 5.31071H160.671ZM164.891 4.77025C164.509 5.98974 163.844 7.00136 162.895 7.80511C163.636 8.29013 164.516 8.64351 165.535 8.86523C165.355 9.03846 165.195 9.26711 165.057 9.55119C163.976 9.2879 163.047 8.86523 162.271 8.28321C161.516 8.80287 160.591 9.21861 159.496 9.53041C159.427 9.30175 159.299 9.0731 159.112 8.84445C160.075 8.62272 160.931 8.27628 161.679 7.80511C160.951 7.12608 160.373 6.31193 159.943 5.36267L160.089 5.31071H159.559V4.58317H164.277L164.412 4.55199L164.891 4.77025ZM169.037 2.32781C168.67 1.84972 168.126 1.30927 167.406 0.706451L167.905 0.20757C168.632 0.789598 169.183 1.3058 169.557 1.75618L169.037 2.32781ZM170.15 6.82814C170.17 6.91128 170.212 7.02907 170.274 7.18151L170.337 7.3582L170.368 7.44134L170.399 7.5037C168.944 8.53611 168.147 9.14239 168.009 9.32254C167.974 9.21861 167.915 9.09389 167.832 8.94838C167.749 8.8098 167.673 8.69894 167.603 8.61579C167.735 8.52572 167.842 8.41832 167.925 8.2936C168.043 8.12731 168.102 7.94715 168.102 7.75314V4.03232H166.47V3.27361H168.882V7.68039L170.15 6.82814ZM175.887 4.24019H173.257V9.52001H172.457V4.24019H169.817V3.46069H172.457V0.0620633H173.257V3.46069H175.887V4.24019ZM178.87 2.86827C178.717 3.57502 178.502 4.42034 178.225 5.40425C178.586 5.65369 179.032 5.98281 179.566 6.39162C180.044 5.44928 180.356 4.27484 180.501 2.86827H178.87ZM181.312 2.21349C181.173 4.16051 180.792 5.71951 180.169 6.8905C180.688 7.32702 181.066 7.69771 181.302 8.00259L180.792 8.64697C180.564 8.36289 180.217 8.00605 179.753 7.57646C179.143 8.42871 178.34 9.08003 177.342 9.53041C177.217 9.29483 177.058 9.08003 176.864 8.88602C177.82 8.52572 178.586 7.91597 179.161 7.05679C178.579 6.56484 177.979 6.10753 177.363 5.68487C177.612 4.97812 177.868 4.03925 178.132 2.86827H176.864V2.15113H178.277C178.416 1.46517 178.53 0.761883 178.62 0.0412768L179.379 0.0932435C179.31 0.612911 179.188 1.29887 179.015 2.15113H180.699L180.834 2.11995L181.312 2.21349ZM185.147 7.74275V1.8809H182.601V7.74275H185.147ZM185.906 1.14297V9.10428H185.147V8.48068H182.601V9.24979H181.873V1.14297H185.906ZM193.14 3.33597H189.897V0.872745H190.448V2.70197H191.238V0.0308836H191.83V2.70197H192.578V0.872745H193.14V3.33597ZM189.533 0.290717C188.972 1.19147 188.289 1.98137 187.486 2.6604C187.437 2.58418 187.371 2.48718 187.288 2.36939C187.198 2.2516 187.122 2.15459 187.06 2.07837C187.822 1.47556 188.411 0.789598 188.826 0.0204904L189.533 0.290717ZM189.72 2.32781C189.54 2.70198 189.301 3.13157 189.003 3.61659V9.49923H188.296V4.63514C188.061 4.9608 187.763 5.31764 187.403 5.70565C187.354 5.61558 187.285 5.50125 187.195 5.36267C187.091 5.21024 187.008 5.09938 186.945 5.03009C187.825 4.18476 188.525 3.20432 189.045 2.08877L189.72 2.32781ZM193.587 6.75538C193.642 6.97711 193.708 7.16072 193.784 7.30623C192.835 7.94369 192.294 8.34903 192.163 8.52225C192.142 8.43911 192.1 8.32824 192.038 8.18967C191.983 8.06495 191.931 7.96101 191.882 7.87787C191.917 7.85708 191.948 7.83283 191.976 7.80511C192.01 7.77047 192.041 7.72889 192.069 7.68039C192.132 7.5626 192.163 7.41363 192.163 7.23348V6.02785H190.822V6.63066C190.822 7.15033 190.76 7.63189 190.635 8.07534C190.476 8.64351 190.223 9.11467 189.876 9.48883C189.835 9.41262 189.758 9.31908 189.648 9.20821C189.537 9.09735 189.447 9.01767 189.377 8.96917C189.675 8.65737 189.887 8.26935 190.011 7.80511C190.101 7.4656 190.146 7.07065 190.146 6.62027V5.41464H192.797V7.25426L193.587 6.75538ZM194.376 2.8267L194.325 3.03456L194.273 3.24243C194.425 4.3857 194.636 5.35574 194.907 6.15257C195.253 5.23795 195.495 4.12933 195.634 2.8267H194.376ZM196.33 2.8267C196.109 4.60049 195.752 5.99667 195.26 7.01522C195.662 7.88826 196.164 8.5084 196.767 8.87563C196.566 9.04885 196.4 9.24979 196.268 9.47844C195.714 9.09042 195.246 8.50493 194.865 7.72196C194.394 8.46336 193.808 9.06964 193.108 9.5408C193.06 9.45765 192.994 9.36065 192.911 9.24979C192.814 9.11814 192.731 9.0246 192.662 8.96917C193.445 8.48414 194.068 7.8155 194.532 6.96325C194.269 6.22186 194.054 5.36267 193.888 4.3857C193.736 4.71829 193.614 4.95387 193.524 5.09245L193.493 5.05087L193.451 4.99891C193.417 4.95733 193.386 4.91922 193.358 4.88458C193.275 4.78757 193.202 4.70443 193.14 4.63514V4.75986H189.699V4.09468H193.14V4.30255C193.611 3.37408 193.943 1.95019 194.137 0.0308836L194.844 0.14521C194.761 0.851958 194.657 1.52406 194.532 2.16152H196.673V2.8267H196.33ZM206.194 1.04943C205.619 1.94326 205.078 2.67426 204.572 3.24243L203.918 2.96181C204.5 2.28278 204.995 1.54138 205.404 0.737632L206.194 1.04943ZM200.093 3.25282C199.802 2.64308 199.303 1.90862 198.596 1.04943L199.209 0.706451C199.902 1.51713 200.419 2.23081 200.758 2.84748L200.093 3.25282ZM205.809 8.57422C205.962 8.57422 206.062 8.51879 206.111 8.40793C206.159 8.30399 206.194 8.06495 206.215 7.69078C206.291 7.74622 206.402 7.80511 206.547 7.86747C206.679 7.91597 206.807 7.95408 206.932 7.9818C206.883 8.50147 206.786 8.85138 206.641 9.03153C206.495 9.21861 206.239 9.31215 205.872 9.31215H204.271C203.8 9.31215 203.485 9.23593 203.325 9.08349C203.173 8.93799 203.097 8.64697 203.097 8.21045V4.59357H201.475C201.371 5.93777 201.125 6.94593 200.737 7.61803C200.245 8.49107 199.396 9.13546 198.191 9.55119C198.073 9.29483 197.91 9.0731 197.702 8.88602C198.818 8.53265 199.597 7.97833 200.041 7.22308C200.38 6.64798 200.592 5.77148 200.675 4.59357H197.837V3.84524H201.912V0.0204904H202.712V3.84524H206.765V4.59357H203.866V8.20006C203.866 8.35942 203.897 8.46336 203.959 8.51186C204.015 8.55343 204.146 8.57422 204.354 8.57422H205.809ZM208.927 9.28097C209.752 8.94145 210.188 8.43218 210.237 7.75314C210.195 7.76007 210.136 7.76354 210.06 7.76354C209.838 7.76354 209.655 7.70118 209.509 7.57646C209.357 7.44481 209.281 7.26119 209.281 7.02561C209.281 6.79003 209.36 6.60295 209.52 6.46437C209.665 6.33965 209.849 6.27729 210.07 6.27729C210.659 6.27729 210.954 6.6757 210.954 7.47252C210.954 8.02684 210.791 8.51186 210.465 8.92759C210.147 9.3364 209.71 9.63781 209.156 9.83182L208.927 9.28097ZM223.613 5.15481C223.606 5.3211 223.596 5.44236 223.582 5.51857C223.422 7.59724 223.19 8.79248 222.885 9.10428C222.698 9.30522 222.421 9.41608 222.054 9.43687C221.624 9.46458 221.084 9.45765 220.433 9.41608C220.405 9.11814 220.311 8.85484 220.152 8.62619C220.45 8.6539 220.772 8.67122 221.119 8.67815C221.243 8.68508 221.371 8.68855 221.503 8.68855H221.773C221.995 8.68855 222.148 8.65044 222.231 8.57422C222.466 8.38021 222.65 7.47945 222.782 5.87195H219.653L218.863 5.88234C219.092 4.92615 219.282 3.91107 219.435 2.83709H222.792V1.18455H219.05V0.457011H223.551V3.56462H220.09L220.017 3.96996L219.955 4.37531C219.899 4.68711 219.851 4.94694 219.809 5.15481H223.613ZM226.793 0.134817V9.52001H226.024V0.134817H226.793ZM237.239 2.47332C236.871 1.91901 236.328 1.33005 235.607 0.706451L236.199 0.30111C236.941 0.924712 237.495 1.49981 237.862 2.02641L237.239 2.47332ZM237.613 4.57278C237.149 5.44582 236.546 6.25997 235.804 7.01522C236.227 8.1862 236.688 8.77169 237.187 8.77169C237.443 8.77169 237.599 8.15156 237.654 6.91128C237.855 7.10529 238.074 7.24387 238.309 7.32702C238.24 8.1862 238.119 8.76823 237.945 9.0731C237.779 9.3849 237.502 9.5408 237.114 9.5408C236.345 9.5408 235.704 8.89295 235.191 7.59724C234.498 8.21392 233.767 8.72319 232.998 9.12507C232.86 8.89641 232.683 8.69201 232.468 8.51186C233.383 8.06841 234.204 7.50717 234.931 6.82814C234.682 5.96202 234.488 4.95733 234.349 3.81406H231.907V5.477L232.842 5.26913L233.767 5.07166L233.819 5.76801L232.863 5.99667L231.907 6.21493V8.52225C231.907 8.97263 231.758 9.25672 231.46 9.37451C231.211 9.47151 230.635 9.52001 229.735 9.52001C229.686 9.2775 229.589 9.01767 229.444 8.74051C229.742 8.75437 230.046 8.7613 230.358 8.7613C230.601 8.7613 230.781 8.75784 230.899 8.75091C231.065 8.75091 231.148 8.67122 231.148 8.51186V6.40201C230.864 6.46437 230.486 6.54752 230.015 6.65145L229.745 6.71381L229.485 6.77617C229.298 6.81774 229.135 6.85239 228.997 6.8801L228.778 6.1006C229.056 6.0521 229.416 5.98281 229.859 5.89273C230.033 5.86502 230.24 5.82345 230.483 5.76801L230.816 5.70565L231.148 5.6329V3.81406H228.924V3.07614H231.148V1.42359C230.545 1.54138 229.908 1.64532 229.236 1.73539C229.187 1.5206 229.104 1.3058 228.986 1.09101C230.767 0.820778 232.136 0.508977 233.092 0.155603L233.643 0.789598C233.13 0.96975 232.551 1.12911 231.907 1.26769V3.07614H234.287C234.204 2.21002 234.155 1.22265 234.141 0.11403H234.931C234.931 1.16029 234.973 2.14766 235.056 3.07614H238.112V3.81406H235.139C235.243 4.69403 235.385 5.48393 235.565 6.18375C236.12 5.58786 236.574 4.95733 236.927 4.29216L237.613 4.57278ZM241.781 0.280324C241.587 0.973214 241.323 1.71114 240.991 2.49411V9.50962H240.242V4.00114C240.014 4.40302 239.775 4.76679 239.525 5.09245C239.491 4.99544 239.432 4.86379 239.349 4.6975C239.252 4.52428 239.172 4.39609 239.109 4.31294C239.913 3.28054 240.568 1.87051 241.074 0.0828503L241.781 0.280324ZM242.238 2.10955H242.986V9.52001H242.238V2.10955ZM243.267 0.0308836C243.849 0.820778 244.261 1.48249 244.504 2.01601L243.87 2.37978C243.613 1.77004 243.211 1.09447 242.664 0.353077L243.267 0.0308836ZM248.245 8.53265C248.245 8.96224 248.107 9.23593 247.829 9.35372C247.608 9.4438 247.057 9.48883 246.177 9.48883C246.142 9.25325 246.059 9.00728 245.928 8.75091C246.191 8.76476 246.465 8.77169 246.749 8.77169C246.977 8.77169 247.147 8.76823 247.258 8.7613C247.41 8.75437 247.487 8.67469 247.487 8.52225V1.11179H244.68V0.405044H248.245V8.53265ZM253.12 5.24835C252.704 5.38 252.261 5.51164 251.789 5.64329V8.53265C251.789 8.93452 251.665 9.18743 251.415 9.29136C251.221 9.38837 250.774 9.43687 250.074 9.43687C250.068 9.34679 250.04 9.229 249.991 9.08349C249.95 8.95877 249.901 8.83752 249.846 8.71973C250.033 8.72666 250.241 8.73012 250.469 8.73012H250.844C250.968 8.73012 251.031 8.6643 251.031 8.53265V5.87195L249.763 6.23572L249.544 5.48739C249.974 5.37653 250.469 5.24488 251.031 5.09245V2.83709H249.669V2.10955H251.031V0.0308836H251.789V2.10955H252.964V2.83709H251.789V4.89497L252.403 4.70789L253.016 4.53121L253.12 5.24835ZM254.419 5.98627V8.2936H257.246V5.98627H254.419ZM253.671 5.28992H258.015V9.52001H257.246V8.98995H254.419V9.55119H253.671V5.28992ZM257.495 3.40872C256.892 2.80591 256.366 2.09916 255.916 1.28848C255.493 2.0853 254.98 2.79205 254.377 3.40872H257.495ZM256.383 0.249144C256.355 0.311504 256.314 0.411973 256.258 0.550551C256.972 1.94326 257.911 2.9722 259.075 3.63738C258.992 3.69974 258.895 3.79674 258.784 3.92839C258.68 4.04618 258.59 4.16051 258.514 4.27137C258.167 4.02886 257.856 3.76903 257.578 3.49187V4.11547H254.169V3.6062C253.878 3.88335 253.567 4.14319 253.234 4.3857C253.165 4.28869 253.078 4.18822 252.974 4.08429C252.863 3.9665 252.763 3.87989 252.673 3.82446C254.086 2.88906 255.077 1.628 255.645 0.0412768L256.383 0.249144ZM267.982 1.21573H265.02V0.519371H268.731V4.05311H265.872V6.31886C265.872 6.4713 265.907 6.57177 265.976 6.62027C266.039 6.66184 266.191 6.68263 266.434 6.68263H268.034C268.256 6.68263 268.398 6.59948 268.46 6.43319C268.523 6.2669 268.564 5.86848 268.585 5.23795C268.765 5.38346 268.997 5.48393 269.281 5.53936C269.226 6.28075 269.122 6.77271 268.97 7.01522C268.817 7.26466 268.526 7.38938 268.097 7.38938H266.361C265.883 7.38938 265.557 7.31662 265.384 7.17112C265.211 7.02561 265.124 6.74153 265.124 6.31886V3.36715H267.982V1.21573ZM262.921 8.21045C263.454 8.40446 264.23 8.50147 265.249 8.50147C265.561 8.5084 266.26 8.5084 267.348 8.50147C268.519 8.50147 269.247 8.49454 269.531 8.48068C269.385 8.71626 269.281 8.97263 269.219 9.24979H265.259C264.109 9.24979 263.232 9.132 262.63 8.89641C261.958 8.63312 261.438 8.16541 261.071 7.49331C260.939 8.37328 260.731 9.07657 260.447 9.60316C260.378 9.55466 260.277 9.4923 260.146 9.41608C260 9.33293 259.886 9.27057 259.803 9.229C260.267 8.43218 260.516 6.92168 260.551 4.6975L261.279 4.74947C261.265 5.25528 261.244 5.73683 261.216 6.19414C261.438 6.92168 261.767 7.46213 262.204 7.8155V3.88682H260.031V3.19046H262.016V1.8809H260.291V1.19494H262.016V0.0412768H262.754V1.19494H264.428V1.8809H262.754V3.19046H264.698V3.88682H262.921V5.42503H264.594V6.11099H262.921V8.21045ZM274.831 6.23572C275.199 6.74153 275.684 7.1919 276.286 7.58685C276.841 7.17805 277.27 6.72767 277.575 6.23572H274.831ZM278.687 5.79919C278.306 6.65145 277.735 7.38245 276.972 7.99219C277.776 8.39407 278.663 8.68508 279.633 8.86523C279.446 9.04538 279.29 9.26365 279.165 9.52001C278.098 9.28443 277.153 8.92413 276.328 8.43911C275.552 8.93799 274.669 9.31215 273.678 9.56159C273.581 9.31215 273.442 9.10428 273.262 8.93799C274.149 8.73012 274.953 8.41832 275.673 8.00259C275.188 7.64921 274.769 7.2508 274.416 6.80735C273.834 7.67346 273.099 8.38367 272.212 8.93799C272.164 8.86177 272.088 8.75784 271.984 8.62619C271.873 8.50147 271.779 8.401 271.703 8.32478C273.096 7.53488 274.104 6.28422 274.727 4.57278H273.802C273.2 4.57278 272.846 4.61782 272.742 4.70789C272.728 4.65246 272.711 4.60049 272.69 4.55199C272.67 4.4827 272.649 4.42034 272.628 4.36491C272.573 4.20555 272.524 4.08429 272.483 4.00114C272.593 3.97343 272.701 3.86257 272.805 3.66856C272.832 3.62005 272.867 3.55077 272.909 3.46069C272.964 3.34983 273.016 3.2355 273.065 3.11771C273.203 2.78512 273.3 2.48025 273.356 2.20309L274.156 2.31742C274.038 2.80937 273.841 3.32904 273.563 3.87642H274.956C275.102 3.41219 275.24 2.80244 275.372 2.04719L276.12 2.15113C276.009 2.75394 275.874 3.32904 275.715 3.87642H278.23C277.96 3.54384 277.568 3.11425 277.056 2.58765L277.606 2.22388C277.856 2.46639 278.071 2.68119 278.251 2.86827C278.5 3.12464 278.684 3.32904 278.802 3.48148L278.24 3.87642H279.467V4.57278H275.507C275.389 4.88458 275.258 5.2137 275.112 5.56015H278.012L278.157 5.51857L278.687 5.79919ZM279.727 1.07022V1.80815H271.869V3.98036C271.869 5.01276 271.817 5.93777 271.713 6.75538C271.568 7.89865 271.322 8.82712 270.975 9.5408C270.913 9.47844 270.809 9.39876 270.664 9.30175C270.518 9.20475 270.4 9.13546 270.31 9.09389C270.636 8.42871 270.858 7.57646 270.975 6.53712C271.024 6.12832 271.059 5.6814 271.079 5.19638C271.093 4.84301 271.1 4.43767 271.1 3.98036V1.07022H275.226C275.074 0.758418 274.901 0.457011 274.707 0.165997L275.497 -0.000296673C275.718 0.33922 275.937 0.696058 276.151 1.07022H279.727ZM287.272 2.61883C286.926 2.20309 286.382 1.75618 285.64 1.27809L286.035 0.758418C286.784 1.21573 287.328 1.63839 287.667 2.02641L287.272 2.61883ZM286.825 5.13402C286.444 4.72521 285.873 4.30948 285.11 3.88682L285.474 3.34636C286.278 3.76903 286.857 4.15704 287.21 4.51042L286.825 5.13402ZM284.882 0.810385C284.722 1.31619 284.584 1.73193 284.466 2.05759C284.3 2.52182 284.154 2.88559 284.03 3.14889L283.531 2.9826C283.787 2.33128 284.016 1.55178 284.217 0.644092L284.882 0.810385ZM281.442 3.11771C281.386 2.43868 281.199 1.67303 280.88 0.820778L281.442 0.685664C281.76 1.44091 281.965 2.19963 282.055 2.96181L281.442 3.11771ZM283.188 4.36491C283.333 4.52428 283.6 4.86033 283.988 5.37307C284.376 5.88581 284.629 6.23225 284.747 6.4124L284.237 7.01522C284.147 6.83507 283.995 6.56484 283.78 6.20454C283.593 5.89273 283.396 5.57401 283.188 5.24835V9.50962H282.471V5.23795C282.027 6.52673 281.549 7.5141 281.036 8.20006C280.995 8.09613 280.936 7.96794 280.86 7.8155C280.79 7.68386 280.721 7.5626 280.652 7.45174C281.303 6.65491 281.84 5.57747 282.263 4.2194H280.808V3.49187H282.471V0.0620633H283.188V3.49187H284.882V4.2194H283.188V4.36491ZM288.935 6.58909V9.50962H288.208V6.7242L284.986 7.30623L284.861 6.58909L288.208 5.99667V0.0308836H288.935V5.86155L290.162 5.64329L290.276 6.35004L288.935 6.58909ZM58.5977 24.543H61.3416V25.2706H55.0952V24.543H57.8286V21.6225H55.5005V20.895H57.8286V18.9098H58.5977V20.895H60.9362V21.6225H58.5977V24.543ZM61.3416 17.6315V18.3694H55.6772C55.2892 19.1731 54.87 19.8799 54.4196 20.4896V25.4784H53.6609V21.4042C53.3214 21.7715 52.9195 22.1214 52.4553 22.454C52.4206 22.357 52.3617 22.2357 52.2786 22.0902C52.2024 21.9586 52.1296 21.8477 52.0603 21.7576C53.1759 20.9677 54.0905 19.8383 54.8042 18.3694H52.3098V17.6315H55.1471C55.3619 17.1049 55.5456 16.5679 55.698 16.0205L56.4879 16.218C56.3701 16.6198 56.2038 17.091 55.989 17.6315H61.3416ZM66.081 21.186L64.709 21.6121V24.6054C64.709 25.0003 64.5843 25.2567 64.3349 25.3745C64.127 25.4784 63.6697 25.5235 62.9629 25.5096C62.9283 25.2671 62.8486 25.0315 62.7239 24.8029C63.2644 24.8167 63.6073 24.8167 63.7528 24.8029C63.8845 24.8029 63.9503 24.737 63.9503 24.6054V21.8408L63.5865 21.9447L63.2436 22.0486C62.9872 22.1249 62.7724 22.1907 62.5992 22.2461L62.3809 21.4978C62.8937 21.3661 63.4168 21.2241 63.9503 21.0717V18.8371H62.5056V18.1199H63.9503V16.0309H64.709V18.1199H65.9251V18.8371H64.709V20.843C65.201 20.7044 65.6271 20.5797 65.9874 20.4688L66.081 21.186ZM67.3385 21.6433V22.6722H70.706V21.6433H67.3385ZM70.706 24.3975V23.3062H67.3385V24.3975H70.706ZM66.6006 20.9781H71.4647V25.468H70.706V25.0315H67.3385V25.5096H66.6006V20.9781ZM70.4773 19.4087C70.7614 19.4087 70.945 19.3325 71.0282 19.1801C71.1113 19.0276 71.1702 18.6708 71.2049 18.1096C71.288 18.1719 71.4023 18.2308 71.5479 18.2862C71.6726 18.3417 71.7938 18.3832 71.9116 18.411C71.8562 19.0969 71.7419 19.5508 71.5686 19.7725C71.3816 20.0011 71.0351 20.1155 70.5293 20.1155H68.1077C67.5118 20.1155 67.1134 20.0393 66.9124 19.8868C66.7046 19.7344 66.6006 19.4364 66.6006 18.993V16.0621H67.3593V17.6107C68.8144 17.3058 69.923 16.9836 70.6852 16.6441L71.2776 17.2157C70.3769 17.576 69.0708 17.919 67.3593 18.2447V18.993C67.3593 19.1662 67.4078 19.2805 67.5048 19.336C67.6018 19.3845 67.8166 19.4087 68.1492 19.4087H70.4773ZM81.4111 20.0947C80.9608 19.2009 80.2332 18.2585 79.2285 17.2677L79.8625 16.9351C80.9226 17.9329 81.671 18.8579 82.1075 19.7101L81.4111 20.0947ZM77.9605 19.9388H77.1603V16.0309H77.9605V19.9388ZM75.8507 17.1534C75.338 18.3313 74.6451 19.3394 73.772 20.1778C73.6958 20.1085 73.5988 20.0254 73.481 19.9284C73.3494 19.8245 73.242 19.7448 73.1588 19.6893C74.0111 18.948 74.6658 18.0368 75.1232 16.9559L75.8507 17.1534ZM78.1684 22.0278C78.8544 23.5591 80.2471 24.4911 82.3465 24.8237C82.2772 24.8929 82.1941 25.0003 82.0971 25.1459C82.0139 25.2706 81.9447 25.3918 81.8892 25.5096C79.7828 25.1008 78.352 24.0719 77.5968 22.4228C77.3058 23.1988 76.8554 23.8259 76.2456 24.304C75.5458 24.8375 74.5827 25.2394 73.3563 25.5096C73.2731 25.2671 73.138 25.0454 72.9509 24.8444C74.1427 24.6089 75.0573 24.2416 75.6948 23.7428C76.2491 23.3201 76.6475 22.7485 76.89 22.0278H73.0133V21.3211H77.0667C77.1152 21.0924 77.1672 20.7356 77.2226 20.2506H78.0437C78.0021 20.6317 77.9501 20.9885 77.8878 21.3211H82.1906V22.0278H78.1684ZM86.9612 22.3293V21.0613H86.0778V22.3293H86.9612ZM85.4957 22.3293V21.0613H84.5915V21.3939C84.5915 21.5879 84.5846 21.8997 84.5707 22.3293H85.4957ZM85.0488 17.5691C84.8687 17.9918 84.6989 18.3486 84.5395 18.6396H85.8283C85.9946 18.3555 86.1574 17.9987 86.3168 17.5691H85.0488ZM86.0778 20.4792H86.9612V19.2528H86.0778V20.4792ZM84.5915 20.4792H85.4957V19.2528H84.5915V20.4792ZM87.5952 24.6054C87.5952 24.9241 87.5086 25.1285 87.3354 25.2186C87.2037 25.3087 86.9058 25.3537 86.4415 25.3537C86.4207 25.1597 86.3549 24.9484 86.244 24.7197C86.5558 24.7336 86.7568 24.7336 86.8469 24.7197C86.9231 24.7197 86.9612 24.6816 86.9612 24.6054V22.9321H86.0778V25.2082H85.4957V22.9321H84.5188C84.4217 24.0338 84.1827 24.8999 83.8016 25.5304C83.7393 25.4819 83.6492 25.4195 83.5314 25.3433C83.4136 25.2671 83.3131 25.2117 83.23 25.177C83.5141 24.6851 83.7115 24.0615 83.8224 23.3062C83.8986 22.7935 83.9367 22.156 83.9367 21.3939V19.5646L83.8536 19.6686L83.76 19.7829C83.7046 19.7205 83.6145 19.6408 83.4898 19.5438C83.3651 19.4399 83.2577 19.3637 83.1676 19.3152C83.8952 18.5322 84.4425 17.434 84.8098 16.0205L85.5165 16.1764L85.4022 16.5609L85.2775 16.9455H86.6286L86.7429 16.9143L87.2106 17.2053C87.0443 17.6349 86.8191 18.113 86.5351 18.6396H87.5952V24.6054ZM89.8298 21.2483V18.6916H88.7385V21.2483H89.8298ZM91.6174 18.6916H90.4949V21.2483H91.6174V18.6916ZM92.1579 25.468C92.1094 25.2255 92.0158 24.9137 91.8772 24.5326L90.7963 24.6782L90.2559 24.7509L89.7258 24.8237C88.8944 24.9415 88.2708 25.0281 87.855 25.0835L87.7511 24.3352L87.9693 24.3144L88.1876 24.2832C88.3955 24.2624 88.5618 24.2451 88.6865 24.2312C89.0884 24.1827 89.4521 24.1377 89.7778 24.0961V22.1422H89.8298V21.9135H88.0941V18.0264H89.7778V16.0517H90.5573V18.0264H92.2826V21.9135H90.4949V22.1422H90.5573V24.0026L91.6278 23.8675C91.4199 23.3686 91.2329 22.9702 91.0666 22.6722L91.6798 22.4748C92.2618 23.5002 92.6429 24.4149 92.823 25.2186L92.1579 25.468ZM98.5706 17.964C98.4597 17.479 98.1964 16.9178 97.7807 16.2803L98.4147 16.0309C98.8235 16.606 99.1006 17.1568 99.2461 17.6834L98.5706 17.964ZM96.0658 20.3233H95.0992V23.5557H96.0658V20.3233ZM95.5981 17.3093C95.4733 18.1407 95.3105 18.9341 95.1096 19.6893H96.6582V24.1897H95.0992V25.0419H94.4652V21.4666C94.292 21.8408 94.0945 22.1837 93.8728 22.4955C93.8381 22.3985 93.7862 22.2738 93.7169 22.1214C93.6337 21.962 93.5644 21.8408 93.509 21.7576C94.1742 20.7806 94.6419 19.2979 94.9121 17.3093H93.7273V16.6129H96.9596V17.3093H95.5981ZM99.4124 24.5015H100.389V18.7124H99.4124V24.5015ZM103.102 24.5015V25.177H96.7206V24.5015H98.7576V18.7124H96.9388V18.016H100.306C100.625 17.4825 100.923 16.8138 101.2 16.0101L101.948 16.2284C101.678 16.852 101.373 17.4478 101.034 18.016H102.884V18.7124H101.044V24.5015H103.102ZM97.6767 19.7933C98.0994 21.1583 98.3731 22.2461 98.4978 23.0568L97.8119 23.2231C97.6733 22.2184 97.4169 21.1167 97.0427 19.918L97.6767 19.7933ZM101.242 23.0568C101.623 22.0105 101.921 20.9192 102.135 19.7829L102.842 19.97C102.662 20.6282 102.499 21.1998 102.354 21.6849C102.153 22.3362 101.973 22.8489 101.813 23.2231L101.242 23.0568ZM106.854 22.5787H110.7V21.4458H106.854V22.5787ZM106.854 17.964V18.993H110.7V17.964H106.854ZM106.854 20.7806H110.7V19.6582H106.854V20.7806ZM113.371 23.2958H104.193V22.5787H106.095V17.964H104.484V17.2365H106.095V16.0413H106.854V17.2365H110.7V16.0413H111.469V17.2365H113.132V17.964H111.469V22.5787H113.371V23.2958ZM108.039 23.961C107.138 24.5153 105.991 25.0281 104.599 25.4992C104.474 25.3191 104.304 25.1216 104.089 24.9068C105.482 24.4911 106.57 24.0164 107.353 23.4829L108.039 23.961ZM110.066 23.5349C111.382 23.9991 112.494 24.4772 113.402 24.9692L112.716 25.4784C111.871 24.9796 110.814 24.4945 109.546 24.0234L110.066 23.5349ZM117.393 21.2899V19.5438H115.855V20.1259C115.855 20.3476 115.848 20.7356 115.834 21.2899H117.393ZM115.855 17.1222V18.8267H117.393V17.1222H115.855ZM118.12 24.5015C118.12 24.9033 118.003 25.1597 117.767 25.2706C117.566 25.3745 117.119 25.4265 116.426 25.4265C116.385 25.1632 116.305 24.9172 116.187 24.6885C116.388 24.6955 116.603 24.6989 116.832 24.6989H117.206C117.331 24.692 117.393 24.6262 117.393 24.5015V22.0278H115.792C115.681 23.5245 115.422 24.6955 115.013 25.5408C114.833 25.3745 114.618 25.2463 114.368 25.1562C114.687 24.5119 114.905 23.6839 115.023 22.6722C115.072 22.2704 115.103 21.8304 115.117 21.3523C115.131 21.0058 115.138 20.597 115.138 20.1259V16.405H118.12V24.5015ZM123.026 24.6054C123.123 24.6054 123.192 24.5811 123.234 24.5326C123.283 24.4911 123.317 24.3698 123.338 24.1689C123.359 23.9472 123.369 23.4829 123.369 22.7762C123.556 22.9425 123.764 23.0568 123.993 23.1192C123.979 23.8328 123.948 24.3352 123.899 24.6262C123.865 24.8826 123.774 25.0696 123.629 25.1874C123.477 25.2844 123.293 25.3329 123.078 25.3329H122.569C122.347 25.3329 122.15 25.2636 121.976 25.1251C121.838 24.9865 121.769 24.5846 121.769 23.9194V17.143H120.043V20.7703C120.043 21.7334 119.977 22.5648 119.846 23.2647C119.666 24.2347 119.357 25.0038 118.921 25.572C118.851 25.5027 118.748 25.4195 118.609 25.3225C118.477 25.2255 118.366 25.1528 118.276 25.1043C118.692 24.5777 118.976 23.8848 119.129 23.0256C119.233 22.4436 119.285 21.6918 119.285 20.7703V16.405H122.527V23.9818C122.527 24.3213 122.548 24.5119 122.59 24.5534C122.638 24.5881 122.694 24.6054 122.756 24.6054H123.026ZM128.181 23.3686L127.339 23.6492L126.498 23.9402C125.853 24.155 125.34 24.3248 124.959 24.4495L124.783 23.67C125.295 23.5176 125.76 23.3721 126.175 23.2335V20.4377H124.99V19.7101H126.175V17.4548H124.887V16.7272H128.108V17.4548H126.913V19.7101H127.963V20.4377H126.913V23.0048L128.046 22.6307L128.181 23.3686ZM129.324 20.4481H130.904V19.1177H129.324V20.4481ZM129.324 18.4837H130.904V17.1742H129.324V18.4837ZM133.16 17.1742H131.569V18.4837H133.16V17.1742ZM133.16 19.1177H131.569V20.4481H133.16V19.1177ZM134.386 24.4703V25.177H127.693V24.4703H130.852V23.0464H128.493V22.3396H130.852V21.1236H128.618V16.4986H133.898V21.1236H131.632V22.3396H134.053V23.0464H131.632V24.4703H134.386ZM138.595 18.3798H136.413V20.552H138.595V18.3798ZM138.595 23.7324V21.238H136.413V23.7324H138.595ZM138.117 16.1556L137.982 16.5506L137.847 16.9455C137.743 17.2504 137.653 17.4963 137.577 17.6834H139.302V24.4287H136.413V25.2498H135.706V17.6834H136.87C136.96 17.4063 137.04 17.1257 137.109 16.8416C137.192 16.509 137.251 16.2284 137.286 15.9997L138.117 16.1556ZM144.384 18.0472C144.301 20.4862 144.215 22.156 144.125 23.0568C144.021 24.0338 143.868 24.647 143.667 24.8964C143.473 25.1389 143.2 25.2775 142.846 25.3121C142.562 25.3468 142.049 25.3433 141.308 25.3018C141.28 25.0177 141.194 24.7648 141.048 24.543C141.339 24.5708 141.651 24.5881 141.984 24.595C142.101 24.6019 142.219 24.6054 142.337 24.6054H142.586C142.787 24.6054 142.929 24.5534 143.013 24.4495C143.31 24.1308 143.522 22.1041 143.647 18.3694H141.007C140.688 19.1385 140.362 19.7448 140.03 20.1882C139.974 20.1328 139.874 20.0566 139.728 19.9596L139.541 19.8452L139.468 19.7933L139.396 19.7517C140.075 18.8579 140.605 17.6003 140.986 15.9789L141.724 16.1556C141.592 16.6961 141.443 17.1949 141.277 17.6522H144.384V18.0472ZM142.088 22.7346C141.769 22.0902 141.242 21.2899 140.508 20.3337L141.111 19.9804C141.873 20.9504 142.417 21.7334 142.742 22.3293L142.088 22.7346ZM154.601 16.6441C153.285 16.9905 151.414 17.1707 148.989 17.1845C148.961 16.9767 148.902 16.7896 148.812 16.6233C149.838 16.6025 150.818 16.5506 151.753 16.4674C152.827 16.3704 153.648 16.2491 154.217 16.1036L154.601 16.6441ZM151.733 18.7955C151.601 18.3174 151.424 17.8359 151.203 17.3508L151.795 17.1222C152.044 17.6211 152.231 18.0888 152.356 18.5253L151.733 18.7955ZM147.773 23.1088V21.6017H146.557V23.1088H147.773ZM146.557 19.4607V20.9365H147.773V19.4607H146.557ZM146.557 17.3508V18.7955H147.773V17.3508H146.557ZM151.691 20.7495C151.31 22.9875 150.354 24.543 148.822 25.4161C148.712 25.2151 148.576 25.0385 148.417 24.886C149.096 24.5465 149.664 24.0199 150.122 23.3062C149.914 23.0776 149.675 22.8524 149.404 22.6307L149.758 22.2149C149.889 22.3189 149.997 22.4089 150.08 22.4852C150.205 22.5891 150.312 22.6896 150.402 22.7866C150.631 22.3431 150.811 21.8269 150.943 21.238H149.976C149.671 21.9586 149.307 22.5544 148.885 23.0256C148.746 22.9078 148.583 22.8039 148.396 22.7138V23.8051H146.557V24.6989H145.943V16.6649H148.396V22.6203C149.048 21.9482 149.515 21.0128 149.799 19.8141L150.423 19.9284C150.354 20.2055 150.281 20.4446 150.205 20.6455H151.161L151.265 20.6247L151.691 20.7495ZM153.884 22.9321H154.819V23.5453H153.884V25.4888H153.26V23.5453H151.67C151.753 22.9494 151.802 22.3119 151.816 21.6329H152.419L152.398 21.9551L152.387 22.2773C152.373 22.5337 152.36 22.7519 152.346 22.9321H153.26V21.3211H151.733V20.6975H153.26V19.8556H153.884V20.6975H154.788V21.3211H153.884V22.9321ZM154.923 18.8267V20.3337H154.227V19.4399H149.508V20.3337H148.833V18.8267H149.955C149.789 18.411 149.585 17.9814 149.342 17.5379L149.914 17.2781C150.226 17.8116 150.444 18.2412 150.569 18.5669L150.059 18.8267H152.865C153.233 18.314 153.558 17.725 153.842 17.0598L154.508 17.3301C154.147 17.9259 153.829 18.4248 153.551 18.8267H154.923ZM156.545 18.359H157.324V25.52H156.545V18.359ZM157.293 16.166C157.903 16.7065 158.329 17.1949 158.571 17.6315L157.948 18.0472C157.684 17.5968 157.269 17.091 156.701 16.5298L157.293 16.166ZM159.507 23.036H161.98V21.6433H159.507V23.036ZM159.507 20.9989H161.98V19.6166H159.507V20.9989ZM158.81 18.9722H162.708V23.6804H158.81V18.9722ZM165.005 24.5742C165.005 24.9692 164.884 25.2221 164.641 25.3329C164.447 25.4299 164 25.4784 163.3 25.4784C163.252 25.2221 163.169 24.9796 163.051 24.7509C163.231 24.7578 163.435 24.7613 163.664 24.7613H164.038C164.156 24.7613 164.215 24.6989 164.215 24.5742V17.3404H159.226V16.6129H165.005V24.5742ZM167.354 25.281C168.178 24.9415 168.615 24.4322 168.663 23.7531C168.622 23.7601 168.563 23.7635 168.487 23.7635C168.265 23.7635 168.081 23.7012 167.936 23.5765C167.783 23.4448 167.707 23.2612 167.707 23.0256C167.707 22.79 167.787 22.6029 167.946 22.4644C168.092 22.3396 168.275 22.2773 168.497 22.2773C169.086 22.2773 169.38 22.6757 169.38 23.4725C169.38 24.0268 169.218 24.5119 168.892 24.9276C168.573 25.3364 168.137 25.6378 167.582 25.8318L167.354 25.281ZM183.401 22.984H176.978V22.2357H183.401V22.984ZM185.563 20.0531C185.556 20.2333 185.546 20.358 185.532 20.4273C185.275 23.0672 184.925 24.5985 184.482 25.0211C184.267 25.2429 183.945 25.3641 183.515 25.3849C183.037 25.4126 182.421 25.3988 181.665 25.3433C181.638 25.0592 181.541 24.8063 181.374 24.5846C181.721 24.6193 182.102 24.64 182.518 24.647C182.67 24.6539 182.823 24.6574 182.975 24.6574H183.287C183.557 24.6574 183.734 24.6158 183.817 24.5326C184.191 24.2486 184.489 22.9979 184.711 20.7806H178.724L178.08 20.7703C178.426 19.5508 178.755 18.0437 179.067 16.2491L179.847 16.3323L179.795 16.6025L179.743 16.8831C179.694 17.1257 179.656 17.3162 179.628 17.4548H185.407V18.1927H179.483L179.379 18.6812L179.275 19.1593C179.192 19.5265 179.123 19.8245 179.067 20.0531H185.563ZM194.771 24.2208V22.6826H189.232V24.2208H194.771ZM189.232 20.4481V21.9551H194.771V20.4481H189.232ZM189.232 18.1719V19.7205H194.771V18.1719H189.232ZM195.572 17.434V25.4784H194.771V24.9484H189.232V25.5304H188.463V17.434H191.071C191.258 16.8797 191.394 16.405 191.477 16.0101L192.36 16.1244C192.201 16.5748 192.028 17.0113 191.841 17.434H195.572ZM206.059 18.4733C205.691 17.919 205.147 17.3301 204.427 16.7065L205.019 16.3011C205.761 16.9247 206.315 17.4998 206.682 18.0264L206.059 18.4733ZM206.433 20.5728C205.969 21.4458 205.366 22.26 204.624 23.0152C205.047 24.1862 205.508 24.7717 206.007 24.7717C206.263 24.7717 206.419 24.1516 206.474 22.9113C206.675 23.1053 206.894 23.2439 207.129 23.327C207.06 24.1862 206.939 24.7682 206.765 25.0731C206.599 25.3849 206.322 25.5408 205.934 25.5408C205.165 25.5408 204.524 24.8929 204.011 23.5972C203.318 24.2139 202.587 24.7232 201.818 25.1251C201.68 24.8964 201.503 24.692 201.288 24.5119C202.203 24.0684 203.024 23.5072 203.751 22.8281C203.502 21.962 203.308 20.9573 203.169 19.8141H200.727V21.477L201.662 21.2691L202.587 21.0717L202.639 21.768L201.683 21.9967L200.727 22.2149V24.5223C200.727 24.9726 200.578 25.2567 200.28 25.3745C200.03 25.4715 199.455 25.52 198.555 25.52C198.506 25.2775 198.409 25.0177 198.264 24.7405C198.562 24.7544 198.866 24.7613 199.178 24.7613C199.421 24.7613 199.601 24.7578 199.719 24.7509C199.885 24.7509 199.968 24.6712 199.968 24.5119V22.402C199.684 22.4644 199.306 22.5475 198.835 22.6514L198.565 22.7138L198.305 22.7762C198.118 22.8177 197.955 22.8524 197.817 22.8801L197.598 22.1006C197.876 22.0521 198.236 21.9828 198.679 21.8927C198.853 21.865 199.06 21.8234 199.303 21.768L199.636 21.7057L199.968 21.6329V19.8141H197.744V19.0761H199.968V17.4236C199.365 17.5414 198.728 17.6453 198.056 17.7354C198.007 17.5206 197.924 17.3058 197.806 17.091C199.587 16.8208 200.955 16.509 201.912 16.1556L202.463 16.7896C201.95 16.9697 201.371 17.1291 200.727 17.2677V19.0761H203.107C203.024 18.21 202.975 17.2227 202.961 16.114H203.751C203.751 17.1603 203.793 18.1477 203.876 19.0761H206.932V19.8141H203.959C204.063 20.694 204.205 21.4839 204.385 22.1837C204.94 21.5879 205.393 20.9573 205.747 20.2922L206.433 20.5728ZM214.249 20.3857V17.4444H211.359V20.3857H214.249ZM217.346 21.134H215.038V25.5304H214.249V21.134H211.328C211.245 22.0625 211.034 22.8524 210.694 23.5037C210.278 24.3213 209.63 25.0073 208.75 25.5616C208.674 25.4715 208.577 25.371 208.459 25.2602C208.335 25.1424 208.227 25.0523 208.137 24.99C209.565 24.1169 210.365 22.8316 210.538 21.134H208.106V20.3857H210.569C210.576 20.2818 210.58 20.1328 210.58 19.9388V17.4444H208.491V16.7065H217.024V17.4444H215.038V20.3857H217.346V21.134ZM220.318 18.2239V19.6582H226.149V18.2239H220.318ZM220.318 20.3857C220.297 21.3696 220.204 22.2461 220.038 23.0152C219.809 24.0407 219.449 24.8826 218.957 25.5408C218.881 25.4507 218.78 25.3537 218.655 25.2498C218.517 25.1389 218.406 25.0627 218.323 25.0211C218.815 24.3629 219.158 23.528 219.352 22.5163C219.483 21.8165 219.549 20.9781 219.549 20.0011V17.4963H223.062C222.93 17.136 222.73 16.7099 222.459 16.218L223.187 16.0101C223.506 16.5298 223.738 16.9871 223.883 17.382L223.53 17.4963H226.908V20.3857H220.318ZM226.326 24.0961V22.2045H221.555V24.0961H226.326ZM227.095 21.4874V25.4577H226.326V24.8029H221.555V25.468H220.796V21.4874H227.095ZM238.205 20.2506V21.0924H228.799V20.2506H238.205ZM248.443 19.3671C248.436 19.5473 248.425 19.6686 248.412 19.7309C248.231 22.8766 247.968 24.6574 247.622 25.0731C247.448 25.281 247.216 25.3953 246.925 25.4161C246.683 25.4438 246.312 25.4473 245.813 25.4265C245.799 25.1493 245.734 24.9033 245.616 24.6885C245.81 24.7093 246.004 24.7232 246.198 24.7301C246.35 24.737 246.485 24.7405 246.603 24.7405C246.769 24.7405 246.887 24.6885 246.956 24.5846C247.234 24.3075 247.462 22.8108 247.642 20.0947H246.936C246.229 22.5267 244.996 24.3317 243.236 25.5096C243.166 25.4403 243.073 25.3606 242.955 25.2706C242.83 25.1736 242.726 25.1043 242.643 25.0627C244.355 24.0511 245.546 22.3951 246.219 20.0947H245.346C244.881 21.4181 244.112 22.4644 243.038 23.2335C242.997 23.185 242.917 23.1122 242.799 23.0152L242.643 22.9009C242.602 22.8732 242.553 22.842 242.498 22.8073L242.519 22.8905L241.687 23.2231L240.866 23.5453C240.256 23.7878 239.754 23.9853 239.359 24.1377L239.11 23.3582C239.567 23.2127 240.038 23.0499 240.523 22.8697V19.2736H239.255V18.5461H240.523V16.1452H241.251V18.5461H242.394V19.2736H241.251V22.6099L242.363 22.1941L242.498 22.7866C243.468 22.1491 244.171 21.2518 244.608 20.0947H243.88C243.36 20.0947 243.059 20.1363 242.976 20.2194C242.948 20.1363 242.9 20.0185 242.83 19.866C242.768 19.7136 242.709 19.5889 242.654 19.4919C242.868 19.4572 243.215 19.2875 243.693 18.9826C243.797 18.9202 243.922 18.8371 244.067 18.7332C244.24 18.6084 244.421 18.4768 244.608 18.3382C245.106 17.971 245.55 17.6072 245.938 17.2469H242.602V16.509H246.769L246.915 16.4466L247.497 16.8831C246.43 17.8463 245.359 18.6743 244.285 19.3671H248.443ZM257.256 17.1326H253.723V18.1407H257.256V17.1326ZM257.256 18.7643H253.723V19.7829H257.256V18.7643ZM258.015 20.4377H252.995V16.4778H258.015V20.4377ZM252.018 17.8185C251.595 17.4513 250.972 17.0806 250.147 16.7065L250.553 16.1556C251.349 16.4605 251.983 16.8069 252.455 17.1949L252.018 17.8185ZM251.436 20.6455C250.972 20.2437 250.338 19.866 249.534 19.5127L249.929 18.9618C250.733 19.2736 251.374 19.6235 251.852 20.0115L251.436 20.6455ZM252.226 22.0071C251.699 23.1157 251.107 24.2243 250.449 25.3329L249.794 24.8548C250.431 23.9056 251.051 22.8004 251.654 21.5394L252.226 22.0071ZM253.359 24.5223H254.367V21.9863H253.359V24.5223ZM254.97 21.9863V24.5223H255.988V21.9863H254.97ZM256.601 21.9863V24.5223H257.62V21.9863H256.601ZM259.054 24.5223V25.2082H251.779V24.5223H252.662V21.3211H258.358V24.5223H259.054ZM265.8 22.693C266.742 23.6007 267.968 24.252 269.479 24.647C269.292 24.8202 269.119 25.035 268.959 25.2914C267.372 24.7994 266.077 24.013 265.072 22.9321V25.5096H264.303V22.8905C263.319 23.9783 262.034 24.7994 260.447 25.3537C260.392 25.2636 260.312 25.1528 260.208 25.0211C260.118 24.9103 260.028 24.8063 259.938 24.7093C261.379 24.2936 262.585 23.6215 263.555 22.693H260.114V22.0071H264.303V21.3731C264.13 21.38 263.814 21.3835 263.357 21.3835C263.336 21.2934 263.302 21.186 263.253 21.0613L263.18 20.9054L263.108 20.7495C263.364 20.7633 263.624 20.7703 263.887 20.7703H264.168C264.244 20.7633 264.303 20.7599 264.345 20.7599C264.469 20.7599 264.532 20.7079 264.532 20.604V19.1489H264.438C263.489 20.1397 262.228 20.9019 260.655 21.4354C260.537 21.2414 260.374 21.0405 260.166 20.8326C261.483 20.4446 262.588 19.8834 263.482 19.1489H260.322V18.5149H264.958C264.126 18.2239 263.354 18.0091 262.64 17.8705L263.066 17.4132C263.558 17.5033 264.119 17.6419 264.75 17.8289C265.325 17.628 265.879 17.3751 266.413 17.0702H261.216V16.4362H267.317L267.494 16.3947L268.003 16.7896C267.372 17.2954 266.579 17.7423 265.623 18.1303C265.907 18.2273 266.17 18.3313 266.413 18.4421L266.35 18.5149H268.45L268.595 18.4733L269.188 18.6916C268.474 19.6339 267.899 20.2956 267.463 20.6767L266.777 20.4065C267.185 20.0462 267.57 19.627 267.93 19.1489H265.311V20.6144C265.311 20.9747 265.176 21.1964 264.906 21.2795C264.823 21.3072 264.729 21.328 264.625 21.3419H265.072V22.0071H269.271V22.693H265.8ZM274.457 17.3508C274.222 18.9306 273.816 20.3337 273.241 21.5601C273.726 22.2808 274.125 22.939 274.437 23.5349L273.844 24.1065C273.65 23.7046 273.317 23.1157 272.846 22.3396C272.278 23.3513 271.596 24.1689 270.799 24.7925C270.73 24.6885 270.646 24.5777 270.549 24.4599C270.439 24.3352 270.338 24.2416 270.248 24.1793C271.052 23.6042 271.758 22.7415 272.368 21.5913C271.724 20.6074 271.114 19.7448 270.539 19.0034L271.069 18.5461C271.755 19.4468 272.309 20.2021 272.732 20.8118C273.127 19.9111 273.418 18.9445 273.605 17.9121H270.456V17.2157H273.823L273.958 17.1845L274.457 17.3508ZM279.82 19.0553H278.573V24.4703C278.573 24.9207 278.428 25.2047 278.137 25.3225C277.894 25.4265 277.322 25.4784 276.422 25.4784C276.38 25.2151 276.293 24.9553 276.162 24.6989C276.467 24.7059 276.761 24.7128 277.045 24.7197C277.302 24.7197 277.475 24.7163 277.565 24.7093C277.731 24.7093 277.814 24.6297 277.814 24.4703V19.0553H274.852V18.307H277.814V16.0517H278.573V18.307H279.82V19.0553ZM276.318 22.9632C276.138 22.208 275.732 21.3627 275.102 20.4273L275.736 20.1363C276.373 21.0439 276.796 21.8719 277.004 22.6203L276.318 22.9632ZM282.824 18.307C282.519 17.8844 282.024 17.3716 281.338 16.7688L281.837 16.3011C282.516 16.8624 283.021 17.3508 283.354 17.7666L282.824 18.307ZM283.998 22.7762C284.026 22.8732 284.071 22.9875 284.133 23.1192C284.196 23.2439 284.251 23.3443 284.3 23.4206C282.956 24.4738 282.221 25.08 282.096 25.2394C282.055 25.1493 281.989 25.0419 281.899 24.9172C281.802 24.7856 281.719 24.6885 281.649 24.6262C281.705 24.5846 281.76 24.5361 281.816 24.4807C281.885 24.4045 281.947 24.3282 282.003 24.252C282.134 24.0442 282.2 23.8328 282.2 23.618V20.0115H280.766V19.2736H282.928V23.5972L283.998 22.7762ZM288.81 22.3708H285.381V24.3975H288.81V22.3708ZM287.48 19.9388V21.6641H289.611V25.4784H288.81V25.1043H285.381V25.52H284.612V21.6641H286.711V19.9388H284.081V19.2009H286.711V17.3404C285.928 17.4513 285.124 17.5448 284.3 17.6211C284.286 17.5379 284.255 17.4305 284.206 17.2989C284.165 17.1949 284.12 17.091 284.071 16.9871C286.295 16.7653 287.979 16.4674 289.122 16.0932L289.663 16.7168C289.164 16.8762 288.436 17.0425 287.48 17.2157V19.2009H290.203V19.9388H287.48ZM9.43719 37.1652C9.12539 37.4285 8.74776 37.7091 8.30431 38.0071C8.79627 38.6237 9.13578 39.1088 9.32286 39.4621L8.7928 39.8363C8.35628 39.0118 7.65646 38.0764 6.69334 37.0301L7.19222 36.7079C7.43474 36.9712 7.68764 37.2553 7.95094 37.5601C8.35282 37.2622 8.70273 36.9643 9.00067 36.6663L9.43719 37.1652ZM6.25682 33.1118V34.0992H8.35628V33.1118H6.25682ZM8.35628 35.7101V34.7228H6.25682V35.7101H8.35628ZM7.51442 38.4748L7.55599 38.6203L7.59757 38.7762C7.63221 38.9009 7.66339 38.991 7.69111 39.0464C6.33304 39.5314 5.59511 39.8294 5.47732 39.9402C5.44268 39.8571 5.39417 39.7566 5.33181 39.6388C5.26253 39.521 5.20363 39.4344 5.15513 39.379C5.26599 39.3097 5.35607 39.2265 5.42535 39.1295C5.51543 38.984 5.56047 38.8177 5.56047 38.6307V32.4778H9.04224V36.3545H6.25682V38.8801L7.51442 38.4748ZM4.31327 34.702C4.1054 34.1269 3.80053 33.5206 3.39865 32.8831L3.98068 32.6233C4.40334 33.24 4.72207 33.8324 4.93687 34.4006L4.31327 34.702ZM1.82925 33.8081C1.62139 33.3301 1.33384 32.8485 0.966606 32.3635L1.51745 32.0725C1.90547 32.5575 2.20688 33.0183 2.42168 33.4548L1.82925 33.8081ZM4.729 39.8051C4.79136 39.8398 4.8849 39.9021 5.00962 39.9922L5.08237 40.0546L5.16552 40.1169C5.23481 40.1585 5.30063 40.2001 5.36299 40.2416C5.81337 40.5326 6.45776 40.6782 7.29616 40.6782C8.16227 40.6782 8.96602 40.6331 9.70742 40.543C9.66584 40.6539 9.62773 40.7752 9.59309 40.9068C9.55844 41.0662 9.53766 41.1909 9.53073 41.281C9.2605 41.3018 8.89673 41.3191 8.43943 41.3329C7.99598 41.3468 7.60796 41.3537 7.27537 41.3537C6.41619 41.3537 5.73369 41.1874 5.22788 40.8548C5.16552 40.8133 5.08237 40.7509 4.97844 40.6678L4.85372 40.5742L4.74979 40.4911C4.59042 40.3802 4.46917 40.3248 4.38602 40.3248C4.17815 40.3248 3.82824 40.7059 3.33629 41.468L2.8478 40.8237C3.3259 40.2624 3.72431 39.916 4.04304 39.7843V36.209H3.27393L3.30511 36.2298L3.10764 36.4896L2.92056 36.7599C2.76119 36.9816 2.6434 37.1409 2.56718 37.238C2.67804 37.3904 2.80623 37.5671 2.95174 37.768L3.02449 37.8823L3.09724 37.9863C3.14575 38.0556 3.18039 38.1041 3.20118 38.1318L2.78544 38.6411C2.5845 38.2808 2.32467 37.8581 2.00594 37.3731V41.52H1.30959V37.5705C0.990857 38.0209 0.685985 38.3916 0.394972 38.6826C0.353398 38.5856 0.294502 38.4748 0.218285 38.35C0.135138 38.2184 0.0623842 38.1214 2.4088e-05 38.059C0.963141 37.1583 1.72186 35.9804 2.27617 34.5253H0.259858V33.8705H2.58797L2.7023 33.8393L3.07646 34.0992C2.8478 34.8613 2.49096 35.6616 2.00594 36.5C2.09602 36.604 2.18263 36.7218 2.26578 36.8534C2.46671 36.5555 2.66072 36.2333 2.8478 35.8868L3.25314 36.1882V35.575H4.729V39.8051ZM14.8729 37.1444C14.1315 38.3431 13.3763 39.3617 12.6072 40.2001L17.7415 39.8363C17.2842 39.185 16.8165 38.5822 16.3384 38.0278L17.0139 37.716C18.081 38.8801 18.8882 39.9783 19.4356 41.0107L18.6977 41.4161C18.5522 41.1181 18.3824 40.8167 18.1884 40.5119C14.0518 40.8375 11.8519 41.0523 11.5886 41.1562C11.5748 41.1077 11.5609 41.0558 11.547 41.0003C11.5263 40.9241 11.5055 40.8548 11.4847 40.7925C11.4293 40.6193 11.3773 40.4876 11.3288 40.3975C11.502 40.356 11.7549 40.1342 12.0875 39.7324C12.2676 39.5453 12.524 39.2231 12.8566 38.7658C13.2585 38.2115 13.6084 37.671 13.9063 37.1444H10.6324V36.3753H14.8417V34.411H11.4431V33.6522H14.8417V32.0205H15.642V33.6522H19.1342V34.411H15.642V36.3753H19.9033V37.1444H14.8729ZM29.9641 32.6441C28.5783 33.0252 26.6243 33.2746 24.1022 33.3924C24.0884 33.1984 24.0225 32.9871 23.9047 32.7584C26.4754 32.5921 28.3323 32.3496 29.4756 32.0309L29.9641 32.6441ZM27.9581 35.232C28.3462 34.6223 28.6891 33.9502 28.9871 33.2157L29.6938 33.5171C29.2296 34.411 28.852 35.0692 28.561 35.4919L27.9581 35.232ZM26.7005 35.3671C26.652 35.1524 26.5724 34.8717 26.4615 34.5253C26.3714 34.2551 26.2675 33.9571 26.1497 33.6315L26.8045 33.434C26.9292 33.7389 27.0401 34.0299 27.1371 34.307C27.2549 34.6396 27.338 34.9098 27.3865 35.1177L26.7005 35.3671ZM24.996 35.4815C24.8367 35.0034 24.5872 34.456 24.2477 33.8393L24.8713 33.6003C25.2385 34.2031 25.4984 34.7366 25.6508 35.2009L24.996 35.4815ZM23.25 33.8497C22.7649 33.4963 22.1483 33.1049 21.3999 32.6753L21.8365 32.1244C22.1829 32.3184 22.5155 32.5055 22.8342 32.6857C23.2153 32.9143 23.5029 33.0945 23.6969 33.2261L23.25 33.8497ZM22.7615 36.5728C22.5605 36.4342 22.2695 36.254 21.8884 36.0323C21.5558 35.8383 21.2163 35.6512 20.8699 35.4711L21.296 34.9202C22.1067 35.3013 22.7407 35.6408 23.198 35.9388L22.7615 36.5728ZM21.1401 40.8964C21.7568 39.9194 22.3596 38.7935 22.9485 37.5186L23.541 37.9967C22.9451 39.2854 22.3665 40.4079 21.8053 41.3641L21.1401 40.8964ZM30.1407 38.7554H27.3241V40.6989C27.3241 41.0662 27.189 41.2983 26.9188 41.3953C26.7109 41.4715 26.2121 41.5096 25.4222 41.5096C25.4083 41.4126 25.3737 41.2983 25.3182 41.1666C25.2767 41.0627 25.2247 40.9518 25.1623 40.8341C25.4118 40.841 25.6612 40.8479 25.9107 40.8548C26.1462 40.8548 26.3021 40.8514 26.3784 40.8444C26.51 40.8444 26.5758 40.789 26.5758 40.6782V38.7554H23.6969V38.0382H26.5758V37.4666C27.047 37.1825 27.532 36.8014 28.0309 36.3233H24.2789V35.6166H28.7065L28.8728 35.575L29.3716 35.97C28.7758 36.6351 28.0933 37.2206 27.3241 37.7264V38.0382H30.1407V38.7554ZM38.6737 32.8831H36.595V33.8809H38.6737V32.8831ZM39.4012 34.4525H35.8987V32.3115H39.4012V34.4525ZM32.2298 34.9202H33.9759V33.1222H32.2298V34.9202ZM34.8489 39.9402C34.3639 40.1065 33.7611 40.3109 33.0405 40.5534L32.604 40.7093L32.1778 40.8444C31.8522 40.9622 31.5923 41.0523 31.3983 41.1147L31.232 40.4183L31.575 40.3144V36.6144H32.1882V40.1273L32.895 39.909V35.575H31.6166V32.4674H34.6099V35.575H33.5394V37.1132H34.6411V37.7784H33.5394V39.6908L34.7346 39.3062L34.8489 39.9402ZM36.8133 35.5023H35.5349V36.6144H36.8133V35.5023ZM38.4554 36.6144H39.7962V35.5023H38.4554V36.6144ZM38.5178 38.6411C39.1414 39.4933 39.9036 40.1204 40.8043 40.5223C40.7281 40.5846 40.638 40.6747 40.5341 40.7925C40.444 40.9033 40.3678 41.0073 40.3054 41.1043C39.4185 40.6331 38.6598 39.9229 38.0293 38.9736V41.5096H37.3225V39.088C36.6851 40.0234 35.9437 40.7093 35.0984 41.1459C34.9737 40.9518 34.8143 40.7648 34.6203 40.5846C35.528 40.1758 36.2867 39.528 36.8964 38.6411H34.745V37.9863H37.3225V37.186H34.9425V34.9306H37.4369V37.1652H37.8526V34.9306H40.4302V37.186H38.0293V37.9863H40.6172V38.6411H38.5178ZM44.0678 41.3018C43.3611 40.4287 42.5954 39.6561 41.7709 38.984L42.4465 38.3916C43.2225 39.0152 43.9985 39.7843 44.7746 40.6989L44.0678 41.3018ZM53.0789 33.8913V38.3812H54.1702V33.8913H53.0789ZM53.0789 39.088V40.0649H52.4137V33.1949H54.8457V39.088H53.0789ZM57.8494 37.7057C57.9395 37.3107 57.9845 36.8534 57.9845 36.3337V35.2528H56.6126V37.7057H57.8494ZM57.1946 33.6003C56.9244 34.0022 56.6577 34.3451 56.3944 34.6292H58.4938C58.7433 34.3659 59.0135 34.0229 59.3045 33.6003H57.1946ZM59.9489 35.2528H58.7017V36.3441C58.7017 36.8638 58.6566 37.3176 58.5666 37.7057H59.9489V35.2528ZM58.7121 38.3812C59.3426 39.5869 60.3057 40.4183 61.6014 40.8756C61.4005 41.0627 61.2411 41.2671 61.1233 41.4888C59.8761 40.9692 58.8992 40.0719 58.1924 38.797C57.652 39.8848 56.6299 40.7925 55.1264 41.52C55.0086 41.3468 54.8388 41.1701 54.6171 40.99C56.1415 40.304 57.1427 39.4344 57.6208 38.3812H55.2095V37.7057H55.9059V35.1281C55.8089 35.2251 55.7326 35.2944 55.6772 35.336C55.6287 35.2528 55.549 35.1558 55.4382 35.045C55.3412 34.941 55.2511 34.8579 55.1679 34.7955C56.041 34.0818 56.7269 33.1534 57.2258 32.0101L57.9845 32.1452C57.846 32.4639 57.7178 32.7272 57.6 32.9351H59.7722L59.9073 32.8935L60.4062 33.2469C60.1568 33.6765 59.8103 34.1373 59.3669 34.6292H60.6868V37.7057H61.3832V38.3812H58.7121ZM70.7787 33.0494H68.0869V33.9433H70.7787V33.0494ZM70.7787 34.5045H68.0869V35.4191H70.7787V34.5045ZM71.4855 36.0323H67.4113V32.4362H71.4855V36.0323ZM66.0913 40.0961V39.0256H63.3059V40.0961H66.0913ZM63.3059 35.0969V37.5186C63.5623 37.2899 63.7424 37.0197 63.8464 36.7079C63.9226 36.4723 63.9607 36.1952 63.9607 35.8764V35.0969H63.3059ZM64.3868 34.4421H64.9896V33.1222H64.3868V34.4421ZM66.0913 35.0969H65.4158V37.0197C65.4158 37.1167 65.4643 37.1652 65.5613 37.1652H65.9354C66.0324 37.1652 66.0844 37.1548 66.0913 37.134V35.0969ZM64.3972 35.8868C64.3972 36.261 64.3453 36.6005 64.2413 36.9054C64.1097 37.2934 63.8949 37.6156 63.5969 37.8719C63.5138 37.7749 63.4168 37.6883 63.3059 37.6121V38.4436H66.0913V37.6225H65.5093C65.2945 37.6225 65.1525 37.5844 65.0832 37.5082C65.007 37.432 64.9689 37.2691 64.9689 37.0197V35.0969H64.3972V35.8868ZM71.9948 40.6054V41.2498H67.0475V40.6054H69.147V39.4206H67.5464V38.797H69.147V37.7888H67.8478C67.6677 38.1145 67.4633 38.4159 67.2346 38.693C67.1792 38.6445 67.0995 38.5856 66.9956 38.5163C66.8916 38.454 66.7981 38.3985 66.7149 38.35V41.3329H66.0913V40.7197H63.3059V41.4784H62.7031V34.4421H63.8256V33.1222H62.5264V32.457H66.8708V33.1222H65.5613V34.4421H66.7149V38.3189C67.193 37.8061 67.5603 37.0959 67.8166 36.1882L68.4402 36.3129C68.371 36.5762 68.2739 36.8569 68.1492 37.1548H69.147V36.2298H69.8433V37.1548H71.7038V37.7888H69.8433V38.797H71.5479V39.4206H69.8433V40.6054H71.9948ZM77.9917 35.8972V37.0301H80.5069V35.8972H77.9917ZM80.5069 38.8697V37.6953H77.9917V38.8697H80.5069ZM77.2018 38.8697V37.6953H74.6867V38.8697H77.2018ZM74.6867 35.8972V37.0301H77.2018V35.8972H74.6867ZM77.9917 35.2112H81.2656V40.0961H80.5069V39.5557H77.9917V41.4992H77.2018V39.5557H74.6867V40.1377H73.9487V35.2112H77.2018V34.2135H77.9917V35.2112ZM81.8996 33.1326V34.8267H81.1097V33.8809H74.0734V34.8267H73.3147V33.1326H77.3473C77.2711 32.9594 77.1984 32.8 77.1291 32.6545C77.039 32.4674 76.9559 32.308 76.8796 32.1764L77.6592 31.9477C77.9294 32.4189 78.1199 32.7965 78.2308 33.0806L78.0645 33.1326H81.8996ZM88.7281 38.7346C89.4556 39.8571 90.7894 40.5361 92.7295 40.7717C92.6464 40.8687 92.5598 40.983 92.4697 41.1147C92.3727 41.2533 92.3034 41.378 92.2618 41.4888C90.1624 41.1424 88.7281 40.252 87.959 38.8177C87.6887 39.5245 87.2418 40.0823 86.6182 40.4911C85.9392 40.9345 84.9553 41.2671 83.6665 41.4888C83.6388 41.3918 83.5834 41.274 83.5002 41.1355C83.4171 40.9969 83.3374 40.8826 83.2612 40.7925C84.4183 40.6262 85.3052 40.3733 85.9219 40.0338C86.49 39.715 86.8954 39.282 87.1379 38.7346H83.6873V38.0382H87.3665C87.422 37.8165 87.467 37.5498 87.5017 37.238H83.4275V36.552H87.5952V35.679H84.3629V35.0034H87.5952V34.1615H83.8536V33.4652H85.9842C85.8041 33.0771 85.5373 32.6753 85.1839 32.2595L85.8491 31.9893C86.2579 32.405 86.5628 32.8416 86.7637 33.2989L86.3896 33.4652H89.123C89.4487 33.0148 89.7466 32.5228 90.0169 31.9893L90.8067 32.2284C90.5919 32.5956 90.3148 33.0079 89.9753 33.4652H92.1579V34.1615H88.3643V35.0034H91.6902V35.679H88.3643V36.552H92.636V37.238H88.3019C88.2673 37.529 88.2257 37.7957 88.1772 38.0382H92.5113V38.7346H88.7281ZM94.6003 41.281C95.4249 40.9415 95.8614 40.4322 95.9099 39.7531C95.8683 39.7601 95.8094 39.7635 95.7332 39.7635C95.5115 39.7635 95.3279 39.7012 95.1824 39.5765C95.0299 39.4448 94.9537 39.2612 94.9537 39.0256C94.9537 38.79 95.0334 38.6029 95.1927 38.4644C95.3383 38.3396 95.5219 38.2773 95.7436 38.2773C96.3325 38.2773 96.627 38.6757 96.627 39.4725C96.627 40.0268 96.4642 40.5119 96.1385 40.9276C95.8198 41.3364 95.3833 41.6378 94.829 41.8318L94.6003 41.281ZM110.565 40.543H113.308V41.2706H107.062V40.543H109.795V37.6225H107.467V36.895H109.795V34.9098H110.565V36.895H112.903V37.6225H110.565V40.543ZM113.308 33.6315V34.3694H107.644C107.256 35.1731 106.837 35.8799 106.386 36.4896V41.4784H105.628V37.4042C105.288 37.7715 104.886 38.1214 104.422 38.454C104.387 38.357 104.329 38.2357 104.245 38.0902C104.169 37.9586 104.096 37.8477 104.027 37.7576C105.143 36.9677 106.057 35.8383 106.771 34.3694H104.277V33.6315H107.114C107.329 33.1049 107.512 32.5679 107.665 32.0205L108.455 32.218C108.337 32.6198 108.171 33.091 107.956 33.6315H113.308ZM121.041 38.984H114.618V38.2357H121.041V38.984ZM123.203 36.0531C123.196 36.2333 123.185 36.358 123.172 36.4273C122.915 39.0672 122.565 40.5985 122.122 41.0211C121.907 41.2429 121.585 41.3641 121.155 41.3849C120.677 41.4126 120.061 41.3988 119.305 41.3433C119.278 41.0592 119.181 40.8063 119.014 40.5846C119.361 40.6193 119.742 40.64 120.158 40.647C120.31 40.6539 120.462 40.6574 120.615 40.6574H120.927C121.197 40.6574 121.374 40.6158 121.457 40.5326C121.831 40.2486 122.129 38.9979 122.351 36.7806H116.364L115.72 36.7703C116.066 35.5508 116.395 34.0437 116.707 32.2491L117.486 32.3323L117.435 32.6025L117.383 32.8831C117.334 33.1257 117.296 33.3162 117.268 33.4548H123.047V34.1927H117.123L117.019 34.6812L116.915 35.1593C116.832 35.5265 116.762 35.8245 116.707 36.0531H123.203ZM129.325 38.2357C129.692 38.7415 130.177 39.1919 130.78 39.5869C131.334 39.178 131.763 38.7277 132.068 38.2357H129.325ZM133.18 37.7992C132.799 38.6514 132.228 39.3824 131.466 39.9922C132.269 40.3941 133.156 40.6851 134.126 40.8652C133.939 41.0454 133.783 41.2636 133.659 41.52C132.591 41.2844 131.646 40.9241 130.821 40.4391C130.045 40.938 129.162 41.3121 128.171 41.5616C128.074 41.3121 127.935 41.1043 127.755 40.938C128.642 40.7301 129.446 40.4183 130.166 40.0026C129.681 39.6492 129.262 39.2508 128.909 38.8073C128.327 39.6735 127.592 40.3837 126.705 40.938C126.657 40.8618 126.581 40.7578 126.477 40.6262C126.366 40.5015 126.272 40.401 126.196 40.3248C127.589 39.5349 128.597 38.2842 129.221 36.5728H128.296C127.693 36.5728 127.339 36.6178 127.235 36.7079C127.222 36.6525 127.204 36.6005 127.183 36.552C127.163 36.4827 127.142 36.4203 127.121 36.3649C127.066 36.2055 127.017 36.0843 126.976 36.0011C127.086 35.9734 127.194 35.8626 127.298 35.6686C127.326 35.6201 127.36 35.5508 127.402 35.4607C127.457 35.3498 127.509 35.2355 127.558 35.1177C127.696 34.7851 127.793 34.4803 127.849 34.2031L128.649 34.3174C128.531 34.8094 128.334 35.329 128.057 35.8764H129.449C129.595 35.4122 129.733 34.8024 129.865 34.0472L130.613 34.1511C130.502 34.7539 130.367 35.329 130.208 35.8764H132.723C132.453 35.5438 132.061 35.1142 131.549 34.5876L132.1 34.2239C132.349 34.4664 132.564 34.6812 132.744 34.8683C132.993 35.1246 133.177 35.329 133.295 35.4815L132.734 35.8764H133.96V36.5728H130C129.882 36.8846 129.751 37.2137 129.605 37.5601H132.505L132.65 37.5186L133.18 37.7992ZM134.22 33.0702V33.8081H126.362V35.9804C126.362 37.0128 126.31 37.9378 126.207 38.7554C126.061 39.8987 125.815 40.8271 125.469 41.5408C125.406 41.4784 125.302 41.3988 125.157 41.3018C125.011 41.2047 124.893 41.1355 124.803 41.0939C125.129 40.4287 125.351 39.5765 125.469 38.5371C125.517 38.1283 125.552 37.6814 125.573 37.1964C125.586 36.843 125.593 36.4377 125.593 35.9804V33.0702H129.719C129.567 32.7584 129.394 32.457 129.2 32.166L129.99 31.9997C130.211 32.3392 130.43 32.6961 130.644 33.0702H134.22ZM139.125 37.8512C139.022 37.6849 138.848 37.432 138.606 37.0924C138.412 36.8291 138.187 36.5277 137.93 36.1882V41.4992H137.161V36.5104C136.648 37.9031 136.098 38.939 135.509 39.618C135.467 39.5141 135.405 39.3894 135.321 39.2439C135.238 39.1053 135.159 38.9875 135.082 38.8905C135.949 37.9482 136.603 36.6455 137.047 34.9826H135.436V34.2447H137.161V32.0205H137.93V34.2447H139.344V34.9826H137.93V35.2528C138.09 35.426 138.388 35.7621 138.824 36.261C138.956 36.4203 139.112 36.604 139.292 36.8118L139.396 36.9262L139.479 37.0301C139.541 37.1063 139.586 37.1583 139.614 37.186L139.125 37.8512ZM144.696 34.993H143.626V40.4599C143.626 40.9449 143.466 41.2394 143.148 41.3433C142.884 41.4473 142.275 41.4992 141.318 41.4992C141.27 41.2359 141.176 40.9726 141.038 40.7093C141.322 40.7163 141.637 40.7197 141.984 40.7197H142.576C142.749 40.7128 142.836 40.6297 142.836 40.4703V36.0427C141.935 37.6918 140.885 38.9667 139.687 39.8675C139.513 39.6111 139.33 39.4032 139.136 39.2439C140.535 38.2946 141.679 36.8777 142.566 34.993H139.739V34.2551H142.836V32.0413H143.626V34.2551H144.696V34.993ZM148.989 34.3798H146.806V36.552H148.989V34.3798ZM148.989 39.7324V37.238H146.806V39.7324H148.989ZM148.511 32.1556L148.376 32.5506L148.24 32.9455C148.136 33.2504 148.046 33.4963 147.97 33.6834H149.695V40.4287H146.806V41.2498H146.099V33.6834H147.263C147.354 33.4063 147.433 33.1257 147.502 32.8416C147.586 32.509 147.645 32.2284 147.679 31.9997L148.511 32.1556ZM154.778 34.0472C154.695 36.4862 154.608 38.156 154.518 39.0568C154.414 40.0338 154.262 40.647 154.061 40.8964C153.867 41.1389 153.593 41.2775 153.24 41.3121C152.956 41.3468 152.443 41.3433 151.701 41.3018C151.674 41.0177 151.587 40.7648 151.442 40.543C151.733 40.5708 152.044 40.5881 152.377 40.595C152.495 40.6019 152.613 40.6054 152.73 40.6054H152.98C153.181 40.6054 153.323 40.5534 153.406 40.4495C153.704 40.1308 153.915 38.1041 154.04 34.3694H151.4C151.081 35.1385 150.756 35.7448 150.423 36.1882C150.368 36.1328 150.267 36.0566 150.122 35.9596L149.935 35.8452L149.862 35.7933L149.789 35.7517C150.468 34.8579 150.998 33.6003 151.379 31.9789L152.117 32.1556C151.985 32.6961 151.837 33.1949 151.67 33.6522H154.778V34.0472ZM152.481 38.7346C152.162 38.0902 151.636 37.2899 150.901 36.3337L151.504 35.9804C152.266 36.9504 152.81 37.7334 153.136 38.3293L152.481 38.7346ZM158.561 35.8868C158.734 36.06 159.011 36.3614 159.392 36.791C159.739 37.1929 159.975 37.4735 160.099 37.6329L159.611 38.2461C159.389 37.8719 159.039 37.3765 158.561 36.7599V41.4577H157.823V36.6144C157.359 37.9239 156.867 38.9078 156.347 39.5661C156.306 39.476 156.236 39.3547 156.139 39.2023L156.015 39.0152C155.98 38.9667 155.942 38.9147 155.9 38.8593C156.676 37.9308 157.286 36.6317 157.73 34.9618H156.15V34.2343H157.823V32.0205H158.561V34.2343H160.047V34.9618H158.561V35.8868ZM164.392 40.0961V38.3085H161.232V40.0961H164.392ZM161.232 33.3612V35.0969H164.392V33.3612H161.232ZM161.232 37.5913H164.392V35.8037H161.232V37.5913ZM165.15 32.6337V41.3953H164.392V40.8133H161.232V41.3953H160.494V32.6337H165.15ZM175.014 32.8312C174.64 33.725 174.245 34.5149 173.829 35.2009C173.76 35.1524 173.652 35.0935 173.507 35.0242C173.382 34.9618 173.271 34.9098 173.174 34.8683C173.562 34.2932 173.943 33.5483 174.317 32.6337L175.014 32.8312ZM170.784 35.2112C170.52 34.6223 170.077 33.867 169.453 32.9455L170.066 32.6545C170.69 33.5206 171.144 34.2516 171.428 34.8475L170.784 35.2112ZM169.11 32.2803C168.909 32.9455 168.653 33.6315 168.341 34.3382V41.52H167.603V35.8037C167.319 36.2956 167.032 36.7218 166.741 37.0821C166.699 36.9781 166.637 36.8499 166.553 36.6975C166.463 36.5173 166.387 36.3857 166.325 36.3026C167.219 35.2009 167.912 33.7943 168.404 32.0829L169.11 32.2803ZM175.762 38.5059H172.686V41.5096H171.916V38.5059H168.934V37.7888H171.916V36.2194H169.36V35.4919H171.916V32.0205H172.686V35.4919H175.336V36.2194H172.686V37.7888H175.762V38.5059ZM184.898 37.3835V34.6292H181.915V37.3835H184.898ZM181.115 37.3835V34.6292H178.142V37.3835H181.115ZM185.688 33.8705V38.7346H184.898V38.1422H181.915V41.5096H181.115V38.1422H178.142V38.7866H177.383V33.8705H181.115V32.0205H181.915V33.8705H185.688ZM188.14 41.281C188.965 40.9415 189.402 40.4322 189.45 39.7531C189.408 39.7601 189.35 39.7635 189.273 39.7635C189.052 39.7635 188.868 39.7012 188.723 39.5765C188.57 39.4448 188.494 39.2612 188.494 39.0256C188.494 38.79 188.574 38.6029 188.733 38.4644C188.878 38.3396 189.062 38.2773 189.284 38.2773C189.873 38.2773 190.167 38.6757 190.167 39.4725C190.167 40.0268 190.004 40.5119 189.679 40.9276C189.36 41.3364 188.923 41.6378 188.369 41.8318L188.14 41.281ZM198.783 35.4919H198.025V33.2157H202.036C201.877 32.8346 201.704 32.4813 201.517 32.1556L202.286 31.9373C202.577 32.4016 202.799 32.8277 202.951 33.2157H206.609V35.4919H205.82V33.9537H198.783V35.4919ZM199.511 35.7725V35.0553H205.113V35.7725H199.511ZM205.84 40.6366C206.034 40.6366 206.163 40.5569 206.225 40.3975C206.28 40.2382 206.318 39.8605 206.339 39.2647C206.422 39.327 206.537 39.3859 206.682 39.4413C206.8 39.4968 206.921 39.5383 207.046 39.5661C206.997 40.2867 206.9 40.7648 206.755 41.0003C206.603 41.2359 206.322 41.3537 205.913 41.3537H204.323C203.852 41.3537 203.537 41.281 203.377 41.1355C203.218 40.99 203.138 40.7093 203.138 40.2936V37.7057H201.309C201.226 38.8559 200.983 39.6942 200.581 40.2208C200.11 40.8306 199.261 41.2671 198.035 41.5304C198.007 41.4334 197.952 41.3191 197.869 41.1874C197.786 41.0627 197.706 40.9622 197.63 40.886C198.738 40.6712 199.497 40.3144 199.906 39.8155C200.252 39.3928 200.46 38.6896 200.529 37.7057H197.765V36.9677H206.89V37.7057H203.907V40.2832C203.907 40.4356 203.938 40.5326 204.001 40.5742C204.056 40.6158 204.191 40.6366 204.406 40.6366H205.84ZM214.945 32.0725C215.756 32.4813 216.376 32.8762 216.805 33.2573L216.327 33.7874C215.884 33.3786 215.271 32.9628 214.488 32.5402L214.945 32.0725ZM216.743 35.5438C216.293 36.9019 215.683 38.0729 214.914 39.0568C215.323 40.1308 215.787 40.6678 216.306 40.6678C216.452 40.6678 216.559 40.5188 216.629 40.2208C216.705 39.9368 216.76 39.4448 216.795 38.745C217.003 38.9529 217.225 39.0914 217.46 39.1607C217.391 40.0407 217.27 40.64 217.096 40.9588C216.923 41.2775 216.639 41.4369 216.244 41.4369C215.482 41.4369 214.848 40.8687 214.342 39.7324C213.712 40.4183 212.998 40.9934 212.201 41.4577C212.139 41.3676 212.052 41.2636 211.941 41.1459C211.823 41.0142 211.723 40.9137 211.64 40.8444C212.568 40.3456 213.365 39.7046 214.03 38.9217C213.67 37.7853 213.417 36.3268 213.272 34.5461H209.686V35.8972H212.336V36.2298C212.288 38.3293 212.177 39.4864 212.004 39.7012C211.872 39.8744 211.664 39.9749 211.38 40.0026C211.103 40.0234 210.691 40.0234 210.143 40.0026C210.129 39.7324 210.057 39.4898 209.925 39.2751C210.14 39.2958 210.361 39.3097 210.59 39.3166C210.68 39.3236 210.767 39.327 210.85 39.327H211.027C211.186 39.327 211.29 39.2889 211.338 39.2127C211.463 39.081 211.543 38.2149 211.578 36.6144H209.686V36.6975C209.686 37.626 209.62 38.454 209.488 39.1815C209.308 40.1862 209.01 40.99 208.595 41.5928C208.525 41.5166 208.425 41.423 208.293 41.3121C208.155 41.2013 208.04 41.1216 207.95 41.0731C208.331 40.5049 208.595 39.7843 208.74 38.9113C208.844 38.3015 208.896 37.5601 208.896 36.6871V33.7874H213.23C213.202 33.4063 213.182 32.8242 213.168 32.0413H213.968C213.968 32.7065 213.982 33.2885 214.01 33.7874H217.367V34.5461H214.062C214.172 35.9942 214.363 37.1964 214.633 38.1526C215.201 37.3211 215.645 36.3857 215.964 35.3464L216.743 35.5438ZM222.002 32.3843C223.27 33.2573 224.202 34.0229 224.798 34.6812L224.247 35.2528C223.61 34.5322 222.691 33.7458 221.493 32.8935L222.002 32.3843ZM226.523 35.4087C227.209 36.8153 227.673 38.1145 227.916 39.3062L227.157 39.6076C226.922 38.3812 226.471 37.0751 225.806 35.6893L226.523 35.4087ZM220.1 35.8245C220.003 36.5451 219.882 37.238 219.736 37.9031C219.563 38.7277 219.379 39.3928 219.185 39.8987L218.416 39.5765C218.853 38.5441 219.165 37.2449 219.352 35.679L220.1 35.8245ZM221.784 34.8994V40.0234C221.784 40.259 221.829 40.4149 221.919 40.4911C222.009 40.5604 222.203 40.595 222.501 40.595H224.486C224.805 40.595 225.013 40.4599 225.11 40.1897C225.2 39.9402 225.266 39.3582 225.307 38.4436C225.397 38.5129 225.515 38.5787 225.66 38.6411C225.792 38.7034 225.917 38.7519 226.035 38.7866C225.979 39.7982 225.858 40.4668 225.671 40.7925C225.47 41.1459 225.089 41.3225 224.528 41.3225H222.439C221.877 41.3225 221.5 41.2325 221.306 41.0523C221.105 40.8722 221.004 40.5257 221.004 40.013V34.8994H221.784ZM237 36.209H229.755V35.5127H236.251V34.6188H230.213V34.0368H236.251V33.143H229.755V32.4466H237V36.209ZM235.513 38.9009C235.929 38.2981 236.272 37.6606 236.542 36.9885L237.218 37.3835C237.003 37.7645 236.816 38.0937 236.657 38.3708C236.435 38.7311 236.244 39.0221 236.085 39.2439L235.513 38.9009ZM231.159 37.2691C231.013 37.671 230.868 38.0175 230.722 38.3085C230.521 38.6896 230.31 38.9944 230.088 39.2231L229.433 38.8281C229.877 38.4055 230.23 37.7992 230.493 37.0093L231.159 37.2691ZM233.965 36.4377C233.923 36.9712 233.85 37.4527 233.747 37.8823C234.419 39.5383 235.936 40.5015 238.299 40.7717C238.098 41.0003 237.945 41.2394 237.841 41.4888C235.735 41.1424 234.273 40.2416 233.456 38.7866C233.164 39.5002 232.704 40.0719 232.073 40.5015C231.373 40.9726 230.403 41.3295 229.163 41.572C229.08 41.3295 228.948 41.1112 228.768 40.9172C230.459 40.6193 231.623 40.0857 232.26 39.3166C232.738 38.7346 233.036 37.7749 233.154 36.4377H233.965ZM242.529 34.3798H240.346V36.552H242.529V34.3798ZM242.529 39.7324V37.238H240.346V39.7324H242.529ZM242.051 32.1556L241.916 32.5506L241.781 32.9455C241.677 33.2504 241.587 33.4963 241.51 33.6834H243.236V40.4287H240.346V41.2498H239.64V33.6834H240.804C240.894 33.4063 240.973 33.1257 241.043 32.8416C241.126 32.509 241.185 32.2284 241.219 31.9997L242.051 32.1556ZM248.318 34.0472C248.235 36.4862 248.148 38.156 248.058 39.0568C247.954 40.0338 247.802 40.647 247.601 40.8964C247.407 41.1389 247.133 41.2775 246.78 41.3121C246.496 41.3468 245.983 41.3433 245.242 41.3018C245.214 41.0177 245.127 40.7648 244.982 40.543C245.273 40.5708 245.585 40.5881 245.917 40.595C246.035 40.6019 246.153 40.6054 246.271 40.6054H246.52C246.721 40.6054 246.863 40.5534 246.946 40.4495C247.244 40.1308 247.455 38.1041 247.58 34.3694H244.94C244.621 35.1385 244.296 35.7448 243.963 36.1882C243.908 36.1328 243.807 36.0566 243.662 35.9596L243.475 35.8452L243.402 35.7933L243.329 35.7517C244.008 34.8579 244.538 33.6003 244.919 31.9789L245.657 32.1556C245.526 32.6961 245.377 33.1949 245.21 33.6522H248.318V34.0472ZM246.021 38.7346C245.702 38.0902 245.176 37.2899 244.441 36.3337L245.044 35.9804C245.806 36.9504 246.35 37.7334 246.676 38.3293L246.021 38.7346ZM257.256 33.1326H253.723V34.1407H257.256V33.1326ZM257.256 34.7643H253.723V35.7829H257.256V34.7643ZM258.015 36.4377H252.995V32.4778H258.015V36.4377ZM252.018 33.8185C251.595 33.4513 250.972 33.0806 250.147 32.7065L250.553 32.1556C251.349 32.4605 251.983 32.8069 252.455 33.1949L252.018 33.8185ZM251.436 36.6455C250.972 36.2437 250.338 35.866 249.534 35.5127L249.929 34.9618C250.733 35.2736 251.374 35.6235 251.852 36.0115L251.436 36.6455ZM252.226 38.0071C251.699 39.1157 251.107 40.2243 250.449 41.3329L249.794 40.8548C250.431 39.9056 251.051 38.8004 251.654 37.5394L252.226 38.0071ZM253.359 40.5223H254.367V37.9863H253.359V40.5223ZM254.97 37.9863V40.5223H255.988V37.9863H254.97ZM256.602 37.9863V40.5223H257.62V37.9863H256.602ZM259.054 40.5223V41.2082H251.779V40.5223H252.662V37.3211H258.358V40.5223H259.054ZM265.8 38.693C266.742 39.6007 267.968 40.252 269.479 40.647C269.292 40.8202 269.119 41.035 268.959 41.2914C267.372 40.7994 266.077 40.013 265.072 38.9321V41.5096H264.303V38.8905C263.319 39.9783 262.034 40.7994 260.447 41.3537C260.392 41.2636 260.312 41.1528 260.208 41.0211C260.118 40.9103 260.028 40.8063 259.938 40.7093C261.379 40.2936 262.585 39.6215 263.555 38.693H260.114V38.0071H264.303V37.3731C264.13 37.38 263.814 37.3835 263.357 37.3835C263.336 37.2934 263.302 37.186 263.253 37.0613L263.18 36.9054L263.108 36.7495C263.364 36.7633 263.624 36.7703 263.887 36.7703H264.168C264.244 36.7633 264.303 36.7599 264.345 36.7599C264.469 36.7599 264.532 36.7079 264.532 36.604V35.1489H264.438C263.489 36.1397 262.228 36.9019 260.655 37.4354C260.537 37.2414 260.374 37.0405 260.166 36.8326C261.483 36.4446 262.588 35.8834 263.482 35.1489H260.322V34.5149H264.958C264.126 34.2239 263.354 34.0091 262.64 33.8705L263.066 33.4132C263.558 33.5033 264.119 33.6419 264.75 33.8289C265.325 33.628 265.879 33.3751 266.413 33.0702H261.216V32.4362H267.317L267.494 32.3947L268.003 32.7896C267.372 33.2954 266.579 33.7423 265.623 34.1303C265.907 34.2273 266.17 34.3313 266.413 34.4421L266.35 34.5149H268.45L268.595 34.4733L269.188 34.6916C268.474 35.6339 267.899 36.2956 267.463 36.6767L266.777 36.4065C267.185 36.0462 267.57 35.627 267.93 35.1489H265.311V36.6144C265.311 36.9747 265.176 37.1964 264.906 37.2795C264.823 37.3072 264.729 37.328 264.625 37.3419H265.072V38.0071H269.271V38.693H265.8ZM275.112 33.7562H270.56V33.1118H272.597C272.438 32.7376 272.285 32.4224 272.14 32.166L272.836 31.9893C273.078 32.4258 273.262 32.8 273.387 33.1118H275.112V33.7562ZM271.952 38.4228C271.703 39.1642 271.346 39.8155 270.882 40.3767C270.799 40.3075 270.716 40.2416 270.633 40.1793C270.515 40.0892 270.421 40.0234 270.352 39.9818C270.768 39.5314 271.09 38.9563 271.318 38.2565L271.952 38.4228ZM271.859 33.8289C272.101 34.3555 272.247 34.8406 272.295 35.284L271.641 35.4607C271.592 34.9965 271.457 34.501 271.235 33.9744L271.859 33.8289ZM273.22 37.8719V40.5119C273.22 40.8514 273.12 41.0696 272.919 41.1666C272.746 41.2498 272.382 41.2914 271.828 41.2914C271.793 41.0766 271.717 40.8583 271.599 40.6366C271.994 40.6504 272.257 40.6504 272.389 40.6366C272.472 40.6366 272.514 40.5915 272.514 40.5015V37.8719H270.445V37.2068H272.514V36.1155H270.393V35.4607H273.262C273.498 34.8925 273.685 34.3417 273.823 33.8081L274.53 33.964C274.308 34.5876 274.118 35.0865 273.958 35.4607H275.278V36.1155H273.22V37.2068H275.154V37.8719H273.22ZM274.166 38.2149C274.589 38.8593 274.876 39.4032 275.029 39.8467L274.488 40.1585C274.301 39.6596 274.017 39.1018 273.636 38.4852L274.166 38.2149ZM279.81 36.2298H278.667V41.468H277.918V36.2298H276.349V36.5624C276.349 37.5186 276.287 38.3466 276.162 39.0464C275.989 40.0234 275.691 40.8133 275.268 41.4161C275.095 41.229 274.897 41.0731 274.676 40.9484C275.064 40.3941 275.33 39.6804 275.476 38.8073C275.58 38.2045 275.632 37.4562 275.632 36.5624V33.0183C277.038 32.7896 278.116 32.5194 278.864 32.2076L279.477 32.7792C278.68 33.0771 277.638 33.3266 276.349 33.5275V35.5023H279.81V36.2298ZM290.099 40.4391V41.1874H280.891V40.4391H285.1V37.7992H282.013V37.0509H285.1V34.7851H282.658C282.318 35.4572 281.954 36.0219 281.566 36.4792C281.49 36.4169 281.383 36.3372 281.244 36.2402C281.099 36.1432 280.974 36.0704 280.87 36.0219C281.695 35.135 282.335 33.8601 282.793 32.1972L283.572 32.3635C283.385 33.0079 283.191 33.5622 282.99 34.0264H285.1V32.0309H285.89V34.0264H289.611V34.7851H285.89V37.0509H289.226V37.7992H285.89V40.4391H290.099Z" fill="#4E0000"/>
</svg>
